999
dxfrw 0.5.11
0
SECTION
2
HEADER
9
$ACADVER
1
AC1021
9
$HANDSEED
5
20000
9
$DWGCODEPAGE
3
ANSI_1252
9
$INSBASE
10
0
20
0
30
0
9
$EXTMIN
10
-192.625
20
-24.1074750933
30
0
9
$EXTMAX
10
6689.12693489
20
3317.19086475
30
0
9
$LIMMIN
10
0
20
0
9
$LIMMAX
10
420
20
297
9
$ORTHOMODE
70
0
9
$LTSCALE
40
1
9
$TEXTSTYLE
7
STANDARD
9
$CLAYER
8
doors
9
$DIMASZ
40
75
9
$DIMLFAC
40
1
9
$DIMSCALE
40
1
9
$DIMEXO
40
26.25
9
$DIMEXE
40
22.5
9
$DIMTXT
40
65
9
$DIMTSZ
40
0
9
$DIMAUNIT
70
0
9
$DIMADEC
70
2
9
$DIMLUNIT
70
2
9
$DIMSTYLE
2
STANDARD
9
$DIMGAP
40
16.25
9
$DIMTIH
70
0
9
$LUNITS
70
2
9
$LUPREC
70
4
9
$AUNITS
70
0
9
$AUPREC
70
2
9
$SPLINESEGS
70
8
9
$GRIDMODE
70
1
9
$SNAPSTYLE
70
0
9
$GRIDUNIT
10
0
20
0
9
$PINSBASE
10
0
20
0
30
0
9
$PLIMMIN
10
0
20
0
9
$PLIMMAX
10
297
20
210
9
$INSUNITS
70
4
9
$PSVPSCALE
40
1
0
ENDSEC
0
SECTION
2
CLASSES
0
ENDSEC
0
SECTION
2
TABLES
0
TABLE
2
VPORT
5
8
330
0
100
AcDbSymbolTable
70
1
0
VPORT
5
31
330
2
100
AcDbSymbolTableRecord
100
AcDbViewportTableRecord
2
*ACTIVE
70
0
10
0
20
0
11
1
21
1
12
4070.48263141
22
3473.86342775
13
0
23
0
14
10
24
10
15
10
25
10
16
0
26
0
36
1
17
0
27
0
37
0
40
7063.20154008
41
2.10626702997
42
50
43
0
44
0
50
0
51
0
71
0
72
100
73
1
74
3
75
0
76
1
77
0
78
0
281
0
65
1
110
0
120
0
130
0
111
1
121
0
131
0
112
0
122
1
132
0
79
0
146
0
348
10020
60
7
61
5
292
1
282
1
141
0
142
0
63
250
421
3358443
0
ENDTAB
0
TABLE
2
LTYPE
5
5
330
0
100
AcDbSymbolTable
70
4
0
LTYPE
5
14
330
5
100
AcDbSymbolTableRecord
100
AcDbLinetypeTableRecord
2
ByBlock
70
0
3

72
65
73
0
40
0
0
LTYPE
5
15
330
5
100
AcDbSymbolTableRecord
100
AcDbLinetypeTableRecord
2
ByLayer
70
0
3

72
65
73
0
40
0
0
LTYPE
5
16
330
5
100
AcDbSymbolTableRecord
100
AcDbLinetypeTableRecord
2
Continuous
70
0
3
Solid line
72
65
73
0
40
0
0
LTYPE
5
32
330
5
100
AcDbSymbolTableRecord
100
AcDbLinetypeTableRecord
2
DOT
70
0
3
Dot . . . . . . . . . . . . . . . . . . . . . .
72
65
73
2
40
6.35
49
0
74
0
49
-6.35
74
0
0
LTYPE
5
33
330
5
100
AcDbSymbolTableRecord
100
AcDbLinetypeTableRecord
2
DOT2
70
0
3
Dot (.5x) .....................................
72
65
73
2
40
3.175
49
0
74
0
49
-3.175
74
0
0
LTYPE
5
34
330
5
100
AcDbSymbolTableRecord
100
AcDbLinetypeTableRecord
2
DOTX2
70
0
3
Dot (2x) .  .  .  .  .  .  .  .  .  .  .  .  .
72
65
73
2
40
12.7
49
0
74
0
49
-12.7
74
0
0
LTYPE
5
35
330
5
100
AcDbSymbolTableRecord
100
AcDbLinetypeTableRecord
2
DASHED
70
0
3
Dot . . . . . . . . . . . . . . . . . . . . . .
72
65
73
2
40
19.05
49
12.7
74
0
49
-6.35
74
0
0
LTYPE
5
36
330
5
100
AcDbSymbolTableRecord
100
AcDbLinetypeTableRecord
2
DASHED2
70
0
3
Dashed (.5x) _ _ _ _ _ _ _ _ _ _ _ _ _ _ _ _ _
72
65
73
2
40
9.525
49
6.35
74
0
49
-3.175
74
0
0
LTYPE
5
37
330
5
100
AcDbSymbolTableRecord
100
AcDbLinetypeTableRecord
2
DASHEDX2
70
0
3
Dashed (2x) ____  ____  ____  ____  ____  ___
72
65
73
2
40
38.1
49
25.4
74
0
49
-12.7
74
0
0
LTYPE
5
38
330
5
100
AcDbSymbolTableRecord
100
AcDbLinetypeTableRecord
2
DASHDOT
70
0
3
Dash dot __ . __ . __ . __ . __ . __ . __ . __
72
65
73
4
40
25.4
49
12.7
74
0
49
-6.35
74
0
49
0
74
0
49
-6.35
74
0
0
LTYPE
5
39
330
5
100
AcDbSymbolTableRecord
100
AcDbLinetypeTableRecord
2
DASHDOT2
70
0
3
Dash dot (.5x) _._._._._._._._._._._._._._._.
72
65
73
4
40
12.7
49
6.35
74
0
49
-3.175
74
0
49
0
74
0
49
-3.175
74
0
0
LTYPE
5
3A
330
5
100
AcDbSymbolTableRecord
100
AcDbLinetypeTableRecord
2
DASHDOTX2
70
0
3
Dash dot (2x) ____  .  ____  .  ____  .  ___
72
65
73
4
40
50.8
49
25.4
74
0
49
-12.7
74
0
49
0
74
0
49
-12.7
74
0
0
LTYPE
5
3B
330
5
100
AcDbSymbolTableRecord
100
AcDbLinetypeTableRecord
2
DIVIDE
70
0
3
Divide ____ . . ____ . . ____ . . ____ . . ____
72
65
73
6
40
31.75
49
12.7
74
0
49
-6.35
74
0
49
0
74
0
49
-6.35
74
0
49
0
74
0
49
-6.35
74
0
0
LTYPE
5
3C
330
5
100
AcDbSymbolTableRecord
100
AcDbLinetypeTableRecord
2
DIVIDE2
70
0
3
Divide (.5x) __..__..__..__..__..__..__..__.._
72
65
73
6
40
15.875
49
6.35
74
0
49
-3.175
74
0
49
0
74
0
49
-3.175
74
0
49
0
74
0
49
-3.175
74
0
0
LTYPE
5
3D
330
5
100
AcDbSymbolTableRecord
100
AcDbLinetypeTableRecord
2
DIVIDEX2
70
0
3
Divide (2x) ________  .  .  ________  .  .  _
72
65
73
6
40
63.5
49
25.4
74
0
49
-12.7
74
0
49
0
74
0
49
-12.7
74
0
49
0
74
0
49
-12.7
74
0
0
LTYPE
5
3E
330
5
100
AcDbSymbolTableRecord
100
AcDbLinetypeTableRecord
2
BORDER
70
0
3
Border __ __ . __ __ . __ __ . __ __ . __ __ .
72
65
73
6
40
44.45
49
12.7
74
0
49
-6.35
74
0
49
12.7
74
0
49
-6.35
74
0
49
0
74
0
49
-6.35
74
0
0
LTYPE
5
3F
330
5
100
AcDbSymbolTableRecord
100
AcDbLinetypeTableRecord
2
BORDER2
70
0
3
Border (.5x) __.__.__.__.__.__.__.__.__.__.__.
72
65
73
6
40
22.225
49
6.35
74
0
49
-3.175
74
0
49
6.35
74
0
49
-3.175
74
0
49
0
74
0
49
-3.175
74
0
0
LTYPE
5
40
330
5
100
AcDbSymbolTableRecord
100
AcDbLinetypeTableRecord
2
BORDERX2
70
0
3
Border (2x) ____  ____  .  ____  ____  .  ___
72
65
73
6
40
88.9
49
25.4
74
0
49
-12.7
74
0
49
25.4
74
0
49
-12.7
74
0
49
0
74
0
49
-12.7
74
0
0
LTYPE
5
41
330
5
100
AcDbSymbolTableRecord
100
AcDbLinetypeTableRecord
2
CENTER
70
0
3
Center ____ _ ____ _ ____ _ ____ _ ____ _ ____
72
65
73
4
40
50.8
49
31.75
74
0
49
-6.35
74
0
49
6.35
74
0
49
-6.35
74
0
0
LTYPE
5
42
330
5
100
AcDbSymbolTableRecord
100
AcDbLinetypeTableRecord
2
CENTER2
70
0
3
Center (.5x) ___ _ ___ _ ___ _ ___ _ ___ _ ___
72
65
73
4
40
28.575
49
19.05
74
0
49
-3.175
74
0
49
3.175
74
0
49
-3.175
74
0
0
LTYPE
5
43
330
5
100
AcDbSymbolTableRecord
100
AcDbLinetypeTableRecord
2
CENTERX2
70
0
3
Center (2x) ________  __  ________  __  _____
72
65
73
4
40
101.6
49
63.5
74
0
49
-12.7
74
0
49
12.7
74
0
49
-12.7
74
0
0
ENDTAB
0
TABLE
2
LAYER
5
2
330
0
100
AcDbSymbolTable
70
1
0
LAYER
5
10
330
2
100
AcDbSymbolTableRecord
100
AcDbLayerTableRecord
2
0
70
0
62
7
6
CONTINUOUS
370
0
390
F
0
LAYER
5
44
330
2
100
AcDbSymbolTableRecord
100
AcDbLayerTableRecord
2
bogus
70
0
62
3
6
CONTINUOUS
370
0
390
F
0
LAYER
5
45
330
2
100
AcDbSymbolTableRecord
100
AcDbLayerTableRecord
2
container
70
0
62
7
6
CONTINUOUS
370
0
390
F
0
LAYER
5
46
330
2
100
AcDbSymbolTableRecord
100
AcDbLayerTableRecord
2
dimension
70
0
62
5
6
CONTINUOUS
370
0
390
F
0
LAYER
5
47
330
2
100
AcDbSymbolTableRecord
100
AcDbLayerTableRecord
2
doors
70
0
62
96
420
32768
6
CONTINUOUS
370
0
390
F
0
LAYER
5
48
330
2
100
AcDbSymbolTableRecord
100
AcDbLayerTableRecord
2
fixture
70
0
62
4
6
CONTINUOUS
370
0
390
F
0
LAYER
5
49
330
2
100
AcDbSymbolTableRecord
100
AcDbLayerTableRecord
2
text
70
0
62
2
6
CONTINUOUS
370
0
390
F
0
LAYER
5
4A
330
2
100
AcDbSymbolTableRecord
100
AcDbLayerTableRecord
2
walls
70
0
62
7
6
CONTINUOUS
370
0
390
F
0
ENDTAB
0
TABLE
2
STYLE
5
3
330
0
100
AcDbSymbolTable
70
3
0
STYLE
5
4B
330
2
100
AcDbSymbolTableRecord
100
AcDbTextStyleTableRecord
2
STANDARD
70
0
40
0
41
1
50
0
71
0
42
1
3
STANDARD
4

0
ENDTAB
0
TABLE
2
VIEW
5
6
330
0
100
AcDbSymbolTable
70
0
0
ENDTAB
0
TABLE
2
UCS
5
7
330
0
100
AcDbSymbolTable
70
0
0
ENDTAB
0
TABLE
2
APPID
5
9
330
0
100
AcDbSymbolTable
70
1
0
APPID
5
12
330
9
100
AcDbSymbolTableRecord
100
AcDbRegAppTableRecord
2
ACAD
70
0
0
ENDTAB
0
TABLE
2
DIMSTYLE
5
A
330
0
100
AcDbSymbolTable
70
1
100
AcDbDimStyleTable
71
1
0
DIMSTYLE
105
4C
330
A
100
AcDbSymbolTableRecord
100
AcDbDimStyleTableRecord
2
Standard
70
0
40
1
41
75
42
26.25
43
0.38
44
22.5
45
0
46
0
47
0
48
0
140
65
141
0.09
142
0
143
25.4
144
1
145
0
146
1
147
16.25
148
0
71
0
72
0
73
0
74
1
75
0
76
0
77
0
78
0
79
0
170
0
171
2
172
0
173
0
174
0
175
0
176
0
177
0
178
0
179
0
271
4
272
4
273
2
274
2
275
0
276
0
277
2
278
46
279
0
280
0
281
0
282
0
283
1
284
0
285
0
286
0
288
0
289
3
340
Standard
341

371
-2
372
-2
0
ENDTAB
0
TABLE
2
BLOCK_RECORD
5
1
330
0
100
AcDbSymbolTable
70
2
0
BLOCK_RECORD
5
1F
330
1
100
AcDbSymbolTableRecord
100
AcDbBlockTableRecord
2
*Model_Space
70
0
280
1
281
0
0
BLOCK_RECORD
5
1E
330
1
100
AcDbSymbolTableRecord
100
AcDbBlockTableRecord
2
*Paper_Space
70
0
280
1
281
0
0
BLOCK_RECORD
5
4D
330
1
100
AcDbSymbolTableRecord
100
AcDbBlockTableRecord
2
*D1
70
0
280
1
281
0
0
BLOCK_RECORD
5
50
330
1
100
AcDbSymbolTableRecord
100
AcDbBlockTableRecord
2
*D3
70
0
280
1
281
0
0
BLOCK_RECORD
5
53
330
1
100
AcDbSymbolTableRecord
100
AcDbBlockTableRecord
2
*D2
70
0
280
1
281
0
0
BLOCK_RECORD
5
56
330
1
100
AcDbSymbolTableRecord
100
AcDbBlockTableRecord
2
door60mm
70
0
280
1
281
0
0
BLOCK_RECORD
5
59
330
1
100
AcDbSymbolTableRecord
100
AcDbBlockTableRecord
2
wc
70
0
280
1
281
0
0
BLOCK_RECORD
5
5C
330
1
100
AcDbSymbolTableRecord
100
AcDbBlockTableRecord
2
srqTub
70
0
280
1
281
0
0
ENDTAB
0
ENDSEC
0
SECTION
2
BLOCKS
0
BLOCK
5
20
330
1F
100
AcDbEntity
8
0
100
AcDbBlockBegin
2
*Model_Space
70
0
10
0
20
0
30
0
3
*Model_Space
1

0
ENDBLK
5
21
330
1F
100
AcDbEntity
8
0
100
AcDbBlockEnd
0
BLOCK
5
1C
330
1B
100
AcDbEntity
8
0
100
AcDbBlockBegin
2
*Paper_Space
70
0
10
0
20
0
30
0
3
*Paper_Space
1

0
ENDBLK
5
1D
330
1F
100
AcDbEntity
8
0
100
AcDbBlockEnd
0
BLOCK
5
4E
330
4D
100
AcDbEntity
8
0
100
AcDbBlockBegin
2
*D1
70
1
10
0
20
0
3
*D1
1

0
LINE
5
5F
100
AcDbEntity
8
dimension
6
CONTINUOUS
62
7
370
0
100
AcDbLine
10
205
20
3265.19086475
11
3234
21
3265.19086475
0
SOLID
5
60
100
AcDbEntity
8
dimension
6
CONTINUOUS
62
7
370
0
100
AcDbTrace
10
205
20
3265.19086475
30
0
11
280
21
3277.67940448
31
0
12
280
22
3252.70232501
32
0
13
280
23
3252.70232501
33
0
0
SOLID
5
61
100
AcDbEntity
8
dimension
6
CONTINUOUS
62
7
370
0
100
AcDbTrace
10
3234
20
3265.19086475
30
0
11
3159
21
3252.70232501
31
0
12
3159
22
3277.67940448
32
0
13
3159
23
3277.67940448
33
0
0
MTEXT
5
62
100
AcDbEntity
8
dimension
6
CONTINUOUS
62
7
370
0
100
AcDbMText
10
1719.5
20
3313.94086475
30
0
40
65
41
180.555555556
71
5
72
1
1
3029
7
standard
210
0
220
0
230
1
50
0
73
2
44
1
0
LINE
5
63
100
AcDbEntity
8
dimension
6
CONTINUOUS
62
7
370
0
100
AcDbLine
10
205
20
2871.18939991
11
205
21
3287.69086475
0
LINE
5
64
100
AcDbEntity
8
dimension
6
CONTINUOUS
62
7
370
0
100
AcDbLine
10
3234
20
2871.18939991
11
3234
21
3287.69086475
0
ENDBLK
5
4F
330
4D
100
AcDbEntity
8
0
100
AcDbBlockEnd
0
BLOCK
5
51
330
50
100
AcDbEntity
8
0
100
AcDbBlockBegin
2
*D3
70
1
10
0
20
0
3
*D3
1

0
LINE
5
65
100
AcDbEntity
8
dimension
6
CONTINUOUS
62
7
370
0
100
AcDbLine
10
249
20
-21.8574750933
11
3038
21
-21.8574750933
0
SOLID
5
66
100
AcDbEntity
8
dimension
6
CONTINUOUS
62
7
370
0
100
AcDbTrace
10
249
20
-21.8574750933
30
0
11
324
21
-9.36893536007
31
0
12
324
22
-34.3460148264
32
0
13
324
23
-34.3460148264
33
0
0
SOLID
5
67
100
AcDbEntity
8
dimension
6
CONTINUOUS
62
7
370
0
100
AcDbTrace
10
3038
20
-21.8574750933
30
0
11
2963
21
-34.3460148264
31
0
12
2963
22
-9.36893536007
32
0
13
2963
23
-9.36893536007
33
0
0
MTEXT
5
68
100
AcDbEntity
8
dimension
6
CONTINUOUS
62
7
370
0
100
AcDbMText
10
1643.5
20
26.8925249067
30
0
40
65
41
180.555555556
71
5
72
1
1
2789
7
standard
210
0
220
0
230
1
50
0
73
2
44
1
0
LINE
5
69
100
AcDbEntity
8
dimension
6
CONTINUOUS
62
7
370
0
100
AcDbLine
10
249
20
422.689399907
11
249
21
-44.3574750933
0
LINE
5
6A
100
AcDbEntity
8
dimension
6
CONTINUOUS
62
7
370
0
100
AcDbLine
10
3038
20
422.689399907
11
3038
21
-44.3574750933
0
ENDBLK
5
52
330
50
100
AcDbEntity
8
0
100
AcDbBlockEnd
0
BLOCK
5
54
330
53
100
AcDbEntity
8
0
100
AcDbBlockBegin
2
*D2
70
1
10
0
20
0
3
*D2
1

0
LINE
5
6B
100
AcDbEntity
8
dimension
6
CONTINUOUS
62
7
370
0
100
AcDbLine
10
3254
20
3263.68939991
11
4424
21
3263.68939991
0
SOLID
5
6C
100
AcDbEntity
8
dimension
6
CONTINUOUS
62
7
370
0
100
AcDbTrace
10
3254
20
3263.68939991
30
0
11
3329
21
3276.17793964
31
0
12
3329
22
3251.20086017
32
0
13
3329
23
3251.20086017
33
0
0
SOLID
5
6D
100
AcDbEntity
8
dimension
6
CONTINUOUS
62
7
370
0
100
AcDbTrace
10
4424
20
3263.68939991
30
0
11
4349
21
3251.20086017
31
0
12
4349
22
3276.17793964
32
0
13
4349
23
3276.17793964
33
0
0
MTEXT
5
6E
100
AcDbEntity
8
dimension
6
CONTINUOUS
62
7
370
0
100
AcDbMText
10
3839
20
3312.43939991
30
0
40
65
41
151.666666667
71
5
72
1
1
1170
7
standard
210
0
220
0
230
1
50
0
73
2
44
1
0
LINE
5
6F
100
AcDbEntity
8
dimension
6
CONTINUOUS
62
7
370
0
100
AcDbLine
10
3254
20
2871.18939991
11
3254
21
3286.18939991
0
LINE
5
70
100
AcDbEntity
8
dimension
6
CONTINUOUS
62
7
370
0
100
AcDbLine
10
4424
20
2871.18939991
11
4424
21
3286.18939991
0
ENDBLK
5
55
330
53
100
AcDbEntity
8
0
100
AcDbBlockEnd
0
BLOCK
5
57
330
56
100
AcDbEntity
8
0
100
AcDbBlockBegin
2
door60mm
70
0
10
0
20
0
3
door60mm
1

0
LINE
5
71
100
AcDbEntity
8
doors
6
ByLayer
62
256
370
-1
100
AcDbLine
10
0
20
0
11
-587.06820351
21
-123.89884757
0
LINE
5
72
100
AcDbEntity
8
doors
6
ByLayer
62
256
370
-1
100
AcDbLine
10
5.16245198
20
-24.46117515
11
-581.90575153
21
-148.36002272
0
ARC
5
73
100
AcDbEntity
8
doors
6
ByLayer
62
256
370
-1
100
AcDbCircle
10
0
20
0
40
600
100
AcDbArc
50
191.917209257
51
270
0
LINE
5
74
100
AcDbEntity
8
doors
6
ByLayer
62
256
370
-1
100
AcDbLine
10
-587.06820351
20
-123.89884757
11
-581.39592233
21
-148.25242491
0
LINE
5
75
100
AcDbEntity
8
doors
6
ByLayer
62
256
370
-1
100
AcDbLine
10
0
20
0
11
5.16245198
21
-24.46117515
0
MTEXT
5
76
100
AcDbEntity
8
doors
6
ByLayer
62
256
370
-1
100
AcDbMText
10
-398.687954807
20
-46.4807162111
30
0
40
30
41
142.5
71
1
72
1
1
600 mm
7

210
0
220
0
230
1
50
12
73
2
44
1
0
ENDBLK
5
58
330
56
100
AcDbEntity
8
0
100
AcDbBlockEnd
0
BLOCK
5
5A
330
59
100
AcDbEntity
8
0
100
AcDbBlockBegin
2
wc
70
0
10
0
20
0
3
wc
1

0
ELLIPSE
5
77
100
AcDbEntity
8
fixture
6
ByLayer
62
256
370
-1
100
AcDbEllipse
10
582.14478868
20
232.54744614
30
0
11
-271.415755389
21
5.42831510779
31
0
40
0.817719891892
41
0
42
6.28318530718
0
LINE
5
78
100
AcDbEntity
8
fixture
6
ByLayer
62
256
370
-1
100
AcDbLine
10
30
20
470.789969423
11
240
21
470.789969423
0
LINE
5
79
100
AcDbEntity
8
fixture
6
ByLayer
62
256
370
-1
100
AcDbLine
10
240
20
470.789969423
11
240
21
0.789969423157
0
LINE
5
7A
100
AcDbEntity
8
fixture
6
ByLayer
62
256
370
-1
100
AcDbLine
10
240
20
0.789969423157
11
30
21
0.789969423157
0
LINE
5
7B
100
AcDbEntity
8
fixture
6
ByLayer
62
256
370
-1
100
AcDbLine
10
30
20
0.789969423157
11
30
21
470.789969423
0
ENDBLK
5
5B
330
59
100
AcDbEntity
8
0
100
AcDbBlockEnd
0
BLOCK
5
5D
330
5C
100
AcDbEntity
8
0
100
AcDbBlockBegin
2
srqTub
70
0
10
0
20
0
3
srqTub
1

0
LINE
5
7C
100
AcDbEntity
8
fixture
6
ByLayer
62
256
370
-1
100
AcDbLine
10
0
20
-1190
11
1190
21
-1190
0
LINE
5
7D
100
AcDbEntity
8
fixture
6
ByLayer
62
256
370
-1
100
AcDbLine
10
0
20
-1190
11
0
21
0
0
LINE
5
7E
100
AcDbEntity
8
fixture
6
ByLayer
62
256
370
-1
100
AcDbLine
10
0
20
0
11
1190
21
0
0
LINE
5
7F
100
AcDbEntity
8
fixture
6
ByLayer
62
256
370
-1
100
AcDbLine
10
1190
20
-1190
11
1190
21
0
0
ARC
5
80
100
AcDbEntity
8
fixture
6
ByLayer
62
256
370
-1
100
AcDbCircle
10
958.68272016
20
-231.31727984
40
135
100
AcDbArc
50
13.4136619035
51
76.5863380965
0
ARC
5
81
100
AcDbEntity
8
fixture
6
ByLayer
62
256
370
-1
100
AcDbCircle
10
231.317279836
20
-231.31727984
40
135
100
AcDbArc
50
103.413661903
51
166.586338097
0
ARC
5
82
100
AcDbEntity
8
fixture
6
ByLayer
62
256
370
-1
100
AcDbCircle
10
958.68272016
20
-958.68272016
40
135
100
AcDbArc
50
283.413661903
51
346.586338097
0
ARC
5
83
100
AcDbEntity
8
fixture
6
ByLayer
62
256
370
-1
100
AcDbCircle
10
231.317279836
20
-958.68272016
40
135
100
AcDbArc
50
193.413661903
51
256.586338097
0
LINE
5
84
100
AcDbEntity
8
fixture
6
ByLayer
62
256
370
-1
100
AcDbLine
10
200
20
-100
11
990
21
-100
0
LINE
5
85
100
AcDbEntity
8
fixture
6
ByLayer
62
256
370
-1
100
AcDbLine
10
200
20
-1090
11
990
21
-1090
0
LINE
5
86
100
AcDbEntity
8
fixture
6
ByLayer
62
256
370
-1
100
AcDbLine
10
100
20
-990
11
100
21
-200
0
LINE
5
87
100
AcDbEntity
8
fixture
6
ByLayer
62
256
370
-1
100
AcDbLine
10
1090
20
-990
11
1090
21
-200
0
CIRCLE
5
88
100
AcDbEntity
8
fixture
6
ByLayer
62
256
370
-1
100
AcDbCircle
10
590.892550143
20
-590.00593959
40
50
0
MTEXT
5
89
100
AcDbEntity
8
fixture
6
ByLayer
62
256
370
-1
100
AcDbMText
10
644.486150907
20
-461.7712512
30
0
40
70
41
210
71
1
72
1
1
drain
7
STANDARD
210
0
220
0
230
1
50
0
73
2
44
1
0
ENDBLK
5
5E
330
5C
100
AcDbEntity
8
0
100
AcDbBlockEnd
0
ENDSEC
0
SECTION
2
ENTITIES
0
LINE
5
8A
100
AcDbEntity
8
0
6
ByLayer
62
256
370
-1
100
AcDbLine
10
249
20
448.939399907
11
249
21
2800.93939991
0
LINE
5
8B
100
AcDbEntity
8
0
6
ByLayer
62
256
370
-1
100
AcDbLine
10
249
20
448.939399907
11
3234
21
448.939399907
0
LINE
5
8C
100
AcDbEntity
8
0
6
ByLayer
62
256
370
-1
100
AcDbLine
10
249
20
2800.93939991
11
3234
21
2800.93939991
0
DIMENSION
5
8D
100
AcDbEntity
8
dimension
6
ByLayer
62
256
370
-1
100
AcDbDimension
2
*D1
10
3234
20
3265.19086475
30
0
11
1719.5
21
3313.94086475
31
0
70
32
71
5
72
0
3
Standard
53
0
210
0
220
0
230
1
100
AcDbAlignedDimension
13
205
23
2844.93939991
33
0
14
3234
24
2844.93939991
34
0
100
AcDbRotatedDimension
0
DIMENSION
5
8E
100
AcDbEntity
8
dimension
6
ByLayer
62
256
370
-1
100
AcDbDimension
2
*D2
10
4424
20
3263.68939991
30
0
11
3839
21
3312.43939991
31
0
70
32
71
5
72
0
3
Standard
53
0
210
0
220
0
230
1
100
AcDbAlignedDimension
13
3254
23
2844.93939991
33
0
14
4424
24
2844.93939991
34
0
100
AcDbRotatedDimension
0
DIMENSION
5
8F
100
AcDbEntity
8
dimension
6
ByLayer
62
256
370
-1
100
AcDbDimension
2
*D3
10
3038
20
-21.8574750933
30
0
11
1643.5
21
26.8925249067
31
0
70
32
71
5
72
0
3
Standard
53
0
210
0
220
0
230
1
100
AcDbAlignedDimension
13
249
23
448.939399907
33
0
14
3038
24
448.939399907
34
0
100
AcDbRotatedDimension
0
LINE
5
90
100
AcDbEntity
8
walls
6
ByLayer
62
256
370
-1
100
AcDbLine
10
299
20
2750.93939991
11
3234
21
2750.93939991
0
LINE
5
91
100
AcDbEntity
8
walls
6
ByLayer
62
256
370
-1
100
AcDbLine
10
299
20
498.939399907
11
3234
21
498.939399907
0
LINE
5
92
100
AcDbEntity
8
walls
6
ByLayer
62
256
370
-1
100
AcDbLine
10
299
20
498.939399907
11
299
21
2750.93939991
0
LINE
5
93
100
AcDbEntity
8
0
6
DOT2
62
256
370
-1
100
AcDbLine
10
3038
20
2800.93939991
11
3038
21
448.939399907
0
LINE
5
94
100
AcDbEntity
8
walls
6
ByLayer
62
256
370
-1
100
AcDbLine
10
3074
20
1540.93939991
11
3074
21
2750.93939991
0
LINE
5
95
100
AcDbEntity
8
walls
6
ByLayer
62
256
370
-1
100
AcDbLine
10
3124
20
2750.93939991
11
3124
21
1490.93939991
0
LINE
5
96
100
AcDbEntity
8
walls
6
ByLayer
62
256
370
-1
100
AcDbLine
10
3044
20
1540.93939991
11
3044
21
1490.93939991
0
LINE
5
97
100
AcDbEntity
8
walls
6
ByLayer
62
256
370
-1
100
AcDbLine
10
3044
20
1490.93939991
11
3074
21
1490.93939991
0
LINE
5
98
100
AcDbEntity
8
walls
6
ByLayer
62
256
370
-1
100
AcDbLine
10
299
20
1440.93939991
11
1899
21
1440.93939991
0
LINE
5
99
100
AcDbEntity
8
walls
6
ByLayer
62
256
370
-1
100
AcDbLine
10
1899
20
1410.93939991
11
1949
21
1410.93939991
0
LINE
5
9A
100
AcDbEntity
8
walls
6
ByLayer
62
256
370
-1
100
AcDbLine
10
1949
20
1410.93939991
11
1949
21
1440.93939991
0
LINE
5
9B
100
AcDbEntity
8
walls
6
ByLayer
62
256
370
-1
100
AcDbLine
10
1899
20
1410.93939991
11
1899
21
1440.93939991
0
LINE
5
9C
100
AcDbEntity
8
walls
6
ByLayer
62
256
370
-1
100
AcDbLine
10
3124
20
1490.93939991
11
3074
21
1490.93939991
0
LINE
5
9D
100
AcDbEntity
8
walls
6
ByLayer
62
256
370
-1
100
AcDbLine
10
299
20
1490.93939991
11
1949
21
1490.93939991
0
LINE
5
9E
100
AcDbEntity
8
walls
6
ByLayer
62
256
370
-1
100
AcDbLine
10
1949
20
1490.93939991
11
2238
21
1490.93939991
0
LINE
5
9F
100
AcDbEntity
8
walls
6
ByLayer
62
256
370
-1
100
AcDbLine
10
1949
20
1440.93939991
11
2238
21
1440.93939991
0
LINE
5
A0
100
AcDbEntity
8
walls
6
ByLayer
62
256
370
-1
100
AcDbLine
10
2238
20
1490.93939991
11
2238
21
1440.93939991
0
LINE
5
A1
100
AcDbEntity
8
doors
6
ByLayer
62
256
370
-1
100
AcDbLine
10
2238
20
1540.93939991
11
1438
21
1540.93939991
0
LINE
5
A2
100
AcDbEntity
8
doors
6
ByLayer
62
256
370
-1
100
AcDbLine
10
1438
20
1540.93939991
11
1438
21
1500.93939991
0
LINE
5
A3
100
AcDbEntity
8
doors
6
ByLayer
62
256
370
-1
100
AcDbLine
10
1438
20
1500.93939991
11
2238
21
1500.93939991
0
LINE
5
A4
100
AcDbEntity
8
doors
6
ByLayer
62
256
370
-1
100
AcDbLine
10
2238
20
1500.93939991
11
2238
21
1540.93939991
0
LINE
5
A5
100
AcDbEntity
8
walls
6
ByLayer
62
256
370
-1
100
AcDbLine
10
3044
20
1540.93939991
11
3074
21
1540.93939991
0
LINE
5
A6
100
AcDbEntity
8
walls
6
ByLayer
62
256
370
-1
100
AcDbLine
10
3124
20
1490.93939991
11
3124
21
1440.93939991
0
LINE
5
A7
100
AcDbEntity
8
walls
6
ByLayer
62
256
370
-1
100
AcDbLine
10
3124
20
1440.93939991
11
3044
21
1440.93939991
0
LINE
5
A8
100
AcDbEntity
8
walls
6
ByLayer
62
256
370
-1
100
AcDbLine
10
3044
20
1440.93939991
11
3044
21
1490.93939991
0
LINE
5
A9
100
AcDbEntity
8
walls
6
DOT2
62
256
370
-1
100
AcDbLine
10
2238
20
1490.93939991
11
3044
21
1490.93939991
0
CIRCLE
5
AA
100
AcDbEntity
8
fixture
6
ByLayer
62
256
370
-1
100
AcDbCircle
10
2237.23286772
20
2144.6842065
40
50
0
LINE
5
AB
100
AcDbEntity
8
doors
6
ByLayer
62
256
370
-1
100
AcDbLine
10
3184
20
1410.93939991
11
3184
21
2410.93939991
0
LINE
5
AC
100
AcDbEntity
8
doors
6
ByLayer
62
256
370
-1
100
AcDbLine
10
3184
20
2410.93939991
11
3134
21
2410.93939991
0
LINE
5
AD
100
AcDbEntity
8
doors
6
ByLayer
62
256
370
-1
100
AcDbLine
10
3134
20
2410.93939991
11
3134
21
1410.93939991
0
LINE
5
AE
100
AcDbEntity
8
doors
6
ByLayer
62
256
370
-1
100
AcDbLine
10
3134
20
1410.93939991
11
3184
21
1410.93939991
0
LINE
5
AF
100
AcDbEntity
8
walls
6
DOT2
62
256
370
-1
100
AcDbLine
10
2238
20
1540.93939991
11
3044
21
1540.93939991
0
LINE
5
B0
100
AcDbEntity
8
walls
6
DOT2
62
256
370
-1
100
AcDbLine
10
2238
20
1440.93939991
11
3044
21
1440.93939991
0
MTEXT
5
B1
100
AcDbEntity
8
text
6
ByLayer
62
256
370
-1
100
AcDbMText
10
2319.72301815
20
2272.7689128
30
0
40
70
41
210
71
1
72
1
1
drain
7
STANDARD
210
0
220
0
230
1
50
0
73
2
44
1
0
MTEXT
5
B2
100
AcDbEntity
8
text
6
ByLayer
62
256
370
-1
100
AcDbMText
10
2599.6895893
20
1292.28598539
30
0
40
70
41
363.611096271
71
1
72
1
1
Step Up
7
STANDARD
210
0
220
0
230
1
50
0
73
2
44
1
0
LINE
5
B3
100
AcDbEntity
8
text
6
ByLayer
62
256
370
-1
100
AcDbLine
10
2759.6704871
20
1367.27703124
11
2759.6704871
21
1667.27703124
0
LINE
5
B4
100
AcDbEntity
8
text
6
ByLayer
62
256
370
-1
100
AcDbLine
10
2759.6704871
20
1667.27703124
11
2673.06794673
21
1617.27703124
0
LINE
5
B5
100
AcDbEntity
8
text
6
ByLayer
62
256
370
-1
100
AcDbLine
10
2759.6704871
20
1667.27703124
11
2846.27302748
21
1617.27703124
0
CIRCLE
5
B6
100
AcDbEntity
8
fixture
6
ByLayer
62
256
370
-1
100
AcDbCircle
10
2219.73495702
20
2651.12373611
40
50
0
MTEXT
5
B7
100
AcDbEntity
8
text
6
ByLayer
62
256
370
-1
100
AcDbMText
10
2335.72110793
20
2699.11800545
30
0
40
50
41
561.11116254
71
1
72
1
1
two show heads, \Pat 60 cm\Pand at 170 cm\Pfrom the floor
7
STANDARD
210
0
220
0
230
1
50
0
73
2
44
1
0
MTEXT
5
B8
100
AcDbEntity
8
text
6
ByLayer
62
256
370
-1
100
AcDbMText
10
3339.60124164
20
1967.205398
30
0
40
60
41
458.356191655
71
1
72
1
1
sliding door\Pglass
7
STANDARD
210
0
220
0
230
1
50
0
73
2
44
1
0
MTEXT
5
B9
100
AcDbEntity
8
text
6
ByLayer
62
256
370
-1
100
AcDbMText
10
1864.77734002
20
1647.24360239
30
0
40
60
41
458.356191655
71
1
72
1
1
sliding door
7
STANDARD
210
0
220
0
230
1
50
0
73
2
44
1
0
MTEXT
5
BA
100
AcDbEntity
8
text
6
ByLayer
62
256
370
-1
100
AcDbMText
10
2216.69531996
20
1960.48620029
30
0
40
60
41
736.666666667
71
1
72
1
1
floor 20cm high\Pfor drain plumbing
7
STANDARD
210
0
220
0
230
1
50
0
73
2
44
1
0
MTEXT
5
BB
100
AcDbEntity
8
text
6
ByLayer
62
256
370
-1
100
AcDbMText
10
2247.73161413
20
1135.30472942
30
0
40
40
41
718.90412777
71
1
72
1
1
wall above bottom of\Psliding door, water keeper
7
STANDARD
210
0
220
0
230
1
50
0
73
2
44
1
0
LWPOLYLINE
5
BC
100
AcDbEntity
8
text
6
ByLayer
62
256
370
-1
100
AcDbPolyline
90
81
70
0
43
0
10
2287.72683858
20
1187.29852121
10
2287.72683858
20
1191.29804365
10
2287.72683858
20
1195.2975661
10
2295.72588347
20
1199.29708854
10
2303.72492837
20
1199.29708854
10
2311.72397326
20
1199.29708854
10
2319.72301815
20
1203.29661099
10
2327.72206304
20
1207.29613343
10
2331.72158548
20
1207.29613343
10
2339.72063037
20
1211.29565588
10
2347.71967526
20
1215.29517832
10
2351.71919771
20
1219.29470077
10
2359.7182426
20
1223.29422321
10
2367.71728749
20
1227.29374566
10
2371.71680993
20
1231.2932681
10
2375.71633238
20
1235.29279055
10
2383.71537727
20
1235.29279055
10
2391.71442216
20
1243.29183544
10
2395.7139446
20
1243.29183544
10
2403.71298949
20
1247.29135788
10
2411.71203438
20
1251.29088033
10
2415.71155683
20
1259.28992522
10
2419.71107927
20
1259.28992522
10
2427.71012416
20
1267.28897011
10
2431.70964661
20
1271.28849255
10
2435.70916905
20
1275.288015
10
2439.7086915
20
1275.288015
10
2439.7086915
20
1279.28753744
10
2443.70821394
20
1283.28705989
10
2447.70773639
20
1283.28705989
10
2451.70725883
20
1291.28610478
10
2455.70678128
20
1295.28562723
10
2455.70678128
20
1299.28514967
10
2459.70630372
20
1299.28514967
10
2463.70582617
20
1303.28467212
10
2467.70534861
20
1307.28419456
10
2471.70487106
20
1311.28371701
10
2471.70487106
20
1315.28323945
10
2475.7043935
20
1319.2827619
10
2475.7043935
20
1323.28228434
10
2479.70391595
20
1323.28228434
10
2479.70391595
20
1327.28180679
10
2483.70343839
20
1331.28132923
10
2483.70343839
20
1335.28085168
10
2487.70296084
20
1339.28037412
10
2491.70248328
20
1339.28037412
10
2491.70248328
20
1343.27989657
10
2491.70248328
20
1347.27941901
10
2495.70200573
20
1351.27894146
10
2495.70200573
20
1355.2784639
10
2495.70200573
20
1359.27798635
10
2499.70152817
20
1363.27750879
10
2499.70152817
20
1367.27703124
10
2503.70105062
20
1367.27703124
10
2503.70105062
20
1371.27655368
10
2503.70105062
20
1375.27607613
10
2507.70057306
20
1379.27559857
10
2507.70057306
20
1387.27464346
10
2507.70057306
20
1391.27416591
10
2507.70057306
20
1395.27368835
10
2511.70009551
20
1399.2732108
10
2511.70009551
20
1403.27273324
10
2515.69961795
20
1403.27273324
10
2515.69961795
20
1407.27225569
10
2515.69961795
20
1411.27177813
10
2515.69961795
20
1415.27130058
10
2519.6991404
20
1419.27082302
10
2519.6991404
20
1427.26986791
10
2523.69866284
20
1431.26939036
10
2523.69866284
20
1435.2689128
10
2523.69866284
20
1439.26843525
10
2523.69866284
20
1443.26795769
10
2523.69866284
20
1447.26748014
10
2523.69866284
20
1451.26700258
10
2523.69866284
20
1455.26652503
10
2523.69866284
20
1459.26604747
10
2523.69866284
20
1463.26556992
10
2523.69866284
20
1467.26509236
10
2523.69866284
20
1471.26461481
10
2523.69866284
20
1475.26413725
10
2523.69866284
20
1467.26509236
0
LWPOLYLINE
5
BD
100
AcDbEntity
8
text
6
ByLayer
62
256
370
-1
100
AcDbPolyline
90
22
70
0
43
0
10
2527.69818529
20
1467.26509236
10
2527.69818529
20
1463.26556992
10
2527.69818529
20
1459.26604747
10
2527.69818529
20
1455.26652503
10
2535.69723018
20
1455.26652503
10
2535.69723018
20
1451.26700258
10
2535.69723018
20
1447.26748014
10
2539.69675262
20
1447.26748014
10
2539.69675262
20
1443.26795769
10
2539.69675262
20
1439.26843525
10
2543.69627507
20
1439.26843525
10
2547.69579751
20
1435.2689128
10
2547.69579751
20
1431.26939036
10
2551.69531996
20
1427.26986791
10
2555.69484241
20
1423.27034547
10
2555.69484241
20
1419.27082302
10
2559.69436485
20
1419.27082302
10
2559.69436485
20
1415.27130058
10
2559.69436485
20
1411.27177813
10
2563.6938873
20
1411.27177813
10
2563.6938873
20
1407.27225569
10
2555.69484241
20
1407.27225569
0
LWPOLYLINE
5
BE
100
AcDbEntity
8
text
6
ByLayer
62
256
370
-1
100
AcDbPolyline
90
23
70
0
43
0
10
2527.69818529
20
1463.26556992
10
2523.69866284
20
1463.26556992
10
2523.69866284
20
1455.26652503
10
2523.69866284
20
1451.26700258
10
2523.69866284
20
1447.26748014
10
2519.6991404
20
1447.26748014
10
2515.69961795
20
1447.26748014
10
2515.69961795
20
1443.26795769
10
2515.69961795
20
1439.26843525
10
2511.70009551
20
1439.26843525
10
2511.70009551
20
1435.2689128
10
2507.70057306
20
1431.26939036
10
2507.70057306
20
1427.26986791
10
2503.70105062
20
1427.26986791
10
2499.70152817
20
1423.27034547
10
2499.70152817
20
1419.27082302
10
2495.70200573
20
1419.27082302
10
2495.70200573
20
1415.27130058
10
2495.70200573
20
1411.27177813
10
2491.70248328
20
1411.27177813
10
2491.70248328
20
1407.27225569
10
2487.70296084
20
1407.27225569
10
2487.70296084
20
1403.27273324
0
LWPOLYLINE
5
BF
100
AcDbEntity
8
text
6
ByLayer
62
256
370
-1
100
AcDbPolyline
90
62
70
0
43
0
10
2059.75405922
20
1879.21590421
10
2059.75405922
20
1887.2149491
10
2059.75405922
20
1891.21447154
10
2059.75405922
20
1895.21399399
10
2055.75453677
20
1903.21303888
10
2055.75453677
20
1907.21256132
10
2055.75453677
20
1911.21208377
10
2051.75501433
20
1915.21160621
10
2051.75501433
20
1923.2106511
10
2051.75501433
20
1931.20969599
10
2051.75501433
20
1935.20921844
10
2051.75501433
20
1939.20874088
10
2051.75501433
20
1943.20826333
10
2051.75501433
20
1951.20730822
10
2051.75501433
20
1955.20683066
10
2051.75501433
20
1959.20635311
10
2059.75405922
20
1959.20635311
10
2059.75405922
20
1963.20587555
10
2063.75358166
20
1963.20587555
10
2063.75358166
20
1967.205398
10
2067.75310411
20
1971.20492044
10
2071.75262655
20
1975.20444289
10
2075.752149
20
1975.20444289
10
2079.75167144
20
1975.20444289
10
2083.75119389
20
1975.20444289
10
2087.75071633
20
1975.20444289
10
2087.75071633
20
1979.20396533
10
2091.75023878
20
1979.20396533
10
2095.74976122
20
1979.20396533
10
2099.74928367
20
1979.20396533
10
2107.74832856
20
1979.20396533
10
2111.747851
20
1979.20396533
10
2115.74737345
20
1979.20396533
10
2119.74689589
20
1979.20396533
10
2123.74641834
20
1979.20396533
10
2127.74594078
20
1979.20396533
10
2131.74546323
20
1979.20396533
10
2135.74498567
20
1979.20396533
10
2139.74450812
20
1979.20396533
10
2143.74403056
20
1979.20396533
10
2147.74355301
20
1979.20396533
10
2147.74355301
20
1971.20492044
10
2151.74307545
20
1971.20492044
10
2155.7425979
20
1967.205398
10
2159.74212034
20
1963.20587555
10
2163.74164279
20
1963.20587555
10
2167.74116523
20
1959.20635311
10
2171.74068768
20
1959.20635311
10
2171.74068768
20
1955.20683066
10
2175.74021012
20
1955.20683066
10
2179.73973257
20
1951.20730822
10
2179.73973257
20
1947.20778577
10
2183.73925501
20
1947.20778577
10
2183.73925501
20
1943.20826333
10
2187.73877746
20
1943.20826333
10
2187.73877746
20
1939.20874088
10
2191.7382999
20
1939.20874088
10
2191.7382999
20
1935.20921844
10
2191.7382999
20
1931.20969599
10
2195.73782235
20
1931.20969599
10
2195.73782235
20
1927.21017355
10
2195.73782235
20
1923.2106511
0
LWPOLYLINE
5
C0
100
AcDbEntity
8
text
6
ByLayer
62
256
370
-1
100
AcDbPolyline
90
30
70
0
43
0
10
1819.78271251
20
1623.24646772
10
1819.78271251
20
1627.24599017
10
1819.78271251
20
1631.24551261
10
1815.78319007
20
1631.24551261
10
1811.78366762
20
1631.24551261
10
1811.78366762
20
1623.24646772
10
1807.78414518
20
1623.24646772
10
1803.78462273
20
1619.24694528
10
1799.78510029
20
1615.24742283
10
1795.78557784
20
1615.24742283
10
1791.7860554
20
1611.24790039
10
1783.7870105
20
1611.24790039
10
1783.7870105
20
1607.24837794
10
1779.78748806
20
1603.2488555
10
1775.78796561
20
1603.2488555
10
1771.78844317
20
1599.24933305
10
1767.78892072
20
1595.24981061
10
1763.78939828
20
1595.24981061
10
1759.78987583
20
1595.24981061
10
1759.78987583
20
1591.25028816
10
1759.78987583
20
1587.25076572
10
1755.79035339
20
1587.25076572
10
1751.79083094
20
1587.25076572
10
1751.79083094
20
1583.25124327
10
1747.7913085
20
1583.25124327
10
1747.7913085
20
1579.25172083
10
1743.79178605
20
1579.25172083
10
1743.79178605
20
1575.25219838
10
1743.79178605
20
1571.25267594
10
1739.79226361
20
1571.25267594
0
LWPOLYLINE
5
C1
100
AcDbEntity
8
text
6
ByLayer
62
256
370
-1
100
AcDbPolyline
90
35
70
0
43
0
10
2237.17287488
20
2728.39450975
10
2237.17287488
20
2730.95420411
10
2237.17287488
20
2733.51389848
10
2239.73256924
20
2733.51389848
10
2242.29226361
20
2728.39450975
10
2244.85195797
20
2725.83481538
10
2244.85195797
20
2723.27512102
10
2247.41165234
20
2720.71542665
10
2252.53104107
20
2718.15573229
10
2252.53104107
20
2715.59603792
10
2255.09073543
20
2713.03634356
10
2257.6504298
20
2710.47664919
10
2260.21012416
20
2710.47664919
10
2265.32951289
20
2705.35726046
10
2267.88920726
20
2702.7975661
10
2270.44890162
20
2702.7975661
10
2273.00859599
20
2700.23787173
10
2273.00859599
20
2697.67817737
10
2275.56829035
20
2695.118483
10
2280.68767908
20
2692.55878864
10
2280.68767908
20
2689.99909427
10
2283.24737345
20
2689.99909427
10
2283.24737345
20
2687.43939991
10
2285.80706781
20
2684.87970554
10
2288.36676218
20
2682.32001118
10
2290.92645654
20
2682.32001118
10
2290.92645654
20
2679.76031681
10
2293.48615091
20
2679.76031681
10
2296.04584527
20
2677.20062245
10
2296.04584527
20
2674.64092808
10
2298.60553964
20
2674.64092808
10
2301.165234
20
2674.64092808
10
2303.72492837
20
2672.08123372
10
2303.72492837
20
2669.52153935
10
2303.72492837
20
2666.96184499
0
LWPOLYLINE
5
C2
100
AcDbEntity
8
text
6
ByLayer
62
256
370
-1
100
AcDbPolyline
90
2
70
0
43
0
10
2001.68099331
20
2454.50721271
10
2001.68099331
20
2457.06690707
0
LWPOLYLINE
5
C3
100
AcDbEntity
8
text
6
ByLayer
62
256
370
-1
100
AcDbPolyline
90
17
70
0
43
0
10
2239.73256924
20
2725.83481538
10
2239.73256924
20
2730.95420411
10
2242.29226361
20
2730.95420411
10
2247.41165234
20
2730.95420411
10
2260.21012416
20
2730.95420411
10
2265.32951289
20
2730.95420411
10
2270.44890162
20
2725.83481538
10
2275.56829035
20
2725.83481538
10
2278.12798472
20
2725.83481538
10
2285.80706781
20
2725.83481538
10
2290.92645654
20
2725.83481538
10
2296.04584527
20
2725.83481538
10
2298.60553964
20
2725.83481538
10
2301.165234
20
2725.83481538
10
2303.72492837
20
2725.83481538
10
2303.72492837
20
2723.27512102
10
2303.72492837
20
2720.71542665
0
LWPOLYLINE
5
C4
100
AcDbEntity
8
text
6
ByLayer
62
256
370
-1
100
AcDbPolyline
90
21
70
0
43
0
10
2239.73256924
20
2725.83481538
10
2239.73256924
20
2728.39450975
10
2242.29226361
20
2723.27512102
10
2242.29226361
20
2720.71542665
10
2242.29226361
20
2718.15573229
10
2242.29226361
20
2715.59603792
10
2242.29226361
20
2713.03634356
10
2244.85195797
20
2710.47664919
10
2244.85195797
20
2707.91695483
10
2244.85195797
20
2705.35726046
10
2247.41165234
20
2702.7975661
10
2247.41165234
20
2700.23787173
10
2247.41165234
20
2697.67817737
10
2249.9713467
20
2697.67817737
10
2249.9713467
20
2695.118483
10
2249.9713467
20
2692.55878864
10
2252.53104107
20
2692.55878864
10
2252.53104107
20
2689.99909427
10
2252.53104107
20
2687.43939991
10
2252.53104107
20
2684.87970554
10
2252.53104107
20
2682.32001118
0
MTEXT
5
C5
100
AcDbEntity
8
text
6
ByLayer
62
256
370
-1
100
AcDbMText
10
4550.237938
20
2360.67404167
30
0
40
70
41
2138.88899689
71
1
72
1
1
Tub area is raised 20cm, the whole thing\Pis water proof, acts like shower room , tub\Pis can overlow by design. \P\PElectronic control will fill tub to desired\Plevel and tempature\P\PThe shower is used before getting into tub
7
STANDARD
210
0
220
0
230
1
50
0
73
2
44
1
0
LINE
5
C6
100
AcDbEntity
8
walls
6
ByLayer
62
256
370
-1
100
AcDbLine
10
249
20
2644.93939991
11
299
21
2644.93939991
0
LINE
5
C7
100
AcDbEntity
8
walls
6
ByLayer
62
256
370
-1
100
AcDbLine
10
249
20
1644.93939991
11
299
21
1644.93939991
0
LINE
5
C8
100
AcDbEntity
8
container
6
ByLayer
62
256
370
-1
100
AcDbLine
10
205
20
404.939399907
11
3234
21
404.939399907
0
LINE
5
C9
100
AcDbEntity
8
container
6
ByLayer
62
256
370
-1
100
AcDbLine
10
205
20
404.939399907
11
205
21
2844.93939991
0
LINE
5
CA
100
AcDbEntity
8
container
6
ByLayer
62
256
370
-1
100
AcDbLine
10
205
20
2844.93939991
11
3234
21
2844.93939991
0
LINE
5
CB
100
AcDbEntity
8
container
6
ByLayer
62
256
370
-1
100
AcDbLine
10
3234
20
404.939399907
11
3234
21
2844.93939991
0
LINE
5
CC
100
AcDbEntity
8
container
6
ByLayer
62
256
370
-1
100
AcDbLine
10
3254
20
2844.93939991
11
4424
21
2844.93939991
0
LINE
5
CD
100
AcDbEntity
8
container
6
ByLayer
62
256
370
-1
100
AcDbLine
10
3254
20
404.939399907
11
4424
21
404.939399907
0
LINE
5
CE
100
AcDbEntity
8
container
6
ByLayer
62
256
370
-1
100
AcDbLine
10
3254
20
2804.93939991
11
4424
21
2804.93939991
0
LINE
5
CF
100
AcDbEntity
8
container
6
ByLayer
62
256
370
-1
100
AcDbLine
10
3254
20
444.939399907
11
4424
21
444.939399907
0
LINE
5
D0
100
AcDbEntity
8
container
6
ByLayer
62
256
370
-1
100
AcDbLine
10
4424
20
2844.93939991
11
4424
21
2804.93939991
0
LINE
5
D1
100
AcDbEntity
8
container
6
ByLayer
62
256
370
-1
100
AcDbLine
10
3254
20
2844.93939991
11
3254
21
2804.93939991
0
LINE
5
D2
100
AcDbEntity
8
container
6
ByLayer
62
256
370
-1
100
AcDbLine
10
4424
20
404.939399907
11
4424
21
444.939399907
0
LINE
5
D3
100
AcDbEntity
8
container
6
ByLayer
62
256
370
-1
100
AcDbLine
10
3254
20
404.939399907
11
3254
21
444.939399907
0
LINE
5
D4
100
AcDbEntity
8
container
6
ByLayer
62
256
370
-1
100
AcDbLine
10
205
20
2644.93939991
11
249
21
2644.93939991
0
LINE
5
D5
100
AcDbEntity
8
container
6
ByLayer
62
256
370
-1
100
AcDbLine
10
205
20
1644.93939991
11
249
21
1644.93939991
0
LINE
5
D6
100
AcDbEntity
8
walls
6
ByLayer
62
256
370
-1
100
AcDbLine
10
1899
20
810.939399907
11
1949
21
810.939399907
0
LINE
5
D7
100
AcDbEntity
8
walls
6
ByLayer
62
256
370
-1
100
AcDbLine
10
1949
20
810.939399907
11
1949
21
498.939399907
0
LINE
5
D8
100
AcDbEntity
8
walls
6
ByLayer
62
256
370
-1
100
AcDbLine
10
1899
20
810.939399907
11
1899
21
498.939399907
0
INSERT
5
D9
100
AcDbEntity
8
doors
6
ByLayer
62
256
370
-1
100
AcDbBlockReference
2
door60mm
10
1899
20
1410.93939991
30
0
41
1
42
1
43
0
50
0
70
1
71
1
44
0
45
0
0
INSERT
5
DA
100
AcDbEntity
8
doors
6
ByLayer
62
256
370
-1
100
AcDbBlockReference
2
wc
10
299
20
759.149430484
30
0
41
1
42
1
43
0
50
0
70
1
71
1
44
0
45
0
0
INSERT
5
DB
100
AcDbEntity
8
doors
6
ByLayer
62
256
370
-1
100
AcDbBlockReference
2
srqTub
10
309
20
2740.93939991
30
0
41
1
42
1
43
0
50
0
70
1
71
1
44
0
45
0
0
ENDSEC
0
SECTION
2
OBJECTS
0
DICTIONARY
5
C
330
0
100
AcDbDictionary
281
1
3
ACAD_GROUP
350
D
0
DICTIONARY
5
D
330
C
100
AcDbDictionary
281
1
0
ENDSEC
0
EOF
