999
dxfrw 0.5.10
0
SECTION
2
HEADER
9
$ACADVER
1
AC1021
9
$HANDSEED
5
20000
9
$DWGCODEPAGE
3
ANSI_1252
9
$INSBASE
10
0
20
0
30
0
9
$EXTMIN
10
-22.1875
20
-5.1796875
30
0
9
$EXTMAX
10
675.747814855
20
333.900146484
30
0
9
$LIMMIN
10
0
20
0
9
$LIMMAX
10
420
20
297
9
$ORTHOMODE
70
0
9
$LTSCALE
40
1
9
$TEXTSTYLE
7
STANDARD
9
$CLAYER
8
text
9
$DIMASZ
40
7.5
9
$DIMLFAC
40
1
9
$DIMSCALE
40
1
9
$DIMEXO
40
2.625
9
$DIMEXE
40
2.25
9
$DIMTXT
40
6.5
9
$DIMTSZ
40
0
9
$DIMAUNIT
70
0
9
$DIMADEC
70
2
9
$DIMLUNIT
70
2
9
$DIMSTYLE
2
STANDARD
9
$DIMGAP
40
1.625
9
$DIMTIH
70
0
9
$LUNITS
70
2
9
$LUPREC
70
4
9
$AUNITS
70
0
9
$AUPREC
70
2
9
$SPLINESEGS
70
8
9
$GRIDMODE
70
1
9
$SNAPSTYLE
70
0
9
$GRIDUNIT
10
0
20
0
9
$PINSBASE
10
0
20
0
30
0
9
$PLIMMIN
10
0
20
0
9
$PLIMMAX
10
29.7
20
21
9
$INSUNITS
70
5
9
$PSVPSCALE
40
1
0
ENDSEC
0
SECTION
2
CLASSES
0
ENDSEC
0
SECTION
2
TABLES
0
TABLE
2
VPORT
5
8
330
0
100
AcDbSymbolTable
70
1
0
VPORT
5
31
330
2
100
AcDbSymbolTableRecord
100
AcDbViewportTableRecord
2
*ACTIVE
70
0
10
0
20
0
11
1
21
1
12
347.614743762
22
186.012945749
13
0
23
0
14
10
24
10
15
10
25
10
16
0
26
0
36
1
17
0
27
0
37
0
40
430.612646064
41
2.37414965986
42
50
43
0
44
0
50
0
51
0
71
0
72
100
73
1
74
3
75
0
76
1
77
0
78
0
281
0
65
1
110
0
120
0
130
0
111
1
121
0
131
0
112
0
122
1
132
0
79
0
146
0
348
10020
60
7
61
5
292
1
282
1
141
0
142
0
63
250
421
3358443
0
ENDTAB
0
TABLE
2
LTYPE
5
5
330
0
100
AcDbSymbolTable
70
4
0
LTYPE
5
14
330
5
100
AcDbSymbolTableRecord
100
AcDbLinetypeTableRecord
2
ByBlock
70
0
3

72
65
73
0
40
0
0
LTYPE
5
15
330
5
100
AcDbSymbolTableRecord
100
AcDbLinetypeTableRecord
2
ByLayer
70
0
3

72
65
73
0
40
0
0
LTYPE
5
16
330
5
100
AcDbSymbolTableRecord
100
AcDbLinetypeTableRecord
2
Continuous
70
0
3
Solid line
72
65
73
0
40
0
0
LTYPE
5
32
330
5
100
AcDbSymbolTableRecord
100
AcDbLinetypeTableRecord
2
DOT
70
0
3
Dot . . . . . . . . . . . . . . . . . . . . . .
72
65
73
2
40
6.35
49
0
74
0
49
-6.35
74
0
0
LTYPE
5
33
330
5
100
AcDbSymbolTableRecord
100
AcDbLinetypeTableRecord
2
DOT2
70
0
3
Dot (.5x) .....................................
72
65
73
2
40
3.175
49
0
74
0
49
-3.175
74
0
0
LTYPE
5
34
330
5
100
AcDbSymbolTableRecord
100
AcDbLinetypeTableRecord
2
DOTX2
70
0
3
Dot (2x) .  .  .  .  .  .  .  .  .  .  .  .  .
72
65
73
2
40
12.7
49
0
74
0
49
-12.7
74
0
0
LTYPE
5
35
330
5
100
AcDbSymbolTableRecord
100
AcDbLinetypeTableRecord
2
DASHED
70
0
3
Dot . . . . . . . . . . . . . . . . . . . . . .
72
65
73
2
40
19.05
49
12.7
74
0
49
-6.35
74
0
0
LTYPE
5
36
330
5
100
AcDbSymbolTableRecord
100
AcDbLinetypeTableRecord
2
DASHED2
70
0
3
Dashed (.5x) _ _ _ _ _ _ _ _ _ _ _ _ _ _ _ _ _
72
65
73
2
40
9.525
49
6.35
74
0
49
-3.175
74
0
0
LTYPE
5
37
330
5
100
AcDbSymbolTableRecord
100
AcDbLinetypeTableRecord
2
DASHEDX2
70
0
3
Dashed (2x) ____  ____  ____  ____  ____  ___
72
65
73
2
40
38.1
49
25.4
74
0
49
-12.7
74
0
0
LTYPE
5
38
330
5
100
AcDbSymbolTableRecord
100
AcDbLinetypeTableRecord
2
DASHDOT
70
0
3
Dash dot __ . __ . __ . __ . __ . __ . __ . __
72
65
73
4
40
25.4
49
12.7
74
0
49
-6.35
74
0
49
0
74
0
49
-6.35
74
0
0
LTYPE
5
39
330
5
100
AcDbSymbolTableRecord
100
AcDbLinetypeTableRecord
2
DASHDOT2
70
0
3
Dash dot (.5x) _._._._._._._._._._._._._._._.
72
65
73
4
40
12.7
49
6.35
74
0
49
-3.175
74
0
49
0
74
0
49
-3.175
74
0
0
LTYPE
5
3A
330
5
100
AcDbSymbolTableRecord
100
AcDbLinetypeTableRecord
2
DASHDOTX2
70
0
3
Dash dot (2x) ____  .  ____  .  ____  .  ___
72
65
73
4
40
50.8
49
25.4
74
0
49
-12.7
74
0
49
0
74
0
49
-12.7
74
0
0
LTYPE
5
3B
330
5
100
AcDbSymbolTableRecord
100
AcDbLinetypeTableRecord
2
DIVIDE
70
0
3
Divide ____ . . ____ . . ____ . . ____ . . ____
72
65
73
6
40
31.75
49
12.7
74
0
49
-6.35
74
0
49
0
74
0
49
-6.35
74
0
49
0
74
0
49
-6.35
74
0
0
LTYPE
5
3C
330
5
100
AcDbSymbolTableRecord
100
AcDbLinetypeTableRecord
2
DIVIDE2
70
0
3
Divide (.5x) __..__..__..__..__..__..__..__.._
72
65
73
6
40
15.875
49
6.35
74
0
49
-3.175
74
0
49
0
74
0
49
-3.175
74
0
49
0
74
0
49
-3.175
74
0
0
LTYPE
5
3D
330
5
100
AcDbSymbolTableRecord
100
AcDbLinetypeTableRecord
2
DIVIDEX2
70
0
3
Divide (2x) ________  .  .  ________  .  .  _
72
65
73
6
40
63.5
49
25.4
74
0
49
-12.7
74
0
49
0
74
0
49
-12.7
74
0
49
0
74
0
49
-12.7
74
0
0
LTYPE
5
3E
330
5
100
AcDbSymbolTableRecord
100
AcDbLinetypeTableRecord
2
BORDER
70
0
3
Border __ __ . __ __ . __ __ . __ __ . __ __ .
72
65
73
6
40
44.45
49
12.7
74
0
49
-6.35
74
0
49
12.7
74
0
49
-6.35
74
0
49
0
74
0
49
-6.35
74
0
0
LTYPE
5
3F
330
5
100
AcDbSymbolTableRecord
100
AcDbLinetypeTableRecord
2
BORDER2
70
0
3
Border (.5x) __.__.__.__.__.__.__.__.__.__.__.
72
65
73
6
40
22.225
49
6.35
74
0
49
-3.175
74
0
49
6.35
74
0
49
-3.175
74
0
49
0
74
0
49
-3.175
74
0
0
LTYPE
5
40
330
5
100
AcDbSymbolTableRecord
100
AcDbLinetypeTableRecord
2
BORDERX2
70
0
3
Border (2x) ____  ____  .  ____  ____  .  ___
72
65
73
6
40
88.9
49
25.4
74
0
49
-12.7
74
0
49
25.4
74
0
49
-12.7
74
0
49
0
74
0
49
-12.7
74
0
0
LTYPE
5
41
330
5
100
AcDbSymbolTableRecord
100
AcDbLinetypeTableRecord
2
CENTER
70
0
3
Center ____ _ ____ _ ____ _ ____ _ ____ _ ____
72
65
73
4
40
50.8
49
31.75
74
0
49
-6.35
74
0
49
6.35
74
0
49
-6.35
74
0
0
LTYPE
5
42
330
5
100
AcDbSymbolTableRecord
100
AcDbLinetypeTableRecord
2
CENTER2
70
0
3
Center (.5x) ___ _ ___ _ ___ _ ___ _ ___ _ ___
72
65
73
4
40
28.575
49
19.05
74
0
49
-3.175
74
0
49
3.175
74
0
49
-3.175
74
0
0
LTYPE
5
43
330
5
100
AcDbSymbolTableRecord
100
AcDbLinetypeTableRecord
2
CENTERX2
70
0
3
Center (2x) ________  __  ________  __  _____
72
65
73
4
40
101.6
49
63.5
74
0
49
-12.7
74
0
49
12.7
74
0
49
-12.7
74
0
0
ENDTAB
0
TABLE
2
LAYER
5
2
330
0
100
AcDbSymbolTable
70
1
0
LAYER
5
10
330
2
100
AcDbSymbolTableRecord
100
AcDbLayerTableRecord
2
0
70
0
62
7
6
CONTINUOUS
370
0
390
F
0
LAYER
5
44
330
2
100
AcDbSymbolTableRecord
100
AcDbLayerTableRecord
2
bogus
70
0
62
3
6
CONTINUOUS
370
0
390
F
0
LAYER
5
45
330
2
100
AcDbSymbolTableRecord
100
AcDbLayerTableRecord
2
dimension
70
0
62
5
6
CONTINUOUS
370
0
390
F
0
LAYER
5
46
330
2
100
AcDbSymbolTableRecord
100
AcDbLayerTableRecord
2
walls
70
0
62
7
6
CONTINUOUS
370
0
390
F
0
LAYER
5
47
330
2
100
AcDbSymbolTableRecord
100
AcDbLayerTableRecord
2
fixture
70
0
62
4
6
CONTINUOUS
370
0
390
F
0
LAYER
5
48
330
2
100
AcDbSymbolTableRecord
100
AcDbLayerTableRecord
2
doors
70
0
62
96
420
32768
6
CONTINUOUS
370
0
390
F
0
LAYER
5
49
330
2
100
AcDbSymbolTableRecord
100
AcDbLayerTableRecord
2
text
70
0
62
2
6
CONTINUOUS
370
0
390
F
0
ENDTAB
0
TABLE
2
STYLE
5
3
330
0
100
AcDbSymbolTable
70
3
0
STYLE
5
4A
330
2
100
AcDbSymbolTableRecord
100
AcDbTextStyleTableRecord
2
Standard
70
0
40
0
41
1
50
0
71
0
42
1
3
txt
4

0
ENDTAB
0
TABLE
2
VIEW
5
6
330
0
100
AcDbSymbolTable
70
0
0
ENDTAB
0
TABLE
2
UCS
5
7
330
0
100
AcDbSymbolTable
70
0
0
ENDTAB
0
TABLE
2
APPID
5
9
330
0
100
AcDbSymbolTable
70
1
0
APPID
5
12
330
9
100
AcDbSymbolTableRecord
100
AcDbRegAppTableRecord
2
ACAD
70
0
0
ENDTAB
0
TABLE
2
DIMSTYLE
5
A
330
0
100
AcDbSymbolTable
70
1
100
AcDbDimStyleTable
71
1
0
DIMSTYLE
105
4B
330
A
100
AcDbSymbolTableRecord
100
AcDbDimStyleTableRecord
2
Standard
70
0
40
1
41
7.5
42
2.625
43
0.38
44
2.25
45
0
46
0
47
0
48
0
140
6.5
141
0.09
142
0
143
25.4
144
1
145
0
146
1
147
1.625
148
0
71
0
72
0
73
0
74
1
75
0
76
0
77
0
78
0
79
0
170
0
171
2
172
0
173
0
174
0
175
0
176
0
177
0
178
0
179
0
271
4
272
4
273
2
274
2
275
0
276
0
277
2
278
46
279
0
280
0
281
0
282
0
283
1
284
0
285
0
286
0
288
0
289
3
340
Standard
341

371
-2
372
-2
0
ENDTAB
0
TABLE
2
BLOCK_RECORD
5
1
330
0
100
AcDbSymbolTable
70
2
0
BLOCK_RECORD
5
1F
330
1
100
AcDbSymbolTableRecord
100
AcDbBlockTableRecord
2
*Model_Space
70
0
280
1
281
0
0
BLOCK_RECORD
5
1E
330
1
100
AcDbSymbolTableRecord
100
AcDbBlockTableRecord
2
*Paper_Space
70
0
280
1
281
0
0
BLOCK_RECORD
5
4C
330
1
100
AcDbSymbolTableRecord
100
AcDbBlockTableRecord
2
*D3
70
0
280
1
281
0
0
BLOCK_RECORD
5
4F
330
1
100
AcDbSymbolTableRecord
100
AcDbBlockTableRecord
2
*D2
70
0
280
1
281
0
0
BLOCK_RECORD
5
52
330
1
100
AcDbSymbolTableRecord
100
AcDbBlockTableRecord
2
*D5
70
0
280
1
281
0
0
BLOCK_RECORD
5
55
330
1
100
AcDbSymbolTableRecord
100
AcDbBlockTableRecord
2
*D1
70
0
280
1
281
0
0
BLOCK_RECORD
5
58
330
1
100
AcDbSymbolTableRecord
100
AcDbBlockTableRecord
2
*D4
70
0
280
1
281
0
0
BLOCK_RECORD
5
5B
330
1
100
AcDbSymbolTableRecord
100
AcDbBlockTableRecord
2
door60leftdown
70
0
280
1
281
0
0
ENDTAB
0
ENDSEC
0
SECTION
2
BLOCKS
0
BLOCK
5
20
330
1F
100
AcDbEntity
8
0
100
AcDbBlockBegin
2
*Model_Space
70
0
10
0
20
0
30
0
3
*Model_Space
1

0
ENDBLK
5
21
330
1F
100
AcDbEntity
8
0
100
AcDbBlockEnd
0
BLOCK
5
1C
330
1B
100
AcDbEntity
8
0
100
AcDbBlockBegin
2
*Paper_Space
70
0
10
0
20
0
30
0
3
*Paper_Space
1

0
ENDBLK
5
1D
330
1F
100
AcDbEntity
8
0
100
AcDbBlockEnd
0
BLOCK
5
4D
330
4C
100
AcDbEntity
8
0
100
AcDbBlockBegin
2
*D3
70
1
10
0
20
0
3
*D3
1

0
LINE
5
5E
100
AcDbEntity
8
dimension
6
CONTINUOUS
62
7
370
0
100
AcDbLine
10
-14.0625
20
39.75
11
-14.0625
21
283.75
0
SOLID
5
5F
100
AcDbEntity
8
dimension
6
CONTINUOUS
62
7
370
0
100
AcDbTrace
10
-14.0625
20
39.75
30
0
11
-15.3113539733
21
47.25
31
0
12
-12.8136460267
22
47.25
32
0
13
-12.8136460267
23
47.25
33
0
0
SOLID
5
60
100
AcDbEntity
8
dimension
6
CONTINUOUS
62
7
370
0
100
AcDbTrace
10
-14.0625
20
283.75
30
0
11
-12.8136460267
21
276.25
31
0
12
-15.3113539733
22
276.25
32
0
13
-15.3113539733
23
276.25
33
0
0
MTEXT
5
61
100
AcDbEntity
8
dimension
6
CONTINUOUS
62
7
370
0
100
AcDbMText
10
-18.9375
20
161.75
30
0
40
6.5
41
14.4444444444
71
5
72
1
1
244
7
standard
210
0
220
0
230
1
50
90
73
2
44
1
0
LINE
5
62
100
AcDbEntity
8
dimension
6
CONTINUOUS
62
7
370
0
100
AcDbLine
10
17.875
20
39.75
11
-16.3125
21
39.75
0
LINE
5
63
100
AcDbEntity
8
dimension
6
CONTINUOUS
62
7
370
0
100
AcDbLine
10
17.875
20
283.75
11
-16.3125
21
283.75
0
ENDBLK
5
4E
330
4C
100
AcDbEntity
8
0
100
AcDbBlockEnd
0
BLOCK
5
50
330
4F
100
AcDbEntity
8
0
100
AcDbBlockBegin
2
*D2
70
1
10
0
20
0
3
*D2
1

0
LINE
5
64
100
AcDbEntity
8
dimension
6
CONTINUOUS
62
7
370
0
100
AcDbLine
10
325.4
20
325.625
11
442.4
21
325.625
0
SOLID
5
65
100
AcDbEntity
8
dimension
6
CONTINUOUS
62
7
370
0
100
AcDbTrace
10
325.4
20
325.625
30
0
11
332.9
21
326.873853973
31
0
12
332.9
22
324.376146027
32
0
13
332.9
23
324.376146027
33
0
0
SOLID
5
66
100
AcDbEntity
8
dimension
6
CONTINUOUS
62
7
370
0
100
AcDbTrace
10
442.4
20
325.625
30
0
11
434.9
21
324.376146027
31
0
12
434.9
22
326.873853973
32
0
13
434.9
23
326.873853973
33
0
0
MTEXT
5
67
100
AcDbEntity
8
dimension
6
CONTINUOUS
62
7
370
0
100
AcDbMText
10
383.9
20
330.5
30
0
40
6.5
41
10.1111111111
71
5
72
1
1
117
7
standard
210
0
220
0
230
1
50
0
73
2
44
1
0
LINE
5
68
100
AcDbEntity
8
dimension
6
CONTINUOUS
62
7
370
0
100
AcDbLine
10
325.4
20
286.375
11
325.4
21
327.875
0
LINE
5
69
100
AcDbEntity
8
dimension
6
CONTINUOUS
62
7
370
0
100
AcDbLine
10
442.4
20
286.375
11
442.4
21
327.875
0
ENDBLK
5
51
330
4F
100
AcDbEntity
8
0
100
AcDbBlockEnd
0
BLOCK
5
53
330
52
100
AcDbEntity
8
0
100
AcDbBlockBegin
2
*D5
70
1
10
0
20
0
3
*D5
1

0
LINE
5
6A
100
AcDbEntity
8
dimension
6
CONTINUOUS
62
7
370
0
100
AcDbLine
10
3.662109375
20
44.15
11
3.662109375
21
279.35
0
SOLID
5
6B
100
AcDbEntity
8
dimension
6
CONTINUOUS
62
7
370
0
100
AcDbTrace
10
3.662109375
20
44.15
30
0
11
2.41325540168
21
51.65
31
0
12
4.91096334832
22
51.65
32
0
13
4.91096334832
23
51.65
33
0
0
SOLID
5
6C
100
AcDbEntity
8
dimension
6
CONTINUOUS
62
7
370
0
100
AcDbTrace
10
3.662109375
20
279.35
30
0
11
4.91096334832
21
271.85
31
0
12
2.41325540168
22
271.85
32
0
13
2.41325540168
23
271.85
33
0
0
MTEXT
5
6D
100
AcDbEntity
8
dimension
6
CONTINUOUS
62
7
370
0
100
AcDbMText
10
-1.212890625
20
161.75
30
0
40
6.5
41
20.2222222222
71
5
72
1
1
235.2
7
standard
210
0
220
0
230
1
50
90
73
2
44
1
0
LINE
5
6E
100
AcDbEntity
8
dimension
6
CONTINUOUS
62
7
370
0
100
AcDbLine
10
22.275
20
44.15
11
1.412109375
21
44.15
0
LINE
5
6F
100
AcDbEntity
8
dimension
6
CONTINUOUS
62
7
370
0
100
AcDbLine
10
22.275
20
279.35
11
1.412109375
21
279.35
0
ENDBLK
5
54
330
52
100
AcDbEntity
8
0
100
AcDbBlockEnd
0
BLOCK
5
56
330
55
100
AcDbEntity
8
0
100
AcDbBlockBegin
2
*D1
70
1
10
0
20
0
3
*D1
1

0
LINE
5
70
100
AcDbEntity
8
dimension
6
CONTINUOUS
62
7
370
0
100
AcDbLine
10
20.5
20
325.775146484
11
323.4
21
325.775146484
0
SOLID
5
71
100
AcDbEntity
8
dimension
6
CONTINUOUS
62
7
370
0
100
AcDbTrace
10
20.5
20
325.775146484
30
0
11
28
21
327.024000457
31
0
12
28
22
324.526292511
32
0
13
28
23
324.526292511
33
0
0
SOLID
5
72
100
AcDbEntity
8
dimension
6
CONTINUOUS
62
7
370
0
100
AcDbTrace
10
323.4
20
325.775146484
30
0
11
315.9
21
324.526292511
31
0
12
315.9
22
327.024000457
32
0
13
315.9
23
327.024000457
33
0
0
MTEXT
5
73
100
AcDbEntity
8
dimension
6
CONTINUOUS
62
7
370
0
100
AcDbMText
10
171.95
20
330.650146484
30
0
40
6.5
41
20.2222222222
71
5
72
1
1
302.9
7
standard
210
0
220
0
230
1
50
0
73
2
44
1
0
LINE
5
74
100
AcDbEntity
8
dimension
6
CONTINUOUS
62
7
370
0
100
AcDbLine
10
20.5
20
286.375
11
20.5
21
328.025146484
0
LINE
5
75
100
AcDbEntity
8
dimension
6
CONTINUOUS
62
7
370
0
100
AcDbLine
10
323.4
20
286.375
11
323.4
21
328.025146484
0
ENDBLK
5
57
330
55
100
AcDbEntity
8
0
100
AcDbBlockEnd
0
BLOCK
5
59
330
58
100
AcDbEntity
8
0
100
AcDbBlockBegin
2
*D4
70
1
10
0
20
0
3
*D4
1

0
LINE
5
76
100
AcDbEntity
8
dimension
6
CONTINUOUS
62
7
370
0
100
AcDbLine
10
24.9
20
-2.9296875
11
303.8
21
-2.9296875
0
SOLID
5
77
100
AcDbEntity
8
dimension
6
CONTINUOUS
62
7
370
0
100
AcDbTrace
10
24.9
20
-2.9296875
30
0
11
32.4
21
-1.68083352668
31
0
12
32.4
22
-4.17854147332
32
0
13
32.4
23
-4.17854147332
33
0
0
SOLID
5
78
100
AcDbEntity
8
dimension
6
CONTINUOUS
62
7
370
0
100
AcDbTrace
10
303.8
20
-2.9296875
30
0
11
296.3
21
-4.17854147332
31
0
12
296.3
22
-1.68083352668
32
0
13
296.3
23
-1.68083352668
33
0
0
MTEXT
5
79
100
AcDbEntity
8
dimension
6
CONTINUOUS
62
7
370
0
100
AcDbMText
10
164.35
20
1.9453125
30
0
40
6.5
41
20.2222222222
71
5
72
1
1
278.9
7
standard
210
0
220
0
230
1
50
0
73
2
44
1
0
LINE
5
7A
100
AcDbEntity
8
dimension
6
CONTINUOUS
62
7
370
0
100
AcDbLine
10
24.9
20
41.525
11
24.9
21
-5.1796875
0
LINE
5
7B
100
AcDbEntity
8
dimension
6
CONTINUOUS
62
7
370
0
100
AcDbLine
10
303.8
20
41.525
11
303.8
21
-5.1796875
0
ENDBLK
5
5A
330
58
100
AcDbEntity
8
0
100
AcDbBlockEnd
0
BLOCK
5
5C
330
5B
100
AcDbEntity
8
0
100
AcDbBlockBegin
2
door60leftdown
70
0
10
0
20
0
3
door60leftdown
1

0
ENDBLK
5
5D
330
5B
100
AcDbEntity
8
0
100
AcDbBlockEnd
0
ENDSEC
0
SECTION
2
ENTITIES
0
LINE
5
7C
100
AcDbEntity
8
0
6
ByLayer
62
256
370
-1
100
AcDbLine
10
20.5
20
39.75
11
323.4
21
39.75
0
LINE
5
7D
100
AcDbEntity
8
0
6
ByLayer
62
256
370
-1
100
AcDbLine
10
20.5
20
39.75
11
20.5
21
283.75
0
LINE
5
7E
100
AcDbEntity
8
0
6
ByLayer
62
256
370
-1
100
AcDbLine
10
20.5
20
283.75
11
323.4
21
283.75
0
LINE
5
7F
100
AcDbEntity
8
0
6
ByLayer
62
256
370
-1
100
AcDbLine
10
323.4
20
39.75
11
323.4
21
283.75
0
LINE
5
80
100
AcDbEntity
8
0
6
ByLayer
62
256
370
-1
100
AcDbLine
10
24.9
20
44.15
11
24.9
21
279.35
0
LINE
5
81
100
AcDbEntity
8
0
6
ByLayer
62
256
370
-1
100
AcDbLine
10
24.9
20
44.15
11
323.4
21
44.15
0
LINE
5
82
100
AcDbEntity
8
0
6
ByLayer
62
256
370
-1
100
AcDbLine
10
24.9
20
279.35
11
323.4
21
279.35
0
LINE
5
83
100
AcDbEntity
8
0
6
ByLayer
62
256
370
-1
100
AcDbLine
10
325.4
20
283.75
11
442.4
21
283.75
0
LINE
5
84
100
AcDbEntity
8
0
6
ByLayer
62
256
370
-1
100
AcDbLine
10
325.4
20
39.75
11
442.4
21
39.75
0
LINE
5
85
100
AcDbEntity
8
0
6
ByLayer
62
256
370
-1
100
AcDbLine
10
325.4
20
279.75
11
442.4
21
279.75
0
LINE
5
86
100
AcDbEntity
8
0
6
ByLayer
62
256
370
-1
100
AcDbLine
10
325.4
20
43.75
11
442.4
21
43.75
0
LINE
5
87
100
AcDbEntity
8
0
6
ByLayer
62
256
370
-1
100
AcDbLine
10
442.4
20
283.75
11
442.4
21
279.75
0
LINE
5
88
100
AcDbEntity
8
0
6
ByLayer
62
256
370
-1
100
AcDbLine
10
325.4
20
283.75
11
325.4
21
279.75
0
LINE
5
89
100
AcDbEntity
8
0
6
ByLayer
62
256
370
-1
100
AcDbLine
10
442.4
20
39.75
11
442.4
21
43.75
0
LINE
5
8A
100
AcDbEntity
8
0
6
ByLayer
62
256
370
-1
100
AcDbLine
10
325.4
20
39.75
11
325.4
21
43.75
0
DIMENSION
5
8B
100
AcDbEntity
8
dimension
6
ByLayer
62
256
370
-1
100
AcDbDimension
2
*D1
10
323.4
20
325.775146484
30
0
11
171.95
21
330.650146484
31
0
70
32
71
5
3
Standard
53
0
210
0
220
0
230
1
100
AcDbAlignedDimension
13
20.5
23
283.75
33
0
14
323.4
24
283.75
34
0
100
AcDbRotatedDimension
0
DIMENSION
5
8C
100
AcDbEntity
8
dimension
6
ByLayer
62
256
370
-1
100
AcDbDimension
2
*D2
10
442.4
20
325.625
30
0
11
383.9
21
330.5
31
0
70
32
71
5
3
Standard
53
0
210
0
220
0
230
1
100
AcDbAlignedDimension
13
325.4
23
283.75
33
0
14
442.4
24
283.75
34
0
100
AcDbRotatedDimension
0
DIMENSION
5
8D
100
AcDbEntity
8
dimension
6
ByLayer
62
256
370
-1
100
AcDbDimension
2
*D3
10
-14.0625
20
283.75
30
0
11
-18.9375
21
161.75
31
0
70
32
71
5
3
Standard
53
0
210
0
220
0
230
1
100
AcDbAlignedDimension
13
20.5
23
39.75
33
0
14
20.5
24
283.75
34
0
50
90
100
AcDbRotatedDimension
0
DIMENSION
5
8E
100
AcDbEntity
8
dimension
6
ByLayer
62
256
370
-1
100
AcDbDimension
2
*D4
10
303.8
20
-2.9296875
30
0
11
164.35
21
1.9453125
31
0
70
32
71
5
3
Standard
53
0
210
0
220
0
230
1
100
AcDbAlignedDimension
13
24.9
23
44.15
33
0
14
303.8
24
44.15
34
0
100
AcDbRotatedDimension
0
DIMENSION
5
8F
100
AcDbEntity
8
dimension
6
ByLayer
62
256
370
-1
100
AcDbDimension
2
*D5
10
3.662109375
20
279.35
30
0
11
-1.212890625
21
161.75
31
0
70
32
71
5
3
Standard
53
0
210
0
220
0
230
1
100
AcDbAlignedDimension
13
24.9
23
44.15
33
0
14
24.9
24
279.35
34
0
50
90
100
AcDbRotatedDimension
0
LINE
5
90
100
AcDbEntity
8
walls
6
ByLayer
62
256
370
-1
100
AcDbLine
10
29.9
20
274.35
11
323.4
21
274.35
0
LINE
5
91
100
AcDbEntity
8
walls
6
ByLayer
62
256
370
-1
100
AcDbLine
10
29.9
20
49.15
11
323.4
21
49.15
0
LINE
5
92
100
AcDbEntity
8
walls
6
ByLayer
62
256
370
-1
100
AcDbLine
10
29.9
20
49.15
11
29.9
21
274.35
0
ELLIPSE
5
93
100
AcDbEntity
8
fixture
6
ByLayer
62
256
370
-1
100
AcDbEllipse
10
88.114478868
20
98.4257476717
30
0
11
-27.1415755389
21
0.542831510779
31
0
40
0.817719891892
41
0
42
6.28318530718
0
LINE
5
94
100
AcDbEntity
8
fixture
6
ByLayer
62
256
370
-1
100
AcDbLine
10
32.9
20
122.25
11
53.9
21
122.25
0
LINE
5
95
100
AcDbEntity
8
fixture
6
ByLayer
62
256
370
-1
100
AcDbLine
10
53.9
20
122.25
11
53.9
21
75.25
0
LINE
5
96
100
AcDbEntity
8
fixture
6
ByLayer
62
256
370
-1
100
AcDbLine
10
53.9
20
75.25
11
32.9
21
75.25
0
LINE
5
97
100
AcDbEntity
8
fixture
6
ByLayer
62
256
370
-1
100
AcDbLine
10
32.9
20
75.25
11
32.9
21
122.25
0
LINE
5
98
100
AcDbEntity
8
fixture
6
ByLayer
62
256
370
-1
100
AcDbLine
10
30.9
20
154.35
11
149.9
21
154.35
0
LINE
5
99
100
AcDbEntity
8
fixture
6
ByLayer
62
256
370
-1
100
AcDbLine
10
30.9
20
154.35
11
30.9
21
273.35
0
LINE
5
9A
100
AcDbEntity
8
fixture
6
ByLayer
62
256
370
-1
100
AcDbLine
10
30.9
20
273.35
11
149.9
21
273.35
0
LINE
5
9B
100
AcDbEntity
8
fixture
6
ByLayer
62
256
370
-1
100
AcDbLine
10
149.9
20
154.35
11
149.9
21
273.35
0
ARC
5
9C
100
AcDbEntity
8
fixture
6
ByLayer
62
256
370
-1
100
AcDbCircle
10
126.768272016
20
250.218272016
40
13.5
100
AcDbArc
50
13.4136619035
51
76.5863380965
0
ARC
5
9D
100
AcDbEntity
8
fixture
6
ByLayer
62
256
370
-1
100
AcDbCircle
10
54.0317279836
20
250.218272016
40
13.5
100
AcDbArc
50
103.413661903
51
166.586338097
0
ARC
5
9E
100
AcDbEntity
8
fixture
6
ByLayer
62
256
370
-1
100
AcDbCircle
10
126.768272016
20
177.481727984
40
13.5
100
AcDbArc
50
283.413661903
51
346.586338097
0
ARC
5
9F
100
AcDbEntity
8
fixture
6
ByLayer
62
256
370
-1
100
AcDbCircle
10
54.0317279836
20
177.481727984
40
13.5
100
AcDbArc
50
193.413661903
51
256.586338097
0
LINE
5
A0
100
AcDbEntity
8
fixture
6
ByLayer
62
256
370
-1
100
AcDbLine
10
50.9
20
263.35
11
129.9
21
263.35
0
LINE
5
A1
100
AcDbEntity
8
fixture
6
ByLayer
62
256
370
-1
100
AcDbLine
10
50.9
20
164.35
11
129.9
21
164.35
0
LINE
5
A2
100
AcDbEntity
8
fixture
6
ByLayer
62
256
370
-1
100
AcDbLine
10
40.9
20
174.35
11
40.9
21
253.35
0
LINE
5
A3
100
AcDbEntity
8
fixture
6
ByLayer
62
256
370
-1
100
AcDbLine
10
139.9
20
174.35
11
139.9
21
253.35
0
LINE
5
A4
100
AcDbEntity
8
walls
6
ByLayer
62
256
370
-1
100
AcDbLine
10
189.9
20
85.35
11
194.9
21
85.35
0
LINE
5
A5
100
AcDbEntity
8
walls
6
ByLayer
62
256
370
-1
100
AcDbLine
10
194.9
20
85.35
11
194.9
21
49.15
0
LINE
5
A6
100
AcDbEntity
8
walls
6
ByLayer
62
256
370
-1
100
AcDbLine
10
189.9
20
85.35
11
189.9
21
49.15
0
LINE
5
A7
100
AcDbEntity
8
0
6
DOT2
62
256
370
-1
100
AcDbLine
10
303.8
20
279.35
11
303.8
21
44.15
0
LINE
5
A8
100
AcDbEntity
8
walls
6
ByLayer
62
256
370
-1
100
AcDbLine
10
307.4
20
153.35
11
307.4
21
274.35
0
LINE
5
A9
100
AcDbEntity
8
walls
6
ByLayer
62
256
370
-1
100
AcDbLine
10
312.4
20
274.35
11
312.4
21
148.35
0
LINE
5
AA
100
AcDbEntity
8
walls
6
ByLayer
62
256
370
-1
100
AcDbLine
10
304.4
20
153.35
11
304.4
21
148.35
0
LINE
5
AB
100
AcDbEntity
8
walls
6
ByLayer
62
256
370
-1
100
AcDbLine
10
304.4
20
148.35
11
307.4
21
148.35
0
LINE
5
AC
100
AcDbEntity
8
walls
6
ByLayer
62
256
370
-1
100
AcDbLine
10
29.9
20
143.35
11
189.9
21
143.35
0
LINE
5
AD
100
AcDbEntity
8
walls
6
ByLayer
62
256
370
-1
100
AcDbLine
10
189.9
20
140.35
11
194.9
21
140.35
0
LINE
5
AE
100
AcDbEntity
8
walls
6
ByLayer
62
256
370
-1
100
AcDbLine
10
194.9
20
140.35
11
194.9
21
143.35
0
LINE
5
AF
100
AcDbEntity
8
walls
6
ByLayer
62
256
370
-1
100
AcDbLine
10
189.9
20
140.35
11
189.9
21
143.35
0
LINE
5
B0
100
AcDbEntity
8
doors
6
ByLayer
62
256
370
-1
100
AcDbLine
10
189.9
20
140.35
11
131.193179649
21
127.960115243
0
LINE
5
B1
100
AcDbEntity
8
doors
6
ByLayer
62
256
370
-1
100
AcDbLine
10
190.416245198
20
137.903882485
11
131.709424847
21
125.513997728
0
ARC
5
B2
100
AcDbEntity
8
doors
6
ByLayer
62
256
370
-1
100
AcDbCircle
10
189.9
20
140.35
40
60
100
AcDbArc
50
191.917209257
51
270
0
LINE
5
B3
100
AcDbEntity
8
doors
6
ByLayer
62
256
370
-1
100
AcDbLine
10
131.193179649
20
127.960115243
11
131.760407767
21
125.524757509
0
LINE
5
B4
100
AcDbEntity
8
doors
6
ByLayer
62
256
370
-1
100
AcDbLine
10
189.9
20
140.35
11
190.416245198
21
137.903882485
0
LINE
5
B5
100
AcDbEntity
8
walls
6
ByLayer
62
256
370
-1
100
AcDbLine
10
312.4
20
148.35
11
307.4
21
148.35
0
LINE
5
B6
100
AcDbEntity
8
walls
6
ByLayer
62
256
370
-1
100
AcDbLine
10
29.9
20
148.35
11
194.9
21
148.35
0
LINE
5
B7
100
AcDbEntity
8
walls
6
ByLayer
62
256
370
-1
100
AcDbLine
10
194.9
20
148.35
11
223.8
21
148.35
0
LINE
5
B8
100
AcDbEntity
8
walls
6
ByLayer
62
256
370
-1
100
AcDbLine
10
194.9
20
143.35
11
223.8
21
143.35
0
LINE
5
B9
100
AcDbEntity
8
walls
6
ByLayer
62
256
370
-1
100
AcDbLine
10
223.8
20
148.35
11
223.8
21
143.35
0
LINE
5
BA
100
AcDbEntity
8
doors
6
ByLayer
62
256
370
-1
100
AcDbLine
10
223.8
20
153.35
11
143.8
21
153.35
0
LINE
5
BB
100
AcDbEntity
8
doors
6
ByLayer
62
256
370
-1
100
AcDbLine
10
143.8
20
153.35
11
143.8
21
149.35
0
LINE
5
BC
100
AcDbEntity
8
doors
6
ByLayer
62
256
370
-1
100
AcDbLine
10
143.8
20
149.35
11
223.8
21
149.35
0
LINE
5
BD
100
AcDbEntity
8
doors
6
ByLayer
62
256
370
-1
100
AcDbLine
10
223.8
20
149.35
11
223.8
21
153.35
0
LINE
5
BE
100
AcDbEntity
8
walls
6
ByLayer
62
256
370
-1
100
AcDbLine
10
304.4
20
153.35
11
307.4
21
153.35
0
LINE
5
BF
100
AcDbEntity
8
walls
6
ByLayer
62
256
370
-1
100
AcDbLine
10
312.4
20
148.35
11
312.4
21
143.35
0
LINE
5
C0
100
AcDbEntity
8
walls
6
ByLayer
62
256
370
-1
100
AcDbLine
10
312.4
20
143.35
11
304.4
21
143.35
0
LINE
5
C1
100
AcDbEntity
8
walls
6
ByLayer
62
256
370
-1
100
AcDbLine
10
304.4
20
143.35
11
304.4
21
148.35
0
LINE
5
C2
100
AcDbEntity
8
walls
6
DOT2
62
256
370
-1
100
AcDbLine
10
223.8
20
148.35
11
304.4
21
148.35
0
CIRCLE
5
C3
100
AcDbEntity
8
fixture
6
ByLayer
62
256
370
-1
100
AcDbCircle
10
223.723286772
20
213.724480659
40
5
0
CIRCLE
5
C4
100
AcDbEntity
8
fixture
6
ByLayer
62
256
370
-1
100
AcDbCircle
10
89.9892550143
20
214.349406041
40
5
0
LINE
5
C5
100
AcDbEntity
8
doors
6
ByLayer
62
256
370
-1
100
AcDbLine
10
318.4
20
140.35
11
318.4
21
240.35
0
LINE
5
C6
100
AcDbEntity
8
doors
6
ByLayer
62
256
370
-1
100
AcDbLine
10
318.4
20
240.35
11
313.4
21
240.35
0
LINE
5
C7
100
AcDbEntity
8
doors
6
ByLayer
62
256
370
-1
100
AcDbLine
10
313.4
20
240.35
11
313.4
21
140.35
0
LINE
5
C8
100
AcDbEntity
8
doors
6
ByLayer
62
256
370
-1
100
AcDbLine
10
313.4
20
140.35
11
318.4
21
140.35
0
LINE
5
C9
100
AcDbEntity
8
walls
6
DOT2
62
256
370
-1
100
AcDbLine
10
223.8
20
153.35
11
304.4
21
153.35
0
LINE
5
CA
100
AcDbEntity
8
walls
6
DOT2
62
256
370
-1
100
AcDbLine
10
223.8
20
143.35
11
304.4
21
143.35
0
MTEXT
5
CB
100
AcDbEntity
8
text
6
ByLayer
62
256
370
-1
100
AcDbMText
10
231.972301815
20
226.532951289
30
0
40
7
41
21
71
1
72
1
1
drain
7

210
0
220
0
230
1
50
0
73
2
44
1
0
MTEXT
5
CC
100
AcDbEntity
8
text
6
ByLayer
62
256
370
-1
100
AcDbMText
10
95.3486150907
20
227.17287488
30
0
40
7
41
21
71
1
72
1
1
drain
7

210
0
220
0
230
1
50
0
73
2
44
1
0
MTEXT
5
CD
100
AcDbEntity
8
text
6
ByLayer
62
256
370
-1
100
AcDbMText
10
259.96895893
20
128.484658548
30
0
40
7
41
36.3611096271
71
1
72
1
1
Step Up
7

210
0
220
0
230
1
50
0
73
2
44
1
0
LINE
5
CE
100
AcDbEntity
8
text
6
ByLayer
62
256
370
-1
100
AcDbLine
10
275.96704871
20
135.983763133
11
275.96704871
21
165.983763133
0
LINE
5
CF
100
AcDbEntity
8
text
6
ByLayer
62
256
370
-1
100
AcDbLine
10
275.96704871
20
165.983763133
11
267.306794673
21
160.983763133
0
LINE
5
D0
100
AcDbEntity
8
text
6
ByLayer
62
256
370
-1
100
AcDbLine
10
275.96704871
20
165.983763133
11
284.627302748
21
160.983763133
0
CIRCLE
5
D1
100
AcDbEntity
8
fixture
6
ByLayer
62
256
370
-1
100
AcDbCircle
10
221.973495702
20
264.36843362
40
5
0
MTEXT
5
D2
100
AcDbEntity
8
text
6
ByLayer
62
256
370
-1
100
AcDbMText
10
233.572110793
20
269.167860554
30
0
40
5
41
56.111116254
71
1
72
1
1
two show heads, \Pat 60 cm\Pand at 170 cm\Pfrom the floor
7

210
0
220
0
230
1
50
0
73
2
44
1
0
MTEXT
5
D3
100
AcDbEntity
8
text
6
ByLayer
62
256
370
-1
100
AcDbMText
10
333.960124164
20
195.976599809
30
0
40
6
41
45.8356191655
71
1
72
1
1
sliding door\Pglass
7

210
0
220
0
230
1
50
0
73
2
44
1
0
MTEXT
5
D4
100
AcDbEntity
8
text
6
ByLayer
62
256
370
-1
100
AcDbMText
10
186.477734002
20
163.980420248
30
0
40
6
41
45.8356191655
71
1
72
1
1
sliding door
7

210
0
220
0
230
1
50
0
73
2
44
1
0
MTEXT
5
D5
100
AcDbEntity
8
text
6
ByLayer
62
256
370
-1
100
AcDbMText
10
221.669531996
20
195.304680038
30
0
40
6
41
73.6666666667
71
1
72
1
1
floor 20cm high\Pfor drain plumbing
7

210
0
220
0
230
1
50
0
73
2
44
1
0
MTEXT
5
D6
100
AcDbEntity
8
text
6
ByLayer
62
256
370
-1
100
AcDbMText
10
224.773161413
20
112.786532951
30
0
40
4
41
71.890412777
71
1
72
1
1
wall above bottom of\Psliding door, water keeper
7

210
0
220
0
230
1
50
0
73
2
44
1
0
LWPOLYLINE
5
D7
100
AcDbEntity
8
text
6
ByLayer
62
256
370
-1
100
AcDbPolyline
90
81
70
0
43
0
10
228.772683858
20
117.98591213
10
228.772683858
20
118.385864374
10
228.772683858
20
118.785816619
10
229.572588347
20
119.185768863
10
230.372492837
20
119.185768863
10
231.172397326
20
119.185768863
10
231.972301815
20
119.585721108
10
232.772206304
20
119.985673352
10
233.172158548
20
119.985673352
10
233.972063037
20
120.385625597
10
234.771967526
20
120.785577841
10
235.171919771
20
121.185530086
10
235.97182426
20
121.58548233
10
236.771728749
20
121.985434575
10
237.171680993
20
122.385386819
10
237.571633238
20
122.785339064
10
238.371537727
20
122.785339064
10
239.171442216
20
123.585243553
10
239.57139446
20
123.585243553
10
240.371298949
20
123.985195797
10
241.171203438
20
124.385148042
10
241.571155683
20
125.185052531
10
241.971107927
20
125.185052531
10
242.771012416
20
125.98495702
10
243.170964661
20
126.384909264
10
243.570916905
20
126.784861509
10
243.97086915
20
126.784861509
10
243.97086915
20
127.184813753
10
244.370821394
20
127.584765998
10
244.770773639
20
127.584765998
10
245.170725883
20
128.384670487
10
245.570678128
20
128.784622732
10
245.570678128
20
129.184574976
10
245.970630372
20
129.184574976
10
246.370582617
20
129.584527221
10
246.770534861
20
129.984479465
10
247.170487106
20
130.38443171
10
247.170487106
20
130.784383954
10
247.57043935
20
131.184336199
10
247.57043935
20
131.584288443
10
247.970391595
20
131.584288443
10
247.970391595
20
131.984240688
10
248.370343839
20
132.384192932
10
248.370343839
20
132.784145177
10
248.770296084
20
133.184097421
10
249.170248328
20
133.184097421
10
249.170248328
20
133.584049666
10
249.170248328
20
133.98400191
10
249.570200573
20
134.383954155
10
249.570200573
20
134.783906399
10
249.570200573
20
135.183858644
10
249.970152817
20
135.583810888
10
249.970152817
20
135.983763133
10
250.370105062
20
135.983763133
10
250.370105062
20
136.383715377
10
250.370105062
20
136.783667622
10
250.770057306
20
137.183619866
10
250.770057306
20
137.983524355
10
250.770057306
20
138.3834766
10
250.770057306
20
138.783428844
10
251.170009551
20
139.183381089
10
251.170009551
20
139.583333333
10
251.569961795
20
139.583333333
10
251.569961795
20
139.983285578
10
251.569961795
20
140.383237822
10
251.569961795
20
140.783190067
10
251.96991404
20
141.183142311
10
251.96991404
20
141.9830468
10
252.369866284
20
142.382999045
10
252.369866284
20
142.782951289
10
252.369866284
20
143.182903534
10
252.369866284
20
143.582855778
10
252.369866284
20
143.982808023
10
252.369866284
20
144.382760267
10
252.369866284
20
144.782712512
10
252.369866284
20
145.182664756
10
252.369866284
20
145.582617001
10
252.369866284
20
145.982569245
10
252.369866284
20
146.38252149
10
252.369866284
20
146.782473734
10
252.369866284
20
145.982569245
0
LWPOLYLINE
5
D8
100
AcDbEntity
8
text
6
ByLayer
62
256
370
-1
100
AcDbPolyline
90
22
70
0
43
0
10
252.769818529
20
145.982569245
10
252.769818529
20
145.582617001
10
252.769818529
20
145.182664756
10
252.769818529
20
144.782712512
10
253.569723018
20
144.782712512
10
253.569723018
20
144.382760267
10
253.569723018
20
143.982808023
10
253.969675262
20
143.982808023
10
253.969675262
20
143.582855778
10
253.969675262
20
143.182903534
10
254.369627507
20
143.182903534
10
254.769579751
20
142.782951289
10
254.769579751
20
142.382999045
10
255.169531996
20
141.9830468
10
255.569484241
20
141.583094556
10
255.569484241
20
141.183142311
10
255.969436485
20
141.183142311
10
255.969436485
20
140.783190067
10
255.969436485
20
140.383237822
10
256.36938873
20
140.383237822
10
256.36938873
20
139.983285578
10
255.569484241
20
139.983285578
0
LWPOLYLINE
5
D9
100
AcDbEntity
8
text
6
ByLayer
62
256
370
-1
100
AcDbPolyline
90
23
70
0
43
0
10
252.769818529
20
145.582617001
10
252.369866284
20
145.582617001
10
252.369866284
20
144.782712512
10
252.369866284
20
144.382760267
10
252.369866284
20
143.982808023
10
251.96991404
20
143.982808023
10
251.569961795
20
143.982808023
10
251.569961795
20
143.582855778
10
251.569961795
20
143.182903534
10
251.170009551
20
143.182903534
10
251.170009551
20
142.782951289
10
250.770057306
20
142.382999045
10
250.770057306
20
141.9830468
10
250.370105062
20
141.9830468
10
249.970152817
20
141.583094556
10
249.970152817
20
141.183142311
10
249.570200573
20
141.183142311
10
249.570200573
20
140.783190067
10
249.570200573
20
140.383237822
10
249.170248328
20
140.383237822
10
249.170248328
20
139.983285578
10
248.770296084
20
139.983285578
10
248.770296084
20
139.583333333
0
LWPOLYLINE
5
DA
100
AcDbEntity
8
text
6
ByLayer
62
256
370
-1
100
AcDbPolyline
90
62
70
0
43
0
10
205.975405922
20
187.17765043
10
205.975405922
20
187.977554919
10
205.975405922
20
188.377507163
10
205.975405922
20
188.777459408
10
205.575453677
20
189.577363897
10
205.575453677
20
189.977316141
10
205.575453677
20
190.377268386
10
205.175501433
20
190.77722063
10
205.175501433
20
191.577125119
10
205.175501433
20
192.377029608
10
205.175501433
20
192.776981853
10
205.175501433
20
193.176934097
10
205.175501433
20
193.576886342
10
205.175501433
20
194.376790831
10
205.175501433
20
194.776743075
10
205.175501433
20
195.17669532
10
205.975405922
20
195.17669532
10
205.975405922
20
195.576647564
10
206.375358166
20
195.576647564
10
206.375358166
20
195.976599809
10
206.775310411
20
196.376552053
10
207.175262655
20
196.776504298
10
207.5752149
20
196.776504298
10
207.975167144
20
196.776504298
10
208.375119389
20
196.776504298
10
208.775071633
20
196.776504298
10
208.775071633
20
197.176456542
10
209.175023878
20
197.176456542
10
209.574976122
20
197.176456542
10
209.974928367
20
197.176456542
10
210.774832856
20
197.176456542
10
211.1747851
20
197.176456542
10
211.574737345
20
197.176456542
10
211.974689589
20
197.176456542
10
212.374641834
20
197.176456542
10
212.774594078
20
197.176456542
10
213.174546323
20
197.176456542
10
213.574498567
20
197.176456542
10
213.974450812
20
197.176456542
10
214.374403056
20
197.176456542
10
214.774355301
20
197.176456542
10
214.774355301
20
196.376552053
10
215.174307545
20
196.376552053
10
215.57425979
20
195.976599809
10
215.974212034
20
195.576647564
10
216.374164279
20
195.576647564
10
216.774116523
20
195.17669532
10
217.174068768
20
195.17669532
10
217.174068768
20
194.776743075
10
217.574021012
20
194.776743075
10
217.973973257
20
194.376790831
10
217.973973257
20
193.976838586
10
218.373925501
20
193.976838586
10
218.373925501
20
193.576886342
10
218.773877746
20
193.576886342
10
218.773877746
20
193.176934097
10
219.17382999
20
193.176934097
10
219.17382999
20
192.776981853
10
219.17382999
20
192.377029608
10
219.573782235
20
192.377029608
10
219.573782235
20
191.977077364
10
219.573782235
20
191.577125119
0
LWPOLYLINE
5
DB
100
AcDbEntity
8
text
6
ByLayer
62
256
370
-1
100
AcDbPolyline
90
30
70
0
43
0
10
181.978271251
20
161.580706781
10
181.978271251
20
161.980659026
10
181.978271251
20
162.38061127
10
181.578319007
20
162.38061127
10
181.178366762
20
162.38061127
10
181.178366762
20
161.580706781
10
180.778414518
20
161.580706781
10
180.378462273
20
161.180754537
10
179.978510029
20
160.780802292
10
179.578557784
20
160.780802292
10
179.17860554
20
160.380850048
10
178.37870105
20
160.380850048
10
178.37870105
20
159.980897803
10
177.978748806
20
159.580945559
10
177.578796561
20
159.580945559
10
177.178844317
20
159.180993314
10
176.778892072
20
158.78104107
10
176.378939828
20
158.78104107
10
175.978987583
20
158.78104107
10
175.978987583
20
158.381088825
10
175.978987583
20
157.981136581
10
175.579035339
20
157.981136581
10
175.179083094
20
157.981136581
10
175.179083094
20
157.581184336
10
174.77913085
20
157.581184336
10
174.77913085
20
157.181232092
10
174.379178605
20
157.181232092
10
174.379178605
20
156.781279847
10
174.379178605
20
156.381327603
10
173.979226361
20
156.381327603
0
LWPOLYLINE
5
DC
100
AcDbEntity
8
text
6
ByLayer
62
256
370
-1
100
AcDbPolyline
90
35
70
0
43
0
10
223.717287488
20
272.095510984
10
223.717287488
20
272.35148042
10
223.717287488
20
272.607449857
10
223.973256924
20
272.607449857
10
224.229226361
20
272.095510984
10
224.485195797
20
271.839541547
10
224.485195797
20
271.583572111
10
224.741165234
20
271.327602674
10
225.253104107
20
271.071633238
10
225.253104107
20
270.815663801
10
225.509073543
20
270.559694365
10
225.76504298
20
270.303724928
10
226.021012416
20
270.303724928
10
226.532951289
20
269.791786055
10
226.788920726
20
269.535816619
10
227.044890162
20
269.535816619
10
227.300859599
20
269.279847182
10
227.300859599
20
269.023877746
10
227.556829035
20
268.767908309
10
228.068767908
20
268.511938873
10
228.068767908
20
268.255969436
10
228.324737345
20
268.255969436
10
228.324737345
20
268
10
228.580706781
20
267.744030563
10
228.836676218
20
267.488061127
10
229.092645654
20
267.488061127
10
229.092645654
20
267.23209169
10
229.348615091
20
267.23209169
10
229.604584527
20
266.976122254
10
229.604584527
20
266.720152817
10
229.860553964
20
266.720152817
10
230.1165234
20
266.720152817
10
230.372492837
20
266.464183381
10
230.372492837
20
266.208213944
10
230.372492837
20
265.952244508
0
LWPOLYLINE
5
DD
100
AcDbEntity
8
text
6
ByLayer
62
256
370
-1
100
AcDbPolyline
90
2
70
0
43
0
10
200.168099331
20
244.70678128
10
200.168099331
20
244.962750716
0
LWPOLYLINE
5
DE
100
AcDbEntity
8
text
6
ByLayer
62
256
370
-1
100
AcDbPolyline
90
17
70
0
43
0
10
223.973256924
20
271.839541547
10
223.973256924
20
272.35148042
10
224.229226361
20
272.35148042
10
224.741165234
20
272.35148042
10
226.021012416
20
272.35148042
10
226.532951289
20
272.35148042
10
227.044890162
20
271.839541547
10
227.556829035
20
271.839541547
10
227.812798472
20
271.839541547
10
228.580706781
20
271.839541547
10
229.092645654
20
271.839541547
10
229.604584527
20
271.839541547
10
229.860553964
20
271.839541547
10
230.1165234
20
271.839541547
10
230.372492837
20
271.839541547
10
230.372492837
20
271.583572111
10
230.372492837
20
271.327602674
0
LWPOLYLINE
5
DF
100
AcDbEntity
8
text
6
ByLayer
62
256
370
-1
100
AcDbPolyline
90
21
70
0
43
0
10
223.973256924
20
271.839541547
10
223.973256924
20
272.095510984
10
224.229226361
20
271.583572111
10
224.229226361
20
271.327602674
10
224.229226361
20
271.071633238
10
224.229226361
20
270.815663801
10
224.229226361
20
270.559694365
10
224.485195797
20
270.303724928
10
224.485195797
20
270.047755492
10
224.485195797
20
269.791786055
10
224.741165234
20
269.535816619
10
224.741165234
20
269.279847182
10
224.741165234
20
269.023877746
10
224.99713467
20
269.023877746
10
224.99713467
20
268.767908309
10
224.99713467
20
268.511938873
10
225.253104107
20
268.511938873
10
225.253104107
20
268.255969436
10
225.253104107
20
268
10
225.253104107
20
267.744030563
10
225.253104107
20
267.488061127
0
MTEXT
5
E0
100
AcDbEntity
8
text
6
ByLayer
62
256
370
-1
100
AcDbMText
10
455.0237938
20
235.323464176
30
0
40
7
41
213.888899689
71
1
72
1
1
Tub area is raised 20cm, the whole thing\Pis water proof, acts like shower room , tub\Pis can overlow by design. \P\PElectronic control will fill tub to desired\Plevel and tempature\P\PThe shower is used before getting into tub
7

210
0
220
0
230
1
50
0
73
2
44
1
0
ENDSEC
0
SECTION
2
OBJECTS
0
DICTIONARY
5
C
330
0
100
AcDbDictionary
281
1
3
ACAD_GROUP
350
D
0
DICTIONARY
5
D
330
C
100
AcDbDictionary
281
1
0
ENDSEC
0
EOF
