999
dxfrw 0.5.11
0
SECTION
2
HEADER
9
$ACADVER
1
AC1021
9
$HANDSEED
5
20000
9
$DWGCODEPAGE
3
ANSI_1252
9
$INSBASE
10
0
20
0
30
0
9
$EXTMIN
10
-553.588273912
20
-1969.48557365
30
0
9
$EXTMAX
10
13347.3162821
20
1777.56859442
30
0
9
$LIMMIN
10
0
20
0
9
$LIMMAX
10
420
20
297
9
$ORTHOMODE
70
0
9
$LTSCALE
40
1
9
$TEXTSTYLE
7
STANDARD
9
$CLAYER
8
dimension
9
$DIMASZ
40
3
9
$DIMLFAC
40
1
9
$DIMSCALE
40
1
9
$DIMEXO
40
1
9
$DIMEXE
40
5
9
$DIMTXT
40
10
9
$DIMTSZ
40
0
9
$DIMAUNIT
70
0
9
$DIMADEC
70
2
9
$DIMLUNIT
70
2
9
$DIMSTYLE
2
STANDARD
9
$DIMGAP
40
5
9
$DIMTIH
70
0
9
$LUNITS
70
2
9
$LUPREC
70
4
9
$AUNITS
70
0
9
$AUPREC
70
2
9
$SPLINESEGS
70
8
9
$GRIDMODE
70
1
9
$SNAPSTYLE
70
0
9
$GRIDUNIT
10
0
20
0
9
$PINSBASE
10
0
20
0
30
0
9
$PLIMMIN
10
0
20
0
9
$PLIMMAX
10
29.7
20
21
9
$INSUNITS
70
5
9
$PSVPSCALE
40
1
0
ENDSEC
0
SECTION
2
CLASSES
0
ENDSEC
0
SECTION
2
TABLES
0
TABLE
2
VPORT
5
8
330
0
100
AcDbSymbolTable
70
1
0
VPORT
5
31
330
2
100
AcDbSymbolTableRecord
100
AcDbViewportTableRecord
2
*ACTIVE
70
0
10
0
20
0
11
1
21
1
12
649.943222536
22
-596.303749723
13
0
23
0
14
10
24
10
15
10
25
10
16
0
26
0
36
1
17
0
27
0
37
0
40
1022.63306611
41
2.10626702997
42
50
43
0
44
0
50
0
51
0
71
0
72
100
73
1
74
3
75
0
76
1
77
0
78
0
281
0
65
1
110
0
120
0
130
0
111
1
121
0
131
0
112
0
122
1
132
0
79
0
146
0
348
10020
60
7
61
5
292
1
282
1
141
0
142
0
63
250
421
3358443
0
ENDTAB
0
TABLE
2
LTYPE
5
5
330
0
100
AcDbSymbolTable
70
4
0
LTYPE
5
14
330
5
100
AcDbSymbolTableRecord
100
AcDbLinetypeTableRecord
2
ByBlock
70
0
3

72
65
73
0
40
0
0
LTYPE
5
15
330
5
100
AcDbSymbolTableRecord
100
AcDbLinetypeTableRecord
2
ByLayer
70
0
3

72
65
73
0
40
0
0
LTYPE
5
16
330
5
100
AcDbSymbolTableRecord
100
AcDbLinetypeTableRecord
2
Continuous
70
0
3
Solid line
72
65
73
0
40
0
0
LTYPE
5
32
330
5
100
AcDbSymbolTableRecord
100
AcDbLinetypeTableRecord
2
DOT
70
0
3
Dot . . . . . . . . . . . . . . . . . . . . . .
72
65
73
2
40
6.35
49
0
74
0
49
-6.35
74
0
0
LTYPE
5
33
330
5
100
AcDbSymbolTableRecord
100
AcDbLinetypeTableRecord
2
DOT2
70
0
3
Dot (.5x) .....................................
72
65
73
2
40
3.175
49
0
74
0
49
-3.175
74
0
0
LTYPE
5
34
330
5
100
AcDbSymbolTableRecord
100
AcDbLinetypeTableRecord
2
DOTX2
70
0
3
Dot (2x) .  .  .  .  .  .  .  .  .  .  .  .  .
72
65
73
2
40
12.7
49
0
74
0
49
-12.7
74
0
0
LTYPE
5
35
330
5
100
AcDbSymbolTableRecord
100
AcDbLinetypeTableRecord
2
DASHED
70
0
3
Dot . . . . . . . . . . . . . . . . . . . . . .
72
65
73
2
40
19.05
49
12.7
74
0
49
-6.35
74
0
0
LTYPE
5
36
330
5
100
AcDbSymbolTableRecord
100
AcDbLinetypeTableRecord
2
DASHED2
70
0
3
Dashed (.5x) _ _ _ _ _ _ _ _ _ _ _ _ _ _ _ _ _
72
65
73
2
40
9.525
49
6.35
74
0
49
-3.175
74
0
0
LTYPE
5
37
330
5
100
AcDbSymbolTableRecord
100
AcDbLinetypeTableRecord
2
DASHEDX2
70
0
3
Dashed (2x) ____  ____  ____  ____  ____  ___
72
65
73
2
40
38.1
49
25.4
74
0
49
-12.7
74
0
0
LTYPE
5
38
330
5
100
AcDbSymbolTableRecord
100
AcDbLinetypeTableRecord
2
DASHDOT
70
0
3
Dash dot __ . __ . __ . __ . __ . __ . __ . __
72
65
73
4
40
25.4
49
12.7
74
0
49
-6.35
74
0
49
0
74
0
49
-6.35
74
0
0
LTYPE
5
39
330
5
100
AcDbSymbolTableRecord
100
AcDbLinetypeTableRecord
2
DASHDOT2
70
0
3
Dash dot (.5x) _._._._._._._._._._._._._._._.
72
65
73
4
40
12.7
49
6.35
74
0
49
-3.175
74
0
49
0
74
0
49
-3.175
74
0
0
LTYPE
5
3A
330
5
100
AcDbSymbolTableRecord
100
AcDbLinetypeTableRecord
2
DASHDOTX2
70
0
3
Dash dot (2x) ____  .  ____  .  ____  .  ___
72
65
73
4
40
50.8
49
25.4
74
0
49
-12.7
74
0
49
0
74
0
49
-12.7
74
0
0
LTYPE
5
3B
330
5
100
AcDbSymbolTableRecord
100
AcDbLinetypeTableRecord
2
DIVIDE
70
0
3
Divide ____ . . ____ . . ____ . . ____ . . ____
72
65
73
6
40
31.75
49
12.7
74
0
49
-6.35
74
0
49
0
74
0
49
-6.35
74
0
49
0
74
0
49
-6.35
74
0
0
LTYPE
5
3C
330
5
100
AcDbSymbolTableRecord
100
AcDbLinetypeTableRecord
2
DIVIDE2
70
0
3
Divide (.5x) __..__..__..__..__..__..__..__.._
72
65
73
6
40
15.875
49
6.35
74
0
49
-3.175
74
0
49
0
74
0
49
-3.175
74
0
49
0
74
0
49
-3.175
74
0
0
LTYPE
5
3D
330
5
100
AcDbSymbolTableRecord
100
AcDbLinetypeTableRecord
2
DIVIDEX2
70
0
3
Divide (2x) ________  .  .  ________  .  .  _
72
65
73
6
40
63.5
49
25.4
74
0
49
-12.7
74
0
49
0
74
0
49
-12.7
74
0
49
0
74
0
49
-12.7
74
0
0
LTYPE
5
3E
330
5
100
AcDbSymbolTableRecord
100
AcDbLinetypeTableRecord
2
BORDER
70
0
3
Border __ __ . __ __ . __ __ . __ __ . __ __ .
72
65
73
6
40
44.45
49
12.7
74
0
49
-6.35
74
0
49
12.7
74
0
49
-6.35
74
0
49
0
74
0
49
-6.35
74
0
0
LTYPE
5
3F
330
5
100
AcDbSymbolTableRecord
100
AcDbLinetypeTableRecord
2
BORDER2
70
0
3
Border (.5x) __.__.__.__.__.__.__.__.__.__.__.
72
65
73
6
40
22.225
49
6.35
74
0
49
-3.175
74
0
49
6.35
74
0
49
-3.175
74
0
49
0
74
0
49
-3.175
74
0
0
LTYPE
5
40
330
5
100
AcDbSymbolTableRecord
100
AcDbLinetypeTableRecord
2
BORDERX2
70
0
3
Border (2x) ____  ____  .  ____  ____  .  ___
72
65
73
6
40
88.9
49
25.4
74
0
49
-12.7
74
0
49
25.4
74
0
49
-12.7
74
0
49
0
74
0
49
-12.7
74
0
0
LTYPE
5
41
330
5
100
AcDbSymbolTableRecord
100
AcDbLinetypeTableRecord
2
CENTER
70
0
3
Center ____ _ ____ _ ____ _ ____ _ ____ _ ____
72
65
73
4
40
50.8
49
31.75
74
0
49
-6.35
74
0
49
6.35
74
0
49
-6.35
74
0
0
LTYPE
5
42
330
5
100
AcDbSymbolTableRecord
100
AcDbLinetypeTableRecord
2
CENTER2
70
0
3
Center (.5x) ___ _ ___ _ ___ _ ___ _ ___ _ ___
72
65
73
4
40
28.575
49
19.05
74
0
49
-3.175
74
0
49
3.175
74
0
49
-3.175
74
0
0
LTYPE
5
43
330
5
100
AcDbSymbolTableRecord
100
AcDbLinetypeTableRecord
2
CENTERX2
70
0
3
Center (2x) ________  __  ________  __  _____
72
65
73
4
40
101.6
49
63.5
74
0
49
-12.7
74
0
49
12.7
74
0
49
-12.7
74
0
0
ENDTAB
0
TABLE
2
LAYER
5
2
330
0
100
AcDbSymbolTable
70
1
0
LAYER
5
10
330
2
100
AcDbSymbolTableRecord
100
AcDbLayerTableRecord
2
0
70
0
62
7
6
CONTINUOUS
370
0
390
F
0
LAYER
5
44
330
2
100
AcDbSymbolTableRecord
100
AcDbLayerTableRecord
2
bogus
70
0
62
2
6
CONTINUOUS
370
0
390
F
0
LAYER
5
45
330
2
100
AcDbSymbolTableRecord
100
AcDbLayerTableRecord
2
cabinates
70
0
62
253
6
CONTINUOUS
370
0
390
F
0
LAYER
5
46
330
2
100
AcDbSymbolTableRecord
100
AcDbLayerTableRecord
2
container
70
0
62
7
6
CONTINUOUS
370
0
390
F
0
LAYER
5
47
330
2
100
AcDbSymbolTableRecord
100
AcDbLayerTableRecord
2
dimension
70
0
62
5
6
CONTINUOUS
370
0
390
F
0
LAYER
5
48
330
2
100
AcDbSymbolTableRecord
100
AcDbLayerTableRecord
2
doors
70
0
62
6
6
CONTINUOUS
370
-3
390
F
0
LAYER
5
49
330
2
100
AcDbSymbolTableRecord
100
AcDbLayerTableRecord
2
eletrical
70
0
62
136
6
CONTINUOUS
370
-3
390
F
0
LAYER
5
4A
330
2
100
AcDbSymbolTableRecord
100
AcDbLayerTableRecord
2
fixtures
70
0
62
96
6
CONTINUOUS
370
-3
390
F
0
LAYER
5
4B
330
2
100
AcDbSymbolTableRecord
100
AcDbLayerTableRecord
2
tatami
70
0
62
30
6
DOT2
370
0
390
F
0
LAYER
5
4C
330
2
100
AcDbSymbolTableRecord
100
AcDbLayerTableRecord
2
text
70
0
62
8
6
CONTINUOUS
370
-3
390
F
0
LAYER
5
4D
330
2
100
AcDbSymbolTableRecord
100
AcDbLayerTableRecord
2
walls
70
0
62
253
420
10526884
6
CONTINUOUS
370
0
390
F
0
ENDTAB
0
TABLE
2
STYLE
5
3
330
0
100
AcDbSymbolTable
70
3
0
STYLE
5
4E
330
2
100
AcDbSymbolTableRecord
100
AcDbTextStyleTableRecord
2
STANDARD
70
0
40
0
41
1
50
0
71
0
42
1
3
STANDARD
4

0
STYLE
5
4F
330
2
100
AcDbSymbolTableRecord
100
AcDbTextStyleTableRecord
2
standard
70
0
40
0
41
1
50
0
71
0
42
1
3
standard
4

0
STYLE
5
50
330
2
100
AcDbSymbolTableRecord
100
AcDbTextStyleTableRecord
2
iso
70
0
40
0
41
1
50
0
71
0
42
1
3
iso
4

0
ENDTAB
0
TABLE
2
VIEW
5
6
330
0
100
AcDbSymbolTable
70
0
0
ENDTAB
0
TABLE
2
UCS
5
7
330
0
100
AcDbSymbolTable
70
0
0
ENDTAB
0
TABLE
2
APPID
5
9
330
0
100
AcDbSymbolTable
70
1
0
APPID
5
12
330
9
100
AcDbSymbolTableRecord
100
AcDbRegAppTableRecord
2
ACAD
70
0
0
ENDTAB
0
TABLE
2
DIMSTYLE
5
A
330
0
100
AcDbSymbolTable
70
1
100
AcDbDimStyleTable
71
1
0
DIMSTYLE
105
51
330
A
100
AcDbSymbolTableRecord
100
AcDbDimStyleTableRecord
2
Standard
70
0
40
1
41
3
42
1
43
0.38
44
5
45
0
46
0
47
0
48
0
140
10
141
0.09
142
0
143
25.4
144
1
145
0
146
1
147
5
148
0
71
0
72
0
73
0
74
1
75
0
76
0
77
0
78
0
79
0
170
0
171
2
172
0
173
0
174
0
175
0
176
0
177
0
178
0
179
0
271
4
272
4
273
2
274
2
275
0
276
0
277
2
278
46
279
0
280
0
281
0
282
0
283
1
284
0
285
0
286
0
288
0
289
3
340
Standard
341

371
-2
372
-2
0
ENDTAB
0
TABLE
2
BLOCK_RECORD
5
1
330
0
100
AcDbSymbolTable
70
2
0
BLOCK_RECORD
5
1F
330
1
100
AcDbSymbolTableRecord
100
AcDbBlockTableRecord
2
*Model_Space
70
0
280
1
281
0
0
BLOCK_RECORD
5
1E
330
1
100
AcDbSymbolTableRecord
100
AcDbBlockTableRecord
2
*Paper_Space
70
0
280
1
281
0
0
BLOCK_RECORD
5
52
330
1
100
AcDbSymbolTableRecord
100
AcDbBlockTableRecord
2
*D1
70
0
280
1
281
0
0
BLOCK_RECORD
5
55
330
1
100
AcDbSymbolTableRecord
100
AcDbBlockTableRecord
2
*D2
70
0
280
1
281
0
0
BLOCK_RECORD
5
58
330
1
100
AcDbSymbolTableRecord
100
AcDbBlockTableRecord
2
*D3
70
0
280
1
281
0
0
BLOCK_RECORD
5
5B
330
1
100
AcDbSymbolTableRecord
100
AcDbBlockTableRecord
2
*D4
70
0
280
1
281
0
0
BLOCK_RECORD
5
5E
330
1
100
AcDbSymbolTableRecord
100
AcDbBlockTableRecord
2
*D14
70
0
280
1
281
0
0
BLOCK_RECORD
5
61
330
1
100
AcDbSymbolTableRecord
100
AcDbBlockTableRecord
2
*D9
70
0
280
1
281
0
0
BLOCK_RECORD
5
64
330
1
100
AcDbSymbolTableRecord
100
AcDbBlockTableRecord
2
*D13
70
0
280
1
281
0
0
BLOCK_RECORD
5
67
330
1
100
AcDbSymbolTableRecord
100
AcDbBlockTableRecord
2
*D7
70
0
280
1
281
0
0
BLOCK_RECORD
5
6A
330
1
100
AcDbSymbolTableRecord
100
AcDbBlockTableRecord
2
*D10
70
0
280
1
281
0
0
BLOCK_RECORD
5
6D
330
1
100
AcDbSymbolTableRecord
100
AcDbBlockTableRecord
2
*D11
70
0
280
1
281
0
0
BLOCK_RECORD
5
70
330
1
100
AcDbSymbolTableRecord
100
AcDbBlockTableRecord
2
*D5
70
0
280
1
281
0
0
BLOCK_RECORD
5
73
330
1
100
AcDbSymbolTableRecord
100
AcDbBlockTableRecord
2
*D6
70
0
280
1
281
0
0
BLOCK_RECORD
5
76
330
1
100
AcDbSymbolTableRecord
100
AcDbBlockTableRecord
2
*D8
70
0
280
1
281
0
0
BLOCK_RECORD
5
79
330
1
100
AcDbSymbolTableRecord
100
AcDbBlockTableRecord
2
*D12
70
0
280
1
281
0
0
BLOCK_RECORD
5
7C
330
1
100
AcDbSymbolTableRecord
100
AcDbBlockTableRecord
2
outlet110HorUp-0
70
0
280
1
281
0
0
BLOCK_RECORD
5
7F
330
1
100
AcDbSymbolTableRecord
100
AcDbBlockTableRecord
2
door700
70
0
280
1
281
0
0
BLOCK_RECORD
5
82
330
1
100
AcDbSymbolTableRecord
100
AcDbBlockTableRecord
2
WC
70
0
280
1
281
0
0
BLOCK_RECORD
5
85
330
1
100
AcDbSymbolTableRecord
100
AcDbBlockTableRecord
2
tub_ver-0
70
0
280
1
281
0
0
BLOCK_RECORD
5
88
330
1
100
AcDbSymbolTableRecord
100
AcDbBlockTableRecord
2
door800
70
0
280
1
281
0
0
BLOCK_RECORD
5
8B
330
1
100
AcDbSymbolTableRecord
100
AcDbBlockTableRecord
2
KyotoKyomaTatamiVertical-0
70
0
280
1
281
0
0
BLOCK_RECORD
5
8E
330
1
100
AcDbSymbolTableRecord
100
AcDbBlockTableRecord
2
KyotoKyomaTatamiVertical-1
70
0
280
1
281
0
0
BLOCK_RECORD
5
91
330
1
100
AcDbSymbolTableRecord
100
AcDbBlockTableRecord
2
KyotoKyomaTatamiVertical-2
70
0
280
1
281
0
0
BLOCK_RECORD
5
94
330
1
100
AcDbSymbolTableRecord
100
AcDbBlockTableRecord
2
KyotoKyomaTatamiVertical-3
70
0
280
1
281
0
0
BLOCK_RECORD
5
97
330
1
100
AcDbSymbolTableRecord
100
AcDbBlockTableRecord
2
KyotoKyomaTatamiVertical-4
70
0
280
1
281
0
0
BLOCK_RECORD
5
9A
330
1
100
AcDbSymbolTableRecord
100
AcDbBlockTableRecord
2
KyotoKyomaTatamiVertical-5
70
0
280
1
281
0
0
BLOCK_RECORD
5
9D
330
1
100
AcDbSymbolTableRecord
100
AcDbBlockTableRecord
2
KyotoKyomaTatamiVertical-6
70
0
280
1
281
0
0
BLOCK_RECORD
5
A0
330
1
100
AcDbSymbolTableRecord
100
AcDbBlockTableRecord
2
KyotoKyomaTatamiVertical-7
70
0
280
1
281
0
0
BLOCK_RECORD
5
A3
330
1
100
AcDbSymbolTableRecord
100
AcDbBlockTableRecord
2
KyotoKyomaTatamiVertical-8
70
0
280
1
281
0
0
BLOCK_RECORD
5
A6
330
1
100
AcDbSymbolTableRecord
100
AcDbBlockTableRecord
2
KyotoKyomaTatamiHalf-0
70
0
280
1
281
0
0
BLOCK_RECORD
5
A9
330
1
100
AcDbSymbolTableRecord
100
AcDbBlockTableRecord
2
KyotoKyomaTatamiHalf-1
70
0
280
1
281
0
0
BLOCK_RECORD
5
AC
330
1
100
AcDbSymbolTableRecord
100
AcDbBlockTableRecord
2
KyotoKyomaTatamiHalf-2
70
0
280
1
281
0
0
BLOCK_RECORD
5
AF
330
1
100
AcDbSymbolTableRecord
100
AcDbBlockTableRecord
2
KyotoKyomaTatamiHalf-3
70
0
280
1
281
0
0
BLOCK_RECORD
5
B2
330
1
100
AcDbSymbolTableRecord
100
AcDbBlockTableRecord
2
KyotoKyomaTatamiVertical-9
70
0
280
1
281
0
0
BLOCK_RECORD
5
B5
330
1
100
AcDbSymbolTableRecord
100
AcDbBlockTableRecord
2
KyotoKyomaTatami-0
70
0
280
1
281
0
0
BLOCK_RECORD
5
B8
330
1
100
AcDbSymbolTableRecord
100
AcDbBlockTableRecord
2
KyotoKyomaTatami-1
70
0
280
1
281
0
0
BLOCK_RECORD
5
BB
330
1
100
AcDbSymbolTableRecord
100
AcDbBlockTableRecord
2
washer_sentaki
70
0
280
1
281
0
0
BLOCK_RECORD
5
BE
330
1
100
AcDbSymbolTableRecord
100
AcDbBlockTableRecord
2
refridge500_600
70
0
280
1
281
0
0
BLOCK_RECORD
5
C1
330
1
100
AcDbSymbolTableRecord
100
AcDbBlockTableRecord
2
Standard40ft12m_withIntwall-0
70
0
280
1
281
0
0
BLOCK_RECORD
5
C4
330
1
100
AcDbSymbolTableRecord
100
AcDbBlockTableRecord
2
jtub
70
0
280
1
281
0
0
BLOCK_RECORD
5
C7
330
1
100
AcDbSymbolTableRecord
100
AcDbBlockTableRecord
2
refer
70
0
280
1
281
0
0
BLOCK_RECORD
5
CA
330
1
100
AcDbSymbolTableRecord
100
AcDbBlockTableRecord
2
sink
70
0
280
1
281
0
0
BLOCK_RECORD
5
CD
330
1
100
AcDbSymbolTableRecord
100
AcDbBlockTableRecord
2
stove
70
0
280
1
281
0
0
BLOCK_RECORD
5
D0
330
1
100
AcDbSymbolTableRecord
100
AcDbBlockTableRecord
2
6m-container-kitchenUnit-0
70
0
280
1
281
0
0
BLOCK_RECORD
5
D3
330
1
100
AcDbSymbolTableRecord
100
AcDbBlockTableRecord
2
door900
70
0
280
1
281
0
0
BLOCK_RECORD
5
D6
330
1
100
AcDbSymbolTableRecord
100
AcDbBlockTableRecord
2
slider1500
70
0
280
1
281
0
0
BLOCK_RECORD
5
D9
330
1
100
AcDbSymbolTableRecord
100
AcDbBlockTableRecord
2
slider2300
70
0
280
1
281
0
0
ENDTAB
0
ENDSEC
0
SECTION
2
BLOCKS
0
BLOCK
5
20
330
1F
100
AcDbEntity
8
0
100
AcDbBlockBegin
2
*Model_Space
70
0
10
0
20
0
30
0
3
*Model_Space
1

0
ENDBLK
5
21
330
1F
100
AcDbEntity
8
0
100
AcDbBlockEnd
0
BLOCK
5
1C
330
1B
100
AcDbEntity
8
0
100
AcDbBlockBegin
2
*Paper_Space
70
0
10
0
20
0
30
0
3
*Paper_Space
1

0
ENDBLK
5
1D
330
1F
100
AcDbEntity
8
0
100
AcDbBlockEnd
0
BLOCK
5
53
330
52
100
AcDbEntity
8
0
100
AcDbBlockBegin
2
*D1
70
1
10
0
20
0
3
*D1
1

0
LINE
5
DC
100
AcDbEntity
8
dimension
6
CONTINUOUS
62
7
370
0
100
AcDbLine
10
-60.7741735257
20
-1469.77542904
11
-60.7741735257
21
-1713.77542904
0
SOLID
5
DD
100
AcDbEntity
8
dimension
6
CONTINUOUS
62
7
370
0
100
AcDbTrace
10
-60.7741735257
20
-1469.77542904
30
0
11
-60.2746319364
21
-1472.77542904
31
0
12
-61.273715115
22
-1472.77542904
32
0
13
-61.273715115
23
-1472.77542904
33
0
0
SOLID
5
DE
100
AcDbEntity
8
dimension
6
CONTINUOUS
62
7
370
0
100
AcDbTrace
10
-60.7741735257
20
-1713.77542904
30
0
11
-61.273715115
21
-1710.77542904
31
0
12
-60.2746319364
22
-1710.77542904
32
0
13
-60.2746319364
23
-1710.77542904
33
0
0
MTEXT
5
DF
100
AcDbEntity
8
dimension
6
CONTINUOUS
62
7
370
0
100
AcDbMText
10
-70.7741735257
20
-1591.77542904
30
0
40
10
41
22.2222222222
71
5
72
1
1
244
7
standard
210
0
220
0
230
1
50
90
73
2
44
1
0
LINE
5
E0
100
AcDbEntity
8
dimension
6
CONTINUOUS
62
7
370
0
100
AcDbLine
10
-23.6837179272
20
-1469.77542904
11
-65.7741735257
21
-1469.77542904
0
LINE
5
E1
100
AcDbEntity
8
dimension
6
CONTINUOUS
62
7
370
0
100
AcDbLine
10
-23.6837179272
20
-1713.77542904
11
-65.7741735257
21
-1713.77542904
0
ENDBLK
5
54
330
52
100
AcDbEntity
8
0
100
AcDbBlockEnd
0
BLOCK
5
56
330
55
100
AcDbEntity
8
0
100
AcDbBlockBegin
2
*D2
70
1
10
0
20
0
3
*D2
1

0
LINE
5
E2
100
AcDbEntity
8
dimension
6
CONTINUOUS
62
7
370
0
100
AcDbLine
10
-39.7868556865
20
-1479.17542904
11
-39.7868556865
21
-1559.17542904
0
SOLID
5
E3
100
AcDbEntity
8
dimension
6
CONTINUOUS
62
7
370
0
100
AcDbTrace
10
-39.7868556865
20
-1479.17542904
30
0
11
-39.2873140972
21
-1482.17542904
31
0
12
-40.2863972758
22
-1482.17542904
32
0
13
-40.2863972758
23
-1482.17542904
33
0
0
SOLID
5
E4
100
AcDbEntity
8
dimension
6
CONTINUOUS
62
7
370
0
100
AcDbTrace
10
-39.7868556865
20
-1559.17542904
30
0
11
-40.2863972758
21
-1556.17542904
31
0
12
-39.2873140972
22
-1556.17542904
32
0
13
-39.2873140972
23
-1556.17542904
33
0
0
MTEXT
5
E5
100
AcDbEntity
8
dimension
6
CONTINUOUS
62
7
370
0
100
AcDbMText
10
-49.7868556865
20
-1519.17542904
30
0
40
10
41
12.2222222222
71
5
72
1
1
80
7
standard
210
0
220
0
230
1
50
90
73
2
44
1
0
LINE
5
E6
100
AcDbEntity
8
dimension
6
CONTINUOUS
62
7
370
0
100
AcDbLine
10
-14.2837179272
20
-1479.17542904
11
-44.7868556865
21
-1479.17542904
0
LINE
5
E7
100
AcDbEntity
8
dimension
6
CONTINUOUS
62
7
370
0
100
AcDbLine
10
-14.2837179272
20
-1559.17542904
11
-44.7868556865
21
-1559.17542904
0
ENDBLK
5
57
330
55
100
AcDbEntity
8
0
100
AcDbBlockEnd
0
BLOCK
5
59
330
58
100
AcDbEntity
8
0
100
AcDbBlockBegin
2
*D3
70
1
10
0
20
0
3
*D3
1

0
LINE
5
E8
100
AcDbEntity
8
dimension
6
CONTINUOUS
62
7
370
0
100
AcDbLine
10
-22.6837179272
20
-1379.64102669
11
1197.31628208
21
-1379.64102669
0
SOLID
5
E9
100
AcDbEntity
8
dimension
6
CONTINUOUS
62
7
370
0
100
AcDbTrace
10
-22.6837179272
20
-1379.64102669
30
0
11
-19.6837179272
21
-1379.1414851
31
0
12
-19.6837179272
22
-1380.14056828
32
0
13
-19.6837179272
23
-1380.14056828
33
0
0
SOLID
5
EA
100
AcDbEntity
8
dimension
6
CONTINUOUS
62
7
370
0
100
AcDbTrace
10
1197.31628208
20
-1379.64102669
30
0
11
1194.31628208
21
-1380.14056828
31
0
12
1194.31628208
22
-1379.1414851
32
0
13
1194.31628208
23
-1379.1414851
33
0
0
MTEXT
5
EB
100
AcDbEntity
8
dimension
6
CONTINUOUS
62
7
370
0
100
AcDbMText
10
587.316282074
20
-1369.64102669
30
0
40
10
41
25.5555555556
71
5
72
1
1
1220
7
standard
210
0
220
0
230
1
50
0
73
2
44
1
0
LINE
5
EC
100
AcDbEntity
8
dimension
6
CONTINUOUS
62
7
370
0
100
AcDbLine
10
-22.6837179272
20
-1468.77542904
11
-22.6837179272
21
-1374.64102669
0
LINE
5
ED
100
AcDbEntity
8
dimension
6
CONTINUOUS
62
7
370
0
100
AcDbLine
10
1197.31628208
20
-1468.77542904
11
1197.31628208
21
-1374.64102669
0
ENDBLK
5
5A
330
58
100
AcDbEntity
8
0
100
AcDbBlockEnd
0
BLOCK
5
5C
330
5B
100
AcDbEntity
8
0
100
AcDbBlockBegin
2
*D4
70
1
10
0
20
0
3
*D4
1

0
LINE
5
EE
100
AcDbEntity
8
dimension
6
CONTINUOUS
62
7
370
0
100
AcDbLine
10
-22.6837179272
20
-1403.21393628
11
-13.2837179272
21
-1403.21393628
0
SOLID
5
EF
100
AcDbEntity
8
dimension
6
CONTINUOUS
62
7
370
0
100
AcDbTrace
10
-22.6837179272
20
-1403.21393628
30
0
11
-19.6837179272
21
-1402.71439469
31
0
12
-19.6837179272
22
-1403.71347787
32
0
13
-19.6837179272
23
-1403.71347787
33
0
0
SOLID
5
F0
100
AcDbEntity
8
dimension
6
CONTINUOUS
62
7
370
0
100
AcDbTrace
10
-13.2837179272
20
-1403.21393628
30
0
11
-16.2837179272
21
-1403.71347787
31
0
12
-16.2837179272
22
-1402.71439469
32
0
13
-16.2837179272
23
-1402.71439469
33
0
0
MTEXT
5
F1
100
AcDbEntity
8
dimension
6
CONTINUOUS
62
7
370
0
100
AcDbMText
10
0.0496154061336
20
-1393.21393628
30
0
40
10
41
16.6666666667
71
5
72
1
1
9.4
7
standard
210
0
220
0
230
1
50
0
73
2
44
1
0
LINE
5
F2
100
AcDbEntity
8
dimension
6
CONTINUOUS
62
7
370
0
100
AcDbLine
10
-22.6837179272
20
-1468.77542904
11
-22.6837179272
21
-1398.21393628
0
LINE
5
F3
100
AcDbEntity
8
dimension
6
CONTINUOUS
62
7
370
0
100
AcDbLine
10
-13.2837179272
20
-1468.77542904
11
-13.2837179272
21
-1398.21393628
0
ENDBLK
5
5D
330
5B
100
AcDbEntity
8
0
100
AcDbBlockEnd
0
BLOCK
5
5F
330
5E
100
AcDbEntity
8
0
100
AcDbBlockBegin
2
*D14
70
1
10
0
20
0
3
*D14
1

0
LINE
5
F4
100
AcDbEntity
8
dimension
6
CONTINUOUS
62
7
370
0
100
AcDbLine
10
1155.31628208
20
-1430.59093306
11
1005.31628208
21
-1430.59093306
0
SOLID
5
F5
100
AcDbEntity
8
dimension
6
CONTINUOUS
62
7
370
0
100
AcDbTrace
10
1155.31628208
20
-1430.59093306
30
0
11
1152.31628208
21
-1431.09047465
31
0
12
1152.31628208
22
-1430.09139147
32
0
13
1152.31628208
23
-1430.09139147
33
0
0
SOLID
5
F6
100
AcDbEntity
8
dimension
6
CONTINUOUS
62
7
370
0
100
AcDbTrace
10
1005.31628208
20
-1430.59093306
30
0
11
1008.31628208
21
-1430.09139147
31
0
12
1008.31628208
22
-1431.09047465
32
0
13
1008.31628208
23
-1431.09047465
33
0
0
MTEXT
5
F7
100
AcDbEntity
8
dimension
6
CONTINUOUS
62
7
370
0
100
AcDbMText
10
1080.31628208
20
-1420.59093306
30
0
40
10
41
17.7777777778
71
5
72
1
1
150
7
standard
210
0
220
0
230
1
50
360
73
2
44
1
0
LINE
5
F8
100
AcDbEntity
8
dimension
6
CONTINUOUS
62
7
370
0
100
AcDbLine
10
1155.31628208
20
-1468.77542904
11
1155.31628208
21
-1425.59093306
0
LINE
5
F9
100
AcDbEntity
8
dimension
6
CONTINUOUS
62
7
370
0
100
AcDbLine
10
1005.31628208
20
-1468.77542904
11
1005.31628208
21
-1425.59093306
0
ENDBLK
5
60
330
5E
100
AcDbEntity
8
0
100
AcDbBlockEnd
0
BLOCK
5
62
330
61
100
AcDbEntity
8
0
100
AcDbBlockBegin
2
*D9
70
1
10
0
20
0
3
*D9
1

0
LINE
5
FA
100
AcDbEntity
8
dimension
6
CONTINUOUS
62
7
370
0
100
AcDbLine
10
815.716282073
20
-1400.97143787
11
1197.31628208
21
-1400.97143787
0
SOLID
5
FB
100
AcDbEntity
8
dimension
6
CONTINUOUS
62
7
370
0
100
AcDbTrace
10
815.716282073
20
-1400.97143787
30
0
11
818.716282073
21
-1400.47189628
31
0
12
818.716282073
22
-1401.47097946
32
0
13
818.716282073
23
-1401.47097946
33
0
0
SOLID
5
FC
100
AcDbEntity
8
dimension
6
CONTINUOUS
62
7
370
0
100
AcDbTrace
10
1197.31628208
20
-1400.97143787
30
0
11
1194.31628208
21
-1401.47097946
31
0
12
1194.31628208
22
-1400.47189628
32
0
13
1194.31628208
23
-1400.47189628
33
0
0
MTEXT
5
FD
100
AcDbEntity
8
dimension
6
CONTINUOUS
62
7
370
0
100
AcDbMText
10
1006.51628207
20
-1390.97143787
30
0
40
10
41
28.8888888889
71
5
72
1
1
381.6
7
standard
210
0
220
0
230
1
50
0
73
2
44
1
0
LINE
5
FE
100
AcDbEntity
8
dimension
6
CONTINUOUS
62
7
370
0
100
AcDbLine
10
815.716282073
20
-1468.77542904
11
815.716282073
21
-1395.97143787
0
LINE
5
FF
100
AcDbEntity
8
dimension
6
CONTINUOUS
62
7
370
0
100
AcDbLine
10
1197.31628208
20
-1468.77542904
11
1197.31628208
21
-1395.97143787
0
ENDBLK
5
63
330
61
100
AcDbEntity
8
0
100
AcDbBlockEnd
0
BLOCK
5
65
330
64
100
AcDbEntity
8
0
100
AcDbBlockBegin
2
*D13
70
1
10
0
20
0
3
*D13
1

0
LINE
5
100
100
AcDbEntity
8
dimension
6
CONTINUOUS
62
7
370
0
100
AcDbLine
10
172.268786077
20
-1552.67542904
11
172.268786077
21
-1481.67542904
0
SOLID
5
101
100
AcDbEntity
8
dimension
6
CONTINUOUS
62
7
370
0
100
AcDbTrace
10
172.268786077
20
-1552.67542904
30
0
11
171.769244488
21
-1549.67542904
31
0
12
172.768327667
22
-1549.67542904
32
0
13
172.768327667
23
-1549.67542904
33
0
0
SOLID
5
102
100
AcDbEntity
8
dimension
6
CONTINUOUS
62
7
370
0
100
AcDbTrace
10
172.268786077
20
-1481.67542904
30
0
11
172.768327667
21
-1484.67542904
31
0
12
171.769244488
22
-1484.67542904
32
0
13
171.769244488
23
-1484.67542904
33
0
0
MTEXT
5
103
100
AcDbEntity
8
dimension
6
CONTINUOUS
62
7
370
0
100
AcDbMText
10
162.268786077
20
-1517.17542904
30
0
40
10
41
10
71
5
72
1
1
71
7
standard
210
0
220
0
230
1
50
90
73
2
44
1
0
LINE
5
104
100
AcDbEntity
8
dimension
6
CONTINUOUS
62
7
370
0
100
AcDbLine
10
162.716282073
20
-1552.67542904
11
177.268786077
21
-1552.67542904
0
LINE
5
105
100
AcDbEntity
8
dimension
6
CONTINUOUS
62
7
370
0
100
AcDbLine
10
162.540891514
20
-1481.67542904
11
177.268786077
21
-1481.67542904
0
ENDBLK
5
66
330
64
100
AcDbEntity
8
0
100
AcDbBlockEnd
0
BLOCK
5
68
330
67
100
AcDbEntity
8
0
100
AcDbBlockBegin
2
*D7
70
1
10
0
20
0
3
*D7
1

0
LINE
5
106
100
AcDbEntity
8
dimension
6
CONTINUOUS
62
7
370
0
100
AcDbLine
10
290.716282073
20
-1403.64753114
11
730.716282073
21
-1403.64753114
0
SOLID
5
107
100
AcDbEntity
8
dimension
6
CONTINUOUS
62
7
370
0
100
AcDbTrace
10
290.716282073
20
-1403.64753114
30
0
11
293.716282073
21
-1403.14798955
31
0
12
293.716282073
22
-1404.14707273
32
0
13
293.716282073
23
-1404.14707273
33
0
0
SOLID
5
108
100
AcDbEntity
8
dimension
6
CONTINUOUS
62
7
370
0
100
AcDbTrace
10
730.716282073
20
-1403.64753114
30
0
11
727.716282073
21
-1404.14707273
31
0
12
727.716282073
22
-1403.14798955
32
0
13
727.716282073
23
-1403.14798955
33
0
0
MTEXT
5
109
100
AcDbEntity
8
dimension
6
CONTINUOUS
62
7
370
0
100
AcDbMText
10
510.716282073
20
-1393.64753114
30
0
40
10
41
22.2222222222
71
5
72
1
1
440
7
standard
210
0
220
0
230
1
50
0
73
2
44
1
0
LINE
5
10A
100
AcDbEntity
8
dimension
6
CONTINUOUS
62
7
370
0
100
AcDbLine
10
290.716282073
20
-1468.77542904
11
290.716282073
21
-1398.64753114
0
LINE
5
10B
100
AcDbEntity
8
dimension
6
CONTINUOUS
62
7
370
0
100
AcDbLine
10
730.716282073
20
-1468.77542904
11
730.716282073
21
-1398.64753114
0
ENDBLK
5
69
330
67
100
AcDbEntity
8
0
100
AcDbBlockEnd
0
BLOCK
5
6B
330
6A
100
AcDbEntity
8
0
100
AcDbBlockBegin
2
*D10
70
1
10
0
20
0
3
*D10
1

0
LINE
5
10C
100
AcDbEntity
8
dimension
6
CONTINUOUS
62
7
370
0
100
AcDbLine
10
290.716282073
20
-1430.74720985
11
435.716282073
21
-1430.74720985
0
SOLID
5
10D
100
AcDbEntity
8
dimension
6
CONTINUOUS
62
7
370
0
100
AcDbTrace
10
290.716282073
20
-1430.74720985
30
0
11
293.716282073
21
-1430.24766826
31
0
12
293.716282073
22
-1431.24675144
32
0
13
293.716282073
23
-1431.24675144
33
0
0
SOLID
5
10E
100
AcDbEntity
8
dimension
6
CONTINUOUS
62
7
370
0
100
AcDbTrace
10
435.716282073
20
-1430.74720985
30
0
11
432.716282073
21
-1431.24675144
31
0
12
432.716282073
22
-1430.24766826
32
0
13
432.716282073
23
-1430.24766826
33
0
0
MTEXT
5
10F
100
AcDbEntity
8
dimension
6
CONTINUOUS
62
7
370
0
100
AcDbMText
10
363.216282073
20
-1420.74720985
30
0
40
10
41
18.8888888889
71
5
72
1
1
145
7
standard
210
0
220
0
230
1
50
0
73
2
44
1
0
LINE
5
110
100
AcDbEntity
8
dimension
6
CONTINUOUS
62
7
370
0
100
AcDbLine
10
290.716282073
20
-1468.77542904
11
290.716282073
21
-1425.74720985
0
LINE
5
111
100
AcDbEntity
8
dimension
6
CONTINUOUS
62
7
370
0
100
AcDbLine
10
435.716282073
20
-1468.77542904
11
435.716282073
21
-1425.74720985
0
ENDBLK
5
6C
330
6A
100
AcDbEntity
8
0
100
AcDbBlockEnd
0
BLOCK
5
6E
330
6D
100
AcDbEntity
8
0
100
AcDbBlockBegin
2
*D11
70
1
10
0
20
0
3
*D11
1

0
LINE
5
112
100
AcDbEntity
8
dimension
6
CONTINUOUS
62
7
370
0
100
AcDbLine
10
435.716282073
20
-1430.53041242
11
585.716282073
21
-1430.53041242
0
SOLID
5
113
100
AcDbEntity
8
dimension
6
CONTINUOUS
62
7
370
0
100
AcDbTrace
10
435.716282073
20
-1430.53041242
30
0
11
438.716282073
21
-1430.03087083
31
0
12
438.716282073
22
-1431.02995401
32
0
13
438.716282073
23
-1431.02995401
33
0
0
SOLID
5
114
100
AcDbEntity
8
dimension
6
CONTINUOUS
62
7
370
0
100
AcDbTrace
10
585.716282073
20
-1430.53041242
30
0
11
582.716282073
21
-1431.02995401
31
0
12
582.716282073
22
-1430.03087083
32
0
13
582.716282073
23
-1430.03087083
33
0
0
MTEXT
5
115
100
AcDbEntity
8
dimension
6
CONTINUOUS
62
7
370
0
100
AcDbMText
10
510.716282073
20
-1420.53041242
30
0
40
10
41
17.7777777778
71
5
72
1
1
150
7
standard
210
0
220
0
230
1
50
0
73
2
44
1
0
LINE
5
116
100
AcDbEntity
8
dimension
6
CONTINUOUS
62
7
370
0
100
AcDbLine
10
435.716282073
20
-1468.77542904
11
435.716282073
21
-1425.53041242
0
LINE
5
117
100
AcDbEntity
8
dimension
6
CONTINUOUS
62
7
370
0
100
AcDbLine
10
585.716282073
20
-1468.77542904
11
585.716282073
21
-1425.53041242
0
ENDBLK
5
6F
330
6D
100
AcDbEntity
8
0
100
AcDbBlockEnd
0
BLOCK
5
71
330
70
100
AcDbEntity
8
0
100
AcDbBlockBegin
2
*D5
70
1
10
0
20
0
3
*D5
1

0
LINE
5
118
100
AcDbEntity
8
dimension
6
CONTINUOUS
62
7
370
0
100
AcDbLine
10
-13.2837179272
20
-1403.20353
11
156.716282073
21
-1403.20353
0
SOLID
5
119
100
AcDbEntity
8
dimension
6
CONTINUOUS
62
7
370
0
100
AcDbTrace
10
-13.2837179272
20
-1403.20353
30
0
11
-10.2837179272
21
-1402.70398841
31
0
12
-10.2837179272
22
-1403.70307159
32
0
13
-10.2837179272
23
-1403.70307159
33
0
0
SOLID
5
11A
100
AcDbEntity
8
dimension
6
CONTINUOUS
62
7
370
0
100
AcDbTrace
10
156.716282073
20
-1403.20353
30
0
11
153.716282073
21
-1403.70307159
31
0
12
153.716282073
22
-1402.70398841
32
0
13
153.716282073
23
-1402.70398841
33
0
0
MTEXT
5
11B
100
AcDbEntity
8
dimension
6
CONTINUOUS
62
7
370
0
100
AcDbMText
10
71.7162820727
20
-1393.20353
30
0
40
10
41
17.7777777778
71
5
72
1
1
170
7
standard
210
0
220
0
230
1
50
0
73
2
44
1
0
LINE
5
11C
100
AcDbEntity
8
dimension
6
CONTINUOUS
62
7
370
0
100
AcDbLine
10
-13.2837179272
20
-1468.77542904
11
-13.2837179272
21
-1398.20353
0
LINE
5
11D
100
AcDbEntity
8
dimension
6
CONTINUOUS
62
7
370
0
100
AcDbLine
10
156.716282073
20
-1468.77542904
11
156.716282073
21
-1398.20353
0
ENDBLK
5
72
330
70
100
AcDbEntity
8
0
100
AcDbBlockEnd
0
BLOCK
5
74
330
73
100
AcDbEntity
8
0
100
AcDbBlockBegin
2
*D6
70
1
10
0
20
0
3
*D6
1

0
LINE
5
11E
100
AcDbEntity
8
dimension
6
CONTINUOUS
62
7
370
0
100
AcDbLine
10
161.716282073
20
-1403.64753114
11
285.716282073
21
-1403.64753114
0
SOLID
5
11F
100
AcDbEntity
8
dimension
6
CONTINUOUS
62
7
370
0
100
AcDbTrace
10
161.716282073
20
-1403.64753114
30
0
11
164.716282073
21
-1403.14798955
31
0
12
164.716282073
22
-1404.14707273
32
0
13
164.716282073
23
-1404.14707273
33
0
0
SOLID
5
120
100
AcDbEntity
8
dimension
6
CONTINUOUS
62
7
370
0
100
AcDbTrace
10
285.716282073
20
-1403.64753114
30
0
11
282.716282073
21
-1404.14707273
31
0
12
282.716282073
22
-1403.14798955
32
0
13
282.716282073
23
-1403.14798955
33
0
0
MTEXT
5
121
100
AcDbEntity
8
dimension
6
CONTINUOUS
62
7
370
0
100
AcDbMText
10
223.716282073
20
-1393.64753114
30
0
40
10
41
18.8888888889
71
5
72
1
1
124
7
standard
210
0
220
0
230
1
50
0
73
2
44
1
0
LINE
5
122
100
AcDbEntity
8
dimension
6
CONTINUOUS
62
7
370
0
100
AcDbLine
10
161.716282073
20
-1468.77542904
11
161.716282073
21
-1398.64753114
0
LINE
5
123
100
AcDbEntity
8
dimension
6
CONTINUOUS
62
7
370
0
100
AcDbLine
10
285.716282073
20
-1468.77542904
11
285.716282073
21
-1398.64753114
0
ENDBLK
5
75
330
73
100
AcDbEntity
8
0
100
AcDbBlockEnd
0
BLOCK
5
77
330
76
100
AcDbEntity
8
0
100
AcDbBlockBegin
2
*D8
70
1
10
0
20
0
3
*D8
1

0
LINE
5
124
100
AcDbEntity
8
dimension
6
CONTINUOUS
62
7
370
0
100
AcDbLine
10
730.716282073
20
-1403.64753114
11
810.716282073
21
-1403.64753114
0
SOLID
5
125
100
AcDbEntity
8
dimension
6
CONTINUOUS
62
7
370
0
100
AcDbTrace
10
730.716282073
20
-1403.64753114
30
0
11
733.716282073
21
-1403.14798955
31
0
12
733.716282073
22
-1404.14707273
32
0
13
733.716282073
23
-1404.14707273
33
0
0
SOLID
5
126
100
AcDbEntity
8
dimension
6
CONTINUOUS
62
7
370
0
100
AcDbTrace
10
810.716282073
20
-1403.64753114
30
0
11
807.716282073
21
-1404.14707273
31
0
12
807.716282073
22
-1403.14798955
32
0
13
807.716282073
23
-1403.14798955
33
0
0
MTEXT
5
127
100
AcDbEntity
8
dimension
6
CONTINUOUS
62
7
370
0
100
AcDbMText
10
770.716282073
20
-1393.64753114
30
0
40
10
41
12.2222222222
71
5
72
1
1
80
7
standard
210
0
220
0
230
1
50
0
73
2
44
1
0
LINE
5
128
100
AcDbEntity
8
dimension
6
CONTINUOUS
62
7
370
0
100
AcDbLine
10
730.716282073
20
-1468.77542904
11
730.716282073
21
-1398.64753114
0
LINE
5
129
100
AcDbEntity
8
dimension
6
CONTINUOUS
62
7
370
0
100
AcDbLine
10
810.716282073
20
-1468.77542904
11
810.716282073
21
-1398.64753114
0
ENDBLK
5
78
330
76
100
AcDbEntity
8
0
100
AcDbBlockEnd
0
BLOCK
5
7A
330
79
100
AcDbEntity
8
0
100
AcDbBlockBegin
2
*D12
70
1
10
0
20
0
3
*D12
1

0
LINE
5
12A
100
AcDbEntity
8
dimension
6
CONTINUOUS
62
7
370
0
100
AcDbLine
10
1197.31628208
20
-1430.48425034
11
1155.31628208
21
-1430.48425034
0
SOLID
5
12B
100
AcDbEntity
8
dimension
6
CONTINUOUS
62
7
370
0
100
AcDbTrace
10
1197.31628208
20
-1430.48425034
30
0
11
1194.31628208
21
-1430.98379193
31
0
12
1194.31628208
22
-1429.98470875
32
0
13
1194.31628208
23
-1429.98470875
33
0
0
SOLID
5
12C
100
AcDbEntity
8
dimension
6
CONTINUOUS
62
7
370
0
100
AcDbTrace
10
1155.31628208
20
-1430.48425034
30
0
11
1158.31628208
21
-1429.98470875
31
0
12
1158.31628208
22
-1430.98379193
32
0
13
1158.31628208
23
-1430.98379193
33
0
0
MTEXT
5
12D
100
AcDbEntity
8
dimension
6
CONTINUOUS
62
7
370
0
100
AcDbMText
10
1176.31628208
20
-1420.48425034
30
0
40
10
41
13.3333333333
71
5
72
1
1
42
7
standard
210
0
220
0
230
1
50
360
73
2
44
1
0
LINE
5
12E
100
AcDbEntity
8
dimension
6
CONTINUOUS
62
7
370
0
100
AcDbLine
10
1197.31628208
20
-1468.77542904
11
1197.31628208
21
-1425.48425034
0
LINE
5
12F
100
AcDbEntity
8
dimension
6
CONTINUOUS
62
7
370
0
100
AcDbLine
10
1155.31628208
20
-1468.77542904
11
1155.31628208
21
-1425.48425034
0
ENDBLK
5
7B
330
79
100
AcDbEntity
8
0
100
AcDbBlockEnd
0
BLOCK
5
7D
330
7C
100
AcDbEntity
8
0
100
AcDbBlockBegin
2
outlet110HorUp-0
70
0
10
0
20
0
3
outlet110HorUp-0
1

0
CIRCLE
5
130
100
AcDbEntity
8
0
6
ByLayer
62
256
370
-1
100
AcDbCircle
10
19.2383306793
20
93.1569229908
40
50
0
LINE
5
131
100
AcDbEntity
8
0
6
ByLayer
62
256
370
-1
100
AcDbLine
10
36.2896076697
20
0
11
36.2896076697
21
161.186024643
0
LINE
5
132
100
AcDbEntity
8
0
6
ByLayer
62
256
370
-1
100
AcDbLine
10
0
20
0
11
0
21
161.186024643
0
ENDBLK
5
7E
330
7C
100
AcDbEntity
8
0
100
AcDbBlockEnd
0
BLOCK
5
80
330
7F
100
AcDbEntity
8
0
100
AcDbBlockBegin
2
door700
70
0
10
0
20
0
3
door700
1

0
LINE
5
133
100
AcDbEntity
8
0
6
ByLayer
62
256
370
-1
100
AcDbLine
10
0
20
0
11
-614.878036687
21
-355
0
ARC
5
134
100
AcDbEntity
8
0
6
ByLayer
62
256
370
-1
100
AcDbCircle
10
0
20
0
40
710
100
AcDbArc
50
210
51
270
0
LINE
5
135
100
AcDbEntity
8
0
6
ByLayer
62
256
370
-1
100
AcDbLine
10
25
20
-43.3012701892
11
-589.878036687
21
-398.301270189
0
LINE
5
136
100
AcDbEntity
8
0
6
ByLayer
62
256
370
-1
100
AcDbLine
10
0
20
0
11
25
21
-43.3012701892
0
ENDBLK
5
81
330
7F
100
AcDbEntity
8
0
100
AcDbBlockEnd
0
BLOCK
5
83
330
82
100
AcDbEntity
8
0
100
AcDbBlockBegin
2
WC
70
0
10
0
20
0
3
WC
1

0
LINE
5
137
100
AcDbEntity
8
0
6
ByLayer
62
256
370
-1
100
AcDbLine
10
0
20
0
11
200
21
0
0
LINE
5
138
100
AcDbEntity
8
0
6
ByLayer
62
256
370
-1
100
AcDbLine
10
0
20
0
11
0
21
470
0
LINE
5
139
100
AcDbEntity
8
0
6
ByLayer
62
256
370
-1
100
AcDbLine
10
200
20
0
11
200
21
470
0
LINE
5
13A
100
AcDbEntity
8
0
6
ByLayer
62
256
370
-1
100
AcDbLine
10
0
20
470
11
200
21
470
0
ELLIPSE
5
13B
100
AcDbEntity
8
0
6
ByLayer
62
256
370
-1
100
AcDbEllipse
10
483.839834606
20
228.898383818
30
0
11
238.828093948
21
-6.63411372079
31
0
40
0.61565150347
41
0
42
6.28318530718
0
ENDBLK
5
84
330
82
100
AcDbEntity
8
0
100
AcDbBlockEnd
0
BLOCK
5
86
330
85
100
AcDbEntity
8
0
100
AcDbBlockBegin
2
tub_ver-0
70
0
10
0
20
0
3
tub_ver-0
1

0
ARC
5
13C
100
AcDbEntity
8
0
6
ByLayer
62
256
370
-1
100
AcDbCircle
10
50
20
0
40
50
100
AcDbArc
50
90
51
180
0
LINE
5
13D
100
AcDbEntity
8
0
6
ByLayer
62
256
370
-1
100
AcDbLine
10
50
20
50
11
530
21
50
0
ARC
5
13E
100
AcDbEntity
8
0
6
ByLayer
62
256
370
-1
100
AcDbCircle
10
530
20
0
40
50
100
AcDbArc
50
0
51
90
0
LINE
5
13F
100
AcDbEntity
8
0
6
ByLayer
62
256
370
-1
100
AcDbLine
10
580
20
-870
11
580
21
0
0
ARC
5
140
100
AcDbEntity
8
0
6
ByLayer
62
256
370
-1
100
AcDbCircle
10
530
20
-870
40
50
100
AcDbArc
50
270
51
0
0
LINE
5
141
100
AcDbEntity
8
0
6
ByLayer
62
256
370
-1
100
AcDbLine
10
50
20
-920
11
530
21
-920
0
LINE
5
142
100
AcDbEntity
8
0
6
ByLayer
62
256
370
-1
100
AcDbLine
10
-2.84217094304e-13
20
-870
11
0
21
0
0
ARC
5
143
100
AcDbEntity
8
0
6
ByLayer
62
256
370
-1
100
AcDbCircle
10
50
20
-870
40
50
100
AcDbArc
50
180
51
270
0
ENDBLK
5
87
330
85
100
AcDbEntity
8
0
100
AcDbBlockEnd
0
BLOCK
5
89
330
88
100
AcDbEntity
8
0
100
AcDbBlockBegin
2
door800
70
0
10
0
20
0
3
door800
1

0
MTEXT
5
144
100
AcDbEntity
8
doors
6
ByLayer
62
256
370
-1
100
AcDbMText
10
-401.960784314
20
-358.543417367
30
0
40
60
41
285
71
1
72
1
1
800 mm
7

210
0
220
0
230
1
50
50
73
2
44
1
0
LINE
5
145
100
AcDbEntity
8
doors
6
ByLayer
62
256
370
-1
100
AcDbLine
10
0
20
0
11
-514.230087749
21
-612.835554495
0
ARC
5
146
100
AcDbEntity
8
doors
6
ByLayer
62
256
370
-1
100
AcDbCircle
10
0
20
0
40
800
100
AcDbArc
50
230
51
270
0
LINE
5
147
100
AcDbEntity
8
doors
6
ByLayer
62
256
370
-1
100
AcDbLine
10
38.3022221559
20
-32.1393804843
11
-475.927865593
21
-644.97493498
0
LINE
5
148
100
AcDbEntity
8
doors
6
ByLayer
62
256
370
-1
100
AcDbLine
10
0
20
0
11
38.3022221559
21
-32.1393804843
0
ENDBLK
5
8A
330
88
100
AcDbEntity
8
0
100
AcDbBlockEnd
0
BLOCK
5
8C
330
8B
100
AcDbEntity
8
0
100
AcDbBlockBegin
2
KyotoKyomaTatamiVertical-0
70
0
10
0
20
0
3
KyotoKyomaTatamiVertical-0
1

0
LINE
5
149
100
AcDbEntity
8
0
6
ByLayer
62
256
370
-1
100
AcDbLine
10
0
20
0
11
-955
21
0
0
LINE
5
14A
100
AcDbEntity
8
0
6
ByLayer
62
256
370
-1
100
AcDbLine
10
0
20
1910
11
-955
21
1910
0
LINE
5
14B
100
AcDbEntity
8
0
6
ByLayer
62
256
370
-1
100
AcDbLine
10
-955
20
0
11
-955
21
1910
0
LINE
5
14C
100
AcDbEntity
8
0
6
ByLayer
62
256
370
-1
100
AcDbLine
10
0
20
0
11
0
21
1910
0
LINE
5
14D
100
AcDbEntity
8
0
6
ByLayer
62
256
370
-1
100
AcDbLine
10
-930
20
0
11
-930
21
1910
0
LINE
5
14E
100
AcDbEntity
8
0
6
ByLayer
62
256
370
-1
100
AcDbLine
10
0
20
1885
11
-955
21
1885
0
LINE
5
14F
100
AcDbEntity
8
0
6
ByLayer
62
256
370
-1
100
AcDbLine
10
0
20
25
11
-955
21
25
0
LINE
5
150
100
AcDbEntity
8
0
6
ByLayer
62
256
370
-1
100
AcDbLine
10
-25
20
0
11
-25
21
1910
0
LINE
5
151
100
AcDbEntity
8
0
6
ByLayer
62
256
370
-1
100
AcDbLine
10
0
20
955
11
-25
21
955
0
LINE
5
152
100
AcDbEntity
8
0
6
ByLayer
62
256
370
-1
100
AcDbLine
10
-930
20
955
11
-955
21
955
0
ENDBLK
5
8D
330
8B
100
AcDbEntity
8
0
100
AcDbBlockEnd
0
BLOCK
5
8F
330
8E
100
AcDbEntity
8
0
100
AcDbBlockBegin
2
KyotoKyomaTatamiVertical-1
70
0
10
0
20
0
3
KyotoKyomaTatamiVertical-1
1

0
LINE
5
153
100
AcDbEntity
8
0
6
ByLayer
62
256
370
-1
100
AcDbLine
10
0
20
0
11
-955
21
0
0
LINE
5
154
100
AcDbEntity
8
0
6
ByLayer
62
256
370
-1
100
AcDbLine
10
0
20
1910
11
-955
21
1910
0
LINE
5
155
100
AcDbEntity
8
0
6
ByLayer
62
256
370
-1
100
AcDbLine
10
-955
20
0
11
-955
21
1910
0
LINE
5
156
100
AcDbEntity
8
0
6
ByLayer
62
256
370
-1
100
AcDbLine
10
0
20
0
11
0
21
1910
0
LINE
5
157
100
AcDbEntity
8
0
6
ByLayer
62
256
370
-1
100
AcDbLine
10
-930
20
0
11
-930
21
1910
0
LINE
5
158
100
AcDbEntity
8
0
6
ByLayer
62
256
370
-1
100
AcDbLine
10
0
20
1885
11
-955
21
1885
0
LINE
5
159
100
AcDbEntity
8
0
6
ByLayer
62
256
370
-1
100
AcDbLine
10
0
20
25
11
-955
21
25
0
LINE
5
15A
100
AcDbEntity
8
0
6
ByLayer
62
256
370
-1
100
AcDbLine
10
-25
20
0
11
-25
21
1910
0
LINE
5
15B
100
AcDbEntity
8
0
6
ByLayer
62
256
370
-1
100
AcDbLine
10
0
20
955
11
-25
21
955
0
LINE
5
15C
100
AcDbEntity
8
0
6
ByLayer
62
256
370
-1
100
AcDbLine
10
-930
20
955
11
-955
21
955
0
ENDBLK
5
90
330
8E
100
AcDbEntity
8
0
100
AcDbBlockEnd
0
BLOCK
5
92
330
91
100
AcDbEntity
8
0
100
AcDbBlockBegin
2
KyotoKyomaTatamiVertical-2
70
0
10
0
20
0
3
KyotoKyomaTatamiVertical-2
1

0
LINE
5
15D
100
AcDbEntity
8
0
6
ByLayer
62
256
370
-1
100
AcDbLine
10
0
20
0
11
-955
21
0
0
LINE
5
15E
100
AcDbEntity
8
0
6
ByLayer
62
256
370
-1
100
AcDbLine
10
0
20
1910
11
-955
21
1910
0
LINE
5
15F
100
AcDbEntity
8
0
6
ByLayer
62
256
370
-1
100
AcDbLine
10
-955
20
0
11
-955
21
1910
0
LINE
5
160
100
AcDbEntity
8
0
6
ByLayer
62
256
370
-1
100
AcDbLine
10
0
20
0
11
0
21
1910
0
LINE
5
161
100
AcDbEntity
8
0
6
ByLayer
62
256
370
-1
100
AcDbLine
10
-930
20
0
11
-930
21
1910
0
LINE
5
162
100
AcDbEntity
8
0
6
ByLayer
62
256
370
-1
100
AcDbLine
10
0
20
1885
11
-955
21
1885
0
LINE
5
163
100
AcDbEntity
8
0
6
ByLayer
62
256
370
-1
100
AcDbLine
10
0
20
25
11
-955
21
25
0
LINE
5
164
100
AcDbEntity
8
0
6
ByLayer
62
256
370
-1
100
AcDbLine
10
-25
20
0
11
-25
21
1910
0
LINE
5
165
100
AcDbEntity
8
0
6
ByLayer
62
256
370
-1
100
AcDbLine
10
0
20
955
11
-25
21
955
0
LINE
5
166
100
AcDbEntity
8
0
6
ByLayer
62
256
370
-1
100
AcDbLine
10
-930
20
955
11
-955
21
955
0
ENDBLK
5
93
330
91
100
AcDbEntity
8
0
100
AcDbBlockEnd
0
BLOCK
5
95
330
94
100
AcDbEntity
8
0
100
AcDbBlockBegin
2
KyotoKyomaTatamiVertical-3
70
0
10
0
20
0
3
KyotoKyomaTatamiVertical-3
1

0
LINE
5
167
100
AcDbEntity
8
0
6
ByLayer
62
256
370
-1
100
AcDbLine
10
0
20
0
11
-955
21
0
0
LINE
5
168
100
AcDbEntity
8
0
6
ByLayer
62
256
370
-1
100
AcDbLine
10
0
20
1910
11
-955
21
1910
0
LINE
5
169
100
AcDbEntity
8
0
6
ByLayer
62
256
370
-1
100
AcDbLine
10
-955
20
0
11
-955
21
1910
0
LINE
5
16A
100
AcDbEntity
8
0
6
ByLayer
62
256
370
-1
100
AcDbLine
10
0
20
0
11
0
21
1910
0
LINE
5
16B
100
AcDbEntity
8
0
6
ByLayer
62
256
370
-1
100
AcDbLine
10
-930
20
0
11
-930
21
1910
0
LINE
5
16C
100
AcDbEntity
8
0
6
ByLayer
62
256
370
-1
100
AcDbLine
10
0
20
1885
11
-955
21
1885
0
LINE
5
16D
100
AcDbEntity
8
0
6
ByLayer
62
256
370
-1
100
AcDbLine
10
0
20
25
11
-955
21
25
0
LINE
5
16E
100
AcDbEntity
8
0
6
ByLayer
62
256
370
-1
100
AcDbLine
10
-25
20
0
11
-25
21
1910
0
LINE
5
16F
100
AcDbEntity
8
0
6
ByLayer
62
256
370
-1
100
AcDbLine
10
0
20
955
11
-25
21
955
0
LINE
5
170
100
AcDbEntity
8
0
6
ByLayer
62
256
370
-1
100
AcDbLine
10
-930
20
955
11
-955
21
955
0
ENDBLK
5
96
330
94
100
AcDbEntity
8
0
100
AcDbBlockEnd
0
BLOCK
5
98
330
97
100
AcDbEntity
8
0
100
AcDbBlockBegin
2
KyotoKyomaTatamiVertical-4
70
0
10
0
20
0
3
KyotoKyomaTatamiVertical-4
1

0
LINE
5
171
100
AcDbEntity
8
0
6
ByLayer
62
256
370
-1
100
AcDbLine
10
0
20
0
11
-955
21
0
0
LINE
5
172
100
AcDbEntity
8
0
6
ByLayer
62
256
370
-1
100
AcDbLine
10
0
20
1910
11
-955
21
1910
0
LINE
5
173
100
AcDbEntity
8
0
6
ByLayer
62
256
370
-1
100
AcDbLine
10
-955
20
0
11
-955
21
1910
0
LINE
5
174
100
AcDbEntity
8
0
6
ByLayer
62
256
370
-1
100
AcDbLine
10
0
20
0
11
0
21
1910
0
LINE
5
175
100
AcDbEntity
8
0
6
ByLayer
62
256
370
-1
100
AcDbLine
10
-930
20
0
11
-930
21
1910
0
LINE
5
176
100
AcDbEntity
8
0
6
ByLayer
62
256
370
-1
100
AcDbLine
10
0
20
1885
11
-955
21
1885
0
LINE
5
177
100
AcDbEntity
8
0
6
ByLayer
62
256
370
-1
100
AcDbLine
10
0
20
25
11
-955
21
25
0
LINE
5
178
100
AcDbEntity
8
0
6
ByLayer
62
256
370
-1
100
AcDbLine
10
-25
20
0
11
-25
21
1910
0
LINE
5
179
100
AcDbEntity
8
0
6
ByLayer
62
256
370
-1
100
AcDbLine
10
0
20
955
11
-25
21
955
0
LINE
5
17A
100
AcDbEntity
8
0
6
ByLayer
62
256
370
-1
100
AcDbLine
10
-930
20
955
11
-955
21
955
0
ENDBLK
5
99
330
97
100
AcDbEntity
8
0
100
AcDbBlockEnd
0
BLOCK
5
9B
330
9A
100
AcDbEntity
8
0
100
AcDbBlockBegin
2
KyotoKyomaTatamiVertical-5
70
0
10
0
20
0
3
KyotoKyomaTatamiVertical-5
1

0
LINE
5
17B
100
AcDbEntity
8
0
6
ByLayer
62
256
370
-1
100
AcDbLine
10
0
20
0
11
-955
21
0
0
LINE
5
17C
100
AcDbEntity
8
0
6
ByLayer
62
256
370
-1
100
AcDbLine
10
0
20
1910
11
-955
21
1910
0
LINE
5
17D
100
AcDbEntity
8
0
6
ByLayer
62
256
370
-1
100
AcDbLine
10
-955
20
0
11
-955
21
1910
0
LINE
5
17E
100
AcDbEntity
8
0
6
ByLayer
62
256
370
-1
100
AcDbLine
10
0
20
0
11
0
21
1910
0
LINE
5
17F
100
AcDbEntity
8
0
6
ByLayer
62
256
370
-1
100
AcDbLine
10
-930
20
0
11
-930
21
1910
0
LINE
5
180
100
AcDbEntity
8
0
6
ByLayer
62
256
370
-1
100
AcDbLine
10
0
20
1885
11
-955
21
1885
0
LINE
5
181
100
AcDbEntity
8
0
6
ByLayer
62
256
370
-1
100
AcDbLine
10
0
20
25
11
-955
21
25
0
LINE
5
182
100
AcDbEntity
8
0
6
ByLayer
62
256
370
-1
100
AcDbLine
10
-25
20
0
11
-25
21
1910
0
LINE
5
183
100
AcDbEntity
8
0
6
ByLayer
62
256
370
-1
100
AcDbLine
10
0
20
955
11
-25
21
955
0
LINE
5
184
100
AcDbEntity
8
0
6
ByLayer
62
256
370
-1
100
AcDbLine
10
-930
20
955
11
-955
21
955
0
ENDBLK
5
9C
330
9A
100
AcDbEntity
8
0
100
AcDbBlockEnd
0
BLOCK
5
9E
330
9D
100
AcDbEntity
8
0
100
AcDbBlockBegin
2
KyotoKyomaTatamiVertical-6
70
0
10
0
20
0
3
KyotoKyomaTatamiVertical-6
1

0
LINE
5
185
100
AcDbEntity
8
0
6
ByLayer
62
256
370
-1
100
AcDbLine
10
0
20
0
11
-955
21
0
0
LINE
5
186
100
AcDbEntity
8
0
6
ByLayer
62
256
370
-1
100
AcDbLine
10
0
20
1910
11
-955
21
1910
0
LINE
5
187
100
AcDbEntity
8
0
6
ByLayer
62
256
370
-1
100
AcDbLine
10
-955
20
0
11
-955
21
1910
0
LINE
5
188
100
AcDbEntity
8
0
6
ByLayer
62
256
370
-1
100
AcDbLine
10
0
20
0
11
0
21
1910
0
LINE
5
189
100
AcDbEntity
8
0
6
ByLayer
62
256
370
-1
100
AcDbLine
10
-930
20
0
11
-930
21
1910
0
LINE
5
18A
100
AcDbEntity
8
0
6
ByLayer
62
256
370
-1
100
AcDbLine
10
0
20
1885
11
-955
21
1885
0
LINE
5
18B
100
AcDbEntity
8
0
6
ByLayer
62
256
370
-1
100
AcDbLine
10
0
20
25
11
-955
21
25
0
LINE
5
18C
100
AcDbEntity
8
0
6
ByLayer
62
256
370
-1
100
AcDbLine
10
-25
20
0
11
-25
21
1910
0
LINE
5
18D
100
AcDbEntity
8
0
6
ByLayer
62
256
370
-1
100
AcDbLine
10
0
20
955
11
-25
21
955
0
LINE
5
18E
100
AcDbEntity
8
0
6
ByLayer
62
256
370
-1
100
AcDbLine
10
-930
20
955
11
-955
21
955
0
ENDBLK
5
9F
330
9D
100
AcDbEntity
8
0
100
AcDbBlockEnd
0
BLOCK
5
A1
330
A0
100
AcDbEntity
8
0
100
AcDbBlockBegin
2
KyotoKyomaTatamiVertical-7
70
0
10
0
20
0
3
KyotoKyomaTatamiVertical-7
1

0
LINE
5
18F
100
AcDbEntity
8
0
6
ByLayer
62
256
370
-1
100
AcDbLine
10
0
20
0
11
-955
21
0
0
LINE
5
190
100
AcDbEntity
8
0
6
ByLayer
62
256
370
-1
100
AcDbLine
10
0
20
1910
11
-955
21
1910
0
LINE
5
191
100
AcDbEntity
8
0
6
ByLayer
62
256
370
-1
100
AcDbLine
10
-955
20
0
11
-955
21
1910
0
LINE
5
192
100
AcDbEntity
8
0
6
ByLayer
62
256
370
-1
100
AcDbLine
10
0
20
0
11
0
21
1910
0
LINE
5
193
100
AcDbEntity
8
0
6
ByLayer
62
256
370
-1
100
AcDbLine
10
-930
20
0
11
-930
21
1910
0
LINE
5
194
100
AcDbEntity
8
0
6
ByLayer
62
256
370
-1
100
AcDbLine
10
0
20
1885
11
-955
21
1885
0
LINE
5
195
100
AcDbEntity
8
0
6
ByLayer
62
256
370
-1
100
AcDbLine
10
0
20
25
11
-955
21
25
0
LINE
5
196
100
AcDbEntity
8
0
6
ByLayer
62
256
370
-1
100
AcDbLine
10
-25
20
0
11
-25
21
1910
0
LINE
5
197
100
AcDbEntity
8
0
6
ByLayer
62
256
370
-1
100
AcDbLine
10
0
20
955
11
-25
21
955
0
LINE
5
198
100
AcDbEntity
8
0
6
ByLayer
62
256
370
-1
100
AcDbLine
10
-930
20
955
11
-955
21
955
0
ENDBLK
5
A2
330
A0
100
AcDbEntity
8
0
100
AcDbBlockEnd
0
BLOCK
5
A4
330
A3
100
AcDbEntity
8
0
100
AcDbBlockBegin
2
KyotoKyomaTatamiVertical-8
70
0
10
0
20
0
3
KyotoKyomaTatamiVertical-8
1

0
LINE
5
199
100
AcDbEntity
8
0
6
ByLayer
62
256
370
-1
100
AcDbLine
10
0
20
0
11
-955
21
0
0
LINE
5
19A
100
AcDbEntity
8
0
6
ByLayer
62
256
370
-1
100
AcDbLine
10
0
20
1910
11
-955
21
1910
0
LINE
5
19B
100
AcDbEntity
8
0
6
ByLayer
62
256
370
-1
100
AcDbLine
10
-955
20
0
11
-955
21
1910
0
LINE
5
19C
100
AcDbEntity
8
0
6
ByLayer
62
256
370
-1
100
AcDbLine
10
0
20
0
11
0
21
1910
0
LINE
5
19D
100
AcDbEntity
8
0
6
ByLayer
62
256
370
-1
100
AcDbLine
10
-930
20
0
11
-930
21
1910
0
LINE
5
19E
100
AcDbEntity
8
0
6
ByLayer
62
256
370
-1
100
AcDbLine
10
0
20
1885
11
-955
21
1885
0
LINE
5
19F
100
AcDbEntity
8
0
6
ByLayer
62
256
370
-1
100
AcDbLine
10
0
20
25
11
-955
21
25
0
LINE
5
1A0
100
AcDbEntity
8
0
6
ByLayer
62
256
370
-1
100
AcDbLine
10
-25
20
0
11
-25
21
1910
0
LINE
5
1A1
100
AcDbEntity
8
0
6
ByLayer
62
256
370
-1
100
AcDbLine
10
0
20
955
11
-25
21
955
0
LINE
5
1A2
100
AcDbEntity
8
0
6
ByLayer
62
256
370
-1
100
AcDbLine
10
-930
20
955
11
-955
21
955
0
ENDBLK
5
A5
330
A3
100
AcDbEntity
8
0
100
AcDbBlockEnd
0
BLOCK
5
A7
330
A6
100
AcDbEntity
8
0
100
AcDbBlockBegin
2
KyotoKyomaTatamiHalf-0
70
0
10
0
20
0
3
KyotoKyomaTatamiHalf-0
1

0
LINE
5
1A3
100
AcDbEntity
8
0
6
ByLayer
62
256
370
-1
100
AcDbLine
10
0
20
955
11
955
21
955
0
LINE
5
1A4
100
AcDbEntity
8
0
6
ByLayer
62
256
370
-1
100
AcDbLine
10
0
20
0
11
955
21
0
0
LINE
5
1A5
100
AcDbEntity
8
0
6
ByLayer
62
256
370
-1
100
AcDbLine
10
0
20
0
11
0
21
955
0
LINE
5
1A6
100
AcDbEntity
8
0
6
ByLayer
62
256
370
-1
100
AcDbLine
10
955
20
0
11
955
21
955
0
LINE
5
1A7
100
AcDbEntity
8
0
6
ByLayer
62
256
370
-1
100
AcDbLine
10
25
20
0
11
25
21
955
0
LINE
5
1A8
100
AcDbEntity
8
0
6
ByLayer
62
256
370
-1
100
AcDbLine
10
0
20
930
11
955
21
930
0
LINE
5
1A9
100
AcDbEntity
8
0
6
ByLayer
62
256
370
-1
100
AcDbLine
10
930
20
0
11
930
21
955
0
LINE
5
1AA
100
AcDbEntity
8
0
6
ByLayer
62
256
370
-1
100
AcDbLine
10
0
20
25
11
955
21
25
0
ENDBLK
5
A8
330
A6
100
AcDbEntity
8
0
100
AcDbBlockEnd
0
BLOCK
5
AA
330
A9
100
AcDbEntity
8
0
100
AcDbBlockBegin
2
KyotoKyomaTatamiHalf-1
70
0
10
0
20
0
3
KyotoKyomaTatamiHalf-1
1

0
LINE
5
1AB
100
AcDbEntity
8
0
6
ByLayer
62
256
370
-1
100
AcDbLine
10
0
20
955
11
955
21
955
0
LINE
5
1AC
100
AcDbEntity
8
0
6
ByLayer
62
256
370
-1
100
AcDbLine
10
0
20
0
11
955
21
0
0
LINE
5
1AD
100
AcDbEntity
8
0
6
ByLayer
62
256
370
-1
100
AcDbLine
10
0
20
0
11
0
21
955
0
LINE
5
1AE
100
AcDbEntity
8
0
6
ByLayer
62
256
370
-1
100
AcDbLine
10
955
20
0
11
955
21
955
0
LINE
5
1AF
100
AcDbEntity
8
0
6
ByLayer
62
256
370
-1
100
AcDbLine
10
25
20
0
11
25
21
955
0
LINE
5
1B0
100
AcDbEntity
8
0
6
ByLayer
62
256
370
-1
100
AcDbLine
10
0
20
930
11
955
21
930
0
LINE
5
1B1
100
AcDbEntity
8
0
6
ByLayer
62
256
370
-1
100
AcDbLine
10
930
20
0
11
930
21
955
0
LINE
5
1B2
100
AcDbEntity
8
0
6
ByLayer
62
256
370
-1
100
AcDbLine
10
0
20
25
11
955
21
25
0
ENDBLK
5
AB
330
A9
100
AcDbEntity
8
0
100
AcDbBlockEnd
0
BLOCK
5
AD
330
AC
100
AcDbEntity
8
0
100
AcDbBlockBegin
2
KyotoKyomaTatamiHalf-2
70
0
10
0
20
0
3
KyotoKyomaTatamiHalf-2
1

0
LINE
5
1B3
100
AcDbEntity
8
0
6
ByLayer
62
256
370
-1
100
AcDbLine
10
0
20
955
11
955
21
955
0
LINE
5
1B4
100
AcDbEntity
8
0
6
ByLayer
62
256
370
-1
100
AcDbLine
10
0
20
0
11
955
21
0
0
LINE
5
1B5
100
AcDbEntity
8
0
6
ByLayer
62
256
370
-1
100
AcDbLine
10
0
20
0
11
0
21
955
0
LINE
5
1B6
100
AcDbEntity
8
0
6
ByLayer
62
256
370
-1
100
AcDbLine
10
955
20
0
11
955
21
955
0
LINE
5
1B7
100
AcDbEntity
8
0
6
ByLayer
62
256
370
-1
100
AcDbLine
10
25
20
0
11
25
21
955
0
LINE
5
1B8
100
AcDbEntity
8
0
6
ByLayer
62
256
370
-1
100
AcDbLine
10
0
20
930
11
955
21
930
0
LINE
5
1B9
100
AcDbEntity
8
0
6
ByLayer
62
256
370
-1
100
AcDbLine
10
930
20
0
11
930
21
955
0
LINE
5
1BA
100
AcDbEntity
8
0
6
ByLayer
62
256
370
-1
100
AcDbLine
10
0
20
25
11
955
21
25
0
ENDBLK
5
AE
330
AC
100
AcDbEntity
8
0
100
AcDbBlockEnd
0
BLOCK
5
B0
330
AF
100
AcDbEntity
8
0
100
AcDbBlockBegin
2
KyotoKyomaTatamiHalf-3
70
0
10
0
20
0
3
KyotoKyomaTatamiHalf-3
1

0
LINE
5
1BB
100
AcDbEntity
8
0
6
ByLayer
62
256
370
-1
100
AcDbLine
10
0
20
955
11
955
21
955
0
LINE
5
1BC
100
AcDbEntity
8
0
6
ByLayer
62
256
370
-1
100
AcDbLine
10
0
20
0
11
955
21
0
0
LINE
5
1BD
100
AcDbEntity
8
0
6
ByLayer
62
256
370
-1
100
AcDbLine
10
0
20
0
11
0
21
955
0
LINE
5
1BE
100
AcDbEntity
8
0
6
ByLayer
62
256
370
-1
100
AcDbLine
10
955
20
0
11
955
21
955
0
LINE
5
1BF
100
AcDbEntity
8
0
6
ByLayer
62
256
370
-1
100
AcDbLine
10
25
20
0
11
25
21
955
0
LINE
5
1C0
100
AcDbEntity
8
0
6
ByLayer
62
256
370
-1
100
AcDbLine
10
0
20
930
11
955
21
930
0
LINE
5
1C1
100
AcDbEntity
8
0
6
ByLayer
62
256
370
-1
100
AcDbLine
10
930
20
0
11
930
21
955
0
LINE
5
1C2
100
AcDbEntity
8
0
6
ByLayer
62
256
370
-1
100
AcDbLine
10
0
20
25
11
955
21
25
0
ENDBLK
5
B1
330
AF
100
AcDbEntity
8
0
100
AcDbBlockEnd
0
BLOCK
5
B3
330
B2
100
AcDbEntity
8
0
100
AcDbBlockBegin
2
KyotoKyomaTatamiVertical-9
70
0
10
0
20
0
3
KyotoKyomaTatamiVertical-9
1

0
LINE
5
1C3
100
AcDbEntity
8
0
6
ByLayer
62
256
370
-1
100
AcDbLine
10
0
20
0
11
-955
21
0
0
LINE
5
1C4
100
AcDbEntity
8
0
6
ByLayer
62
256
370
-1
100
AcDbLine
10
0
20
1910
11
-955
21
1910
0
LINE
5
1C5
100
AcDbEntity
8
0
6
ByLayer
62
256
370
-1
100
AcDbLine
10
-955
20
0
11
-955
21
1910
0
LINE
5
1C6
100
AcDbEntity
8
0
6
ByLayer
62
256
370
-1
100
AcDbLine
10
0
20
0
11
0
21
1910
0
LINE
5
1C7
100
AcDbEntity
8
0
6
ByLayer
62
256
370
-1
100
AcDbLine
10
-930
20
0
11
-930
21
1910
0
LINE
5
1C8
100
AcDbEntity
8
0
6
ByLayer
62
256
370
-1
100
AcDbLine
10
0
20
1885
11
-955
21
1885
0
LINE
5
1C9
100
AcDbEntity
8
0
6
ByLayer
62
256
370
-1
100
AcDbLine
10
0
20
25
11
-955
21
25
0
LINE
5
1CA
100
AcDbEntity
8
0
6
ByLayer
62
256
370
-1
100
AcDbLine
10
-25
20
0
11
-25
21
1910
0
LINE
5
1CB
100
AcDbEntity
8
0
6
ByLayer
62
256
370
-1
100
AcDbLine
10
0
20
955
11
-25
21
955
0
LINE
5
1CC
100
AcDbEntity
8
0
6
ByLayer
62
256
370
-1
100
AcDbLine
10
-930
20
955
11
-955
21
955
0
ENDBLK
5
B4
330
B2
100
AcDbEntity
8
0
100
AcDbBlockEnd
0
BLOCK
5
B6
330
B5
100
AcDbEntity
8
0
100
AcDbBlockBegin
2
KyotoKyomaTatami-0
70
0
10
0
20
0
3
KyotoKyomaTatami-0
1

0
LINE
5
1CD
100
AcDbEntity
8
0
6
ByLayer
62
256
370
-1
100
AcDbLine
10
0
20
0
11
0
21
955
0
LINE
5
1CE
100
AcDbEntity
8
0
6
ByLayer
62
256
370
-1
100
AcDbLine
10
1910
20
0
11
1910
21
955
0
LINE
5
1CF
100
AcDbEntity
8
0
6
ByLayer
62
256
370
-1
100
AcDbLine
10
0
20
955
11
1910
21
955
0
LINE
5
1D0
100
AcDbEntity
8
0
6
ByLayer
62
256
370
-1
100
AcDbLine
10
0
20
0
11
1910
21
0
0
LINE
5
1D1
100
AcDbEntity
8
0
6
ByLayer
62
256
370
-1
100
AcDbLine
10
0
20
930
11
1910
21
930
0
LINE
5
1D2
100
AcDbEntity
8
0
6
ByLayer
62
256
370
-1
100
AcDbLine
10
1885
20
0
11
1885
21
955
0
LINE
5
1D3
100
AcDbEntity
8
0
6
ByLayer
62
256
370
-1
100
AcDbLine
10
25
20
0
11
25
21
955
0
LINE
5
1D4
100
AcDbEntity
8
0
6
ByLayer
62
256
370
-1
100
AcDbLine
10
0
20
25
11
1910
21
25
0
LINE
5
1D5
100
AcDbEntity
8
0
6
ByLayer
62
256
370
-1
100
AcDbLine
10
955
20
0
11
955
21
25
0
LINE
5
1D6
100
AcDbEntity
8
0
6
ByLayer
62
256
370
-1
100
AcDbLine
10
955
20
930
11
955
21
955
0
ENDBLK
5
B7
330
B5
100
AcDbEntity
8
0
100
AcDbBlockEnd
0
BLOCK
5
B9
330
B8
100
AcDbEntity
8
0
100
AcDbBlockBegin
2
KyotoKyomaTatami-1
70
0
10
0
20
0
3
KyotoKyomaTatami-1
1

0
LINE
5
1D7
100
AcDbEntity
8
0
6
ByLayer
62
256
370
-1
100
AcDbLine
10
0
20
0
11
0
21
955
0
LINE
5
1D8
100
AcDbEntity
8
0
6
ByLayer
62
256
370
-1
100
AcDbLine
10
1910
20
0
11
1910
21
955
0
LINE
5
1D9
100
AcDbEntity
8
0
6
ByLayer
62
256
370
-1
100
AcDbLine
10
0
20
955
11
1910
21
955
0
LINE
5
1DA
100
AcDbEntity
8
0
6
ByLayer
62
256
370
-1
100
AcDbLine
10
0
20
0
11
1910
21
0
0
LINE
5
1DB
100
AcDbEntity
8
0
6
ByLayer
62
256
370
-1
100
AcDbLine
10
0
20
930
11
1910
21
930
0
LINE
5
1DC
100
AcDbEntity
8
0
6
ByLayer
62
256
370
-1
100
AcDbLine
10
1885
20
0
11
1885
21
955
0
LINE
5
1DD
100
AcDbEntity
8
0
6
ByLayer
62
256
370
-1
100
AcDbLine
10
25
20
0
11
25
21
955
0
LINE
5
1DE
100
AcDbEntity
8
0
6
ByLayer
62
256
370
-1
100
AcDbLine
10
0
20
25
11
1910
21
25
0
LINE
5
1DF
100
AcDbEntity
8
0
6
ByLayer
62
256
370
-1
100
AcDbLine
10
955
20
0
11
955
21
25
0
LINE
5
1E0
100
AcDbEntity
8
0
6
ByLayer
62
256
370
-1
100
AcDbLine
10
955
20
930
11
955
21
955
0
ENDBLK
5
BA
330
B8
100
AcDbEntity
8
0
100
AcDbBlockEnd
0
BLOCK
5
BC
330
BB
100
AcDbEntity
8
0
100
AcDbBlockBegin
2
washer_sentaki
70
0
10
0
20
0
3
washer_sentaki
1

0
LINE
5
1E1
100
AcDbEntity
8
0
6
ByLayer
62
256
370
-1
100
AcDbLine
10
520
20
0
11
520
21
550
0
LINE
5
1E2
100
AcDbEntity
8
0
6
ByLayer
62
256
370
-1
100
AcDbLine
10
0
20
0
11
0
21
550
0
LINE
5
1E3
100
AcDbEntity
8
0
6
ByLayer
62
256
370
-1
100
AcDbLine
10
0
20
550
11
520
21
550
0
LINE
5
1E4
100
AcDbEntity
8
0
6
ByLayer
62
256
370
-1
100
AcDbLine
10
0
20
0
11
520
21
0
0
CIRCLE
5
1E5
100
AcDbEntity
8
0
6
ByLayer
62
256
370
-1
100
AcDbCircle
10
260
20
275
40
190.24749449
0
LINE
5
1E6
100
AcDbEntity
8
0
6
ByLayer
62
256
370
-1
100
AcDbLine
10
0
20
50
11
520
21
50
0
ENDBLK
5
BD
330
BB
100
AcDbEntity
8
0
100
AcDbBlockEnd
0
BLOCK
5
BF
330
BE
100
AcDbEntity
8
0
100
AcDbBlockBegin
2
refridge500_600
70
0
10
0
20
0
3
refridge500_600
1

0
LINE
5
1E7
100
AcDbEntity
8
0
6
ByLayer
62
256
370
-1
100
AcDbLine
10
0
20
0
11
550
21
0
0
LINE
5
1E8
100
AcDbEntity
8
0
6
ByLayer
62
256
370
-1
100
AcDbLine
10
0
20
-600
11
550
21
-600
0
LINE
5
1E9
100
AcDbEntity
8
0
6
ByLayer
62
256
370
-1
100
AcDbLine
10
500
20
0
11
500
21
-600
0
LINE
5
1EA
100
AcDbEntity
8
0
6
ByLayer
62
256
370
-1
100
AcDbLine
10
0
20
0
11
0
21
-600
0
ARC
5
1EB
100
AcDbEntity
8
0
6
ByLayer
62
256
370
-1
100
AcDbCircle
10
-689.692211372
20
-300
40
1275.4751189
100
AcDbArc
50
346.396206231
51
13.603793769
0
LINE
5
1EC
100
AcDbEntity
8
0
6
ByLayer
62
256
370
-1
100
AcDbLine
10
510
20
0
11
510
21
-600
0
MTEXT
5
1ED
100
AcDbEntity
8
0
6
ByLayer
62
256
370
-1
100
AcDbMText
10
266.901409432
20
-24.0279179021
30
0
40
200
41
533.333333333
71
4
72
5
1
Refr
7
iso
210
0
220
0
230
1
50
270
73
1
44
0.96
0
ENDBLK
5
C0
330
BE
100
AcDbEntity
8
0
100
AcDbBlockEnd
0
BLOCK
5
C2
330
C1
100
AcDbEntity
8
0
100
AcDbBlockBegin
2
Standard40ft12m_withIntwall-0
70
0
10
0
20
0
3
Standard40ft12m_withIntwall-0
1

0
LINE
5
1EE
100
AcDbEntity
8
0
6
ByLayer
62
256
370
-1
100
AcDbLine
10
94
20
94
11
94
21
2346
0
LINE
5
1EF
100
AcDbEntity
8
0
6
ByLayer
62
256
370
-1
100
AcDbLine
10
94
20
94
11
12076
21
94
0
LINE
5
1F0
100
AcDbEntity
8
0
6
ByLayer
62
256
370
-1
100
AcDbLine
10
44
20
44
11
44
21
2396
0
LINE
5
1F1
100
AcDbEntity
8
0
6
ByLayer
62
256
370
-1
100
AcDbLine
10
0
20
0
11
0
21
2440
0
LINE
5
1F2
100
AcDbEntity
8
0
6
ByLayer
62
256
370
-1
100
AcDbLine
10
0
20
0
11
12200
21
0
0
LINE
5
1F3
100
AcDbEntity
8
0
6
ByLayer
62
256
370
-1
100
AcDbLine
10
44
20
44
11
12200
21
44
0
LINE
5
1F4
100
AcDbEntity
8
0
6
ByLayer
62
256
370
-1
100
AcDbLine
10
12200
20
2390
11
13370
21
2390
0
LINE
5
1F5
100
AcDbEntity
8
0
6
ByLayer
62
256
370
-1
100
AcDbLine
10
12200
20
50
11
13370
21
50
0
LINE
5
1F6
100
AcDbEntity
8
0
6
ByLayer
62
256
370
-1
100
AcDbLine
10
12200
20
2434
11
13370
21
2434
0
LINE
5
1F7
100
AcDbEntity
8
0
6
ByLayer
62
256
370
-1
100
AcDbLine
10
12200
20
6
11
13370
21
6
0
LINE
5
1F8
100
AcDbEntity
8
0
6
ByLayer
62
256
370
-1
100
AcDbLine
10
13370
20
50
11
13370
21
2390
0
LINE
5
1F9
100
AcDbEntity
8
0
6
ByLayer
62
256
370
-1
100
AcDbLine
10
12076
20
44
11
12076
21
2396
0
LINE
5
1FA
100
AcDbEntity
8
0
6
ByLayer
62
256
370
-1
100
AcDbLine
10
12200
20
0
11
12200
21
2440
0
LINE
5
1FB
100
AcDbEntity
8
0
6
ByLayer
62
256
370
-1
100
AcDbLine
10
94
20
2346
11
12076
21
2346
0
LINE
5
1FC
100
AcDbEntity
8
0
6
ByLayer
62
256
370
-1
100
AcDbLine
10
0
20
2440
11
12200
21
2440
0
LINE
5
1FD
100
AcDbEntity
8
0
6
ByLayer
62
256
370
-1
100
AcDbLine
10
44
20
2396
11
12200
21
2396
0
ENDBLK
5
C3
330
C1
100
AcDbEntity
8
0
100
AcDbBlockEnd
0
BLOCK
5
C5
330
C4
100
AcDbEntity
8
0
100
AcDbBlockBegin
2
jtub
70
0
10
0
20
0
3
jtub
1

0
INSERT
5
1FE
100
AcDbEntity
8
fixtures
6
ByLayer
62
256
370
-1
100
AcDbBlockReference
2
tub_ver-0
10
89.9985784502
20
870.630897716
30
0
41
1
42
1
43
0
50
0
70
1
71
1
44
0
45
0
0
LINE
5
1FF
100
AcDbEntity
8
fixtures
6
ByLayer
62
256
370
-1
100
AcDbLine
10
759.99857845
20
0.630897714578
11
759.99857845
21
870.630897716
0
ARC
5
200
100
AcDbEntity
8
fixtures
6
ByLayer
62
256
370
-1
100
AcDbCircle
10
619.99857845
20
870.630897716
40
140
100
AcDbArc
50
0
51
90
0
ARC
5
201
100
AcDbEntity
8
fixtures
6
ByLayer
62
256
370
-1
100
AcDbCircle
10
619.99857845
20
0.630897714578
40
140
100
AcDbArc
50
270
51
0
0
LINE
5
202
100
AcDbEntity
8
fixtures
6
ByLayer
62
256
370
-1
100
AcDbLine
10
139.99857845
20
-139.369102285
11
619.99857845
21
-139.369102285
0
ARC
5
203
100
AcDbEntity
8
fixtures
6
ByLayer
62
256
370
-1
100
AcDbCircle
10
139.99857845
20
0.630897714578
40
140
100
AcDbArc
50
180
51
270
0
ARC
5
204
100
AcDbEntity
8
fixtures
6
ByLayer
62
256
370
-1
100
AcDbCircle
10
139.99857845
20
870.630897716
40
140
100
AcDbArc
50
90
51
180
0
LINE
5
205
100
AcDbEntity
8
fixtures
6
ByLayer
62
256
370
-1
100
AcDbLine
10
139.99857845
20
1010.63089772
11
619.99857845
21
1010.63089772
0
LINE
5
206
100
AcDbEntity
8
fixtures
6
ByLayer
62
256
370
-1
100
AcDbLine
10
-0.00142154981094
20
870.630897716
11
0
21
0
0
ENDBLK
5
C6
330
C4
100
AcDbEntity
8
0
100
AcDbBlockEnd
0
BLOCK
5
C8
330
C7
100
AcDbEntity
8
0
100
AcDbBlockBegin
2
refer
70
0
10
0
20
0
3
refer
1

0
LINE
5
207
100
AcDbEntity
8
fixtures
6
ByLayer
62
256
370
-1
100
AcDbLine
10
0
20
0
11
0
21
-55
0
LINE
5
208
100
AcDbEntity
8
fixtures
6
ByLayer
62
256
370
-1
100
AcDbLine
10
-60
20
0
11
-60
21
-55
0
LINE
5
209
100
AcDbEntity
8
fixtures
6
ByLayer
62
256
370
-1
100
AcDbLine
10
0
20
-50
11
-60
21
-50
0
LINE
5
20A
100
AcDbEntity
8
fixtures
6
ByLayer
62
256
370
-1
100
AcDbLine
10
0
20
0
11
-60
21
0
0
ARC
5
20B
100
AcDbEntity
8
fixtures
6
ByLayer
62
256
370
-1
100
AcDbCircle
10
-30
20
68.9692211372
40
127.54751189
100
AcDbArc
50
256.396206231
51
283.603793769
0
LINE
5
20C
100
AcDbEntity
8
fixtures
6
ByLayer
62
256
370
-1
100
AcDbLine
10
0
20
-51
11
-60
21
-51
0
MTEXT
5
20D
100
AcDbEntity
8
fixtures
6
ByLayer
62
256
370
-1
100
AcDbMText
10
-57.2722082099
20
-19.3598590569
30
0
40
20
41
53.3333333333
71
4
72
5
1
Refr
7
iso
210
0
220
0
230
1
50
360
73
1
44
0.96
0
ENDBLK
5
C9
330
C7
100
AcDbEntity
8
0
100
AcDbBlockEnd
0
BLOCK
5
CB
330
CA
100
AcDbEntity
8
0
100
AcDbBlockBegin
2
sink
70
0
10
0
20
0
3
sink
1

0
ARC
5
20E
100
AcDbEntity
8
fixtures
6
ByLayer
62
256
370
-1
100
AcDbCircle
10
4.00260191002
20
0.99739808998
40
4.125
100
AcDbArc
50
76.0075830069
51
193.992416993
0
ARC
5
20F
100
AcDbEntity
8
fixtures
6
ByLayer
62
256
370
-1
100
AcDbCircle
10
30.99739809
20
0.99739808998
40
4.125
100
AcDbArc
50
346.007583007
51
103.992416993
0
ARC
5
210
100
AcDbEntity
8
fixtures
6
ByLayer
62
256
370
-1
100
AcDbCircle
10
30.99739809
20
-20.99739809
40
4.125
100
AcDbArc
50
256.007583007
51
13.9924169931
0
ARC
5
211
100
AcDbEntity
8
fixtures
6
ByLayer
62
256
370
-1
100
AcDbCircle
10
30.99739809
20
-35.00260191
40
4.125
100
AcDbArc
50
346.007583007
51
103.992416993
0
ARC
5
212
100
AcDbEntity
8
fixtures
6
ByLayer
62
256
370
-1
100
AcDbCircle
10
4.00260191002
20
-20.99739809
40
4.125
100
AcDbArc
50
166.007583007
51
283.992416993
0
ARC
5
213
100
AcDbEntity
8
fixtures
6
ByLayer
62
256
370
-1
100
AcDbCircle
10
4.00260191002
20
-35.00260191
40
4.125
100
AcDbArc
50
76.0075830069
51
193.992416993
0
ARC
5
214
100
AcDbEntity
8
fixtures
6
ByLayer
62
256
370
-1
100
AcDbCircle
10
30.99739809
20
-56.99739809
40
4.125
100
AcDbArc
50
256.007583007
51
13.9924169931
0
ARC
5
215
100
AcDbEntity
8
fixtures
6
ByLayer
62
256
370
-1
100
AcDbCircle
10
4.00260191002
20
-56.99739809
40
4.125
100
AcDbArc
50
166.007583007
51
283.992416993
0
LINE
5
216
100
AcDbEntity
8
fixtures
6
ByLayer
62
256
370
-1
100
AcDbLine
10
30
20
-25
11
5
21
-25
0
LINE
5
217
100
AcDbEntity
8
fixtures
6
ByLayer
62
256
370
-1
100
AcDbLine
10
5
20
5
11
30
21
5
0
LINE
5
218
100
AcDbEntity
8
fixtures
6
ByLayer
62
256
370
-1
100
AcDbLine
10
5
20
-31
11
30
21
-31
0
LINE
5
219
100
AcDbEntity
8
fixtures
6
ByLayer
62
256
370
-1
100
AcDbLine
10
30
20
-61
11
5
21
-61
0
LINE
5
21A
100
AcDbEntity
8
fixtures
6
ByLayer
62
256
370
-1
100
AcDbLine
10
35
20
-36
11
35
21
-56
0
LINE
5
21B
100
AcDbEntity
8
fixtures
6
ByLayer
62
256
370
-1
100
AcDbLine
10
0
20
-56
11
0
21
-36
0
LINE
5
21C
100
AcDbEntity
8
fixtures
6
ByLayer
62
256
370
-1
100
AcDbLine
10
0
20
-20
11
0
21
1.3073986338e-12
0
LINE
5
21D
100
AcDbEntity
8
fixtures
6
ByLayer
62
256
370
-1
100
AcDbLine
10
35
20
1.3073986338e-12
11
35
21
-20
0
ENDBLK
5
CC
330
CA
100
AcDbEntity
8
0
100
AcDbBlockEnd
0
BLOCK
5
CE
330
CD
100
AcDbEntity
8
0
100
AcDbBlockBegin
2
stove
70
0
10
0
20
0
3
stove
1

0
LINE
5
21E
100
AcDbEntity
8
fixtures
6
ByLayer
62
256
370
-1
100
AcDbLine
10
0
20
62
11
64
21
62
0
LINE
5
21F
100
AcDbEntity
8
fixtures
6
ByLayer
62
256
370
-1
100
AcDbLine
10
64
20
62
11
64
21
0
0
LINE
5
220
100
AcDbEntity
8
fixtures
6
ByLayer
62
256
370
-1
100
AcDbLine
10
64
20
0
11
0
21
0
0
LINE
5
221
100
AcDbEntity
8
fixtures
6
ByLayer
62
256
370
-1
100
AcDbLine
10
0
20
0
11
0
21
62
0
CIRCLE
5
222
100
AcDbEntity
8
fixtures
6
ByLayer
62
256
370
-1
100
AcDbCircle
10
17
20
21.954456
40
10
0
CIRCLE
5
223
100
AcDbEntity
8
fixtures
6
ByLayer
62
256
370
-1
100
AcDbCircle
10
47
20
21.954456
40
7
0
CIRCLE
5
224
100
AcDbEntity
8
fixtures
6
ByLayer
62
256
370
-1
100
AcDbCircle
10
47
20
46.954456
40
10
0
CIRCLE
5
225
100
AcDbEntity
8
fixtures
6
ByLayer
62
256
370
-1
100
AcDbCircle
10
17
20
46.954456
40
7
0
LINE
5
226
100
AcDbEntity
8
fixtures
6
ByLayer
62
256
370
-1
100
AcDbLine
10
0
20
6
11
64
21
6
0
ENDBLK
5
CF
330
CD
100
AcDbEntity
8
0
100
AcDbBlockEnd
0
BLOCK
5
D1
330
D0
100
AcDbEntity
8
0
100
AcDbBlockBegin
2
6m-container-kitchenUnit-0
70
0
10
0
20
0
3
6m-container-kitchenUnit-0
1

0
LINE
5
227
100
AcDbEntity
8
0
6
ByLayer
62
256
370
-1
100
AcDbLine
10
209.375
20
293.75
11
6305.375
21
293.75
0
LINE
5
228
100
AcDbEntity
8
0
6
ByLayer
62
256
370
-1
100
AcDbLine
10
209.375
20
293.75
11
209.375
21
2731.75
0
LINE
5
229
100
AcDbEntity
8
0
6
ByLayer
62
256
370
-1
100
AcDbLine
10
6305.375
20
293.75
11
6305.375
21
2731.75
0
LINE
5
22A
100
AcDbEntity
8
0
6
ByLayer
62
256
370
-1
100
AcDbLine
10
209.375
20
2731.75
11
6305.375
21
2731.75
0
LINE
5
22B
100
AcDbEntity
8
0
6
ByLayer
62
256
370
-1
100
AcDbLine
10
253.375
20
2687.75
11
6305.375
21
2687.75
0
LINE
5
22C
100
AcDbEntity
8
0
6
ByLayer
62
256
370
-1
100
AcDbLine
10
253.375
20
337.75
11
6305.375
21
337.75
0
LINE
5
22D
100
AcDbEntity
8
0
6
ByLayer
62
256
370
-1
100
AcDbLine
10
253.375
20
337.75
11
253.375
21
2687.75
0
LINE
5
22E
100
AcDbEntity
8
0
6
ByLayer
62
256
370
-1
100
AcDbLine
10
6325.375
20
2731.75
11
7495.375
21
2731.75
0
LINE
5
22F
100
AcDbEntity
8
0
6
ByLayer
62
256
370
-1
100
AcDbLine
10
6325.375
20
2691.75
11
7495.375
21
2691.75
0
LINE
5
230
100
AcDbEntity
8
0
6
ByLayer
62
256
370
-1
100
AcDbLine
10
6325.375
20
293.75
11
7495.375
21
293.75
0
LINE
5
231
100
AcDbEntity
8
0
6
ByLayer
62
256
370
-1
100
AcDbLine
10
6325.375
20
333.75
11
7495.375
21
333.75
0
LINE
5
232
100
AcDbEntity
8
0
6
ByLayer
62
256
370
-1
100
AcDbLine
10
7495.375
20
2731.75
11
7495.375
21
2691.75
0
LINE
5
233
100
AcDbEntity
8
0
6
ByLayer
62
256
370
-1
100
AcDbLine
10
6325.375
20
2731.75
11
6325.375
21
2691.75
0
LINE
5
234
100
AcDbEntity
8
0
6
ByLayer
62
256
370
-1
100
AcDbLine
10
7495.375
20
293.75
11
7495.375
21
333.75
0
DIMENSION
5
235
100
AcDbEntity
8
dimension
6
ByLayer
62
256
370
-1
100
AcDbDimension
10
6305.375
20
2995
30
0
11
3257.375
21
3053.75
31
0
70
32
71
5
3
Standard
53
0
210
0
220
0
230
1
100
AcDbAlignedDimension
13
209.375
23
2731.75
33
0
14
6305.375
24
2731.75
34
0
100
AcDbRotatedDimension
0
DIMENSION
5
236
100
AcDbEntity
8
dimension
6
ByLayer
62
256
370
-1
100
AcDbDimension
10
7495.375
20
2996.8
30
0
11
6910.375
21
3055.55
31
0
70
32
71
5
3
Standard
53
0
210
0
220
0
230
1
100
AcDbAlignedDimension
13
6325.375
23
2731.75
33
0
14
7495.375
24
2731.75
34
0
100
AcDbRotatedDimension
0
DIMENSION
5
237
100
AcDbEntity
8
dimension
6
ByLayer
62
256
370
-1
100
AcDbDimension
10
-312.805175781
20
2731.75
30
0
11
-371.555175781
21
1512.75
31
0
70
32
71
5
3
Standard
53
0
210
0
220
0
230
1
100
AcDbAlignedDimension
13
209.375
23
293.75
33
0
14
209.375
24
2731.75
34
0
50
90
100
AcDbRotatedDimension
0
DIMENSION
5
238
100
AcDbEntity
8
dimension
6
ByLayer
62
256
370
-1
100
AcDbDimension
10
6145.375
20
-61.03515625
30
0
11
3199.375
21
-2.28515625
31
0
70
32
71
5
3
Standard
53
0
210
0
220
0
230
1
100
AcDbAlignedDimension
13
253.375
23
337.75
33
0
14
6145.375
24
337.75
34
0
100
AcDbRotatedDimension
0
DIMENSION
5
239
100
AcDbEntity
8
dimension
6
ByLayer
62
256
370
-1
100
AcDbDimension
10
-58.59375
20
2687.75
30
0
11
-117.34375
21
1512.75
31
0
70
32
71
5
3
Standard
53
0
210
0
220
0
230
1
100
AcDbAlignedDimension
13
253.375
23
337.75
33
0
14
253.375
24
2687.75
34
0
50
90
100
AcDbRotatedDimension
0
LINE
5
23A
100
AcDbEntity
8
0
6
DOT2
62
256
370
-1
100
AcDbLine
10
6145.375
20
337.75
11
6145.375
21
2687.75
0
LINE
5
23B
100
AcDbEntity
8
walls
6
ByLayer
62
256
370
-1
100
AcDbLine
10
303.375
20
2637.75
11
6305.375
21
2637.75
0
LINE
5
23C
100
AcDbEntity
8
walls
6
ByLayer
62
256
370
-1
100
AcDbLine
10
303.375
20
387.75
11
6305.375
21
387.75
0
LINE
5
23D
100
AcDbEntity
8
walls
6
ByLayer
62
256
370
-1
100
AcDbLine
10
303.375
20
387.75
11
303.375
21
2637.75
0
LINE
5
23E
100
AcDbEntity
8
cabinates
6
ByLayer
62
256
370
-1
100
AcDbLine
10
1703.375
20
387.75
11
1003.375
21
387.75
0
LINE
5
23F
100
AcDbEntity
8
cabinates
6
ByLayer
62
256
370
-1
100
AcDbLine
10
2403.375
20
2037.75
11
2403.375
21
2637.75
0
LINE
5
240
100
AcDbEntity
8
cabinates
6
ByLayer
62
256
370
-1
100
AcDbLine
10
2403.375
20
987.75
11
2403.375
21
387.75
0
LINE
5
241
100
AcDbEntity
8
cabinates
6
ByLayer
62
256
370
-1
100
AcDbLine
10
903.375
20
987.75
11
903.375
21
2037.75
0
INSERT
5
242
100
AcDbEntity
8
fixtures
6
ByLayer
62
256
370
-1
100
AcDbBlockReference
2
sink
10
453.375
20
1792.75
30
0
41
10
42
10
43
0
50
0
70
1
71
1
44
0
45
0
0
LINE
5
243
100
AcDbEntity
8
cabinates
6
ByLayer
62
256
370
-1
100
AcDbLine
10
903.375
20
2037.75
11
1103.375
21
2037.75
0
LINE
5
244
100
AcDbEntity
8
cabinates
6
ByLayer
62
256
370
-1
100
AcDbLine
10
1803.375
20
2037.75
11
2403.375
21
2037.75
0
INSERT
5
245
100
AcDbEntity
8
fixtures
6
ByLayer
62
256
370
-1
100
AcDbBlockReference
2
refer
10
1753.375
20
2587.75
30
0
41
10
42
10
43
0
50
0
70
1
71
1
44
0
45
0
0
LINE
5
246
100
AcDbEntity
8
cabinates
6
ByLayer
62
256
370
-1
100
AcDbLine
10
1803.375
20
2037.75
11
1803.375
21
2637.75
0
LINE
5
247
100
AcDbEntity
8
cabinates
6
ByLayer
62
256
370
-1
100
AcDbLine
10
1103.375
20
2037.75
11
1103.375
21
2637.75
0
LINE
5
248
100
AcDbEntity
8
cabinates
6
ByLayer
62
256
370
-1
100
AcDbLine
10
1803.375
20
987.75
11
1803.375
21
387.75
0
LINE
5
249
100
AcDbEntity
8
cabinates
6
ByLayer
62
256
370
-1
100
AcDbLine
10
1103.375
20
987.75
11
1103.375
21
387.75
0
LINE
5
24A
100
AcDbEntity
8
cabinates
6
ByLayer
62
256
370
-1
100
AcDbLine
10
1003.375
20
987.75
11
1103.375
21
987.75
0
LINE
5
24B
100
AcDbEntity
8
cabinates
6
ByLayer
62
256
370
-1
100
AcDbLine
10
903.375
20
987.75
11
1103.375
21
987.75
0
LINE
5
24C
100
AcDbEntity
8
cabinates
6
ByLayer
62
256
370
-1
100
AcDbLine
10
1803.375
20
987.75
11
2403.375
21
987.75
0
INSERT
5
24D
100
AcDbEntity
8
fixtures
6
ByLayer
62
256
370
-1
100
AcDbBlockReference
2
stove
10
1133.375
20
417.75
30
0
41
10
42
10
43
0
50
0
70
1
71
1
44
0
45
0
0
LINE
5
24E
100
AcDbEntity
8
cabinates
6
ByLayer
62
256
370
-1
100
AcDbLine
10
3203.375
20
2037.75
11
3203.375
21
2637.75
0
LINE
5
24F
100
AcDbEntity
8
cabinates
6
ByLayer
62
256
370
-1
100
AcDbLine
10
2403.375
20
2037.75
11
3203.375
21
2037.75
0
LINE
5
250
100
AcDbEntity
8
cabinates
6
ByLayer
62
256
370
-1
100
AcDbLine
10
3203.375
20
987.75
11
3203.375
21
387.75
0
LINE
5
251
100
AcDbEntity
8
cabinates
6
ByLayer
62
256
370
-1
100
AcDbLine
10
2403.375
20
987.75
11
3203.375
21
987.75
0
LINE
5
252
100
AcDbEntity
8
doors
6
ByLayer
62
256
370
-1
100
AcDbLine
10
6205.375
20
2637.75
11
6255.375
21
2637.75
0
LINE
5
253
100
AcDbEntity
8
doors
6
ByLayer
62
256
370
-1
100
AcDbLine
10
6255.375
20
2637.75
11
6255.375
21
1512.75
0
LINE
5
254
100
AcDbEntity
8
doors
6
ByLayer
62
256
370
-1
100
AcDbLine
10
6255.375
20
1512.75
11
6205.375
21
1512.75
0
LINE
5
255
100
AcDbEntity
8
doors
6
ByLayer
62
256
370
-1
100
AcDbLine
10
6205.375
20
1512.75
11
6205.375
21
2637.75
0
LINE
5
256
100
AcDbEntity
8
doors
6
ByLayer
62
256
370
-1
100
AcDbLine
10
6205.375
20
1512.75
11
6155.375
21
1512.75
0
LINE
5
257
100
AcDbEntity
8
doors
6
ByLayer
62
256
370
-1
100
AcDbLine
10
6155.375
20
1512.75
11
6155.375
21
387.75
0
LINE
5
258
100
AcDbEntity
8
doors
6
ByLayer
62
256
370
-1
100
AcDbLine
10
6155.375
20
387.75
11
6205.375
21
387.75
0
LINE
5
259
100
AcDbEntity
8
doors
6
ByLayer
62
256
370
-1
100
AcDbLine
10
6205.375
20
387.75
11
6205.375
21
1512.75
0
ENDBLK
5
D2
330
D0
100
AcDbEntity
8
0
100
AcDbBlockEnd
0
BLOCK
5
D4
330
D3
100
AcDbEntity
8
0
100
AcDbBlockBegin
2
door900
70
0
10
0
20
0
3
door900
1

0
LINE
5
25A
100
AcDbEntity
8
doors
6
ByLayer
62
256
370
-1
100
AcDbLine
10
0
20
1.13686837722e-13
11
-25
21
43.3012701892
0
LINE
5
25B
100
AcDbEntity
8
doors
6
ByLayer
62
256
370
-1
100
AcDbLine
10
-25
20
43.3012701892
11
-803.219120814
21
-406.003748701
0
LINE
5
25C
100
AcDbEntity
8
doors
6
ByLayer
62
256
370
-1
100
AcDbLine
10
0
20
1.13686837722e-13
11
-779.422863406
21
-450
0
ARC
5
25D
100
AcDbEntity
8
doors
6
ByLayer
62
256
370
-1
100
AcDbCircle
10
0
20
1.13686837722e-13
40
900
100
AcDbArc
50
180
51
210
0
MTEXT
5
25E
100
AcDbEntity
8
doors
6
ByLayer
62
256
370
-1
100
AcDbMText
10
-569.076689415
20
-145.817521173
30
0
40
75
41
356.25
71
1
72
1
1
900 mm
7
STANDARD
210
0
220
0
230
1
50
30
73
2
44
1
0
ENDBLK
5
D5
330
D3
100
AcDbEntity
8
0
100
AcDbBlockEnd
0
BLOCK
5
D7
330
D6
100
AcDbEntity
8
0
100
AcDbBlockBegin
2
slider1500
70
0
10
0
20
0
3
slider1500
1

0
LINE
5
25F
100
AcDbEntity
8
doors
6
ByLayer
62
256
370
-1
100
AcDbLine
10
738
20
85
11
738
21
55
0
LINE
5
260
100
AcDbEntity
8
doors
6
ByLayer
62
256
370
-1
100
AcDbLine
10
762
20
55
11
762
21
25
0
LINE
5
261
100
AcDbEntity
8
doors
6
ByLayer
62
256
370
-1
100
AcDbLine
10
1494
20
85
11
1494
21
55
0
LINE
5
262
100
AcDbEntity
8
doors
6
ByLayer
62
256
370
-1
100
AcDbLine
10
738
20
85
11
1494
21
85
0
LINE
5
263
100
AcDbEntity
8
doors
6
ByLayer
62
256
370
-1
100
AcDbLine
10
6
20
55
11
762
21
55
0
LINE
5
264
100
AcDbEntity
8
doors
6
ByLayer
62
256
370
-1
100
AcDbLine
10
6
20
25
11
762
21
25
0
LINE
5
265
100
AcDbEntity
8
doors
6
ByLayer
62
256
370
-1
100
AcDbLine
10
6
20
55
11
6
21
25
0
LINE
5
266
100
AcDbEntity
8
doors
6
ByLayer
62
256
370
-1
100
AcDbLine
10
762
20
55
11
1494
21
55
0
ENDBLK
5
D8
330
D6
100
AcDbEntity
8
0
100
AcDbBlockEnd
0
BLOCK
5
DA
330
D9
100
AcDbEntity
8
0
100
AcDbBlockBegin
2
slider2300
70
0
10
0
20
0
3
slider2300
1

0
LINE
5
267
100
AcDbEntity
8
doors
6
ByLayer
62
256
370
-1
100
AcDbLine
10
-14
20
-1189
11
-64
21
-1189
0
LINE
5
268
100
AcDbEntity
8
doors
6
ByLayer
62
256
370
-1
100
AcDbLine
10
-64
20
-1165
11
-114
21
-1165
0
LINE
5
269
100
AcDbEntity
8
doors
6
ByLayer
62
256
370
-1
100
AcDbLine
10
-64
20
-1177
11
-64
21
-10
0
LINE
5
26A
100
AcDbEntity
8
doors
6
ByLayer
62
256
370
-1
100
AcDbLine
10
-14
20
-1189
11
-14
21
-10
0
LINE
5
26B
100
AcDbEntity
8
doors
6
ByLayer
62
256
370
-1
100
AcDbLine
10
-114
20
-1165
11
-114
21
-2342
0
LINE
5
26C
100
AcDbEntity
8
doors
6
ByLayer
62
256
370
-1
100
AcDbLine
10
-64
20
-2342
11
-64
21
-1177
0
LINE
5
26D
100
AcDbEntity
8
doors
6
ByLayer
62
256
370
-1
100
AcDbLine
10
-114
20
-2342
11
-64
21
-2342
0
LINE
5
26E
100
AcDbEntity
8
doors
6
ByLayer
62
256
370
-1
100
AcDbLine
10
-64
20
-10
11
-14
21
-10
0
ENDBLK
5
DB
330
D9
100
AcDbEntity
8
0
100
AcDbBlockEnd
0
ENDSEC
0
SECTION
2
ENTITIES
0
DIMENSION
5
26F
100
AcDbEntity
8
dimension
6
ByLayer
62
256
370
-1
100
AcDbDimension
2
*D1
10
-60.7741735257
20
-1713.77542904
30
0
11
-70.7741735257
21
-1591.77542904
31
0
70
32
71
5
3
Standard
53
0
210
0
220
0
230
1
100
AcDbAlignedDimension
13
-22.6837179272
23
-1469.77542904
33
0
14
-22.6837179272
24
-1713.77542904
34
0
50
90
100
AcDbRotatedDimension
0
LINE
5
270
100
AcDbEntity
8
0
6
ByLayer
62
256
370
-1
100
AcDbLine
10
-13.2837179272
20
-1704.37542904
11
-13.2837179272
21
-1479.17542904
0
LINE
5
271
100
AcDbEntity
8
container
6
ByLayer
62
256
370
-1
100
AcDbLine
10
-18.2837179272
20
-1709.37542904
11
-18.2837179272
21
-1474.17542904
0
LINE
5
272
100
AcDbEntity
8
container
6
ByLayer
62
256
370
-1
100
AcDbLine
10
-22.6837179272
20
-1713.77542904
11
-22.6837179272
21
-1469.77542904
0
LINE
5
273
100
AcDbEntity
8
0
6
ByLayer
62
256
370
-1
100
AcDbLine
10
-13.2837179272
20
-1559.17542904
11
156.716282073
21
-1559.17542904
0
LINE
5
274
100
AcDbEntity
8
0
6
ByLayer
62
256
370
-1
100
AcDbLine
10
-13.2837179272
20
-1564.17542904
11
156.716282073
21
-1564.17542904
0
LINE
5
275
100
AcDbEntity
8
0
6
ByLayer
62
256
370
-1
100
AcDbLine
10
285.716282073
20
-1704.37542904
11
285.716282073
21
-1479.17542904
0
LINE
5
276
100
AcDbEntity
8
0
6
ByLayer
62
256
370
-1
100
AcDbLine
10
290.716282073
20
-1704.37542904
11
290.716282073
21
-1479.17542904
0
DIMENSION
5
277
100
AcDbEntity
8
dimension
6
ByLayer
62
256
370
-1
100
AcDbDimension
2
*D2
10
-39.7868556865
20
-1559.17542904
30
0
11
-49.7868556865
21
-1519.17542904
31
0
70
32
71
5
3
Standard
53
0
210
0
220
0
230
1
100
AcDbAlignedDimension
13
-13.2837179272
23
-1479.17542904
33
0
14
-13.2837179272
24
-1559.17542904
34
0
50
90
100
AcDbRotatedDimension
0
LINE
5
278
100
AcDbEntity
8
0
6
ByLayer
62
256
370
-1
100
AcDbLine
10
156.716282073
20
-1481.67542904
11
161.716282073
21
-1481.67542904
0
LINE
5
279
100
AcDbEntity
8
0
6
ByLayer
62
256
370
-1
100
AcDbLine
10
156.716282073
20
-1552.67542904
11
161.716282073
21
-1552.67542904
0
LINE
5
27A
100
AcDbEntity
8
0
6
ByLayer
62
256
370
-1
100
AcDbLine
10
156.716282073
20
-1481.67542904
11
156.716282073
21
-1479.17542904
0
LINE
5
27B
100
AcDbEntity
8
0
6
ByLayer
62
256
370
-1
100
AcDbLine
10
161.716282073
20
-1481.67542904
11
161.716282073
21
-1479.17542904
0
LINE
5
27C
100
AcDbEntity
8
0
6
ByLayer
62
256
370
-1
100
AcDbLine
10
156.716282073
20
-1566.67542904
11
161.716282073
21
-1566.67542904
0
LINE
5
27D
100
AcDbEntity
8
0
6
ByLayer
62
256
370
-1
100
AcDbLine
10
156.716282073
20
-1646.67542904
11
161.716282073
21
-1646.67542904
0
LINE
5
27E
100
AcDbEntity
8
0
6
ByLayer
62
256
370
-1
100
AcDbLine
10
161.716282073
20
-1566.67542904
11
161.716282073
21
-1552.67542904
0
LINE
5
27F
100
AcDbEntity
8
0
6
ByLayer
62
256
370
-1
100
AcDbLine
10
156.716282073
20
-1566.67542904
11
156.716282073
21
-1552.67542904
0
LINE
5
280
100
AcDbEntity
8
0
6
ByLayer
62
256
370
-1
100
AcDbLine
10
161.716282073
20
-1704.37542904
11
161.716282073
21
-1646.67542904
0
LINE
5
281
100
AcDbEntity
8
0
6
ByLayer
62
256
370
-1
100
AcDbLine
10
156.716282073
20
-1704.37542904
11
156.716282073
21
-1646.67542904
0
LINE
5
282
100
AcDbEntity
8
container
6
ByLayer
62
256
370
-1
100
AcDbLine
10
-22.6837179272
20
-1469.77542904
11
190.716282073
21
-1469.77542904
0
LINE
5
283
100
AcDbEntity
8
container
6
ByLayer
62
256
370
-1
100
AcDbLine
10
-18.2837179272
20
-1474.17542904
11
190.716282073
21
-1474.17542904
0
LINE
5
284
100
AcDbEntity
8
0
6
ByLayer
62
256
370
-1
100
AcDbLine
10
-13.2837179272
20
-1479.17542904
11
190.716282073
21
-1479.17542904
0
LINE
5
285
100
AcDbEntity
8
0
6
ByLayer
62
256
370
-1
100
AcDbLine
10
730.716282073
20
-1704.37542904
11
730.716282073
21
-1479.17542904
0
LINE
5
286
100
AcDbEntity
8
0
6
ByLayer
62
256
370
-1
100
AcDbLine
10
810.716282073
20
-1704.37542904
11
810.716282073
21
-1479.17542904
0
LINE
5
287
100
AcDbEntity
8
0
6
ByLayer
62
256
370
-1
100
AcDbLine
10
815.716282073
20
-1704.37542904
11
815.716282073
21
-1479.17542904
0
LINE
5
288
100
AcDbEntity
8
container
6
ByLayer
62
256
370
-1
100
AcDbLine
10
1197.31628208
20
-1474.77542904
11
1314.31628208
21
-1474.77542904
0
LINE
5
289
100
AcDbEntity
8
container
6
ByLayer
62
256
370
-1
100
AcDbLine
10
1197.31628208
20
-1708.77542904
11
1314.31628208
21
-1708.77542904
0
LINE
5
28A
100
AcDbEntity
8
container
6
ByLayer
62
256
370
-1
100
AcDbLine
10
1197.31628208
20
-1470.37542904
11
1314.31628208
21
-1470.37542904
0
LINE
5
28B
100
AcDbEntity
8
container
6
ByLayer
62
256
370
-1
100
AcDbLine
10
1197.31628208
20
-1713.17542904
11
1314.31628208
21
-1713.17542904
0
LINE
5
28C
100
AcDbEntity
8
container
6
ByLayer
62
256
370
-1
100
AcDbLine
10
1314.31628208
20
-1474.77542904
11
1314.31628208
21
-1470.37542904
0
LINE
5
28D
100
AcDbEntity
8
container
6
ByLayer
62
256
370
-1
100
AcDbLine
10
1314.31628208
20
-1713.17542904
11
1314.31628208
21
-1708.77542904
0
LINE
5
28E
100
AcDbEntity
8
0
6
ByLayer
62
256
370
-1
100
AcDbLine
10
1314.31628208
20
-1708.77542904
11
1314.31628208
21
-1474.77542904
0
LINE
5
28F
100
AcDbEntity
8
container
6
ByLayer
62
256
370
-1
100
AcDbLine
10
280.716282073
20
-1474.17542904
11
280.716282073
21
-1469.77542904
0
LINE
5
290
100
AcDbEntity
8
container
6
ByLayer
62
256
370
-1
100
AcDbLine
10
190.716282073
20
-1474.17542904
11
190.716282073
21
-1469.77542904
0
LINE
5
291
100
AcDbEntity
8
0
6
ByLayer
62
256
370
-1
100
AcDbLine
10
190.716282073
20
-1479.17542904
11
190.716282073
21
-1474.17542904
0
LINE
5
292
100
AcDbEntity
8
0
6
ByLayer
62
256
370
-1
100
AcDbLine
10
280.716282073
20
-1479.17542904
11
280.716282073
21
-1474.17542904
0
LINE
5
293
100
AcDbEntity
8
container
6
ByLayer
62
256
370
-1
100
AcDbLine
10
280.716282073
20
-1469.77542904
11
370.716282073
21
-1469.77542904
0
LINE
5
294
100
AcDbEntity
8
container
6
ByLayer
62
256
370
-1
100
AcDbLine
10
280.716282073
20
-1474.17542904
11
370.716282073
21
-1474.17542904
0
LINE
5
295
100
AcDbEntity
8
0
6
ByLayer
62
256
370
-1
100
AcDbLine
10
280.716282073
20
-1479.17542904
11
370.716282073
21
-1479.17542904
0
INSERT
5
296
100
AcDbEntity
8
eletrical
6
ByLayer
62
256
370
-1
100
AcDbBlockReference
2
outlet110HorUp-0
10
24.4937045096
20
-1559.17542904
30
0
41
0.1
42
0.1
43
0
50
0
70
1
71
1
44
0
45
0
0
INSERT
5
297
100
AcDbEntity
8
doors
6
ByLayer
62
256
370
-1
100
AcDbBlockReference
2
door700
10
156.716282073
20
-1481.67542904
30
0
41
0.1
42
0.1
43
0
50
0
70
1
71
1
44
0
45
0
0
INSERT
5
298
100
AcDbEntity
8
doors
6
ByLayer
62
256
370
-1
100
AcDbBlockReference
2
door800
10
156.716282073
20
-1566.67542904
30
0
41
0.1
42
0.1
43
0
50
0
70
1
71
1
44
0
45
0
0
INSERT
5
299
100
AcDbEntity
8
tatami
6
ByLayer
62
256
370
-1
100
AcDbBlockReference
2
KyotoKyomaTatamiVertical-8
10
415.216282073
20
-1687.27542904
30
0
41
0.1
42
0.1
43
0
50
0
70
1
71
1
44
0
45
0
0
INSERT
5
29A
100
AcDbEntity
8
tatami
6
ByLayer
62
256
370
-1
100
AcDbBlockReference
2
KyotoKyomaTatamiVertical-9
10
701.716282073
20
-1687.27542904
30
0
41
0.1
42
0.1
43
0
50
0
70
1
71
1
44
0
45
0
0
INSERT
5
29B
100
AcDbEntity
8
tatami
6
ByLayer
62
256
370
-1
100
AcDbBlockReference
2
KyotoKyomaTatami-0
10
415.216282073
20
-1687.27542904
30
0
41
0.1
42
0.1
43
0
50
0
70
1
71
1
44
0
45
0
0
INSERT
5
29C
100
AcDbEntity
8
tatami
6
ByLayer
62
256
370
-1
100
AcDbBlockReference
2
KyotoKyomaTatami-1
10
415.216282073
20
-1591.77542904
30
0
41
0.1
42
0.1
43
0
50
0
70
1
71
1
44
0
45
0
0
INSERT
5
29D
100
AcDbEntity
8
fixtures
6
ByLayer
62
256
370
-1
100
AcDbBlockReference
2
washer_sentaki
10
232.084808946
20
-1703.37542904
30
0
41
0.1
42
0.1
43
0
50
0
70
1
71
1
44
0
45
0
0
LINE
5
29E
100
AcDbEntity
8
container
6
ByLayer
62
256
370
-1
100
AcDbLine
10
429.584653866
20
-1472.39788614
11
429.684653866
21
-1472.39788614
0
LINE
5
29F
100
AcDbEntity
8
container
6
ByLayer
62
256
370
-1
100
AcDbLine
10
1184.91628208
20
-1709.37542904
11
1184.91628208
21
-1474.17542904
0
LINE
5
2A0
100
AcDbEntity
8
container
6
ByLayer
62
256
370
-1
100
AcDbLine
10
1197.31628208
20
-1713.77542904
11
1197.31628208
21
-1469.77542904
0
MTEXT
5
2A1
100
AcDbEntity
8
text
6
ByLayer
62
256
370
-1
100
AcDbMText
10
1079.58465387
20
-1542.39788614
30
0
40
40
41
57.7777777778
71
1
72
1
1
kit
7
standard
210
0
220
0
230
1
50
0
73
2
44
1
0
DIMENSION
5
2A2
100
AcDbEntity
8
dimension
6
ByLayer
62
256
370
-1
100
AcDbDimension
2
*D3
10
1197.31628208
20
-1379.64102669
30
0
11
587.316282074
21
-1369.64102669
31
0
70
32
71
5
72
0
3
Standard
53
0
210
0
220
0
230
1
100
AcDbAlignedDimension
13
-22.6837179272
23
-1469.77542904
33
0
14
1197.31628208
24
-1469.77542904
34
0
100
AcDbRotatedDimension
0
DIMENSION
5
2A3
100
AcDbEntity
8
dimension
6
ByLayer
62
256
370
-1
100
AcDbDimension
2
*D4
10
-13.2837179272
20
-1403.21393628
30
0
11
-17.9837179272
21
-1393.21393628
31
0
70
32
71
5
72
0
3
Standard
53
0
210
0
220
0
230
1
100
AcDbAlignedDimension
13
-22.6837179272
23
-1469.77542904
33
0
14
-13.2837179272
24
-1469.77542904
34
0
100
AcDbRotatedDimension
0
DIMENSION
5
2A4
100
AcDbEntity
8
dimension
6
ByLayer
62
256
370
-1
100
AcDbDimension
2
*D5
10
156.716282073
20
-1403.20353
30
0
11
71.7162820727
21
-1393.20353
31
0
70
32
71
5
72
0
3
Standard
53
0
210
0
220
0
230
1
100
AcDbAlignedDimension
13
-13.2837179272
23
-1469.77542904
33
0
14
156.716282073
24
-1469.77542904
34
0
100
AcDbRotatedDimension
0
DIMENSION
5
2A5
100
AcDbEntity
8
dimension
6
ByLayer
62
256
370
-1
100
AcDbDimension
2
*D6
10
285.716282073
20
-1403.64753114
30
0
11
223.716282073
21
-1393.64753114
31
0
70
32
71
5
72
0
3
Standard
53
0
210
0
220
0
230
1
100
AcDbAlignedDimension
13
161.716282073
23
-1469.77542904
33
0
14
285.716282073
24
-1469.77542904
34
0
100
AcDbRotatedDimension
0
DIMENSION
5
2A6
100
AcDbEntity
8
dimension
6
ByLayer
62
256
370
-1
100
AcDbDimension
2
*D7
10
730.716282073
20
-1403.64753114
30
0
11
510.716282073
21
-1393.64753114
31
0
70
32
71
5
72
0
3
Standard
53
0
210
0
220
0
230
1
100
AcDbAlignedDimension
13
290.716282073
23
-1469.77542904
33
0
14
730.716282073
24
-1469.77542904
34
0
100
AcDbRotatedDimension
0
DIMENSION
5
2A7
100
AcDbEntity
8
dimension
6
ByLayer
62
256
370
-1
100
AcDbDimension
2
*D8
10
810.716282073
20
-1403.64753114
30
0
11
770.716282073
21
-1393.64753114
31
0
70
32
71
5
72
0
3
Standard
53
0
210
0
220
0
230
1
100
AcDbAlignedDimension
13
730.716282073
23
-1469.77542904
33
0
14
810.716282073
24
-1469.77542904
34
0
100
AcDbRotatedDimension
0
DIMENSION
5
2A8
100
AcDbEntity
8
dimension
6
ByLayer
62
256
370
-1
100
AcDbDimension
2
*D9
10
1197.31628208
20
-1400.97143787
30
0
11
1006.51628207
21
-1390.97143787
31
0
70
32
71
5
72
0
3
Standard
53
0
210
0
220
0
230
1
100
AcDbAlignedDimension
13
815.716282073
23
-1469.77542904
33
0
14
1197.31628208
24
-1469.77542904
34
0
100
AcDbRotatedDimension
0
LINE
5
2A9
100
AcDbEntity
8
0
6
ByLayer
62
256
370
-1
100
AcDbLine
10
435.716282073
20
-1479.17542904
11
435.716282073
21
-1474.17542904
0
LINE
5
2AA
100
AcDbEntity
8
0
6
ByLayer
62
256
370
-1
100
AcDbLine
10
585.716282073
20
-1479.17542904
11
585.716282073
21
-1474.17542904
0
LINE
5
2AB
100
AcDbEntity
8
container
6
ByLayer
62
256
370
-1
100
AcDbLine
10
435.716282073
20
-1474.17542904
11
435.716282073
21
-1469.77542904
0
LINE
5
2AC
100
AcDbEntity
8
container
6
ByLayer
62
256
370
-1
100
AcDbLine
10
585.716282073
20
-1474.17542904
11
585.716282073
21
-1469.77542904
0
LINE
5
2AD
100
AcDbEntity
8
container
6
ByLayer
62
256
370
-1
100
AcDbLine
10
370.716282073
20
-1469.77542904
11
435.716282073
21
-1469.77542904
0
LINE
5
2AE
100
AcDbEntity
8
container
6
ByLayer
62
256
370
-1
100
AcDbLine
10
370.716282073
20
-1474.17542904
11
435.716282073
21
-1474.17542904
0
LINE
5
2AF
100
AcDbEntity
8
0
6
ByLayer
62
256
370
-1
100
AcDbLine
10
370.716282073
20
-1479.17542904
11
435.716282073
21
-1479.17542904
0
DIMENSION
5
2B0
100
AcDbEntity
8
dimension
6
ByLayer
62
256
370
-1
100
AcDbDimension
2
*D10
10
435.716282073
20
-1430.74720985
30
0
11
363.216282073
21
-1420.74720985
31
0
70
32
71
5
72
0
3
Standard
53
0
210
0
220
0
230
1
100
AcDbAlignedDimension
13
290.716282073
23
-1469.77542904
33
0
14
435.716282073
24
-1469.77542904
34
0
100
AcDbRotatedDimension
0
DIMENSION
5
2B1
100
AcDbEntity
8
dimension
6
ByLayer
62
256
370
-1
100
AcDbDimension
2
*D11
10
585.716282073
20
-1430.53041242
30
0
11
510.716282073
21
-1420.53041242
31
0
70
32
71
5
72
0
3
Standard
53
0
210
0
220
0
230
1
100
AcDbAlignedDimension
13
435.716282073
23
-1469.77542904
33
0
14
585.716282073
24
-1469.77542904
34
0
100
AcDbRotatedDimension
0
LINE
5
2B2
100
AcDbEntity
8
container
6
ByLayer
62
256
370
-1
100
AcDbLine
10
435.716282073
20
-1709.37542904
11
435.716282073
21
-1713.77542904
0
LINE
5
2B3
100
AcDbEntity
8
container
6
ByLayer
62
256
370
-1
100
AcDbLine
10
585.716282073
20
-1709.37542904
11
585.716282073
21
-1713.77542904
0
LINE
5
2B4
100
AcDbEntity
8
0
6
ByLayer
62
256
370
-1
100
AcDbLine
10
435.716282073
20
-1704.37542904
11
435.716282073
21
-1709.37542904
0
LINE
5
2B5
100
AcDbEntity
8
0
6
ByLayer
62
256
370
-1
100
AcDbLine
10
585.716282073
20
-1704.37542904
11
585.716282073
21
-1709.37542904
0
LINE
5
2B6
100
AcDbEntity
8
cabinates
6
ByLayer
62
256
370
-1
100
AcDbLine
10
875.716282073
20
-1539.37542904
11
895.716282073
21
-1539.37542904
0
INSERT
5
2B7
100
AcDbEntity
8
fixtures
6
ByLayer
62
256
370
-1
100
AcDbBlockReference
2
refer
10
960.716282073
20
-1484.37542904
30
0
41
1
42
1
43
0
50
0
70
1
71
1
44
0
45
0
0
LINE
5
2B8
100
AcDbEntity
8
cabinates
6
ByLayer
62
256
370
-1
100
AcDbLine
10
895.716282073
20
-1539.37542904
11
895.716282073
21
-1479.37542904
0
LINE
5
2B9
100
AcDbEntity
8
0
6
ByLayer
62
256
370
-1
100
AcDbLine
10
1155.31628208
20
-1479.17542904
11
1155.31628208
21
-1474.17542904
0
LINE
5
2BA
100
AcDbEntity
8
container
6
ByLayer
62
256
370
-1
100
AcDbLine
10
1155.31628208
20
-1474.17542904
11
1155.31628208
21
-1469.77542904
0
LINE
5
2BB
100
AcDbEntity
8
container
6
ByLayer
62
256
370
-1
100
AcDbLine
10
1155.31628208
20
-1469.77542904
11
1197.31628208
21
-1469.77542904
0
LINE
5
2BC
100
AcDbEntity
8
container
6
ByLayer
62
256
370
-1
100
AcDbLine
10
1155.31628208
20
-1474.17542904
11
1197.31628208
21
-1474.17542904
0
LINE
5
2BD
100
AcDbEntity
8
0
6
ByLayer
62
256
370
-1
100
AcDbLine
10
1155.31628208
20
-1479.17542904
11
1184.91628208
21
-1479.17542904
0
DIMENSION
5
2BE
100
AcDbEntity
8
dimension
6
ByLayer
62
256
370
-1
100
AcDbDimension
2
*D12
10
1155.31628208
20
-1430.48425034
30
0
11
1176.31628208
21
-1420.48425034
31
0
70
32
71
5
72
0
3
Standard
53
0
210
0
220
0
230
1
100
AcDbAlignedDimension
13
1197.31628208
23
-1469.77542904
33
0
14
1155.31628208
24
-1469.77542904
34
0
100
AcDbRotatedDimension
0
LINE
5
2BF
100
AcDbEntity
8
cabinates
6
ByLayer
62
256
370
-1
100
AcDbLine
10
875.716282073
20
-1644.37542904
11
895.716282073
21
-1644.37542904
0
INSERT
5
2C0
100
AcDbEntity
8
fixtures
6
ByLayer
62
256
370
-1
100
AcDbBlockReference
2
stove
10
817.716282073
20
-1561.37542904
30
0
41
1
42
1
43
0
50
270
70
1
71
1
44
0
45
0
0
LINE
5
2C1
100
AcDbEntity
8
cabinates
6
ByLayer
62
256
370
-1
100
AcDbLine
10
875.716282073
20
-1559.37542904
11
815.716282073
21
-1559.37542904
0
LINE
5
2C2
100
AcDbEntity
8
cabinates
6
ByLayer
62
256
370
-1
100
AcDbLine
10
875.716282073
20
-1627.37542904
11
815.716282073
21
-1627.37542904
0
LINE
5
2C3
100
AcDbEntity
8
cabinates
6
ByLayer
62
256
370
-1
100
AcDbLine
10
875.716282073
20
-1559.37542904
11
875.716282073
21
-1539.37542904
0
LINE
5
2C4
100
AcDbEntity
8
cabinates
6
ByLayer
62
256
370
-1
100
AcDbLine
10
875.716282073
20
-1644.37542904
11
875.716282073
21
-1627.37542904
0
INSERT
5
2C5
100
AcDbEntity
8
fixtures
6
ByLayer
62
256
370
-1
100
AcDbBlockReference
2
sink
10
901.068999816
20
-1686.37542904
30
0
41
1
42
1
43
0
50
90
70
1
71
1
44
0
45
0
0
LINE
5
2C6
100
AcDbEntity
8
cabinates
6
ByLayer
62
256
370
-1
100
AcDbLine
10
895.716282073
20
-1644.37542904
11
972.068999816
21
-1644.37542904
0
LINE
5
2C7
100
AcDbEntity
8
cabinates
6
ByLayer
62
256
370
-1
100
AcDbLine
10
972.068999816
20
-1644.37542904
11
972.068999816
21
-1704.37542904
0
INSERT
5
2C8
100
AcDbEntity
8
doors
6
ByLayer
62
256
370
-1
100
AcDbBlockReference
2
door900
10
280.716282073
20
-1479.17542904
30
0
41
0.1
42
0.1
43
0
50
0
70
1
71
1
44
0
45
0
0
LINE
5
2C9
100
AcDbEntity
8
container
6
ByLayer
62
256
370
-1
100
AcDbLine
10
-18.2837179272
20
-1709.37542904
11
435.716282073
21
-1709.37542904
0
LINE
5
2CA
100
AcDbEntity
8
0
6
ByLayer
62
256
370
-1
100
AcDbLine
10
-13.2837179272
20
-1704.37542904
11
435.716282073
21
-1704.37542904
0
LINE
5
2CB
100
AcDbEntity
8
container
6
ByLayer
62
256
370
-1
100
AcDbLine
10
-22.6837179272
20
-1713.77542904
11
435.694326915
21
-1713.77542904
0
LINE
5
2CC
100
AcDbEntity
8
container
6
DASHDOT2
62
256
370
-1
100
AcDbLine
10
435.694326915
20
-1713.77542904
11
585.716282073
21
-1713.77542904
0
LINE
5
2CD
100
AcDbEntity
8
container
6
DASHDOT2
62
256
370
-1
100
AcDbLine
10
435.716282073
20
-1469.77542904
11
585.716282073
21
-1469.77542904
0
LINE
5
2CE
100
AcDbEntity
8
container
6
ByLayer
62
256
370
-1
100
AcDbLine
10
585.716282073
20
-1469.77542904
11
1005.31628208
21
-1469.77542904
0
LINE
5
2CF
100
AcDbEntity
8
container
6
ByLayer
62
256
370
-1
100
AcDbLine
10
585.716282073
20
-1474.17542904
11
1005.31628208
21
-1474.17542904
0
LINE
5
2D0
100
AcDbEntity
8
0
6
ByLayer
62
256
370
-1
100
AcDbLine
10
585.716282073
20
-1479.17542904
11
1005.31628208
21
-1479.17542904
0
LINE
5
2D1
100
AcDbEntity
8
container
6
ByLayer
62
256
370
-1
100
AcDbLine
10
1005.31628208
20
-1474.17542904
11
1005.31628208
21
-1469.77542904
0
LINE
5
2D2
100
AcDbEntity
8
walls
6
ByLayer
62
256
370
-1
100
AcDbLine
10
1005.31628208
20
-1479.17542904
11
1005.31628208
21
-1474.17542904
0
LINE
5
2D3
100
AcDbEntity
8
doors
6
ByLayer
62
256
370
-1
100
AcDbLine
10
1079.11628208
20
-1475.27542904
11
1079.11628208
21
-1472.27542904
0
LINE
5
2D4
100
AcDbEntity
8
doors
6
ByLayer
62
256
370
-1
100
AcDbLine
10
1081.51628208
20
-1478.27542904
11
1081.51628208
21
-1475.27542904
0
LINE
5
2D5
100
AcDbEntity
8
doors
6
ByLayer
62
256
370
-1
100
AcDbLine
10
1079.11628208
20
-1472.27542904
11
1154.71628208
21
-1472.27542904
0
LINE
5
2D6
100
AcDbEntity
8
doors
6
ByLayer
62
256
370
-1
100
AcDbLine
10
1154.71628208
20
-1475.27542904
11
1154.71628208
21
-1472.27542904
0
LINE
5
2D7
100
AcDbEntity
8
doors
6
ByLayer
62
256
370
-1
100
AcDbLine
10
1005.91628208
20
-1475.27542904
11
1154.71628208
21
-1475.27542904
0
LINE
5
2D8
100
AcDbEntity
8
doors
6
ByLayer
62
256
370
-1
100
AcDbLine
10
1005.91628208
20
-1478.27542904
11
1081.51628208
21
-1478.27542904
0
LINE
5
2D9
100
AcDbEntity
8
doors
6
ByLayer
62
256
370
-1
100
AcDbLine
10
1005.91628208
20
-1478.27542904
11
1005.91628208
21
-1475.27542904
0
LINE
5
2DA
100
AcDbEntity
8
container
6
ByLayer
62
256
370
-1
100
AcDbLine
10
585.716282073
20
-1713.77542904
11
1005.31628208
21
-1713.77542904
0
LINE
5
2DB
100
AcDbEntity
8
container
6
ByLayer
62
256
370
-1
100
AcDbLine
10
585.716282073
20
-1709.37542904
11
1005.31628208
21
-1709.37542904
0
LINE
5
2DC
100
AcDbEntity
8
0
6
ByLayer
62
256
370
-1
100
AcDbLine
10
585.716282073
20
-1704.37542904
11
1005.31628208
21
-1704.37542904
0
LINE
5
2DD
100
AcDbEntity
8
0
6
ByLayer
62
256
370
-1
100
AcDbLine
10
1155.31628208
20
-1704.37542904
11
1184.91628208
21
-1704.37542904
0
LINE
5
2DE
100
AcDbEntity
8
container
6
ByLayer
62
256
370
-1
100
AcDbLine
10
1155.31628208
20
-1709.37542904
11
1197.31628208
21
-1709.37542904
0
LINE
5
2DF
100
AcDbEntity
8
container
6
ByLayer
62
256
370
-1
100
AcDbLine
10
1155.31628208
20
-1713.77542904
11
1197.31628208
21
-1713.77542904
0
LINE
5
2E0
100
AcDbEntity
8
container
6
ByLayer
62
256
370
-1
100
AcDbLine
10
1155.31628208
20
-1713.77542904
11
1155.31628208
21
-1709.37542904
0
LINE
5
2E1
100
AcDbEntity
8
container
6
ByLayer
62
256
370
-1
100
AcDbLine
10
1005.31628208
20
-1713.77542904
11
1005.31628208
21
-1709.37542904
0
LINE
5
2E2
100
AcDbEntity
8
0
6
ByLayer
62
256
370
-1
100
AcDbLine
10
1005.31628208
20
-1709.37542904
11
1005.31628208
21
-1704.37542904
0
LINE
5
2E3
100
AcDbEntity
8
0
6
ByLayer
62
256
370
-1
100
AcDbLine
10
1155.31628208
20
-1709.37542904
11
1155.31628208
21
-1704.37542904
0
LINE
5
2E4
100
AcDbEntity
8
container
6
DASHDOT2
62
256
370
-1
100
AcDbLine
10
1005.31628208
20
-1713.77542904
11
1155.31628208
21
-1713.77542904
0
LINE
5
2E5
100
AcDbEntity
8
container
6
DASHDOT2
62
256
370
-1
100
AcDbLine
10
1005.31628208
20
-1469.77542904
11
1155.31628208
21
-1469.77542904
0
INSERT
5
2E6
100
AcDbEntity
8
container
6
ByLayer
62
256
370
-1
100
AcDbBlockReference
2
slider1500
10
1005.31628208
20
-1713.77542904
30
0
41
0.1
42
0.1
43
0
50
0
70
1
71
1
44
0
45
0
0
INSERT
5
2E7
100
AcDbEntity
8
dimension
6
ByLayer
62
256
370
-1
100
AcDbBlockReference
2
slider2300
10
1197.31628208
20
-1474.17542904
30
0
41
0.1
42
0.1
43
0
50
0
70
1
71
1
44
0
45
0
0
INSERT
5
2E8
100
AcDbEntity
8
dimension
6
ByLayer
62
256
370
-1
100
AcDbBlockReference
2
slider1500
10
435.716282073
20
-1713.77542904
30
0
41
0.1
42
0.1
43
0
50
0
70
1
71
1
44
0.1
45
0.1
0
INSERT
5
2E9
100
AcDbEntity
8
dimension
6
ByLayer
62
256
370
-1
100
AcDbBlockReference
2
slider1500
10
585.716282073
20
-1469.77542904
30
0
41
0.1
42
0.1
43
0
50
180
70
1
71
1
44
0.1
45
0.1
0
DIMENSION
5
2EA
100
AcDbEntity
8
dimension
6
ByLayer
62
256
370
-1
100
AcDbDimension
2
*D13
10
172.268786077
20
-1481.67542904
30
0
11
162.268786077
21
-1517.17542904
31
0
70
32
71
5
3
Standard
53
0
210
0
220
0
230
1
100
AcDbAlignedDimension
13
161.716282073
23
-1552.67542904
33
0
14
161.540891514
24
-1481.67542904
34
0
50
90
100
AcDbRotatedDimension
0
INSERT
5
2EB
100
AcDbEntity
8
fixtures
6
ByLayer
62
256
370
-1
100
AcDbBlockReference
2
WC
10
-10.7837179272
20
-1540.29824221
30
0
41
0.1
42
0.1
43
0
50
0
70
1
71
1
44
0
45
0
0
INSERT
5
2EC
100
AcDbEntity
8
fixtures
6
ByLayer
62
256
370
-1
100
AcDbBlockReference
2
jtub
10
-12.6835757722
20
-1665.7082639
30
0
41
0.1
42
0.1
43
0
50
0
70
1
71
1
44
0
45
0
0
DIMENSION
5
2ED
100
AcDbEntity
8
dimension
6
ByLayer
62
256
370
-1
100
AcDbDimension
2
*D14
10
1005.31628208
20
-1430.59093306
30
0
11
1080.31628208
21
-1420.59093306
31
0
70
32
71
5
3
Standard
53
0
210
0
220
0
230
1
100
AcDbAlignedDimension
13
1155.31628208
23
-1469.77542904
33
0
14
1005.31628208
24
-1469.77542904
34
0
100
AcDbRotatedDimension
0
ENDSEC
0
SECTION
2
OBJECTS
0
DICTIONARY
5
C
330
0
100
AcDbDictionary
281
1
3
ACAD_GROUP
350
D
0
DICTIONARY
5
D
330
C
100
AcDbDictionary
281
1
0
ENDSEC
0
EOF
