999
dxfrw 0.5.11
0
SECTION
2
HEADER
9
$ACADVER
1
AC1021
9
$HANDSEED
5
20000
9
$DWGCODEPAGE
3
ANSI_1252
9
$INSBASE
10
0
20
0
30
0
9
$EXTMIN
10
-422.683717927
20
-6288.88233986
30
0
9
$EXTMAX
10
12947.3162821
20
4811.73259271
30
0
9
$LIMMIN
10
0
20
0
9
$LIMMAX
10
420
20
297
9
$ORTHOMODE
70
0
9
$LTSCALE
40
1
9
$TEXTSTYLE
7
STANDARD
9
$CLAYER
8
bogus
9
$DIMASZ
40
30
9
$DIMLFAC
40
1
9
$DIMSCALE
40
1
9
$DIMEXO
40
10
9
$DIMEXE
40
50
9
$DIMTXT
40
100
9
$DIMTSZ
40
0
9
$DIMAUNIT
70
0
9
$DIMADEC
70
2
9
$DIMLUNIT
70
2
9
$DIMSTYLE
2
STANDARD
9
$DIMGAP
40
50
9
$DIMTIH
70
0
9
$LUNITS
70
2
9
$LUPREC
70
4
9
$AUNITS
70
0
9
$AUPREC
70
2
9
$SPLINESEGS
70
8
9
$GRIDMODE
70
1
9
$SNAPSTYLE
70
0
9
$GRIDUNIT
10
0
20
0
9
$PINSBASE
10
0
20
0
30
0
9
$PLIMMIN
10
0
20
0
9
$PLIMMAX
10
210
20
297
9
$INSUNITS
70
4
9
$PSVPSCALE
40
1
0
ENDSEC
0
SECTION
2
CLASSES
0
ENDSEC
0
SECTION
2
TABLES
0
TABLE
2
VPORT
5
8
330
0
100
AcDbSymbolTable
70
1
0
VPORT
5
31
330
2
100
AcDbSymbolTableRecord
100
AcDbViewportTableRecord
2
*ACTIVE
70
0
10
0
20
0
11
1
21
1
12
19363.4538843
22
4593.37556355
13
0
23
0
14
10
24
10
15
10
25
10
16
0
26
0
36
1
17
0
27
0
37
0
40
29064.979859
41
2.10626702997
42
50
43
0
44
0
50
0
51
0
71
0
72
100
73
1
74
3
75
0
76
1
77
0
78
0
281
0
65
1
110
0
120
0
130
0
111
1
121
0
131
0
112
0
122
1
132
0
79
0
146
0
348
10020
60
7
61
5
292
1
282
1
141
0
142
0
63
250
421
3358443
0
ENDTAB
0
TABLE
2
LTYPE
5
5
330
0
100
AcDbSymbolTable
70
4
0
LTYPE
5
14
330
5
100
AcDbSymbolTableRecord
100
AcDbLinetypeTableRecord
2
ByBlock
70
0
3

72
65
73
0
40
0
0
LTYPE
5
15
330
5
100
AcDbSymbolTableRecord
100
AcDbLinetypeTableRecord
2
ByLayer
70
0
3

72
65
73
0
40
0
0
LTYPE
5
16
330
5
100
AcDbSymbolTableRecord
100
AcDbLinetypeTableRecord
2
Continuous
70
0
3
Solid line
72
65
73
0
40
0
0
LTYPE
5
32
330
5
100
AcDbSymbolTableRecord
100
AcDbLinetypeTableRecord
2
DOT
70
0
3
Dot . . . . . . . . . . . . . . . . . . . . . .
72
65
73
2
40
6.35
49
0
74
0
49
-6.35
74
0
0
LTYPE
5
33
330
5
100
AcDbSymbolTableRecord
100
AcDbLinetypeTableRecord
2
DOT2
70
0
3
Dot (.5x) .....................................
72
65
73
2
40
3.175
49
0
74
0
49
-3.175
74
0
0
LTYPE
5
34
330
5
100
AcDbSymbolTableRecord
100
AcDbLinetypeTableRecord
2
DOTX2
70
0
3
Dot (2x) .  .  .  .  .  .  .  .  .  .  .  .  .
72
65
73
2
40
12.7
49
0
74
0
49
-12.7
74
0
0
LTYPE
5
35
330
5
100
AcDbSymbolTableRecord
100
AcDbLinetypeTableRecord
2
DASHED
70
0
3
Dot . . . . . . . . . . . . . . . . . . . . . .
72
65
73
2
40
19.05
49
12.7
74
0
49
-6.35
74
0
0
LTYPE
5
36
330
5
100
AcDbSymbolTableRecord
100
AcDbLinetypeTableRecord
2
DASHED2
70
0
3
Dashed (.5x) _ _ _ _ _ _ _ _ _ _ _ _ _ _ _ _ _
72
65
73
2
40
9.525
49
6.35
74
0
49
-3.175
74
0
0
LTYPE
5
37
330
5
100
AcDbSymbolTableRecord
100
AcDbLinetypeTableRecord
2
DASHEDX2
70
0
3
Dashed (2x) ____  ____  ____  ____  ____  ___
72
65
73
2
40
38.1
49
25.4
74
0
49
-12.7
74
0
0
LTYPE
5
38
330
5
100
AcDbSymbolTableRecord
100
AcDbLinetypeTableRecord
2
DASHDOT
70
0
3
Dash dot __ . __ . __ . __ . __ . __ . __ . __
72
65
73
4
40
25.4
49
12.7
74
0
49
-6.35
74
0
49
0
74
0
49
-6.35
74
0
0
LTYPE
5
39
330
5
100
AcDbSymbolTableRecord
100
AcDbLinetypeTableRecord
2
DASHDOT2
70
0
3
Dash dot (.5x) _._._._._._._._._._._._._._._.
72
65
73
4
40
12.7
49
6.35
74
0
49
-3.175
74
0
49
0
74
0
49
-3.175
74
0
0
LTYPE
5
3A
330
5
100
AcDbSymbolTableRecord
100
AcDbLinetypeTableRecord
2
DASHDOTX2
70
0
3
Dash dot (2x) ____  .  ____  .  ____  .  ___
72
65
73
4
40
50.8
49
25.4
74
0
49
-12.7
74
0
49
0
74
0
49
-12.7
74
0
0
LTYPE
5
3B
330
5
100
AcDbSymbolTableRecord
100
AcDbLinetypeTableRecord
2
DIVIDE
70
0
3
Divide ____ . . ____ . . ____ . . ____ . . ____
72
65
73
6
40
31.75
49
12.7
74
0
49
-6.35
74
0
49
0
74
0
49
-6.35
74
0
49
0
74
0
49
-6.35
74
0
0
LTYPE
5
3C
330
5
100
AcDbSymbolTableRecord
100
AcDbLinetypeTableRecord
2
DIVIDE2
70
0
3
Divide (.5x) __..__..__..__..__..__..__..__.._
72
65
73
6
40
15.875
49
6.35
74
0
49
-3.175
74
0
49
0
74
0
49
-3.175
74
0
49
0
74
0
49
-3.175
74
0
0
LTYPE
5
3D
330
5
100
AcDbSymbolTableRecord
100
AcDbLinetypeTableRecord
2
DIVIDEX2
70
0
3
Divide (2x) ________  .  .  ________  .  .  _
72
65
73
6
40
63.5
49
25.4
74
0
49
-12.7
74
0
49
0
74
0
49
-12.7
74
0
49
0
74
0
49
-12.7
74
0
0
LTYPE
5
3E
330
5
100
AcDbSymbolTableRecord
100
AcDbLinetypeTableRecord
2
BORDER
70
0
3
Border __ __ . __ __ . __ __ . __ __ . __ __ .
72
65
73
6
40
44.45
49
12.7
74
0
49
-6.35
74
0
49
12.7
74
0
49
-6.35
74
0
49
0
74
0
49
-6.35
74
0
0
LTYPE
5
3F
330
5
100
AcDbSymbolTableRecord
100
AcDbLinetypeTableRecord
2
BORDER2
70
0
3
Border (.5x) __.__.__.__.__.__.__.__.__.__.__.
72
65
73
6
40
22.225
49
6.35
74
0
49
-3.175
74
0
49
6.35
74
0
49
-3.175
74
0
49
0
74
0
49
-3.175
74
0
0
LTYPE
5
40
330
5
100
AcDbSymbolTableRecord
100
AcDbLinetypeTableRecord
2
BORDERX2
70
0
3
Border (2x) ____  ____  .  ____  ____  .  ___
72
65
73
6
40
88.9
49
25.4
74
0
49
-12.7
74
0
49
25.4
74
0
49
-12.7
74
0
49
0
74
0
49
-12.7
74
0
0
LTYPE
5
41
330
5
100
AcDbSymbolTableRecord
100
AcDbLinetypeTableRecord
2
CENTER
70
0
3
Center ____ _ ____ _ ____ _ ____ _ ____ _ ____
72
65
73
4
40
50.8
49
31.75
74
0
49
-6.35
74
0
49
6.35
74
0
49
-6.35
74
0
0
LTYPE
5
42
330
5
100
AcDbSymbolTableRecord
100
AcDbLinetypeTableRecord
2
CENTER2
70
0
3
Center (.5x) ___ _ ___ _ ___ _ ___ _ ___ _ ___
72
65
73
4
40
28.575
49
19.05
74
0
49
-3.175
74
0
49
3.175
74
0
49
-3.175
74
0
0
LTYPE
5
43
330
5
100
AcDbSymbolTableRecord
100
AcDbLinetypeTableRecord
2
CENTERX2
70
0
3
Center (2x) ________  __  ________  __  _____
72
65
73
4
40
101.6
49
63.5
74
0
49
-12.7
74
0
49
12.7
74
0
49
-12.7
74
0
0
ENDTAB
0
TABLE
2
LAYER
5
2
330
0
100
AcDbSymbolTable
70
1
0
LAYER
5
10
330
2
100
AcDbSymbolTableRecord
100
AcDbLayerTableRecord
2
0
70
0
62
7
6
CONTINUOUS
370
0
390
F
0
LAYER
5
44
330
2
100
AcDbSymbolTableRecord
100
AcDbLayerTableRecord
2
bogus
70
0
62
2
6
CONTINUOUS
370
0
390
F
0
LAYER
5
45
330
2
100
AcDbSymbolTableRecord
100
AcDbLayerTableRecord
2
cabinates
70
0
62
253
6
CONTINUOUS
370
0
390
F
0
LAYER
5
46
330
2
100
AcDbSymbolTableRecord
100
AcDbLayerTableRecord
2
container
70
0
62
7
6
CONTINUOUS
370
0
390
F
0
LAYER
5
47
330
2
100
AcDbSymbolTableRecord
100
AcDbLayerTableRecord
2
dimension
70
0
62
5
6
CONTINUOUS
370
0
390
F
0
LAYER
5
48
330
2
100
AcDbSymbolTableRecord
100
AcDbLayerTableRecord
2
doors
70
0
62
6
6
CONTINUOUS
370
-3
390
F
0
LAYER
5
49
330
2
100
AcDbSymbolTableRecord
100
AcDbLayerTableRecord
2
eletrical
70
0
62
136
6
CONTINUOUS
370
-3
390
F
0
LAYER
5
4A
330
2
100
AcDbSymbolTableRecord
100
AcDbLayerTableRecord
2
fixtures
70
0
62
96
6
CONTINUOUS
370
-3
390
F
0
LAYER
5
4B
330
2
100
AcDbSymbolTableRecord
100
AcDbLayerTableRecord
2
tatami
70
0
62
30
6
DOT2
370
0
390
F
0
LAYER
5
4C
330
2
100
AcDbSymbolTableRecord
100
AcDbLayerTableRecord
2
text
70
0
62
8
6
CONTINUOUS
370
-3
390
F
0
ENDTAB
0
TABLE
2
STYLE
5
3
330
0
100
AcDbSymbolTable
70
3
0
STYLE
5
4D
330
2
100
AcDbSymbolTableRecord
100
AcDbTextStyleTableRecord
2
standard
70
0
40
0
41
1
50
0
71
0
42
1
3
standard
4

0
STYLE
5
4E
330
2
100
AcDbSymbolTableRecord
100
AcDbTextStyleTableRecord
2
iso
70
0
40
0
41
1
50
0
71
0
42
1
3
iso
4

0
ENDTAB
0
TABLE
2
VIEW
5
6
330
0
100
AcDbSymbolTable
70
0
0
ENDTAB
0
TABLE
2
UCS
5
7
330
0
100
AcDbSymbolTable
70
0
0
ENDTAB
0
TABLE
2
APPID
5
9
330
0
100
AcDbSymbolTable
70
1
0
APPID
5
12
330
9
100
AcDbSymbolTableRecord
100
AcDbRegAppTableRecord
2
ACAD
70
0
0
ENDTAB
0
TABLE
2
DIMSTYLE
5
A
330
0
100
AcDbSymbolTable
70
1
100
AcDbDimStyleTable
71
1
0
DIMSTYLE
105
4F
330
A
100
AcDbSymbolTableRecord
100
AcDbDimStyleTableRecord
2
Standard
70
0
40
1
41
30
42
10
43
0.38
44
50
45
0
46
0
47
0
48
0
140
100
141
0.09
142
0
143
25.4
144
1
145
0
146
1
147
50
148
0
71
0
72
0
73
0
74
1
75
0
76
0
77
0
78
0
79
0
170
0
171
2
172
0
173
0
174
0
175
0
176
0
177
0
178
0
179
0
271
4
272
4
273
2
274
2
275
0
276
0
277
2
278
46
279
0
280
0
281
0
282
0
283
1
284
0
285
0
286
0
288
0
289
3
340
Standard
341

371
-2
372
-2
0
ENDTAB
0
TABLE
2
BLOCK_RECORD
5
1
330
0
100
AcDbSymbolTable
70
2
0
BLOCK_RECORD
5
1F
330
1
100
AcDbSymbolTableRecord
100
AcDbBlockTableRecord
2
*Model_Space
70
0
280
1
281
0
0
BLOCK_RECORD
5
1E
330
1
100
AcDbSymbolTableRecord
100
AcDbBlockTableRecord
2
*Paper_Space
70
0
280
1
281
0
0
BLOCK_RECORD
5
50
330
1
100
AcDbSymbolTableRecord
100
AcDbBlockTableRecord
2
*D3
70
0
280
1
281
0
0
BLOCK_RECORD
5
53
330
1
100
AcDbSymbolTableRecord
100
AcDbBlockTableRecord
2
*D11
70
0
280
1
281
0
0
BLOCK_RECORD
5
56
330
1
100
AcDbSymbolTableRecord
100
AcDbBlockTableRecord
2
*D16
70
0
280
1
281
0
0
BLOCK_RECORD
5
59
330
1
100
AcDbSymbolTableRecord
100
AcDbBlockTableRecord
2
*D6
70
0
280
1
281
0
0
BLOCK_RECORD
5
5C
330
1
100
AcDbSymbolTableRecord
100
AcDbBlockTableRecord
2
*D19
70
0
280
1
281
0
0
BLOCK_RECORD
5
5F
330
1
100
AcDbSymbolTableRecord
100
AcDbBlockTableRecord
2
*D10
70
0
280
1
281
0
0
BLOCK_RECORD
5
62
330
1
100
AcDbSymbolTableRecord
100
AcDbBlockTableRecord
2
*D1
70
0
280
1
281
0
0
BLOCK_RECORD
5
65
330
1
100
AcDbSymbolTableRecord
100
AcDbBlockTableRecord
2
*D2
70
0
280
1
281
0
0
BLOCK_RECORD
5
68
330
1
100
AcDbSymbolTableRecord
100
AcDbBlockTableRecord
2
*D13
70
0
280
1
281
0
0
BLOCK_RECORD
5
6B
330
1
100
AcDbSymbolTableRecord
100
AcDbBlockTableRecord
2
*D17
70
0
280
1
281
0
0
BLOCK_RECORD
5
6E
330
1
100
AcDbSymbolTableRecord
100
AcDbBlockTableRecord
2
*D14
70
0
280
1
281
0
0
BLOCK_RECORD
5
71
330
1
100
AcDbSymbolTableRecord
100
AcDbBlockTableRecord
2
*D20
70
0
280
1
281
0
0
BLOCK_RECORD
5
74
330
1
100
AcDbSymbolTableRecord
100
AcDbBlockTableRecord
2
*D15
70
0
280
1
281
0
0
BLOCK_RECORD
5
77
330
1
100
AcDbSymbolTableRecord
100
AcDbBlockTableRecord
2
*D5
70
0
280
1
281
0
0
BLOCK_RECORD
5
7A
330
1
100
AcDbSymbolTableRecord
100
AcDbBlockTableRecord
2
*D4
70
0
280
1
281
0
0
BLOCK_RECORD
5
7D
330
1
100
AcDbSymbolTableRecord
100
AcDbBlockTableRecord
2
*D12
70
0
280
1
281
0
0
BLOCK_RECORD
5
80
330
1
100
AcDbSymbolTableRecord
100
AcDbBlockTableRecord
2
*D21
70
0
280
1
281
0
0
BLOCK_RECORD
5
83
330
1
100
AcDbSymbolTableRecord
100
AcDbBlockTableRecord
2
*D18
70
0
280
1
281
0
0
BLOCK_RECORD
5
86
330
1
100
AcDbSymbolTableRecord
100
AcDbBlockTableRecord
2
*D8
70
0
280
1
281
0
0
BLOCK_RECORD
5
89
330
1
100
AcDbSymbolTableRecord
100
AcDbBlockTableRecord
2
*D7
70
0
280
1
281
0
0
BLOCK_RECORD
5
8C
330
1
100
AcDbSymbolTableRecord
100
AcDbBlockTableRecord
2
*D9
70
0
280
1
281
0
0
BLOCK_RECORD
5
8F
330
1
100
AcDbSymbolTableRecord
100
AcDbBlockTableRecord
2
outlet110HorUp-0
70
0
280
1
281
0
0
BLOCK_RECORD
5
92
330
1
100
AcDbSymbolTableRecord
100
AcDbBlockTableRecord
2
door700VerLeft-1
70
0
280
1
281
0
0
BLOCK_RECORD
5
95
330
1
100
AcDbSymbolTableRecord
100
AcDbBlockTableRecord
2
WCVerRight-2
70
0
280
1
281
0
0
BLOCK_RECORD
5
98
330
1
100
AcDbSymbolTableRecord
100
AcDbBlockTableRecord
2
tub_ver-0
70
0
280
1
281
0
0
BLOCK_RECORD
5
9B
330
1
100
AcDbSymbolTableRecord
100
AcDbBlockTableRecord
2
door800VerLeft-0
70
0
280
1
281
0
0
BLOCK_RECORD
5
9E
330
1
100
AcDbSymbolTableRecord
100
AcDbBlockTableRecord
2
KyotoKyomaTatamiVertical-0
70
0
280
1
281
0
0
BLOCK_RECORD
5
A1
330
1
100
AcDbSymbolTableRecord
100
AcDbBlockTableRecord
2
KyotoKyomaTatamiVertical-1
70
0
280
1
281
0
0
BLOCK_RECORD
5
A4
330
1
100
AcDbSymbolTableRecord
100
AcDbBlockTableRecord
2
KyotoKyomaTatamiVertical-2
70
0
280
1
281
0
0
BLOCK_RECORD
5
A7
330
1
100
AcDbSymbolTableRecord
100
AcDbBlockTableRecord
2
KyotoKyomaTatamiVertical-3
70
0
280
1
281
0
0
BLOCK_RECORD
5
AA
330
1
100
AcDbSymbolTableRecord
100
AcDbBlockTableRecord
2
KyotoKyomaTatamiVertical-4
70
0
280
1
281
0
0
BLOCK_RECORD
5
AD
330
1
100
AcDbSymbolTableRecord
100
AcDbBlockTableRecord
2
KyotoKyomaTatamiVertical-5
70
0
280
1
281
0
0
BLOCK_RECORD
5
B0
330
1
100
AcDbSymbolTableRecord
100
AcDbBlockTableRecord
2
KyotoKyomaTatamiVertical-6
70
0
280
1
281
0
0
BLOCK_RECORD
5
B3
330
1
100
AcDbSymbolTableRecord
100
AcDbBlockTableRecord
2
KyotoKyomaTatamiVertical-7
70
0
280
1
281
0
0
BLOCK_RECORD
5
B6
330
1
100
AcDbSymbolTableRecord
100
AcDbBlockTableRecord
2
KyotoKyomaTatamiVertical-8
70
0
280
1
281
0
0
BLOCK_RECORD
5
B9
330
1
100
AcDbSymbolTableRecord
100
AcDbBlockTableRecord
2
KyotoKyomaTatamiHalf-0
70
0
280
1
281
0
0
BLOCK_RECORD
5
BC
330
1
100
AcDbSymbolTableRecord
100
AcDbBlockTableRecord
2
KyotoKyomaTatamiHalf-1
70
0
280
1
281
0
0
BLOCK_RECORD
5
BF
330
1
100
AcDbSymbolTableRecord
100
AcDbBlockTableRecord
2
KyotoKyomaTatamiHalf-2
70
0
280
1
281
0
0
BLOCK_RECORD
5
C2
330
1
100
AcDbSymbolTableRecord
100
AcDbBlockTableRecord
2
KyotoKyomaTatamiHalf-3
70
0
280
1
281
0
0
BLOCK_RECORD
5
C5
330
1
100
AcDbSymbolTableRecord
100
AcDbBlockTableRecord
2
KyotoKyomaTatamiVertical-9
70
0
280
1
281
0
0
BLOCK_RECORD
5
C8
330
1
100
AcDbSymbolTableRecord
100
AcDbBlockTableRecord
2
KyotoKyomaTatami-0
70
0
280
1
281
0
0
BLOCK_RECORD
5
CB
330
1
100
AcDbSymbolTableRecord
100
AcDbBlockTableRecord
2
KyotoKyomaTatami-1
70
0
280
1
281
0
0
BLOCK_RECORD
5
CE
330
1
100
AcDbSymbolTableRecord
100
AcDbBlockTableRecord
2
washer_Hor-0
70
0
280
1
281
0
0
BLOCK_RECORD
5
D1
330
1
100
AcDbSymbolTableRecord
100
AcDbBlockTableRecord
2
washer_Hor-1
70
0
280
1
281
0
0
BLOCK_RECORD
5
D4
330
1
100
AcDbSymbolTableRecord
100
AcDbBlockTableRecord
2
refridge500_600_verRight-0
70
0
280
1
281
0
0
BLOCK_RECORD
5
D7
330
1
100
AcDbSymbolTableRecord
100
AcDbBlockTableRecord
2
Standard40ft12m_withIntwall-0
70
0
280
1
281
0
0
BLOCK_RECORD
5
DA
330
1
100
AcDbSymbolTableRecord
100
AcDbBlockTableRecord
2
jtub
70
0
280
1
281
0
0
ENDTAB
0
ENDSEC
0
SECTION
2
BLOCKS
0
BLOCK
5
20
330
1F
100
AcDbEntity
8
0
100
AcDbBlockBegin
2
*Model_Space
70
0
10
0
20
0
30
0
3
*Model_Space
1

0
ENDBLK
5
21
330
1F
100
AcDbEntity
8
0
100
AcDbBlockEnd
0
BLOCK
5
1C
330
1B
100
AcDbEntity
8
0
100
AcDbBlockBegin
2
*Paper_Space
70
0
10
0
20
0
30
0
3
*Paper_Space
1

0
ENDBLK
5
1D
330
1F
100
AcDbEntity
8
0
100
AcDbBlockEnd
0
BLOCK
5
51
330
50
100
AcDbEntity
8
0
100
AcDbBlockBegin
2
*D3
70
1
10
0
20
0
3
*D3
1

0
LINE
5
DD
100
AcDbEntity
8
dimension
6
CONTINUOUS
62
7
370
0
100
AcDbLine
10
6856.75456664
20
1832.93996177
11
6856.75456664
21
2632.93996177
0
SOLID
5
DE
100
AcDbEntity
8
dimension
6
CONTINUOUS
62
7
370
0
100
AcDbTrace
10
6856.75456664
20
1832.93996177
30
0
11
6851.75915075
21
1862.93996177
31
0
12
6861.74998253
22
1862.93996177
32
0
13
6861.74998253
23
1862.93996177
33
0
0
SOLID
5
DF
100
AcDbEntity
8
dimension
6
CONTINUOUS
62
7
370
0
100
AcDbTrace
10
6856.75456664
20
2632.93996177
30
0
11
6861.74998253
21
2602.93996177
31
0
12
6851.75915075
22
2602.93996177
32
0
13
6851.75915075
23
2602.93996177
33
0
0
MTEXT
5
E0
100
AcDbEntity
8
dimension
6
CONTINUOUS
62
7
370
0
100
AcDbMText
10
6756.75456664
20
2232.93996177
30
0
40
100
41
200
71
5
72
1
1
800
7
standard
210
0
220
0
230
1
50
90
73
2
44
1
0
LINE
5
E1
100
AcDbEntity
8
dimension
6
CONTINUOUS
62
7
370
0
100
AcDbLine
10
6681.31628207
20
1832.93996177
11
6906.75456664
21
1832.93996177
0
LINE
5
E2
100
AcDbEntity
8
dimension
6
CONTINUOUS
62
7
370
0
100
AcDbLine
10
6681.31628207
20
2632.93996177
11
6906.75456664
21
2632.93996177
0
ENDBLK
5
52
330
50
100
AcDbEntity
8
0
100
AcDbBlockEnd
0
BLOCK
5
54
330
53
100
AcDbEntity
8
0
100
AcDbBlockBegin
2
*D11
70
1
10
0
20
0
3
*D11
1

0
LINE
5
E3
100
AcDbEntity
8
dimension
6
CONTINUOUS
62
7
370
0
100
AcDbLine
10
6696.31628207
20
1526.98343387
11
7496.31628207
21
1526.98343387
0
SOLID
5
E4
100
AcDbEntity
8
dimension
6
CONTINUOUS
62
7
370
0
100
AcDbTrace
10
6696.31628207
20
1526.98343387
30
0
11
6726.31628207
21
1531.97884976
31
0
12
6726.31628207
22
1521.98801798
32
0
13
6726.31628207
23
1521.98801798
33
0
0
SOLID
5
E5
100
AcDbEntity
8
dimension
6
CONTINUOUS
62
7
370
0
100
AcDbTrace
10
7496.31628207
20
1526.98343387
30
0
11
7466.31628207
21
1521.98801798
31
0
12
7466.31628207
22
1531.97884976
32
0
13
7466.31628207
23
1531.97884976
33
0
0
MTEXT
5
E6
100
AcDbEntity
8
dimension
6
CONTINUOUS
62
7
370
0
100
AcDbMText
10
7096.31628207
20
1626.98343387
30
0
40
100
41
200
71
5
72
1
1
800
7
standard
210
0
220
0
230
1
50
0
73
2
44
1
0
LINE
5
E7
100
AcDbEntity
8
dimension
6
CONTINUOUS
62
7
370
0
100
AcDbLine
10
6696.31628207
20
967.93996177
11
6696.31628207
21
1576.98343387
0
LINE
5
E8
100
AcDbEntity
8
dimension
6
CONTINUOUS
62
7
370
0
100
AcDbLine
10
7496.31628207
20
967.93996177
11
7496.31628207
21
1576.98343387
0
ENDBLK
5
55
330
53
100
AcDbEntity
8
0
100
AcDbBlockEnd
0
BLOCK
5
57
330
56
100
AcDbEntity
8
0
100
AcDbBlockBegin
2
*D16
70
1
10
0
20
0
3
*D16
1

0
LINE
5
E9
100
AcDbEntity
8
dimension
6
CONTINUOUS
62
7
370
0
100
AcDbLine
10
11012.3162821
20
-1460.10824699
11
8062.3162821
21
-1460.10824699
0
SOLID
5
EA
100
AcDbEntity
8
dimension
6
CONTINUOUS
62
7
370
0
100
AcDbTrace
10
11012.3162821
20
-1460.10824699
30
0
11
10982.3162821
21
-1465.10366288
31
0
12
10982.3162821
22
-1455.1128311
32
0
13
10982.3162821
23
-1455.1128311
33
0
0
SOLID
5
EB
100
AcDbEntity
8
dimension
6
CONTINUOUS
62
7
370
0
100
AcDbTrace
10
8062.3162821
20
-1460.10824699
30
0
11
8092.3162821
21
-1455.1128311
31
0
12
8092.3162821
22
-1465.10366288
32
0
13
8092.3162821
23
-1465.10366288
33
0
0
MTEXT
5
EC
100
AcDbEntity
8
dimension
6
CONTINUOUS
62
7
370
0
100
AcDbMText
10
9537.3162821
20
-1360.10824699
30
0
40
100
41
277.777777778
71
5
72
1
1
2950
7
standard
210
0
220
0
230
1
50
360
73
2
44
1
0
LINE
5
ED
100
AcDbEntity
8
dimension
6
CONTINUOUS
62
7
370
0
100
AcDbLine
10
11012.3162821
20
-2126.06003823
11
11012.3162821
21
-1410.10824699
0
LINE
5
EE
100
AcDbEntity
8
dimension
6
CONTINUOUS
62
7
370
0
100
AcDbLine
10
8062.3162821
20
-2126.06003823
11
8062.3162821
21
-1410.10824699
0
ENDBLK
5
58
330
56
100
AcDbEntity
8
0
100
AcDbBlockEnd
0
BLOCK
5
5A
330
59
100
AcDbEntity
8
0
100
AcDbBlockBegin
2
*D6
70
1
10
0
20
0
3
*D6
1

0
LINE
5
EF
100
AcDbEntity
8
dimension
6
CONTINUOUS
62
7
370
0
100
AcDbLine
10
7571.31628207
20
3981.30279254
11
8371.31628207
21
3981.30279254
0
SOLID
5
F0
100
AcDbEntity
8
dimension
6
CONTINUOUS
62
7
370
0
100
AcDbTrace
10
7571.31628207
20
3981.30279254
30
0
11
7601.31628207
21
3986.29820843
31
0
12
7601.31628207
22
3976.30737665
32
0
13
7601.31628207
23
3976.30737665
33
0
0
SOLID
5
F1
100
AcDbEntity
8
dimension
6
CONTINUOUS
62
7
370
0
100
AcDbTrace
10
8371.31628207
20
3981.30279254
30
0
11
8341.31628207
21
3976.30737665
31
0
12
8341.31628207
22
3986.29820843
32
0
13
8341.31628207
23
3986.29820843
33
0
0
MTEXT
5
F2
100
AcDbEntity
8
dimension
6
CONTINUOUS
62
7
370
0
100
AcDbMText
10
7971.31628207
20
4081.30279254
30
0
40
100
41
200
71
5
72
1
1
800
7
standard
210
0
220
0
230
1
50
0
73
2
44
1
0
LINE
5
F3
100
AcDbEntity
8
dimension
6
CONTINUOUS
62
7
370
0
100
AcDbLine
10
7571.31628207
20
3219.93996177
11
7571.31628207
21
4031.30279254
0
LINE
5
F4
100
AcDbEntity
8
dimension
6
CONTINUOUS
62
7
370
0
100
AcDbLine
10
8371.31628207
20
3219.93996177
11
8371.31628207
21
4031.30279254
0
ENDBLK
5
5B
330
59
100
AcDbEntity
8
0
100
AcDbBlockEnd
0
BLOCK
5
5D
330
5C
100
AcDbEntity
8
0
100
AcDbBlockBegin
2
*D19
70
1
10
0
20
0
3
*D19
1

0
LINE
5
F5
100
AcDbEntity
8
dimension
6
CONTINUOUS
62
7
370
0
100
AcDbLine
10
3884.3162821
20
-1463.05075521
11
3034.3162821
21
-1463.05075521
0
SOLID
5
F6
100
AcDbEntity
8
dimension
6
CONTINUOUS
62
7
370
0
100
AcDbTrace
10
3884.3162821
20
-1463.05075521
30
0
11
3854.3162821
21
-1468.0461711
31
0
12
3854.3162821
22
-1458.05533932
32
0
13
3854.3162821
23
-1458.05533932
33
0
0
SOLID
5
F7
100
AcDbEntity
8
dimension
6
CONTINUOUS
62
7
370
0
100
AcDbTrace
10
3034.3162821
20
-1463.05075521
30
0
11
3064.3162821
21
-1458.05533932
31
0
12
3064.3162821
22
-1468.0461711
32
0
13
3064.3162821
23
-1468.0461711
33
0
0
MTEXT
5
F8
100
AcDbEntity
8
dimension
6
CONTINUOUS
62
7
370
0
100
AcDbMText
10
3459.3162821
20
-1363.05075521
30
0
40
100
41
200
71
5
72
1
1
850
7
standard
210
0
220
0
230
1
50
360
73
2
44
1
0
LINE
5
F9
100
AcDbEntity
8
dimension
6
CONTINUOUS
62
7
370
0
100
AcDbLine
10
3884.3162821
20
-2220.06003822
11
3884.3162821
21
-1413.05075521
0
LINE
5
FA
100
AcDbEntity
8
dimension
6
CONTINUOUS
62
7
370
0
100
AcDbLine
10
3034.3162821
20
-2226.13906146
11
3034.3162821
21
-1413.05075521
0
ENDBLK
5
5E
330
5C
100
AcDbEntity
8
0
100
AcDbBlockEnd
0
BLOCK
5
60
330
5F
100
AcDbEntity
8
0
100
AcDbBlockBegin
2
*D10
70
1
10
0
20
0
3
*D10
1

0
LINE
5
FB
100
AcDbEntity
8
dimension
6
CONTINUOUS
62
7
370
0
100
AcDbLine
10
5963.03749722
20
1732.93996177
11
5963.03749722
21
1022.93996177
0
SOLID
5
FC
100
AcDbEntity
8
dimension
6
CONTINUOUS
62
7
370
0
100
AcDbTrace
10
5963.03749722
20
1732.93996177
30
0
11
5968.03291311
21
1702.93996177
31
0
12
5958.04208133
22
1702.93996177
32
0
13
5958.04208133
23
1702.93996177
33
0
0
SOLID
5
FD
100
AcDbEntity
8
dimension
6
CONTINUOUS
62
7
370
0
100
AcDbTrace
10
5963.03749722
20
1022.93996177
30
0
11
5958.04208133
21
1052.93996177
31
0
12
5968.03291311
22
1052.93996177
32
0
13
5968.03291311
23
1052.93996177
33
0
0
MTEXT
5
FE
100
AcDbEntity
8
dimension
6
CONTINUOUS
62
7
370
0
100
AcDbMText
10
5863.03749722
20
1377.93996177
30
0
40
100
41
177.777777778
71
5
72
1
1
710
7
standard
210
0
220
0
230
1
50
90
73
2
44
1
0
LINE
5
FF
100
AcDbEntity
8
dimension
6
CONTINUOUS
62
7
370
0
100
AcDbLine
10
6611.31628207
20
1732.93996177
11
5913.03749722
21
1732.93996177
0
LINE
5
100
100
AcDbEntity
8
dimension
6
CONTINUOUS
62
7
370
0
100
AcDbLine
10
6611.31619575
20
1022.93996177
11
5913.03749722
21
1022.93996177
0
ENDBLK
5
61
330
5F
100
AcDbEntity
8
0
100
AcDbBlockEnd
0
BLOCK
5
63
330
62
100
AcDbEntity
8
0
100
AcDbBlockBegin
2
*D1
70
1
10
0
20
0
3
*D1
1

0
LINE
5
101
100
AcDbEntity
8
dimension
6
CONTINUOUS
62
7
370
0
100
AcDbLine
10
-422.683717927
20
4661.73259271
11
11777.3162821
21
4661.73259271
0
SOLID
5
102
100
AcDbEntity
8
dimension
6
CONTINUOUS
62
7
370
0
100
AcDbTrace
10
-422.683717927
20
4661.73259271
30
0
11
-392.683717927
21
4666.7280086
31
0
12
-392.683717927
22
4656.73717682
32
0
13
-392.683717927
23
4656.73717682
33
0
0
SOLID
5
103
100
AcDbEntity
8
dimension
6
CONTINUOUS
62
7
370
0
100
AcDbTrace
10
11777.3162821
20
4661.73259271
30
0
11
11747.3162821
21
4656.73717682
31
0
12
11747.3162821
22
4666.7280086
32
0
13
11747.3162821
23
4666.7280086
33
0
0
MTEXT
5
104
100
AcDbEntity
8
dimension
6
CONTINUOUS
62
7
370
0
100
AcDbMText
10
5677.31628207
20
4761.73259271
30
0
40
100
41
333.333333333
71
5
72
1
1
12200
7
standard
210
0
220
0
230
1
50
0
73
2
44
1
0
LINE
5
105
100
AcDbEntity
8
dimension
6
CONTINUOUS
62
7
370
0
100
AcDbLine
10
-422.683717927
20
3313.93996177
11
-422.683717927
21
4711.73259271
0
LINE
5
106
100
AcDbEntity
8
dimension
6
CONTINUOUS
62
7
370
0
100
AcDbLine
10
11777.3162821
20
3313.93996177
11
11777.3162821
21
4711.73259271
0
ENDBLK
5
64
330
62
100
AcDbEntity
8
0
100
AcDbBlockEnd
0
BLOCK
5
66
330
65
100
AcDbEntity
8
0
100
AcDbBlockBegin
2
*D2
70
1
10
0
20
0
3
*D2
1

0
LINE
5
107
100
AcDbEntity
8
dimension
6
CONTINUOUS
62
7
370
0
100
AcDbLine
10
4921.31628207
20
3972.04938723
11
6621.31628207
21
3972.04938723
0
SOLID
5
108
100
AcDbEntity
8
dimension
6
CONTINUOUS
62
7
370
0
100
AcDbTrace
10
4921.31628207
20
3972.04938723
30
0
11
4951.31628207
21
3977.04480312
31
0
12
4951.31628207
22
3967.05397134
32
0
13
4951.31628207
23
3967.05397134
33
0
0
SOLID
5
109
100
AcDbEntity
8
dimension
6
CONTINUOUS
62
7
370
0
100
AcDbTrace
10
6621.31628207
20
3972.04938723
30
0
11
6591.31628207
21
3967.05397134
31
0
12
6591.31628207
22
3977.04480312
32
0
13
6591.31628207
23
3977.04480312
33
0
0
MTEXT
5
10A
100
AcDbEntity
8
dimension
6
CONTINUOUS
62
7
370
0
100
AcDbMText
10
5771.31628207
20
4072.04938723
30
0
40
100
41
255.555555556
71
5
72
1
1
1700
7
standard
210
0
220
0
230
1
50
0
73
2
44
1
0
LINE
5
10B
100
AcDbEntity
8
dimension
6
CONTINUOUS
62
7
370
0
100
AcDbLine
10
4921.31628207
20
3313.93996177
11
4921.31628207
21
4022.04938723
0
LINE
5
10C
100
AcDbEntity
8
dimension
6
CONTINUOUS
62
7
370
0
100
AcDbLine
10
6621.31628207
20
3313.93996177
11
6621.31628207
21
4022.04938723
0
ENDBLK
5
67
330
65
100
AcDbEntity
8
0
100
AcDbBlockEnd
0
BLOCK
5
69
330
68
100
AcDbEntity
8
0
100
AcDbBlockBegin
2
*D13
70
1
10
0
20
0
3
*D13
1

0
LINE
5
10D
100
AcDbEntity
8
dimension
6
CONTINUOUS
62
7
370
0
100
AcDbLine
10
11777.3162821
20
-1458.72602621
11
11012.3162821
21
-1458.72602621
0
SOLID
5
10E
100
AcDbEntity
8
dimension
6
CONTINUOUS
62
7
370
0
100
AcDbTrace
10
11777.3162821
20
-1458.72602621
30
0
11
11747.3162821
21
-1463.7214421
31
0
12
11747.3162821
22
-1453.73061032
32
0
13
11747.3162821
23
-1453.73061032
33
0
0
SOLID
5
10F
100
AcDbEntity
8
dimension
6
CONTINUOUS
62
7
370
0
100
AcDbTrace
10
11012.3162821
20
-1458.72602621
30
0
11
11042.3162821
21
-1453.73061032
31
0
12
11042.3162821
22
-1463.7214421
32
0
13
11042.3162821
23
-1463.7214421
33
0
0
MTEXT
5
110
100
AcDbEntity
8
dimension
6
CONTINUOUS
62
7
370
0
100
AcDbMText
10
11394.8162821
20
-1358.72602621
30
0
40
100
41
200
71
5
72
1
1
765
7
standard
210
0
220
0
230
1
50
360
73
2
44
1
0
LINE
5
111
100
AcDbEntity
8
dimension
6
CONTINUOUS
62
7
370
0
100
AcDbLine
10
11777.3162821
20
-2126.06003823
11
11777.3162821
21
-1408.72602621
0
LINE
5
112
100
AcDbEntity
8
dimension
6
CONTINUOUS
62
7
370
0
100
AcDbLine
10
11012.3162821
20
-2126.06003823
11
11012.3162821
21
-1408.72602621
0
ENDBLK
5
6A
330
68
100
AcDbEntity
8
0
100
AcDbBlockEnd
0
BLOCK
5
6C
330
6B
100
AcDbEntity
8
0
100
AcDbBlockBegin
2
*D17
70
1
10
0
20
0
3
*D17
1

0
LINE
5
113
100
AcDbEntity
8
dimension
6
CONTINUOUS
62
7
370
0
100
AcDbLine
10
8062.3162821
20
-1839.50302466
11
7334.3162821
21
-1839.50302466
0
SOLID
5
114
100
AcDbEntity
8
dimension
6
CONTINUOUS
62
7
370
0
100
AcDbTrace
10
8062.3162821
20
-1839.50302466
30
0
11
8032.3162821
21
-1844.49844055
31
0
12
8032.3162821
22
-1834.50760877
32
0
13
8032.3162821
23
-1834.50760877
33
0
0
SOLID
5
115
100
AcDbEntity
8
dimension
6
CONTINUOUS
62
7
370
0
100
AcDbTrace
10
7334.3162821
20
-1839.50302466
30
0
11
7364.3162821
21
-1834.50760877
31
0
12
7364.3162821
22
-1844.49844055
32
0
13
7364.3162821
23
-1844.49844055
33
0
0
MTEXT
5
116
100
AcDbEntity
8
dimension
6
CONTINUOUS
62
7
370
0
100
AcDbMText
10
7698.3162821
20
-1739.50302466
30
0
40
100
41
200
71
5
72
1
1
728
7
standard
210
0
220
0
230
1
50
360
73
2
44
1
0
LINE
5
117
100
AcDbEntity
8
dimension
6
CONTINUOUS
62
7
370
0
100
AcDbLine
10
8062.3162821
20
-2126.06003823
11
8062.3162821
21
-1789.50302466
0
LINE
5
118
100
AcDbEntity
8
dimension
6
CONTINUOUS
62
7
370
0
100
AcDbLine
10
7334.3162821
20
-2220.06003823
11
7334.3162821
21
-1789.50302466
0
ENDBLK
5
6D
330
6B
100
AcDbEntity
8
0
100
AcDbBlockEnd
0
BLOCK
5
6F
330
6E
100
AcDbEntity
8
0
100
AcDbBlockBegin
2
*D14
70
1
10
0
20
0
3
*D14
1

0
LINE
5
119
100
AcDbEntity
8
dimension
6
CONTINUOUS
62
7
370
0
100
AcDbLine
10
5659.3162821
20
-3913.01656613
11
6459.3162821
21
-3913.01656613
0
SOLID
5
11A
100
AcDbEntity
8
dimension
6
CONTINUOUS
62
7
370
0
100
AcDbTrace
10
5659.3162821
20
-3913.01656613
30
0
11
5689.3162821
21
-3908.02115024
31
0
12
5689.3162821
22
-3918.01198202
32
0
13
5689.3162821
23
-3918.01198202
33
0
0
SOLID
5
11B
100
AcDbEntity
8
dimension
6
CONTINUOUS
62
7
370
0
100
AcDbTrace
10
6459.3162821
20
-3913.01656613
30
0
11
6429.3162821
21
-3918.01198202
31
0
12
6429.3162821
22
-3908.02115024
32
0
13
6429.3162821
23
-3908.02115024
33
0
0
MTEXT
5
11C
100
AcDbEntity
8
dimension
6
CONTINUOUS
62
7
370
0
100
AcDbMText
10
6059.3162821
20
-3813.01656613
30
0
40
100
41
200
71
5
72
1
1
800
7
standard
210
0
220
0
230
1
50
0
73
2
44
1
0
LINE
5
11D
100
AcDbEntity
8
dimension
6
CONTINUOUS
62
7
370
0
100
AcDbLine
10
5659.3162821
20
-4472.06003823
11
5659.3162821
21
-3863.01656613
0
LINE
5
11E
100
AcDbEntity
8
dimension
6
CONTINUOUS
62
7
370
0
100
AcDbLine
10
6459.3162821
20
-4472.06003823
11
6459.3162821
21
-3863.01656613
0
ENDBLK
5
70
330
6E
100
AcDbEntity
8
0
100
AcDbBlockEnd
0
BLOCK
5
72
330
71
100
AcDbEntity
8
0
100
AcDbBlockBegin
2
*D20
70
1
10
0
20
0
3
*D20
1

0
LINE
5
11F
100
AcDbEntity
8
dimension
6
CONTINUOUS
62
7
370
0
100
AcDbLine
10
-422.683717927
20
-1463.06120985
11
342.316282073
21
-1463.06120985
0
SOLID
5
120
100
AcDbEntity
8
dimension
6
CONTINUOUS
62
7
370
0
100
AcDbTrace
10
-422.683717927
20
-1463.06120985
30
0
11
-392.683717927
21
-1458.06579396
31
0
12
-392.683717927
22
-1468.05662574
32
0
13
-392.683717927
23
-1468.05662574
33
0
0
SOLID
5
121
100
AcDbEntity
8
dimension
6
CONTINUOUS
62
7
370
0
100
AcDbTrace
10
342.316282073
20
-1463.06120985
30
0
11
312.316282073
21
-1468.05662574
31
0
12
312.316282073
22
-1458.06579396
32
0
13
312.316282073
23
-1458.06579396
33
0
0
MTEXT
5
122
100
AcDbEntity
8
dimension
6
CONTINUOUS
62
7
370
0
100
AcDbMText
10
-40.183717927
20
-1363.06120985
30
0
40
100
41
200
71
5
72
1
1
765
7
standard
210
0
220
0
230
1
50
0
73
2
44
1
0
LINE
5
123
100
AcDbEntity
8
dimension
6
CONTINUOUS
62
7
370
0
100
AcDbLine
10
-422.683717927
20
-2126.06003823
11
-422.683717927
21
-1413.06120985
0
LINE
5
124
100
AcDbEntity
8
dimension
6
CONTINUOUS
62
7
370
0
100
AcDbLine
10
342.316282073
20
-2126.06003823
11
342.316282073
21
-1413.06120985
0
ENDBLK
5
73
330
71
100
AcDbEntity
8
0
100
AcDbBlockEnd
0
BLOCK
5
75
330
74
100
AcDbEntity
8
0
100
AcDbBlockBegin
2
*D15
70
1
10
0
20
0
3
*D15
1

0
LINE
5
125
100
AcDbEntity
8
dimension
6
CONTINUOUS
62
7
370
0
100
AcDbLine
10
-422.683717927
20
3633.01681925
11
871.31628207
21
3633.01681925
0
SOLID
5
126
100
AcDbEntity
8
dimension
6
CONTINUOUS
62
7
370
0
100
AcDbTrace
10
-422.683717927
20
3633.01681925
30
0
11
-392.683717927
21
3638.01223514
31
0
12
-392.683717927
22
3628.02140336
32
0
13
-392.683717927
23
3628.02140336
33
0
0
SOLID
5
127
100
AcDbEntity
8
dimension
6
CONTINUOUS
62
7
370
0
100
AcDbTrace
10
871.31628207
20
3633.01681925
30
0
11
841.31628207
21
3628.02140336
31
0
12
841.31628207
22
3638.01223514
32
0
13
841.31628207
23
3638.01223514
33
0
0
MTEXT
5
128
100
AcDbEntity
8
dimension
6
CONTINUOUS
62
7
370
0
100
AcDbMText
10
224.316282072
20
3733.01681925
30
0
40
100
41
266.666666667
71
5
72
1
1
1294
7
standard
210
0
220
0
230
1
50
0
73
2
44
1
0
LINE
5
129
100
AcDbEntity
8
dimension
6
CONTINUOUS
62
7
370
0
100
AcDbLine
10
-422.683717927
20
3313.93996177
11
-422.683717927
21
3683.01681925
0
LINE
5
12A
100
AcDbEntity
8
dimension
6
CONTINUOUS
62
7
370
0
100
AcDbLine
10
871.31628207
20
3313.93996177
11
871.31628207
21
3683.01681925
0
ENDBLK
5
76
330
74
100
AcDbEntity
8
0
100
AcDbBlockEnd
0
BLOCK
5
78
330
77
100
AcDbEntity
8
0
100
AcDbBlockBegin
2
*D5
70
1
10
0
20
0
3
*D5
1

0
LINE
5
12B
100
AcDbEntity
8
dimension
6
CONTINUOUS
62
7
370
0
100
AcDbLine
10
6671.31628207
20
3981.0546229
11
7521.31628207
21
3981.0546229
0
SOLID
5
12C
100
AcDbEntity
8
dimension
6
CONTINUOUS
62
7
370
0
100
AcDbTrace
10
6671.31628207
20
3981.0546229
30
0
11
6701.31628207
21
3986.05003879
31
0
12
6701.31628207
22
3976.05920701
32
0
13
6701.31628207
23
3976.05920701
33
0
0
SOLID
5
12D
100
AcDbEntity
8
dimension
6
CONTINUOUS
62
7
370
0
100
AcDbTrace
10
7521.31628207
20
3981.0546229
30
0
11
7491.31628207
21
3976.05920701
31
0
12
7491.31628207
22
3986.05003879
32
0
13
7491.31628207
23
3986.05003879
33
0
0
MTEXT
5
12E
100
AcDbEntity
8
dimension
6
CONTINUOUS
62
7
370
0
100
AcDbMText
10
7096.31628207
20
4081.0546229
30
0
40
100
41
200
71
5
72
1
1
850
7
standard
210
0
220
0
230
1
50
0
73
2
44
1
0
LINE
5
12F
100
AcDbEntity
8
dimension
6
CONTINUOUS
62
7
370
0
100
AcDbLine
10
6671.31628207
20
3219.93996177
11
6671.31628207
21
4031.0546229
0
LINE
5
130
100
AcDbEntity
8
dimension
6
CONTINUOUS
62
7
370
0
100
AcDbLine
10
7521.31628207
20
3219.93996177
11
7521.31628207
21
4031.0546229
0
ENDBLK
5
79
330
77
100
AcDbEntity
8
0
100
AcDbBlockEnd
0
BLOCK
5
7B
330
7A
100
AcDbEntity
8
0
100
AcDbBlockBegin
2
*D4
70
1
10
0
20
0
3
*D4
1

0
LINE
5
131
100
AcDbEntity
8
dimension
6
CONTINUOUS
62
7
370
0
100
AcDbLine
10
4871.31628207
20
3971.90730687
11
4071.31628207
21
3971.90730687
0
SOLID
5
132
100
AcDbEntity
8
dimension
6
CONTINUOUS
62
7
370
0
100
AcDbTrace
10
4871.31628207
20
3971.90730687
30
0
11
4841.31628207
21
3966.91189098
31
0
12
4841.31628207
22
3976.90272276
32
0
13
4841.31628207
23
3976.90272276
33
0
0
SOLID
5
133
100
AcDbEntity
8
dimension
6
CONTINUOUS
62
7
370
0
100
AcDbTrace
10
4071.31628207
20
3971.90730687
30
0
11
4101.31628207
21
3976.90272276
31
0
12
4101.31628207
22
3966.91189098
32
0
13
4101.31628207
23
3966.91189098
33
0
0
MTEXT
5
134
100
AcDbEntity
8
dimension
6
CONTINUOUS
62
7
370
0
100
AcDbMText
10
4471.31628207
20
4071.90730687
30
0
40
100
41
200
71
5
72
1
1
800
7
standard
210
0
220
0
230
1
50
360
73
2
44
1
0
LINE
5
135
100
AcDbEntity
8
dimension
6
CONTINUOUS
62
7
370
0
100
AcDbLine
10
4871.31628207
20
3313.93996177
11
4871.31628207
21
4021.90730687
0
LINE
5
136
100
AcDbEntity
8
dimension
6
CONTINUOUS
62
7
370
0
100
AcDbLine
10
4071.31628207
20
3313.93996177
11
4071.31628207
21
4021.90730687
0
ENDBLK
5
7C
330
7A
100
AcDbEntity
8
0
100
AcDbBlockEnd
0
BLOCK
5
7E
330
7D
100
AcDbEntity
8
0
100
AcDbBlockBegin
2
*D12
70
1
10
0
20
0
3
*D12
1

0
LINE
5
137
100
AcDbEntity
8
dimension
6
CONTINUOUS
62
7
370
0
100
AcDbLine
10
-422.683717927
20
-778.26740729
11
11777.3162821
21
-778.26740729
0
SOLID
5
138
100
AcDbEntity
8
dimension
6
CONTINUOUS
62
7
370
0
100
AcDbTrace
10
-422.683717927
20
-778.26740729
30
0
11
-392.683717927
21
-773.271991397
31
0
12
-392.683717927
22
-783.262823183
32
0
13
-392.683717927
23
-783.262823183
33
0
0
SOLID
5
139
100
AcDbEntity
8
dimension
6
CONTINUOUS
62
7
370
0
100
AcDbTrace
10
11777.3162821
20
-778.26740729
30
0
11
11747.3162821
21
-783.262823183
31
0
12
11747.3162821
22
-773.271991397
32
0
13
11747.3162821
23
-773.271991397
33
0
0
MTEXT
5
13A
100
AcDbEntity
8
dimension
6
CONTINUOUS
62
7
370
0
100
AcDbMText
10
5677.31628207
20
-678.26740729
30
0
40
100
41
333.333333333
71
5
72
1
1
12200
7
standard
210
0
220
0
230
1
50
0
73
2
44
1
0
LINE
5
13B
100
AcDbEntity
8
dimension
6
CONTINUOUS
62
7
370
0
100
AcDbLine
10
-422.683717927
20
-2126.06003823
11
-422.683717927
21
-728.26740729
0
LINE
5
13C
100
AcDbEntity
8
dimension
6
CONTINUOUS
62
7
370
0
100
AcDbLine
10
11777.3162821
20
-2126.06003823
11
11777.3162821
21
-728.26740729
0
ENDBLK
5
7F
330
7D
100
AcDbEntity
8
0
100
AcDbBlockEnd
0
BLOCK
5
81
330
80
100
AcDbEntity
8
0
100
AcDbBlockBegin
2
*D21
70
1
10
0
20
0
3
*D21
1

0
LINE
5
13D
100
AcDbEntity
8
dimension
6
CONTINUOUS
62
7
370
0
100
AcDbLine
10
342.316282073
20
-1463.01446071
11
2342.31628207
21
-1463.01446071
0
SOLID
5
13E
100
AcDbEntity
8
dimension
6
CONTINUOUS
62
7
370
0
100
AcDbTrace
10
342.316282073
20
-1463.01446071
30
0
11
372.316282073
21
-1458.01904482
31
0
12
372.316282073
22
-1468.0098766
32
0
13
372.316282073
23
-1468.0098766
33
0
0
SOLID
5
13F
100
AcDbEntity
8
dimension
6
CONTINUOUS
62
7
370
0
100
AcDbTrace
10
2342.31628207
20
-1463.01446071
30
0
11
2312.31628207
21
-1468.0098766
31
0
12
2312.31628207
22
-1458.01904482
32
0
13
2312.31628207
23
-1458.01904482
33
0
0
MTEXT
5
140
100
AcDbEntity
8
dimension
6
CONTINUOUS
62
7
370
0
100
AcDbMText
10
1342.31628207
20
-1363.01446071
30
0
40
100
41
277.777777778
71
5
72
1
1
2000
7
standard
210
0
220
0
230
1
50
0
73
2
44
1
0
LINE
5
141
100
AcDbEntity
8
dimension
6
CONTINUOUS
62
7
370
0
100
AcDbLine
10
342.316282073
20
-2126.06003823
11
342.316282073
21
-1413.01446071
0
LINE
5
142
100
AcDbEntity
8
dimension
6
CONTINUOUS
62
7
370
0
100
AcDbLine
10
2342.31628207
20
-2126.06003823
11
2342.31628207
21
-1413.01446071
0
ENDBLK
5
82
330
80
100
AcDbEntity
8
0
100
AcDbBlockEnd
0
BLOCK
5
84
330
83
100
AcDbEntity
8
0
100
AcDbBlockBegin
2
*D18
70
1
10
0
20
0
3
*D18
1

0
LINE
5
143
100
AcDbEntity
8
dimension
6
CONTINUOUS
62
7
370
0
100
AcDbLine
10
8062.3162821
20
-1461.26201811
11
6534.3162821
21
-1461.26201811
0
SOLID
5
144
100
AcDbEntity
8
dimension
6
CONTINUOUS
62
7
370
0
100
AcDbTrace
10
8062.3162821
20
-1461.26201811
30
0
11
8032.3162821
21
-1466.257434
31
0
12
8032.3162821
22
-1456.26660222
32
0
13
8032.3162821
23
-1456.26660222
33
0
0
SOLID
5
145
100
AcDbEntity
8
dimension
6
CONTINUOUS
62
7
370
0
100
AcDbTrace
10
6534.3162821
20
-1461.26201811
30
0
11
6564.3162821
21
-1456.26660222
31
0
12
6564.3162821
22
-1466.257434
32
0
13
6564.3162821
23
-1466.257434
33
0
0
MTEXT
5
146
100
AcDbEntity
8
dimension
6
CONTINUOUS
62
7
370
0
100
AcDbMText
10
7298.3162821
20
-1361.26201811
30
0
40
100
41
255.555555556
71
5
72
1
1
1528
7
standard
210
0
220
0
230
1
50
360
73
2
44
1
0
LINE
5
147
100
AcDbEntity
8
dimension
6
CONTINUOUS
62
7
370
0
100
AcDbLine
10
8062.3162821
20
-2126.06003823
11
8062.3162821
21
-1411.26201811
0
LINE
5
148
100
AcDbEntity
8
dimension
6
CONTINUOUS
62
7
370
0
100
AcDbLine
10
6534.3162821
20
-2220.06003823
11
6534.3162821
21
-1411.26201811
0
ENDBLK
5
85
330
83
100
AcDbEntity
8
0
100
AcDbBlockEnd
0
BLOCK
5
87
330
86
100
AcDbEntity
8
0
100
AcDbBlockBegin
2
*D8
70
1
10
0
20
0
3
*D8
1

0
LINE
5
149
100
AcDbEntity
8
dimension
6
CONTINUOUS
62
7
370
0
100
AcDbLine
10
11012.3162821
20
3980.93270504
11
9012.31628207
21
3980.93270504
0
SOLID
5
14A
100
AcDbEntity
8
dimension
6
CONTINUOUS
62
7
370
0
100
AcDbTrace
10
11012.3162821
20
3980.93270504
30
0
11
10982.3162821
21
3975.93728915
31
0
12
10982.3162821
22
3985.92812093
32
0
13
10982.3162821
23
3985.92812093
33
0
0
SOLID
5
14B
100
AcDbEntity
8
dimension
6
CONTINUOUS
62
7
370
0
100
AcDbTrace
10
9012.31628207
20
3980.93270504
30
0
11
9042.31628207
21
3985.92812093
31
0
12
9042.31628207
22
3975.93728915
32
0
13
9042.31628207
23
3975.93728915
33
0
0
MTEXT
5
14C
100
AcDbEntity
8
dimension
6
CONTINUOUS
62
7
370
0
100
AcDbMText
10
10012.3162821
20
4080.93270504
30
0
40
100
41
277.777777778
71
5
72
1
1
2000
7
standard
210
0
220
0
230
1
50
360
73
2
44
1
0
LINE
5
14D
100
AcDbEntity
8
dimension
6
CONTINUOUS
62
7
370
0
100
AcDbLine
10
11012.3162821
20
3313.93996177
11
11012.3162821
21
4030.93270504
0
LINE
5
14E
100
AcDbEntity
8
dimension
6
CONTINUOUS
62
7
370
0
100
AcDbLine
10
9012.31628207
20
3313.93996177
11
9012.31628207
21
4030.93270504
0
ENDBLK
5
88
330
86
100
AcDbEntity
8
0
100
AcDbBlockEnd
0
BLOCK
5
8A
330
89
100
AcDbEntity
8
0
100
AcDbBlockBegin
2
*D7
70
1
10
0
20
0
3
*D7
1

0
LINE
5
14F
100
AcDbEntity
8
dimension
6
CONTINUOUS
62
7
370
0
100
AcDbLine
10
11777.3162821
20
3981.27397379
11
11012.3162821
21
3981.27397379
0
SOLID
5
150
100
AcDbEntity
8
dimension
6
CONTINUOUS
62
7
370
0
100
AcDbTrace
10
11777.3162821
20
3981.27397379
30
0
11
11747.3162821
21
3976.2785579
31
0
12
11747.3162821
22
3986.26938968
32
0
13
11747.3162821
23
3986.26938968
33
0
0
SOLID
5
151
100
AcDbEntity
8
dimension
6
CONTINUOUS
62
7
370
0
100
AcDbTrace
10
11012.3162821
20
3981.27397379
30
0
11
11042.3162821
21
3986.26938968
31
0
12
11042.3162821
22
3976.2785579
32
0
13
11042.3162821
23
3976.2785579
33
0
0
MTEXT
5
152
100
AcDbEntity
8
dimension
6
CONTINUOUS
62
7
370
0
100
AcDbMText
10
11394.8162821
20
4081.27397379
30
0
40
100
41
200
71
5
72
1
1
765
7
standard
210
0
220
0
230
1
50
360
73
2
44
1
0
LINE
5
153
100
AcDbEntity
8
dimension
6
CONTINUOUS
62
7
370
0
100
AcDbLine
10
11777.3162821
20
3313.93996177
11
11777.3162821
21
4031.27397379
0
LINE
5
154
100
AcDbEntity
8
dimension
6
CONTINUOUS
62
7
370
0
100
AcDbLine
10
11012.3162821
20
3313.93996177
11
11012.3162821
21
4031.27397379
0
ENDBLK
5
8B
330
89
100
AcDbEntity
8
0
100
AcDbBlockEnd
0
BLOCK
5
8D
330
8C
100
AcDbEntity
8
0
100
AcDbBlockBegin
2
*D9
70
1
10
0
20
0
3
*D9
1

0
LINE
5
155
100
AcDbEntity
8
dimension
6
CONTINUOUS
62
7
370
0
100
AcDbLine
10
871.31628207
20
3633.28503333
11
2871.31628207
21
3633.28503333
0
SOLID
5
156
100
AcDbEntity
8
dimension
6
CONTINUOUS
62
7
370
0
100
AcDbTrace
10
871.31628207
20
3633.28503333
30
0
11
901.31628207
21
3638.28044922
31
0
12
901.31628207
22
3628.28961744
32
0
13
901.31628207
23
3628.28961744
33
0
0
SOLID
5
157
100
AcDbEntity
8
dimension
6
CONTINUOUS
62
7
370
0
100
AcDbTrace
10
2871.31628207
20
3633.28503333
30
0
11
2841.31628207
21
3628.28961744
31
0
12
2841.31628207
22
3638.28044922
32
0
13
2841.31628207
23
3638.28044922
33
0
0
MTEXT
5
158
100
AcDbEntity
8
dimension
6
CONTINUOUS
62
7
370
0
100
AcDbMText
10
1871.31628207
20
3733.28503333
30
0
40
100
41
277.777777778
71
5
72
1
1
2000
7
standard
210
0
220
0
230
1
50
0
73
2
44
1
0
LINE
5
159
100
AcDbEntity
8
dimension
6
CONTINUOUS
62
7
370
0
100
AcDbLine
10
871.31628207
20
3313.93996177
11
871.31628207
21
3683.28503333
0
LINE
5
15A
100
AcDbEntity
8
dimension
6
CONTINUOUS
62
7
370
0
100
AcDbLine
10
2871.31628207
20
3313.93996177
11
2871.31628207
21
3683.28503333
0
ENDBLK
5
8E
330
8C
100
AcDbEntity
8
0
100
AcDbBlockEnd
0
BLOCK
5
90
330
8F
100
AcDbEntity
8
0
100
AcDbBlockBegin
2
outlet110HorUp-0
70
0
10
0
20
0
3
outlet110HorUp-0
1

0
CIRCLE
5
15B
100
AcDbEntity
8
0
6
ByLayer
62
256
370
-1
100
AcDbCircle
10
19.2383306793
20
93.1569229908
40
50
0
LINE
5
15C
100
AcDbEntity
8
0
6
ByLayer
62
256
370
-1
100
AcDbLine
10
36.2896076697
20
0
11
36.2896076697
21
161.186024643
0
LINE
5
15D
100
AcDbEntity
8
0
6
ByLayer
62
256
370
-1
100
AcDbLine
10
0
20
0
11
0
21
161.186024643
0
ENDBLK
5
91
330
8F
100
AcDbEntity
8
0
100
AcDbBlockEnd
0
BLOCK
5
93
330
92
100
AcDbEntity
8
0
100
AcDbBlockBegin
2
door700VerLeft-1
70
0
10
0
20
0
3
door700VerLeft-1
1

0
LINE
5
15E
100
AcDbEntity
8
0
6
ByLayer
62
256
370
-1
100
AcDbLine
10
0
20
0
11
-614.878036687
21
-355
0
ARC
5
15F
100
AcDbEntity
8
0
6
ByLayer
62
256
370
-1
100
AcDbCircle
10
0
20
0
40
710
100
AcDbArc
50
210
51
270
0
LINE
5
160
100
AcDbEntity
8
0
6
ByLayer
62
256
370
-1
100
AcDbLine
10
25
20
-43.3012701892
11
-589.878036687
21
-398.301270189
0
LINE
5
161
100
AcDbEntity
8
0
6
ByLayer
62
256
370
-1
100
AcDbLine
10
0
20
0
11
25
21
-43.3012701892
0
ENDBLK
5
94
330
92
100
AcDbEntity
8
0
100
AcDbBlockEnd
0
BLOCK
5
96
330
95
100
AcDbEntity
8
0
100
AcDbBlockBegin
2
WCVerRight-2
70
0
10
0
20
0
3
WCVerRight-2
1

0
LINE
5
162
100
AcDbEntity
8
0
6
ByLayer
62
256
370
-1
100
AcDbLine
10
0
20
0
11
200
21
0
0
LINE
5
163
100
AcDbEntity
8
0
6
ByLayer
62
256
370
-1
100
AcDbLine
10
0
20
0
11
0
21
470
0
LINE
5
164
100
AcDbEntity
8
0
6
ByLayer
62
256
370
-1
100
AcDbLine
10
200
20
0
11
200
21
470
0
LINE
5
165
100
AcDbEntity
8
0
6
ByLayer
62
256
370
-1
100
AcDbLine
10
0
20
470
11
200
21
470
0
ELLIPSE
5
166
100
AcDbEntity
8
0
6
ByLayer
62
256
370
-1
100
AcDbEllipse
10
483.839834606
20
228.898383818
30
0
11
238.828093948
21
-6.63411372079
31
0
40
0.61565150347
41
0
42
6.28318530718
0
ENDBLK
5
97
330
95
100
AcDbEntity
8
0
100
AcDbBlockEnd
0
BLOCK
5
99
330
98
100
AcDbEntity
8
0
100
AcDbBlockBegin
2
tub_ver-0
70
0
10
0
20
0
3
tub_ver-0
1

0
ARC
5
167
100
AcDbEntity
8
0
6
ByLayer
62
256
370
-1
100
AcDbCircle
10
50
20
0
40
50
100
AcDbArc
50
90
51
180
0
LINE
5
168
100
AcDbEntity
8
0
6
ByLayer
62
256
370
-1
100
AcDbLine
10
50
20
50
11
530
21
50
0
ARC
5
169
100
AcDbEntity
8
0
6
ByLayer
62
256
370
-1
100
AcDbCircle
10
530
20
0
40
50
100
AcDbArc
50
0
51
90
0
LINE
5
16A
100
AcDbEntity
8
0
6
ByLayer
62
256
370
-1
100
AcDbLine
10
580
20
-870
11
580
21
0
0
ARC
5
16B
100
AcDbEntity
8
0
6
ByLayer
62
256
370
-1
100
AcDbCircle
10
530
20
-870
40
50
100
AcDbArc
50
270
51
0
0
LINE
5
16C
100
AcDbEntity
8
0
6
ByLayer
62
256
370
-1
100
AcDbLine
10
50
20
-920
11
530
21
-920
0
LINE
5
16D
100
AcDbEntity
8
0
6
ByLayer
62
256
370
-1
100
AcDbLine
10
-2.84217094304e-13
20
-870
11
0
21
0
0
ARC
5
16E
100
AcDbEntity
8
0
6
ByLayer
62
256
370
-1
100
AcDbCircle
10
50
20
-870
40
50
100
AcDbArc
50
180
51
270
0
ENDBLK
5
9A
330
98
100
AcDbEntity
8
0
100
AcDbBlockEnd
0
BLOCK
5
9C
330
9B
100
AcDbEntity
8
0
100
AcDbBlockBegin
2
door800VerLeft-0
70
0
10
0
20
0
3
door800VerLeft-0
1

0
LINE
5
16F
100
AcDbEntity
8
0
6
ByLayer
62
256
370
-1
100
AcDbLine
10
0
20
0
11
-514.230087749
21
-612.835554495
0
ARC
5
170
100
AcDbEntity
8
0
6
ByLayer
62
256
370
-1
100
AcDbCircle
10
0
20
0
40
800
100
AcDbArc
50
230
51
270
0
LINE
5
171
100
AcDbEntity
8
0
6
ByLayer
62
256
370
-1
100
AcDbLine
10
38.3022221559
20
-32.1393804843
11
-475.927865593
21
-644.97493498
0
LINE
5
172
100
AcDbEntity
8
0
6
ByLayer
62
256
370
-1
100
AcDbLine
10
0
20
0
11
38.3022221559
21
-32.1393804843
0
ENDBLK
5
9D
330
9B
100
AcDbEntity
8
0
100
AcDbBlockEnd
0
BLOCK
5
9F
330
9E
100
AcDbEntity
8
0
100
AcDbBlockBegin
2
KyotoKyomaTatamiVertical-0
70
0
10
0
20
0
3
KyotoKyomaTatamiVertical-0
1

0
LINE
5
173
100
AcDbEntity
8
0
6
ByLayer
62
256
370
-1
100
AcDbLine
10
0
20
0
11
-955
21
0
0
LINE
5
174
100
AcDbEntity
8
0
6
ByLayer
62
256
370
-1
100
AcDbLine
10
0
20
1910
11
-955
21
1910
0
LINE
5
175
100
AcDbEntity
8
0
6
ByLayer
62
256
370
-1
100
AcDbLine
10
-955
20
0
11
-955
21
1910
0
LINE
5
176
100
AcDbEntity
8
0
6
ByLayer
62
256
370
-1
100
AcDbLine
10
0
20
0
11
0
21
1910
0
LINE
5
177
100
AcDbEntity
8
0
6
ByLayer
62
256
370
-1
100
AcDbLine
10
-930
20
0
11
-930
21
1910
0
LINE
5
178
100
AcDbEntity
8
0
6
ByLayer
62
256
370
-1
100
AcDbLine
10
0
20
1885
11
-955
21
1885
0
LINE
5
179
100
AcDbEntity
8
0
6
ByLayer
62
256
370
-1
100
AcDbLine
10
0
20
25
11
-955
21
25
0
LINE
5
17A
100
AcDbEntity
8
0
6
ByLayer
62
256
370
-1
100
AcDbLine
10
-25
20
0
11
-25
21
1910
0
LINE
5
17B
100
AcDbEntity
8
0
6
ByLayer
62
256
370
-1
100
AcDbLine
10
0
20
955
11
-25
21
955
0
LINE
5
17C
100
AcDbEntity
8
0
6
ByLayer
62
256
370
-1
100
AcDbLine
10
-930
20
955
11
-955
21
955
0
ENDBLK
5
A0
330
9E
100
AcDbEntity
8
0
100
AcDbBlockEnd
0
BLOCK
5
A2
330
A1
100
AcDbEntity
8
0
100
AcDbBlockBegin
2
KyotoKyomaTatamiVertical-1
70
0
10
0
20
0
3
KyotoKyomaTatamiVertical-1
1

0
LINE
5
17D
100
AcDbEntity
8
0
6
ByLayer
62
256
370
-1
100
AcDbLine
10
0
20
0
11
-955
21
0
0
LINE
5
17E
100
AcDbEntity
8
0
6
ByLayer
62
256
370
-1
100
AcDbLine
10
0
20
1910
11
-955
21
1910
0
LINE
5
17F
100
AcDbEntity
8
0
6
ByLayer
62
256
370
-1
100
AcDbLine
10
-955
20
0
11
-955
21
1910
0
LINE
5
180
100
AcDbEntity
8
0
6
ByLayer
62
256
370
-1
100
AcDbLine
10
0
20
0
11
0
21
1910
0
LINE
5
181
100
AcDbEntity
8
0
6
ByLayer
62
256
370
-1
100
AcDbLine
10
-930
20
0
11
-930
21
1910
0
LINE
5
182
100
AcDbEntity
8
0
6
ByLayer
62
256
370
-1
100
AcDbLine
10
0
20
1885
11
-955
21
1885
0
LINE
5
183
100
AcDbEntity
8
0
6
ByLayer
62
256
370
-1
100
AcDbLine
10
0
20
25
11
-955
21
25
0
LINE
5
184
100
AcDbEntity
8
0
6
ByLayer
62
256
370
-1
100
AcDbLine
10
-25
20
0
11
-25
21
1910
0
LINE
5
185
100
AcDbEntity
8
0
6
ByLayer
62
256
370
-1
100
AcDbLine
10
0
20
955
11
-25
21
955
0
LINE
5
186
100
AcDbEntity
8
0
6
ByLayer
62
256
370
-1
100
AcDbLine
10
-930
20
955
11
-955
21
955
0
ENDBLK
5
A3
330
A1
100
AcDbEntity
8
0
100
AcDbBlockEnd
0
BLOCK
5
A5
330
A4
100
AcDbEntity
8
0
100
AcDbBlockBegin
2
KyotoKyomaTatamiVertical-2
70
0
10
0
20
0
3
KyotoKyomaTatamiVertical-2
1

0
LINE
5
187
100
AcDbEntity
8
0
6
ByLayer
62
256
370
-1
100
AcDbLine
10
0
20
0
11
-955
21
0
0
LINE
5
188
100
AcDbEntity
8
0
6
ByLayer
62
256
370
-1
100
AcDbLine
10
0
20
1910
11
-955
21
1910
0
LINE
5
189
100
AcDbEntity
8
0
6
ByLayer
62
256
370
-1
100
AcDbLine
10
-955
20
0
11
-955
21
1910
0
LINE
5
18A
100
AcDbEntity
8
0
6
ByLayer
62
256
370
-1
100
AcDbLine
10
0
20
0
11
0
21
1910
0
LINE
5
18B
100
AcDbEntity
8
0
6
ByLayer
62
256
370
-1
100
AcDbLine
10
-930
20
0
11
-930
21
1910
0
LINE
5
18C
100
AcDbEntity
8
0
6
ByLayer
62
256
370
-1
100
AcDbLine
10
0
20
1885
11
-955
21
1885
0
LINE
5
18D
100
AcDbEntity
8
0
6
ByLayer
62
256
370
-1
100
AcDbLine
10
0
20
25
11
-955
21
25
0
LINE
5
18E
100
AcDbEntity
8
0
6
ByLayer
62
256
370
-1
100
AcDbLine
10
-25
20
0
11
-25
21
1910
0
LINE
5
18F
100
AcDbEntity
8
0
6
ByLayer
62
256
370
-1
100
AcDbLine
10
0
20
955
11
-25
21
955
0
LINE
5
190
100
AcDbEntity
8
0
6
ByLayer
62
256
370
-1
100
AcDbLine
10
-930
20
955
11
-955
21
955
0
ENDBLK
5
A6
330
A4
100
AcDbEntity
8
0
100
AcDbBlockEnd
0
BLOCK
5
A8
330
A7
100
AcDbEntity
8
0
100
AcDbBlockBegin
2
KyotoKyomaTatamiVertical-3
70
0
10
0
20
0
3
KyotoKyomaTatamiVertical-3
1

0
LINE
5
191
100
AcDbEntity
8
0
6
ByLayer
62
256
370
-1
100
AcDbLine
10
0
20
0
11
-955
21
0
0
LINE
5
192
100
AcDbEntity
8
0
6
ByLayer
62
256
370
-1
100
AcDbLine
10
0
20
1910
11
-955
21
1910
0
LINE
5
193
100
AcDbEntity
8
0
6
ByLayer
62
256
370
-1
100
AcDbLine
10
-955
20
0
11
-955
21
1910
0
LINE
5
194
100
AcDbEntity
8
0
6
ByLayer
62
256
370
-1
100
AcDbLine
10
0
20
0
11
0
21
1910
0
LINE
5
195
100
AcDbEntity
8
0
6
ByLayer
62
256
370
-1
100
AcDbLine
10
-930
20
0
11
-930
21
1910
0
LINE
5
196
100
AcDbEntity
8
0
6
ByLayer
62
256
370
-1
100
AcDbLine
10
0
20
1885
11
-955
21
1885
0
LINE
5
197
100
AcDbEntity
8
0
6
ByLayer
62
256
370
-1
100
AcDbLine
10
0
20
25
11
-955
21
25
0
LINE
5
198
100
AcDbEntity
8
0
6
ByLayer
62
256
370
-1
100
AcDbLine
10
-25
20
0
11
-25
21
1910
0
LINE
5
199
100
AcDbEntity
8
0
6
ByLayer
62
256
370
-1
100
AcDbLine
10
0
20
955
11
-25
21
955
0
LINE
5
19A
100
AcDbEntity
8
0
6
ByLayer
62
256
370
-1
100
AcDbLine
10
-930
20
955
11
-955
21
955
0
ENDBLK
5
A9
330
A7
100
AcDbEntity
8
0
100
AcDbBlockEnd
0
BLOCK
5
AB
330
AA
100
AcDbEntity
8
0
100
AcDbBlockBegin
2
KyotoKyomaTatamiVertical-4
70
0
10
0
20
0
3
KyotoKyomaTatamiVertical-4
1

0
LINE
5
19B
100
AcDbEntity
8
0
6
ByLayer
62
256
370
-1
100
AcDbLine
10
0
20
0
11
-955
21
0
0
LINE
5
19C
100
AcDbEntity
8
0
6
ByLayer
62
256
370
-1
100
AcDbLine
10
0
20
1910
11
-955
21
1910
0
LINE
5
19D
100
AcDbEntity
8
0
6
ByLayer
62
256
370
-1
100
AcDbLine
10
-955
20
0
11
-955
21
1910
0
LINE
5
19E
100
AcDbEntity
8
0
6
ByLayer
62
256
370
-1
100
AcDbLine
10
0
20
0
11
0
21
1910
0
LINE
5
19F
100
AcDbEntity
8
0
6
ByLayer
62
256
370
-1
100
AcDbLine
10
-930
20
0
11
-930
21
1910
0
LINE
5
1A0
100
AcDbEntity
8
0
6
ByLayer
62
256
370
-1
100
AcDbLine
10
0
20
1885
11
-955
21
1885
0
LINE
5
1A1
100
AcDbEntity
8
0
6
ByLayer
62
256
370
-1
100
AcDbLine
10
0
20
25
11
-955
21
25
0
LINE
5
1A2
100
AcDbEntity
8
0
6
ByLayer
62
256
370
-1
100
AcDbLine
10
-25
20
0
11
-25
21
1910
0
LINE
5
1A3
100
AcDbEntity
8
0
6
ByLayer
62
256
370
-1
100
AcDbLine
10
0
20
955
11
-25
21
955
0
LINE
5
1A4
100
AcDbEntity
8
0
6
ByLayer
62
256
370
-1
100
AcDbLine
10
-930
20
955
11
-955
21
955
0
ENDBLK
5
AC
330
AA
100
AcDbEntity
8
0
100
AcDbBlockEnd
0
BLOCK
5
AE
330
AD
100
AcDbEntity
8
0
100
AcDbBlockBegin
2
KyotoKyomaTatamiVertical-5
70
0
10
0
20
0
3
KyotoKyomaTatamiVertical-5
1

0
LINE
5
1A5
100
AcDbEntity
8
0
6
ByLayer
62
256
370
-1
100
AcDbLine
10
0
20
0
11
-955
21
0
0
LINE
5
1A6
100
AcDbEntity
8
0
6
ByLayer
62
256
370
-1
100
AcDbLine
10
0
20
1910
11
-955
21
1910
0
LINE
5
1A7
100
AcDbEntity
8
0
6
ByLayer
62
256
370
-1
100
AcDbLine
10
-955
20
0
11
-955
21
1910
0
LINE
5
1A8
100
AcDbEntity
8
0
6
ByLayer
62
256
370
-1
100
AcDbLine
10
0
20
0
11
0
21
1910
0
LINE
5
1A9
100
AcDbEntity
8
0
6
ByLayer
62
256
370
-1
100
AcDbLine
10
-930
20
0
11
-930
21
1910
0
LINE
5
1AA
100
AcDbEntity
8
0
6
ByLayer
62
256
370
-1
100
AcDbLine
10
0
20
1885
11
-955
21
1885
0
LINE
5
1AB
100
AcDbEntity
8
0
6
ByLayer
62
256
370
-1
100
AcDbLine
10
0
20
25
11
-955
21
25
0
LINE
5
1AC
100
AcDbEntity
8
0
6
ByLayer
62
256
370
-1
100
AcDbLine
10
-25
20
0
11
-25
21
1910
0
LINE
5
1AD
100
AcDbEntity
8
0
6
ByLayer
62
256
370
-1
100
AcDbLine
10
0
20
955
11
-25
21
955
0
LINE
5
1AE
100
AcDbEntity
8
0
6
ByLayer
62
256
370
-1
100
AcDbLine
10
-930
20
955
11
-955
21
955
0
ENDBLK
5
AF
330
AD
100
AcDbEntity
8
0
100
AcDbBlockEnd
0
BLOCK
5
B1
330
B0
100
AcDbEntity
8
0
100
AcDbBlockBegin
2
KyotoKyomaTatamiVertical-6
70
0
10
0
20
0
3
KyotoKyomaTatamiVertical-6
1

0
LINE
5
1AF
100
AcDbEntity
8
0
6
ByLayer
62
256
370
-1
100
AcDbLine
10
0
20
0
11
-955
21
0
0
LINE
5
1B0
100
AcDbEntity
8
0
6
ByLayer
62
256
370
-1
100
AcDbLine
10
0
20
1910
11
-955
21
1910
0
LINE
5
1B1
100
AcDbEntity
8
0
6
ByLayer
62
256
370
-1
100
AcDbLine
10
-955
20
0
11
-955
21
1910
0
LINE
5
1B2
100
AcDbEntity
8
0
6
ByLayer
62
256
370
-1
100
AcDbLine
10
0
20
0
11
0
21
1910
0
LINE
5
1B3
100
AcDbEntity
8
0
6
ByLayer
62
256
370
-1
100
AcDbLine
10
-930
20
0
11
-930
21
1910
0
LINE
5
1B4
100
AcDbEntity
8
0
6
ByLayer
62
256
370
-1
100
AcDbLine
10
0
20
1885
11
-955
21
1885
0
LINE
5
1B5
100
AcDbEntity
8
0
6
ByLayer
62
256
370
-1
100
AcDbLine
10
0
20
25
11
-955
21
25
0
LINE
5
1B6
100
AcDbEntity
8
0
6
ByLayer
62
256
370
-1
100
AcDbLine
10
-25
20
0
11
-25
21
1910
0
LINE
5
1B7
100
AcDbEntity
8
0
6
ByLayer
62
256
370
-1
100
AcDbLine
10
0
20
955
11
-25
21
955
0
LINE
5
1B8
100
AcDbEntity
8
0
6
ByLayer
62
256
370
-1
100
AcDbLine
10
-930
20
955
11
-955
21
955
0
ENDBLK
5
B2
330
B0
100
AcDbEntity
8
0
100
AcDbBlockEnd
0
BLOCK
5
B4
330
B3
100
AcDbEntity
8
0
100
AcDbBlockBegin
2
KyotoKyomaTatamiVertical-7
70
0
10
0
20
0
3
KyotoKyomaTatamiVertical-7
1

0
LINE
5
1B9
100
AcDbEntity
8
0
6
ByLayer
62
256
370
-1
100
AcDbLine
10
0
20
0
11
-955
21
0
0
LINE
5
1BA
100
AcDbEntity
8
0
6
ByLayer
62
256
370
-1
100
AcDbLine
10
0
20
1910
11
-955
21
1910
0
LINE
5
1BB
100
AcDbEntity
8
0
6
ByLayer
62
256
370
-1
100
AcDbLine
10
-955
20
0
11
-955
21
1910
0
LINE
5
1BC
100
AcDbEntity
8
0
6
ByLayer
62
256
370
-1
100
AcDbLine
10
0
20
0
11
0
21
1910
0
LINE
5
1BD
100
AcDbEntity
8
0
6
ByLayer
62
256
370
-1
100
AcDbLine
10
-930
20
0
11
-930
21
1910
0
LINE
5
1BE
100
AcDbEntity
8
0
6
ByLayer
62
256
370
-1
100
AcDbLine
10
0
20
1885
11
-955
21
1885
0
LINE
5
1BF
100
AcDbEntity
8
0
6
ByLayer
62
256
370
-1
100
AcDbLine
10
0
20
25
11
-955
21
25
0
LINE
5
1C0
100
AcDbEntity
8
0
6
ByLayer
62
256
370
-1
100
AcDbLine
10
-25
20
0
11
-25
21
1910
0
LINE
5
1C1
100
AcDbEntity
8
0
6
ByLayer
62
256
370
-1
100
AcDbLine
10
0
20
955
11
-25
21
955
0
LINE
5
1C2
100
AcDbEntity
8
0
6
ByLayer
62
256
370
-1
100
AcDbLine
10
-930
20
955
11
-955
21
955
0
ENDBLK
5
B5
330
B3
100
AcDbEntity
8
0
100
AcDbBlockEnd
0
BLOCK
5
B7
330
B6
100
AcDbEntity
8
0
100
AcDbBlockBegin
2
KyotoKyomaTatamiVertical-8
70
0
10
0
20
0
3
KyotoKyomaTatamiVertical-8
1

0
LINE
5
1C3
100
AcDbEntity
8
0
6
ByLayer
62
256
370
-1
100
AcDbLine
10
0
20
0
11
-955
21
0
0
LINE
5
1C4
100
AcDbEntity
8
0
6
ByLayer
62
256
370
-1
100
AcDbLine
10
0
20
1910
11
-955
21
1910
0
LINE
5
1C5
100
AcDbEntity
8
0
6
ByLayer
62
256
370
-1
100
AcDbLine
10
-955
20
0
11
-955
21
1910
0
LINE
5
1C6
100
AcDbEntity
8
0
6
ByLayer
62
256
370
-1
100
AcDbLine
10
0
20
0
11
0
21
1910
0
LINE
5
1C7
100
AcDbEntity
8
0
6
ByLayer
62
256
370
-1
100
AcDbLine
10
-930
20
0
11
-930
21
1910
0
LINE
5
1C8
100
AcDbEntity
8
0
6
ByLayer
62
256
370
-1
100
AcDbLine
10
0
20
1885
11
-955
21
1885
0
LINE
5
1C9
100
AcDbEntity
8
0
6
ByLayer
62
256
370
-1
100
AcDbLine
10
0
20
25
11
-955
21
25
0
LINE
5
1CA
100
AcDbEntity
8
0
6
ByLayer
62
256
370
-1
100
AcDbLine
10
-25
20
0
11
-25
21
1910
0
LINE
5
1CB
100
AcDbEntity
8
0
6
ByLayer
62
256
370
-1
100
AcDbLine
10
0
20
955
11
-25
21
955
0
LINE
5
1CC
100
AcDbEntity
8
0
6
ByLayer
62
256
370
-1
100
AcDbLine
10
-930
20
955
11
-955
21
955
0
ENDBLK
5
B8
330
B6
100
AcDbEntity
8
0
100
AcDbBlockEnd
0
BLOCK
5
BA
330
B9
100
AcDbEntity
8
0
100
AcDbBlockBegin
2
KyotoKyomaTatamiHalf-0
70
0
10
0
20
0
3
KyotoKyomaTatamiHalf-0
1

0
LINE
5
1CD
100
AcDbEntity
8
0
6
ByLayer
62
256
370
-1
100
AcDbLine
10
0
20
955
11
955
21
955
0
LINE
5
1CE
100
AcDbEntity
8
0
6
ByLayer
62
256
370
-1
100
AcDbLine
10
0
20
0
11
955
21
0
0
LINE
5
1CF
100
AcDbEntity
8
0
6
ByLayer
62
256
370
-1
100
AcDbLine
10
0
20
0
11
0
21
955
0
LINE
5
1D0
100
AcDbEntity
8
0
6
ByLayer
62
256
370
-1
100
AcDbLine
10
955
20
0
11
955
21
955
0
LINE
5
1D1
100
AcDbEntity
8
0
6
ByLayer
62
256
370
-1
100
AcDbLine
10
25
20
0
11
25
21
955
0
LINE
5
1D2
100
AcDbEntity
8
0
6
ByLayer
62
256
370
-1
100
AcDbLine
10
0
20
930
11
955
21
930
0
LINE
5
1D3
100
AcDbEntity
8
0
6
ByLayer
62
256
370
-1
100
AcDbLine
10
930
20
0
11
930
21
955
0
LINE
5
1D4
100
AcDbEntity
8
0
6
ByLayer
62
256
370
-1
100
AcDbLine
10
0
20
25
11
955
21
25
0
ENDBLK
5
BB
330
B9
100
AcDbEntity
8
0
100
AcDbBlockEnd
0
BLOCK
5
BD
330
BC
100
AcDbEntity
8
0
100
AcDbBlockBegin
2
KyotoKyomaTatamiHalf-1
70
0
10
0
20
0
3
KyotoKyomaTatamiHalf-1
1

0
LINE
5
1D5
100
AcDbEntity
8
0
6
ByLayer
62
256
370
-1
100
AcDbLine
10
0
20
955
11
955
21
955
0
LINE
5
1D6
100
AcDbEntity
8
0
6
ByLayer
62
256
370
-1
100
AcDbLine
10
0
20
0
11
955
21
0
0
LINE
5
1D7
100
AcDbEntity
8
0
6
ByLayer
62
256
370
-1
100
AcDbLine
10
0
20
0
11
0
21
955
0
LINE
5
1D8
100
AcDbEntity
8
0
6
ByLayer
62
256
370
-1
100
AcDbLine
10
955
20
0
11
955
21
955
0
LINE
5
1D9
100
AcDbEntity
8
0
6
ByLayer
62
256
370
-1
100
AcDbLine
10
25
20
0
11
25
21
955
0
LINE
5
1DA
100
AcDbEntity
8
0
6
ByLayer
62
256
370
-1
100
AcDbLine
10
0
20
930
11
955
21
930
0
LINE
5
1DB
100
AcDbEntity
8
0
6
ByLayer
62
256
370
-1
100
AcDbLine
10
930
20
0
11
930
21
955
0
LINE
5
1DC
100
AcDbEntity
8
0
6
ByLayer
62
256
370
-1
100
AcDbLine
10
0
20
25
11
955
21
25
0
ENDBLK
5
BE
330
BC
100
AcDbEntity
8
0
100
AcDbBlockEnd
0
BLOCK
5
C0
330
BF
100
AcDbEntity
8
0
100
AcDbBlockBegin
2
KyotoKyomaTatamiHalf-2
70
0
10
0
20
0
3
KyotoKyomaTatamiHalf-2
1

0
LINE
5
1DD
100
AcDbEntity
8
0
6
ByLayer
62
256
370
-1
100
AcDbLine
10
0
20
955
11
955
21
955
0
LINE
5
1DE
100
AcDbEntity
8
0
6
ByLayer
62
256
370
-1
100
AcDbLine
10
0
20
0
11
955
21
0
0
LINE
5
1DF
100
AcDbEntity
8
0
6
ByLayer
62
256
370
-1
100
AcDbLine
10
0
20
0
11
0
21
955
0
LINE
5
1E0
100
AcDbEntity
8
0
6
ByLayer
62
256
370
-1
100
AcDbLine
10
955
20
0
11
955
21
955
0
LINE
5
1E1
100
AcDbEntity
8
0
6
ByLayer
62
256
370
-1
100
AcDbLine
10
25
20
0
11
25
21
955
0
LINE
5
1E2
100
AcDbEntity
8
0
6
ByLayer
62
256
370
-1
100
AcDbLine
10
0
20
930
11
955
21
930
0
LINE
5
1E3
100
AcDbEntity
8
0
6
ByLayer
62
256
370
-1
100
AcDbLine
10
930
20
0
11
930
21
955
0
LINE
5
1E4
100
AcDbEntity
8
0
6
ByLayer
62
256
370
-1
100
AcDbLine
10
0
20
25
11
955
21
25
0
ENDBLK
5
C1
330
BF
100
AcDbEntity
8
0
100
AcDbBlockEnd
0
BLOCK
5
C3
330
C2
100
AcDbEntity
8
0
100
AcDbBlockBegin
2
KyotoKyomaTatamiHalf-3
70
0
10
0
20
0
3
KyotoKyomaTatamiHalf-3
1

0
LINE
5
1E5
100
AcDbEntity
8
0
6
ByLayer
62
256
370
-1
100
AcDbLine
10
0
20
955
11
955
21
955
0
LINE
5
1E6
100
AcDbEntity
8
0
6
ByLayer
62
256
370
-1
100
AcDbLine
10
0
20
0
11
955
21
0
0
LINE
5
1E7
100
AcDbEntity
8
0
6
ByLayer
62
256
370
-1
100
AcDbLine
10
0
20
0
11
0
21
955
0
LINE
5
1E8
100
AcDbEntity
8
0
6
ByLayer
62
256
370
-1
100
AcDbLine
10
955
20
0
11
955
21
955
0
LINE
5
1E9
100
AcDbEntity
8
0
6
ByLayer
62
256
370
-1
100
AcDbLine
10
25
20
0
11
25
21
955
0
LINE
5
1EA
100
AcDbEntity
8
0
6
ByLayer
62
256
370
-1
100
AcDbLine
10
0
20
930
11
955
21
930
0
LINE
5
1EB
100
AcDbEntity
8
0
6
ByLayer
62
256
370
-1
100
AcDbLine
10
930
20
0
11
930
21
955
0
LINE
5
1EC
100
AcDbEntity
8
0
6
ByLayer
62
256
370
-1
100
AcDbLine
10
0
20
25
11
955
21
25
0
ENDBLK
5
C4
330
C2
100
AcDbEntity
8
0
100
AcDbBlockEnd
0
BLOCK
5
C6
330
C5
100
AcDbEntity
8
0
100
AcDbBlockBegin
2
KyotoKyomaTatamiVertical-9
70
0
10
0
20
0
3
KyotoKyomaTatamiVertical-9
1

0
LINE
5
1ED
100
AcDbEntity
8
0
6
ByLayer
62
256
370
-1
100
AcDbLine
10
0
20
0
11
-955
21
0
0
LINE
5
1EE
100
AcDbEntity
8
0
6
ByLayer
62
256
370
-1
100
AcDbLine
10
0
20
1910
11
-955
21
1910
0
LINE
5
1EF
100
AcDbEntity
8
0
6
ByLayer
62
256
370
-1
100
AcDbLine
10
-955
20
0
11
-955
21
1910
0
LINE
5
1F0
100
AcDbEntity
8
0
6
ByLayer
62
256
370
-1
100
AcDbLine
10
0
20
0
11
0
21
1910
0
LINE
5
1F1
100
AcDbEntity
8
0
6
ByLayer
62
256
370
-1
100
AcDbLine
10
-930
20
0
11
-930
21
1910
0
LINE
5
1F2
100
AcDbEntity
8
0
6
ByLayer
62
256
370
-1
100
AcDbLine
10
0
20
1885
11
-955
21
1885
0
LINE
5
1F3
100
AcDbEntity
8
0
6
ByLayer
62
256
370
-1
100
AcDbLine
10
0
20
25
11
-955
21
25
0
LINE
5
1F4
100
AcDbEntity
8
0
6
ByLayer
62
256
370
-1
100
AcDbLine
10
-25
20
0
11
-25
21
1910
0
LINE
5
1F5
100
AcDbEntity
8
0
6
ByLayer
62
256
370
-1
100
AcDbLine
10
0
20
955
11
-25
21
955
0
LINE
5
1F6
100
AcDbEntity
8
0
6
ByLayer
62
256
370
-1
100
AcDbLine
10
-930
20
955
11
-955
21
955
0
ENDBLK
5
C7
330
C5
100
AcDbEntity
8
0
100
AcDbBlockEnd
0
BLOCK
5
C9
330
C8
100
AcDbEntity
8
0
100
AcDbBlockBegin
2
KyotoKyomaTatami-0
70
0
10
0
20
0
3
KyotoKyomaTatami-0
1

0
LINE
5
1F7
100
AcDbEntity
8
0
6
ByLayer
62
256
370
-1
100
AcDbLine
10
0
20
0
11
0
21
955
0
LINE
5
1F8
100
AcDbEntity
8
0
6
ByLayer
62
256
370
-1
100
AcDbLine
10
1910
20
0
11
1910
21
955
0
LINE
5
1F9
100
AcDbEntity
8
0
6
ByLayer
62
256
370
-1
100
AcDbLine
10
0
20
955
11
1910
21
955
0
LINE
5
1FA
100
AcDbEntity
8
0
6
ByLayer
62
256
370
-1
100
AcDbLine
10
0
20
0
11
1910
21
0
0
LINE
5
1FB
100
AcDbEntity
8
0
6
ByLayer
62
256
370
-1
100
AcDbLine
10
0
20
930
11
1910
21
930
0
LINE
5
1FC
100
AcDbEntity
8
0
6
ByLayer
62
256
370
-1
100
AcDbLine
10
1885
20
0
11
1885
21
955
0
LINE
5
1FD
100
AcDbEntity
8
0
6
ByLayer
62
256
370
-1
100
AcDbLine
10
25
20
0
11
25
21
955
0
LINE
5
1FE
100
AcDbEntity
8
0
6
ByLayer
62
256
370
-1
100
AcDbLine
10
0
20
25
11
1910
21
25
0
LINE
5
1FF
100
AcDbEntity
8
0
6
ByLayer
62
256
370
-1
100
AcDbLine
10
955
20
0
11
955
21
25
0
LINE
5
200
100
AcDbEntity
8
0
6
ByLayer
62
256
370
-1
100
AcDbLine
10
955
20
930
11
955
21
955
0
ENDBLK
5
CA
330
C8
100
AcDbEntity
8
0
100
AcDbBlockEnd
0
BLOCK
5
CC
330
CB
100
AcDbEntity
8
0
100
AcDbBlockBegin
2
KyotoKyomaTatami-1
70
0
10
0
20
0
3
KyotoKyomaTatami-1
1

0
LINE
5
201
100
AcDbEntity
8
0
6
ByLayer
62
256
370
-1
100
AcDbLine
10
0
20
0
11
0
21
955
0
LINE
5
202
100
AcDbEntity
8
0
6
ByLayer
62
256
370
-1
100
AcDbLine
10
1910
20
0
11
1910
21
955
0
LINE
5
203
100
AcDbEntity
8
0
6
ByLayer
62
256
370
-1
100
AcDbLine
10
0
20
955
11
1910
21
955
0
LINE
5
204
100
AcDbEntity
8
0
6
ByLayer
62
256
370
-1
100
AcDbLine
10
0
20
0
11
1910
21
0
0
LINE
5
205
100
AcDbEntity
8
0
6
ByLayer
62
256
370
-1
100
AcDbLine
10
0
20
930
11
1910
21
930
0
LINE
5
206
100
AcDbEntity
8
0
6
ByLayer
62
256
370
-1
100
AcDbLine
10
1885
20
0
11
1885
21
955
0
LINE
5
207
100
AcDbEntity
8
0
6
ByLayer
62
256
370
-1
100
AcDbLine
10
25
20
0
11
25
21
955
0
LINE
5
208
100
AcDbEntity
8
0
6
ByLayer
62
256
370
-1
100
AcDbLine
10
0
20
25
11
1910
21
25
0
LINE
5
209
100
AcDbEntity
8
0
6
ByLayer
62
256
370
-1
100
AcDbLine
10
955
20
0
11
955
21
25
0
LINE
5
20A
100
AcDbEntity
8
0
6
ByLayer
62
256
370
-1
100
AcDbLine
10
955
20
930
11
955
21
955
0
ENDBLK
5
CD
330
CB
100
AcDbEntity
8
0
100
AcDbBlockEnd
0
BLOCK
5
CF
330
CE
100
AcDbEntity
8
0
100
AcDbBlockBegin
2
washer_Hor-0
70
0
10
0
20
0
3
washer_Hor-0
1

0
LINE
5
20B
100
AcDbEntity
8
0
6
ByLayer
62
256
370
-1
100
AcDbLine
10
520
20
0
11
520
21
550
0
LINE
5
20C
100
AcDbEntity
8
0
6
ByLayer
62
256
370
-1
100
AcDbLine
10
0
20
0
11
0
21
550
0
LINE
5
20D
100
AcDbEntity
8
0
6
ByLayer
62
256
370
-1
100
AcDbLine
10
0
20
550
11
520
21
550
0
LINE
5
20E
100
AcDbEntity
8
0
6
ByLayer
62
256
370
-1
100
AcDbLine
10
0
20
0
11
520
21
0
0
CIRCLE
5
20F
100
AcDbEntity
8
0
6
ByLayer
62
256
370
-1
100
AcDbCircle
10
260
20
275
40
190.24749449
0
LINE
5
210
100
AcDbEntity
8
0
6
ByLayer
62
256
370
-1
100
AcDbLine
10
0
20
50
11
520
21
50
0
ENDBLK
5
D0
330
CE
100
AcDbEntity
8
0
100
AcDbBlockEnd
0
BLOCK
5
D2
330
D1
100
AcDbEntity
8
0
100
AcDbBlockBegin
2
washer_Hor-1
70
0
10
0
20
0
3
washer_Hor-1
1

0
LINE
5
211
100
AcDbEntity
8
0
6
ByLayer
62
256
370
-1
100
AcDbLine
10
520
20
0
11
520
21
550
0
LINE
5
212
100
AcDbEntity
8
0
6
ByLayer
62
256
370
-1
100
AcDbLine
10
0
20
0
11
0
21
550
0
LINE
5
213
100
AcDbEntity
8
0
6
ByLayer
62
256
370
-1
100
AcDbLine
10
0
20
550
11
520
21
550
0
LINE
5
214
100
AcDbEntity
8
0
6
ByLayer
62
256
370
-1
100
AcDbLine
10
0
20
0
11
520
21
0
0
CIRCLE
5
215
100
AcDbEntity
8
0
6
ByLayer
62
256
370
-1
100
AcDbCircle
10
260
20
275
40
190.24749449
0
LINE
5
216
100
AcDbEntity
8
0
6
ByLayer
62
256
370
-1
100
AcDbLine
10
0
20
50
11
520
21
50
0
ENDBLK
5
D3
330
D1
100
AcDbEntity
8
0
100
AcDbBlockEnd
0
BLOCK
5
D5
330
D4
100
AcDbEntity
8
0
100
AcDbBlockBegin
2
refridge500_600_verRight-0
70
0
10
0
20
0
3
refridge500_600_verRight-0
1

0
LINE
5
217
100
AcDbEntity
8
0
6
ByLayer
62
256
370
-1
100
AcDbLine
10
0
20
0
11
550
21
0
0
LINE
5
218
100
AcDbEntity
8
0
6
ByLayer
62
256
370
-1
100
AcDbLine
10
0
20
-600
11
550
21
-600
0
LINE
5
219
100
AcDbEntity
8
0
6
ByLayer
62
256
370
-1
100
AcDbLine
10
500
20
0
11
500
21
-600
0
LINE
5
21A
100
AcDbEntity
8
0
6
ByLayer
62
256
370
-1
100
AcDbLine
10
0
20
0
11
0
21
-600
0
ARC
5
21B
100
AcDbEntity
8
0
6
ByLayer
62
256
370
-1
100
AcDbCircle
10
-689.692211372
20
-300
40
1275.4751189
100
AcDbArc
50
346.396206231
51
13.603793769
0
LINE
5
21C
100
AcDbEntity
8
0
6
ByLayer
62
256
370
-1
100
AcDbLine
10
510
20
0
11
510
21
-600
0
MTEXT
5
21D
100
AcDbEntity
8
0
6
ByLayer
62
256
370
-1
100
AcDbMText
10
266.901409432
20
-24.0279179021
30
0
40
200
41
533.333333333
71
4
72
5
1
Refr
7
iso
210
0
220
0
230
1
50
270
73
1
44
0.96
0
ENDBLK
5
D6
330
D4
100
AcDbEntity
8
0
100
AcDbBlockEnd
0
BLOCK
5
D8
330
D7
100
AcDbEntity
8
0
100
AcDbBlockBegin
2
Standard40ft12m_withIntwall-0
70
0
10
0
20
0
3
Standard40ft12m_withIntwall-0
1

0
LINE
5
21E
100
AcDbEntity
8
0
6
ByLayer
62
256
370
-1
100
AcDbLine
10
94
20
94
11
94
21
2346
0
LINE
5
21F
100
AcDbEntity
8
0
6
ByLayer
62
256
370
-1
100
AcDbLine
10
94
20
94
11
12076
21
94
0
LINE
5
220
100
AcDbEntity
8
0
6
ByLayer
62
256
370
-1
100
AcDbLine
10
44
20
44
11
44
21
2396
0
LINE
5
221
100
AcDbEntity
8
0
6
ByLayer
62
256
370
-1
100
AcDbLine
10
0
20
0
11
0
21
2440
0
LINE
5
222
100
AcDbEntity
8
0
6
ByLayer
62
256
370
-1
100
AcDbLine
10
0
20
0
11
12200
21
0
0
LINE
5
223
100
AcDbEntity
8
0
6
ByLayer
62
256
370
-1
100
AcDbLine
10
44
20
44
11
12200
21
44
0
LINE
5
224
100
AcDbEntity
8
0
6
ByLayer
62
256
370
-1
100
AcDbLine
10
12200
20
2390
11
13370
21
2390
0
LINE
5
225
100
AcDbEntity
8
0
6
ByLayer
62
256
370
-1
100
AcDbLine
10
12200
20
50
11
13370
21
50
0
LINE
5
226
100
AcDbEntity
8
0
6
ByLayer
62
256
370
-1
100
AcDbLine
10
12200
20
2434
11
13370
21
2434
0
LINE
5
227
100
AcDbEntity
8
0
6
ByLayer
62
256
370
-1
100
AcDbLine
10
12200
20
6
11
13370
21
6
0
LINE
5
228
100
AcDbEntity
8
0
6
ByLayer
62
256
370
-1
100
AcDbLine
10
13370
20
50
11
13370
21
2390
0
LINE
5
229
100
AcDbEntity
8
0
6
ByLayer
62
256
370
-1
100
AcDbLine
10
12076
20
44
11
12076
21
2396
0
LINE
5
22A
100
AcDbEntity
8
0
6
ByLayer
62
256
370
-1
100
AcDbLine
10
12200
20
0
11
12200
21
2440
0
LINE
5
22B
100
AcDbEntity
8
0
6
ByLayer
62
256
370
-1
100
AcDbLine
10
94
20
2346
11
12076
21
2346
0
LINE
5
22C
100
AcDbEntity
8
0
6
ByLayer
62
256
370
-1
100
AcDbLine
10
0
20
2440
11
12200
21
2440
0
LINE
5
22D
100
AcDbEntity
8
0
6
ByLayer
62
256
370
-1
100
AcDbLine
10
44
20
2396
11
12200
21
2396
0
ENDBLK
5
D9
330
D7
100
AcDbEntity
8
0
100
AcDbBlockEnd
0
BLOCK
5
DB
330
DA
100
AcDbEntity
8
0
100
AcDbBlockBegin
2
jtub
70
0
10
0
20
0
3
jtub
1

0
INSERT
5
22E
100
AcDbEntity
8
fixtures
6
ByLayer
62
256
370
-1
100
AcDbBlockReference
2
tub_ver-0
10
89.9985784502
20
870.630897716
30
0
41
1
42
1
43
0
50
0
70
1
71
1
44
0
45
0
0
LINE
5
22F
100
AcDbEntity
8
fixtures
6
ByLayer
62
256
370
-1
100
AcDbLine
10
759.99857845
20
0.630897714578
11
759.99857845
21
870.630897716
0
ARC
5
230
100
AcDbEntity
8
fixtures
6
ByLayer
62
256
370
-1
100
AcDbCircle
10
619.99857845
20
870.630897716
40
140
100
AcDbArc
50
0
51
90
0
ARC
5
231
100
AcDbEntity
8
fixtures
6
ByLayer
62
256
370
-1
100
AcDbCircle
10
619.99857845
20
0.630897714578
40
140
100
AcDbArc
50
270
51
0
0
LINE
5
232
100
AcDbEntity
8
fixtures
6
ByLayer
62
256
370
-1
100
AcDbLine
10
139.99857845
20
-139.369102285
11
619.99857845
21
-139.369102285
0
ARC
5
233
100
AcDbEntity
8
fixtures
6
ByLayer
62
256
370
-1
100
AcDbCircle
10
139.99857845
20
0.630897714578
40
140
100
AcDbArc
50
180
51
270
0
ARC
5
234
100
AcDbEntity
8
fixtures
6
ByLayer
62
256
370
-1
100
AcDbCircle
10
139.99857845
20
870.630897716
40
140
100
AcDbArc
50
90
51
180
0
LINE
5
235
100
AcDbEntity
8
fixtures
6
ByLayer
62
256
370
-1
100
AcDbLine
10
139.99857845
20
1010.63089772
11
619.99857845
21
1010.63089772
0
LINE
5
236
100
AcDbEntity
8
fixtures
6
ByLayer
62
256
370
-1
100
AcDbLine
10
-0.00142154981094
20
870.630897716
11
0
21
0
0
ENDBLK
5
DC
330
DA
100
AcDbEntity
8
0
100
AcDbBlockEnd
0
ENDSEC
0
SECTION
2
ENTITIES
0
LINE
5
237
100
AcDbEntity
8
0
6
ByLayer
62
256
370
-1
100
AcDbLine
10
4921.31628207
20
3209.93996178
11
4921.31628207
21
957.93996177
0
LINE
5
238
100
AcDbEntity
8
0
6
ByLayer
62
256
370
-1
100
AcDbLine
10
4871.31628207
20
3209.93996178
11
4871.31628207
21
957.93996177
0
LINE
5
239
100
AcDbEntity
8
0
6
ByLayer
62
256
370
-1
100
AcDbLine
10
4921.31628207
20
1807.93996177
11
6621.31628207
21
1807.93996177
0
INSERT
5
23A
100
AcDbEntity
8
doors
6
ByLayer
62
256
370
-1
100
AcDbBlockReference
2
door700VerLeft-1
10
6621.31628207
20
1732.93996177
30
0
41
1
42
1
43
0
50
0
70
1
71
1
44
1
45
1
0
LINE
5
23B
100
AcDbEntity
8
0
6
ByLayer
62
256
370
-1
100
AcDbLine
10
6621.31628207
20
1732.93996177
11
6671.31628207
21
1732.93996177
0
LINE
5
23C
100
AcDbEntity
8
0
6
ByLayer
62
256
370
-1
100
AcDbLine
10
6621.31628207
20
1022.93996177
11
6671.31628207
21
1022.93996177
0
LINE
5
23D
100
AcDbEntity
8
0
6
ByLayer
62
256
370
-1
100
AcDbLine
10
6671.31628207
20
3184.93996177
11
6671.31628207
21
3209.93996177
0
LINE
5
23E
100
AcDbEntity
8
0
6
ByLayer
62
256
370
-1
100
AcDbLine
10
6621.31628207
20
3209.93996177
11
6621.31628207
21
3184.93996177
0
LINE
5
23F
100
AcDbEntity
8
0
6
ByLayer
62
256
370
-1
100
AcDbLine
10
6621.31628207
20
1757.93996177
11
6621.31628207
21
1732.93996177
0
LINE
5
240
100
AcDbEntity
8
0
6
ByLayer
62
256
370
-1
100
AcDbLine
10
6671.31628207
20
1022.93996177
11
6671.31628207
21
957.93996177
0
LINE
5
241
100
AcDbEntity
8
0
6
ByLayer
62
256
370
-1
100
AcDbLine
10
6621.31619575
20
1022.93996177
11
6621.31628207
21
957.93996177
0
LINE
5
242
100
AcDbEntity
8
0
6
ByLayer
62
256
370
-1
100
AcDbLine
10
-328.683717927
20
957.93996177
11
-328.683717927
21
3209.93996177
0
LINE
5
243
100
AcDbEntity
8
0
6
ByLayer
62
256
370
-1
100
AcDbLine
10
12947.3162821
20
913.93996177
11
12947.3162821
21
3253.93996177
0
LINE
5
244
100
AcDbEntity
8
container
6
ByLayer
62
256
370
-1
100
AcDbLine
10
12947.3162821
20
3253.93996177
11
12947.3162821
21
3297.93996177
0
LINE
5
245
100
AcDbEntity
8
container
6
ByLayer
62
256
370
-1
100
AcDbLine
10
12947.3162821
20
869.93996177
11
12947.3162821
21
913.93996177
0
LINE
5
246
100
AcDbEntity
8
container
6
ByLayer
62
256
370
-1
100
AcDbLine
10
-378.683717927
20
907.93996177
11
-378.683717927
21
3259.93996177
0
LINE
5
247
100
AcDbEntity
8
container
6
ByLayer
62
256
370
-1
100
AcDbLine
10
-422.683717927
20
863.93996177
11
-422.683717927
21
3303.93996177
0
LINE
5
248
100
AcDbEntity
8
container
6
ByLayer
62
256
370
-1
100
AcDbLine
10
11653.3162821
20
907.93996177
11
11653.3162821
21
3259.93996177
0
LINE
5
249
100
AcDbEntity
8
container
6
ByLayer
62
256
370
-1
100
AcDbLine
10
11777.3162821
20
863.93996177
11
11777.3162821
21
3303.93996177
0
LINE
5
24A
100
AcDbEntity
8
container
6
ByLayer
62
256
370
-1
100
AcDbLine
10
-422.683717927
20
3303.93996177
11
11777.3162821
21
3303.93996177
0
LINE
5
24B
100
AcDbEntity
8
0
6
ByLayer
62
256
370
-1
100
AcDbLine
10
4921.31628207
20
1757.93996177
11
6621.31628207
21
1757.93996177
0
INSERT
5
24C
100
AcDbEntity
8
fixtures
6
ByLayer
62
256
370
-1
100
AcDbBlockReference
2
WCVerRight-2
10
4946.31628207
20
1115.17957784
30
0
41
1
42
1
43
0
50
0
70
1
71
1
44
1
45
1
0
DIMENSION
5
24D
100
AcDbEntity
8
dimension
6
ByLayer
62
256
370
-1
100
AcDbDimension
2
*D1
10
11777.3162821
20
4661.73259271
30
0
11
5677.31628207
21
4761.73259271
31
0
70
32
71
5
3
Standard
53
0
210
0
220
0
230
1
100
AcDbAlignedDimension
13
-422.683717927
23
3303.93996177
33
0
14
11777.3162821
24
3303.93996177
34
0
100
AcDbRotatedDimension
0
DIMENSION
5
24E
100
AcDbEntity
8
dimension
6
ByLayer
62
256
370
-1
100
AcDbDimension
2
*D2
10
6621.31628207
20
3972.04938723
30
0
11
5771.31628207
21
4072.04938723
31
0
70
32
71
5
3
Standard
53
0
210
0
220
0
230
1
100
AcDbAlignedDimension
13
4921.31628207
23
3303.93996177
33
0
14
6621.31628207
24
3303.93996177
34
0
100
AcDbRotatedDimension
0
LINE
5
24F
100
AcDbEntity
8
0
6
ByLayer
62
256
370
-1
100
AcDbLine
10
3421.31628207
20
957.93996177
11
4871.31628207
21
957.93996177
0
LINE
5
250
100
AcDbEntity
8
0
6
ByLayer
62
256
370
-1
100
AcDbLine
10
4921.31628207
20
957.93996177
11
6621.31628207
21
957.93996177
0
INSERT
5
251
100
AcDbEntity
8
eletrical
6
ByLayer
62
256
370
-1
100
AcDbBlockReference
2
outlet110HorUp-0
10
5233.26441289
20
957.93996177
30
0
41
1
42
1
43
0
50
0
70
1
71
1
44
1
45
1
0
INSERT
5
252
100
AcDbEntity
8
eletrical
6
ByLayer
62
256
370
-1
100
AcDbBlockReference
2
outlet110HorUp-0
10
8837.99863571
20
957.93996177
30
0
41
1
42
1
43
0
50
0
70
1
71
1
44
1
45
1
0
INSERT
5
253
100
AcDbEntity
8
eletrical
6
ByLayer
62
256
370
-1
100
AcDbBlockReference
2
outlet110HorUp-0
10
11462.8843555
20
957.93996177
30
0
41
1
42
1
43
0
50
0
70
1
71
1
44
1
45
1
0
LINE
5
254
100
AcDbEntity
8
0
6
ByLayer
62
256
370
-1
100
AcDbLine
10
4921.31628207
20
3209.93996178
11
6621.31628207
21
3209.93996177
0
LINE
5
255
100
AcDbEntity
8
0
6
ByLayer
62
256
370
-1
100
AcDbLine
10
7961.31628207
20
3209.93996177
11
8761.31628207
21
3209.93996177
0
INSERT
5
256
100
AcDbEntity
8
doors
6
ByLayer
62
256
370
-1
100
AcDbBlockReference
2
door800VerLeft-0
10
6621.31628207
20
1832.93996177
30
0
41
-1
42
1
43
0
50
180
70
1
71
1
44
1
45
1
0
LINE
5
257
100
AcDbEntity
8
0
6
ByLayer
62
256
370
-1
100
AcDbLine
10
6621.31628207
20
2632.93996177
11
6671.31628207
21
2632.93996177
0
LINE
5
258
100
AcDbEntity
8
0
6
ByLayer
62
256
370
-1
100
AcDbLine
10
6621.31636839
20
2632.93996177
11
6621.31628207
21
3184.93996177
0
LINE
5
259
100
AcDbEntity
8
0
6
ByLayer
62
256
370
-1
100
AcDbLine
10
6671.31628207
20
3184.93996177
11
6671.31628207
21
2632.93996177
0
LINE
5
25A
100
AcDbEntity
8
0
6
ByLayer
62
256
370
-1
100
AcDbLine
10
6621.31628207
20
1832.93996177
11
6671.31628207
21
1832.93996177
0
LINE
5
25B
100
AcDbEntity
8
0
6
ByLayer
62
256
370
-1
100
AcDbLine
10
6621.31628207
20
1832.93996177
11
6621.31628207
21
1807.93996177
0
LINE
5
25C
100
AcDbEntity
8
0
6
ByLayer
62
256
370
-1
100
AcDbLine
10
6671.31628207
20
1832.93996177
11
6671.31628207
21
1732.93996177
0
DIMENSION
5
25D
100
AcDbEntity
8
dimension
6
ByLayer
62
256
370
-1
100
AcDbDimension
2
*D3
10
6856.75456664
20
2632.93996177
30
0
11
6756.75456664
21
2232.93996177
31
0
70
32
71
5
3
Standard
53
0
210
0
220
0
230
1
100
AcDbAlignedDimension
13
6671.31628207
23
1832.93996177
33
0
14
6671.31628207
24
2632.93996177
34
0
50
90
100
AcDbRotatedDimension
0
LINE
5
25E
100
AcDbEntity
8
0
6
ByLayer
62
256
370
-1
100
AcDbLine
10
4071.31628207
20
3209.93996178
11
4071.31628207
21
957.93996177
0
DIMENSION
5
25F
100
AcDbEntity
8
dimension
6
ByLayer
62
256
370
-1
100
AcDbDimension
2
*D4
10
4071.31628207
20
3971.90730687
30
0
11
4471.31628207
21
4071.90730687
31
0
70
32
71
5
3
Standard
53
0
210
0
220
0
230
1
100
AcDbAlignedDimension
13
4871.31628207
23
3303.93996177
33
0
14
4071.31628207
24
3303.93996177
34
0
100
AcDbRotatedDimension
0
INSERT
5
260
100
AcDbEntity
8
tatami
6
ByLayer
62
256
370
-1
100
AcDbBlockReference
2
KyotoKyomaTatamiVertical-8
10
2826.31628207
20
3038.93996178
30
0
41
1
42
1
43
0
50
180
70
1
71
1
44
0
45
0
0
INSERT
5
261
100
AcDbEntity
8
tatami
6
ByLayer
62
256
370
-1
100
AcDbBlockReference
2
KyotoKyomaTatamiVertical-9
10
-38.68371793
20
3038.93996178
30
0
41
1
42
1
43
0
50
180
70
1
71
1
44
0
45
0
0
INSERT
5
262
100
AcDbEntity
8
tatami
6
ByLayer
62
256
370
-1
100
AcDbBlockReference
2
KyotoKyomaTatami-0
10
2826.31628207
20
3038.93996178
30
0
41
1
42
1
43
0
50
180
70
1
71
1
44
0
45
0
0
INSERT
5
263
100
AcDbEntity
8
tatami
6
ByLayer
62
256
370
-1
100
AcDbBlockReference
2
KyotoKyomaTatami-1
10
2826.31628207
20
2083.93996178
30
0
41
1
42
1
43
0
50
180
70
1
71
1
44
0
45
0
0
INSERT
5
264
100
AcDbEntity
8
eletrical
6
ByLayer
62
256
370
-1
100
AcDbBlockReference
2
outlet110HorUp-0
10
-146.78060213
20
957.93996177
30
0
41
1
42
1
43
0
50
0
70
1
71
1
44
1
45
1
0
INSERT
5
265
100
AcDbEntity
8
eletrical
6
ByLayer
62
256
370
-1
100
AcDbBlockReference
2
outlet110HorUp-0
10
3786.79196204
20
957.93996177
30
0
41
1
42
1
43
0
50
0
70
1
71
1
44
1
45
1
0
INSERT
5
266
100
AcDbEntity
8
eletrical
6
ByLayer
62
256
370
-1
100
AcDbBlockReference
2
outlet110HorUp-0
10
-171.061914255
20
3209.93996177
30
0
41
1
42
1
43
0
50
180
70
1
71
1
44
1
45
1
0
INSERT
5
267
100
AcDbEntity
8
eletrical
6
ByLayer
62
256
370
-1
100
AcDbBlockReference
2
outlet110HorUp-0
10
3894.32348717
20
3209.93996177
30
0
41
1
42
1
43
0
50
180
70
1
71
1
44
1
45
1
0
LINE
5
268
100
AcDbEntity
8
container
6
ByLayer
62
256
370
-1
100
AcDbLine
10
7496.31628207
20
863.93996177
11
11777.3162821
21
863.93996177
0
LINE
5
269
100
AcDbEntity
8
0
6
ByLayer
62
256
370
-1
100
AcDbLine
10
6671.31628207
20
957.93996177
11
6696.31628207
21
957.93996177
0
LINE
5
26A
100
AcDbEntity
8
container
6
ByLayer
62
256
370
-1
100
AcDbLine
10
6696.31628207
20
907.93996177
11
3421.96177861
21
907.93996177
0
LINE
5
26B
100
AcDbEntity
8
container
6
ByLayer
62
256
370
-1
100
AcDbLine
10
3421.96177861
20
863.93996177
11
6696.31628207
21
863.93996177
0
LINE
5
26C
100
AcDbEntity
8
0
6
ByLayer
62
256
370
-1
100
AcDbLine
10
7521.31628207
20
3209.93996177
11
7521.31628207
21
957.93996177
0
LINE
5
26D
100
AcDbEntity
8
0
6
ByLayer
62
256
370
-1
100
AcDbLine
10
7571.31628207
20
3209.93996177
11
7571.31628207
21
957.93996177
0
LINE
5
26E
100
AcDbEntity
8
0
6
ByLayer
62
256
370
-1
100
AcDbLine
10
8371.31628207
20
3209.93996177
11
8371.31628207
21
957.93996177
0
LINE
5
26F
100
AcDbEntity
8
0
6
ByLayer
62
256
370
-1
100
AcDbLine
10
6696.31628207
20
957.93996177
11
6696.31628207
21
907.93996177
0
LINE
5
270
100
AcDbEntity
8
0
6
ByLayer
62
256
370
-1
100
AcDbLine
10
7496.31628207
20
957.93996177
11
7496.31628207
21
907.93996177
0
LINE
5
271
100
AcDbEntity
8
container
6
ByLayer
62
256
370
-1
100
AcDbLine
10
6696.31628207
20
907.93996177
11
6696.31628207
21
863.93996177
0
LINE
5
272
100
AcDbEntity
8
container
6
ByLayer
62
256
370
-1
100
AcDbLine
10
7496.31628207
20
907.93996177
11
7496.31628207
21
863.93996177
0
LINE
5
273
100
AcDbEntity
8
0
6
ByLayer
62
256
370
-1
100
AcDbLine
10
7911.31628207
20
3209.93996177
11
7961.31628207
21
3209.93996177
0
LINE
5
274
100
AcDbEntity
8
0
6
ByLayer
62
256
370
-1
100
AcDbLine
10
6671.31628207
20
3209.93996177
11
7521.31628207
21
3209.93996177
0
LINE
5
275
100
AcDbEntity
8
0
6
ByLayer
62
256
370
-1
100
AcDbLine
10
7571.31628207
20
3209.93996177
11
7911.31628207
21
3209.93996177
0
LINE
5
276
100
AcDbEntity
8
0
6
ByLayer
62
256
370
-1
100
AcDbLine
10
7496.31628207
20
957.93996177
11
7523.45852453
21
957.93996177
0
INSERT
5
277
100
AcDbEntity
8
tatami
6
ByLayer
62
256
370
-1
100
AcDbBlockReference
2
KyotoKyomaTatamiVertical-1
10
9534.81628207
20
1128.93996178
30
0
41
1
42
1
43
0
50
0
70
1
71
1
44
1
45
1
0
INSERT
5
278
100
AcDbEntity
8
tatami
6
ByLayer
62
256
370
-1
100
AcDbBlockReference
2
KyotoKyomaTatamiVertical-1
10
11444.8162821
20
1128.93996178
30
0
41
1
42
1
43
0
50
0
70
1
71
1
44
1
45
1
0
INSERT
5
279
100
AcDbEntity
8
tatami
6
ByLayer
62
256
370
-1
100
AcDbBlockReference
2
KyotoKyomaTatamiHalf-1
10
9534.81628207
20
2083.93996178
30
0
41
1
42
1
43
0
50
0
70
1
71
1
44
1
45
1
0
INSERT
5
27A
100
AcDbEntity
8
tatami
6
ByLayer
62
256
370
-1
100
AcDbBlockReference
2
KyotoKyomaTatamiHalf-1
10
9534.81628207
20
1128.93996178
30
0
41
1
42
1
43
0
50
0
70
1
71
1
44
1
45
1
0
INSERT
5
27B
100
AcDbEntity
8
fixtures
6
ByLayer
62
256
370
-1
100
AcDbBlockReference
2
jtub
10
4933.54085303
20
2186.67649991
30
0
41
1
42
1
43
0
50
0
70
1
71
1
44
1
45
1
0
LINE
5
27C
100
AcDbEntity
8
container
6
ByLayer
62
256
370
-1
100
AcDbLine
10
11012.3162821
20
3259.93996177
11
11777.3162821
21
3259.93996177
0
LINE
5
27D
100
AcDbEntity
8
0
6
ByLayer
62
256
370
-1
100
AcDbLine
10
11653.3162821
20
3209.93996177
11
11012.3162821
21
3209.93996177
0
LINE
5
27E
100
AcDbEntity
8
0
6
ByLayer
62
256
370
-1
100
AcDbLine
10
9013.83693667
20
3209.93996177
11
8761.31628207
21
3209.93996177
0
LINE
5
27F
100
AcDbEntity
8
0
6
ByLayer
62
256
370
-1
100
AcDbLine
10
7571.31628207
20
957.93996177
11
9012.31628207
21
957.93996177
0
LINE
5
280
100
AcDbEntity
8
0
6
ByLayer
62
256
370
-1
100
AcDbLine
10
11012.3162821
20
957.93996177
11
11653.3162821
21
957.93996177
0
LINE
5
281
100
AcDbEntity
8
container
6
ByLayer
62
256
370
-1
100
AcDbLine
10
11012.3162821
20
907.93996177
11
11777.3162821
21
907.93996177
0
LINE
5
282
100
AcDbEntity
8
container
6
ByLayer
62
256
370
-1
100
AcDbLine
10
7496.31628207
20
907.93996177
11
9012.31628207
21
907.93996177
0
LINE
5
283
100
AcDbEntity
8
container
6
ByLayer
62
256
370
-1
100
AcDbLine
10
9012.31628207
20
3303.93996177
11
9012.31628207
21
3259.93996177
0
LINE
5
284
100
AcDbEntity
8
container
6
ByLayer
62
256
370
-1
100
AcDbLine
10
11012.3162821
20
3303.93996177
11
11012.3162821
21
3259.93996177
0
LINE
5
285
100
AcDbEntity
8
0
6
ByLayer
62
256
370
-1
100
AcDbLine
10
9012.31628207
20
3259.93996177
11
9012.31628207
21
3209.93996177
0
LINE
5
286
100
AcDbEntity
8
0
6
ByLayer
62
256
370
-1
100
AcDbLine
10
11012.3162821
20
3259.93996177
11
11012.3162821
21
3209.93996177
0
LINE
5
287
100
AcDbEntity
8
doors
6
ByLayer
62
256
370
-1
100
AcDbLine
10
10000.3162821
20
3273.93996177
11
10000.3162821
21
3238.93996177
0
LINE
5
288
100
AcDbEntity
8
doors
6
ByLayer
62
256
370
-1
100
AcDbLine
10
10024.3162821
20
3238.93996177
11
10024.3162821
21
3203.93996177
0
LINE
5
289
100
AcDbEntity
8
doors
6
ByLayer
62
256
370
-1
100
AcDbLine
10
9020.31628207
20
3203.93996177
11
10024.3162821
21
3203.93996177
0
LINE
5
28A
100
AcDbEntity
8
doors
6
ByLayer
62
256
370
-1
100
AcDbLine
10
9020.31628207
20
3238.93996177
11
9020.31628207
21
3203.93996177
0
LINE
5
28B
100
AcDbEntity
8
doors
6
ByLayer
62
256
370
-1
100
AcDbLine
10
11004.3162821
20
3273.93996177
11
11004.3162821
21
3238.93996177
0
LINE
5
28C
100
AcDbEntity
8
doors
6
ByLayer
62
256
370
-1
100
AcDbLine
10
10000.3162821
20
3273.93996177
11
11004.3162821
21
3273.93996177
0
LINE
5
28D
100
AcDbEntity
8
doors
6
ByLayer
62
256
370
-1
100
AcDbLine
10
9020.31628207
20
3238.93996177
11
11004.3162821
21
3238.93996177
0
LINE
5
28E
100
AcDbEntity
8
0
6
ByLayer
62
256
370
-1
100
AcDbLine
10
9012.31628207
20
957.93996177
11
9012.31628207
21
907.93996177
0
LINE
5
28F
100
AcDbEntity
8
0
6
ByLayer
62
256
370
-1
100
AcDbLine
10
11012.3162821
20
957.93996177
11
11012.3162821
21
907.93996177
0
LINE
5
290
100
AcDbEntity
8
container
6
ByLayer
62
256
370
-1
100
AcDbLine
10
9012.31628207
20
907.93996177
11
9012.31628207
21
863.93996177
0
LINE
5
291
100
AcDbEntity
8
container
6
ByLayer
62
256
370
-1
100
AcDbLine
10
11012.3162821
20
907.93996177
11
11012.3162821
21
863.93996177
0
LINE
5
292
100
AcDbEntity
8
doors
6
ByLayer
62
256
370
-1
100
AcDbLine
10
10000.3162821
20
963.93996177
11
10000.3162821
21
928.93996177
0
LINE
5
293
100
AcDbEntity
8
doors
6
ByLayer
62
256
370
-1
100
AcDbLine
10
10024.3162821
20
928.93996177
11
10024.3162821
21
893.93996177
0
LINE
5
294
100
AcDbEntity
8
doors
6
ByLayer
62
256
370
-1
100
AcDbLine
10
10000.3162821
20
963.93996177
11
11006.3162821
21
963.93996177
0
LINE
5
295
100
AcDbEntity
8
doors
6
ByLayer
62
256
370
-1
100
AcDbLine
10
11006.3162821
20
963.93996177
11
11006.3162821
21
928.93996177
0
LINE
5
296
100
AcDbEntity
8
doors
6
ByLayer
62
256
370
-1
100
AcDbLine
10
9018.31628207
20
928.93996177
11
11006.3162821
21
928.93996177
0
LINE
5
297
100
AcDbEntity
8
doors
6
ByLayer
62
256
370
-1
100
AcDbLine
10
9018.31628207
20
893.93996177
11
10024.3162821
21
893.93996177
0
LINE
5
298
100
AcDbEntity
8
doors
6
ByLayer
62
256
370
-1
100
AcDbLine
10
9018.31628207
20
928.93996177
11
9018.31628207
21
893.93996177
0
LINE
5
299
100
AcDbEntity
8
container
6
ByLayer
62
256
370
-1
100
AcDbLine
10
871.31628207
20
3259.93996177
11
871.31628207
21
3303.93996177
0
LINE
5
29A
100
AcDbEntity
8
container
6
ByLayer
62
256
370
-1
100
AcDbLine
10
2871.31628207
20
3259.93996178
11
2871.31628207
21
3303.93996177
0
LINE
5
29B
100
AcDbEntity
8
container
6
ByLayer
62
256
370
-1
100
AcDbLine
10
-378.683717927
20
3259.93996177
11
871.31628207
21
3259.93996177
0
LINE
5
29C
100
AcDbEntity
8
0
6
ByLayer
62
256
370
-1
100
AcDbLine
10
-328.683717927
20
3209.93996177
11
871.31628207
21
3209.93996177
0
LINE
5
29D
100
AcDbEntity
8
container
6
ByLayer
62
256
370
-1
100
AcDbLine
10
2871.31628207
20
3259.93996177
11
9012.31628207
21
3259.93996177
0
LINE
5
29E
100
AcDbEntity
8
0
6
ByLayer
62
256
370
-1
100
AcDbLine
10
2871.31628207
20
3209.93996178
11
4871.31628207
21
3209.93996178
0
LINE
5
29F
100
AcDbEntity
8
0
6
ByLayer
62
256
370
-1
100
AcDbLine
10
2871.31628207
20
3209.93996177
11
2871.31628207
21
3259.93996177
0
LINE
5
2A0
100
AcDbEntity
8
0
6
ByLayer
62
256
370
-1
100
AcDbLine
10
871.31628207
20
3209.93996177
11
871.31628207
21
3259.93996177
0
LINE
5
2A1
100
AcDbEntity
8
doors
6
ByLayer
62
256
370
-1
100
AcDbLine
10
1883.31628207
20
3203.93996177
11
1883.31628207
21
3238.93996177
0
LINE
5
2A2
100
AcDbEntity
8
doors
6
ByLayer
62
256
370
-1
100
AcDbLine
10
1859.31628207
20
3238.93996177
11
1859.31628207
21
3273.93996177
0
LINE
5
2A3
100
AcDbEntity
8
doors
6
ByLayer
62
256
370
-1
100
AcDbLine
10
877.31628207
20
3203.93996177
11
1883.31628207
21
3203.93996177
0
LINE
5
2A4
100
AcDbEntity
8
doors
6
ByLayer
62
256
370
-1
100
AcDbLine
10
877.31628207
20
3203.93996177
11
877.31628207
21
3238.93996177
0
LINE
5
2A5
100
AcDbEntity
8
doors
6
ByLayer
62
256
370
-1
100
AcDbLine
10
1859.31628207
20
3273.93996177
11
2865.31628207
21
3273.93996177
0
LINE
5
2A6
100
AcDbEntity
8
doors
6
ByLayer
62
256
370
-1
100
AcDbLine
10
877.31628207
20
3238.93996177
11
2865.31628207
21
3238.93996177
0
LINE
5
2A7
100
AcDbEntity
8
doors
6
ByLayer
62
256
370
-1
100
AcDbLine
10
2865.31628207
20
3238.93996177
11
2865.31628207
21
3273.93996177
0
LINE
5
2A8
100
AcDbEntity
8
0
6
ByLayer
62
256
370
-1
100
AcDbLine
10
871.31628207
20
957.93996177
11
871.31628207
21
907.93996177
0
LINE
5
2A9
100
AcDbEntity
8
0
6
ByLayer
62
256
370
-1
100
AcDbLine
10
2871.31628207
20
957.93996177
11
2871.31628207
21
907.93996177
0
LINE
5
2AA
100
AcDbEntity
8
container
6
ByLayer
62
256
370
-1
100
AcDbLine
10
2871.31628207
20
907.93996177
11
2871.31628207
21
863.93996177
0
LINE
5
2AB
100
AcDbEntity
8
container
6
ByLayer
62
256
370
-1
100
AcDbLine
10
871.31628207
20
907.93996177
11
871.31628207
21
863.93996177
0
LINE
5
2AC
100
AcDbEntity
8
0
6
ByLayer
62
256
370
-1
100
AcDbLine
10
-328.683717927
20
957.93996177
11
871.31628207
21
957.93996177
0
LINE
5
2AD
100
AcDbEntity
8
container
6
ByLayer
62
256
370
-1
100
AcDbLine
10
-378.683717927
20
907.93996177
11
871.31628207
21
907.93996177
0
LINE
5
2AE
100
AcDbEntity
8
container
6
ByLayer
62
256
370
-1
100
AcDbLine
10
-422.683717927
20
863.93996177
11
871.31628207
21
863.93996177
0
LINE
5
2AF
100
AcDbEntity
8
container
6
ByLayer
62
256
370
-1
100
AcDbLine
10
2871.31628207
20
863.93996177
11
3421.96177861
21
863.93996177
0
LINE
5
2B0
100
AcDbEntity
8
container
6
ByLayer
62
256
370
-1
100
AcDbLine
10
2871.31628207
20
907.93996177
11
3421.96177861
21
907.93996177
0
LINE
5
2B1
100
AcDbEntity
8
0
6
ByLayer
62
256
370
-1
100
AcDbLine
10
2871.31628207
20
957.93996177
11
3421.31628207
21
957.93996177
0
LINE
5
2B2
100
AcDbEntity
8
container
6
ByLayer
62
256
370
-1
100
AcDbLine
10
871.31628207
20
863.93996177
11
2871.31628207
21
863.93996177
0
LINE
5
2B3
100
AcDbEntity
8
doors
6
ByLayer
62
256
370
-1
100
AcDbLine
10
1883.31628207
20
928.93996177
11
1883.31628207
21
893.93996177
0
LINE
5
2B4
100
AcDbEntity
8
doors
6
ByLayer
62
256
370
-1
100
AcDbLine
10
1859.31628207
20
963.93996177
11
1859.31628207
21
928.93996177
0
LINE
5
2B5
100
AcDbEntity
8
doors
6
ByLayer
62
256
370
-1
100
AcDbLine
10
877.31628207
20
928.93996177
11
877.31628207
21
893.93996177
0
LINE
5
2B6
100
AcDbEntity
8
doors
6
ByLayer
62
256
370
-1
100
AcDbLine
10
877.31628207
20
893.93996177
11
1883.31628207
21
893.93996177
0
LINE
5
2B7
100
AcDbEntity
8
doors
6
ByLayer
62
256
370
-1
100
AcDbLine
10
2865.31628207
20
963.93996177
11
2865.31628207
21
928.93996177
0
LINE
5
2B8
100
AcDbEntity
8
doors
6
ByLayer
62
256
370
-1
100
AcDbLine
10
1859.31628207
20
963.93996177
11
2865.31628207
21
963.93996177
0
LINE
5
2B9
100
AcDbEntity
8
doors
6
ByLayer
62
256
370
-1
100
AcDbLine
10
877.31628207
20
928.93996177
11
2865.31628207
21
928.93996177
0
DIMENSION
5
2BA
100
AcDbEntity
8
dimension
6
ByLayer
62
256
370
-1
100
AcDbDimension
2
*D5
10
7521.31628207
20
3981.0546229
30
0
11
7096.31628207
21
4081.0546229
31
0
70
32
71
5
72
0
3
Standard
53
0
210
0
220
0
230
1
100
AcDbAlignedDimension
13
6671.31628207
23
3209.93996177
33
0
14
7521.31628207
24
3209.93996177
34
0
100
AcDbRotatedDimension
0
DIMENSION
5
2BB
100
AcDbEntity
8
dimension
6
ByLayer
62
256
370
-1
100
AcDbDimension
2
*D6
10
8371.31628207
20
3981.30279254
30
0
11
7971.31628207
21
4081.30279254
31
0
70
32
71
5
72
0
3
Standard
53
0
210
0
220
0
230
1
100
AcDbAlignedDimension
13
7571.31628207
23
3209.93996177
33
0
14
8371.31628207
24
3209.93996177
34
0
100
AcDbRotatedDimension
0
DIMENSION
5
2BC
100
AcDbEntity
8
dimension
6
ByLayer
62
256
370
-1
100
AcDbDimension
2
*D7
10
11012.3162821
20
3981.27397379
30
0
11
11394.8162821
21
4081.27397379
31
0
70
32
71
5
72
0
3
Standard
53
0
210
0
220
0
230
1
100
AcDbAlignedDimension
13
11777.3162821
23
3303.93996177
33
0
14
11012.3162821
24
3303.93996177
34
0
100
AcDbRotatedDimension
0
DIMENSION
5
2BD
100
AcDbEntity
8
dimension
6
ByLayer
62
256
370
-1
100
AcDbDimension
2
*D8
10
9012.31628207
20
3980.93270504
30
0
11
10012.3162821
21
4080.93270504
31
0
70
32
71
5
72
0
3
Standard
53
0
210
0
220
0
230
1
100
AcDbAlignedDimension
13
11012.3162821
23
3303.93996177
33
0
14
9012.31628207
24
3303.93996177
34
0
100
AcDbRotatedDimension
0
DIMENSION
5
2BE
100
AcDbEntity
8
dimension
6
ByLayer
62
256
370
-1
100
AcDbDimension
2
*D9
10
2871.31628207
20
3633.28503333
30
0
11
1871.31628207
21
3733.28503333
31
0
70
32
71
5
72
0
3
Standard
53
0
210
0
220
0
230
1
100
AcDbAlignedDimension
13
871.31628207
23
3303.93996177
33
0
14
2871.31628207
24
3303.93996177
34
0
100
AcDbRotatedDimension
0
LINE
5
2BF
100
AcDbEntity
8
container
6
ByLayer
62
256
370
-1
100
AcDbLine
10
11787.3162821
20
3297.93996177
11
11787.3162821
21
3253.93996177
0
LINE
5
2C0
100
AcDbEntity
8
container
6
ByLayer
62
256
370
-1
100
AcDbLine
10
11787.3162821
20
913.93996177
11
11787.3162821
21
869.93996177
0
LINE
5
2C1
100
AcDbEntity
8
container
6
ByLayer
62
256
370
-1
100
AcDbLine
10
11787.3162821
20
3297.93996177
11
12947.3162821
21
3297.93996177
0
LINE
5
2C2
100
AcDbEntity
8
container
6
ByLayer
62
256
370
-1
100
AcDbLine
10
11787.3162821
20
3253.93996177
11
12947.3162821
21
3253.93996177
0
LINE
5
2C3
100
AcDbEntity
8
container
6
ByLayer
62
256
370
-1
100
AcDbLine
10
11787.3162821
20
913.93996177
11
12947.3162821
21
913.93996177
0
LINE
5
2C4
100
AcDbEntity
8
container
6
ByLayer
62
256
370
-1
100
AcDbLine
10
11787.3162821
20
869.93996177
11
12947.3162821
21
869.93996177
0
LINE
5
2C5
100
AcDbEntity
8
doors
6
ByLayer
62
256
370
-1
100
AcDbLine
10
11697.3162821
20
913.93996177
11
11697.3162821
21
3253.93996177
0
LINE
5
2C6
100
AcDbEntity
8
doors
6
ByLayer
62
256
370
-1
100
AcDbLine
10
11732.3162821
20
913.93996177
11
11732.3162821
21
2095.93996178
0
LINE
5
2C7
100
AcDbEntity
8
doors
6
ByLayer
62
256
370
-1
100
AcDbLine
10
11662.3162821
20
2071.93996178
11
11662.3162821
21
3253.93996177
0
LINE
5
2C8
100
AcDbEntity
8
doors
6
ByLayer
62
256
370
-1
100
AcDbLine
10
11697.3162821
20
2095.93996178
11
11732.3162821
21
2095.93996178
0
LINE
5
2C9
100
AcDbEntity
8
doors
6
ByLayer
62
256
370
-1
100
AcDbLine
10
11662.3162821
20
2071.93996178
11
11697.3162821
21
2071.93996178
0
LINE
5
2CA
100
AcDbEntity
8
doors
6
ByLayer
62
256
370
-1
100
AcDbLine
10
11662.3162821
20
3253.93996177
11
11697.3162821
21
3253.93996177
0
LINE
5
2CB
100
AcDbEntity
8
doors
6
ByLayer
62
256
370
-1
100
AcDbLine
10
11697.3162821
20
913.93996177
11
11732.3162821
21
913.93996177
0
MTEXT
5
2CC
100
AcDbEntity
8
text
6
ByLayer
62
256
370
-1
100
AcDbMText
10
1610.37299046
20
754.696252953
30
0
40
150
41
516.72381247
71
1
72
1
1
slider
7
standard
210
0
220
0
230
1
50
0
73
2
44
1
0
MTEXT
5
2CD
100
AcDbEntity
8
text
6
ByLayer
62
256
370
-1
100
AcDbMText
10
9785.80616725
20
717.49291654
30
0
40
150
41
516.72381247
71
1
72
1
1
slider
7
standard
210
0
220
0
230
1
50
0
73
2
44
1
0
MTEXT
5
2CE
100
AcDbEntity
8
text
6
ByLayer
62
256
370
-1
100
AcDbMText
10
9779.16271432
20
3534.10436876
30
0
40
150
41
516.72381247
71
1
72
1
1
slider
7
standard
210
0
220
0
230
1
50
0
73
2
44
1
0
MTEXT
5
2CF
100
AcDbEntity
8
text
6
ByLayer
62
256
370
-1
100
AcDbMText
10
1632.6949923
20
3532.06350002
30
0
40
150
41
516.72381247
71
1
72
1
1
slider
7
standard
210
0
220
0
230
1
50
0
73
2
44
1
0
INSERT
5
2D0
100
AcDbEntity
8
doors
6
ByLayer
62
256
370
-1
100
AcDbBlockReference
2
door800VerLeft-0
10
7496.31628207
20
957.93996177
30
0
41
1
42
1
43
0
50
270
70
1
71
1
44
1
45
1
0
DIMENSION
5
2D1
100
AcDbEntity
8
dimension
6
ByLayer
62
256
370
-1
100
AcDbDimension
2
*D10
10
5963.03749722
20
1022.93996177
30
0
11
5863.03749722
21
1377.93996177
31
0
70
32
71
5
72
0
3
Standard
53
0
210
0
220
0
230
1
100
AcDbAlignedDimension
13
6621.31628207
23
1732.93996177
33
0
14
6621.31619575
24
1022.93996177
34
0
50
90
100
AcDbRotatedDimension
0
DIMENSION
5
2D2
100
AcDbEntity
8
dimension
6
ByLayer
62
256
370
-1
100
AcDbDimension
2
*D11
10
7496.31628207
20
1526.98343387
30
0
11
7096.31628207
21
1626.98343387
31
0
70
32
71
5
72
0
3
Standard
53
0
210
0
220
0
230
1
100
AcDbAlignedDimension
13
6696.31628207
23
957.93996177
33
0
14
7496.31628207
24
957.93996177
34
0
100
AcDbRotatedDimension
0
LINE
5
2D3
100
AcDbEntity
8
0
6
ByLayer
62
256
370
-1
100
AcDbLine
10
-328.683717927
20
-4482.06003823
11
-328.683717927
21
-2230.06003823
0
LINE
5
2D4
100
AcDbEntity
8
0
6
ByLayer
62
256
370
-1
100
AcDbLine
10
12947.3162821
20
-4526.06003823
11
12947.3162821
21
-2186.06003823
0
LINE
5
2D5
100
AcDbEntity
8
container
6
ByLayer
62
256
370
-1
100
AcDbLine
10
12947.3162821
20
-2186.06003823
11
12947.3162821
21
-2142.06003823
0
LINE
5
2D6
100
AcDbEntity
8
container
6
ByLayer
62
256
370
-1
100
AcDbLine
10
12947.3162821
20
-4570.06003823
11
12947.3162821
21
-4526.06003823
0
LINE
5
2D7
100
AcDbEntity
8
container
6
ByLayer
62
256
370
-1
100
AcDbLine
10
-378.683717927
20
-4532.06003823
11
-378.683717927
21
-2180.06003823
0
LINE
5
2D8
100
AcDbEntity
8
container
6
ByLayer
62
256
370
-1
100
AcDbLine
10
-422.683717927
20
-4576.06003823
11
-422.683717927
21
-2136.06003823
0
LINE
5
2D9
100
AcDbEntity
8
container
6
ByLayer
62
256
370
-1
100
AcDbLine
10
11653.3162821
20
-4532.06003823
11
11653.3162821
21
-2180.06003823
0
LINE
5
2DA
100
AcDbEntity
8
container
6
ByLayer
62
256
370
-1
100
AcDbLine
10
11777.3162821
20
-4576.06003823
11
11777.3162821
21
-2136.06003823
0
DIMENSION
5
2DB
100
AcDbEntity
8
dimension
6
ByLayer
62
256
370
-1
100
AcDbDimension
2
*D12
10
11777.3162821
20
-778.26740729
30
0
11
5677.31628207
21
-678.26740729
31
0
70
32
71
5
3
Standard
53
0
210
0
220
0
230
1
100
AcDbAlignedDimension
13
-422.683717927
23
-2136.06003823
33
0
14
11777.3162821
24
-2136.06003823
34
0
100
AcDbRotatedDimension
0
LINE
5
2DC
100
AcDbEntity
8
0
6
ByLayer
62
256
370
-1
100
AcDbLine
10
3421.31628207
20
-4482.06003823
11
4871.31628207
21
-4482.06003823
0
INSERT
5
2DD
100
AcDbEntity
8
eletrical
6
ByLayer
62
256
370
-1
100
AcDbBlockReference
2
outlet110HorUp-0
10
11462.8843555
20
-4482.06003823
30
0
41
1
42
1
43
0
50
0
70
1
71
1
44
1
45
1
0
INSERT
5
2DE
100
AcDbEntity
8
tatami
6
ByLayer
62
256
370
-1
100
AcDbBlockReference
2
KyotoKyomaTatamiVertical-9
10
-38.68371793
20
-2401.06003822
30
0
41
1
42
1
43
0
50
180
70
1
71
1
44
0
45
0
0
INSERT
5
2DF
100
AcDbEntity
8
eletrical
6
ByLayer
62
256
370
-1
100
AcDbBlockReference
2
outlet110HorUp-0
10
-146.78060213
20
-4482.06003823
30
0
41
1
42
1
43
0
50
0
70
1
71
1
44
1
45
1
0
INSERT
5
2E0
100
AcDbEntity
8
eletrical
6
ByLayer
62
256
370
-1
100
AcDbBlockReference
2
outlet110HorUp-0
10
-171.061914255
20
-2230.06003823
30
0
41
1
42
1
43
0
50
180
70
1
71
1
44
1
45
1
0
LINE
5
2E1
100
AcDbEntity
8
0
6
ByLayer
62
256
370
-1
100
AcDbLine
10
7911.31628207
20
-2230.06003823
11
7961.31628207
21
-2230.06003823
0
LINE
5
2E2
100
AcDbEntity
8
0
6
ByLayer
62
256
370
-1
100
AcDbLine
10
7571.31628207
20
-2230.06003823
11
7911.31628207
21
-2230.06003823
0
LINE
5
2E3
100
AcDbEntity
8
container
6
ByLayer
62
256
370
-1
100
AcDbLine
10
11012.3162821
20
-2180.06003823
11
11777.3162821
21
-2180.06003823
0
LINE
5
2E4
100
AcDbEntity
8
0
6
ByLayer
62
256
370
-1
100
AcDbLine
10
11653.3162821
20
-2230.06003823
11
11012.3162821
21
-2230.06003823
0
LINE
5
2E5
100
AcDbEntity
8
0
6
ByLayer
62
256
370
-1
100
AcDbLine
10
11012.3162821
20
-4482.06003823
11
11653.3162821
21
-4482.06003823
0
LINE
5
2E6
100
AcDbEntity
8
container
6
ByLayer
62
256
370
-1
100
AcDbLine
10
11012.3162821
20
-4532.06003823
11
11777.3162821
21
-4532.06003823
0
LINE
5
2E7
100
AcDbEntity
8
container
6
ByLayer
62
256
370
-1
100
AcDbLine
10
11012.3162821
20
-2136.06003823
11
11012.3162821
21
-2180.06003823
0
LINE
5
2E8
100
AcDbEntity
8
0
6
ByLayer
62
256
370
-1
100
AcDbLine
10
11012.3162821
20
-2180.06003823
11
11012.3162821
21
-2230.06003823
0
LINE
5
2E9
100
AcDbEntity
8
doors
6
ByLayer
62
256
370
-1
100
AcDbLine
10
11004.3162821
20
-2166.06003823
11
11004.3162821
21
-2201.06003823
0
LINE
5
2EA
100
AcDbEntity
8
0
6
ByLayer
62
256
370
-1
100
AcDbLine
10
11012.3162821
20
-4482.06003823
11
11012.3162821
21
-4532.06003823
0
LINE
5
2EB
100
AcDbEntity
8
container
6
ByLayer
62
256
370
-1
100
AcDbLine
10
11012.3162821
20
-4532.06003823
11
11012.3162821
21
-4576.06003823
0
LINE
5
2EC
100
AcDbEntity
8
doors
6
ByLayer
62
256
370
-1
100
AcDbLine
10
11006.3162821
20
-4476.06003823
11
11006.3162821
21
-4511.06003823
0
DIMENSION
5
2ED
100
AcDbEntity
8
dimension
6
ByLayer
62
256
370
-1
100
AcDbDimension
2
*D13
10
11012.3162821
20
-1458.72602621
30
0
11
11394.8162821
21
-1358.72602621
31
0
70
32
71
5
72
0
3
Standard
53
0
210
0
220
0
230
1
100
AcDbAlignedDimension
13
11777.3162821
23
-2136.06003823
33
0
14
11012.3162821
24
-2136.06003823
34
0
100
AcDbRotatedDimension
0
LINE
5
2EE
100
AcDbEntity
8
container
6
ByLayer
62
256
370
-1
100
AcDbLine
10
11787.3162821
20
-2142.06003823
11
11787.3162821
21
-2186.06003823
0
LINE
5
2EF
100
AcDbEntity
8
container
6
ByLayer
62
256
370
-1
100
AcDbLine
10
11787.3162821
20
-4526.06003823
11
11787.3162821
21
-4570.06003823
0
LINE
5
2F0
100
AcDbEntity
8
container
6
ByLayer
62
256
370
-1
100
AcDbLine
10
11787.3162821
20
-2142.06003823
11
12947.3162821
21
-2142.06003823
0
LINE
5
2F1
100
AcDbEntity
8
container
6
ByLayer
62
256
370
-1
100
AcDbLine
10
11787.3162821
20
-2186.06003823
11
12947.3162821
21
-2186.06003823
0
LINE
5
2F2
100
AcDbEntity
8
container
6
ByLayer
62
256
370
-1
100
AcDbLine
10
11787.3162821
20
-4526.06003823
11
12947.3162821
21
-4526.06003823
0
LINE
5
2F3
100
AcDbEntity
8
container
6
ByLayer
62
256
370
-1
100
AcDbLine
10
11787.3162821
20
-4570.06003823
11
12947.3162821
21
-4570.06003823
0
LINE
5
2F4
100
AcDbEntity
8
doors
6
ByLayer
62
256
370
-1
100
AcDbLine
10
11697.3162821
20
-4526.06003823
11
11697.3162821
21
-2186.06003823
0
LINE
5
2F5
100
AcDbEntity
8
doors
6
ByLayer
62
256
370
-1
100
AcDbLine
10
11732.3162821
20
-4526.06003823
11
11732.3162821
21
-3344.06003822
0
LINE
5
2F6
100
AcDbEntity
8
doors
6
ByLayer
62
256
370
-1
100
AcDbLine
10
11662.3162821
20
-3368.06003822
11
11662.3162821
21
-2186.06003823
0
LINE
5
2F7
100
AcDbEntity
8
doors
6
ByLayer
62
256
370
-1
100
AcDbLine
10
11697.3162821
20
-3344.06003822
11
11732.3162821
21
-3344.06003822
0
LINE
5
2F8
100
AcDbEntity
8
doors
6
ByLayer
62
256
370
-1
100
AcDbLine
10
11662.3162821
20
-3368.06003822
11
11697.3162821
21
-3368.06003822
0
LINE
5
2F9
100
AcDbEntity
8
doors
6
ByLayer
62
256
370
-1
100
AcDbLine
10
11662.3162821
20
-2186.06003823
11
11697.3162821
21
-2186.06003823
0
LINE
5
2FA
100
AcDbEntity
8
doors
6
ByLayer
62
256
370
-1
100
AcDbLine
10
11697.3162821
20
-4526.06003823
11
11732.3162821
21
-4526.06003823
0
MTEXT
5
2FB
100
AcDbEntity
8
text
6
ByLayer
62
256
370
-1
100
AcDbMText
10
9785.80616725
20
-4722.50708346
30
0
40
150
41
516.72381247
71
1
72
1
1
slider
7
standard
210
0
220
0
230
1
50
0
73
2
44
1
0
MTEXT
5
2FC
100
AcDbEntity
8
text
6
ByLayer
62
256
370
-1
100
AcDbMText
10
9779.16271432
20
-1905.89563124
30
0
40
150
41
516.72381247
71
1
72
1
1
slider
7
standard
210
0
220
0
230
1
50
0
73
2
44
1
0
INSERT
5
2FD
100
AcDbEntity
8
tatami
6
ByLayer
62
256
370
-1
100
AcDbBlockReference
2
KyotoKyomaTatamiVertical-1
10
2826.3162821
20
-4311.06003822
30
0
41
1
42
1
43
0
50
0
70
1
71
1
44
1
45
1
0
INSERT
5
2FE
100
AcDbEntity
8
tatami
6
ByLayer
62
256
370
-1
100
AcDbBlockReference
2
KyotoKyomaTatamiHalf-1
10
916.31628207
20
-3356.06003822
30
0
41
1
42
1
43
0
50
0
70
1
71
1
44
1
45
1
0
INSERT
5
2FF
100
AcDbEntity
8
tatami
6
ByLayer
62
256
370
-1
100
AcDbBlockReference
2
KyotoKyomaTatamiHalf-1
10
916.31628207
20
-4311.06003822
30
0
41
1
42
1
43
0
50
0
70
1
71
1
44
1
45
1
0
LINE
5
300
100
AcDbEntity
8
0
6
ByLayer
62
256
370
-1
100
AcDbLine
10
3834.3162821
20
-2230.06003822
11
3834.3162821
21
-4482.06003823
0
LINE
5
301
100
AcDbEntity
8
0
6
ByLayer
62
256
370
-1
100
AcDbLine
10
5584.3162821
20
-4417.06003823
11
5634.3162821
21
-4417.06003823
0
LINE
5
302
100
AcDbEntity
8
0
6
ByLayer
62
256
370
-1
100
AcDbLine
10
5634.3162821
20
-4417.06003823
11
5634.3162821
21
-4482.06003823
0
LINE
5
303
100
AcDbEntity
8
0
6
ByLayer
62
256
370
-1
100
AcDbLine
10
5584.31619578
20
-4417.06003823
11
5584.3162821
21
-4482.06003823
0
INSERT
5
304
100
AcDbEntity
8
fixtures
6
ByLayer
62
256
370
-1
100
AcDbBlockReference
2
WCVerRight-2
10
3909.3162821
20
-4324.82042216
30
0
41
1
42
1
43
0
50
0
70
1
71
1
44
1
45
1
0
INSERT
5
305
100
AcDbEntity
8
eletrical
6
ByLayer
62
256
370
-1
100
AcDbBlockReference
2
outlet110HorUp-0
10
4196.26441292
20
-4482.06003823
30
0
41
1
42
1
43
0
50
0
70
1
71
1
44
1
45
1
0
LINE
5
306
100
AcDbEntity
8
0
6
ByLayer
62
256
370
-1
100
AcDbLine
10
3034.3162821
20
-2230.06003822
11
3034.3162821
21
-4482.06003823
0
LINE
5
307
100
AcDbEntity
8
0
6
ByLayer
62
256
370
-1
100
AcDbLine
10
5634.3162821
20
-4482.06003823
11
5659.3162821
21
-4482.06003823
0
LINE
5
308
100
AcDbEntity
8
0
6
ByLayer
62
256
370
-1
100
AcDbLine
10
6484.3162821
20
-2230.06003823
11
6484.3162821
21
-4482.06003823
0
LINE
5
309
100
AcDbEntity
8
0
6
ByLayer
62
256
370
-1
100
AcDbLine
10
6534.3162821
20
-2230.06003823
11
6534.3162821
21
-4482.06003823
0
LINE
5
30A
100
AcDbEntity
8
0
6
ByLayer
62
256
370
-1
100
AcDbLine
10
7334.3162821
20
-2230.06003823
11
7334.3162821
21
-4482.06003823
0
LINE
5
30B
100
AcDbEntity
8
0
6
ByLayer
62
256
370
-1
100
AcDbLine
10
5659.3162821
20
-4482.06003823
11
5659.3162821
21
-4532.06003823
0
LINE
5
30C
100
AcDbEntity
8
0
6
ByLayer
62
256
370
-1
100
AcDbLine
10
6459.3162821
20
-4482.06003823
11
6459.3162821
21
-4532.06003823
0
LINE
5
30D
100
AcDbEntity
8
0
6
ByLayer
62
256
370
-1
100
AcDbLine
10
6459.3162821
20
-4482.06003823
11
6486.45852456
21
-4482.06003823
0
INSERT
5
30E
100
AcDbEntity
8
fixtures
6
ByLayer
62
256
370
-1
100
AcDbBlockReference
2
jtub
10
3896.54085306
20
-3253.32350009
30
0
41
1
42
1
43
0
50
0
70
1
71
1
44
1
45
1
0
INSERT
5
30F
100
AcDbEntity
8
doors
6
ByLayer
62
256
370
-1
100
AcDbBlockReference
2
door800VerLeft-0
10
6459.3162821
20
-4482.06003823
30
0
41
1
42
1
43
0
50
270
70
1
71
1
44
1
45
1
0
DIMENSION
5
310
100
AcDbEntity
8
dimension
6
ByLayer
62
256
370
-1
100
AcDbDimension
2
*D14
10
6459.3162821
20
-3913.01656613
30
0
11
6059.3162821
21
-3813.01656613
31
0
70
32
71
5
72
0
3
Standard
53
0
210
0
220
0
230
1
100
AcDbAlignedDimension
13
5659.3162821
23
-4482.06003823
33
0
14
6459.3162821
24
-4482.06003823
34
0
100
AcDbRotatedDimension
0
LINE
5
311
100
AcDbEntity
8
0
6
ByLayer
62
256
370
-1
100
AcDbLine
10
6621.31628207
20
-4482.06003823
11
7571.31628207
21
-4482.06003823
0
LINE
5
312
100
AcDbEntity
8
0
6
ByLayer
62
256
370
-1
100
AcDbLine
10
6696.31628207
20
-4532.06003823
11
7496.31628207
21
-4532.06003823
0
LINE
5
313
100
AcDbEntity
8
container
6
ByLayer
62
256
370
-1
100
AcDbLine
10
6696.31628207
20
-4576.06003823
11
7502.28138203
21
-4576.06003823
0
LINE
5
314
100
AcDbEntity
8
0
6
ByLayer
62
256
370
-1
100
AcDbLine
10
4871.31628207
20
-4482.06003823
11
4921.31628207
21
-4482.06003823
0
LINE
5
315
100
AcDbEntity
8
0
6
ByLayer
62
256
370
-1
100
AcDbLine
10
4921.31628207
20
-4482.06003823
11
5584.3162821
21
-4482.06003823
0
LINE
5
316
100
AcDbEntity
8
0
6
ByLayer
62
256
370
-1
100
AcDbLine
10
6534.3162821
20
-4482.06003823
11
6621.31628207
21
-4482.06003823
0
LINE
5
317
100
AcDbEntity
8
container
6
ByLayer
62
256
370
-1
100
AcDbLine
10
5659.3162821
20
-4532.06003823
11
5659.3162821
21
-4576.06003823
0
LINE
5
318
100
AcDbEntity
8
container
6
ByLayer
62
256
370
-1
100
AcDbLine
10
6459.3162821
20
-4532.06003823
11
6459.3162821
21
-4576.06003823
0
LINE
5
319
100
AcDbEntity
8
container
6
ByLayer
62
256
370
-1
100
AcDbLine
10
3421.96177861
20
-4576.06003823
11
5659.3162821
21
-4576.06003823
0
LINE
5
31A
100
AcDbEntity
8
container
6
ByLayer
62
256
370
-1
100
AcDbLine
10
6459.3162821
20
-4576.06003823
11
6696.31628207
21
-4576.06003823
0
LINE
5
31B
100
AcDbEntity
8
container
6
ByLayer
62
256
370
-1
100
AcDbLine
10
6696.31628207
20
-4532.06003823
11
6459.3162821
21
-4532.06003823
0
LINE
5
31C
100
AcDbEntity
8
container
6
ByLayer
62
256
370
-1
100
AcDbLine
10
5659.3162821
20
-4532.06003823
11
3421.96177861
21
-4532.06003823
0
LINE
5
31D
100
AcDbEntity
8
container
6
DASHDOT2
62
256
370
-1
100
AcDbLine
10
5659.3162821
20
-4576.06003823
11
6459.3162821
21
-4576.06003823
0
LINE
5
31E
100
AcDbEntity
8
0
6
ByLayer
62
256
370
-1
100
AcDbLine
10
4871.31628207
20
-2230.06003822
11
5584.3162821
21
-2230.06003823
0
LINE
5
31F
100
AcDbEntity
8
0
6
ByLayer
62
256
370
-1
100
AcDbLine
10
6534.3162821
20
-2230.06003823
11
7571.31628207
21
-2230.06003823
0
INSERT
5
320
100
AcDbEntity
8
tatami
6
ByLayer
62
256
370
-1
100
AcDbBlockReference
2
KyotoKyomaTatamiVertical-8
10
10489.8162821
20
-2401.06003822
30
0
41
1
42
1
43
0
50
180
70
1
71
1
44
0
45
0
0
INSERT
5
321
100
AcDbEntity
8
tatami
6
ByLayer
62
256
370
-1
100
AcDbBlockReference
2
KyotoKyomaTatamiVertical-9
10
7624.81628207
20
-2401.06003822
30
0
41
1
42
1
43
0
50
180
70
1
71
1
44
0
45
0
0
INSERT
5
322
100
AcDbEntity
8
tatami
6
ByLayer
62
256
370
-1
100
AcDbBlockReference
2
KyotoKyomaTatami-0
10
10489.8162821
20
-2401.06003822
30
0
41
1
42
1
43
0
50
180
70
1
71
1
44
0
45
0
0
INSERT
5
323
100
AcDbEntity
8
tatami
6
ByLayer
62
256
370
-1
100
AcDbBlockReference
2
KyotoKyomaTatami-1
10
10489.8162821
20
-3356.06003822
30
0
41
1
42
1
43
0
50
180
70
1
71
1
44
0
45
0
0
LINE
5
324
100
AcDbEntity
8
container
6
ByLayer
62
256
370
-1
100
AcDbLine
10
11012.3162821
20
-2136.06003823
11
11777.3162821
21
-2136.06003823
0
LINE
5
325
100
AcDbEntity
8
0
6
ByLayer
62
256
370
-1
100
AcDbLine
10
7961.31628207
20
-2230.06003823
11
8062.3162821
21
-2230.06003823
0
LINE
5
326
100
AcDbEntity
8
0
6
ByLayer
62
256
370
-1
100
AcDbLine
10
8062.3162821
20
-2180.06003823
11
8062.3162821
21
-2230.06003823
0
LINE
5
327
100
AcDbEntity
8
container
6
ByLayer
62
256
370
-1
100
AcDbLine
10
8062.3162821
20
-2180.06003823
11
8062.3162821
21
-2136.06003823
0
LINE
5
328
100
AcDbEntity
8
doors
6
ByLayer
62
256
370
-1
100
AcDbLine
10
8068.3162821
20
-2201.06003823
11
11004.3162821
21
-2201.06003823
0
LINE
5
329
100
AcDbEntity
8
doors
6
ByLayer
62
256
370
-1
100
AcDbLine
10
9525.3162821
20
-2166.06003823
11
11004.3162821
21
-2166.06003823
0
LINE
5
32A
100
AcDbEntity
8
doors
6
ByLayer
62
256
370
-1
100
AcDbLine
10
8068.3162821
20
-2236.06003823
11
9549.3162821
21
-2236.06003823
0
LINE
5
32B
100
AcDbEntity
8
doors
6
ByLayer
62
256
370
-1
100
AcDbLine
10
9525.3162821
20
-2166.06003823
11
9525.3162821
21
-2201.06003823
0
LINE
5
32C
100
AcDbEntity
8
doors
6
ByLayer
62
256
370
-1
100
AcDbLine
10
9549.3162821
20
-2201.06003823
11
9549.3162821
21
-2236.06003823
0
LINE
5
32D
100
AcDbEntity
8
doors
6
ByLayer
62
256
370
-1
100
AcDbLine
10
8068.3162821
20
-2201.06003823
11
8068.3162821
21
-2236.06003823
0
LINE
5
32E
100
AcDbEntity
8
container
6
ByLayer
62
256
370
-1
100
AcDbLine
10
7496.31628207
20
-4532.06003823
11
8062.3162821
21
-4532.06003823
0
LINE
5
32F
100
AcDbEntity
8
0
6
ByLayer
62
256
370
-1
100
AcDbLine
10
7571.31628207
20
-4482.06003823
11
8062.3162821
21
-4482.06003823
0
LINE
5
330
100
AcDbEntity
8
doors
6
ByLayer
62
256
370
-1
100
AcDbLine
10
8068.3162821
20
-4511.06003823
11
11006.3162821
21
-4511.06003823
0
LINE
5
331
100
AcDbEntity
8
doors
6
ByLayer
62
256
370
-1
100
AcDbLine
10
8068.3162821
20
-4546.06003823
11
9549.3162821
21
-4546.06003823
0
LINE
5
332
100
AcDbEntity
8
doors
6
ByLayer
62
256
370
-1
100
AcDbLine
10
9525.3162821
20
-4476.06003823
11
11006.3162821
21
-4476.06003823
0
LINE
5
333
100
AcDbEntity
8
doors
6
ByLayer
62
256
370
-1
100
AcDbLine
10
9525.3162821
20
-4476.06003823
11
9525.3162821
21
-4511.06003823
0
LINE
5
334
100
AcDbEntity
8
doors
6
ByLayer
62
256
370
-1
100
AcDbLine
10
9549.3162821
20
-4511.06003823
11
9549.3162821
21
-4546.06003823
0
LINE
5
335
100
AcDbEntity
8
doors
6
ByLayer
62
256
370
-1
100
AcDbLine
10
8068.3162821
20
-4511.06003823
11
8068.3162821
21
-4546.06003823
0
LINE
5
336
100
AcDbEntity
8
0
6
ByLayer
62
256
370
-1
100
AcDbLine
10
8062.3162821
20
-4482.06003823
11
8062.3162821
21
-4532.06003823
0
LINE
5
337
100
AcDbEntity
8
container
6
ByLayer
62
256
370
-1
100
AcDbLine
10
8062.3162821
20
-4532.06003823
11
8062.3162821
21
-4576.06003823
0
LINE
5
338
100
AcDbEntity
8
container
6
ByLayer
62
256
370
-1
100
AcDbLine
10
7502.28138203
20
-4576.06003823
11
8062.3162821
21
-4576.06003823
0
LINE
5
339
100
AcDbEntity
8
container
6
ByLayer
62
256
370
-1
100
AcDbLine
10
11012.3162821
20
-4576.06003823
11
11777.3162821
21
-4576.06003823
0
LINE
5
33A
100
AcDbEntity
8
container
6
DASHDOT2
62
256
370
-1
100
AcDbLine
10
8062.3162821
20
-2136.06003823
11
11012.3162821
21
-2136.06003823
0
LINE
5
33B
100
AcDbEntity
8
container
6
DASHDOT2
62
256
370
-1
100
AcDbLine
10
8062.3162821
20
-4576.06003823
11
11012.3162821
21
-4576.06003823
0
MTEXT
5
33C
100
AcDbEntity
8
text
6
ByLayer
62
256
370
-1
100
AcDbMText
10
9254.32993279
20
-2790.25023099
30
0
40
150
41
695.833333333
71
1
72
1
1
Bed 4T
7
standard
210
0
220
0
230
1
50
0
73
2
44
1
0
MTEXT
5
33D
100
AcDbEntity
8
text
6
ByLayer
62
256
370
-1
100
AcDbMText
10
1536.29849028
20
2599.25095923
30
0
40
150
41
695.833333333
71
1
72
1
1
Bed 4T
7
standard
210
0
220
0
230
1
50
0
73
2
44
1
0
MTEXT
5
33E
100
AcDbEntity
8
text
6
ByLayer
62
256
370
-1
100
AcDbMText
10
9699.44127916
20
2636.12212299
30
0
40
150
41
679.166666667
71
1
72
1
1
Bed 3T
7
standard
210
0
220
0
230
1
50
0
73
2
44
1
0
MTEXT
5
33F
100
AcDbEntity
8
text
6
ByLayer
62
256
370
-1
100
AcDbMText
10
1113.97418746
20
-2784.93546865
30
0
40
150
41
679.166666667
71
1
72
1
1
Bed 3T
7
standard
210
0
220
0
230
1
50
0
73
2
44
1
0
MTEXT
5
340
100
AcDbEntity
8
text
6
ByLayer
62
256
370
-1
100
AcDbMText
10
7792.77028798
20
1973.10552049
30
0
40
150
41
500.000077143
71
1
72
1
1
closit
7
standard
210
0
220
0
230
1
50
90
73
2
44
1
0
MTEXT
5
341
100
AcDbEntity
8
text
6
ByLayer
62
256
370
-1
100
AcDbMText
10
4411.25274614
20
1982.40635459
30
0
40
150
41
500.000077143
71
1
72
1
1
closit
7
standard
210
0
220
0
230
1
50
90
73
2
44
1
0
MTEXT
5
342
100
AcDbEntity
8
text
6
ByLayer
62
256
370
-1
100
AcDbMText
10
6914.50581051
20
-3443.96599939
30
0
40
150
41
500.000077143
71
1
72
1
1
closit
7
standard
210
0
220
0
230
1
50
90
73
2
44
1
0
MTEXT
5
343
100
AcDbEntity
8
text
6
ByLayer
62
256
370
-1
100
AcDbMText
10
3367.43342163
20
-3401.44790064
30
0
40
150
41
500.000077143
71
1
72
1
1
closit
7
standard
210
0
220
0
230
1
50
90
73
2
44
1
0
DIMENSION
5
344
100
AcDbEntity
8
dimension
6
ByLayer
62
256
370
-1
100
AcDbDimension
2
*D15
10
871.31628207
20
3633.01681925
30
0
11
224.316282072
21
3733.01681925
31
0
70
32
71
5
3
Standard
53
0
210
0
220
0
230
1
100
AcDbAlignedDimension
13
-422.683717927
23
3303.93996177
33
0
14
871.31628207
24
3303.93996177
34
0
100
AcDbRotatedDimension
0
DIMENSION
5
345
100
AcDbEntity
8
dimension
6
ByLayer
62
256
370
-1
100
AcDbDimension
2
*D16
10
8062.3162821
20
-1460.10824699
30
0
11
9537.3162821
21
-1360.10824699
31
0
70
32
71
5
3
Standard
53
0
210
0
220
0
230
1
100
AcDbAlignedDimension
13
11012.3162821
23
-2136.06003823
33
0
14
8062.3162821
24
-2136.06003823
34
0
100
AcDbRotatedDimension
0
DIMENSION
5
346
100
AcDbEntity
8
dimension
6
ByLayer
62
256
370
-1
100
AcDbDimension
2
*D17
10
7334.3162821
20
-1839.50302466
30
0
11
7698.3162821
21
-1739.50302466
31
0
70
32
71
5
3
Standard
53
0
210
0
220
0
230
1
100
AcDbAlignedDimension
13
8062.3162821
23
-2136.06003823
33
0
14
7334.3162821
24
-2230.06003823
34
0
100
AcDbRotatedDimension
0
DIMENSION
5
347
100
AcDbEntity
8
dimension
6
ByLayer
62
256
370
-1
100
AcDbDimension
2
*D18
10
6534.3162821
20
-1461.26201811
30
0
11
7298.3162821
21
-1361.26201811
31
0
70
32
71
5
3
Standard
53
0
210
0
220
0
230
1
100
AcDbAlignedDimension
13
8062.3162821
23
-2136.06003823
33
0
14
6534.3162821
24
-2230.06003823
34
0
100
AcDbRotatedDimension
0
DIMENSION
5
348
100
AcDbEntity
8
dimension
6
ByLayer
62
256
370
-1
100
AcDbDimension
2
*D19
10
3034.3162821
20
-1463.05075521
30
0
11
3459.3162821
21
-1363.05075521
31
0
70
32
71
5
3
Standard
53
0
210
0
220
0
230
1
100
AcDbAlignedDimension
13
3884.3162821
23
-2230.06003822
33
0
14
3034.3162821
24
-2236.13906146
34
0
100
AcDbRotatedDimension
0
LINE
5
349
100
AcDbEntity
8
0
6
ByLayer
62
256
370
-1
100
AcDbLine
10
-328.683717927
20
-2230.06003823
11
342.316282073
21
-2230.06003823
0
LINE
5
34A
100
AcDbEntity
8
container
6
ByLayer
62
256
370
-1
100
AcDbLine
10
-378.683717927
20
-2180.06003823
11
342.316282073
21
-2180.06003823
0
LINE
5
34B
100
AcDbEntity
8
0
6
ByLayer
62
256
370
-1
100
AcDbLine
10
-328.683717927
20
-4482.06003823
11
342.316282073
21
-4482.06003823
0
LINE
5
34C
100
AcDbEntity
8
container
6
ByLayer
62
256
370
-1
100
AcDbLine
10
-378.683717927
20
-4532.06003823
11
342.316282073
21
-4532.06003823
0
LINE
5
34D
100
AcDbEntity
8
container
6
ByLayer
62
256
370
-1
100
AcDbLine
10
-422.683717927
20
-4576.06003823
11
342.316282073
21
-4576.06003823
0
LINE
5
34E
100
AcDbEntity
8
container
6
ByLayer
62
256
370
-1
100
AcDbLine
10
-422.683717927
20
-2136.06003823
11
342.316282073
21
-2136.06003823
0
LINE
5
34F
100
AcDbEntity
8
container
6
ByLayer
62
256
370
-1
100
AcDbLine
10
342.316282073
20
-2180.06003823
11
342.316282073
21
-2136.06003823
0
LINE
5
350
100
AcDbEntity
8
container
6
ByLayer
62
256
370
-1
100
AcDbLine
10
2342.31628207
20
-2180.06003822
11
2342.31628207
21
-2136.06003823
0
LINE
5
351
100
AcDbEntity
8
0
6
ByLayer
62
256
370
-1
100
AcDbLine
10
2342.31628207
20
-2230.06003823
11
2342.31628207
21
-2180.06003823
0
LINE
5
352
100
AcDbEntity
8
0
6
ByLayer
62
256
370
-1
100
AcDbLine
10
342.316282073
20
-2230.06003823
11
342.316282073
21
-2180.06003823
0
LINE
5
353
100
AcDbEntity
8
doors
6
ByLayer
62
256
370
-1
100
AcDbLine
10
1354.31628207
20
-2236.06003823
11
1354.31628207
21
-2201.06003823
0
LINE
5
354
100
AcDbEntity
8
doors
6
ByLayer
62
256
370
-1
100
AcDbLine
10
1330.31628207
20
-2201.06003823
11
1330.31628207
21
-2166.06003823
0
LINE
5
355
100
AcDbEntity
8
doors
6
ByLayer
62
256
370
-1
100
AcDbLine
10
348.316282073
20
-2236.06003823
11
1354.31628207
21
-2236.06003823
0
LINE
5
356
100
AcDbEntity
8
doors
6
ByLayer
62
256
370
-1
100
AcDbLine
10
348.316282073
20
-2236.06003823
11
348.316282073
21
-2201.06003823
0
LINE
5
357
100
AcDbEntity
8
doors
6
ByLayer
62
256
370
-1
100
AcDbLine
10
1330.31628207
20
-2166.06003823
11
2336.31628207
21
-2166.06003823
0
LINE
5
358
100
AcDbEntity
8
doors
6
ByLayer
62
256
370
-1
100
AcDbLine
10
348.316282073
20
-2201.06003823
11
2336.31628207
21
-2201.06003823
0
LINE
5
359
100
AcDbEntity
8
doors
6
ByLayer
62
256
370
-1
100
AcDbLine
10
2336.31628207
20
-2201.06003823
11
2336.31628207
21
-2166.06003823
0
MTEXT
5
35A
100
AcDbEntity
8
text
6
ByLayer
62
256
370
-1
100
AcDbMText
10
1103.6949923
20
-1907.93649998
30
0
40
150
41
516.72381247
71
1
72
1
1
slider
7
standard
210
0
220
0
230
1
50
0
73
2
44
1
0
LINE
5
35B
100
AcDbEntity
8
container
6
DASHDOT2
62
256
370
-1
100
AcDbLine
10
342.316282073
20
-2136.06003823
11
2342.31628207
21
-2136.06003823
0
LINE
5
35C
100
AcDbEntity
8
container
6
ByLayer
62
256
370
-1
100
AcDbLine
10
2342.31628207
20
-2136.06003823
11
8062.3162821
21
-2136.06003823
0
LINE
5
35D
100
AcDbEntity
8
container
6
ByLayer
62
256
370
-1
100
AcDbLine
10
2342.31628207
20
-2180.06003823
11
8062.3162821
21
-2180.06003823
0
LINE
5
35E
100
AcDbEntity
8
0
6
ByLayer
62
256
370
-1
100
AcDbLine
10
342.316282073
20
-4482.06003823
11
342.316282073
21
-4532.06003823
0
LINE
5
35F
100
AcDbEntity
8
0
6
ByLayer
62
256
370
-1
100
AcDbLine
10
2342.31628207
20
-4482.06003823
11
2342.31628207
21
-4532.06003823
0
LINE
5
360
100
AcDbEntity
8
container
6
ByLayer
62
256
370
-1
100
AcDbLine
10
2342.31628207
20
-4532.06003823
11
2342.31628207
21
-4576.06003823
0
LINE
5
361
100
AcDbEntity
8
container
6
ByLayer
62
256
370
-1
100
AcDbLine
10
342.316282073
20
-4532.06003823
11
342.316282073
21
-4576.06003823
0
LINE
5
362
100
AcDbEntity
8
doors
6
ByLayer
62
256
370
-1
100
AcDbLine
10
1354.31628207
20
-4511.06003823
11
1354.31628207
21
-4546.06003823
0
LINE
5
363
100
AcDbEntity
8
doors
6
ByLayer
62
256
370
-1
100
AcDbLine
10
1330.31628207
20
-4476.06003823
11
1330.31628207
21
-4511.06003823
0
LINE
5
364
100
AcDbEntity
8
doors
6
ByLayer
62
256
370
-1
100
AcDbLine
10
348.316282073
20
-4511.06003823
11
348.316282073
21
-4546.06003823
0
LINE
5
365
100
AcDbEntity
8
doors
6
ByLayer
62
256
370
-1
100
AcDbLine
10
348.316282073
20
-4546.06003823
11
1354.31628207
21
-4546.06003823
0
LINE
5
366
100
AcDbEntity
8
doors
6
ByLayer
62
256
370
-1
100
AcDbLine
10
2336.31628207
20
-4476.06003823
11
2336.31628207
21
-4511.06003823
0
LINE
5
367
100
AcDbEntity
8
doors
6
ByLayer
62
256
370
-1
100
AcDbLine
10
1330.31628207
20
-4476.06003823
11
2336.31628207
21
-4476.06003823
0
LINE
5
368
100
AcDbEntity
8
doors
6
ByLayer
62
256
370
-1
100
AcDbLine
10
348.316282073
20
-4511.06003823
11
2336.31628207
21
-4511.06003823
0
MTEXT
5
369
100
AcDbEntity
8
text
6
ByLayer
62
256
370
-1
100
AcDbMText
10
1081.37299046
20
-4685.30374705
30
0
40
150
41
516.72381247
71
1
72
1
1
slider
7
standard
210
0
220
0
230
1
50
0
73
2
44
1
0
LINE
5
36A
100
AcDbEntity
8
container
6
DASHDOT2
62
256
370
-1
100
AcDbLine
10
342.316282073
20
-4576.06003823
11
2342.31628207
21
-4576.06003823
0
LINE
5
36B
100
AcDbEntity
8
0
6
ByLayer
62
256
370
-1
100
AcDbLine
10
2342.31628207
20
-4482.06003823
11
3421.31628207
21
-4482.06003823
0
LINE
5
36C
100
AcDbEntity
8
container
6
ByLayer
62
256
370
-1
100
AcDbLine
10
2342.31628207
20
-4532.06003823
11
3421.96177861
21
-4532.06003823
0
LINE
5
36D
100
AcDbEntity
8
container
6
ByLayer
62
256
370
-1
100
AcDbLine
10
2342.31628207
20
-4576.06003823
11
3421.96177861
21
-4576.06003823
0
DIMENSION
5
36E
100
AcDbEntity
8
dimension
6
ByLayer
62
256
370
-1
100
AcDbDimension
2
*D20
10
342.316282073
20
-1463.06120985
30
0
11
-40.183717927
21
-1363.06120985
31
0
70
32
71
5
3
Standard
53
0
210
0
220
0
230
1
100
AcDbAlignedDimension
13
-422.683717927
23
-2136.06003823
33
0
14
342.316282073
24
-2136.06003823
34
0
100
AcDbRotatedDimension
0
DIMENSION
5
36F
100
AcDbEntity
8
dimension
6
ByLayer
62
256
370
-1
100
AcDbDimension
2
*D21
10
2342.31628207
20
-1463.01446071
30
0
11
1342.31628207
21
-1363.01446071
31
0
70
32
71
5
3
Standard
53
0
210
0
220
0
230
1
100
AcDbAlignedDimension
13
342.316282073
23
-2136.06003823
33
0
14
2342.31628207
24
-2136.06003823
34
0
100
AcDbRotatedDimension
0
INSERT
5
370
100
AcDbEntity
8
eletrical
6
ByLayer
62
256
370
-1
100
AcDbBlockReference
2
outlet110HorUp-0
10
7830.4051831
20
-4482.06003823
30
0
41
1
42
1
43
0
50
0
70
1
71
1
44
1
45
1
0
INSERT
5
371
100
AcDbEntity
8
eletrical
6
ByLayer
62
256
370
-1
100
AcDbBlockReference
2
outlet110HorUp-0
10
2592.71964778
20
-2230.06003822
30
0
41
1
42
1
43
0
50
180
70
1
71
1
44
1
45
1
0
INSERT
5
372
100
AcDbEntity
8
eletrical
6
ByLayer
62
256
370
-1
100
AcDbBlockReference
2
outlet110HorUp-0
10
8806.97448116
20
3209.93996177
30
0
41
1
42
1
43
0
50
180
70
1
71
1
44
1
45
1
0
INSERT
5
373
100
AcDbEntity
8
eletrical
6
ByLayer
62
256
370
-1
100
AcDbBlockReference
2
outlet110HorUp-0
10
13719.6254752
20
3209.93996177
30
0
41
1
42
1
43
0
50
180
70
1
71
1
44
1
45
1
0
INSERT
5
374
100
AcDbEntity
8
eletrical
6
ByLayer
62
256
370
-1
100
AcDbBlockReference
2
outlet110HorUp-0
10
12418.0216358
20
-2230.06003822
30
0
41
1
42
1
43
0
50
180
70
1
71
1
44
1
45
1
0
INSERT
5
375
100
AcDbEntity
8
eletrical
6
ByLayer
62
256
370
-1
100
AcDbBlockReference
2
outlet110HorUp-0
10
7913.68113133
20
-2230.06003823
30
0
41
1
42
1
43
0
50
180
70
1
71
1
44
1
45
1
0
INSERT
5
376
100
AcDbEntity
8
eletrical
6
ByLayer
62
256
370
-1
100
AcDbBlockReference
2
outlet110HorUp-0
10
2589.35221436
20
-4482.06003823
30
0
41
1
42
1
43
0
50
0
70
1
71
1
44
1
45
1
0
MTEXT
5
377
100
AcDbEntity
8
text
6
ByLayer
62
256
370
-1
100
AcDbMText
10
3009.45295543
20
-5955.54900653
30
0
40
250
41
7562.50038572
71
1
72
1
1
floor plans for 2 small bedrooms with bath
7
standard
210
0
220
0
230
1
50
0
73
2
44
1
0
LINE
5
378
100
AcDbEntity
8
0
6
ByLayer
62
256
370
-1
100
AcDbLine
10
5584.3162821
20
-3617.06003823
11
5584.3162821
21
-3582.06003823
0
LINE
5
379
100
AcDbEntity
8
0
6
ByLayer
62
256
370
-1
100
AcDbLine
10
5634.3162821
20
-3617.06003823
11
5634.3162821
21
-3532.06003823
0
LINE
5
37A
100
AcDbEntity
8
doors
6
ByLayer
62
256
370
-1
100
AcDbLine
10
5644.3162821
20
-3526.06003823
11
5644.3162821
21
-3496.06003823
0
LINE
5
37B
100
AcDbEntity
8
doors
6
ByLayer
62
256
370
-1
100
AcDbLine
10
4744.3162821
20
-3526.06003823
11
4744.3162821
21
-3496.06003823
0
LINE
5
37C
100
AcDbEntity
8
doors
6
ByLayer
62
256
370
-1
100
AcDbLine
10
4744.3162821
20
-3496.06003823
11
5644.3162821
21
-3496.06003823
0
LINE
5
37D
100
AcDbEntity
8
doors
6
ByLayer
62
256
370
-1
100
AcDbLine
10
4744.3162821
20
-3526.06003823
11
5644.3162821
21
-3526.06003823
0
LINE
5
37E
100
AcDbEntity
8
0
6
ByLayer
62
256
370
-1
100
AcDbLine
10
5584.3162821
20
-3617.06003823
11
5634.3162821
21
-3617.06003823
0
LINE
5
37F
100
AcDbEntity
8
0
6
ByLayer
62
256
370
-1
100
AcDbLine
10
3884.3162821
20
-3582.06003823
11
3884.3162821
21
-4482.06003823
0
LINE
5
380
100
AcDbEntity
8
0
6
ByLayer
62
256
370
-1
100
AcDbLine
10
3884.3162821
20
-2230.06003822
11
3884.3162821
21
-3532.06003823
0
LINE
5
381
100
AcDbEntity
8
0
6
ByLayer
62
256
370
-1
100
AcDbLine
10
2342.31628207
20
-2230.06003822
11
3834.3162821
21
-2230.06003822
0
LINE
5
382
100
AcDbEntity
8
0
6
ByLayer
62
256
370
-1
100
AcDbLine
10
3884.3162821
20
-2230.06003822
11
4871.31628207
21
-2230.06003822
0
LINE
5
383
100
AcDbEntity
8
0
6
ByLayer
62
256
370
-1
100
AcDbLine
10
5584.3162821
20
-2230.06003823
11
6484.3162821
21
-2230.06003823
0
LINE
5
384
100
AcDbEntity
8
0
6
ByLayer
62
256
370
-1
100
AcDbLine
10
3884.3162821
20
-3532.06003823
11
5634.3162821
21
-3532.06003823
0
LINE
5
385
100
AcDbEntity
8
0
6
ByLayer
62
256
370
-1
100
AcDbLine
10
3884.3162821
20
-3582.06003823
11
5584.3162821
21
-3582.06003823
0
LINE
5
386
100
AcDbEntity
8
0
6
DOT2
62
256
370
-1
100
AcDbLine
10
5634.3162821
20
-3532.06003823
11
6484.3162821
21
-3532.06003823
0
LINE
5
387
100
AcDbEntity
8
0
6
DOT2
62
256
370
-1
100
AcDbLine
10
5634.3162821
20
-3582.06003823
11
6484.3162821
21
-3582.06003823
0
INSERT
5
388
100
AcDbEntity
8
doors
6
ByLayer
62
256
370
-1
100
AcDbBlockReference
2
door800VerLeft-0
10
5584.3162821
20
-3617.06003823
30
0
41
1
42
1
43
0
50
0
70
1
71
1
44
1
45
1
0
INSERT
5
389
100
AcDbEntity
8
fixtures
6
ByLayer
62
256
370
-1
100
AcDbBlockReference
2
washer_Hor-0
10
7496.31628207
20
3184.93996177
30
0
41
1
42
1
43
0
50
180
70
1
71
1
44
1
45
1
0
ENDSEC
0
SECTION
2
OBJECTS
0
DICTIONARY
5
C
330
0
100
AcDbDictionary
281
1
3
ACAD_GROUP
350
D
0
DICTIONARY
5
D
330
C
100
AcDbDictionary
281
1
0
ENDSEC
0
EOF
