999
dxfrw 0.5.11
0
SECTION
2
HEADER
9
$ACADVER
1
AC1021
9
$HANDSEED
5
20000
9
$DWGCODEPAGE
3
ANSI_1252
9
$INSBASE
10
0
20
0
30
0
9
$EXTMIN
10
-422.683717927
20
203.93996177
30
0
9
$EXTMAX
10
12947.3162821
20
4811.73259271
30
0
9
$LIMMIN
10
0
20
0
9
$LIMMAX
10
420
20
297
9
$ORTHOMODE
70
0
9
$LTSCALE
40
1
9
$TEXTSTYLE
7
STANDARD
9
$CLAYER
8
dimension
9
$DIMASZ
40
30
9
$DIMLFAC
40
1
9
$DIMSCALE
40
1
9
$DIMEXO
40
10
9
$DIMEXE
40
50
9
$DIMTXT
40
100
9
$DIMTSZ
40
0
9
$DIMAUNIT
70
0
9
$DIMADEC
70
2
9
$DIMLUNIT
70
2
9
$DIMSTYLE
2
STANDARD
9
$DIMGAP
40
50
9
$DIMTIH
70
0
9
$LUNITS
70
2
9
$LUPREC
70
4
9
$AUNITS
70
0
9
$AUPREC
70
2
9
$SPLINESEGS
70
8
9
$GRIDMODE
70
1
9
$SNAPSTYLE
70
0
9
$GRIDUNIT
10
0
20
0
9
$PINSBASE
10
0
20
0
30
0
9
$PLIMMIN
10
0
20
0
9
$PLIMMAX
10
210
20
297
9
$INSUNITS
70
4
9
$PSVPSCALE
40
1
0
ENDSEC
0
SECTION
2
CLASSES
0
ENDSEC
0
SECTION
2
TABLES
0
TABLE
2
VPORT
5
8
330
0
100
AcDbSymbolTable
70
1
0
VPORT
5
31
330
2
100
AcDbSymbolTableRecord
100
AcDbViewportTableRecord
2
*ACTIVE
70
0
10
0
20
0
11
1
21
1
12
9163.94264154
22
4480.60027385
13
0
23
0
14
10
24
10
15
10
25
10
16
0
26
0
36
1
17
0
27
0
37
0
40
14881.2696878
41
2.10626702997
42
50
43
0
44
0
50
0
51
0
71
0
72
100
73
1
74
3
75
0
76
1
77
0
78
0
281
0
65
1
110
0
120
0
130
0
111
1
121
0
131
0
112
0
122
1
132
0
79
0
146
0
348
10020
60
7
61
5
292
1
282
1
141
0
142
0
63
250
421
3358443
0
ENDTAB
0
TABLE
2
LTYPE
5
5
330
0
100
AcDbSymbolTable
70
4
0
LTYPE
5
14
330
5
100
AcDbSymbolTableRecord
100
AcDbLinetypeTableRecord
2
ByBlock
70
0
3

72
65
73
0
40
0
0
LTYPE
5
15
330
5
100
AcDbSymbolTableRecord
100
AcDbLinetypeTableRecord
2
ByLayer
70
0
3

72
65
73
0
40
0
0
LTYPE
5
16
330
5
100
AcDbSymbolTableRecord
100
AcDbLinetypeTableRecord
2
Continuous
70
0
3
Solid line
72
65
73
0
40
0
0
LTYPE
5
32
330
5
100
AcDbSymbolTableRecord
100
AcDbLinetypeTableRecord
2
DOT
70
0
3
Dot . . . . . . . . . . . . . . . . . . . . . .
72
65
73
2
40
6.35
49
0
74
0
49
-6.35
74
0
0
LTYPE
5
33
330
5
100
AcDbSymbolTableRecord
100
AcDbLinetypeTableRecord
2
DOT2
70
0
3
Dot (.5x) .....................................
72
65
73
2
40
3.175
49
0
74
0
49
-3.175
74
0
0
LTYPE
5
34
330
5
100
AcDbSymbolTableRecord
100
AcDbLinetypeTableRecord
2
DOTX2
70
0
3
Dot (2x) .  .  .  .  .  .  .  .  .  .  .  .  .
72
65
73
2
40
12.7
49
0
74
0
49
-12.7
74
0
0
LTYPE
5
35
330
5
100
AcDbSymbolTableRecord
100
AcDbLinetypeTableRecord
2
DASHED
70
0
3
Dot . . . . . . . . . . . . . . . . . . . . . .
72
65
73
2
40
19.05
49
12.7
74
0
49
-6.35
74
0
0
LTYPE
5
36
330
5
100
AcDbSymbolTableRecord
100
AcDbLinetypeTableRecord
2
DASHED2
70
0
3
Dashed (.5x) _ _ _ _ _ _ _ _ _ _ _ _ _ _ _ _ _
72
65
73
2
40
9.525
49
6.35
74
0
49
-3.175
74
0
0
LTYPE
5
37
330
5
100
AcDbSymbolTableRecord
100
AcDbLinetypeTableRecord
2
DASHEDX2
70
0
3
Dashed (2x) ____  ____  ____  ____  ____  ___
72
65
73
2
40
38.1
49
25.4
74
0
49
-12.7
74
0
0
LTYPE
5
38
330
5
100
AcDbSymbolTableRecord
100
AcDbLinetypeTableRecord
2
DASHDOT
70
0
3
Dash dot __ . __ . __ . __ . __ . __ . __ . __
72
65
73
4
40
25.4
49
12.7
74
0
49
-6.35
74
0
49
0
74
0
49
-6.35
74
0
0
LTYPE
5
39
330
5
100
AcDbSymbolTableRecord
100
AcDbLinetypeTableRecord
2
DASHDOT2
70
0
3
Dash dot (.5x) _._._._._._._._._._._._._._._.
72
65
73
4
40
12.7
49
6.35
74
0
49
-3.175
74
0
49
0
74
0
49
-3.175
74
0
0
LTYPE
5
3A
330
5
100
AcDbSymbolTableRecord
100
AcDbLinetypeTableRecord
2
DASHDOTX2
70
0
3
Dash dot (2x) ____  .  ____  .  ____  .  ___
72
65
73
4
40
50.8
49
25.4
74
0
49
-12.7
74
0
49
0
74
0
49
-12.7
74
0
0
LTYPE
5
3B
330
5
100
AcDbSymbolTableRecord
100
AcDbLinetypeTableRecord
2
DIVIDE
70
0
3
Divide ____ . . ____ . . ____ . . ____ . . ____
72
65
73
6
40
31.75
49
12.7
74
0
49
-6.35
74
0
49
0
74
0
49
-6.35
74
0
49
0
74
0
49
-6.35
74
0
0
LTYPE
5
3C
330
5
100
AcDbSymbolTableRecord
100
AcDbLinetypeTableRecord
2
DIVIDE2
70
0
3
Divide (.5x) __..__..__..__..__..__..__..__.._
72
65
73
6
40
15.875
49
6.35
74
0
49
-3.175
74
0
49
0
74
0
49
-3.175
74
0
49
0
74
0
49
-3.175
74
0
0
LTYPE
5
3D
330
5
100
AcDbSymbolTableRecord
100
AcDbLinetypeTableRecord
2
DIVIDEX2
70
0
3
Divide (2x) ________  .  .  ________  .  .  _
72
65
73
6
40
63.5
49
25.4
74
0
49
-12.7
74
0
49
0
74
0
49
-12.7
74
0
49
0
74
0
49
-12.7
74
0
0
LTYPE
5
3E
330
5
100
AcDbSymbolTableRecord
100
AcDbLinetypeTableRecord
2
BORDER
70
0
3
Border __ __ . __ __ . __ __ . __ __ . __ __ .
72
65
73
6
40
44.45
49
12.7
74
0
49
-6.35
74
0
49
12.7
74
0
49
-6.35
74
0
49
0
74
0
49
-6.35
74
0
0
LTYPE
5
3F
330
5
100
AcDbSymbolTableRecord
100
AcDbLinetypeTableRecord
2
BORDER2
70
0
3
Border (.5x) __.__.__.__.__.__.__.__.__.__.__.
72
65
73
6
40
22.225
49
6.35
74
0
49
-3.175
74
0
49
6.35
74
0
49
-3.175
74
0
49
0
74
0
49
-3.175
74
0
0
LTYPE
5
40
330
5
100
AcDbSymbolTableRecord
100
AcDbLinetypeTableRecord
2
BORDERX2
70
0
3
Border (2x) ____  ____  .  ____  ____  .  ___
72
65
73
6
40
88.9
49
25.4
74
0
49
-12.7
74
0
49
25.4
74
0
49
-12.7
74
0
49
0
74
0
49
-12.7
74
0
0
LTYPE
5
41
330
5
100
AcDbSymbolTableRecord
100
AcDbLinetypeTableRecord
2
CENTER
70
0
3
Center ____ _ ____ _ ____ _ ____ _ ____ _ ____
72
65
73
4
40
50.8
49
31.75
74
0
49
-6.35
74
0
49
6.35
74
0
49
-6.35
74
0
0
LTYPE
5
42
330
5
100
AcDbSymbolTableRecord
100
AcDbLinetypeTableRecord
2
CENTER2
70
0
3
Center (.5x) ___ _ ___ _ ___ _ ___ _ ___ _ ___
72
65
73
4
40
28.575
49
19.05
74
0
49
-3.175
74
0
49
3.175
74
0
49
-3.175
74
0
0
LTYPE
5
43
330
5
100
AcDbSymbolTableRecord
100
AcDbLinetypeTableRecord
2
CENTERX2
70
0
3
Center (2x) ________  __  ________  __  _____
72
65
73
4
40
101.6
49
63.5
74
0
49
-12.7
74
0
49
12.7
74
0
49
-12.7
74
0
0
ENDTAB
0
TABLE
2
LAYER
5
2
330
0
100
AcDbSymbolTable
70
1
0
LAYER
5
10
330
2
100
AcDbSymbolTableRecord
100
AcDbLayerTableRecord
2
0
70
0
62
7
6
CONTINUOUS
370
0
390
F
0
LAYER
5
44
330
2
100
AcDbSymbolTableRecord
100
AcDbLayerTableRecord
2
bogus
70
0
62
2
6
CONTINUOUS
370
0
390
F
0
LAYER
5
45
330
2
100
AcDbSymbolTableRecord
100
AcDbLayerTableRecord
2
cabinates
70
0
62
253
6
CONTINUOUS
370
0
390
F
0
LAYER
5
46
330
2
100
AcDbSymbolTableRecord
100
AcDbLayerTableRecord
2
container
70
0
62
7
6
CONTINUOUS
370
0
390
F
0
LAYER
5
47
330
2
100
AcDbSymbolTableRecord
100
AcDbLayerTableRecord
2
dimension
70
0
62
5
6
CONTINUOUS
370
0
390
F
0
LAYER
5
48
330
2
100
AcDbSymbolTableRecord
100
AcDbLayerTableRecord
2
doors
70
0
62
6
6
CONTINUOUS
370
-3
390
F
0
LAYER
5
49
330
2
100
AcDbSymbolTableRecord
100
AcDbLayerTableRecord
2
eletrical
70
0
62
136
6
CONTINUOUS
370
-3
390
F
0
LAYER
5
4A
330
2
100
AcDbSymbolTableRecord
100
AcDbLayerTableRecord
2
fixtures
70
0
62
96
6
CONTINUOUS
370
-3
390
F
0
LAYER
5
4B
330
2
100
AcDbSymbolTableRecord
100
AcDbLayerTableRecord
2
tatami
70
0
62
30
6
DOT2
370
0
390
F
0
LAYER
5
4C
330
2
100
AcDbSymbolTableRecord
100
AcDbLayerTableRecord
2
text
70
0
62
8
6
CONTINUOUS
370
-3
390
F
0
ENDTAB
0
TABLE
2
STYLE
5
3
330
0
100
AcDbSymbolTable
70
3
0
STYLE
5
4D
330
2
100
AcDbSymbolTableRecord
100
AcDbTextStyleTableRecord
2
STANDARD
70
0
40
0
41
1
50
0
71
0
42
1
3
STANDARD
4

0
STYLE
5
4E
330
2
100
AcDbSymbolTableRecord
100
AcDbTextStyleTableRecord
2
iso
70
0
40
0
41
1
50
0
71
0
42
1
3
iso
4

0
ENDTAB
0
TABLE
2
VIEW
5
6
330
0
100
AcDbSymbolTable
70
0
0
ENDTAB
0
TABLE
2
UCS
5
7
330
0
100
AcDbSymbolTable
70
0
0
ENDTAB
0
TABLE
2
APPID
5
9
330
0
100
AcDbSymbolTable
70
1
0
APPID
5
12
330
9
100
AcDbSymbolTableRecord
100
AcDbRegAppTableRecord
2
ACAD
70
0
0
ENDTAB
0
TABLE
2
DIMSTYLE
5
A
330
0
100
AcDbSymbolTable
70
1
100
AcDbDimStyleTable
71
1
0
DIMSTYLE
105
4F
330
A
100
AcDbSymbolTableRecord
100
AcDbDimStyleTableRecord
2
Standard
70
0
40
1
41
30
42
10
43
0.38
44
50
45
0
46
0
47
0
48
0
140
100
141
0.09
142
0
143
25.4
144
1
145
0
146
1
147
50
148
0
71
0
72
0
73
0
74
1
75
0
76
0
77
0
78
0
79
0
170
0
171
2
172
0
173
0
174
0
175
0
176
0
177
0
178
0
179
0
271
4
272
4
273
2
274
2
275
0
276
0
277
2
278
46
279
0
280
0
281
0
282
0
283
1
284
0
285
0
286
0
288
0
289
3
340
Standard
341

371
-2
372
-2
0
ENDTAB
0
TABLE
2
BLOCK_RECORD
5
1
330
0
100
AcDbSymbolTable
70
2
0
BLOCK_RECORD
5
1F
330
1
100
AcDbSymbolTableRecord
100
AcDbBlockTableRecord
2
*Model_Space
70
0
280
1
281
0
0
BLOCK_RECORD
5
1E
330
1
100
AcDbSymbolTableRecord
100
AcDbBlockTableRecord
2
*Paper_Space
70
0
280
1
281
0
0
BLOCK_RECORD
5
50
330
1
100
AcDbSymbolTableRecord
100
AcDbBlockTableRecord
2
*D2
70
0
280
1
281
0
0
BLOCK_RECORD
5
53
330
1
100
AcDbSymbolTableRecord
100
AcDbBlockTableRecord
2
*D5
70
0
280
1
281
0
0
BLOCK_RECORD
5
56
330
1
100
AcDbSymbolTableRecord
100
AcDbBlockTableRecord
2
*D1
70
0
280
1
281
0
0
BLOCK_RECORD
5
59
330
1
100
AcDbSymbolTableRecord
100
AcDbBlockTableRecord
2
*D4
70
0
280
1
281
0
0
BLOCK_RECORD
5
5C
330
1
100
AcDbSymbolTableRecord
100
AcDbBlockTableRecord
2
*D3
70
0
280
1
281
0
0
BLOCK_RECORD
5
5F
330
1
100
AcDbSymbolTableRecord
100
AcDbBlockTableRecord
2
outlet110HorUp-0
70
0
280
1
281
0
0
BLOCK_RECORD
5
62
330
1
100
AcDbSymbolTableRecord
100
AcDbBlockTableRecord
2
door700VerLeft-1
70
0
280
1
281
0
0
BLOCK_RECORD
5
65
330
1
100
AcDbSymbolTableRecord
100
AcDbBlockTableRecord
2
WCVerRight-2
70
0
280
1
281
0
0
BLOCK_RECORD
5
68
330
1
100
AcDbSymbolTableRecord
100
AcDbBlockTableRecord
2
tub_ver-0
70
0
280
1
281
0
0
BLOCK_RECORD
5
6B
330
1
100
AcDbSymbolTableRecord
100
AcDbBlockTableRecord
2
door800VerLeft-0
70
0
280
1
281
0
0
BLOCK_RECORD
5
6E
330
1
100
AcDbSymbolTableRecord
100
AcDbBlockTableRecord
2
KyotoKyomaTatamiVertical-0
70
0
280
1
281
0
0
BLOCK_RECORD
5
71
330
1
100
AcDbSymbolTableRecord
100
AcDbBlockTableRecord
2
KyotoKyomaTatamiVertical-1
70
0
280
1
281
0
0
BLOCK_RECORD
5
74
330
1
100
AcDbSymbolTableRecord
100
AcDbBlockTableRecord
2
KyotoKyomaTatamiVertical-2
70
0
280
1
281
0
0
BLOCK_RECORD
5
77
330
1
100
AcDbSymbolTableRecord
100
AcDbBlockTableRecord
2
KyotoKyomaTatamiVertical-3
70
0
280
1
281
0
0
BLOCK_RECORD
5
7A
330
1
100
AcDbSymbolTableRecord
100
AcDbBlockTableRecord
2
KyotoKyomaTatamiVertical-4
70
0
280
1
281
0
0
BLOCK_RECORD
5
7D
330
1
100
AcDbSymbolTableRecord
100
AcDbBlockTableRecord
2
KyotoKyomaTatamiVertical-5
70
0
280
1
281
0
0
BLOCK_RECORD
5
80
330
1
100
AcDbSymbolTableRecord
100
AcDbBlockTableRecord
2
KyotoKyomaTatamiVertical-6
70
0
280
1
281
0
0
BLOCK_RECORD
5
83
330
1
100
AcDbSymbolTableRecord
100
AcDbBlockTableRecord
2
KyotoKyomaTatamiVertical-7
70
0
280
1
281
0
0
BLOCK_RECORD
5
86
330
1
100
AcDbSymbolTableRecord
100
AcDbBlockTableRecord
2
KyotoKyomaTatamiVertical-8
70
0
280
1
281
0
0
BLOCK_RECORD
5
89
330
1
100
AcDbSymbolTableRecord
100
AcDbBlockTableRecord
2
KyotoKyomaTatamiHalf-0
70
0
280
1
281
0
0
BLOCK_RECORD
5
8C
330
1
100
AcDbSymbolTableRecord
100
AcDbBlockTableRecord
2
KyotoKyomaTatamiHalf-1
70
0
280
1
281
0
0
BLOCK_RECORD
5
8F
330
1
100
AcDbSymbolTableRecord
100
AcDbBlockTableRecord
2
KyotoKyomaTatamiHalf-2
70
0
280
1
281
0
0
BLOCK_RECORD
5
92
330
1
100
AcDbSymbolTableRecord
100
AcDbBlockTableRecord
2
KyotoKyomaTatamiHalf-3
70
0
280
1
281
0
0
BLOCK_RECORD
5
95
330
1
100
AcDbSymbolTableRecord
100
AcDbBlockTableRecord
2
KyotoKyomaTatamiVertical-9
70
0
280
1
281
0
0
BLOCK_RECORD
5
98
330
1
100
AcDbSymbolTableRecord
100
AcDbBlockTableRecord
2
KyotoKyomaTatami-0
70
0
280
1
281
0
0
BLOCK_RECORD
5
9B
330
1
100
AcDbSymbolTableRecord
100
AcDbBlockTableRecord
2
KyotoKyomaTatami-1
70
0
280
1
281
0
0
BLOCK_RECORD
5
9E
330
1
100
AcDbSymbolTableRecord
100
AcDbBlockTableRecord
2
washer_Hor-0
70
0
280
1
281
0
0
BLOCK_RECORD
5
A1
330
1
100
AcDbSymbolTableRecord
100
AcDbBlockTableRecord
2
washer_Hor-1
70
0
280
1
281
0
0
BLOCK_RECORD
5
A4
330
1
100
AcDbSymbolTableRecord
100
AcDbBlockTableRecord
2
refridge500_600_verRight-0
70
0
280
1
281
0
0
BLOCK_RECORD
5
A7
330
1
100
AcDbSymbolTableRecord
100
AcDbBlockTableRecord
2
Standard40ft12m_withIntwall-0
70
0
280
1
281
0
0
BLOCK_RECORD
5
AA
330
1
100
AcDbSymbolTableRecord
100
AcDbBlockTableRecord
2
jtub
70
0
280
1
281
0
0
ENDTAB
0
ENDSEC
0
SECTION
2
BLOCKS
0
BLOCK
5
20
330
1F
100
AcDbEntity
8
0
100
AcDbBlockBegin
2
*Model_Space
70
0
10
0
20
0
30
0
3
*Model_Space
1

0
ENDBLK
5
21
330
1F
100
AcDbEntity
8
0
100
AcDbBlockEnd
0
BLOCK
5
1C
330
1B
100
AcDbEntity
8
0
100
AcDbBlockBegin
2
*Paper_Space
70
0
10
0
20
0
30
0
3
*Paper_Space
1

0
ENDBLK
5
1D
330
1F
100
AcDbEntity
8
0
100
AcDbBlockEnd
0
BLOCK
5
51
330
50
100
AcDbEntity
8
0
100
AcDbBlockBegin
2
*D2
70
1
10
0
20
0
3
*D2
1

0
LINE
5
AD
100
AcDbEntity
8
dimension
6
CONTINUOUS
62
7
370
0
100
AcDbLine
10
11777.3162821
20
3981.27397379
11
11012.3162821
21
3981.27397379
0
SOLID
5
AE
100
AcDbEntity
8
dimension
6
CONTINUOUS
62
7
370
0
100
AcDbTrace
10
11777.3162821
20
3981.27397379
30
0
11
11747.3162821
21
3976.2785579
31
0
12
11747.3162821
22
3986.26938968
32
0
13
11747.3162821
23
3986.26938968
33
0
0
SOLID
5
AF
100
AcDbEntity
8
dimension
6
CONTINUOUS
62
7
370
0
100
AcDbTrace
10
11012.3162821
20
3981.27397379
30
0
11
11042.3162821
21
3986.26938968
31
0
12
11042.3162821
22
3976.2785579
32
0
13
11042.3162821
23
3976.2785579
33
0
0
MTEXT
5
B0
100
AcDbEntity
8
dimension
6
CONTINUOUS
62
7
370
0
100
AcDbMText
10
11394.8162821
20
4081.27397379
30
0
40
100
41
200
71
5
72
1
1
765
7
standard
210
0
220
0
230
1
50
360
73
2
44
1
0
LINE
5
B1
100
AcDbEntity
8
dimension
6
CONTINUOUS
62
7
370
0
100
AcDbLine
10
11777.3162821
20
3313.93996177
11
11777.3162821
21
4031.27397379
0
LINE
5
B2
100
AcDbEntity
8
dimension
6
CONTINUOUS
62
7
370
0
100
AcDbLine
10
11012.3162821
20
3313.93996177
11
11012.3162821
21
4031.27397379
0
ENDBLK
5
52
330
50
100
AcDbEntity
8
0
100
AcDbBlockEnd
0
BLOCK
5
54
330
53
100
AcDbEntity
8
0
100
AcDbBlockBegin
2
*D5
70
1
10
0
20
0
3
*D5
1

0
LINE
5
B3
100
AcDbEntity
8
dimension
6
CONTINUOUS
62
7
370
0
100
AcDbLine
10
871.31628207
20
3981.83779404
11
2871.31628207
21
3981.83779404
0
SOLID
5
B4
100
AcDbEntity
8
dimension
6
CONTINUOUS
62
7
370
0
100
AcDbTrace
10
871.31628207
20
3981.83779404
30
0
11
901.31628207
21
3986.83320993
31
0
12
901.31628207
22
3976.84237814
32
0
13
901.31628207
23
3976.84237814
33
0
0
SOLID
5
B5
100
AcDbEntity
8
dimension
6
CONTINUOUS
62
7
370
0
100
AcDbTrace
10
2871.31628207
20
3981.83779404
30
0
11
2841.31628207
21
3976.84237814
31
0
12
2841.31628207
22
3986.83320993
32
0
13
2841.31628207
23
3986.83320993
33
0
0
MTEXT
5
B6
100
AcDbEntity
8
dimension
6
CONTINUOUS
62
7
370
0
100
AcDbMText
10
1871.31628207
20
4081.83779404
30
0
40
100
41
277.777777778
71
5
72
1
1
2000
7
standard
210
0
220
0
230
1
50
0
73
2
44
1
0
LINE
5
B7
100
AcDbEntity
8
dimension
6
CONTINUOUS
62
7
370
0
100
AcDbLine
10
871.31628207
20
3313.93996177
11
871.31628207
21
4031.83779404
0
LINE
5
B8
100
AcDbEntity
8
dimension
6
CONTINUOUS
62
7
370
0
100
AcDbLine
10
2871.31628207
20
3313.93996177
11
2871.31628207
21
4031.83779404
0
ENDBLK
5
55
330
53
100
AcDbEntity
8
0
100
AcDbBlockEnd
0
BLOCK
5
57
330
56
100
AcDbEntity
8
0
100
AcDbBlockBegin
2
*D1
70
1
10
0
20
0
3
*D1
1

0
LINE
5
B9
100
AcDbEntity
8
dimension
6
CONTINUOUS
62
7
370
0
100
AcDbLine
10
-422.683717927
20
4661.73259271
11
11777.3162821
21
4661.73259271
0
SOLID
5
BA
100
AcDbEntity
8
dimension
6
CONTINUOUS
62
7
370
0
100
AcDbTrace
10
-422.683717927
20
4661.73259271
30
0
11
-392.683717927
21
4666.7280086
31
0
12
-392.683717927
22
4656.73717682
32
0
13
-392.683717927
23
4656.73717682
33
0
0
SOLID
5
BB
100
AcDbEntity
8
dimension
6
CONTINUOUS
62
7
370
0
100
AcDbTrace
10
11777.3162821
20
4661.73259271
30
0
11
11747.3162821
21
4656.73717682
31
0
12
11747.3162821
22
4666.7280086
32
0
13
11747.3162821
23
4666.7280086
33
0
0
MTEXT
5
BC
100
AcDbEntity
8
dimension
6
CONTINUOUS
62
7
370
0
100
AcDbMText
10
5677.31628207
20
4761.73259271
30
0
40
100
41
333.333333333
71
5
72
1
1
12200
7
standard
210
0
220
0
230
1
50
0
73
2
44
1
0
LINE
5
BD
100
AcDbEntity
8
dimension
6
CONTINUOUS
62
7
370
0
100
AcDbLine
10
-422.683717927
20
3313.93996177
11
-422.683717927
21
4711.73259271
0
LINE
5
BE
100
AcDbEntity
8
dimension
6
CONTINUOUS
62
7
370
0
100
AcDbLine
10
11777.3162821
20
3313.93996177
11
11777.3162821
21
4711.73259271
0
ENDBLK
5
58
330
56
100
AcDbEntity
8
0
100
AcDbBlockEnd
0
BLOCK
5
5A
330
59
100
AcDbEntity
8
0
100
AcDbBlockBegin
2
*D4
70
1
10
0
20
0
3
*D4
1

0
LINE
5
BF
100
AcDbEntity
8
dimension
6
CONTINUOUS
62
7
370
0
100
AcDbLine
10
-422.683717927
20
3981.2739738
11
871.31628207
21
3981.2739738
0
SOLID
5
C0
100
AcDbEntity
8
dimension
6
CONTINUOUS
62
7
370
0
100
AcDbTrace
10
-422.683717927
20
3981.2739738
30
0
11
-392.683717927
21
3986.26938969
31
0
12
-392.683717927
22
3976.2785579
32
0
13
-392.683717927
23
3976.2785579
33
0
0
SOLID
5
C1
100
AcDbEntity
8
dimension
6
CONTINUOUS
62
7
370
0
100
AcDbTrace
10
871.31628207
20
3981.2739738
30
0
11
841.31628207
21
3976.2785579
31
0
12
841.31628207
22
3986.26938969
32
0
13
841.31628207
23
3986.26938969
33
0
0
MTEXT
5
C2
100
AcDbEntity
8
dimension
6
CONTINUOUS
62
7
370
0
100
AcDbMText
10
224.316282072
20
4081.2739738
30
0
40
100
41
266.666666667
71
5
72
1
1
1294
7
standard
210
0
220
0
230
1
50
0
73
2
44
1
0
LINE
5
C3
100
AcDbEntity
8
dimension
6
CONTINUOUS
62
7
370
0
100
AcDbLine
10
-422.683717927
20
3313.93996177
11
-422.683717927
21
4031.2739738
0
LINE
5
C4
100
AcDbEntity
8
dimension
6
CONTINUOUS
62
7
370
0
100
AcDbLine
10
871.31628207
20
3313.93996177
11
871.31628207
21
4031.2739738
0
ENDBLK
5
5B
330
59
100
AcDbEntity
8
0
100
AcDbBlockEnd
0
BLOCK
5
5D
330
5C
100
AcDbEntity
8
0
100
AcDbBlockBegin
2
*D3
70
1
10
0
20
0
3
*D3
1

0
LINE
5
C5
100
AcDbEntity
8
dimension
6
CONTINUOUS
62
7
370
0
100
AcDbLine
10
11012.3162821
20
3981.38149683
11
8062.3162821
21
3981.38149683
0
SOLID
5
C6
100
AcDbEntity
8
dimension
6
CONTINUOUS
62
7
370
0
100
AcDbTrace
10
11012.3162821
20
3981.38149683
30
0
11
10982.3162821
21
3976.38608093
31
0
12
10982.3162821
22
3986.37691272
32
0
13
10982.3162821
23
3986.37691272
33
0
0
SOLID
5
C7
100
AcDbEntity
8
dimension
6
CONTINUOUS
62
7
370
0
100
AcDbTrace
10
8062.3162821
20
3981.38149683
30
0
11
8092.3162821
21
3986.37691272
31
0
12
8092.3162821
22
3976.38608093
32
0
13
8092.3162821
23
3976.38608093
33
0
0
MTEXT
5
C8
100
AcDbEntity
8
dimension
6
CONTINUOUS
62
7
370
0
100
AcDbMText
10
9537.3162821
20
4081.38149683
30
0
40
100
41
277.777777778
71
5
72
1
1
2950
7
standard
210
0
220
0
230
1
50
360
73
2
44
1
0
LINE
5
C9
100
AcDbEntity
8
dimension
6
CONTINUOUS
62
7
370
0
100
AcDbLine
10
11012.3162821
20
3313.93996177
11
11012.3162821
21
4031.38149683
0
LINE
5
CA
100
AcDbEntity
8
dimension
6
CONTINUOUS
62
7
370
0
100
AcDbLine
10
8062.3162821
20
3313.93996177
11
8062.3162821
21
4031.38149683
0
ENDBLK
5
5E
330
5C
100
AcDbEntity
8
0
100
AcDbBlockEnd
0
BLOCK
5
60
330
5F
100
AcDbEntity
8
0
100
AcDbBlockBegin
2
outlet110HorUp-0
70
0
10
0
20
0
3
outlet110HorUp-0
1

0
CIRCLE
5
CB
100
AcDbEntity
8
0
6
ByLayer
62
256
370
-1
100
AcDbCircle
10
19.2383306793
20
93.1569229908
40
50
0
LINE
5
CC
100
AcDbEntity
8
0
6
ByLayer
62
256
370
-1
100
AcDbLine
10
36.2896076697
20
0
11
36.2896076697
21
161.186024643
0
LINE
5
CD
100
AcDbEntity
8
0
6
ByLayer
62
256
370
-1
100
AcDbLine
10
0
20
0
11
0
21
161.186024643
0
ENDBLK
5
61
330
5F
100
AcDbEntity
8
0
100
AcDbBlockEnd
0
BLOCK
5
63
330
62
100
AcDbEntity
8
0
100
AcDbBlockBegin
2
door700VerLeft-1
70
0
10
0
20
0
3
door700VerLeft-1
1

0
LINE
5
CE
100
AcDbEntity
8
0
6
ByLayer
62
256
370
-1
100
AcDbLine
10
0
20
0
11
-614.878036687
21
-355
0
ARC
5
CF
100
AcDbEntity
8
0
6
ByLayer
62
256
370
-1
100
AcDbCircle
10
0
20
0
40
710
100
AcDbArc
50
210
51
270
0
LINE
5
D0
100
AcDbEntity
8
0
6
ByLayer
62
256
370
-1
100
AcDbLine
10
25
20
-43.3012701892
11
-589.878036687
21
-398.301270189
0
LINE
5
D1
100
AcDbEntity
8
0
6
ByLayer
62
256
370
-1
100
AcDbLine
10
0
20
0
11
25
21
-43.3012701892
0
ENDBLK
5
64
330
62
100
AcDbEntity
8
0
100
AcDbBlockEnd
0
BLOCK
5
66
330
65
100
AcDbEntity
8
0
100
AcDbBlockBegin
2
WCVerRight-2
70
0
10
0
20
0
3
WCVerRight-2
1

0
LINE
5
D2
100
AcDbEntity
8
0
6
ByLayer
62
256
370
-1
100
AcDbLine
10
0
20
0
11
200
21
0
0
LINE
5
D3
100
AcDbEntity
8
0
6
ByLayer
62
256
370
-1
100
AcDbLine
10
0
20
0
11
0
21
470
0
LINE
5
D4
100
AcDbEntity
8
0
6
ByLayer
62
256
370
-1
100
AcDbLine
10
200
20
0
11
200
21
470
0
LINE
5
D5
100
AcDbEntity
8
0
6
ByLayer
62
256
370
-1
100
AcDbLine
10
0
20
470
11
200
21
470
0
ELLIPSE
5
D6
100
AcDbEntity
8
0
6
ByLayer
62
256
370
-1
100
AcDbEllipse
10
483.839834606
20
228.898383818
30
0
11
238.828093948
21
-6.63411372079
31
0
40
0.61565150347
41
0
42
6.28318530718
0
ENDBLK
5
67
330
65
100
AcDbEntity
8
0
100
AcDbBlockEnd
0
BLOCK
5
69
330
68
100
AcDbEntity
8
0
100
AcDbBlockBegin
2
tub_ver-0
70
0
10
0
20
0
3
tub_ver-0
1

0
ARC
5
D7
100
AcDbEntity
8
0
6
ByLayer
62
256
370
-1
100
AcDbCircle
10
50
20
0
40
50
100
AcDbArc
50
90
51
180
0
LINE
5
D8
100
AcDbEntity
8
0
6
ByLayer
62
256
370
-1
100
AcDbLine
10
50
20
50
11
530
21
50
0
ARC
5
D9
100
AcDbEntity
8
0
6
ByLayer
62
256
370
-1
100
AcDbCircle
10
530
20
0
40
50
100
AcDbArc
50
0
51
90
0
LINE
5
DA
100
AcDbEntity
8
0
6
ByLayer
62
256
370
-1
100
AcDbLine
10
580
20
-870
11
580
21
0
0
ARC
5
DB
100
AcDbEntity
8
0
6
ByLayer
62
256
370
-1
100
AcDbCircle
10
530
20
-870
40
50
100
AcDbArc
50
270
51
0
0
LINE
5
DC
100
AcDbEntity
8
0
6
ByLayer
62
256
370
-1
100
AcDbLine
10
50
20
-920
11
530
21
-920
0
LINE
5
DD
100
AcDbEntity
8
0
6
ByLayer
62
256
370
-1
100
AcDbLine
10
-2.84217094304e-13
20
-870
11
0
21
0
0
ARC
5
DE
100
AcDbEntity
8
0
6
ByLayer
62
256
370
-1
100
AcDbCircle
10
50
20
-870
40
50
100
AcDbArc
50
180
51
270
0
ENDBLK
5
6A
330
68
100
AcDbEntity
8
0
100
AcDbBlockEnd
0
BLOCK
5
6C
330
6B
100
AcDbEntity
8
0
100
AcDbBlockBegin
2
door800VerLeft-0
70
0
10
0
20
0
3
door800VerLeft-0
1

0
LINE
5
DF
100
AcDbEntity
8
0
6
ByLayer
62
256
370
-1
100
AcDbLine
10
0
20
0
11
-514.230087749
21
-612.835554495
0
ARC
5
E0
100
AcDbEntity
8
0
6
ByLayer
62
256
370
-1
100
AcDbCircle
10
0
20
0
40
800
100
AcDbArc
50
230
51
270
0
LINE
5
E1
100
AcDbEntity
8
0
6
ByLayer
62
256
370
-1
100
AcDbLine
10
38.3022221559
20
-32.1393804843
11
-475.927865593
21
-644.97493498
0
LINE
5
E2
100
AcDbEntity
8
0
6
ByLayer
62
256
370
-1
100
AcDbLine
10
0
20
0
11
38.3022221559
21
-32.1393804843
0
ENDBLK
5
6D
330
6B
100
AcDbEntity
8
0
100
AcDbBlockEnd
0
BLOCK
5
6F
330
6E
100
AcDbEntity
8
0
100
AcDbBlockBegin
2
KyotoKyomaTatamiVertical-0
70
0
10
0
20
0
3
KyotoKyomaTatamiVertical-0
1

0
LINE
5
E3
100
AcDbEntity
8
0
6
ByLayer
62
256
370
-1
100
AcDbLine
10
0
20
0
11
-955
21
0
0
LINE
5
E4
100
AcDbEntity
8
0
6
ByLayer
62
256
370
-1
100
AcDbLine
10
0
20
1910
11
-955
21
1910
0
LINE
5
E5
100
AcDbEntity
8
0
6
ByLayer
62
256
370
-1
100
AcDbLine
10
-955
20
0
11
-955
21
1910
0
LINE
5
E6
100
AcDbEntity
8
0
6
ByLayer
62
256
370
-1
100
AcDbLine
10
0
20
0
11
0
21
1910
0
LINE
5
E7
100
AcDbEntity
8
0
6
ByLayer
62
256
370
-1
100
AcDbLine
10
-930
20
0
11
-930
21
1910
0
LINE
5
E8
100
AcDbEntity
8
0
6
ByLayer
62
256
370
-1
100
AcDbLine
10
0
20
1885
11
-955
21
1885
0
LINE
5
E9
100
AcDbEntity
8
0
6
ByLayer
62
256
370
-1
100
AcDbLine
10
0
20
25
11
-955
21
25
0
LINE
5
EA
100
AcDbEntity
8
0
6
ByLayer
62
256
370
-1
100
AcDbLine
10
-25
20
0
11
-25
21
1910
0
LINE
5
EB
100
AcDbEntity
8
0
6
ByLayer
62
256
370
-1
100
AcDbLine
10
0
20
955
11
-25
21
955
0
LINE
5
EC
100
AcDbEntity
8
0
6
ByLayer
62
256
370
-1
100
AcDbLine
10
-930
20
955
11
-955
21
955
0
ENDBLK
5
70
330
6E
100
AcDbEntity
8
0
100
AcDbBlockEnd
0
BLOCK
5
72
330
71
100
AcDbEntity
8
0
100
AcDbBlockBegin
2
KyotoKyomaTatamiVertical-1
70
0
10
0
20
0
3
KyotoKyomaTatamiVertical-1
1

0
LINE
5
ED
100
AcDbEntity
8
0
6
ByLayer
62
256
370
-1
100
AcDbLine
10
0
20
0
11
-955
21
0
0
LINE
5
EE
100
AcDbEntity
8
0
6
ByLayer
62
256
370
-1
100
AcDbLine
10
0
20
1910
11
-955
21
1910
0
LINE
5
EF
100
AcDbEntity
8
0
6
ByLayer
62
256
370
-1
100
AcDbLine
10
-955
20
0
11
-955
21
1910
0
LINE
5
F0
100
AcDbEntity
8
0
6
ByLayer
62
256
370
-1
100
AcDbLine
10
0
20
0
11
0
21
1910
0
LINE
5
F1
100
AcDbEntity
8
0
6
ByLayer
62
256
370
-1
100
AcDbLine
10
-930
20
0
11
-930
21
1910
0
LINE
5
F2
100
AcDbEntity
8
0
6
ByLayer
62
256
370
-1
100
AcDbLine
10
0
20
1885
11
-955
21
1885
0
LINE
5
F3
100
AcDbEntity
8
0
6
ByLayer
62
256
370
-1
100
AcDbLine
10
0
20
25
11
-955
21
25
0
LINE
5
F4
100
AcDbEntity
8
0
6
ByLayer
62
256
370
-1
100
AcDbLine
10
-25
20
0
11
-25
21
1910
0
LINE
5
F5
100
AcDbEntity
8
0
6
ByLayer
62
256
370
-1
100
AcDbLine
10
0
20
955
11
-25
21
955
0
LINE
5
F6
100
AcDbEntity
8
0
6
ByLayer
62
256
370
-1
100
AcDbLine
10
-930
20
955
11
-955
21
955
0
ENDBLK
5
73
330
71
100
AcDbEntity
8
0
100
AcDbBlockEnd
0
BLOCK
5
75
330
74
100
AcDbEntity
8
0
100
AcDbBlockBegin
2
KyotoKyomaTatamiVertical-2
70
0
10
0
20
0
3
KyotoKyomaTatamiVertical-2
1

0
LINE
5
F7
100
AcDbEntity
8
0
6
ByLayer
62
256
370
-1
100
AcDbLine
10
0
20
0
11
-955
21
0
0
LINE
5
F8
100
AcDbEntity
8
0
6
ByLayer
62
256
370
-1
100
AcDbLine
10
0
20
1910
11
-955
21
1910
0
LINE
5
F9
100
AcDbEntity
8
0
6
ByLayer
62
256
370
-1
100
AcDbLine
10
-955
20
0
11
-955
21
1910
0
LINE
5
FA
100
AcDbEntity
8
0
6
ByLayer
62
256
370
-1
100
AcDbLine
10
0
20
0
11
0
21
1910
0
LINE
5
FB
100
AcDbEntity
8
0
6
ByLayer
62
256
370
-1
100
AcDbLine
10
-930
20
0
11
-930
21
1910
0
LINE
5
FC
100
AcDbEntity
8
0
6
ByLayer
62
256
370
-1
100
AcDbLine
10
0
20
1885
11
-955
21
1885
0
LINE
5
FD
100
AcDbEntity
8
0
6
ByLayer
62
256
370
-1
100
AcDbLine
10
0
20
25
11
-955
21
25
0
LINE
5
FE
100
AcDbEntity
8
0
6
ByLayer
62
256
370
-1
100
AcDbLine
10
-25
20
0
11
-25
21
1910
0
LINE
5
FF
100
AcDbEntity
8
0
6
ByLayer
62
256
370
-1
100
AcDbLine
10
0
20
955
11
-25
21
955
0
LINE
5
100
100
AcDbEntity
8
0
6
ByLayer
62
256
370
-1
100
AcDbLine
10
-930
20
955
11
-955
21
955
0
ENDBLK
5
76
330
74
100
AcDbEntity
8
0
100
AcDbBlockEnd
0
BLOCK
5
78
330
77
100
AcDbEntity
8
0
100
AcDbBlockBegin
2
KyotoKyomaTatamiVertical-3
70
0
10
0
20
0
3
KyotoKyomaTatamiVertical-3
1

0
LINE
5
101
100
AcDbEntity
8
0
6
ByLayer
62
256
370
-1
100
AcDbLine
10
0
20
0
11
-955
21
0
0
LINE
5
102
100
AcDbEntity
8
0
6
ByLayer
62
256
370
-1
100
AcDbLine
10
0
20
1910
11
-955
21
1910
0
LINE
5
103
100
AcDbEntity
8
0
6
ByLayer
62
256
370
-1
100
AcDbLine
10
-955
20
0
11
-955
21
1910
0
LINE
5
104
100
AcDbEntity
8
0
6
ByLayer
62
256
370
-1
100
AcDbLine
10
0
20
0
11
0
21
1910
0
LINE
5
105
100
AcDbEntity
8
0
6
ByLayer
62
256
370
-1
100
AcDbLine
10
-930
20
0
11
-930
21
1910
0
LINE
5
106
100
AcDbEntity
8
0
6
ByLayer
62
256
370
-1
100
AcDbLine
10
0
20
1885
11
-955
21
1885
0
LINE
5
107
100
AcDbEntity
8
0
6
ByLayer
62
256
370
-1
100
AcDbLine
10
0
20
25
11
-955
21
25
0
LINE
5
108
100
AcDbEntity
8
0
6
ByLayer
62
256
370
-1
100
AcDbLine
10
-25
20
0
11
-25
21
1910
0
LINE
5
109
100
AcDbEntity
8
0
6
ByLayer
62
256
370
-1
100
AcDbLine
10
0
20
955
11
-25
21
955
0
LINE
5
10A
100
AcDbEntity
8
0
6
ByLayer
62
256
370
-1
100
AcDbLine
10
-930
20
955
11
-955
21
955
0
ENDBLK
5
79
330
77
100
AcDbEntity
8
0
100
AcDbBlockEnd
0
BLOCK
5
7B
330
7A
100
AcDbEntity
8
0
100
AcDbBlockBegin
2
KyotoKyomaTatamiVertical-4
70
0
10
0
20
0
3
KyotoKyomaTatamiVertical-4
1

0
LINE
5
10B
100
AcDbEntity
8
0
6
ByLayer
62
256
370
-1
100
AcDbLine
10
0
20
0
11
-955
21
0
0
LINE
5
10C
100
AcDbEntity
8
0
6
ByLayer
62
256
370
-1
100
AcDbLine
10
0
20
1910
11
-955
21
1910
0
LINE
5
10D
100
AcDbEntity
8
0
6
ByLayer
62
256
370
-1
100
AcDbLine
10
-955
20
0
11
-955
21
1910
0
LINE
5
10E
100
AcDbEntity
8
0
6
ByLayer
62
256
370
-1
100
AcDbLine
10
0
20
0
11
0
21
1910
0
LINE
5
10F
100
AcDbEntity
8
0
6
ByLayer
62
256
370
-1
100
AcDbLine
10
-930
20
0
11
-930
21
1910
0
LINE
5
110
100
AcDbEntity
8
0
6
ByLayer
62
256
370
-1
100
AcDbLine
10
0
20
1885
11
-955
21
1885
0
LINE
5
111
100
AcDbEntity
8
0
6
ByLayer
62
256
370
-1
100
AcDbLine
10
0
20
25
11
-955
21
25
0
LINE
5
112
100
AcDbEntity
8
0
6
ByLayer
62
256
370
-1
100
AcDbLine
10
-25
20
0
11
-25
21
1910
0
LINE
5
113
100
AcDbEntity
8
0
6
ByLayer
62
256
370
-1
100
AcDbLine
10
0
20
955
11
-25
21
955
0
LINE
5
114
100
AcDbEntity
8
0
6
ByLayer
62
256
370
-1
100
AcDbLine
10
-930
20
955
11
-955
21
955
0
ENDBLK
5
7C
330
7A
100
AcDbEntity
8
0
100
AcDbBlockEnd
0
BLOCK
5
7E
330
7D
100
AcDbEntity
8
0
100
AcDbBlockBegin
2
KyotoKyomaTatamiVertical-5
70
0
10
0
20
0
3
KyotoKyomaTatamiVertical-5
1

0
LINE
5
115
100
AcDbEntity
8
0
6
ByLayer
62
256
370
-1
100
AcDbLine
10
0
20
0
11
-955
21
0
0
LINE
5
116
100
AcDbEntity
8
0
6
ByLayer
62
256
370
-1
100
AcDbLine
10
0
20
1910
11
-955
21
1910
0
LINE
5
117
100
AcDbEntity
8
0
6
ByLayer
62
256
370
-1
100
AcDbLine
10
-955
20
0
11
-955
21
1910
0
LINE
5
118
100
AcDbEntity
8
0
6
ByLayer
62
256
370
-1
100
AcDbLine
10
0
20
0
11
0
21
1910
0
LINE
5
119
100
AcDbEntity
8
0
6
ByLayer
62
256
370
-1
100
AcDbLine
10
-930
20
0
11
-930
21
1910
0
LINE
5
11A
100
AcDbEntity
8
0
6
ByLayer
62
256
370
-1
100
AcDbLine
10
0
20
1885
11
-955
21
1885
0
LINE
5
11B
100
AcDbEntity
8
0
6
ByLayer
62
256
370
-1
100
AcDbLine
10
0
20
25
11
-955
21
25
0
LINE
5
11C
100
AcDbEntity
8
0
6
ByLayer
62
256
370
-1
100
AcDbLine
10
-25
20
0
11
-25
21
1910
0
LINE
5
11D
100
AcDbEntity
8
0
6
ByLayer
62
256
370
-1
100
AcDbLine
10
0
20
955
11
-25
21
955
0
LINE
5
11E
100
AcDbEntity
8
0
6
ByLayer
62
256
370
-1
100
AcDbLine
10
-930
20
955
11
-955
21
955
0
ENDBLK
5
7F
330
7D
100
AcDbEntity
8
0
100
AcDbBlockEnd
0
BLOCK
5
81
330
80
100
AcDbEntity
8
0
100
AcDbBlockBegin
2
KyotoKyomaTatamiVertical-6
70
0
10
0
20
0
3
KyotoKyomaTatamiVertical-6
1

0
LINE
5
11F
100
AcDbEntity
8
0
6
ByLayer
62
256
370
-1
100
AcDbLine
10
0
20
0
11
-955
21
0
0
LINE
5
120
100
AcDbEntity
8
0
6
ByLayer
62
256
370
-1
100
AcDbLine
10
0
20
1910
11
-955
21
1910
0
LINE
5
121
100
AcDbEntity
8
0
6
ByLayer
62
256
370
-1
100
AcDbLine
10
-955
20
0
11
-955
21
1910
0
LINE
5
122
100
AcDbEntity
8
0
6
ByLayer
62
256
370
-1
100
AcDbLine
10
0
20
0
11
0
21
1910
0
LINE
5
123
100
AcDbEntity
8
0
6
ByLayer
62
256
370
-1
100
AcDbLine
10
-930
20
0
11
-930
21
1910
0
LINE
5
124
100
AcDbEntity
8
0
6
ByLayer
62
256
370
-1
100
AcDbLine
10
0
20
1885
11
-955
21
1885
0
LINE
5
125
100
AcDbEntity
8
0
6
ByLayer
62
256
370
-1
100
AcDbLine
10
0
20
25
11
-955
21
25
0
LINE
5
126
100
AcDbEntity
8
0
6
ByLayer
62
256
370
-1
100
AcDbLine
10
-25
20
0
11
-25
21
1910
0
LINE
5
127
100
AcDbEntity
8
0
6
ByLayer
62
256
370
-1
100
AcDbLine
10
0
20
955
11
-25
21
955
0
LINE
5
128
100
AcDbEntity
8
0
6
ByLayer
62
256
370
-1
100
AcDbLine
10
-930
20
955
11
-955
21
955
0
ENDBLK
5
82
330
80
100
AcDbEntity
8
0
100
AcDbBlockEnd
0
BLOCK
5
84
330
83
100
AcDbEntity
8
0
100
AcDbBlockBegin
2
KyotoKyomaTatamiVertical-7
70
0
10
0
20
0
3
KyotoKyomaTatamiVertical-7
1

0
LINE
5
129
100
AcDbEntity
8
0
6
ByLayer
62
256
370
-1
100
AcDbLine
10
0
20
0
11
-955
21
0
0
LINE
5
12A
100
AcDbEntity
8
0
6
ByLayer
62
256
370
-1
100
AcDbLine
10
0
20
1910
11
-955
21
1910
0
LINE
5
12B
100
AcDbEntity
8
0
6
ByLayer
62
256
370
-1
100
AcDbLine
10
-955
20
0
11
-955
21
1910
0
LINE
5
12C
100
AcDbEntity
8
0
6
ByLayer
62
256
370
-1
100
AcDbLine
10
0
20
0
11
0
21
1910
0
LINE
5
12D
100
AcDbEntity
8
0
6
ByLayer
62
256
370
-1
100
AcDbLine
10
-930
20
0
11
-930
21
1910
0
LINE
5
12E
100
AcDbEntity
8
0
6
ByLayer
62
256
370
-1
100
AcDbLine
10
0
20
1885
11
-955
21
1885
0
LINE
5
12F
100
AcDbEntity
8
0
6
ByLayer
62
256
370
-1
100
AcDbLine
10
0
20
25
11
-955
21
25
0
LINE
5
130
100
AcDbEntity
8
0
6
ByLayer
62
256
370
-1
100
AcDbLine
10
-25
20
0
11
-25
21
1910
0
LINE
5
131
100
AcDbEntity
8
0
6
ByLayer
62
256
370
-1
100
AcDbLine
10
0
20
955
11
-25
21
955
0
LINE
5
132
100
AcDbEntity
8
0
6
ByLayer
62
256
370
-1
100
AcDbLine
10
-930
20
955
11
-955
21
955
0
ENDBLK
5
85
330
83
100
AcDbEntity
8
0
100
AcDbBlockEnd
0
BLOCK
5
87
330
86
100
AcDbEntity
8
0
100
AcDbBlockBegin
2
KyotoKyomaTatamiVertical-8
70
0
10
0
20
0
3
KyotoKyomaTatamiVertical-8
1

0
LINE
5
133
100
AcDbEntity
8
0
6
ByLayer
62
256
370
-1
100
AcDbLine
10
0
20
0
11
-955
21
0
0
LINE
5
134
100
AcDbEntity
8
0
6
ByLayer
62
256
370
-1
100
AcDbLine
10
0
20
1910
11
-955
21
1910
0
LINE
5
135
100
AcDbEntity
8
0
6
ByLayer
62
256
370
-1
100
AcDbLine
10
-955
20
0
11
-955
21
1910
0
LINE
5
136
100
AcDbEntity
8
0
6
ByLayer
62
256
370
-1
100
AcDbLine
10
0
20
0
11
0
21
1910
0
LINE
5
137
100
AcDbEntity
8
0
6
ByLayer
62
256
370
-1
100
AcDbLine
10
-930
20
0
11
-930
21
1910
0
LINE
5
138
100
AcDbEntity
8
0
6
ByLayer
62
256
370
-1
100
AcDbLine
10
0
20
1885
11
-955
21
1885
0
LINE
5
139
100
AcDbEntity
8
0
6
ByLayer
62
256
370
-1
100
AcDbLine
10
0
20
25
11
-955
21
25
0
LINE
5
13A
100
AcDbEntity
8
0
6
ByLayer
62
256
370
-1
100
AcDbLine
10
-25
20
0
11
-25
21
1910
0
LINE
5
13B
100
AcDbEntity
8
0
6
ByLayer
62
256
370
-1
100
AcDbLine
10
0
20
955
11
-25
21
955
0
LINE
5
13C
100
AcDbEntity
8
0
6
ByLayer
62
256
370
-1
100
AcDbLine
10
-930
20
955
11
-955
21
955
0
ENDBLK
5
88
330
86
100
AcDbEntity
8
0
100
AcDbBlockEnd
0
BLOCK
5
8A
330
89
100
AcDbEntity
8
0
100
AcDbBlockBegin
2
KyotoKyomaTatamiHalf-0
70
0
10
0
20
0
3
KyotoKyomaTatamiHalf-0
1

0
LINE
5
13D
100
AcDbEntity
8
0
6
ByLayer
62
256
370
-1
100
AcDbLine
10
0
20
955
11
955
21
955
0
LINE
5
13E
100
AcDbEntity
8
0
6
ByLayer
62
256
370
-1
100
AcDbLine
10
0
20
0
11
955
21
0
0
LINE
5
13F
100
AcDbEntity
8
0
6
ByLayer
62
256
370
-1
100
AcDbLine
10
0
20
0
11
0
21
955
0
LINE
5
140
100
AcDbEntity
8
0
6
ByLayer
62
256
370
-1
100
AcDbLine
10
955
20
0
11
955
21
955
0
LINE
5
141
100
AcDbEntity
8
0
6
ByLayer
62
256
370
-1
100
AcDbLine
10
25
20
0
11
25
21
955
0
LINE
5
142
100
AcDbEntity
8
0
6
ByLayer
62
256
370
-1
100
AcDbLine
10
0
20
930
11
955
21
930
0
LINE
5
143
100
AcDbEntity
8
0
6
ByLayer
62
256
370
-1
100
AcDbLine
10
930
20
0
11
930
21
955
0
LINE
5
144
100
AcDbEntity
8
0
6
ByLayer
62
256
370
-1
100
AcDbLine
10
0
20
25
11
955
21
25
0
ENDBLK
5
8B
330
89
100
AcDbEntity
8
0
100
AcDbBlockEnd
0
BLOCK
5
8D
330
8C
100
AcDbEntity
8
0
100
AcDbBlockBegin
2
KyotoKyomaTatamiHalf-1
70
0
10
0
20
0
3
KyotoKyomaTatamiHalf-1
1

0
LINE
5
145
100
AcDbEntity
8
0
6
ByLayer
62
256
370
-1
100
AcDbLine
10
0
20
955
11
955
21
955
0
LINE
5
146
100
AcDbEntity
8
0
6
ByLayer
62
256
370
-1
100
AcDbLine
10
0
20
0
11
955
21
0
0
LINE
5
147
100
AcDbEntity
8
0
6
ByLayer
62
256
370
-1
100
AcDbLine
10
0
20
0
11
0
21
955
0
LINE
5
148
100
AcDbEntity
8
0
6
ByLayer
62
256
370
-1
100
AcDbLine
10
955
20
0
11
955
21
955
0
LINE
5
149
100
AcDbEntity
8
0
6
ByLayer
62
256
370
-1
100
AcDbLine
10
25
20
0
11
25
21
955
0
LINE
5
14A
100
AcDbEntity
8
0
6
ByLayer
62
256
370
-1
100
AcDbLine
10
0
20
930
11
955
21
930
0
LINE
5
14B
100
AcDbEntity
8
0
6
ByLayer
62
256
370
-1
100
AcDbLine
10
930
20
0
11
930
21
955
0
LINE
5
14C
100
AcDbEntity
8
0
6
ByLayer
62
256
370
-1
100
AcDbLine
10
0
20
25
11
955
21
25
0
ENDBLK
5
8E
330
8C
100
AcDbEntity
8
0
100
AcDbBlockEnd
0
BLOCK
5
90
330
8F
100
AcDbEntity
8
0
100
AcDbBlockBegin
2
KyotoKyomaTatamiHalf-2
70
0
10
0
20
0
3
KyotoKyomaTatamiHalf-2
1

0
LINE
5
14D
100
AcDbEntity
8
0
6
ByLayer
62
256
370
-1
100
AcDbLine
10
0
20
955
11
955
21
955
0
LINE
5
14E
100
AcDbEntity
8
0
6
ByLayer
62
256
370
-1
100
AcDbLine
10
0
20
0
11
955
21
0
0
LINE
5
14F
100
AcDbEntity
8
0
6
ByLayer
62
256
370
-1
100
AcDbLine
10
0
20
0
11
0
21
955
0
LINE
5
150
100
AcDbEntity
8
0
6
ByLayer
62
256
370
-1
100
AcDbLine
10
955
20
0
11
955
21
955
0
LINE
5
151
100
AcDbEntity
8
0
6
ByLayer
62
256
370
-1
100
AcDbLine
10
25
20
0
11
25
21
955
0
LINE
5
152
100
AcDbEntity
8
0
6
ByLayer
62
256
370
-1
100
AcDbLine
10
0
20
930
11
955
21
930
0
LINE
5
153
100
AcDbEntity
8
0
6
ByLayer
62
256
370
-1
100
AcDbLine
10
930
20
0
11
930
21
955
0
LINE
5
154
100
AcDbEntity
8
0
6
ByLayer
62
256
370
-1
100
AcDbLine
10
0
20
25
11
955
21
25
0
ENDBLK
5
91
330
8F
100
AcDbEntity
8
0
100
AcDbBlockEnd
0
BLOCK
5
93
330
92
100
AcDbEntity
8
0
100
AcDbBlockBegin
2
KyotoKyomaTatamiHalf-3
70
0
10
0
20
0
3
KyotoKyomaTatamiHalf-3
1

0
LINE
5
155
100
AcDbEntity
8
0
6
ByLayer
62
256
370
-1
100
AcDbLine
10
0
20
955
11
955
21
955
0
LINE
5
156
100
AcDbEntity
8
0
6
ByLayer
62
256
370
-1
100
AcDbLine
10
0
20
0
11
955
21
0
0
LINE
5
157
100
AcDbEntity
8
0
6
ByLayer
62
256
370
-1
100
AcDbLine
10
0
20
0
11
0
21
955
0
LINE
5
158
100
AcDbEntity
8
0
6
ByLayer
62
256
370
-1
100
AcDbLine
10
955
20
0
11
955
21
955
0
LINE
5
159
100
AcDbEntity
8
0
6
ByLayer
62
256
370
-1
100
AcDbLine
10
25
20
0
11
25
21
955
0
LINE
5
15A
100
AcDbEntity
8
0
6
ByLayer
62
256
370
-1
100
AcDbLine
10
0
20
930
11
955
21
930
0
LINE
5
15B
100
AcDbEntity
8
0
6
ByLayer
62
256
370
-1
100
AcDbLine
10
930
20
0
11
930
21
955
0
LINE
5
15C
100
AcDbEntity
8
0
6
ByLayer
62
256
370
-1
100
AcDbLine
10
0
20
25
11
955
21
25
0
ENDBLK
5
94
330
92
100
AcDbEntity
8
0
100
AcDbBlockEnd
0
BLOCK
5
96
330
95
100
AcDbEntity
8
0
100
AcDbBlockBegin
2
KyotoKyomaTatamiVertical-9
70
0
10
0
20
0
3
KyotoKyomaTatamiVertical-9
1

0
LINE
5
15D
100
AcDbEntity
8
0
6
ByLayer
62
256
370
-1
100
AcDbLine
10
0
20
0
11
-955
21
0
0
LINE
5
15E
100
AcDbEntity
8
0
6
ByLayer
62
256
370
-1
100
AcDbLine
10
0
20
1910
11
-955
21
1910
0
LINE
5
15F
100
AcDbEntity
8
0
6
ByLayer
62
256
370
-1
100
AcDbLine
10
-955
20
0
11
-955
21
1910
0
LINE
5
160
100
AcDbEntity
8
0
6
ByLayer
62
256
370
-1
100
AcDbLine
10
0
20
0
11
0
21
1910
0
LINE
5
161
100
AcDbEntity
8
0
6
ByLayer
62
256
370
-1
100
AcDbLine
10
-930
20
0
11
-930
21
1910
0
LINE
5
162
100
AcDbEntity
8
0
6
ByLayer
62
256
370
-1
100
AcDbLine
10
0
20
1885
11
-955
21
1885
0
LINE
5
163
100
AcDbEntity
8
0
6
ByLayer
62
256
370
-1
100
AcDbLine
10
0
20
25
11
-955
21
25
0
LINE
5
164
100
AcDbEntity
8
0
6
ByLayer
62
256
370
-1
100
AcDbLine
10
-25
20
0
11
-25
21
1910
0
LINE
5
165
100
AcDbEntity
8
0
6
ByLayer
62
256
370
-1
100
AcDbLine
10
0
20
955
11
-25
21
955
0
LINE
5
166
100
AcDbEntity
8
0
6
ByLayer
62
256
370
-1
100
AcDbLine
10
-930
20
955
11
-955
21
955
0
ENDBLK
5
97
330
95
100
AcDbEntity
8
0
100
AcDbBlockEnd
0
BLOCK
5
99
330
98
100
AcDbEntity
8
0
100
AcDbBlockBegin
2
KyotoKyomaTatami-0
70
0
10
0
20
0
3
KyotoKyomaTatami-0
1

0
LINE
5
167
100
AcDbEntity
8
0
6
ByLayer
62
256
370
-1
100
AcDbLine
10
0
20
0
11
0
21
955
0
LINE
5
168
100
AcDbEntity
8
0
6
ByLayer
62
256
370
-1
100
AcDbLine
10
1910
20
0
11
1910
21
955
0
LINE
5
169
100
AcDbEntity
8
0
6
ByLayer
62
256
370
-1
100
AcDbLine
10
0
20
955
11
1910
21
955
0
LINE
5
16A
100
AcDbEntity
8
0
6
ByLayer
62
256
370
-1
100
AcDbLine
10
0
20
0
11
1910
21
0
0
LINE
5
16B
100
AcDbEntity
8
0
6
ByLayer
62
256
370
-1
100
AcDbLine
10
0
20
930
11
1910
21
930
0
LINE
5
16C
100
AcDbEntity
8
0
6
ByLayer
62
256
370
-1
100
AcDbLine
10
1885
20
0
11
1885
21
955
0
LINE
5
16D
100
AcDbEntity
8
0
6
ByLayer
62
256
370
-1
100
AcDbLine
10
25
20
0
11
25
21
955
0
LINE
5
16E
100
AcDbEntity
8
0
6
ByLayer
62
256
370
-1
100
AcDbLine
10
0
20
25
11
1910
21
25
0
LINE
5
16F
100
AcDbEntity
8
0
6
ByLayer
62
256
370
-1
100
AcDbLine
10
955
20
0
11
955
21
25
0
LINE
5
170
100
AcDbEntity
8
0
6
ByLayer
62
256
370
-1
100
AcDbLine
10
955
20
930
11
955
21
955
0
ENDBLK
5
9A
330
98
100
AcDbEntity
8
0
100
AcDbBlockEnd
0
BLOCK
5
9C
330
9B
100
AcDbEntity
8
0
100
AcDbBlockBegin
2
KyotoKyomaTatami-1
70
0
10
0
20
0
3
KyotoKyomaTatami-1
1

0
LINE
5
171
100
AcDbEntity
8
0
6
ByLayer
62
256
370
-1
100
AcDbLine
10
0
20
0
11
0
21
955
0
LINE
5
172
100
AcDbEntity
8
0
6
ByLayer
62
256
370
-1
100
AcDbLine
10
1910
20
0
11
1910
21
955
0
LINE
5
173
100
AcDbEntity
8
0
6
ByLayer
62
256
370
-1
100
AcDbLine
10
0
20
955
11
1910
21
955
0
LINE
5
174
100
AcDbEntity
8
0
6
ByLayer
62
256
370
-1
100
AcDbLine
10
0
20
0
11
1910
21
0
0
LINE
5
175
100
AcDbEntity
8
0
6
ByLayer
62
256
370
-1
100
AcDbLine
10
0
20
930
11
1910
21
930
0
LINE
5
176
100
AcDbEntity
8
0
6
ByLayer
62
256
370
-1
100
AcDbLine
10
1885
20
0
11
1885
21
955
0
LINE
5
177
100
AcDbEntity
8
0
6
ByLayer
62
256
370
-1
100
AcDbLine
10
25
20
0
11
25
21
955
0
LINE
5
178
100
AcDbEntity
8
0
6
ByLayer
62
256
370
-1
100
AcDbLine
10
0
20
25
11
1910
21
25
0
LINE
5
179
100
AcDbEntity
8
0
6
ByLayer
62
256
370
-1
100
AcDbLine
10
955
20
0
11
955
21
25
0
LINE
5
17A
100
AcDbEntity
8
0
6
ByLayer
62
256
370
-1
100
AcDbLine
10
955
20
930
11
955
21
955
0
ENDBLK
5
9D
330
9B
100
AcDbEntity
8
0
100
AcDbBlockEnd
0
BLOCK
5
9F
330
9E
100
AcDbEntity
8
0
100
AcDbBlockBegin
2
washer_Hor-0
70
0
10
0
20
0
3
washer_Hor-0
1

0
LINE
5
17B
100
AcDbEntity
8
0
6
ByLayer
62
256
370
-1
100
AcDbLine
10
520
20
0
11
520
21
550
0
LINE
5
17C
100
AcDbEntity
8
0
6
ByLayer
62
256
370
-1
100
AcDbLine
10
0
20
0
11
0
21
550
0
LINE
5
17D
100
AcDbEntity
8
0
6
ByLayer
62
256
370
-1
100
AcDbLine
10
0
20
550
11
520
21
550
0
LINE
5
17E
100
AcDbEntity
8
0
6
ByLayer
62
256
370
-1
100
AcDbLine
10
0
20
0
11
520
21
0
0
CIRCLE
5
17F
100
AcDbEntity
8
0
6
ByLayer
62
256
370
-1
100
AcDbCircle
10
260
20
275
40
190.24749449
0
LINE
5
180
100
AcDbEntity
8
0
6
ByLayer
62
256
370
-1
100
AcDbLine
10
0
20
50
11
520
21
50
0
ENDBLK
5
A0
330
9E
100
AcDbEntity
8
0
100
AcDbBlockEnd
0
BLOCK
5
A2
330
A1
100
AcDbEntity
8
0
100
AcDbBlockBegin
2
washer_Hor-1
70
0
10
0
20
0
3
washer_Hor-1
1

0
LINE
5
181
100
AcDbEntity
8
0
6
ByLayer
62
256
370
-1
100
AcDbLine
10
520
20
0
11
520
21
550
0
LINE
5
182
100
AcDbEntity
8
0
6
ByLayer
62
256
370
-1
100
AcDbLine
10
0
20
0
11
0
21
550
0
LINE
5
183
100
AcDbEntity
8
0
6
ByLayer
62
256
370
-1
100
AcDbLine
10
0
20
550
11
520
21
550
0
LINE
5
184
100
AcDbEntity
8
0
6
ByLayer
62
256
370
-1
100
AcDbLine
10
0
20
0
11
520
21
0
0
CIRCLE
5
185
100
AcDbEntity
8
0
6
ByLayer
62
256
370
-1
100
AcDbCircle
10
260
20
275
40
190.24749449
0
LINE
5
186
100
AcDbEntity
8
0
6
ByLayer
62
256
370
-1
100
AcDbLine
10
0
20
50
11
520
21
50
0
ENDBLK
5
A3
330
A1
100
AcDbEntity
8
0
100
AcDbBlockEnd
0
BLOCK
5
A5
330
A4
100
AcDbEntity
8
0
100
AcDbBlockBegin
2
refridge500_600_verRight-0
70
0
10
0
20
0
3
refridge500_600_verRight-0
1

0
LINE
5
187
100
AcDbEntity
8
0
6
ByLayer
62
256
370
-1
100
AcDbLine
10
0
20
0
11
550
21
0
0
LINE
5
188
100
AcDbEntity
8
0
6
ByLayer
62
256
370
-1
100
AcDbLine
10
0
20
-600
11
550
21
-600
0
LINE
5
189
100
AcDbEntity
8
0
6
ByLayer
62
256
370
-1
100
AcDbLine
10
500
20
0
11
500
21
-600
0
LINE
5
18A
100
AcDbEntity
8
0
6
ByLayer
62
256
370
-1
100
AcDbLine
10
0
20
0
11
0
21
-600
0
ARC
5
18B
100
AcDbEntity
8
0
6
ByLayer
62
256
370
-1
100
AcDbCircle
10
-689.692211372
20
-300
40
1275.4751189
100
AcDbArc
50
346.396206231
51
13.603793769
0
LINE
5
18C
100
AcDbEntity
8
0
6
ByLayer
62
256
370
-1
100
AcDbLine
10
510
20
0
11
510
21
-600
0
MTEXT
5
18D
100
AcDbEntity
8
0
6
ByLayer
62
256
370
-1
100
AcDbMText
10
266.901409432
20
-24.0279179021
30
0
40
200
41
533.333333333
71
4
72
5
1
Refr
7
iso
210
0
220
0
230
1
50
270
73
1
44
0.96
0
ENDBLK
5
A6
330
A4
100
AcDbEntity
8
0
100
AcDbBlockEnd
0
BLOCK
5
A8
330
A7
100
AcDbEntity
8
0
100
AcDbBlockBegin
2
Standard40ft12m_withIntwall-0
70
0
10
0
20
0
3
Standard40ft12m_withIntwall-0
1

0
LINE
5
18E
100
AcDbEntity
8
0
6
ByLayer
62
256
370
-1
100
AcDbLine
10
94
20
94
11
94
21
2346
0
LINE
5
18F
100
AcDbEntity
8
0
6
ByLayer
62
256
370
-1
100
AcDbLine
10
94
20
94
11
12076
21
94
0
LINE
5
190
100
AcDbEntity
8
0
6
ByLayer
62
256
370
-1
100
AcDbLine
10
44
20
44
11
44
21
2396
0
LINE
5
191
100
AcDbEntity
8
0
6
ByLayer
62
256
370
-1
100
AcDbLine
10
0
20
0
11
0
21
2440
0
LINE
5
192
100
AcDbEntity
8
0
6
ByLayer
62
256
370
-1
100
AcDbLine
10
0
20
0
11
12200
21
0
0
LINE
5
193
100
AcDbEntity
8
0
6
ByLayer
62
256
370
-1
100
AcDbLine
10
44
20
44
11
12200
21
44
0
LINE
5
194
100
AcDbEntity
8
0
6
ByLayer
62
256
370
-1
100
AcDbLine
10
12200
20
2390
11
13370
21
2390
0
LINE
5
195
100
AcDbEntity
8
0
6
ByLayer
62
256
370
-1
100
AcDbLine
10
12200
20
50
11
13370
21
50
0
LINE
5
196
100
AcDbEntity
8
0
6
ByLayer
62
256
370
-1
100
AcDbLine
10
12200
20
2434
11
13370
21
2434
0
LINE
5
197
100
AcDbEntity
8
0
6
ByLayer
62
256
370
-1
100
AcDbLine
10
12200
20
6
11
13370
21
6
0
LINE
5
198
100
AcDbEntity
8
0
6
ByLayer
62
256
370
-1
100
AcDbLine
10
13370
20
50
11
13370
21
2390
0
LINE
5
199
100
AcDbEntity
8
0
6
ByLayer
62
256
370
-1
100
AcDbLine
10
12076
20
44
11
12076
21
2396
0
LINE
5
19A
100
AcDbEntity
8
0
6
ByLayer
62
256
370
-1
100
AcDbLine
10
12200
20
0
11
12200
21
2440
0
LINE
5
19B
100
AcDbEntity
8
0
6
ByLayer
62
256
370
-1
100
AcDbLine
10
94
20
2346
11
12076
21
2346
0
LINE
5
19C
100
AcDbEntity
8
0
6
ByLayer
62
256
370
-1
100
AcDbLine
10
0
20
2440
11
12200
21
2440
0
LINE
5
19D
100
AcDbEntity
8
0
6
ByLayer
62
256
370
-1
100
AcDbLine
10
44
20
2396
11
12200
21
2396
0
ENDBLK
5
A9
330
A7
100
AcDbEntity
8
0
100
AcDbBlockEnd
0
BLOCK
5
AB
330
AA
100
AcDbEntity
8
0
100
AcDbBlockBegin
2
jtub
70
0
10
0
20
0
3
jtub
1

0
INSERT
5
19E
100
AcDbEntity
8
fixtures
6
ByLayer
62
256
370
-1
100
AcDbBlockReference
2
tub_ver-0
10
89.9985784502
20
870.630897716
30
0
41
1
42
1
43
0
50
0
70
1
71
1
44
0
45
0
0
LINE
5
19F
100
AcDbEntity
8
fixtures
6
ByLayer
62
256
370
-1
100
AcDbLine
10
759.99857845
20
0.630897714578
11
759.99857845
21
870.630897716
0
ARC
5
1A0
100
AcDbEntity
8
fixtures
6
ByLayer
62
256
370
-1
100
AcDbCircle
10
619.99857845
20
870.630897716
40
140
100
AcDbArc
50
0
51
90
0
ARC
5
1A1
100
AcDbEntity
8
fixtures
6
ByLayer
62
256
370
-1
100
AcDbCircle
10
619.99857845
20
0.630897714578
40
140
100
AcDbArc
50
270
51
0
0
LINE
5
1A2
100
AcDbEntity
8
fixtures
6
ByLayer
62
256
370
-1
100
AcDbLine
10
139.99857845
20
-139.369102285
11
619.99857845
21
-139.369102285
0
ARC
5
1A3
100
AcDbEntity
8
fixtures
6
ByLayer
62
256
370
-1
100
AcDbCircle
10
139.99857845
20
0.630897714578
40
140
100
AcDbArc
50
180
51
270
0
ARC
5
1A4
100
AcDbEntity
8
fixtures
6
ByLayer
62
256
370
-1
100
AcDbCircle
10
139.99857845
20
870.630897716
40
140
100
AcDbArc
50
90
51
180
0
LINE
5
1A5
100
AcDbEntity
8
fixtures
6
ByLayer
62
256
370
-1
100
AcDbLine
10
139.99857845
20
1010.63089772
11
619.99857845
21
1010.63089772
0
LINE
5
1A6
100
AcDbEntity
8
fixtures
6
ByLayer
62
256
370
-1
100
AcDbLine
10
-0.00142154981094
20
870.630897716
11
0
21
0
0
ENDBLK
5
AC
330
AA
100
AcDbEntity
8
0
100
AcDbBlockEnd
0
ENDSEC
0
SECTION
2
ENTITIES
0
LINE
5
1A7
100
AcDbEntity
8
0
6
ByLayer
62
256
370
-1
100
AcDbLine
10
-328.683717927
20
957.93996177
11
-328.683717927
21
3209.93996177
0
LINE
5
1A8
100
AcDbEntity
8
0
6
ByLayer
62
256
370
-1
100
AcDbLine
10
12947.3162821
20
913.93996177
11
12947.3162821
21
3253.93996177
0
LINE
5
1A9
100
AcDbEntity
8
container
6
ByLayer
62
256
370
-1
100
AcDbLine
10
12947.3162821
20
3253.93996177
11
12947.3162821
21
3297.93996177
0
LINE
5
1AA
100
AcDbEntity
8
container
6
ByLayer
62
256
370
-1
100
AcDbLine
10
12947.3162821
20
869.93996177
11
12947.3162821
21
913.93996177
0
LINE
5
1AB
100
AcDbEntity
8
container
6
ByLayer
62
256
370
-1
100
AcDbLine
10
-378.683717927
20
907.93996177
11
-378.683717927
21
3259.93996177
0
LINE
5
1AC
100
AcDbEntity
8
container
6
ByLayer
62
256
370
-1
100
AcDbLine
10
-422.683717927
20
863.93996177
11
-422.683717927
21
3303.93996177
0
LINE
5
1AD
100
AcDbEntity
8
container
6
ByLayer
62
256
370
-1
100
AcDbLine
10
11653.3162821
20
907.93996177
11
11653.3162821
21
3259.93996177
0
LINE
5
1AE
100
AcDbEntity
8
container
6
ByLayer
62
256
370
-1
100
AcDbLine
10
11777.3162821
20
863.93996177
11
11777.3162821
21
3303.93996177
0
LINE
5
1AF
100
AcDbEntity
8
container
6
ByLayer
62
256
370
-1
100
AcDbLine
10
-422.683717927
20
3303.93996177
11
11777.3162821
21
3303.93996177
0
DIMENSION
5
1B0
100
AcDbEntity
8
dimension
6
ByLayer
62
256
370
-1
100
AcDbDimension
2
*D1
10
11777.3162821
20
4661.73259271
30
0
11
5677.31628207
21
4761.73259271
31
0
70
32
71
5
3
Standard
53
0
210
0
220
0
230
1
100
AcDbAlignedDimension
13
-422.683717927
23
3303.93996177
33
0
14
11777.3162821
24
3303.93996177
34
0
100
AcDbRotatedDimension
0
INSERT
5
1B1
100
AcDbEntity
8
eletrical
6
ByLayer
62
256
370
-1
100
AcDbBlockReference
2
outlet110HorUp-0
10
8837.99863571
20
957.93996177
30
0
41
1
42
1
43
0
50
0
70
1
71
1
44
1
45
1
0
INSERT
5
1B2
100
AcDbEntity
8
eletrical
6
ByLayer
62
256
370
-1
100
AcDbBlockReference
2
outlet110HorUp-0
10
11462.8843555
20
957.93996177
30
0
41
1
42
1
43
0
50
0
70
1
71
1
44
1
45
1
0
LINE
5
1B3
100
AcDbEntity
8
0
6
ByLayer
62
256
370
-1
100
AcDbLine
10
4921.31628207
20
3209.93996178
11
6621.31628207
21
3209.93996177
0
INSERT
5
1B4
100
AcDbEntity
8
tatami
6
ByLayer
62
256
370
-1
100
AcDbBlockReference
2
KyotoKyomaTatamiVertical-8
10
2826.31628207
20
3038.93996178
30
0
41
1
42
1
43
0
50
180
70
1
71
1
44
0
45
0
0
INSERT
5
1B5
100
AcDbEntity
8
tatami
6
ByLayer
62
256
370
-1
100
AcDbBlockReference
2
KyotoKyomaTatamiVertical-9
10
-38.68371793
20
3038.93996178
30
0
41
1
42
1
43
0
50
180
70
1
71
1
44
0
45
0
0
INSERT
5
1B6
100
AcDbEntity
8
tatami
6
ByLayer
62
256
370
-1
100
AcDbBlockReference
2
KyotoKyomaTatami-0
10
2826.31628207
20
3038.93996178
30
0
41
1
42
1
43
0
50
180
70
1
71
1
44
0
45
0
0
INSERT
5
1B7
100
AcDbEntity
8
tatami
6
ByLayer
62
256
370
-1
100
AcDbBlockReference
2
KyotoKyomaTatami-1
10
2826.31628207
20
2083.93996178
30
0
41
1
42
1
43
0
50
180
70
1
71
1
44
0
45
0
0
INSERT
5
1B8
100
AcDbEntity
8
eletrical
6
ByLayer
62
256
370
-1
100
AcDbBlockReference
2
outlet110HorUp-0
10
-146.78060213
20
957.93996177
30
0
41
1
42
1
43
0
50
0
70
1
71
1
44
1
45
1
0
INSERT
5
1B9
100
AcDbEntity
8
eletrical
6
ByLayer
62
256
370
-1
100
AcDbBlockReference
2
outlet110HorUp-0
10
3786.79196204
20
957.93996177
30
0
41
1
42
1
43
0
50
0
70
1
71
1
44
1
45
1
0
INSERT
5
1BA
100
AcDbEntity
8
eletrical
6
ByLayer
62
256
370
-1
100
AcDbBlockReference
2
outlet110HorUp-0
10
-171.061914255
20
3209.93996177
30
0
41
1
42
1
43
0
50
180
70
1
71
1
44
1
45
1
0
INSERT
5
1BB
100
AcDbEntity
8
eletrical
6
ByLayer
62
256
370
-1
100
AcDbBlockReference
2
outlet110HorUp-0
10
3894.32348717
20
3209.93996177
30
0
41
1
42
1
43
0
50
180
70
1
71
1
44
1
45
1
0
LINE
5
1BC
100
AcDbEntity
8
container
6
ByLayer
62
256
370
-1
100
AcDbLine
10
7496.31628207
20
863.93996177
11
11777.3162821
21
863.93996177
0
LINE
5
1BD
100
AcDbEntity
8
container
6
ByLayer
62
256
370
-1
100
AcDbLine
10
6696.31628207
20
907.93996177
11
3421.96177861
21
907.93996177
0
LINE
5
1BE
100
AcDbEntity
8
container
6
ByLayer
62
256
370
-1
100
AcDbLine
10
3421.96177861
20
863.93996177
11
6696.31628207
21
863.93996177
0
LINE
5
1BF
100
AcDbEntity
8
0
6
ByLayer
62
256
370
-1
100
AcDbLine
10
7911.31628207
20
3209.93996177
11
7961.31628207
21
3209.93996177
0
LINE
5
1C0
100
AcDbEntity
8
0
6
ByLayer
62
256
370
-1
100
AcDbLine
10
6671.31628207
20
3209.93996177
11
7521.31628207
21
3209.93996177
0
LINE
5
1C1
100
AcDbEntity
8
0
6
ByLayer
62
256
370
-1
100
AcDbLine
10
7571.31628207
20
3209.93996177
11
7911.31628207
21
3209.93996177
0
INSERT
5
1C2
100
AcDbEntity
8
tatami
6
ByLayer
62
256
370
-1
100
AcDbBlockReference
2
KyotoKyomaTatamiVertical-1
10
11444.8162821
20
1128.93996178
30
0
41
1
42
1
43
0
50
0
70
1
71
1
44
1
45
1
0
LINE
5
1C3
100
AcDbEntity
8
container
6
ByLayer
62
256
370
-1
100
AcDbLine
10
11012.3162821
20
3259.93996177
11
11777.3162821
21
3259.93996177
0
LINE
5
1C4
100
AcDbEntity
8
0
6
ByLayer
62
256
370
-1
100
AcDbLine
10
11653.3162821
20
3209.93996177
11
11012.3162821
21
3209.93996177
0
LINE
5
1C5
100
AcDbEntity
8
0
6
ByLayer
62
256
370
-1
100
AcDbLine
10
11012.3162821
20
957.93996177
11
11653.3162821
21
957.93996177
0
LINE
5
1C6
100
AcDbEntity
8
container
6
ByLayer
62
256
370
-1
100
AcDbLine
10
11012.3162821
20
907.93996177
11
11777.3162821
21
907.93996177
0
LINE
5
1C7
100
AcDbEntity
8
container
6
ByLayer
62
256
370
-1
100
AcDbLine
10
11012.3162821
20
3303.93996177
11
11012.3162821
21
3259.93996177
0
LINE
5
1C8
100
AcDbEntity
8
0
6
ByLayer
62
256
370
-1
100
AcDbLine
10
11012.3162821
20
3259.93996177
11
11012.3162821
21
3209.93996177
0
LINE
5
1C9
100
AcDbEntity
8
doors
6
ByLayer
62
256
370
-1
100
AcDbLine
10
11004.3162821
20
3273.93996177
11
11004.3162821
21
3238.93996177
0
LINE
5
1CA
100
AcDbEntity
8
0
6
ByLayer
62
256
370
-1
100
AcDbLine
10
11012.3162821
20
957.93996177
11
11012.3162821
21
907.93996177
0
LINE
5
1CB
100
AcDbEntity
8
container
6
ByLayer
62
256
370
-1
100
AcDbLine
10
11012.3162821
20
907.93996177
11
11012.3162821
21
863.93996177
0
LINE
5
1CC
100
AcDbEntity
8
doors
6
ByLayer
62
256
370
-1
100
AcDbLine
10
11006.3162821
20
963.93996177
11
11006.3162821
21
928.93996177
0
LINE
5
1CD
100
AcDbEntity
8
container
6
ByLayer
62
256
370
-1
100
AcDbLine
10
871.31628207
20
3259.93996177
11
871.31628207
21
3303.93996177
0
LINE
5
1CE
100
AcDbEntity
8
container
6
ByLayer
62
256
370
-1
100
AcDbLine
10
2871.31628207
20
3259.93996178
11
2871.31628207
21
3303.93996177
0
LINE
5
1CF
100
AcDbEntity
8
container
6
ByLayer
62
256
370
-1
100
AcDbLine
10
-378.683717927
20
3259.93996177
11
871.31628207
21
3259.93996177
0
LINE
5
1D0
100
AcDbEntity
8
0
6
ByLayer
62
256
370
-1
100
AcDbLine
10
-328.683717927
20
3209.93996177
11
871.31628207
21
3209.93996177
0
LINE
5
1D1
100
AcDbEntity
8
0
6
ByLayer
62
256
370
-1
100
AcDbLine
10
2871.31628207
20
3209.93996177
11
2871.31628207
21
3259.93996177
0
LINE
5
1D2
100
AcDbEntity
8
0
6
ByLayer
62
256
370
-1
100
AcDbLine
10
871.31628207
20
3209.93996177
11
871.31628207
21
3259.93996177
0
LINE
5
1D3
100
AcDbEntity
8
doors
6
ByLayer
62
256
370
-1
100
AcDbLine
10
1883.31628207
20
3203.93996177
11
1883.31628207
21
3238.93996177
0
LINE
5
1D4
100
AcDbEntity
8
doors
6
ByLayer
62
256
370
-1
100
AcDbLine
10
1859.31628207
20
3238.93996177
11
1859.31628207
21
3273.93996177
0
LINE
5
1D5
100
AcDbEntity
8
doors
6
ByLayer
62
256
370
-1
100
AcDbLine
10
877.31628207
20
3203.93996177
11
1883.31628207
21
3203.93996177
0
LINE
5
1D6
100
AcDbEntity
8
doors
6
ByLayer
62
256
370
-1
100
AcDbLine
10
877.31628207
20
3203.93996177
11
877.31628207
21
3238.93996177
0
LINE
5
1D7
100
AcDbEntity
8
doors
6
ByLayer
62
256
370
-1
100
AcDbLine
10
1859.31628207
20
3273.93996177
11
2865.31628207
21
3273.93996177
0
LINE
5
1D8
100
AcDbEntity
8
doors
6
ByLayer
62
256
370
-1
100
AcDbLine
10
877.31628207
20
3238.93996177
11
2865.31628207
21
3238.93996177
0
LINE
5
1D9
100
AcDbEntity
8
doors
6
ByLayer
62
256
370
-1
100
AcDbLine
10
2865.31628207
20
3238.93996177
11
2865.31628207
21
3273.93996177
0
LINE
5
1DA
100
AcDbEntity
8
0
6
ByLayer
62
256
370
-1
100
AcDbLine
10
871.31628207
20
957.93996177
11
871.31628207
21
907.93996177
0
LINE
5
1DB
100
AcDbEntity
8
0
6
ByLayer
62
256
370
-1
100
AcDbLine
10
2871.31628207
20
957.93996177
11
2871.31628207
21
907.93996177
0
LINE
5
1DC
100
AcDbEntity
8
container
6
ByLayer
62
256
370
-1
100
AcDbLine
10
2871.31628207
20
907.93996177
11
2871.31628207
21
863.93996177
0
LINE
5
1DD
100
AcDbEntity
8
container
6
ByLayer
62
256
370
-1
100
AcDbLine
10
871.31628207
20
907.93996177
11
871.31628207
21
863.93996177
0
LINE
5
1DE
100
AcDbEntity
8
0
6
ByLayer
62
256
370
-1
100
AcDbLine
10
-328.683717927
20
957.93996177
11
871.31628207
21
957.93996177
0
LINE
5
1DF
100
AcDbEntity
8
container
6
ByLayer
62
256
370
-1
100
AcDbLine
10
-378.683717927
20
907.93996177
11
871.31628207
21
907.93996177
0
LINE
5
1E0
100
AcDbEntity
8
container
6
ByLayer
62
256
370
-1
100
AcDbLine
10
-422.683717927
20
863.93996177
11
871.31628207
21
863.93996177
0
LINE
5
1E1
100
AcDbEntity
8
container
6
ByLayer
62
256
370
-1
100
AcDbLine
10
2871.31628207
20
863.93996177
11
3421.96177861
21
863.93996177
0
LINE
5
1E2
100
AcDbEntity
8
container
6
ByLayer
62
256
370
-1
100
AcDbLine
10
2871.31628207
20
907.93996177
11
3421.96177861
21
907.93996177
0
LINE
5
1E3
100
AcDbEntity
8
0
6
ByLayer
62
256
370
-1
100
AcDbLine
10
2871.31628207
20
957.93996177
11
3421.31628207
21
957.93996177
0
LINE
5
1E4
100
AcDbEntity
8
container
6
ByLayer
62
256
370
-1
100
AcDbLine
10
871.31628207
20
863.93996177
11
2871.31628207
21
863.93996177
0
LINE
5
1E5
100
AcDbEntity
8
doors
6
ByLayer
62
256
370
-1
100
AcDbLine
10
1883.31628207
20
928.93996177
11
1883.31628207
21
893.93996177
0
LINE
5
1E6
100
AcDbEntity
8
doors
6
ByLayer
62
256
370
-1
100
AcDbLine
10
1859.31628207
20
963.93996177
11
1859.31628207
21
928.93996177
0
LINE
5
1E7
100
AcDbEntity
8
doors
6
ByLayer
62
256
370
-1
100
AcDbLine
10
877.31628207
20
928.93996177
11
877.31628207
21
893.93996177
0
LINE
5
1E8
100
AcDbEntity
8
doors
6
ByLayer
62
256
370
-1
100
AcDbLine
10
877.31628207
20
893.93996177
11
1883.31628207
21
893.93996177
0
LINE
5
1E9
100
AcDbEntity
8
doors
6
ByLayer
62
256
370
-1
100
AcDbLine
10
2865.31628207
20
963.93996177
11
2865.31628207
21
928.93996177
0
LINE
5
1EA
100
AcDbEntity
8
doors
6
ByLayer
62
256
370
-1
100
AcDbLine
10
1859.31628207
20
963.93996177
11
2865.31628207
21
963.93996177
0
LINE
5
1EB
100
AcDbEntity
8
doors
6
ByLayer
62
256
370
-1
100
AcDbLine
10
877.31628207
20
928.93996177
11
2865.31628207
21
928.93996177
0
DIMENSION
5
1EC
100
AcDbEntity
8
dimension
6
ByLayer
62
256
370
-1
100
AcDbDimension
2
*D2
10
11012.3162821
20
3981.27397379
30
0
11
11394.8162821
21
4081.27397379
31
0
70
32
71
5
72
0
3
Standard
53
0
210
0
220
0
230
1
100
AcDbAlignedDimension
13
11777.3162821
23
3303.93996177
33
0
14
11012.3162821
24
3303.93996177
34
0
100
AcDbRotatedDimension
0
LINE
5
1ED
100
AcDbEntity
8
container
6
ByLayer
62
256
370
-1
100
AcDbLine
10
11787.3162821
20
3297.93996177
11
11787.3162821
21
3253.93996177
0
LINE
5
1EE
100
AcDbEntity
8
container
6
ByLayer
62
256
370
-1
100
AcDbLine
10
11787.3162821
20
913.93996177
11
11787.3162821
21
869.93996177
0
LINE
5
1EF
100
AcDbEntity
8
container
6
ByLayer
62
256
370
-1
100
AcDbLine
10
11787.3162821
20
3297.93996177
11
12947.3162821
21
3297.93996177
0
LINE
5
1F0
100
AcDbEntity
8
container
6
ByLayer
62
256
370
-1
100
AcDbLine
10
11787.3162821
20
3253.93996177
11
12947.3162821
21
3253.93996177
0
LINE
5
1F1
100
AcDbEntity
8
container
6
ByLayer
62
256
370
-1
100
AcDbLine
10
11787.3162821
20
913.93996177
11
12947.3162821
21
913.93996177
0
LINE
5
1F2
100
AcDbEntity
8
container
6
ByLayer
62
256
370
-1
100
AcDbLine
10
11787.3162821
20
869.93996177
11
12947.3162821
21
869.93996177
0
LINE
5
1F3
100
AcDbEntity
8
doors
6
ByLayer
62
256
370
-1
100
AcDbLine
10
11697.3162821
20
913.93996177
11
11697.3162821
21
3253.93996177
0
LINE
5
1F4
100
AcDbEntity
8
doors
6
ByLayer
62
256
370
-1
100
AcDbLine
10
11732.3162821
20
913.93996177
11
11732.3162821
21
2095.93996178
0
LINE
5
1F5
100
AcDbEntity
8
doors
6
ByLayer
62
256
370
-1
100
AcDbLine
10
11662.3162821
20
2071.93996178
11
11662.3162821
21
3253.93996177
0
LINE
5
1F6
100
AcDbEntity
8
doors
6
ByLayer
62
256
370
-1
100
AcDbLine
10
11697.3162821
20
2095.93996178
11
11732.3162821
21
2095.93996178
0
LINE
5
1F7
100
AcDbEntity
8
doors
6
ByLayer
62
256
370
-1
100
AcDbLine
10
11662.3162821
20
2071.93996178
11
11697.3162821
21
2071.93996178
0
LINE
5
1F8
100
AcDbEntity
8
doors
6
ByLayer
62
256
370
-1
100
AcDbLine
10
11662.3162821
20
3253.93996177
11
11697.3162821
21
3253.93996177
0
LINE
5
1F9
100
AcDbEntity
8
doors
6
ByLayer
62
256
370
-1
100
AcDbLine
10
11697.3162821
20
913.93996177
11
11732.3162821
21
913.93996177
0
MTEXT
5
1FA
100
AcDbEntity
8
text
6
ByLayer
62
256
370
-1
100
AcDbMText
10
1610.37299046
20
754.696252953
30
0
40
150
41
516.72381247
71
1
72
1
1
slider
7
STANDARD
210
0
220
0
230
1
50
0
73
2
44
1
0
MTEXT
5
1FB
100
AcDbEntity
8
text
6
ByLayer
62
256
370
-1
100
AcDbMText
10
9785.80616725
20
717.49291654
30
0
40
150
41
516.72381247
71
1
72
1
1
slider
7
STANDARD
210
0
220
0
230
1
50
0
73
2
44
1
0
MTEXT
5
1FC
100
AcDbEntity
8
text
6
ByLayer
62
256
370
-1
100
AcDbMText
10
9779.16271432
20
3534.10436876
30
0
40
150
41
516.72381247
71
1
72
1
1
slider
7
STANDARD
210
0
220
0
230
1
50
0
73
2
44
1
0
MTEXT
5
1FD
100
AcDbEntity
8
text
6
ByLayer
62
256
370
-1
100
AcDbMText
10
1632.6949923
20
3532.06350002
30
0
40
150
41
516.72381247
71
1
72
1
1
slider
7
STANDARD
210
0
220
0
230
1
50
0
73
2
44
1
0
LINE
5
1FE
100
AcDbEntity
8
0
6
ByLayer
62
256
370
-1
100
AcDbLine
10
4871.31628207
20
957.93996177
11
7571.31628207
21
957.93996177
0
LINE
5
1FF
100
AcDbEntity
8
container
6
ByLayer
62
256
370
-1
100
AcDbLine
10
7496.31628207
20
907.93996177
11
6688.91192154
21
907.93996177
0
LINE
5
200
100
AcDbEntity
8
container
6
ByLayer
62
256
370
-1
100
AcDbLine
10
6696.31628207
20
863.93996177
11
7496.31628207
21
863.93996177
0
INSERT
5
201
100
AcDbEntity
8
tatami
6
ByLayer
62
256
370
-1
100
AcDbBlockReference
2
KyotoKyomaTatami-0
10
10489.8162821
20
3038.93996178
30
0
41
1
42
1
43
0
50
180
70
1
71
1
44
0
45
0
0
INSERT
5
202
100
AcDbEntity
8
tatami
6
ByLayer
62
256
370
-1
100
AcDbBlockReference
2
KyotoKyomaTatami-1
10
10489.8162821
20
2083.93996178
30
0
41
1
42
1
43
0
50
180
70
1
71
1
44
0
45
0
0
INSERT
5
203
100
AcDbEntity
8
tatami
6
ByLayer
62
256
370
-1
100
AcDbBlockReference
2
KyotoKyomaTatamiVertical-1
10
8579.8162821
20
1128.93996178
30
0
41
1
42
1
43
0
50
0
70
1
71
1
44
1
45
1
0
INSERT
5
204
100
AcDbEntity
8
tatami
6
ByLayer
62
256
370
-1
100
AcDbBlockReference
2
KyotoKyomaTatami-0
10
7624.8162821
20
3038.93996178
30
0
41
1
42
1
43
0
50
180
70
1
71
1
44
0
45
0
0
INSERT
5
205
100
AcDbEntity
8
tatami
6
ByLayer
62
256
370
-1
100
AcDbBlockReference
2
KyotoKyomaTatami-1
10
7624.8162821
20
2083.93996178
30
0
41
1
42
1
43
0
50
180
70
1
71
1
44
0
45
0
0
LINE
5
206
100
AcDbEntity
8
0
6
ByLayer
62
256
370
-1
100
AcDbLine
10
4921.31628207
20
3209.93996178
11
4871.31628207
21
3209.93996178
0
LINE
5
207
100
AcDbEntity
8
0
6
ByLayer
62
256
370
-1
100
AcDbLine
10
4828.94578631
20
3209.93996178
11
4871.31628207
21
3209.93996178
0
LINE
5
208
100
AcDbEntity
8
0
6
ByLayer
62
256
370
-1
100
AcDbLine
10
4697.31628207
20
3209.93996177
11
2871.31628207
21
3209.93996177
0
LINE
5
209
100
AcDbEntity
8
0
6
ByLayer
62
256
370
-1
100
AcDbLine
10
4747.31628207
20
3209.93996177
11
4828.94578631
21
3209.93996178
0
LINE
5
20A
100
AcDbEntity
8
0
6
ByLayer
62
256
370
-1
100
AcDbLine
10
3421.31628207
20
957.93996177
11
4697.31628207
21
957.93996177
0
LINE
5
20B
100
AcDbEntity
8
0
6
ByLayer
62
256
370
-1
100
AcDbLine
10
4747.31628207
20
957.93996177
11
4871.31628207
21
957.93996177
0
LINE
5
20C
100
AcDbEntity
8
0
6
ByLayer
62
256
370
-1
100
AcDbLine
10
4747.31628207
20
957.93996177
11
4747.31628207
21
3209.93996177
0
LINE
5
20D
100
AcDbEntity
8
0
6
ByLayer
62
256
370
-1
100
AcDbLine
10
4697.31628207
20
957.93996177
11
4697.31628207
21
3209.93996177
0
LINE
5
20E
100
AcDbEntity
8
cabinates
6
ByLayer
62
256
370
-1
100
AcDbLine
10
3897.31628207
20
957.93996177
11
3897.31628207
21
3209.93996177
0
LINE
5
20F
100
AcDbEntity
8
cabinates
6
ByLayer
62
256
370
-1
100
AcDbLine
10
5547.31628207
20
957.93996177
11
5547.31628207
21
3209.93996177
0
LINE
5
210
100
AcDbEntity
8
0
6
ByLayer
62
256
370
-1
100
AcDbLine
10
6621.31628207
20
3209.93996177
11
6671.31628207
21
3209.93996177
0
LINE
5
211
100
AcDbEntity
8
0
6
ByLayer
62
256
370
-1
100
AcDbLine
10
7521.31628207
20
3209.93996177
11
7571.31628207
21
3209.93996177
0
LINE
5
212
100
AcDbEntity
8
container
6
ByLayer
62
256
370
-1
100
AcDbLine
10
2871.31628207
20
3259.93996177
11
8062.3162821
21
3259.93996177
0
LINE
5
213
100
AcDbEntity
8
0
6
ByLayer
62
256
370
-1
100
AcDbLine
10
7961.31628207
20
3209.93996177
11
8062.3162821
21
3209.93996177
0
LINE
5
214
100
AcDbEntity
8
doors
6
ByLayer
62
256
370
-1
100
AcDbLine
10
8068.3162821
20
3238.93996177
11
11004.3162821
21
3238.93996177
0
DIMENSION
5
215
100
AcDbEntity
8
dimension
6
ByLayer
62
256
370
-1
100
AcDbDimension
2
*D3
10
8062.3162821
20
3981.38149683
30
0
11
9537.3162821
21
4081.38149683
31
0
70
32
71
5
3
Standard
53
0
210
0
220
0
230
1
100
AcDbAlignedDimension
13
11012.3162821
23
3303.93996177
33
0
14
8062.3162821
24
3303.93996177
34
0
100
AcDbRotatedDimension
0
LINE
5
216
100
AcDbEntity
8
doors
6
ByLayer
62
256
370
-1
100
AcDbLine
10
9525.3162821
20
3273.93996177
11
11004.3162821
21
3273.93996177
0
LINE
5
217
100
AcDbEntity
8
doors
6
ByLayer
62
256
370
-1
100
AcDbLine
10
8068.3162821
20
3203.93996177
11
9549.3162821
21
3203.93996177
0
LINE
5
218
100
AcDbEntity
8
doors
6
ByLayer
62
256
370
-1
100
AcDbLine
10
9525.3162821
20
3273.93996177
11
9525.3162821
21
3238.93996177
0
LINE
5
219
100
AcDbEntity
8
doors
6
ByLayer
62
256
370
-1
100
AcDbLine
10
9549.3162821
20
3238.93996177
11
9549.3162821
21
3203.93996177
0
LINE
5
21A
100
AcDbEntity
8
doors
6
ByLayer
62
256
370
-1
100
AcDbLine
10
8068.3162821
20
3238.93996177
11
8068.3162821
21
3203.93996177
0
LINE
5
21B
100
AcDbEntity
8
container
6
ByLayer
62
256
370
-1
100
AcDbLine
10
8062.3162821
20
3303.93996177
11
8062.3162821
21
3259.93996177
0
LINE
5
21C
100
AcDbEntity
8
0
6
ByLayer
62
256
370
-1
100
AcDbLine
10
8062.3162821
20
3259.93996177
11
8062.3162821
21
3209.93996177
0
LINE
5
21D
100
AcDbEntity
8
0
6
ByLayer
62
256
370
-1
100
AcDbLine
10
7571.31628207
20
957.93996177
11
8062.3162821
21
957.93996177
0
LINE
5
21E
100
AcDbEntity
8
container
6
ByLayer
62
256
370
-1
100
AcDbLine
10
7496.31628207
20
907.93996177
11
8062.3162821
21
907.93996177
0
LINE
5
21F
100
AcDbEntity
8
doors
6
ByLayer
62
256
370
-1
100
AcDbLine
10
9525.3162821
20
963.93996177
11
11006.3162821
21
963.93996177
0
LINE
5
220
100
AcDbEntity
8
doors
6
ByLayer
62
256
370
-1
100
AcDbLine
10
8068.3162821
20
928.93996177
11
11006.3162821
21
928.93996177
0
LINE
5
221
100
AcDbEntity
8
doors
6
ByLayer
62
256
370
-1
100
AcDbLine
10
8068.3162821
20
893.93996177
11
9549.3162821
21
893.93996177
0
LINE
5
222
100
AcDbEntity
8
0
6
ByLayer
62
256
370
-1
100
AcDbLine
10
8062.3162821
20
957.93996177
11
8062.3162821
21
907.93996177
0
LINE
5
223
100
AcDbEntity
8
container
6
ByLayer
62
256
370
-1
100
AcDbLine
10
8062.3162821
20
907.93996177
11
8062.3162821
21
863.93996177
0
LINE
5
224
100
AcDbEntity
8
doors
6
ByLayer
62
256
370
-1
100
AcDbLine
10
9525.3162821
20
963.93996177
11
9525.3162821
21
928.93996177
0
LINE
5
225
100
AcDbEntity
8
doors
6
ByLayer
62
256
370
-1
100
AcDbLine
10
9549.3162821
20
928.93996177
11
9549.3162821
21
893.93996177
0
LINE
5
226
100
AcDbEntity
8
doors
6
ByLayer
62
256
370
-1
100
AcDbLine
10
8068.3162821
20
928.93996177
11
8068.3162821
21
893.93996177
0
MTEXT
5
227
100
AcDbEntity
8
text
6
ByLayer
62
256
370
-1
100
AcDbMText
10
4965.98106587
20
1959.81861462
30
0
40
150
41
500.000077143
71
1
72
1
1
closit
7

210
0
220
0
230
1
50
90
73
2
44
1
0
MTEXT
5
228
100
AcDbEntity
8
text
6
ByLayer
62
256
370
-1
100
AcDbMText
10
4318.2444051
20
1993.03587928
30
0
40
150
41
500.000077143
71
1
72
1
1
closit
7

210
0
220
0
230
1
50
90
73
2
44
1
0
MTEXT
5
229
100
AcDbEntity
8
text
6
ByLayer
62
256
370
-1
100
AcDbMText
10
1621.00251515
20
2614.86307361
30
0
40
150
41
695.833333333
71
1
72
1
1
Bed 4T
7

210
0
220
0
230
1
50
0
73
2
44
1
0
MTEXT
5
22A
100
AcDbEntity
8
text
6
ByLayer
62
256
370
-1
100
AcDbMText
10
9154.67813882
20
2544.44247255
30
0
40
150
41
679.166666667
71
1
72
1
1
Bed 6T
7

210
0
220
0
230
1
50
0
73
2
44
1
0
DIMENSION
5
22B
100
AcDbEntity
8
dimension
6
ByLayer
62
256
370
-1
100
AcDbDimension
2
*D4
10
871.31628207
20
3981.2739738
30
0
11
224.316282072
21
4081.2739738
31
0
70
32
71
5
3
Standard
53
0
210
0
220
0
230
1
100
AcDbAlignedDimension
13
-422.683717927
23
3303.93996177
33
0
14
871.31628207
24
3303.93996177
34
0
100
AcDbRotatedDimension
0
DIMENSION
5
22C
100
AcDbEntity
8
dimension
6
ByLayer
62
256
370
-1
100
AcDbDimension
2
*D5
10
2871.31628207
20
3981.83779404
30
0
11
1871.31628207
21
4081.83779404
31
0
70
32
71
5
3
Standard
53
0
210
0
220
0
230
1
100
AcDbAlignedDimension
13
871.31628207
23
3303.93996177
33
0
14
2871.31628207
24
3303.93996177
34
0
100
AcDbRotatedDimension
0
ENDSEC
0
SECTION
2
OBJECTS
0
DICTIONARY
5
C
330
0
100
AcDbDictionary
281
1
3
ACAD_GROUP
350
D
0
DICTIONARY
5
D
330
C
100
AcDbDictionary
281
1
0
ENDSEC
0
EOF
