999
dxfrw 0.5.11
0
SECTION
2
HEADER
9
$ACADVER
1
AC1021
9
$HANDSEED
5
20000
9
$DWGCODEPAGE
3
ANSI_1252
9
$INSBASE
10
0
20
0
30
0
9
$EXTMIN
10
-414.055175781
20
-854.255934406
30
0
9
$EXTMAX
10
7495.375
20
3099.57377102
30
0
9
$LIMMIN
10
0
20
0
9
$LIMMAX
10
420
20
297
9
$ORTHOMODE
70
0
9
$LTSCALE
40
1
9
$TEXTSTYLE
7
STANDARD
9
$CLAYER
8
text
9
$DIMASZ
40
75
9
$DIMLFAC
40
1
9
$DIMSCALE
40
1
9
$DIMEXO
40
6
9
$DIMEXE
40
12.5
9
$DIMTXT
40
85
9
$DIMTSZ
40
0
9
$DIMAUNIT
70
0
9
$DIMADEC
70
2
9
$DIMLUNIT
70
2
9
$DIMSTYLE
2
STANDARD
9
$DIMGAP
40
16.25
9
$DIMTIH
70
0
9
$LUNITS
70
2
9
$LUPREC
70
4
9
$AUNITS
70
0
9
$AUPREC
70
2
9
$SPLINESEGS
70
8
9
$GRIDMODE
70
1
9
$SNAPSTYLE
70
0
9
$GRIDUNIT
10
0
20
0
9
$PINSBASE
10
0
20
0
30
0
9
$PLIMMIN
10
0
20
0
9
$PLIMMAX
10
297
20
210
9
$INSUNITS
70
4
9
$PSVPSCALE
40
1
0
ENDSEC
0
SECTION
2
CLASSES
0
ENDSEC
0
SECTION
2
TABLES
0
TABLE
2
VPORT
5
8
330
0
100
AcDbSymbolTable
70
1
0
VPORT
5
31
330
2
100
AcDbSymbolTableRecord
100
AcDbViewportTableRecord
2
*ACTIVE
70
0
10
0
20
0
11
1
21
1
12
8264.78479767
22
2026.54637896
13
0
23
0
14
10
24
10
15
10
25
10
16
0
26
0
36
1
17
0
27
0
37
0
40
8623.10169366
41
2.10626702997
42
50
43
0
44
0
50
0
51
0
71
0
72
100
73
1
74
3
75
0
76
1
77
0
78
0
281
0
65
1
110
0
120
0
130
0
111
1
121
0
131
0
112
0
122
1
132
0
79
0
146
0
348
10020
60
7
61
5
292
1
282
1
141
0
142
0
63
250
421
3358443
0
ENDTAB
0
TABLE
2
LTYPE
5
5
330
0
100
AcDbSymbolTable
70
4
0
LTYPE
5
14
330
5
100
AcDbSymbolTableRecord
100
AcDbLinetypeTableRecord
2
ByBlock
70
0
3

72
65
73
0
40
0
0
LTYPE
5
15
330
5
100
AcDbSymbolTableRecord
100
AcDbLinetypeTableRecord
2
ByLayer
70
0
3

72
65
73
0
40
0
0
LTYPE
5
16
330
5
100
AcDbSymbolTableRecord
100
AcDbLinetypeTableRecord
2
Continuous
70
0
3
Solid line
72
65
73
0
40
0
0
LTYPE
5
32
330
5
100
AcDbSymbolTableRecord
100
AcDbLinetypeTableRecord
2
DOT
70
0
3
Dot . . . . . . . . . . . . . . . . . . . . . .
72
65
73
2
40
6.35
49
0
74
0
49
-6.35
74
0
0
LTYPE
5
33
330
5
100
AcDbSymbolTableRecord
100
AcDbLinetypeTableRecord
2
DOT2
70
0
3
Dot (.5x) .....................................
72
65
73
2
40
3.175
49
0
74
0
49
-3.175
74
0
0
LTYPE
5
34
330
5
100
AcDbSymbolTableRecord
100
AcDbLinetypeTableRecord
2
DOTX2
70
0
3
Dot (2x) .  .  .  .  .  .  .  .  .  .  .  .  .
72
65
73
2
40
12.7
49
0
74
0
49
-12.7
74
0
0
LTYPE
5
35
330
5
100
AcDbSymbolTableRecord
100
AcDbLinetypeTableRecord
2
DASHED
70
0
3
Dot . . . . . . . . . . . . . . . . . . . . . .
72
65
73
2
40
19.05
49
12.7
74
0
49
-6.35
74
0
0
LTYPE
5
36
330
5
100
AcDbSymbolTableRecord
100
AcDbLinetypeTableRecord
2
DASHED2
70
0
3
Dashed (.5x) _ _ _ _ _ _ _ _ _ _ _ _ _ _ _ _ _
72
65
73
2
40
9.525
49
6.35
74
0
49
-3.175
74
0
0
LTYPE
5
37
330
5
100
AcDbSymbolTableRecord
100
AcDbLinetypeTableRecord
2
DASHEDX2
70
0
3
Dashed (2x) ____  ____  ____  ____  ____  ___
72
65
73
2
40
38.1
49
25.4
74
0
49
-12.7
74
0
0
LTYPE
5
38
330
5
100
AcDbSymbolTableRecord
100
AcDbLinetypeTableRecord
2
DASHDOT
70
0
3
Dash dot __ . __ . __ . __ . __ . __ . __ . __
72
65
73
4
40
25.4
49
12.7
74
0
49
-6.35
74
0
49
0
74
0
49
-6.35
74
0
0
LTYPE
5
39
330
5
100
AcDbSymbolTableRecord
100
AcDbLinetypeTableRecord
2
DASHDOT2
70
0
3
Dash dot (.5x) _._._._._._._._._._._._._._._.
72
65
73
4
40
12.7
49
6.35
74
0
49
-3.175
74
0
49
0
74
0
49
-3.175
74
0
0
LTYPE
5
3A
330
5
100
AcDbSymbolTableRecord
100
AcDbLinetypeTableRecord
2
DASHDOTX2
70
0
3
Dash dot (2x) ____  .  ____  .  ____  .  ___
72
65
73
4
40
50.8
49
25.4
74
0
49
-12.7
74
0
49
0
74
0
49
-12.7
74
0
0
LTYPE
5
3B
330
5
100
AcDbSymbolTableRecord
100
AcDbLinetypeTableRecord
2
DIVIDE
70
0
3
Divide ____ . . ____ . . ____ . . ____ . . ____
72
65
73
6
40
31.75
49
12.7
74
0
49
-6.35
74
0
49
0
74
0
49
-6.35
74
0
49
0
74
0
49
-6.35
74
0
0
LTYPE
5
3C
330
5
100
AcDbSymbolTableRecord
100
AcDbLinetypeTableRecord
2
DIVIDE2
70
0
3
Divide (.5x) __..__..__..__..__..__..__..__.._
72
65
73
6
40
15.875
49
6.35
74
0
49
-3.175
74
0
49
0
74
0
49
-3.175
74
0
49
0
74
0
49
-3.175
74
0
0
LTYPE
5
3D
330
5
100
AcDbSymbolTableRecord
100
AcDbLinetypeTableRecord
2
DIVIDEX2
70
0
3
Divide (2x) ________  .  .  ________  .  .  _
72
65
73
6
40
63.5
49
25.4
74
0
49
-12.7
74
0
49
0
74
0
49
-12.7
74
0
49
0
74
0
49
-12.7
74
0
0
LTYPE
5
3E
330
5
100
AcDbSymbolTableRecord
100
AcDbLinetypeTableRecord
2
BORDER
70
0
3
Border __ __ . __ __ . __ __ . __ __ . __ __ .
72
65
73
6
40
44.45
49
12.7
74
0
49
-6.35
74
0
49
12.7
74
0
49
-6.35
74
0
49
0
74
0
49
-6.35
74
0
0
LTYPE
5
3F
330
5
100
AcDbSymbolTableRecord
100
AcDbLinetypeTableRecord
2
BORDER2
70
0
3
Border (.5x) __.__.__.__.__.__.__.__.__.__.__.
72
65
73
6
40
22.225
49
6.35
74
0
49
-3.175
74
0
49
6.35
74
0
49
-3.175
74
0
49
0
74
0
49
-3.175
74
0
0
LTYPE
5
40
330
5
100
AcDbSymbolTableRecord
100
AcDbLinetypeTableRecord
2
BORDERX2
70
0
3
Border (2x) ____  ____  .  ____  ____  .  ___
72
65
73
6
40
88.9
49
25.4
74
0
49
-12.7
74
0
49
25.4
74
0
49
-12.7
74
0
49
0
74
0
49
-12.7
74
0
0
LTYPE
5
41
330
5
100
AcDbSymbolTableRecord
100
AcDbLinetypeTableRecord
2
CENTER
70
0
3
Center ____ _ ____ _ ____ _ ____ _ ____ _ ____
72
65
73
4
40
50.8
49
31.75
74
0
49
-6.35
74
0
49
6.35
74
0
49
-6.35
74
0
0
LTYPE
5
42
330
5
100
AcDbSymbolTableRecord
100
AcDbLinetypeTableRecord
2
CENTER2
70
0
3
Center (.5x) ___ _ ___ _ ___ _ ___ _ ___ _ ___
72
65
73
4
40
28.575
49
19.05
74
0
49
-3.175
74
0
49
3.175
74
0
49
-3.175
74
0
0
LTYPE
5
43
330
5
100
AcDbSymbolTableRecord
100
AcDbLinetypeTableRecord
2
CENTERX2
70
0
3
Center (2x) ________  __  ________  __  _____
72
65
73
4
40
101.6
49
63.5
74
0
49
-12.7
74
0
49
12.7
74
0
49
-12.7
74
0
0
ENDTAB
0
TABLE
2
LAYER
5
2
330
0
100
AcDbSymbolTable
70
1
0
LAYER
5
10
330
2
100
AcDbSymbolTableRecord
100
AcDbLayerTableRecord
2
0
70
0
62
7
6
CONTINUOUS
370
0
390
F
0
LAYER
5
44
330
2
100
AcDbSymbolTableRecord
100
AcDbLayerTableRecord
2
bogus
70
0
62
3
6
CONTINUOUS
370
0
390
F
0
LAYER
5
45
330
2
100
AcDbSymbolTableRecord
100
AcDbLayerTableRecord
2
cabinates
70
0
62
96
420
32768
6
CONTINUOUS
370
0
390
F
0
LAYER
5
46
330
2
100
AcDbSymbolTableRecord
100
AcDbLayerTableRecord
2
dimension
70
0
62
5
6
CONTINUOUS
370
0
390
F
0
LAYER
5
47
330
2
100
AcDbSymbolTableRecord
100
AcDbLayerTableRecord
2
doors
70
0
62
96
420
32768
6
CONTINUOUS
370
0
390
F
0
LAYER
5
48
330
2
100
AcDbSymbolTableRecord
100
AcDbLayerTableRecord
2
fixtures
70
0
62
7
6
CONTINUOUS
370
-3
390
F
0
LAYER
5
49
330
2
100
AcDbSymbolTableRecord
100
AcDbLayerTableRecord
2
text
70
0
62
7
6
CONTINUOUS
370
0
390
F
0
LAYER
5
4A
330
2
100
AcDbSymbolTableRecord
100
AcDbLayerTableRecord
2
walls
70
0
62
253
420
10526884
6
CONTINUOUS
370
0
390
F
0
ENDTAB
0
TABLE
2
STYLE
5
3
330
0
100
AcDbSymbolTable
70
3
0
STYLE
5
4B
330
2
100
AcDbSymbolTableRecord
100
AcDbTextStyleTableRecord
2
iso
70
0
40
0
41
1
50
0
71
0
42
1
3
iso
4

0
STYLE
5
4C
330
2
100
AcDbSymbolTableRecord
100
AcDbTextStyleTableRecord
2
Standard
70
0
40
0
41
1
50
0
71
0
42
1
3
txt
4

0
ENDTAB
0
TABLE
2
VIEW
5
6
330
0
100
AcDbSymbolTable
70
0
0
ENDTAB
0
TABLE
2
UCS
5
7
330
0
100
AcDbSymbolTable
70
0
0
ENDTAB
0
TABLE
2
APPID
5
9
330
0
100
AcDbSymbolTable
70
1
0
APPID
5
12
330
9
100
AcDbSymbolTableRecord
100
AcDbRegAppTableRecord
2
ACAD
70
0
0
ENDTAB
0
TABLE
2
DIMSTYLE
5
A
330
0
100
AcDbSymbolTable
70
1
100
AcDbDimStyleTable
71
1
0
DIMSTYLE
105
4D
330
A
100
AcDbSymbolTableRecord
100
AcDbDimStyleTableRecord
2
Standard
70
0
40
1
41
75
42
6
43
0.38
44
12.5
45
0
46
0
47
0
48
0
140
85
141
0.09
142
0
143
25.4
144
1
145
0
146
1
147
16.25
148
0
71
0
72
0
73
0
74
1
75
0
76
0
77
0
78
0
79
0
170
0
171
2
172
0
173
0
174
0
175
0
176
0
177
0
178
0
179
0
271
4
272
4
273
2
274
2
275
0
276
0
277
2
278
46
279
0
280
0
281
0
282
0
283
1
284
0
285
0
286
0
288
0
289
3
340
Standard
341

371
-2
372
-2
0
ENDTAB
0
TABLE
2
BLOCK_RECORD
5
1
330
0
100
AcDbSymbolTable
70
2
0
BLOCK_RECORD
5
1F
330
1
100
AcDbSymbolTableRecord
100
AcDbBlockTableRecord
2
*Model_Space
70
0
280
1
281
0
0
BLOCK_RECORD
5
1E
330
1
100
AcDbSymbolTableRecord
100
AcDbBlockTableRecord
2
*Paper_Space
70
0
280
1
281
0
0
BLOCK_RECORD
5
4E
330
1
100
AcDbSymbolTableRecord
100
AcDbBlockTableRecord
2
*D1
70
0
280
1
281
0
0
BLOCK_RECORD
5
51
330
1
100
AcDbSymbolTableRecord
100
AcDbBlockTableRecord
2
*D2
70
0
280
1
281
0
0
BLOCK_RECORD
5
54
330
1
100
AcDbSymbolTableRecord
100
AcDbBlockTableRecord
2
*D3
70
0
280
1
281
0
0
BLOCK_RECORD
5
57
330
1
100
AcDbSymbolTableRecord
100
AcDbBlockTableRecord
2
*D5
70
0
280
1
281
0
0
BLOCK_RECORD
5
5A
330
1
100
AcDbSymbolTableRecord
100
AcDbBlockTableRecord
2
*D4
70
0
280
1
281
0
0
BLOCK_RECORD
5
5D
330
1
100
AcDbSymbolTableRecord
100
AcDbBlockTableRecord
2
refer
70
0
280
1
281
0
0
BLOCK_RECORD
5
60
330
1
100
AcDbSymbolTableRecord
100
AcDbBlockTableRecord
2
sink
70
0
280
1
281
0
0
BLOCK_RECORD
5
63
330
1
100
AcDbSymbolTableRecord
100
AcDbBlockTableRecord
2
stove
70
0
280
1
281
0
0
ENDTAB
0
ENDSEC
0
SECTION
2
BLOCKS
0
BLOCK
5
20
330
1F
100
AcDbEntity
8
0
100
AcDbBlockBegin
2
*Model_Space
70
0
10
0
20
0
30
0
3
*Model_Space
1

0
ENDBLK
5
21
330
1F
100
AcDbEntity
8
0
100
AcDbBlockEnd
0
BLOCK
5
1C
330
1B
100
AcDbEntity
8
0
100
AcDbBlockBegin
2
*Paper_Space
70
0
10
0
20
0
30
0
3
*Paper_Space
1

0
ENDBLK
5
1D
330
1F
100
AcDbEntity
8
0
100
AcDbBlockEnd
0
BLOCK
5
4F
330
4E
100
AcDbEntity
8
0
100
AcDbBlockBegin
2
*D1
70
1
10
0
20
0
3
*D1
1

0
LINE
5
66
100
AcDbEntity
8
dimension
6
CONTINUOUS
62
7
370
0
100
AcDbLine
10
209.375
20
2996.52377102
11
6305.375
21
2996.52377102
0
SOLID
5
67
100
AcDbEntity
8
dimension
6
CONTINUOUS
62
7
370
0
100
AcDbTrace
10
209.375
20
2996.52377102
30
0
11
284.375
21
3009.01231076
31
0
12
284.375
22
2984.03523129
32
0
13
284.375
23
2984.03523129
33
0
0
SOLID
5
68
100
AcDbEntity
8
dimension
6
CONTINUOUS
62
7
370
0
100
AcDbTrace
10
6305.375
20
2996.52377102
30
0
11
6230.375
21
2984.03523129
31
0
12
6230.375
22
3009.01231076
32
0
13
6230.375
23
3009.01231076
33
0
0
MTEXT
5
69
100
AcDbEntity
8
dimension
6
CONTINUOUS
62
7
370
0
100
AcDbMText
10
3257.375
20
3055.27377102
30
0
40
85
41
236.111111111
71
5
72
1
1
6096
7
standard
210
0
220
0
230
1
50
0
73
2
44
1
0
LINE
5
6A
100
AcDbEntity
8
dimension
6
CONTINUOUS
62
7
370
0
100
AcDbLine
10
209.375
20
2739.27377102
11
209.375
21
3009.02377102
0
LINE
5
6B
100
AcDbEntity
8
dimension
6
CONTINUOUS
62
7
370
0
100
AcDbLine
10
6305.375
20
2739.27377102
11
6305.375
21
3009.02377102
0
ENDBLK
5
50
330
4E
100
AcDbEntity
8
0
100
AcDbBlockEnd
0
BLOCK
5
52
330
51
100
AcDbEntity
8
0
100
AcDbBlockBegin
2
*D2
70
1
10
0
20
0
3
*D2
1

0
LINE
5
6C
100
AcDbEntity
8
dimension
6
CONTINUOUS
62
7
370
0
100
AcDbLine
10
6325.375
20
2998.32377102
11
7495.375
21
2998.32377102
0
SOLID
5
6D
100
AcDbEntity
8
dimension
6
CONTINUOUS
62
7
370
0
100
AcDbTrace
10
6325.375
20
2998.32377102
30
0
11
6400.375
21
3010.81231076
31
0
12
6400.375
22
2985.83523129
32
0
13
6400.375
23
2985.83523129
33
0
0
SOLID
5
6E
100
AcDbEntity
8
dimension
6
CONTINUOUS
62
7
370
0
100
AcDbTrace
10
7495.375
20
2998.32377102
30
0
11
7420.375
21
2985.83523129
31
0
12
7420.375
22
3010.81231076
32
0
13
7420.375
23
3010.81231076
33
0
0
MTEXT
5
6F
100
AcDbEntity
8
dimension
6
CONTINUOUS
62
7
370
0
100
AcDbMText
10
6910.375
20
3057.07377102
30
0
40
85
41
198.333333333
71
5
72
1
1
1170
7
standard
210
0
220
0
230
1
50
0
73
2
44
1
0
LINE
5
70
100
AcDbEntity
8
dimension
6
CONTINUOUS
62
7
370
0
100
AcDbLine
10
6325.375
20
2739.27377102
11
6325.375
21
3010.82377102
0
LINE
5
71
100
AcDbEntity
8
dimension
6
CONTINUOUS
62
7
370
0
100
AcDbLine
10
7495.375
20
2739.27377102
11
7495.375
21
3010.82377102
0
ENDBLK
5
53
330
51
100
AcDbEntity
8
0
100
AcDbBlockEnd
0
BLOCK
5
55
330
54
100
AcDbEntity
8
0
100
AcDbBlockBegin
2
*D3
70
1
10
0
20
0
3
*D3
1

0
LINE
5
72
100
AcDbEntity
8
dimension
6
CONTINUOUS
62
7
370
0
100
AcDbLine
10
-312.805175781
20
295.273771022
11
-312.805175781
21
2733.27377102
0
SOLID
5
73
100
AcDbEntity
8
dimension
6
CONTINUOUS
62
7
370
0
100
AcDbTrace
10
-312.805175781
20
295.273771022
30
0
11
-325.293715514
21
370.273771022
31
0
12
-300.316636048
22
370.273771022
32
0
13
-300.316636048
23
370.273771022
33
0
0
SOLID
5
74
100
AcDbEntity
8
dimension
6
CONTINUOUS
62
7
370
0
100
AcDbTrace
10
-312.805175781
20
2733.27377102
30
0
11
-300.316636048
21
2658.27377102
31
0
12
-325.293715514
22
2658.27377102
32
0
13
-325.293715514
23
2658.27377102
33
0
0
MTEXT
5
75
100
AcDbEntity
8
dimension
6
CONTINUOUS
62
7
370
0
100
AcDbMText
10
-371.555175781
20
1514.27377102
30
0
40
85
41
245.555555556
71
5
72
1
1
2438
7
standard
210
0
220
0
230
1
50
90
73
2
44
1
0
LINE
5
76
100
AcDbEntity
8
dimension
6
CONTINUOUS
62
7
370
0
100
AcDbLine
10
203.375
20
295.273771022
11
-325.305175781
21
295.273771022
0
LINE
5
77
100
AcDbEntity
8
dimension
6
CONTINUOUS
62
7
370
0
100
AcDbLine
10
203.375
20
2733.27377102
11
-325.305175781
21
2733.27377102
0
ENDBLK
5
56
330
54
100
AcDbEntity
8
0
100
AcDbBlockEnd
0
BLOCK
5
58
330
57
100
AcDbEntity
8
0
100
AcDbBlockBegin
2
*D5
70
1
10
0
20
0
3
*D5
1

0
LINE
5
78
100
AcDbEntity
8
dimension
6
CONTINUOUS
62
7
370
0
100
AcDbLine
10
-58.59375
20
339.273771022
11
-58.59375
21
2689.27377102
0
SOLID
5
79
100
AcDbEntity
8
dimension
6
CONTINUOUS
62
7
370
0
100
AcDbTrace
10
-58.59375
20
339.273771022
30
0
11
-71.0822897332
21
414.273771022
31
0
12
-46.1052102668
22
414.273771022
32
0
13
-46.1052102668
23
414.273771022
33
0
0
SOLID
5
7A
100
AcDbEntity
8
dimension
6
CONTINUOUS
62
7
370
0
100
AcDbTrace
10
-58.59375
20
2689.27377102
30
0
11
-46.1052102668
21
2614.27377102
31
0
12
-71.0822897332
22
2614.27377102
32
0
13
-71.0822897332
23
2614.27377102
33
0
0
MTEXT
5
7B
100
AcDbEntity
8
dimension
6
CONTINUOUS
62
7
370
0
100
AcDbMText
10
-117.34375
20
1514.27377102
30
0
40
85
41
236.111111111
71
5
72
1
1
2350
7
standard
210
0
220
0
230
1
50
90
73
2
44
1
0
LINE
5
7C
100
AcDbEntity
8
dimension
6
CONTINUOUS
62
7
370
0
100
AcDbLine
10
247.375
20
339.273771022
11
-71.09375
21
339.273771022
0
LINE
5
7D
100
AcDbEntity
8
dimension
6
CONTINUOUS
62
7
370
0
100
AcDbLine
10
247.375
20
2689.27377102
11
-71.09375
21
2689.27377102
0
ENDBLK
5
59
330
57
100
AcDbEntity
8
0
100
AcDbBlockEnd
0
BLOCK
5
5B
330
5A
100
AcDbEntity
8
0
100
AcDbBlockBegin
2
*D4
70
1
10
0
20
0
3
*D4
1

0
LINE
5
7E
100
AcDbEntity
8
dimension
6
CONTINUOUS
62
7
370
0
100
AcDbLine
10
253.375
20
-59.511385228
11
6145.375
21
-59.511385228
0
SOLID
5
7F
100
AcDbEntity
8
dimension
6
CONTINUOUS
62
7
370
0
100
AcDbTrace
10
253.375
20
-59.511385228
30
0
11
328.375
21
-47.0228454948
31
0
12
328.375
22
-71.9999249612
32
0
13
328.375
23
-71.9999249612
33
0
0
SOLID
5
80
100
AcDbEntity
8
dimension
6
CONTINUOUS
62
7
370
0
100
AcDbTrace
10
6145.375
20
-59.511385228
30
0
11
6070.375
21
-71.9999249612
31
0
12
6070.375
22
-47.0228454948
32
0
13
6070.375
23
-47.0228454948
33
0
0
MTEXT
5
81
100
AcDbEntity
8
dimension
6
CONTINUOUS
62
7
370
0
100
AcDbMText
10
3199.375
20
-0.76138522801
30
0
40
85
41
236.111111111
71
5
72
1
1
5892
7
standard
210
0
220
0
230
1
50
0
73
2
44
1
0
LINE
5
82
100
AcDbEntity
8
dimension
6
CONTINUOUS
62
7
370
0
100
AcDbLine
10
253.375
20
333.273771022
11
253.375
21
-72.011385228
0
LINE
5
83
100
AcDbEntity
8
dimension
6
CONTINUOUS
62
7
370
0
100
AcDbLine
10
6145.375
20
333.273771022
11
6145.375
21
-72.011385228
0
ENDBLK
5
5C
330
5A
100
AcDbEntity
8
0
100
AcDbBlockEnd
0
BLOCK
5
5E
330
5D
100
AcDbEntity
8
0
100
AcDbBlockBegin
2
refer
70
0
10
0
20
0
3
refer
1

0
LINE
5
84
100
AcDbEntity
8
fixtures
6
ByLayer
62
256
370
-1
100
AcDbLine
10
0
20
0
11
0
21
-55
0
LINE
5
85
100
AcDbEntity
8
fixtures
6
ByLayer
62
256
370
-1
100
AcDbLine
10
-60
20
0
11
-60
21
-55
0
LINE
5
86
100
AcDbEntity
8
fixtures
6
ByLayer
62
256
370
-1
100
AcDbLine
10
0
20
-50
11
-60
21
-50
0
LINE
5
87
100
AcDbEntity
8
fixtures
6
ByLayer
62
256
370
-1
100
AcDbLine
10
0
20
0
11
-60
21
0
0
ARC
5
88
100
AcDbEntity
8
fixtures
6
ByLayer
62
256
370
-1
100
AcDbCircle
10
-30
20
68.9692211372
40
127.54751189
100
AcDbArc
50
256.396206231
51
283.603793769
0
LINE
5
89
100
AcDbEntity
8
fixtures
6
ByLayer
62
256
370
-1
100
AcDbLine
10
0
20
-51
11
-60
21
-51
0
MTEXT
5
8A
100
AcDbEntity
8
fixtures
6
ByLayer
62
256
370
-1
100
AcDbMText
10
-57.2722082099
20
-19.3598590569
30
0
40
20
41
53.3333333333
71
4
72
5
1
Refr
7
iso
210
0
220
0
230
1
50
360
73
1
44
0.96
0
ENDBLK
5
5F
330
5D
100
AcDbEntity
8
0
100
AcDbBlockEnd
0
BLOCK
5
61
330
60
100
AcDbEntity
8
0
100
AcDbBlockBegin
2
sink
70
0
10
0
20
0
3
sink
1

0
ARC
5
8B
100
AcDbEntity
8
fixtures
6
ByLayer
62
256
370
-1
100
AcDbCircle
10
4.00260191002
20
0.99739808998
40
4.125
100
AcDbArc
50
76.0075830069
51
193.992416993
0
ARC
5
8C
100
AcDbEntity
8
fixtures
6
ByLayer
62
256
370
-1
100
AcDbCircle
10
30.99739809
20
0.99739808998
40
4.125
100
AcDbArc
50
346.007583007
51
103.992416993
0
ARC
5
8D
100
AcDbEntity
8
fixtures
6
ByLayer
62
256
370
-1
100
AcDbCircle
10
30.99739809
20
-20.99739809
40
4.125
100
AcDbArc
50
256.007583007
51
13.9924169931
0
ARC
5
8E
100
AcDbEntity
8
fixtures
6
ByLayer
62
256
370
-1
100
AcDbCircle
10
30.99739809
20
-35.00260191
40
4.125
100
AcDbArc
50
346.007583007
51
103.992416993
0
ARC
5
8F
100
AcDbEntity
8
fixtures
6
ByLayer
62
256
370
-1
100
AcDbCircle
10
4.00260191002
20
-20.99739809
40
4.125
100
AcDbArc
50
166.007583007
51
283.992416993
0
ARC
5
90
100
AcDbEntity
8
fixtures
6
ByLayer
62
256
370
-1
100
AcDbCircle
10
4.00260191002
20
-35.00260191
40
4.125
100
AcDbArc
50
76.0075830069
51
193.992416993
0
ARC
5
91
100
AcDbEntity
8
fixtures
6
ByLayer
62
256
370
-1
100
AcDbCircle
10
30.99739809
20
-56.99739809
40
4.125
100
AcDbArc
50
256.007583007
51
13.9924169931
0
ARC
5
92
100
AcDbEntity
8
fixtures
6
ByLayer
62
256
370
-1
100
AcDbCircle
10
4.00260191002
20
-56.99739809
40
4.125
100
AcDbArc
50
166.007583007
51
283.992416993
0
LINE
5
93
100
AcDbEntity
8
fixtures
6
ByLayer
62
256
370
-1
100
AcDbLine
10
30
20
-25
11
5
21
-25
0
LINE
5
94
100
AcDbEntity
8
fixtures
6
ByLayer
62
256
370
-1
100
AcDbLine
10
5
20
5
11
30
21
5
0
LINE
5
95
100
AcDbEntity
8
fixtures
6
ByLayer
62
256
370
-1
100
AcDbLine
10
5
20
-31
11
30
21
-31
0
LINE
5
96
100
AcDbEntity
8
fixtures
6
ByLayer
62
256
370
-1
100
AcDbLine
10
30
20
-61
11
5
21
-61
0
LINE
5
97
100
AcDbEntity
8
fixtures
6
ByLayer
62
256
370
-1
100
AcDbLine
10
35
20
-36
11
35
21
-56
0
LINE
5
98
100
AcDbEntity
8
fixtures
6
ByLayer
62
256
370
-1
100
AcDbLine
10
0
20
-56
11
0
21
-36
0
LINE
5
99
100
AcDbEntity
8
fixtures
6
ByLayer
62
256
370
-1
100
AcDbLine
10
0
20
-20
11
0
21
1.3073986338e-12
0
LINE
5
9A
100
AcDbEntity
8
fixtures
6
ByLayer
62
256
370
-1
100
AcDbLine
10
35
20
1.3073986338e-12
11
35
21
-20
0
ENDBLK
5
62
330
60
100
AcDbEntity
8
0
100
AcDbBlockEnd
0
BLOCK
5
64
330
63
100
AcDbEntity
8
0
100
AcDbBlockBegin
2
stove
70
0
10
0
20
0
3
stove
1

0
LINE
5
9B
100
AcDbEntity
8
fixtures
6
ByLayer
62
256
370
-1
100
AcDbLine
10
0
20
62
11
64
21
62
0
LINE
5
9C
100
AcDbEntity
8
fixtures
6
ByLayer
62
256
370
-1
100
AcDbLine
10
64
20
62
11
64
21
0
0
LINE
5
9D
100
AcDbEntity
8
fixtures
6
ByLayer
62
256
370
-1
100
AcDbLine
10
64
20
0
11
0
21
0
0
LINE
5
9E
100
AcDbEntity
8
fixtures
6
ByLayer
62
256
370
-1
100
AcDbLine
10
0
20
0
11
0
21
62
0
CIRCLE
5
9F
100
AcDbEntity
8
fixtures
6
ByLayer
62
256
370
-1
100
AcDbCircle
10
17
20
21.954456
40
10
0
CIRCLE
5
A0
100
AcDbEntity
8
fixtures
6
ByLayer
62
256
370
-1
100
AcDbCircle
10
47
20
21.954456
40
7
0
CIRCLE
5
A1
100
AcDbEntity
8
fixtures
6
ByLayer
62
256
370
-1
100
AcDbCircle
10
47
20
46.954456
40
10
0
CIRCLE
5
A2
100
AcDbEntity
8
fixtures
6
ByLayer
62
256
370
-1
100
AcDbCircle
10
17
20
46.954456
40
7
0
LINE
5
A3
100
AcDbEntity
8
fixtures
6
ByLayer
62
256
370
-1
100
AcDbLine
10
0
20
6
11
64
21
6
0
ENDBLK
5
65
330
63
100
AcDbEntity
8
0
100
AcDbBlockEnd
0
ENDSEC
0
SECTION
2
ENTITIES
0
LINE
5
A4
100
AcDbEntity
8
0
6
ByLayer
62
256
370
-1
100
AcDbLine
10
209.375
20
295.273771022
11
6305.375
21
295.273771022
0
LINE
5
A5
100
AcDbEntity
8
0
6
ByLayer
62
256
370
-1
100
AcDbLine
10
209.375
20
295.273771022
11
209.375
21
2733.27377102
0
LINE
5
A6
100
AcDbEntity
8
0
6
ByLayer
62
256
370
-1
100
AcDbLine
10
6305.375
20
295.273771022
11
6305.375
21
2733.27377102
0
LINE
5
A7
100
AcDbEntity
8
0
6
ByLayer
62
256
370
-1
100
AcDbLine
10
209.375
20
2733.27377102
11
6305.375
21
2733.27377102
0
LINE
5
A8
100
AcDbEntity
8
0
6
ByLayer
62
256
370
-1
100
AcDbLine
10
253.375
20
2689.27377102
11
6305.375
21
2689.27377102
0
LINE
5
A9
100
AcDbEntity
8
0
6
ByLayer
62
256
370
-1
100
AcDbLine
10
253.375
20
339.273771022
11
6305.375
21
339.273771022
0
LINE
5
AA
100
AcDbEntity
8
0
6
ByLayer
62
256
370
-1
100
AcDbLine
10
253.375
20
339.273771022
11
253.375
21
2689.27377102
0
LINE
5
AB
100
AcDbEntity
8
0
6
ByLayer
62
256
370
-1
100
AcDbLine
10
6325.375
20
2733.27377102
11
7495.375
21
2733.27377102
0
LINE
5
AC
100
AcDbEntity
8
0
6
ByLayer
62
256
370
-1
100
AcDbLine
10
6325.375
20
2693.27377102
11
7495.375
21
2693.27377102
0
LINE
5
AD
100
AcDbEntity
8
0
6
ByLayer
62
256
370
-1
100
AcDbLine
10
6325.375
20
295.273771022
11
7495.375
21
295.273771022
0
LINE
5
AE
100
AcDbEntity
8
0
6
ByLayer
62
256
370
-1
100
AcDbLine
10
6325.375
20
335.273771022
11
7495.375
21
335.273771022
0
LINE
5
AF
100
AcDbEntity
8
0
6
ByLayer
62
256
370
-1
100
AcDbLine
10
7495.375
20
2733.27377102
11
7495.375
21
2693.27377102
0
LINE
5
B0
100
AcDbEntity
8
0
6
ByLayer
62
256
370
-1
100
AcDbLine
10
6325.375
20
2733.27377102
11
6325.375
21
2693.27377102
0
LINE
5
B1
100
AcDbEntity
8
0
6
ByLayer
62
256
370
-1
100
AcDbLine
10
7495.375
20
295.273771022
11
7495.375
21
335.273771022
0
DIMENSION
5
B2
100
AcDbEntity
8
dimension
6
ByLayer
62
256
370
-1
100
AcDbDimension
2
*D1
10
6305.375
20
2996.52377102
30
0
11
3257.375
21
3055.27377102
31
0
70
32
71
5
72
0
3
Standard
53
0
210
0
220
0
230
1
100
AcDbAlignedDimension
13
209.375
23
2733.27377102
33
0
14
6305.375
24
2733.27377102
34
0
100
AcDbRotatedDimension
0
DIMENSION
5
B3
100
AcDbEntity
8
dimension
6
ByLayer
62
256
370
-1
100
AcDbDimension
2
*D2
10
7495.375
20
2998.32377102
30
0
11
6910.375
21
3057.07377102
31
0
70
32
71
5
72
0
3
Standard
53
0
210
0
220
0
230
1
100
AcDbAlignedDimension
13
6325.375
23
2733.27377102
33
0
14
7495.375
24
2733.27377102
34
0
100
AcDbRotatedDimension
0
DIMENSION
5
B4
100
AcDbEntity
8
dimension
6
ByLayer
62
256
370
-1
100
AcDbDimension
2
*D3
10
-312.805175781
20
2733.27377102
30
0
11
-371.555175781
21
1514.27377102
31
0
70
32
71
5
72
0
3
Standard
53
0
210
0
220
0
230
1
100
AcDbAlignedDimension
13
209.375
23
295.273771022
33
0
14
209.375
24
2733.27377102
34
0
50
90
100
AcDbRotatedDimension
0
DIMENSION
5
B5
100
AcDbEntity
8
dimension
6
ByLayer
62
256
370
-1
100
AcDbDimension
2
*D4
10
6145.375
20
-59.511385228
30
0
11
3199.375
21
-0.76138522801
31
0
70
32
71
5
72
0
3
Standard
53
0
210
0
220
0
230
1
100
AcDbAlignedDimension
13
253.375
23
339.273771022
33
0
14
6145.375
24
339.273771022
34
0
100
AcDbRotatedDimension
0
DIMENSION
5
B6
100
AcDbEntity
8
dimension
6
ByLayer
62
256
370
-1
100
AcDbDimension
2
*D5
10
-58.59375
20
2689.27377102
30
0
11
-117.34375
21
1514.27377102
31
0
70
32
71
5
72
0
3
Standard
53
0
210
0
220
0
230
1
100
AcDbAlignedDimension
13
253.375
23
339.273771022
33
0
14
253.375
24
2689.27377102
34
0
50
90
100
AcDbRotatedDimension
0
LINE
5
B7
100
AcDbEntity
8
0
6
DOT2
62
256
370
-1
100
AcDbLine
10
6145.375
20
339.273771022
11
6145.375
21
2689.27377102
0
LINE
5
B8
100
AcDbEntity
8
walls
6
ByLayer
62
256
370
-1
100
AcDbLine
10
303.375
20
2639.27377102
11
6305.375
21
2639.27377102
0
LINE
5
B9
100
AcDbEntity
8
walls
6
ByLayer
62
256
370
-1
100
AcDbLine
10
303.375
20
389.273771022
11
6305.375
21
389.273771022
0
LINE
5
BA
100
AcDbEntity
8
walls
6
ByLayer
62
256
370
-1
100
AcDbLine
10
303.375
20
389.273771022
11
303.375
21
2639.27377102
0
LINE
5
BB
100
AcDbEntity
8
cabinates
6
ByLayer
62
256
370
-1
100
AcDbLine
10
1703.375
20
389.273771022
11
1003.375
21
389.273771022
0
LINE
5
BC
100
AcDbEntity
8
cabinates
6
ByLayer
62
256
370
-1
100
AcDbLine
10
2403.375
20
2039.27377102
11
2403.375
21
2639.27377102
0
LINE
5
BD
100
AcDbEntity
8
cabinates
6
ByLayer
62
256
370
-1
100
AcDbLine
10
2403.375
20
989.273771022
11
2403.375
21
389.273771022
0
LINE
5
BE
100
AcDbEntity
8
cabinates
6
ByLayer
62
256
370
-1
100
AcDbLine
10
903.375
20
989.273771022
11
903.375
21
2039.27377102
0
INSERT
5
BF
100
AcDbEntity
8
fixtures
6
ByLayer
62
256
370
-1
100
AcDbBlockReference
2
sink
10
453.375
20
1794.27377102
30
0
41
10
42
10
43
0
50
0
70
1
71
1
44
0
45
0
0
LINE
5
C0
100
AcDbEntity
8
cabinates
6
ByLayer
62
256
370
-1
100
AcDbLine
10
903.375
20
2039.27377102
11
1103.375
21
2039.27377102
0
LINE
5
C1
100
AcDbEntity
8
cabinates
6
ByLayer
62
256
370
-1
100
AcDbLine
10
1803.375
20
2039.27377102
11
2403.375
21
2039.27377102
0
INSERT
5
C2
100
AcDbEntity
8
fixtures
6
ByLayer
62
256
370
-1
100
AcDbBlockReference
2
refer
10
1753.375
20
2589.27377102
30
0
41
10
42
10
43
0
50
0
70
1
71
1
44
0
45
0
0
LINE
5
C3
100
AcDbEntity
8
cabinates
6
ByLayer
62
256
370
-1
100
AcDbLine
10
1803.375
20
2039.27377102
11
1803.375
21
2639.27377102
0
LINE
5
C4
100
AcDbEntity
8
cabinates
6
ByLayer
62
256
370
-1
100
AcDbLine
10
1103.375
20
2039.27377102
11
1103.375
21
2639.27377102
0
LINE
5
C5
100
AcDbEntity
8
cabinates
6
ByLayer
62
256
370
-1
100
AcDbLine
10
1803.375
20
989.273771022
11
1803.375
21
389.273771022
0
LINE
5
C6
100
AcDbEntity
8
cabinates
6
ByLayer
62
256
370
-1
100
AcDbLine
10
1103.375
20
989.273771022
11
1103.375
21
389.273771022
0
LINE
5
C7
100
AcDbEntity
8
cabinates
6
ByLayer
62
256
370
-1
100
AcDbLine
10
1003.375
20
989.273771022
11
1103.375
21
989.273771022
0
LINE
5
C8
100
AcDbEntity
8
cabinates
6
ByLayer
62
256
370
-1
100
AcDbLine
10
903.375
20
989.273771022
11
1103.375
21
989.273771022
0
LINE
5
C9
100
AcDbEntity
8
cabinates
6
ByLayer
62
256
370
-1
100
AcDbLine
10
1803.375
20
989.273771022
11
2403.375
21
989.273771022
0
INSERT
5
CA
100
AcDbEntity
8
fixtures
6
ByLayer
62
256
370
-1
100
AcDbBlockReference
2
stove
10
1133.375
20
419.273771022
30
0
41
10
42
10
43
0
50
0
70
1
71
1
44
0
45
0
0
LINE
5
CB
100
AcDbEntity
8
cabinates
6
ByLayer
62
256
370
-1
100
AcDbLine
10
3203.375
20
2039.27377102
11
3203.375
21
2639.27377102
0
LINE
5
CC
100
AcDbEntity
8
cabinates
6
ByLayer
62
256
370
-1
100
AcDbLine
10
2403.375
20
2039.27377102
11
3203.375
21
2039.27377102
0
LINE
5
CD
100
AcDbEntity
8
cabinates
6
ByLayer
62
256
370
-1
100
AcDbLine
10
3203.375
20
989.273771022
11
3203.375
21
389.273771022
0
LINE
5
CE
100
AcDbEntity
8
cabinates
6
ByLayer
62
256
370
-1
100
AcDbLine
10
2403.375
20
989.273771022
11
3203.375
21
989.273771022
0
LINE
5
CF
100
AcDbEntity
8
doors
6
ByLayer
62
256
370
-1
100
AcDbLine
10
6205.375
20
2639.27377102
11
6255.375
21
2639.27377102
0
LINE
5
D0
100
AcDbEntity
8
doors
6
ByLayer
62
256
370
-1
100
AcDbLine
10
6255.375
20
2639.27377102
11
6255.375
21
1514.27377102
0
LINE
5
D1
100
AcDbEntity
8
doors
6
ByLayer
62
256
370
-1
100
AcDbLine
10
6255.375
20
1514.27377102
11
6205.375
21
1514.27377102
0
LINE
5
D2
100
AcDbEntity
8
doors
6
ByLayer
62
256
370
-1
100
AcDbLine
10
6205.375
20
1514.27377102
11
6205.375
21
2639.27377102
0
LINE
5
D3
100
AcDbEntity
8
doors
6
ByLayer
62
256
370
-1
100
AcDbLine
10
6205.375
20
1514.27377102
11
6155.375
21
1514.27377102
0
LINE
5
D4
100
AcDbEntity
8
doors
6
ByLayer
62
256
370
-1
100
AcDbLine
10
6155.375
20
1514.27377102
11
6155.375
21
389.273771022
0
LINE
5
D5
100
AcDbEntity
8
doors
6
ByLayer
62
256
370
-1
100
AcDbLine
10
6155.375
20
389.273771022
11
6205.375
21
389.273771022
0
LINE
5
D6
100
AcDbEntity
8
doors
6
ByLayer
62
256
370
-1
100
AcDbLine
10
6205.375
20
389.273771022
11
6205.375
21
1514.27377102
0
MTEXT
5
D7
100
AcDbEntity
8
text
6
ByLayer
62
256
370
-1
100
AcDbMText
10
1852.62758131
20
1606.01157211
30
0
40
90
41
140
71
1
72
1
1
Kit
7

210
0
220
0
230
1
50
0
73
2
44
1
0
MTEXT
5
D8
100
AcDbEntity
8
text
6
ByLayer
62
256
370
-1
100
AcDbMText
10
2166.0550065
20
-734.255934406
30
0
40
120
41
2083.33333333
71
1
72
1
1
6m container Kitchen unit
7

210
0
220
0
230
1
50
0
73
2
44
1
0
ENDSEC
0
SECTION
2
OBJECTS
0
DICTIONARY
5
C
330
0
100
AcDbDictionary
281
1
3
ACAD_GROUP
350
D
0
DICTIONARY
5
D
330
C
100
AcDbDictionary
281
1
0
ENDSEC
0
EOF
