999
dxfrw 0.5.11
0
SECTION
2
HEADER
9
$ACADVER
1
AC1021
9
$HANDSEED
5
20000
9
$DWGCODEPAGE
3
ANSI_1252
9
$INSBASE
10
0
20
0
30
0
9
$EXTMIN
10
-3631.09154673
20
-1596.35299129
30
0
9
$EXTMAX
10
15624.6481242
20
6831.54548292
30
0
9
$LIMMIN
10
0
20
0
9
$LIMMAX
10
420
20
297
9
$ORTHOMODE
70
0
9
$LTSCALE
40
1
9
$TEXTSTYLE
7
STANDARD
9
$CLAYER
8
dimension
9
$DIMASZ
40
75
9
$DIMLFAC
40
1
9
$DIMSCALE
40
1
9
$DIMEXO
40
30
9
$DIMEXE
40
12.5
9
$DIMTXT
40
85
9
$DIMTSZ
40
0
9
$DIMAUNIT
70
0
9
$DIMADEC
70
2
9
$DIMLUNIT
70
2
9
$DIMSTYLE
2
STANDARD
9
$DIMGAP
40
16.25
9
$DIMTIH
70
0
9
$LUNITS
70
2
9
$LUPREC
70
4
9
$AUNITS
70
0
9
$AUPREC
70
2
9
$SPLINESEGS
70
8
9
$GRIDMODE
70
1
9
$SNAPSTYLE
70
0
9
$GRIDUNIT
10
0
20
0
9
$PINSBASE
10
0
20
0
30
0
9
$PLIMMIN
10
0
20
0
9
$PLIMMAX
10
297
20
210
9
$INSUNITS
70
4
9
$PSVPSCALE
40
1
0
ENDSEC
0
SECTION
2
CLASSES
0
ENDSEC
0
SECTION
2
TABLES
0
TABLE
2
VPORT
5
8
330
0
100
AcDbSymbolTable
70
1
0
VPORT
5
31
330
2
100
AcDbSymbolTableRecord
100
AcDbViewportTableRecord
2
*ACTIVE
70
0
10
0
20
0
11
1
21
1
12
491.962415124
22
2957.29329989
13
0
23
0
14
10
24
10
15
10
25
10
16
0
26
0
36
1
17
0
27
0
37
0
40
1157.37311763
41
2.10626702997
42
50
43
0
44
0
50
0
51
0
71
0
72
100
73
1
74
3
75
0
76
1
77
0
78
0
281
0
65
1
110
0
120
0
130
0
111
1
121
0
131
0
112
0
122
1
132
0
79
0
146
0
348
10020
60
7
61
5
292
1
282
1
141
0
142
0
63
250
421
3358443
0
ENDTAB
0
TABLE
2
LTYPE
5
5
330
0
100
AcDbSymbolTable
70
4
0
LTYPE
5
14
330
5
100
AcDbSymbolTableRecord
100
AcDbLinetypeTableRecord
2
ByBlock
70
0
3

72
65
73
0
40
0
0
LTYPE
5
15
330
5
100
AcDbSymbolTableRecord
100
AcDbLinetypeTableRecord
2
ByLayer
70
0
3

72
65
73
0
40
0
0
LTYPE
5
16
330
5
100
AcDbSymbolTableRecord
100
AcDbLinetypeTableRecord
2
Continuous
70
0
3
Solid line
72
65
73
0
40
0
0
LTYPE
5
32
330
5
100
AcDbSymbolTableRecord
100
AcDbLinetypeTableRecord
2
DOT
70
0
3
Dot . . . . . . . . . . . . . . . . . . . . . .
72
65
73
2
40
6.35
49
0
74
0
49
-6.35
74
0
0
LTYPE
5
33
330
5
100
AcDbSymbolTableRecord
100
AcDbLinetypeTableRecord
2
DOT2
70
0
3
Dot (.5x) .....................................
72
65
73
2
40
3.175
49
0
74
0
49
-3.175
74
0
0
LTYPE
5
34
330
5
100
AcDbSymbolTableRecord
100
AcDbLinetypeTableRecord
2
DOTX2
70
0
3
Dot (2x) .  .  .  .  .  .  .  .  .  .  .  .  .
72
65
73
2
40
12.7
49
0
74
0
49
-12.7
74
0
0
LTYPE
5
35
330
5
100
AcDbSymbolTableRecord
100
AcDbLinetypeTableRecord
2
DASHED
70
0
3
Dot . . . . . . . . . . . . . . . . . . . . . .
72
65
73
2
40
19.05
49
12.7
74
0
49
-6.35
74
0
0
LTYPE
5
36
330
5
100
AcDbSymbolTableRecord
100
AcDbLinetypeTableRecord
2
DASHED2
70
0
3
Dashed (.5x) _ _ _ _ _ _ _ _ _ _ _ _ _ _ _ _ _
72
65
73
2
40
9.525
49
6.35
74
0
49
-3.175
74
0
0
LTYPE
5
37
330
5
100
AcDbSymbolTableRecord
100
AcDbLinetypeTableRecord
2
DASHEDX2
70
0
3
Dashed (2x) ____  ____  ____  ____  ____  ___
72
65
73
2
40
38.1
49
25.4
74
0
49
-12.7
74
0
0
LTYPE
5
38
330
5
100
AcDbSymbolTableRecord
100
AcDbLinetypeTableRecord
2
DASHDOT
70
0
3
Dash dot __ . __ . __ . __ . __ . __ . __ . __
72
65
73
4
40
25.4
49
12.7
74
0
49
-6.35
74
0
49
0
74
0
49
-6.35
74
0
0
LTYPE
5
39
330
5
100
AcDbSymbolTableRecord
100
AcDbLinetypeTableRecord
2
DASHDOT2
70
0
3
Dash dot (.5x) _._._._._._._._._._._._._._._.
72
65
73
4
40
12.7
49
6.35
74
0
49
-3.175
74
0
49
0
74
0
49
-3.175
74
0
0
LTYPE
5
3A
330
5
100
AcDbSymbolTableRecord
100
AcDbLinetypeTableRecord
2
DASHDOTX2
70
0
3
Dash dot (2x) ____  .  ____  .  ____  .  ___
72
65
73
4
40
50.8
49
25.4
74
0
49
-12.7
74
0
49
0
74
0
49
-12.7
74
0
0
LTYPE
5
3B
330
5
100
AcDbSymbolTableRecord
100
AcDbLinetypeTableRecord
2
DIVIDE
70
0
3
Divide ____ . . ____ . . ____ . . ____ . . ____
72
65
73
6
40
31.75
49
12.7
74
0
49
-6.35
74
0
49
0
74
0
49
-6.35
74
0
49
0
74
0
49
-6.35
74
0
0
LTYPE
5
3C
330
5
100
AcDbSymbolTableRecord
100
AcDbLinetypeTableRecord
2
DIVIDE2
70
0
3
Divide (.5x) __..__..__..__..__..__..__..__.._
72
65
73
6
40
15.875
49
6.35
74
0
49
-3.175
74
0
49
0
74
0
49
-3.175
74
0
49
0
74
0
49
-3.175
74
0
0
LTYPE
5
3D
330
5
100
AcDbSymbolTableRecord
100
AcDbLinetypeTableRecord
2
DIVIDEX2
70
0
3
Divide (2x) ________  .  .  ________  .  .  _
72
65
73
6
40
63.5
49
25.4
74
0
49
-12.7
74
0
49
0
74
0
49
-12.7
74
0
49
0
74
0
49
-12.7
74
0
0
LTYPE
5
3E
330
5
100
AcDbSymbolTableRecord
100
AcDbLinetypeTableRecord
2
BORDER
70
0
3
Border __ __ . __ __ . __ __ . __ __ . __ __ .
72
65
73
6
40
44.45
49
12.7
74
0
49
-6.35
74
0
49
12.7
74
0
49
-6.35
74
0
49
0
74
0
49
-6.35
74
0
0
LTYPE
5
3F
330
5
100
AcDbSymbolTableRecord
100
AcDbLinetypeTableRecord
2
BORDER2
70
0
3
Border (.5x) __.__.__.__.__.__.__.__.__.__.__.
72
65
73
6
40
22.225
49
6.35
74
0
49
-3.175
74
0
49
6.35
74
0
49
-3.175
74
0
49
0
74
0
49
-3.175
74
0
0
LTYPE
5
40
330
5
100
AcDbSymbolTableRecord
100
AcDbLinetypeTableRecord
2
BORDERX2
70
0
3
Border (2x) ____  ____  .  ____  ____  .  ___
72
65
73
6
40
88.9
49
25.4
74
0
49
-12.7
74
0
49
25.4
74
0
49
-12.7
74
0
49
0
74
0
49
-12.7
74
0
0
LTYPE
5
41
330
5
100
AcDbSymbolTableRecord
100
AcDbLinetypeTableRecord
2
CENTER
70
0
3
Center ____ _ ____ _ ____ _ ____ _ ____ _ ____
72
65
73
4
40
50.8
49
31.75
74
0
49
-6.35
74
0
49
6.35
74
0
49
-6.35
74
0
0
LTYPE
5
42
330
5
100
AcDbSymbolTableRecord
100
AcDbLinetypeTableRecord
2
CENTER2
70
0
3
Center (.5x) ___ _ ___ _ ___ _ ___ _ ___ _ ___
72
65
73
4
40
28.575
49
19.05
74
0
49
-3.175
74
0
49
3.175
74
0
49
-3.175
74
0
0
LTYPE
5
43
330
5
100
AcDbSymbolTableRecord
100
AcDbLinetypeTableRecord
2
CENTERX2
70
0
3
Center (2x) ________  __  ________  __  _____
72
65
73
4
40
101.6
49
63.5
74
0
49
-12.7
74
0
49
12.7
74
0
49
-12.7
74
0
0
ENDTAB
0
TABLE
2
LAYER
5
2
330
0
100
AcDbSymbolTable
70
1
0
LAYER
5
10
330
2
100
AcDbSymbolTableRecord
100
AcDbLayerTableRecord
2
0
70
0
62
7
6
CONTINUOUS
370
0
390
F
0
LAYER
5
44
330
2
100
AcDbSymbolTableRecord
100
AcDbLayerTableRecord
2
bogus
70
0
62
3
6
CONTINUOUS
370
0
390
F
0
LAYER
5
45
330
2
100
AcDbSymbolTableRecord
100
AcDbLayerTableRecord
2
cabinates
70
0
62
96
420
32768
6
CONTINUOUS
370
0
390
F
0
LAYER
5
46
330
2
100
AcDbSymbolTableRecord
100
AcDbLayerTableRecord
2
container
70
0
62
7
6
CONTINUOUS
370
0
390
F
0
LAYER
5
47
330
2
100
AcDbSymbolTableRecord
100
AcDbLayerTableRecord
2
dimension
70
0
62
5
6
CONTINUOUS
370
0
390
F
0
LAYER
5
48
330
2
100
AcDbSymbolTableRecord
100
AcDbLayerTableRecord
2
doors
70
0
62
96
420
32768
6
CONTINUOUS
370
0
390
F
0
LAYER
5
49
330
2
100
AcDbSymbolTableRecord
100
AcDbLayerTableRecord
2
eletrical
70
0
62
136
6
CONTINUOUS
370
-3
390
F
0
LAYER
5
4A
330
2
100
AcDbSymbolTableRecord
100
AcDbLayerTableRecord
2
fixtures
70
0
62
7
6
CONTINUOUS
370
-3
390
F
0
LAYER
5
4B
330
2
100
AcDbSymbolTableRecord
100
AcDbLayerTableRecord
2
tatami
70
0
62
30
6
DOT2
370
0
390
F
0
LAYER
5
4C
330
2
100
AcDbSymbolTableRecord
100
AcDbLayerTableRecord
2
text
70
0
62
7
6
CONTINUOUS
370
0
390
F
0
LAYER
5
4D
330
2
100
AcDbSymbolTableRecord
100
AcDbLayerTableRecord
2
wall
70
0
62
7
6
CONTINUOUS
370
0
390
F
0
ENDTAB
0
TABLE
2
STYLE
5
3
330
0
100
AcDbSymbolTable
70
3
0
STYLE
5
4E
330
2
100
AcDbSymbolTableRecord
100
AcDbTextStyleTableRecord
2
STANDARD
70
0
40
0
41
1
50
0
71
0
42
1
3
STANDARD
4

0
STYLE
5
4F
330
2
100
AcDbSymbolTableRecord
100
AcDbTextStyleTableRecord
2
standard
70
0
40
0
41
1
50
0
71
0
42
1
3
standard
4

0
STYLE
5
50
330
2
100
AcDbSymbolTableRecord
100
AcDbTextStyleTableRecord
2
iso
70
0
40
0
41
1
50
0
71
0
42
1
3
iso
4

0
ENDTAB
0
TABLE
2
VIEW
5
6
330
0
100
AcDbSymbolTable
70
0
0
ENDTAB
0
TABLE
2
UCS
5
7
330
0
100
AcDbSymbolTable
70
0
0
ENDTAB
0
TABLE
2
APPID
5
9
330
0
100
AcDbSymbolTable
70
1
0
APPID
5
12
330
9
100
AcDbSymbolTableRecord
100
AcDbRegAppTableRecord
2
ACAD
70
0
0
ENDTAB
0
TABLE
2
DIMSTYLE
5
A
330
0
100
AcDbSymbolTable
70
1
100
AcDbDimStyleTable
71
1
0
DIMSTYLE
105
51
330
A
100
AcDbSymbolTableRecord
100
AcDbDimStyleTableRecord
2
Standard
70
0
40
1
41
75
42
30
43
0.38
44
12.5
45
0
46
0
47
0
48
0
140
85
141
0.09
142
0
143
25.4
144
1
145
0
146
1
147
16.25
148
0
71
0
72
0
73
0
74
1
75
0
76
0
77
0
78
0
79
0
170
0
171
2
172
0
173
0
174
0
175
0
176
0
177
0
178
0
179
0
271
4
272
4
273
2
274
2
275
0
276
0
277
2
278
46
279
0
280
0
281
0
282
0
283
1
284
0
285
0
286
0
288
0
289
3
340
Standard
341

371
-2
372
-2
0
ENDTAB
0
TABLE
2
BLOCK_RECORD
5
1
330
0
100
AcDbSymbolTable
70
2
0
BLOCK_RECORD
5
1F
330
1
100
AcDbSymbolTableRecord
100
AcDbBlockTableRecord
2
*Model_Space
70
0
280
1
281
0
0
BLOCK_RECORD
5
1E
330
1
100
AcDbSymbolTableRecord
100
AcDbBlockTableRecord
2
*Paper_Space
70
0
280
1
281
0
0
BLOCK_RECORD
5
52
330
1
100
AcDbSymbolTableRecord
100
AcDbBlockTableRecord
2
*D10
70
0
280
1
281
0
0
BLOCK_RECORD
5
55
330
1
100
AcDbSymbolTableRecord
100
AcDbBlockTableRecord
2
*D18
70
0
280
1
281
0
0
BLOCK_RECORD
5
58
330
1
100
AcDbSymbolTableRecord
100
AcDbBlockTableRecord
2
*D21
70
0
280
1
281
0
0
BLOCK_RECORD
5
5B
330
1
100
AcDbSymbolTableRecord
100
AcDbBlockTableRecord
2
*D19
70
0
280
1
281
0
0
BLOCK_RECORD
5
5E
330
1
100
AcDbSymbolTableRecord
100
AcDbBlockTableRecord
2
*D9
70
0
280
1
281
0
0
BLOCK_RECORD
5
61
330
1
100
AcDbSymbolTableRecord
100
AcDbBlockTableRecord
2
*D1
70
0
280
1
281
0
0
BLOCK_RECORD
5
64
330
1
100
AcDbSymbolTableRecord
100
AcDbBlockTableRecord
2
*D12
70
0
280
1
281
0
0
BLOCK_RECORD
5
67
330
1
100
AcDbSymbolTableRecord
100
AcDbBlockTableRecord
2
*D20
70
0
280
1
281
0
0
BLOCK_RECORD
5
6A
330
1
100
AcDbSymbolTableRecord
100
AcDbBlockTableRecord
2
*D25
70
0
280
1
281
0
0
BLOCK_RECORD
5
6D
330
1
100
AcDbSymbolTableRecord
100
AcDbBlockTableRecord
2
*D2
70
0
280
1
281
0
0
BLOCK_RECORD
5
70
330
1
100
AcDbSymbolTableRecord
100
AcDbBlockTableRecord
2
*D8
70
0
280
1
281
0
0
BLOCK_RECORD
5
73
330
1
100
AcDbSymbolTableRecord
100
AcDbBlockTableRecord
2
*D4
70
0
280
1
281
0
0
BLOCK_RECORD
5
76
330
1
100
AcDbSymbolTableRecord
100
AcDbBlockTableRecord
2
*D14
70
0
280
1
281
0
0
BLOCK_RECORD
5
79
330
1
100
AcDbSymbolTableRecord
100
AcDbBlockTableRecord
2
*D11
70
0
280
1
281
0
0
BLOCK_RECORD
5
7C
330
1
100
AcDbSymbolTableRecord
100
AcDbBlockTableRecord
2
*D13
70
0
280
1
281
0
0
BLOCK_RECORD
5
7F
330
1
100
AcDbSymbolTableRecord
100
AcDbBlockTableRecord
2
*D17
70
0
280
1
281
0
0
BLOCK_RECORD
5
82
330
1
100
AcDbSymbolTableRecord
100
AcDbBlockTableRecord
2
*D15
70
0
280
1
281
0
0
BLOCK_RECORD
5
85
330
1
100
AcDbSymbolTableRecord
100
AcDbBlockTableRecord
2
*D6
70
0
280
1
281
0
0
BLOCK_RECORD
5
88
330
1
100
AcDbSymbolTableRecord
100
AcDbBlockTableRecord
2
*D27
70
0
280
1
281
0
0
BLOCK_RECORD
5
8B
330
1
100
AcDbSymbolTableRecord
100
AcDbBlockTableRecord
2
*D3
70
0
280
1
281
0
0
BLOCK_RECORD
5
8E
330
1
100
AcDbSymbolTableRecord
100
AcDbBlockTableRecord
2
*D7
70
0
280
1
281
0
0
BLOCK_RECORD
5
91
330
1
100
AcDbSymbolTableRecord
100
AcDbBlockTableRecord
2
*D24
70
0
280
1
281
0
0
BLOCK_RECORD
5
94
330
1
100
AcDbSymbolTableRecord
100
AcDbBlockTableRecord
2
*D16
70
0
280
1
281
0
0
BLOCK_RECORD
5
97
330
1
100
AcDbSymbolTableRecord
100
AcDbBlockTableRecord
2
*D5
70
0
280
1
281
0
0
BLOCK_RECORD
5
9A
330
1
100
AcDbSymbolTableRecord
100
AcDbBlockTableRecord
2
*D22
70
0
280
1
281
0
0
BLOCK_RECORD
5
9D
330
1
100
AcDbSymbolTableRecord
100
AcDbBlockTableRecord
2
*D26
70
0
280
1
281
0
0
BLOCK_RECORD
5
A0
330
1
100
AcDbSymbolTableRecord
100
AcDbBlockTableRecord
2
*D23
70
0
280
1
281
0
0
BLOCK_RECORD
5
A3
330
1
100
AcDbSymbolTableRecord
100
AcDbBlockTableRecord
2
refer
70
0
280
1
281
0
0
BLOCK_RECORD
5
A6
330
1
100
AcDbSymbolTableRecord
100
AcDbBlockTableRecord
2
sink
70
0
280
1
281
0
0
BLOCK_RECORD
5
A9
330
1
100
AcDbSymbolTableRecord
100
AcDbBlockTableRecord
2
stove
70
0
280
1
281
0
0
BLOCK_RECORD
5
AC
330
1
100
AcDbSymbolTableRecord
100
AcDbBlockTableRecord
2
20ftcontainer-kitchenUnit-0
70
0
280
1
281
0
0
BLOCK_RECORD
5
AF
330
1
100
AcDbSymbolTableRecord
100
AcDbBlockTableRecord
2
outlet110HorUp-0
70
0
280
1
281
0
0
BLOCK_RECORD
5
B2
330
1
100
AcDbSymbolTableRecord
100
AcDbBlockTableRecord
2
door700VerLeft-1
70
0
280
1
281
0
0
BLOCK_RECORD
5
B5
330
1
100
AcDbSymbolTableRecord
100
AcDbBlockTableRecord
2
WCVerRight-2
70
0
280
1
281
0
0
BLOCK_RECORD
5
B8
330
1
100
AcDbSymbolTableRecord
100
AcDbBlockTableRecord
2
tub_ver-0
70
0
280
1
281
0
0
BLOCK_RECORD
5
BB
330
1
100
AcDbSymbolTableRecord
100
AcDbBlockTableRecord
2
door800VerLeft-0
70
0
280
1
281
0
0
BLOCK_RECORD
5
BE
330
1
100
AcDbSymbolTableRecord
100
AcDbBlockTableRecord
2
KyotoKyomaTatamiVertical-0
70
0
280
1
281
0
0
BLOCK_RECORD
5
C1
330
1
100
AcDbSymbolTableRecord
100
AcDbBlockTableRecord
2
KyotoKyomaTatamiVertical-1
70
0
280
1
281
0
0
BLOCK_RECORD
5
C4
330
1
100
AcDbSymbolTableRecord
100
AcDbBlockTableRecord
2
KyotoKyomaTatamiVertical-2
70
0
280
1
281
0
0
BLOCK_RECORD
5
C7
330
1
100
AcDbSymbolTableRecord
100
AcDbBlockTableRecord
2
KyotoKyomaTatamiVertical-3
70
0
280
1
281
0
0
BLOCK_RECORD
5
CA
330
1
100
AcDbSymbolTableRecord
100
AcDbBlockTableRecord
2
KyotoKyomaTatamiVertical-4
70
0
280
1
281
0
0
BLOCK_RECORD
5
CD
330
1
100
AcDbSymbolTableRecord
100
AcDbBlockTableRecord
2
KyotoKyomaTatamiVertical-5
70
0
280
1
281
0
0
BLOCK_RECORD
5
D0
330
1
100
AcDbSymbolTableRecord
100
AcDbBlockTableRecord
2
KyotoKyomaTatamiVertical-6
70
0
280
1
281
0
0
BLOCK_RECORD
5
D3
330
1
100
AcDbSymbolTableRecord
100
AcDbBlockTableRecord
2
KyotoKyomaTatamiVertical-7
70
0
280
1
281
0
0
BLOCK_RECORD
5
D6
330
1
100
AcDbSymbolTableRecord
100
AcDbBlockTableRecord
2
KyotoKyomaTatamiVertical-8
70
0
280
1
281
0
0
BLOCK_RECORD
5
D9
330
1
100
AcDbSymbolTableRecord
100
AcDbBlockTableRecord
2
KyotoKyomaTatamiHalf-0
70
0
280
1
281
0
0
BLOCK_RECORD
5
DC
330
1
100
AcDbSymbolTableRecord
100
AcDbBlockTableRecord
2
KyotoKyomaTatamiHalf-1
70
0
280
1
281
0
0
BLOCK_RECORD
5
DF
330
1
100
AcDbSymbolTableRecord
100
AcDbBlockTableRecord
2
KyotoKyomaTatamiHalf-2
70
0
280
1
281
0
0
BLOCK_RECORD
5
E2
330
1
100
AcDbSymbolTableRecord
100
AcDbBlockTableRecord
2
KyotoKyomaTatamiHalf-3
70
0
280
1
281
0
0
BLOCK_RECORD
5
E5
330
1
100
AcDbSymbolTableRecord
100
AcDbBlockTableRecord
2
KyotoKyomaTatamiVertical-9
70
0
280
1
281
0
0
BLOCK_RECORD
5
E8
330
1
100
AcDbSymbolTableRecord
100
AcDbBlockTableRecord
2
KyotoKyomaTatami-0
70
0
280
1
281
0
0
BLOCK_RECORD
5
EB
330
1
100
AcDbSymbolTableRecord
100
AcDbBlockTableRecord
2
KyotoKyomaTatami-1
70
0
280
1
281
0
0
BLOCK_RECORD
5
EE
330
1
100
AcDbSymbolTableRecord
100
AcDbBlockTableRecord
2
washer_Hor-0
70
0
280
1
281
0
0
BLOCK_RECORD
5
F1
330
1
100
AcDbSymbolTableRecord
100
AcDbBlockTableRecord
2
washer_Hor-1
70
0
280
1
281
0
0
BLOCK_RECORD
5
F4
330
1
100
AcDbSymbolTableRecord
100
AcDbBlockTableRecord
2
refridge500_600_verRight-0
70
0
280
1
281
0
0
BLOCK_RECORD
5
F7
330
1
100
AcDbSymbolTableRecord
100
AcDbBlockTableRecord
2
Standard40ft12m_withIntwall-0
70
0
280
1
281
0
0
BLOCK_RECORD
5
FA
330
1
100
AcDbSymbolTableRecord
100
AcDbBlockTableRecord
2
jtub
70
0
280
1
281
0
0
BLOCK_RECORD
5
FD
330
1
100
AcDbSymbolTableRecord
100
AcDbBlockTableRecord
2
bathroom
70
0
280
1
281
0
0
BLOCK_RECORD
5
100
330
1
100
AcDbSymbolTableRecord
100
AcDbBlockTableRecord
2
bathroom2
70
0
280
1
281
0
0
BLOCK_RECORD
5
103
330
1
100
AcDbSymbolTableRecord
100
AcDbBlockTableRecord
2
bathroom-0
70
0
280
1
281
0
0
ENDTAB
0
ENDSEC
0
SECTION
2
BLOCKS
0
BLOCK
5
20
330
1F
100
AcDbEntity
8
0
100
AcDbBlockBegin
2
*Model_Space
70
0
10
0
20
0
30
0
3
*Model_Space
1

0
ENDBLK
5
21
330
1F
100
AcDbEntity
8
0
100
AcDbBlockEnd
0
BLOCK
5
1C
330
1B
100
AcDbEntity
8
0
100
AcDbBlockBegin
2
*Paper_Space
70
0
10
0
20
0
30
0
3
*Paper_Space
1

0
ENDBLK
5
1D
330
1F
100
AcDbEntity
8
0
100
AcDbBlockEnd
0
BLOCK
5
53
330
52
100
AcDbEntity
8
0
100
AcDbBlockBegin
2
*D10
70
1
10
0
20
0
3
*D10
1

0
LINE
5
106
100
AcDbEntity
8
dimension
6
CONTINUOUS
62
7
370
0
100
AcDbLine
10
55.5541518432
20
689.545482925
11
55.5541518432
21
1689.54548293
0
SOLID
5
107
100
AcDbEntity
8
dimension
6
CONTINUOUS
62
7
370
0
100
AcDbTrace
10
55.5541518432
20
689.545482925
30
0
11
43.06561211
21
764.545482925
31
0
12
68.0426915764
22
764.545482925
32
0
13
68.0426915764
23
764.545482925
33
0
0
SOLID
5
108
100
AcDbEntity
8
dimension
6
CONTINUOUS
62
7
370
0
100
AcDbTrace
10
55.5541518432
20
1689.54548293
30
0
11
68.0426915764
21
1614.54548293
31
0
12
43.06561211
22
1614.54548293
32
0
13
43.06561211
23
1614.54548293
33
0
0
MTEXT
5
109
100
AcDbEntity
8
dimension
6
CONTINUOUS
62
7
370
0
100
AcDbMText
10
-3.1958481568
20
1189.54548293
30
0
40
85
41
217.222222222
71
5
72
1
1
1000
7
standard
210
0
220
0
230
1
50
90
73
2
44
1
0
LINE
5
10A
100
AcDbEntity
8
dimension
6
CONTINUOUS
62
7
370
0
100
AcDbLine
10
179.375
20
689.545482925
11
43.0541518432
21
689.545482925
0
LINE
5
10B
100
AcDbEntity
8
dimension
6
CONTINUOUS
62
7
370
0
100
AcDbLine
10
179.375
20
1689.54548293
11
43.0541518432
21
1689.54548293
0
ENDBLK
5
54
330
52
100
AcDbEntity
8
0
100
AcDbBlockEnd
0
BLOCK
5
56
330
55
100
AcDbEntity
8
0
100
AcDbBlockBegin
2
*D18
70
1
10
0
20
0
3
*D18
1

0
LINE
5
10C
100
AcDbEntity
8
dimension
6
CONTINUOUS
62
7
370
0
100
AcDbLine
10
6305.375
20
2840.1046679
11
6045.375
21
2840.1046679
0
SOLID
5
10D
100
AcDbEntity
8
dimension
6
CONTINUOUS
62
7
370
0
100
AcDbTrace
10
6305.375
20
2840.1046679
30
0
11
6230.375
21
2827.61612816
31
0
12
6230.375
22
2852.59320763
32
0
13
6230.375
23
2852.59320763
33
0
0
SOLID
5
10E
100
AcDbEntity
8
dimension
6
CONTINUOUS
62
7
370
0
100
AcDbTrace
10
6045.375
20
2840.1046679
30
0
11
6120.375
21
2852.59320763
31
0
12
6120.375
22
2827.61612816
32
0
13
6120.375
23
2827.61612816
33
0
0
MTEXT
5
10F
100
AcDbEntity
8
dimension
6
CONTINUOUS
62
7
370
0
100
AcDbMText
10
6175.375
20
2898.8546679
30
0
40
85
41
170
71
5
72
1
1
260
7
standard
210
0
220
0
230
1
50
360
73
2
44
1
0
LINE
5
110
100
AcDbEntity
8
dimension
6
CONTINUOUS
62
7
370
0
100
AcDbLine
10
6305.375
20
2761.54548292
11
6305.375
21
2852.6046679
0
LINE
5
111
100
AcDbEntity
8
dimension
6
CONTINUOUS
62
7
370
0
100
AcDbLine
10
6045.375
20
2761.54548292
11
6045.375
21
2852.6046679
0
ENDBLK
5
57
330
55
100
AcDbEntity
8
0
100
AcDbBlockEnd
0
BLOCK
5
59
330
58
100
AcDbEntity
8
0
100
AcDbBlockBegin
2
*D21
70
1
10
0
20
0
3
*D21
1

0
LINE
5
112
100
AcDbEntity
8
dimension
6
CONTINUOUS
62
7
370
0
100
AcDbLine
10
-148.805763866
20
4081.54548292
11
-148.805763866
21
4531.54548292
0
SOLID
5
113
100
AcDbEntity
8
dimension
6
CONTINUOUS
62
7
370
0
100
AcDbTrace
10
-148.805763866
20
4231.54548292
30
0
11
-136.317224133
21
4156.54548292
31
0
12
-161.294303599
22
4156.54548292
32
0
13
-161.294303599
23
4156.54548292
33
0
0
SOLID
5
114
100
AcDbEntity
8
dimension
6
CONTINUOUS
62
7
370
0
100
AcDbTrace
10
-148.805763866
20
4381.54548292
30
0
11
-161.294303599
21
4456.54548292
31
0
12
-136.317224133
22
4456.54548292
32
0
13
-136.317224133
23
4456.54548292
33
0
0
MTEXT
5
115
100
AcDbEntity
8
dimension
6
CONTINUOUS
62
7
370
0
100
AcDbMText
10
-207.555763866
20
4473.35103847
30
0
40
85
41
151.111111111
71
5
72
1
1
150
7
standard
210
0
220
0
230
1
50
90
73
2
44
1
0
LINE
5
116
100
AcDbEntity
8
dimension
6
CONTINUOUS
62
7
370
0
100
AcDbLine
10
179.375
20
4231.54548292
11
-161.305763866
21
4231.54548292
0
LINE
5
117
100
AcDbEntity
8
dimension
6
CONTINUOUS
62
7
370
0
100
AcDbLine
10
179.375
20
4381.54548292
11
-161.305763866
21
4381.54548292
0
ENDBLK
5
5A
330
58
100
AcDbEntity
8
0
100
AcDbBlockEnd
0
BLOCK
5
5C
330
5B
100
AcDbEntity
8
0
100
AcDbBlockBegin
2
*D19
70
1
10
0
20
0
3
*D19
1

0
LINE
5
118
100
AcDbEntity
8
dimension
6
CONTINUOUS
62
7
370
0
100
AcDbLine
10
6045.375
20
2838.75020477
11
4645.375
21
2838.75020477
0
SOLID
5
119
100
AcDbEntity
8
dimension
6
CONTINUOUS
62
7
370
0
100
AcDbTrace
10
6045.375
20
2838.75020477
30
0
11
5970.375
21
2826.26166503
31
0
12
5970.375
22
2851.2387445
32
0
13
5970.375
23
2851.2387445
33
0
0
SOLID
5
11A
100
AcDbEntity
8
dimension
6
CONTINUOUS
62
7
370
0
100
AcDbTrace
10
4645.375
20
2838.75020477
30
0
11
4720.375
21
2851.2387445
31
0
12
4720.375
22
2826.26166503
32
0
13
4720.375
23
2826.26166503
33
0
0
MTEXT
5
11B
100
AcDbEntity
8
dimension
6
CONTINUOUS
62
7
370
0
100
AcDbMText
10
5345.375
20
2897.50020477
30
0
40
85
41
226.666666667
71
5
72
1
1
1400
7
standard
210
0
220
0
230
1
50
360
73
2
44
1
0
LINE
5
11C
100
AcDbEntity
8
dimension
6
CONTINUOUS
62
7
370
0
100
AcDbLine
10
6045.375
20
2761.54548292
11
6045.375
21
2851.25020477
0
LINE
5
11D
100
AcDbEntity
8
dimension
6
CONTINUOUS
62
7
370
0
100
AcDbLine
10
4645.375
20
2761.54548292
11
4645.375
21
2851.25020477
0
ENDBLK
5
5D
330
5B
100
AcDbEntity
8
0
100
AcDbBlockEnd
0
BLOCK
5
5F
330
5E
100
AcDbEntity
8
0
100
AcDbBlockBegin
2
*D9
70
1
10
0
20
0
3
*D9
1

0
LINE
5
11E
100
AcDbEntity
8
dimension
6
CONTINUOUS
62
7
370
0
100
AcDbLine
10
52.4854463128
20
293.545482915
11
52.4854463128
21
689.545482925
0
SOLID
5
11F
100
AcDbEntity
8
dimension
6
CONTINUOUS
62
7
370
0
100
AcDbTrace
10
52.4854463128
20
293.545482915
30
0
11
39.9969065796
21
368.545482915
31
0
12
64.973986046
22
368.545482915
32
0
13
64.973986046
23
368.545482915
33
0
0
SOLID
5
120
100
AcDbEntity
8
dimension
6
CONTINUOUS
62
7
370
0
100
AcDbTrace
10
52.4854463128
20
689.545482925
30
0
11
64.973986046
21
614.545482925
31
0
12
39.9969065796
22
614.545482925
32
0
13
39.9969065796
23
614.545482925
33
0
0
MTEXT
5
121
100
AcDbEntity
8
dimension
6
CONTINUOUS
62
7
370
0
100
AcDbMText
10
-6.2645536872
20
491.54548292
30
0
40
85
41
170
71
5
72
1
1
396
7
standard
210
0
220
0
230
1
50
90
73
2
44
1
0
LINE
5
122
100
AcDbEntity
8
dimension
6
CONTINUOUS
62
7
370
0
100
AcDbLine
10
179.375
20
293.545482915
11
39.9854463128
21
293.545482915
0
LINE
5
123
100
AcDbEntity
8
dimension
6
CONTINUOUS
62
7
370
0
100
AcDbLine
10
179.375
20
689.545482925
11
39.9854463128
21
689.545482925
0
ENDBLK
5
60
330
5E
100
AcDbEntity
8
0
100
AcDbBlockEnd
0
BLOCK
5
62
330
61
100
AcDbEntity
8
0
100
AcDbBlockBegin
2
*D1
70
1
10
0
20
0
3
*D1
1

0
LINE
5
124
100
AcDbEntity
8
dimension
6
CONTINUOUS
62
7
370
0
100
AcDbLine
10
253.375
20
-61.2396733346
11
6145.375
21
-61.2396733346
0
SOLID
5
125
100
AcDbEntity
8
dimension
6
CONTINUOUS
62
7
370
0
100
AcDbTrace
10
253.375
20
-61.2396733346
30
0
11
328.375
21
-48.7511336014
31
0
12
328.375
22
-73.7282130677
32
0
13
328.375
23
-73.7282130677
33
0
0
SOLID
5
126
100
AcDbEntity
8
dimension
6
CONTINUOUS
62
7
370
0
100
AcDbTrace
10
6145.375
20
-61.2396733346
30
0
11
6070.375
21
-73.7282130677
31
0
12
6070.375
22
-48.7511336014
32
0
13
6070.375
23
-48.7511336014
33
0
0
MTEXT
5
127
100
AcDbEntity
8
dimension
6
CONTINUOUS
62
7
370
0
100
AcDbMText
10
3199.375
20
-2.48967333456
30
0
40
85
41
236.111111111
71
5
72
1
1
5892
7
standard
210
0
220
0
230
1
50
0
73
2
44
1
0
LINE
5
128
100
AcDbEntity
8
dimension
6
CONTINUOUS
62
7
370
0
100
AcDbLine
10
253.375
20
307.545482915
11
253.375
21
-73.7396733346
0
LINE
5
129
100
AcDbEntity
8
dimension
6
CONTINUOUS
62
7
370
0
100
AcDbLine
10
6145.375
20
307.545482915
11
6145.375
21
-73.7396733346
0
ENDBLK
5
63
330
61
100
AcDbEntity
8
0
100
AcDbBlockEnd
0
BLOCK
5
65
330
64
100
AcDbEntity
8
0
100
AcDbBlockBegin
2
*D12
70
1
10
0
20
0
3
*D12
1

0
LINE
5
12A
100
AcDbEntity
8
dimension
6
CONTINUOUS
62
7
370
0
100
AcDbLine
10
253.375
20
2820.49140687
11
2003.375
21
2820.49140687
0
SOLID
5
12B
100
AcDbEntity
8
dimension
6
CONTINUOUS
62
7
370
0
100
AcDbTrace
10
253.375
20
2820.49140687
30
0
11
328.375
21
2832.9799466
31
0
12
328.375
22
2808.00286713
32
0
13
328.375
23
2808.00286713
33
0
0
SOLID
5
12C
100
AcDbEntity
8
dimension
6
CONTINUOUS
62
7
370
0
100
AcDbTrace
10
2003.375
20
2820.49140687
30
0
11
1928.375
21
2808.00286713
31
0
12
1928.375
22
2832.9799466
32
0
13
1928.375
23
2832.9799466
33
0
0
MTEXT
5
12D
100
AcDbEntity
8
dimension
6
CONTINUOUS
62
7
370
0
100
AcDbMText
10
1128.375
20
2879.24140687
30
0
40
85
41
217.222222222
71
5
72
1
1
1750
7
standard
210
0
220
0
230
1
50
0
73
2
44
1
0
LINE
5
12E
100
AcDbEntity
8
dimension
6
CONTINUOUS
62
7
370
0
100
AcDbLine
10
253.375
20
2717.54548292
11
253.375
21
2832.99140687
0
LINE
5
12F
100
AcDbEntity
8
dimension
6
CONTINUOUS
62
7
370
0
100
AcDbLine
10
2003.375
20
2669.54548293
11
2003.375
21
2832.99140687
0
ENDBLK
5
66
330
64
100
AcDbEntity
8
0
100
AcDbBlockEnd
0
BLOCK
5
68
330
67
100
AcDbEntity
8
0
100
AcDbBlockBegin
2
*D20
70
1
10
0
20
0
3
*D20
1

0
LINE
5
130
100
AcDbEntity
8
dimension
6
CONTINUOUS
62
7
370
0
100
AcDbLine
10
132.271790103
20
4231.54548292
11
132.271790103
21
4691.54548292
0
SOLID
5
131
100
AcDbEntity
8
dimension
6
CONTINUOUS
62
7
370
0
100
AcDbTrace
10
132.271790103
20
4381.54548292
30
0
11
144.760329836
21
4306.54548292
31
0
12
119.78325037
22
4306.54548292
32
0
13
119.78325037
23
4306.54548292
33
0
0
SOLID
5
132
100
AcDbEntity
8
dimension
6
CONTINUOUS
62
7
370
0
100
AcDbTrace
10
132.271790103
20
4541.54548292
30
0
11
119.78325037
21
4616.54548292
31
0
12
144.760329836
22
4616.54548292
32
0
13
144.760329836
23
4616.54548292
33
0
0
MTEXT
5
133
100
AcDbEntity
8
dimension
6
CONTINUOUS
62
7
370
0
100
AcDbMText
10
73.521790103
20
4461.54548292
30
0
40
85
41
151.111111111
71
5
72
1
1
160
7
standard
210
0
220
0
230
1
50
90
73
2
44
1
0
LINE
5
134
100
AcDbEntity
8
dimension
6
CONTINUOUS
62
7
370
0
100
AcDbLine
10
179.375
20
4381.54548292
11
119.771790103
21
4381.54548292
0
LINE
5
135
100
AcDbEntity
8
dimension
6
CONTINUOUS
62
7
370
0
100
AcDbLine
10
179.375
20
4541.54548292
11
119.771790103
21
4541.54548292
0
ENDBLK
5
69
330
67
100
AcDbEntity
8
0
100
AcDbBlockEnd
0
BLOCK
5
6B
330
6A
100
AcDbEntity
8
0
100
AcDbBlockBegin
2
*D25
70
1
10
0
20
0
3
*D25
1

0
LINE
5
136
100
AcDbEntity
8
dimension
6
CONTINUOUS
62
7
370
0
100
AcDbLine
10
3492.80195741
20
4231.54548292
11
3492.80195741
21
5741.54548292
0
SOLID
5
137
100
AcDbEntity
8
dimension
6
CONTINUOUS
62
7
370
0
100
AcDbTrace
10
3492.80195741
20
4231.54548292
30
0
11
3480.31341768
21
4306.54548292
31
0
12
3505.29049714
22
4306.54548292
32
0
13
3505.29049714
23
4306.54548292
33
0
0
SOLID
5
138
100
AcDbEntity
8
dimension
6
CONTINUOUS
62
7
370
0
100
AcDbTrace
10
3492.80195741
20
5741.54548292
30
0
11
3505.29049714
21
5666.54548292
31
0
12
3480.31341768
22
5666.54548292
32
0
13
3480.31341768
23
5666.54548292
33
0
0
MTEXT
5
139
100
AcDbEntity
8
dimension
6
CONTINUOUS
62
7
370
0
100
AcDbMText
10
3434.05195741
20
4986.54548292
30
0
40
85
41
198.333333333
71
5
72
1
1
1510
7
standard
210
0
220
0
230
1
50
90
73
2
44
1
0
LINE
5
13A
100
AcDbEntity
8
dimension
6
CONTINUOUS
62
7
370
0
100
AcDbLine
10
3207.62308255
20
4231.54548292
11
3505.30195741
21
4231.54548292
0
LINE
5
13B
100
AcDbEntity
8
dimension
6
CONTINUOUS
62
7
370
0
100
AcDbLine
10
3203.375
20
5741.54548292
11
3505.30195741
21
5741.54548292
0
ENDBLK
5
6C
330
6A
100
AcDbEntity
8
0
100
AcDbBlockEnd
0
BLOCK
5
6E
330
6D
100
AcDbEntity
8
0
100
AcDbBlockBegin
2
*D2
70
1
10
0
20
0
3
*D2
1

0
LINE
5
13C
100
AcDbEntity
8
dimension
6
CONTINUOUS
62
7
370
0
100
AcDbLine
10
-353.203785218
20
4231.54548292
11
-353.203785218
21
6831.54548292
0
SOLID
5
13D
100
AcDbEntity
8
dimension
6
CONTINUOUS
62
7
370
0
100
AcDbTrace
10
-353.203785218
20
4231.54548292
30
0
11
-365.692324951
21
4306.54548292
31
0
12
-340.715245485
22
4306.54548292
32
0
13
-340.715245485
23
4306.54548292
33
0
0
SOLID
5
13E
100
AcDbEntity
8
dimension
6
CONTINUOUS
62
7
370
0
100
AcDbTrace
10
-353.203785218
20
6831.54548292
30
0
11
-340.715245485
21
6756.54548292
31
0
12
-365.692324951
22
6756.54548292
32
0
13
-365.692324951
23
6756.54548292
33
0
0
MTEXT
5
13F
100
AcDbEntity
8
dimension
6
CONTINUOUS
62
7
370
0
100
AcDbMText
10
-411.953785218
20
5531.54548292
30
0
40
85
41
236.111111111
71
5
72
1
1
2600
7
standard
210
0
220
0
230
1
50
90
73
2
44
1
0
LINE
5
140
100
AcDbEntity
8
dimension
6
CONTINUOUS
62
7
370
0
100
AcDbLine
10
179.375
20
4231.54548292
11
-365.703785218
21
4231.54548292
0
LINE
5
141
100
AcDbEntity
8
dimension
6
CONTINUOUS
62
7
370
0
100
AcDbLine
10
179.375
20
6831.54548292
11
-365.703785218
21
6831.54548292
0
ENDBLK
5
6F
330
6D
100
AcDbEntity
8
0
100
AcDbBlockEnd
0
BLOCK
5
71
330
70
100
AcDbEntity
8
0
100
AcDbBlockBegin
2
*D8
70
1
10
0
20
0
3
*D8
1

0
LINE
5
142
100
AcDbEntity
8
dimension
6
CONTINUOUS
62
7
370
0
100
AcDbLine
10
-33.0679475257
20
2589.54548293
11
-33.0679475257
21
1889.54548293
0
SOLID
5
143
100
AcDbEntity
8
dimension
6
CONTINUOUS
62
7
370
0
100
AcDbTrace
10
-33.0679475257
20
2589.54548293
30
0
11
-20.5794077925
21
2514.54548293
31
0
12
-45.5564872589
22
2514.54548293
32
0
13
-45.5564872589
23
2514.54548293
33
0
0
SOLID
5
144
100
AcDbEntity
8
dimension
6
CONTINUOUS
62
7
370
0
100
AcDbTrace
10
-33.0679475257
20
1889.54548293
30
0
11
-45.5564872589
21
1964.54548293
31
0
12
-20.5794077925
22
1964.54548293
32
0
13
-20.5794077925
23
1964.54548293
33
0
0
MTEXT
5
145
100
AcDbEntity
8
dimension
6
CONTINUOUS
62
7
370
0
100
AcDbMText
10
-91.8179475257
20
2239.54548293
30
0
40
85
41
170
71
5
72
1
1
700
7
standard
210
0
220
0
230
1
50
90
73
2
44
1
0
LINE
5
146
100
AcDbEntity
8
dimension
6
CONTINUOUS
62
7
370
0
100
AcDbLine
10
179.375
20
2589.54548293
11
-45.5679475257
21
2589.54548293
0
LINE
5
147
100
AcDbEntity
8
dimension
6
CONTINUOUS
62
7
370
0
100
AcDbLine
10
179.375
20
1889.54548293
11
-45.5679475257
21
1889.54548293
0
ENDBLK
5
72
330
70
100
AcDbEntity
8
0
100
AcDbBlockEnd
0
BLOCK
5
74
330
73
100
AcDbEntity
8
0
100
AcDbBlockBegin
2
*D4
70
1
10
0
20
0
3
*D4
1

0
LINE
5
148
100
AcDbEntity
8
dimension
6
CONTINUOUS
62
7
370
0
100
AcDbLine
10
209.375
20
-266.621086506
11
6305.375
21
-266.621086506
0
SOLID
5
149
100
AcDbEntity
8
dimension
6
CONTINUOUS
62
7
370
0
100
AcDbTrace
10
209.375
20
-266.621086506
30
0
11
284.375
21
-254.132546772
31
0
12
284.375
22
-279.109626239
32
0
13
284.375
23
-279.109626239
33
0
0
SOLID
5
14A
100
AcDbEntity
8
dimension
6
CONTINUOUS
62
7
370
0
100
AcDbTrace
10
6305.375
20
-266.621086506
30
0
11
6230.375
21
-279.109626239
31
0
12
6230.375
22
-254.132546772
32
0
13
6230.375
23
-254.132546772
33
0
0
MTEXT
5
14B
100
AcDbEntity
8
dimension
6
CONTINUOUS
62
7
370
0
100
AcDbMText
10
3257.375
20
-207.871086506
30
0
40
85
41
236.111111111
71
5
72
1
1
6096
7
standard
210
0
220
0
230
1
50
0
73
2
44
1
0
LINE
5
14C
100
AcDbEntity
8
dimension
6
CONTINUOUS
62
7
370
0
100
AcDbLine
10
209.375
20
263.545482915
11
209.375
21
-279.121086506
0
LINE
5
14D
100
AcDbEntity
8
dimension
6
CONTINUOUS
62
7
370
0
100
AcDbLine
10
6305.375
20
263.545482915
11
6305.375
21
-279.121086506
0
ENDBLK
5
75
330
73
100
AcDbEntity
8
0
100
AcDbBlockEnd
0
BLOCK
5
77
330
76
100
AcDbEntity
8
0
100
AcDbBlockBegin
2
*D14
70
1
10
0
20
0
3
*D14
1

0
LINE
5
14E
100
AcDbEntity
8
dimension
6
CONTINUOUS
62
7
370
0
100
AcDbLine
10
3243.375
20
2975.91076024
11
6305.375
21
2975.91076024
0
SOLID
5
14F
100
AcDbEntity
8
dimension
6
CONTINUOUS
62
7
370
0
100
AcDbTrace
10
3243.375
20
2975.91076024
30
0
11
3318.375
21
2988.39929997
31
0
12
3318.375
22
2963.4222205
32
0
13
3318.375
23
2963.4222205
33
0
0
SOLID
5
150
100
AcDbEntity
8
dimension
6
CONTINUOUS
62
7
370
0
100
AcDbTrace
10
6305.375
20
2975.91076024
30
0
11
6230.375
21
2963.4222205
31
0
12
6230.375
22
2988.39929997
32
0
13
6230.375
23
2988.39929997
33
0
0
MTEXT
5
151
100
AcDbEntity
8
dimension
6
CONTINUOUS
62
7
370
0
100
AcDbMText
10
4774.375
20
3034.66076024
30
0
40
85
41
236.111111111
71
5
72
1
1
3062
7
standard
210
0
220
0
230
1
50
0
73
2
44
1
0
LINE
5
152
100
AcDbEntity
8
dimension
6
CONTINUOUS
62
7
370
0
100
AcDbLine
10
3243.375
20
2761.54548292
11
3243.375
21
2988.41076024
0
LINE
5
153
100
AcDbEntity
8
dimension
6
CONTINUOUS
62
7
370
0
100
AcDbLine
10
6305.375
20
2761.54548292
11
6305.375
21
2988.41076024
0
ENDBLK
5
78
330
76
100
AcDbEntity
8
0
100
AcDbBlockEnd
0
BLOCK
5
7A
330
79
100
AcDbEntity
8
0
100
AcDbBlockBegin
2
*D11
70
1
10
0
20
0
3
*D11
1

0
LINE
5
154
100
AcDbEntity
8
dimension
6
CONTINUOUS
62
7
370
0
100
AcDbLine
10
209.375
20
2978.55619604
11
2343.375
21
2978.55619604
0
SOLID
5
155
100
AcDbEntity
8
dimension
6
CONTINUOUS
62
7
370
0
100
AcDbTrace
10
209.375
20
2978.55619604
30
0
11
284.375
21
2991.04473577
31
0
12
284.375
22
2966.0676563
32
0
13
284.375
23
2966.0676563
33
0
0
SOLID
5
156
100
AcDbEntity
8
dimension
6
CONTINUOUS
62
7
370
0
100
AcDbTrace
10
2343.375
20
2978.55619604
30
0
11
2268.375
21
2966.0676563
31
0
12
2268.375
22
2991.04473577
32
0
13
2268.375
23
2991.04473577
33
0
0
MTEXT
5
157
100
AcDbEntity
8
dimension
6
CONTINUOUS
62
7
370
0
100
AcDbMText
10
1276.375
20
3037.30619604
30
0
40
85
41
226.666666667
71
5
72
1
1
2134
7
standard
210
0
220
0
230
1
50
0
73
2
44
1
0
LINE
5
158
100
AcDbEntity
8
dimension
6
CONTINUOUS
62
7
370
0
100
AcDbLine
10
209.375
20
2761.54548292
11
209.375
21
2991.05619604
0
LINE
5
159
100
AcDbEntity
8
dimension
6
CONTINUOUS
62
7
370
0
100
AcDbLine
10
2343.375
20
2761.54548292
11
2343.375
21
2991.05619604
0
ENDBLK
5
7B
330
79
100
AcDbEntity
8
0
100
AcDbBlockEnd
0
BLOCK
5
7D
330
7C
100
AcDbEntity
8
0
100
AcDbBlockBegin
2
*D13
70
1
10
0
20
0
3
*D13
1

0
LINE
5
15A
100
AcDbEntity
8
dimension
6
CONTINUOUS
62
7
370
0
100
AcDbLine
10
2343.375
20
2984.17774712
11
3243.375
21
2984.17774712
0
SOLID
5
15B
100
AcDbEntity
8
dimension
6
CONTINUOUS
62
7
370
0
100
AcDbTrace
10
2343.375
20
2984.17774712
30
0
11
2418.375
21
2996.66628685
31
0
12
2418.375
22
2971.68920738
32
0
13
2418.375
23
2971.68920738
33
0
0
SOLID
5
15C
100
AcDbEntity
8
dimension
6
CONTINUOUS
62
7
370
0
100
AcDbTrace
10
3243.375
20
2984.17774712
30
0
11
3168.375
21
2971.68920738
31
0
12
3168.375
22
2996.66628685
32
0
13
3168.375
23
2996.66628685
33
0
0
MTEXT
5
15D
100
AcDbEntity
8
dimension
6
CONTINUOUS
62
7
370
0
100
AcDbMText
10
2793.375
20
3042.92774712
30
0
40
85
41
170
71
5
72
1
1
900
7
standard
210
0
220
0
230
1
50
0
73
2
44
1
0
LINE
5
15E
100
AcDbEntity
8
dimension
6
CONTINUOUS
62
7
370
0
100
AcDbLine
10
2343.375
20
2761.54548292
11
2343.375
21
2996.67774712
0
LINE
5
15F
100
AcDbEntity
8
dimension
6
CONTINUOUS
62
7
370
0
100
AcDbLine
10
3243.375
20
2761.54548292
11
3243.375
21
2996.67774712
0
ENDBLK
5
7E
330
7C
100
AcDbEntity
8
0
100
AcDbBlockEnd
0
BLOCK
5
80
330
7F
100
AcDbEntity
8
0
100
AcDbBlockBegin
2
*D17
70
1
10
0
20
0
3
*D17
1

0
LINE
5
160
100
AcDbEntity
8
dimension
6
CONTINUOUS
62
7
370
0
100
AcDbLine
10
3393.375
20
95.0311717895
11
5093.375
21
95.0311717895
0
SOLID
5
161
100
AcDbEntity
8
dimension
6
CONTINUOUS
62
7
370
0
100
AcDbTrace
10
3393.375
20
95.0311717895
30
0
11
3468.375
21
107.519711523
31
0
12
3468.375
22
82.5426320564
32
0
13
3468.375
23
82.5426320564
33
0
0
SOLID
5
162
100
AcDbEntity
8
dimension
6
CONTINUOUS
62
7
370
0
100
AcDbTrace
10
5093.375
20
95.0311717895
30
0
11
5018.375
21
82.5426320564
31
0
12
5018.375
22
107.519711523
32
0
13
5018.375
23
107.519711523
33
0
0
MTEXT
5
163
100
AcDbEntity
8
dimension
6
CONTINUOUS
62
7
370
0
100
AcDbMText
10
4243.375
20
153.78117179
30
0
40
85
41
217.222222222
71
5
72
1
1
1700
7
standard
210
0
220
0
230
1
50
0
73
2
44
1
0
LINE
5
164
100
AcDbEntity
8
dimension
6
CONTINUOUS
62
7
370
0
100
AcDbLine
10
3393.375
20
357.545482915
11
3393.375
21
82.5311717895
0
LINE
5
165
100
AcDbEntity
8
dimension
6
CONTINUOUS
62
7
370
0
100
AcDbLine
10
5093.375
20
357.545482915
11
5093.375
21
82.5311717895
0
ENDBLK
5
81
330
7F
100
AcDbEntity
8
0
100
AcDbBlockEnd
0
BLOCK
5
83
330
82
100
AcDbEntity
8
0
100
AcDbBlockBegin
2
*D15
70
1
10
0
20
0
3
*D15
1

0
LINE
5
166
100
AcDbEntity
8
dimension
6
CONTINUOUS
62
7
370
0
100
AcDbLine
10
253.375
20
96.6742354322
11
3293.375
21
96.6742354322
0
SOLID
5
167
100
AcDbEntity
8
dimension
6
CONTINUOUS
62
7
370
0
100
AcDbTrace
10
253.375
20
96.6742354322
30
0
11
328.375
21
109.162775165
31
0
12
328.375
22
84.1856956991
32
0
13
328.375
23
84.1856956991
33
0
0
SOLID
5
168
100
AcDbEntity
8
dimension
6
CONTINUOUS
62
7
370
0
100
AcDbTrace
10
3293.375
20
96.6742354322
30
0
11
3218.375
21
84.1856956991
31
0
12
3218.375
22
109.162775165
32
0
13
3218.375
23
109.162775165
33
0
0
MTEXT
5
169
100
AcDbEntity
8
dimension
6
CONTINUOUS
62
7
370
0
100
AcDbMText
10
1773.375
20
155.424235432
30
0
40
85
41
245.555555556
71
5
72
1
1
3040
7
standard
210
0
220
0
230
1
50
0
73
2
44
1
0
LINE
5
16A
100
AcDbEntity
8
dimension
6
CONTINUOUS
62
7
370
0
100
AcDbLine
10
253.375
20
307.545482915
11
253.375
21
84.1742354322
0
LINE
5
16B
100
AcDbEntity
8
dimension
6
CONTINUOUS
62
7
370
0
100
AcDbLine
10
3293.375
20
357.545482925
11
3293.375
21
84.1742354322
0
ENDBLK
5
84
330
82
100
AcDbEntity
8
0
100
AcDbBlockEnd
0
BLOCK
5
86
330
85
100
AcDbEntity
8
0
100
AcDbBlockBegin
2
*D6
70
1
10
0
20
0
3
*D6
1

0
LINE
5
16C
100
AcDbEntity
8
dimension
6
CONTINUOUS
62
7
370
0
100
AcDbLine
10
-264.543580206
20
337.545482915
11
-264.543580206
21
1789.54548293
0
SOLID
5
16D
100
AcDbEntity
8
dimension
6
CONTINUOUS
62
7
370
0
100
AcDbTrace
10
-264.543580206
20
337.545482915
30
0
11
-277.032119939
21
412.545482915
31
0
12
-252.055040473
22
412.545482915
32
0
13
-252.055040473
23
412.545482915
33
0
0
SOLID
5
16E
100
AcDbEntity
8
dimension
6
CONTINUOUS
62
7
370
0
100
AcDbTrace
10
-264.543580206
20
1789.54548293
30
0
11
-252.055040473
21
1714.54548293
31
0
12
-277.032119939
22
1714.54548293
32
0
13
-277.032119939
23
1714.54548293
33
0
0
MTEXT
5
16F
100
AcDbEntity
8
dimension
6
CONTINUOUS
62
7
370
0
100
AcDbMText
10
-323.293580206
20
1063.54548292
30
0
40
85
41
226.666666667
71
5
72
1
1
1452
7
standard
210
0
220
0
230
1
50
90
73
2
44
1
0
LINE
5
170
100
AcDbEntity
8
dimension
6
CONTINUOUS
62
7
370
0
100
AcDbLine
10
223.375
20
337.545482915
11
-277.043580206
21
337.545482915
0
LINE
5
171
100
AcDbEntity
8
dimension
6
CONTINUOUS
62
7
370
0
100
AcDbLine
10
273.375
20
1789.54548293
11
-277.043580206
21
1789.54548293
0
ENDBLK
5
87
330
85
100
AcDbEntity
8
0
100
AcDbBlockEnd
0
BLOCK
5
89
330
88
100
AcDbEntity
8
0
100
AcDbBlockBegin
2
*D27
70
1
10
0
20
0
3
*D27
1

0
LINE
5
172
100
AcDbEntity
8
dimension
6
CONTINUOUS
62
7
370
0
100
AcDbLine
10
-736.278519128
20
4541.54548292
11
-736.278519128
21
6776.54548292
0
SOLID
5
173
100
AcDbEntity
8
dimension
6
CONTINUOUS
62
7
370
0
100
AcDbTrace
10
-736.278519128
20
4541.54548292
30
0
11
-748.767058861
21
4616.54548292
31
0
12
-723.789979395
22
4616.54548292
32
0
13
-723.789979395
23
4616.54548292
33
0
0
SOLID
5
174
100
AcDbEntity
8
dimension
6
CONTINUOUS
62
7
370
0
100
AcDbTrace
10
-736.278519128
20
6776.54548292
30
0
11
-723.789979395
21
6701.54548292
31
0
12
-748.767058861
22
6701.54548292
32
0
13
-748.767058861
23
6701.54548292
33
0
0
MTEXT
5
175
100
AcDbEntity
8
dimension
6
CONTINUOUS
62
7
370
0
100
AcDbMText
10
-795.028519128
20
5659.04548292
30
0
40
85
41
236.111111111
71
5
72
1
1
2235
7
standard
210
0
220
0
230
1
50
90
73
2
44
1
0
LINE
5
176
100
AcDbEntity
8
dimension
6
CONTINUOUS
62
7
370
0
100
AcDbLine
10
-1163.09154673
20
4541.54548292
11
-723.778519128
21
4541.54548292
0
LINE
5
177
100
AcDbEntity
8
dimension
6
CONTINUOUS
62
7
370
0
100
AcDbLine
10
-1163.09154673
20
6776.54548292
11
-723.778519128
21
6776.54548292
0
ENDBLK
5
8A
330
88
100
AcDbEntity
8
0
100
AcDbBlockEnd
0
BLOCK
5
8C
330
8B
100
AcDbEntity
8
0
100
AcDbBlockBegin
2
*D3
70
1
10
0
20
0
3
*D3
1

0
LINE
5
178
100
AcDbEntity
8
dimension
6
CONTINUOUS
62
7
370
0
100
AcDbLine
10
-25.8343340045
20
4381.54548292
11
-25.8343340045
21
6776.54548292
0
SOLID
5
179
100
AcDbEntity
8
dimension
6
CONTINUOUS
62
7
370
0
100
AcDbTrace
10
-25.8343340045
20
4381.54548292
30
0
11
-38.3228737377
21
4456.54548292
31
0
12
-13.3457942713
22
4456.54548292
32
0
13
-13.3457942713
23
4456.54548292
33
0
0
SOLID
5
17A
100
AcDbEntity
8
dimension
6
CONTINUOUS
62
7
370
0
100
AcDbTrace
10
-25.8343340045
20
6776.54548292
30
0
11
-13.3457942713
21
6701.54548292
31
0
12
-38.3228737377
22
6701.54548292
32
0
13
-38.3228737377
23
6701.54548292
33
0
0
MTEXT
5
17B
100
AcDbEntity
8
dimension
6
CONTINUOUS
62
7
370
0
100
AcDbMText
10
-84.5843340045
20
5579.04548292
30
0
40
85
41
236.111111111
71
5
72
1
1
2395
7
standard
210
0
220
0
230
1
50
90
73
2
44
1
0
LINE
5
17C
100
AcDbEntity
8
dimension
6
CONTINUOUS
62
7
370
0
100
AcDbLine
10
179.375
20
4381.54548292
11
-38.3343340045
21
4381.54548292
0
LINE
5
17D
100
AcDbEntity
8
dimension
6
CONTINUOUS
62
7
370
0
100
AcDbLine
10
179.375
20
6776.54548292
11
-38.3343340045
21
6776.54548292
0
ENDBLK
5
8D
330
8B
100
AcDbEntity
8
0
100
AcDbBlockEnd
0
BLOCK
5
8F
330
8E
100
AcDbEntity
8
0
100
AcDbBlockBegin
2
*D7
70
1
10
0
20
0
3
*D7
1

0
LINE
5
17E
100
AcDbEntity
8
dimension
6
CONTINUOUS
62
7
370
0
100
AcDbLine
10
-260.410086765
20
2881.54548292
11
-260.410086765
21
2439.54548293
0
SOLID
5
17F
100
AcDbEntity
8
dimension
6
CONTINUOUS
62
7
370
0
100
AcDbTrace
10
-260.410086765
20
2731.54548292
30
0
11
-272.898626498
21
2806.54548292
31
0
12
-247.921547032
22
2806.54548292
32
0
13
-247.921547032
23
2806.54548292
33
0
0
SOLID
5
180
100
AcDbEntity
8
dimension
6
CONTINUOUS
62
7
370
0
100
AcDbTrace
10
-260.410086765
20
2589.54548293
30
0
11
-247.921547032
21
2514.54548293
31
0
12
-272.898626498
22
2514.54548293
32
0
13
-272.898626498
23
2514.54548293
33
0
0
MTEXT
5
181
100
AcDbEntity
8
dimension
6
CONTINUOUS
62
7
370
0
100
AcDbMText
10
-319.160086765
20
2828.07326069
30
0
40
85
41
160.555555556
71
5
72
1
1
142
7
standard
210
0
220
0
230
1
50
90
73
2
44
1
0
LINE
5
182
100
AcDbEntity
8
dimension
6
CONTINUOUS
62
7
370
0
100
AcDbLine
10
179.375
20
2731.54548292
11
-272.910086765
21
2731.54548292
0
LINE
5
183
100
AcDbEntity
8
dimension
6
CONTINUOUS
62
7
370
0
100
AcDbLine
10
179.375
20
2589.54548293
11
-272.910086765
21
2589.54548293
0
ENDBLK
5
90
330
8E
100
AcDbEntity
8
0
100
AcDbBlockEnd
0
BLOCK
5
92
330
91
100
AcDbEntity
8
0
100
AcDbBlockBegin
2
*D24
70
1
10
0
20
0
3
*D24
1

0
LINE
5
184
100
AcDbEntity
8
dimension
6
CONTINUOUS
62
7
370
0
100
AcDbLine
10
-1061.48111558
20
337.545482915
11
-1061.48111558
21
2687.54548292
0
SOLID
5
185
100
AcDbEntity
8
dimension
6
CONTINUOUS
62
7
370
0
100
AcDbTrace
10
-1061.48111558
20
337.545482915
30
0
11
-1073.96965531
21
412.545482915
31
0
12
-1048.99257585
22
412.545482915
32
0
13
-1048.99257585
23
412.545482915
33
0
0
SOLID
5
186
100
AcDbEntity
8
dimension
6
CONTINUOUS
62
7
370
0
100
AcDbTrace
10
-1061.48111558
20
2687.54548292
30
0
11
-1048.99257585
21
2612.54548292
31
0
12
-1073.96965531
22
2612.54548292
32
0
13
-1073.96965531
23
2612.54548292
33
0
0
MTEXT
5
187
100
AcDbEntity
8
dimension
6
CONTINUOUS
62
7
370
0
100
AcDbMText
10
-1120.23111558
20
1512.54548292
30
0
40
85
41
236.111111111
71
5
72
1
1
2350
7
standard
210
0
220
0
230
1
50
90
73
2
44
1
0
LINE
5
188
100
AcDbEntity
8
dimension
6
CONTINUOUS
62
7
370
0
100
AcDbLine
10
223.375
20
337.545482915
11
-1073.98111558
21
337.545482915
0
LINE
5
189
100
AcDbEntity
8
dimension
6
CONTINUOUS
62
7
370
0
100
AcDbLine
10
223.375
20
2687.54548292
11
-1073.98111558
21
2687.54548292
0
ENDBLK
5
93
330
91
100
AcDbEntity
8
0
100
AcDbBlockEnd
0
BLOCK
5
95
330
94
100
AcDbEntity
8
0
100
AcDbBlockBegin
2
*D16
70
1
10
0
20
0
3
*D16
1

0
LINE
5
18A
100
AcDbEntity
8
dimension
6
CONTINUOUS
62
7
370
0
100
AcDbLine
10
3143.375
20
151.908041533
11
3543.375
21
151.908041533
0
SOLID
5
18B
100
AcDbEntity
8
dimension
6
CONTINUOUS
62
7
370
0
100
AcDbTrace
10
3293.375
20
151.908041533
30
0
11
3218.375
21
139.4195018
31
0
12
3218.375
22
164.396581267
32
0
13
3218.375
23
164.396581267
33
0
0
SOLID
5
18C
100
AcDbEntity
8
dimension
6
CONTINUOUS
62
7
370
0
100
AcDbTrace
10
3393.375
20
151.908041533
30
0
11
3468.375
21
164.396581267
31
0
12
3468.375
22
139.4195018
32
0
13
3468.375
23
139.4195018
33
0
0
MTEXT
5
18D
100
AcDbEntity
8
dimension
6
CONTINUOUS
62
7
370
0
100
AcDbMText
10
3485.18055556
20
210.658041533
30
0
40
85
41
151.111111111
71
5
72
1
1
100
7
standard
210
0
220
0
230
1
50
0
73
2
44
1
0
LINE
5
18E
100
AcDbEntity
8
dimension
6
CONTINUOUS
62
7
370
0
100
AcDbLine
10
3293.375
20
357.545482925
11
3293.375
21
139.408041533
0
LINE
5
18F
100
AcDbEntity
8
dimension
6
CONTINUOUS
62
7
370
0
100
AcDbLine
10
3393.375
20
357.545482915
11
3393.375
21
139.408041533
0
ENDBLK
5
96
330
94
100
AcDbEntity
8
0
100
AcDbBlockEnd
0
BLOCK
5
98
330
97
100
AcDbEntity
8
0
100
AcDbBlockBegin
2
*D5
70
1
10
0
20
0
3
*D5
1

0
LINE
5
190
100
AcDbEntity
8
dimension
6
CONTINUOUS
62
7
370
0
100
AcDbLine
10
6325.375
20
-62.2069186954
11
7495.375
21
-62.2069186954
0
SOLID
5
191
100
AcDbEntity
8
dimension
6
CONTINUOUS
62
7
370
0
100
AcDbTrace
10
6325.375
20
-62.2069186954
30
0
11
6400.375
21
-49.7183789622
31
0
12
6400.375
22
-74.6954584285
32
0
13
6400.375
23
-74.6954584285
33
0
0
SOLID
5
192
100
AcDbEntity
8
dimension
6
CONTINUOUS
62
7
370
0
100
AcDbTrace
10
7495.375
20
-62.2069186954
30
0
11
7420.375
21
-74.6954584285
31
0
12
7420.375
22
-49.7183789622
32
0
13
7420.375
23
-49.7183789622
33
0
0
MTEXT
5
193
100
AcDbEntity
8
dimension
6
CONTINUOUS
62
7
370
0
100
AcDbMText
10
6910.375
20
-3.45691869536
30
0
40
85
41
198.333333333
71
5
72
1
1
1170
7
standard
210
0
220
0
230
1
50
0
73
2
44
1
0
LINE
5
194
100
AcDbEntity
8
dimension
6
CONTINUOUS
62
7
370
0
100
AcDbLine
10
6325.375
20
263.545482915
11
6325.375
21
-74.7069186954
0
LINE
5
195
100
AcDbEntity
8
dimension
6
CONTINUOUS
62
7
370
0
100
AcDbLine
10
7495.375
20
263.545482915
11
7495.375
21
-74.7069186954
0
ENDBLK
5
99
330
97
100
AcDbEntity
8
0
100
AcDbBlockEnd
0
BLOCK
5
9B
330
9A
100
AcDbEntity
8
0
100
AcDbBlockBegin
2
*D22
70
1
10
0
20
0
3
*D22
1

0
LINE
5
196
100
AcDbEntity
8
dimension
6
CONTINUOUS
62
7
370
0
100
AcDbLine
10
-148.144404915
20
6626.54548292
11
-148.144404915
21
6981.54548292
0
SOLID
5
197
100
AcDbEntity
8
dimension
6
CONTINUOUS
62
7
370
0
100
AcDbTrace
10
-148.144404915
20
6776.54548292
30
0
11
-135.655865182
21
6701.54548292
31
0
12
-160.632944648
22
6701.54548292
32
0
13
-160.632944648
23
6701.54548292
33
0
0
SOLID
5
198
100
AcDbEntity
8
dimension
6
CONTINUOUS
62
7
370
0
100
AcDbTrace
10
-148.144404915
20
6831.54548292
30
0
11
-160.632944648
21
6906.54548292
31
0
12
-135.655865182
22
6906.54548292
32
0
13
-135.655865182
23
6906.54548292
33
0
0
MTEXT
5
199
100
AcDbEntity
8
dimension
6
CONTINUOUS
62
7
370
0
100
AcDbMText
10
-206.894404915
20
6899.73992736
30
0
40
85
41
103.888888889
71
5
72
1
1
55
7
standard
210
0
220
0
230
1
50
90
73
2
44
1
0
LINE
5
19A
100
AcDbEntity
8
dimension
6
CONTINUOUS
62
7
370
0
100
AcDbLine
10
179.375
20
6776.54548292
11
-160.644404915
21
6776.54548292
0
LINE
5
19B
100
AcDbEntity
8
dimension
6
CONTINUOUS
62
7
370
0
100
AcDbLine
10
179.375
20
6831.54548292
11
-160.644404915
21
6831.54548292
0
ENDBLK
5
9C
330
9A
100
AcDbEntity
8
0
100
AcDbBlockEnd
0
BLOCK
5
9E
330
9D
100
AcDbEntity
8
0
100
AcDbBlockBegin
2
*D26
70
1
10
0
20
0
3
*D26
1

0
LINE
5
19C
100
AcDbEntity
8
dimension
6
CONTINUOUS
62
7
370
0
100
AcDbLine
10
5280.53787052
20
4231.54548292
11
5280.53787052
21
5581.54548292
0
SOLID
5
19D
100
AcDbEntity
8
dimension
6
CONTINUOUS
62
7
370
0
100
AcDbTrace
10
5280.53787052
20
4231.54548292
30
0
11
5268.04933079
21
4306.54548292
31
0
12
5293.02641025
22
4306.54548292
32
0
13
5293.02641025
23
4306.54548292
33
0
0
SOLID
5
19E
100
AcDbEntity
8
dimension
6
CONTINUOUS
62
7
370
0
100
AcDbTrace
10
5280.53787052
20
5581.54548292
30
0
11
5293.02641025
21
5506.54548292
31
0
12
5268.04933079
22
5506.54548292
32
0
13
5268.04933079
23
5506.54548292
33
0
0
MTEXT
5
19F
100
AcDbEntity
8
dimension
6
CONTINUOUS
62
7
370
0
100
AcDbMText
10
5221.78787052
20
4906.54548292
30
0
40
85
41
217.222222222
71
5
72
1
1
1350
7
standard
210
0
220
0
230
1
50
90
73
2
44
1
0
LINE
5
1A0
100
AcDbEntity
8
dimension
6
CONTINUOUS
62
7
370
0
100
AcDbLine
10
5026.36019647
20
4231.54548292
11
5293.03787052
21
4231.54548292
0
LINE
5
1A1
100
AcDbEntity
8
dimension
6
CONTINUOUS
62
7
370
0
100
AcDbLine
10
5023.375
20
5581.54548292
11
5293.03787052
21
5581.54548292
0
ENDBLK
5
9F
330
9D
100
AcDbEntity
8
0
100
AcDbBlockEnd
0
BLOCK
5
A1
330
A0
100
AcDbEntity
8
0
100
AcDbBlockBegin
2
*D23
70
1
10
0
20
0
3
*D23
1

0
LINE
5
1A2
100
AcDbEntity
8
dimension
6
CONTINUOUS
62
7
370
0
100
AcDbLine
10
-1296.88356703
20
293.545482915
11
-1296.88356703
21
2731.54548292
0
SOLID
5
1A3
100
AcDbEntity
8
dimension
6
CONTINUOUS
62
7
370
0
100
AcDbTrace
10
-1296.88356703
20
293.545482915
30
0
11
-1309.37210676
21
368.545482915
31
0
12
-1284.3950273
22
368.545482915
32
0
13
-1284.3950273
23
368.545482915
33
0
0
SOLID
5
1A4
100
AcDbEntity
8
dimension
6
CONTINUOUS
62
7
370
0
100
AcDbTrace
10
-1296.88356703
20
2731.54548292
30
0
11
-1284.3950273
21
2656.54548292
31
0
12
-1309.37210676
22
2656.54548292
32
0
13
-1309.37210676
23
2656.54548292
33
0
0
MTEXT
5
1A5
100
AcDbEntity
8
dimension
6
CONTINUOUS
62
7
370
0
100
AcDbMText
10
-1355.63356703
20
1512.54548292
30
0
40
85
41
245.555555556
71
5
72
1
1
2438
7
standard
210
0
220
0
230
1
50
90
73
2
44
1
0
LINE
5
1A6
100
AcDbEntity
8
dimension
6
CONTINUOUS
62
7
370
0
100
AcDbLine
10
179.375
20
293.545482915
11
-1309.38356703
21
293.545482915
0
LINE
5
1A7
100
AcDbEntity
8
dimension
6
CONTINUOUS
62
7
370
0
100
AcDbLine
10
179.375
20
2731.54548292
11
-1309.38356703
21
2731.54548292
0
ENDBLK
5
A2
330
A0
100
AcDbEntity
8
0
100
AcDbBlockEnd
0
BLOCK
5
A4
330
A3
100
AcDbEntity
8
0
100
AcDbBlockBegin
2
refer
70
0
10
0
20
0
3
refer
1

0
LINE
5
1A8
100
AcDbEntity
8
fixtures
6
ByLayer
62
256
370
-1
100
AcDbLine
10
0
20
0
11
0
21
-55
0
LINE
5
1A9
100
AcDbEntity
8
fixtures
6
ByLayer
62
256
370
-1
100
AcDbLine
10
-60
20
0
11
-60
21
-55
0
LINE
5
1AA
100
AcDbEntity
8
fixtures
6
ByLayer
62
256
370
-1
100
AcDbLine
10
0
20
-50
11
-60
21
-50
0
LINE
5
1AB
100
AcDbEntity
8
fixtures
6
ByLayer
62
256
370
-1
100
AcDbLine
10
0
20
0
11
-60
21
0
0
ARC
5
1AC
100
AcDbEntity
8
fixtures
6
ByLayer
62
256
370
-1
100
AcDbCircle
10
-30
20
68.9692211372
40
127.54751189
100
AcDbArc
50
256.396206231
51
283.603793769
0
LINE
5
1AD
100
AcDbEntity
8
fixtures
6
ByLayer
62
256
370
-1
100
AcDbLine
10
0
20
-51
11
-60
21
-51
0
MTEXT
5
1AE
100
AcDbEntity
8
fixtures
6
ByLayer
62
256
370
-1
100
AcDbMText
10
-57.2722082099
20
-19.3598590569
30
0
40
20
41
53.3333333333
71
4
72
5
1
Refr
7
iso
210
0
220
0
230
1
50
360
73
1
44
0.96
0
ENDBLK
5
A5
330
A3
100
AcDbEntity
8
0
100
AcDbBlockEnd
0
BLOCK
5
A7
330
A6
100
AcDbEntity
8
0
100
AcDbBlockBegin
2
sink
70
0
10
0
20
0
3
sink
1

0
ARC
5
1AF
100
AcDbEntity
8
fixtures
6
ByLayer
62
256
370
-1
100
AcDbCircle
10
4.00260191002
20
0.99739808998
40
4.125
100
AcDbArc
50
76.0075830069
51
193.992416993
0
ARC
5
1B0
100
AcDbEntity
8
fixtures
6
ByLayer
62
256
370
-1
100
AcDbCircle
10
30.99739809
20
0.99739808998
40
4.125
100
AcDbArc
50
346.007583007
51
103.992416993
0
ARC
5
1B1
100
AcDbEntity
8
fixtures
6
ByLayer
62
256
370
-1
100
AcDbCircle
10
30.99739809
20
-20.99739809
40
4.125
100
AcDbArc
50
256.007583007
51
13.9924169931
0
ARC
5
1B2
100
AcDbEntity
8
fixtures
6
ByLayer
62
256
370
-1
100
AcDbCircle
10
30.99739809
20
-35.00260191
40
4.125
100
AcDbArc
50
346.007583007
51
103.992416993
0
ARC
5
1B3
100
AcDbEntity
8
fixtures
6
ByLayer
62
256
370
-1
100
AcDbCircle
10
4.00260191002
20
-20.99739809
40
4.125
100
AcDbArc
50
166.007583007
51
283.992416993
0
ARC
5
1B4
100
AcDbEntity
8
fixtures
6
ByLayer
62
256
370
-1
100
AcDbCircle
10
4.00260191002
20
-35.00260191
40
4.125
100
AcDbArc
50
76.0075830069
51
193.992416993
0
ARC
5
1B5
100
AcDbEntity
8
fixtures
6
ByLayer
62
256
370
-1
100
AcDbCircle
10
30.99739809
20
-56.99739809
40
4.125
100
AcDbArc
50
256.007583007
51
13.9924169931
0
ARC
5
1B6
100
AcDbEntity
8
fixtures
6
ByLayer
62
256
370
-1
100
AcDbCircle
10
4.00260191002
20
-56.99739809
40
4.125
100
AcDbArc
50
166.007583007
51
283.992416993
0
LINE
5
1B7
100
AcDbEntity
8
fixtures
6
ByLayer
62
256
370
-1
100
AcDbLine
10
30
20
-25
11
5
21
-25
0
LINE
5
1B8
100
AcDbEntity
8
fixtures
6
ByLayer
62
256
370
-1
100
AcDbLine
10
5
20
5
11
30
21
5
0
LINE
5
1B9
100
AcDbEntity
8
fixtures
6
ByLayer
62
256
370
-1
100
AcDbLine
10
5
20
-31
11
30
21
-31
0
LINE
5
1BA
100
AcDbEntity
8
fixtures
6
ByLayer
62
256
370
-1
100
AcDbLine
10
30
20
-61
11
5
21
-61
0
LINE
5
1BB
100
AcDbEntity
8
fixtures
6
ByLayer
62
256
370
-1
100
AcDbLine
10
35
20
-36
11
35
21
-56
0
LINE
5
1BC
100
AcDbEntity
8
fixtures
6
ByLayer
62
256
370
-1
100
AcDbLine
10
0
20
-56
11
0
21
-36
0
LINE
5
1BD
100
AcDbEntity
8
fixtures
6
ByLayer
62
256
370
-1
100
AcDbLine
10
0
20
-20
11
0
21
1.3073986338e-12
0
LINE
5
1BE
100
AcDbEntity
8
fixtures
6
ByLayer
62
256
370
-1
100
AcDbLine
10
35
20
1.3073986338e-12
11
35
21
-20
0
ENDBLK
5
A8
330
A6
100
AcDbEntity
8
0
100
AcDbBlockEnd
0
BLOCK
5
AA
330
A9
100
AcDbEntity
8
0
100
AcDbBlockBegin
2
stove
70
0
10
0
20
0
3
stove
1

0
LINE
5
1BF
100
AcDbEntity
8
fixtures
6
ByLayer
62
256
370
-1
100
AcDbLine
10
0
20
62
11
64
21
62
0
LINE
5
1C0
100
AcDbEntity
8
fixtures
6
ByLayer
62
256
370
-1
100
AcDbLine
10
64
20
62
11
64
21
0
0
LINE
5
1C1
100
AcDbEntity
8
fixtures
6
ByLayer
62
256
370
-1
100
AcDbLine
10
64
20
0
11
0
21
0
0
LINE
5
1C2
100
AcDbEntity
8
fixtures
6
ByLayer
62
256
370
-1
100
AcDbLine
10
0
20
0
11
0
21
62
0
CIRCLE
5
1C3
100
AcDbEntity
8
fixtures
6
ByLayer
62
256
370
-1
100
AcDbCircle
10
17
20
21.954456
40
10
0
CIRCLE
5
1C4
100
AcDbEntity
8
fixtures
6
ByLayer
62
256
370
-1
100
AcDbCircle
10
47
20
21.954456
40
7
0
CIRCLE
5
1C5
100
AcDbEntity
8
fixtures
6
ByLayer
62
256
370
-1
100
AcDbCircle
10
47
20
46.954456
40
10
0
CIRCLE
5
1C6
100
AcDbEntity
8
fixtures
6
ByLayer
62
256
370
-1
100
AcDbCircle
10
17
20
46.954456
40
7
0
LINE
5
1C7
100
AcDbEntity
8
fixtures
6
ByLayer
62
256
370
-1
100
AcDbLine
10
0
20
6
11
64
21
6
0
ENDBLK
5
AB
330
A9
100
AcDbEntity
8
0
100
AcDbBlockEnd
0
BLOCK
5
AD
330
AC
100
AcDbEntity
8
0
100
AcDbBlockBegin
2
20ftcontainer-kitchenUnit-0
70
0
10
0
20
0
3
20ftcontainer-kitchenUnit-0
1

0
LINE
5
1C8
100
AcDbEntity
8
0
6
ByLayer
62
256
370
-1
100
AcDbLine
10
209.375
20
293.75
11
6305.375
21
293.75
0
LINE
5
1C9
100
AcDbEntity
8
0
6
ByLayer
62
256
370
-1
100
AcDbLine
10
209.375
20
293.75
11
209.375
21
2731.75
0
LINE
5
1CA
100
AcDbEntity
8
0
6
ByLayer
62
256
370
-1
100
AcDbLine
10
6305.375
20
293.75
11
6305.375
21
2731.75
0
LINE
5
1CB
100
AcDbEntity
8
0
6
ByLayer
62
256
370
-1
100
AcDbLine
10
209.375
20
2731.75
11
6305.375
21
2731.75
0
LINE
5
1CC
100
AcDbEntity
8
0
6
ByLayer
62
256
370
-1
100
AcDbLine
10
253.375
20
2687.75
11
6305.375
21
2687.75
0
LINE
5
1CD
100
AcDbEntity
8
0
6
ByLayer
62
256
370
-1
100
AcDbLine
10
253.375
20
337.75
11
6305.375
21
337.75
0
LINE
5
1CE
100
AcDbEntity
8
0
6
ByLayer
62
256
370
-1
100
AcDbLine
10
253.375
20
337.75
11
253.375
21
2687.75
0
LINE
5
1CF
100
AcDbEntity
8
0
6
ByLayer
62
256
370
-1
100
AcDbLine
10
6325.375
20
2731.75
11
7495.375
21
2731.75
0
LINE
5
1D0
100
AcDbEntity
8
0
6
ByLayer
62
256
370
-1
100
AcDbLine
10
6325.375
20
2691.75
11
7495.375
21
2691.75
0
LINE
5
1D1
100
AcDbEntity
8
0
6
ByLayer
62
256
370
-1
100
AcDbLine
10
6325.375
20
293.75
11
7495.375
21
293.75
0
LINE
5
1D2
100
AcDbEntity
8
0
6
ByLayer
62
256
370
-1
100
AcDbLine
10
6325.375
20
333.75
11
7495.375
21
333.75
0
LINE
5
1D3
100
AcDbEntity
8
0
6
ByLayer
62
256
370
-1
100
AcDbLine
10
7495.375
20
2731.75
11
7495.375
21
2691.75
0
LINE
5
1D4
100
AcDbEntity
8
0
6
ByLayer
62
256
370
-1
100
AcDbLine
10
6325.375
20
2731.75
11
6325.375
21
2691.75
0
LINE
5
1D5
100
AcDbEntity
8
0
6
ByLayer
62
256
370
-1
100
AcDbLine
10
7495.375
20
293.75
11
7495.375
21
333.75
0
DIMENSION
5
1D6
100
AcDbEntity
8
dimension
6
ByLayer
62
256
370
-1
100
AcDbDimension
10
6305.375
20
2995
30
0
11
3257.375
21
3053.75
31
0
70
32
71
5
3
Standard
53
0
210
0
220
0
230
1
100
AcDbAlignedDimension
13
209.375
23
2731.75
33
0
14
6305.375
24
2731.75
34
0
100
AcDbRotatedDimension
0
DIMENSION
5
1D7
100
AcDbEntity
8
dimension
6
ByLayer
62
256
370
-1
100
AcDbDimension
10
7495.375
20
2996.8
30
0
11
6910.375
21
3055.55
31
0
70
32
71
5
3
Standard
53
0
210
0
220
0
230
1
100
AcDbAlignedDimension
13
6325.375
23
2731.75
33
0
14
7495.375
24
2731.75
34
0
100
AcDbRotatedDimension
0
DIMENSION
5
1D8
100
AcDbEntity
8
dimension
6
ByLayer
62
256
370
-1
100
AcDbDimension
10
-312.805175781
20
2731.75
30
0
11
-371.555175781
21
1512.75
31
0
70
32
71
5
3
Standard
53
0
210
0
220
0
230
1
100
AcDbAlignedDimension
13
209.375
23
293.75
33
0
14
209.375
24
2731.75
34
0
50
90
100
AcDbRotatedDimension
0
DIMENSION
5
1D9
100
AcDbEntity
8
dimension
6
ByLayer
62
256
370
-1
100
AcDbDimension
10
6145.375
20
-61.03515625
30
0
11
3199.375
21
-2.28515625
31
0
70
32
71
5
3
Standard
53
0
210
0
220
0
230
1
100
AcDbAlignedDimension
13
253.375
23
337.75
33
0
14
6145.375
24
337.75
34
0
100
AcDbRotatedDimension
0
DIMENSION
5
1DA
100
AcDbEntity
8
dimension
6
ByLayer
62
256
370
-1
100
AcDbDimension
10
-58.59375
20
2687.75
30
0
11
-117.34375
21
1512.75
31
0
70
32
71
5
3
Standard
53
0
210
0
220
0
230
1
100
AcDbAlignedDimension
13
253.375
23
337.75
33
0
14
253.375
24
2687.75
34
0
50
90
100
AcDbRotatedDimension
0
LINE
5
1DB
100
AcDbEntity
8
0
6
DOT2
62
256
370
-1
100
AcDbLine
10
6145.375
20
337.75
11
6145.375
21
2687.75
0
LINE
5
1DC
100
AcDbEntity
8
cabinates
6
ByLayer
62
256
370
-1
100
AcDbLine
10
1703.375
20
387.75
11
1003.375
21
387.75
0
LINE
5
1DD
100
AcDbEntity
8
cabinates
6
ByLayer
62
256
370
-1
100
AcDbLine
10
2403.375
20
2037.75
11
2403.375
21
2637.75
0
LINE
5
1DE
100
AcDbEntity
8
cabinates
6
ByLayer
62
256
370
-1
100
AcDbLine
10
2403.375
20
987.75
11
2403.375
21
387.75
0
LINE
5
1DF
100
AcDbEntity
8
cabinates
6
ByLayer
62
256
370
-1
100
AcDbLine
10
903.375
20
987.75
11
903.375
21
2037.75
0
INSERT
5
1E0
100
AcDbEntity
8
fixtures
6
ByLayer
62
256
370
-1
100
AcDbBlockReference
2
sink
10
453.375
20
1792.75
30
0
41
10
42
10
43
0
50
0
70
1
71
1
44
0
45
0
0
LINE
5
1E1
100
AcDbEntity
8
cabinates
6
ByLayer
62
256
370
-1
100
AcDbLine
10
903.375
20
2037.75
11
1103.375
21
2037.75
0
LINE
5
1E2
100
AcDbEntity
8
cabinates
6
ByLayer
62
256
370
-1
100
AcDbLine
10
1803.375
20
2037.75
11
2403.375
21
2037.75
0
INSERT
5
1E3
100
AcDbEntity
8
fixtures
6
ByLayer
62
256
370
-1
100
AcDbBlockReference
2
refer
10
1753.375
20
2587.75
30
0
41
10
42
10
43
0
50
0
70
1
71
1
44
0
45
0
0
LINE
5
1E4
100
AcDbEntity
8
cabinates
6
ByLayer
62
256
370
-1
100
AcDbLine
10
1803.375
20
2037.75
11
1803.375
21
2637.75
0
LINE
5
1E5
100
AcDbEntity
8
cabinates
6
ByLayer
62
256
370
-1
100
AcDbLine
10
1103.375
20
2037.75
11
1103.375
21
2637.75
0
LINE
5
1E6
100
AcDbEntity
8
cabinates
6
ByLayer
62
256
370
-1
100
AcDbLine
10
1803.375
20
987.75
11
1803.375
21
387.75
0
LINE
5
1E7
100
AcDbEntity
8
cabinates
6
ByLayer
62
256
370
-1
100
AcDbLine
10
1103.375
20
987.75
11
1103.375
21
387.75
0
LINE
5
1E8
100
AcDbEntity
8
cabinates
6
ByLayer
62
256
370
-1
100
AcDbLine
10
1003.375
20
987.75
11
1103.375
21
987.75
0
LINE
5
1E9
100
AcDbEntity
8
cabinates
6
ByLayer
62
256
370
-1
100
AcDbLine
10
903.375
20
987.75
11
1103.375
21
987.75
0
LINE
5
1EA
100
AcDbEntity
8
cabinates
6
ByLayer
62
256
370
-1
100
AcDbLine
10
1803.375
20
987.75
11
2403.375
21
987.75
0
INSERT
5
1EB
100
AcDbEntity
8
fixtures
6
ByLayer
62
256
370
-1
100
AcDbBlockReference
2
stove
10
1133.375
20
417.75
30
0
41
10
42
10
43
0
50
0
70
1
71
1
44
0
45
0
0
LINE
5
1EC
100
AcDbEntity
8
cabinates
6
ByLayer
62
256
370
-1
100
AcDbLine
10
3203.375
20
2037.75
11
3203.375
21
2637.75
0
LINE
5
1ED
100
AcDbEntity
8
cabinates
6
ByLayer
62
256
370
-1
100
AcDbLine
10
2403.375
20
2037.75
11
3203.375
21
2037.75
0
LINE
5
1EE
100
AcDbEntity
8
cabinates
6
ByLayer
62
256
370
-1
100
AcDbLine
10
3203.375
20
987.75
11
3203.375
21
387.75
0
LINE
5
1EF
100
AcDbEntity
8
cabinates
6
ByLayer
62
256
370
-1
100
AcDbLine
10
2403.375
20
987.75
11
3203.375
21
987.75
0
LINE
5
1F0
100
AcDbEntity
8
doors
6
ByLayer
62
256
370
-1
100
AcDbLine
10
6205.375
20
2637.75
11
6255.375
21
2637.75
0
LINE
5
1F1
100
AcDbEntity
8
doors
6
ByLayer
62
256
370
-1
100
AcDbLine
10
6255.375
20
2637.75
11
6255.375
21
1512.75
0
LINE
5
1F2
100
AcDbEntity
8
doors
6
ByLayer
62
256
370
-1
100
AcDbLine
10
6255.375
20
1512.75
11
6205.375
21
1512.75
0
LINE
5
1F3
100
AcDbEntity
8
doors
6
ByLayer
62
256
370
-1
100
AcDbLine
10
6205.375
20
1512.75
11
6205.375
21
2637.75
0
LINE
5
1F4
100
AcDbEntity
8
doors
6
ByLayer
62
256
370
-1
100
AcDbLine
10
6205.375
20
1512.75
11
6155.375
21
1512.75
0
LINE
5
1F5
100
AcDbEntity
8
doors
6
ByLayer
62
256
370
-1
100
AcDbLine
10
6155.375
20
1512.75
11
6155.375
21
387.75
0
LINE
5
1F6
100
AcDbEntity
8
doors
6
ByLayer
62
256
370
-1
100
AcDbLine
10
6155.375
20
387.75
11
6205.375
21
387.75
0
LINE
5
1F7
100
AcDbEntity
8
doors
6
ByLayer
62
256
370
-1
100
AcDbLine
10
6205.375
20
387.75
11
6205.375
21
1512.75
0
ENDBLK
5
AE
330
AC
100
AcDbEntity
8
0
100
AcDbBlockEnd
0
BLOCK
5
B0
330
AF
100
AcDbEntity
8
0
100
AcDbBlockBegin
2
outlet110HorUp-0
70
0
10
0
20
0
3
outlet110HorUp-0
1

0
CIRCLE
5
1F8
100
AcDbEntity
8
0
6
ByLayer
62
256
370
-1
100
AcDbCircle
10
19.2383306793
20
93.1569229908
40
50
0
LINE
5
1F9
100
AcDbEntity
8
0
6
ByLayer
62
256
370
-1
100
AcDbLine
10
36.2896076697
20
0
11
36.2896076697
21
161.186024643
0
LINE
5
1FA
100
AcDbEntity
8
0
6
ByLayer
62
256
370
-1
100
AcDbLine
10
0
20
0
11
0
21
161.186024643
0
ENDBLK
5
B1
330
AF
100
AcDbEntity
8
0
100
AcDbBlockEnd
0
BLOCK
5
B3
330
B2
100
AcDbEntity
8
0
100
AcDbBlockBegin
2
door700VerLeft-1
70
0
10
0
20
0
3
door700VerLeft-1
1

0
LINE
5
1FB
100
AcDbEntity
8
0
6
ByLayer
62
256
370
-1
100
AcDbLine
10
0
20
0
11
-614.878036687
21
-355
0
ARC
5
1FC
100
AcDbEntity
8
0
6
ByLayer
62
256
370
-1
100
AcDbCircle
10
0
20
0
40
710
100
AcDbArc
50
210
51
270
0
LINE
5
1FD
100
AcDbEntity
8
0
6
ByLayer
62
256
370
-1
100
AcDbLine
10
25
20
-43.3012701892
11
-589.878036687
21
-398.301270189
0
LINE
5
1FE
100
AcDbEntity
8
0
6
ByLayer
62
256
370
-1
100
AcDbLine
10
0
20
0
11
25
21
-43.3012701892
0
ENDBLK
5
B4
330
B2
100
AcDbEntity
8
0
100
AcDbBlockEnd
0
BLOCK
5
B6
330
B5
100
AcDbEntity
8
0
100
AcDbBlockBegin
2
WCVerRight-2
70
0
10
0
20
0
3
WCVerRight-2
1

0
LINE
5
1FF
100
AcDbEntity
8
0
6
ByLayer
62
256
370
-1
100
AcDbLine
10
0
20
0
11
200
21
0
0
LINE
5
200
100
AcDbEntity
8
0
6
ByLayer
62
256
370
-1
100
AcDbLine
10
0
20
0
11
0
21
470
0
LINE
5
201
100
AcDbEntity
8
0
6
ByLayer
62
256
370
-1
100
AcDbLine
10
200
20
0
11
200
21
470
0
LINE
5
202
100
AcDbEntity
8
0
6
ByLayer
62
256
370
-1
100
AcDbLine
10
0
20
470
11
200
21
470
0
ELLIPSE
5
203
100
AcDbEntity
8
0
6
ByLayer
62
256
370
-1
100
AcDbEllipse
10
483.839834606
20
228.898383818
30
0
11
238.828093948
21
-6.63411372079
31
0
40
0.61565150347
41
0
42
6.28318530718
0
ENDBLK
5
B7
330
B5
100
AcDbEntity
8
0
100
AcDbBlockEnd
0
BLOCK
5
B9
330
B8
100
AcDbEntity
8
0
100
AcDbBlockBegin
2
tub_ver-0
70
0
10
0
20
0
3
tub_ver-0
1

0
ARC
5
204
100
AcDbEntity
8
0
6
ByLayer
62
256
370
-1
100
AcDbCircle
10
50
20
0
40
50
100
AcDbArc
50
90
51
180
0
LINE
5
205
100
AcDbEntity
8
0
6
ByLayer
62
256
370
-1
100
AcDbLine
10
50
20
50
11
530
21
50
0
ARC
5
206
100
AcDbEntity
8
0
6
ByLayer
62
256
370
-1
100
AcDbCircle
10
530
20
0
40
50
100
AcDbArc
50
0
51
90
0
LINE
5
207
100
AcDbEntity
8
0
6
ByLayer
62
256
370
-1
100
AcDbLine
10
580
20
-870
11
580
21
0
0
ARC
5
208
100
AcDbEntity
8
0
6
ByLayer
62
256
370
-1
100
AcDbCircle
10
530
20
-870
40
50
100
AcDbArc
50
270
51
0
0
LINE
5
209
100
AcDbEntity
8
0
6
ByLayer
62
256
370
-1
100
AcDbLine
10
50
20
-920
11
530
21
-920
0
LINE
5
20A
100
AcDbEntity
8
0
6
ByLayer
62
256
370
-1
100
AcDbLine
10
-2.84217094304e-13
20
-870
11
0
21
0
0
ARC
5
20B
100
AcDbEntity
8
0
6
ByLayer
62
256
370
-1
100
AcDbCircle
10
50
20
-870
40
50
100
AcDbArc
50
180
51
270
0
ENDBLK
5
BA
330
B8
100
AcDbEntity
8
0
100
AcDbBlockEnd
0
BLOCK
5
BC
330
BB
100
AcDbEntity
8
0
100
AcDbBlockBegin
2
door800VerLeft-0
70
0
10
0
20
0
3
door800VerLeft-0
1

0
LINE
5
20C
100
AcDbEntity
8
0
6
ByLayer
62
256
370
-1
100
AcDbLine
10
0
20
0
11
-514.230087749
21
-612.835554495
0
ARC
5
20D
100
AcDbEntity
8
0
6
ByLayer
62
256
370
-1
100
AcDbCircle
10
0
20
0
40
800
100
AcDbArc
50
230
51
270
0
LINE
5
20E
100
AcDbEntity
8
0
6
ByLayer
62
256
370
-1
100
AcDbLine
10
38.3022221559
20
-32.1393804843
11
-475.927865593
21
-644.97493498
0
LINE
5
20F
100
AcDbEntity
8
0
6
ByLayer
62
256
370
-1
100
AcDbLine
10
0
20
0
11
38.3022221559
21
-32.1393804843
0
ENDBLK
5
BD
330
BB
100
AcDbEntity
8
0
100
AcDbBlockEnd
0
BLOCK
5
BF
330
BE
100
AcDbEntity
8
0
100
AcDbBlockBegin
2
KyotoKyomaTatamiVertical-0
70
0
10
0
20
0
3
KyotoKyomaTatamiVertical-0
1

0
LINE
5
210
100
AcDbEntity
8
0
6
ByLayer
62
256
370
-1
100
AcDbLine
10
0
20
0
11
-955
21
0
0
LINE
5
211
100
AcDbEntity
8
0
6
ByLayer
62
256
370
-1
100
AcDbLine
10
0
20
1910
11
-955
21
1910
0
LINE
5
212
100
AcDbEntity
8
0
6
ByLayer
62
256
370
-1
100
AcDbLine
10
-955
20
0
11
-955
21
1910
0
LINE
5
213
100
AcDbEntity
8
0
6
ByLayer
62
256
370
-1
100
AcDbLine
10
0
20
0
11
0
21
1910
0
LINE
5
214
100
AcDbEntity
8
0
6
ByLayer
62
256
370
-1
100
AcDbLine
10
-930
20
0
11
-930
21
1910
0
LINE
5
215
100
AcDbEntity
8
0
6
ByLayer
62
256
370
-1
100
AcDbLine
10
0
20
1885
11
-955
21
1885
0
LINE
5
216
100
AcDbEntity
8
0
6
ByLayer
62
256
370
-1
100
AcDbLine
10
0
20
25
11
-955
21
25
0
LINE
5
217
100
AcDbEntity
8
0
6
ByLayer
62
256
370
-1
100
AcDbLine
10
-25
20
0
11
-25
21
1910
0
LINE
5
218
100
AcDbEntity
8
0
6
ByLayer
62
256
370
-1
100
AcDbLine
10
0
20
955
11
-25
21
955
0
LINE
5
219
100
AcDbEntity
8
0
6
ByLayer
62
256
370
-1
100
AcDbLine
10
-930
20
955
11
-955
21
955
0
ENDBLK
5
C0
330
BE
100
AcDbEntity
8
0
100
AcDbBlockEnd
0
BLOCK
5
C2
330
C1
100
AcDbEntity
8
0
100
AcDbBlockBegin
2
KyotoKyomaTatamiVertical-1
70
0
10
0
20
0
3
KyotoKyomaTatamiVertical-1
1

0
LINE
5
21A
100
AcDbEntity
8
0
6
ByLayer
62
256
370
-1
100
AcDbLine
10
0
20
0
11
-955
21
0
0
LINE
5
21B
100
AcDbEntity
8
0
6
ByLayer
62
256
370
-1
100
AcDbLine
10
0
20
1910
11
-955
21
1910
0
LINE
5
21C
100
AcDbEntity
8
0
6
ByLayer
62
256
370
-1
100
AcDbLine
10
-955
20
0
11
-955
21
1910
0
LINE
5
21D
100
AcDbEntity
8
0
6
ByLayer
62
256
370
-1
100
AcDbLine
10
0
20
0
11
0
21
1910
0
LINE
5
21E
100
AcDbEntity
8
0
6
ByLayer
62
256
370
-1
100
AcDbLine
10
-930
20
0
11
-930
21
1910
0
LINE
5
21F
100
AcDbEntity
8
0
6
ByLayer
62
256
370
-1
100
AcDbLine
10
0
20
1885
11
-955
21
1885
0
LINE
5
220
100
AcDbEntity
8
0
6
ByLayer
62
256
370
-1
100
AcDbLine
10
0
20
25
11
-955
21
25
0
LINE
5
221
100
AcDbEntity
8
0
6
ByLayer
62
256
370
-1
100
AcDbLine
10
-25
20
0
11
-25
21
1910
0
LINE
5
222
100
AcDbEntity
8
0
6
ByLayer
62
256
370
-1
100
AcDbLine
10
0
20
955
11
-25
21
955
0
LINE
5
223
100
AcDbEntity
8
0
6
ByLayer
62
256
370
-1
100
AcDbLine
10
-930
20
955
11
-955
21
955
0
ENDBLK
5
C3
330
C1
100
AcDbEntity
8
0
100
AcDbBlockEnd
0
BLOCK
5
C5
330
C4
100
AcDbEntity
8
0
100
AcDbBlockBegin
2
KyotoKyomaTatamiVertical-2
70
0
10
0
20
0
3
KyotoKyomaTatamiVertical-2
1

0
LINE
5
224
100
AcDbEntity
8
0
6
ByLayer
62
256
370
-1
100
AcDbLine
10
0
20
0
11
-955
21
0
0
LINE
5
225
100
AcDbEntity
8
0
6
ByLayer
62
256
370
-1
100
AcDbLine
10
0
20
1910
11
-955
21
1910
0
LINE
5
226
100
AcDbEntity
8
0
6
ByLayer
62
256
370
-1
100
AcDbLine
10
-955
20
0
11
-955
21
1910
0
LINE
5
227
100
AcDbEntity
8
0
6
ByLayer
62
256
370
-1
100
AcDbLine
10
0
20
0
11
0
21
1910
0
LINE
5
228
100
AcDbEntity
8
0
6
ByLayer
62
256
370
-1
100
AcDbLine
10
-930
20
0
11
-930
21
1910
0
LINE
5
229
100
AcDbEntity
8
0
6
ByLayer
62
256
370
-1
100
AcDbLine
10
0
20
1885
11
-955
21
1885
0
LINE
5
22A
100
AcDbEntity
8
0
6
ByLayer
62
256
370
-1
100
AcDbLine
10
0
20
25
11
-955
21
25
0
LINE
5
22B
100
AcDbEntity
8
0
6
ByLayer
62
256
370
-1
100
AcDbLine
10
-25
20
0
11
-25
21
1910
0
LINE
5
22C
100
AcDbEntity
8
0
6
ByLayer
62
256
370
-1
100
AcDbLine
10
0
20
955
11
-25
21
955
0
LINE
5
22D
100
AcDbEntity
8
0
6
ByLayer
62
256
370
-1
100
AcDbLine
10
-930
20
955
11
-955
21
955
0
ENDBLK
5
C6
330
C4
100
AcDbEntity
8
0
100
AcDbBlockEnd
0
BLOCK
5
C8
330
C7
100
AcDbEntity
8
0
100
AcDbBlockBegin
2
KyotoKyomaTatamiVertical-3
70
0
10
0
20
0
3
KyotoKyomaTatamiVertical-3
1

0
LINE
5
22E
100
AcDbEntity
8
0
6
ByLayer
62
256
370
-1
100
AcDbLine
10
0
20
0
11
-955
21
0
0
LINE
5
22F
100
AcDbEntity
8
0
6
ByLayer
62
256
370
-1
100
AcDbLine
10
0
20
1910
11
-955
21
1910
0
LINE
5
230
100
AcDbEntity
8
0
6
ByLayer
62
256
370
-1
100
AcDbLine
10
-955
20
0
11
-955
21
1910
0
LINE
5
231
100
AcDbEntity
8
0
6
ByLayer
62
256
370
-1
100
AcDbLine
10
0
20
0
11
0
21
1910
0
LINE
5
232
100
AcDbEntity
8
0
6
ByLayer
62
256
370
-1
100
AcDbLine
10
-930
20
0
11
-930
21
1910
0
LINE
5
233
100
AcDbEntity
8
0
6
ByLayer
62
256
370
-1
100
AcDbLine
10
0
20
1885
11
-955
21
1885
0
LINE
5
234
100
AcDbEntity
8
0
6
ByLayer
62
256
370
-1
100
AcDbLine
10
0
20
25
11
-955
21
25
0
LINE
5
235
100
AcDbEntity
8
0
6
ByLayer
62
256
370
-1
100
AcDbLine
10
-25
20
0
11
-25
21
1910
0
LINE
5
236
100
AcDbEntity
8
0
6
ByLayer
62
256
370
-1
100
AcDbLine
10
0
20
955
11
-25
21
955
0
LINE
5
237
100
AcDbEntity
8
0
6
ByLayer
62
256
370
-1
100
AcDbLine
10
-930
20
955
11
-955
21
955
0
ENDBLK
5
C9
330
C7
100
AcDbEntity
8
0
100
AcDbBlockEnd
0
BLOCK
5
CB
330
CA
100
AcDbEntity
8
0
100
AcDbBlockBegin
2
KyotoKyomaTatamiVertical-4
70
0
10
0
20
0
3
KyotoKyomaTatamiVertical-4
1

0
LINE
5
238
100
AcDbEntity
8
0
6
ByLayer
62
256
370
-1
100
AcDbLine
10
0
20
0
11
-955
21
0
0
LINE
5
239
100
AcDbEntity
8
0
6
ByLayer
62
256
370
-1
100
AcDbLine
10
0
20
1910
11
-955
21
1910
0
LINE
5
23A
100
AcDbEntity
8
0
6
ByLayer
62
256
370
-1
100
AcDbLine
10
-955
20
0
11
-955
21
1910
0
LINE
5
23B
100
AcDbEntity
8
0
6
ByLayer
62
256
370
-1
100
AcDbLine
10
0
20
0
11
0
21
1910
0
LINE
5
23C
100
AcDbEntity
8
0
6
ByLayer
62
256
370
-1
100
AcDbLine
10
-930
20
0
11
-930
21
1910
0
LINE
5
23D
100
AcDbEntity
8
0
6
ByLayer
62
256
370
-1
100
AcDbLine
10
0
20
1885
11
-955
21
1885
0
LINE
5
23E
100
AcDbEntity
8
0
6
ByLayer
62
256
370
-1
100
AcDbLine
10
0
20
25
11
-955
21
25
0
LINE
5
23F
100
AcDbEntity
8
0
6
ByLayer
62
256
370
-1
100
AcDbLine
10
-25
20
0
11
-25
21
1910
0
LINE
5
240
100
AcDbEntity
8
0
6
ByLayer
62
256
370
-1
100
AcDbLine
10
0
20
955
11
-25
21
955
0
LINE
5
241
100
AcDbEntity
8
0
6
ByLayer
62
256
370
-1
100
AcDbLine
10
-930
20
955
11
-955
21
955
0
ENDBLK
5
CC
330
CA
100
AcDbEntity
8
0
100
AcDbBlockEnd
0
BLOCK
5
CE
330
CD
100
AcDbEntity
8
0
100
AcDbBlockBegin
2
KyotoKyomaTatamiVertical-5
70
0
10
0
20
0
3
KyotoKyomaTatamiVertical-5
1

0
LINE
5
242
100
AcDbEntity
8
0
6
ByLayer
62
256
370
-1
100
AcDbLine
10
0
20
0
11
-955
21
0
0
LINE
5
243
100
AcDbEntity
8
0
6
ByLayer
62
256
370
-1
100
AcDbLine
10
0
20
1910
11
-955
21
1910
0
LINE
5
244
100
AcDbEntity
8
0
6
ByLayer
62
256
370
-1
100
AcDbLine
10
-955
20
0
11
-955
21
1910
0
LINE
5
245
100
AcDbEntity
8
0
6
ByLayer
62
256
370
-1
100
AcDbLine
10
0
20
0
11
0
21
1910
0
LINE
5
246
100
AcDbEntity
8
0
6
ByLayer
62
256
370
-1
100
AcDbLine
10
-930
20
0
11
-930
21
1910
0
LINE
5
247
100
AcDbEntity
8
0
6
ByLayer
62
256
370
-1
100
AcDbLine
10
0
20
1885
11
-955
21
1885
0
LINE
5
248
100
AcDbEntity
8
0
6
ByLayer
62
256
370
-1
100
AcDbLine
10
0
20
25
11
-955
21
25
0
LINE
5
249
100
AcDbEntity
8
0
6
ByLayer
62
256
370
-1
100
AcDbLine
10
-25
20
0
11
-25
21
1910
0
LINE
5
24A
100
AcDbEntity
8
0
6
ByLayer
62
256
370
-1
100
AcDbLine
10
0
20
955
11
-25
21
955
0
LINE
5
24B
100
AcDbEntity
8
0
6
ByLayer
62
256
370
-1
100
AcDbLine
10
-930
20
955
11
-955
21
955
0
ENDBLK
5
CF
330
CD
100
AcDbEntity
8
0
100
AcDbBlockEnd
0
BLOCK
5
D1
330
D0
100
AcDbEntity
8
0
100
AcDbBlockBegin
2
KyotoKyomaTatamiVertical-6
70
0
10
0
20
0
3
KyotoKyomaTatamiVertical-6
1

0
LINE
5
24C
100
AcDbEntity
8
0
6
ByLayer
62
256
370
-1
100
AcDbLine
10
0
20
0
11
-955
21
0
0
LINE
5
24D
100
AcDbEntity
8
0
6
ByLayer
62
256
370
-1
100
AcDbLine
10
0
20
1910
11
-955
21
1910
0
LINE
5
24E
100
AcDbEntity
8
0
6
ByLayer
62
256
370
-1
100
AcDbLine
10
-955
20
0
11
-955
21
1910
0
LINE
5
24F
100
AcDbEntity
8
0
6
ByLayer
62
256
370
-1
100
AcDbLine
10
0
20
0
11
0
21
1910
0
LINE
5
250
100
AcDbEntity
8
0
6
ByLayer
62
256
370
-1
100
AcDbLine
10
-930
20
0
11
-930
21
1910
0
LINE
5
251
100
AcDbEntity
8
0
6
ByLayer
62
256
370
-1
100
AcDbLine
10
0
20
1885
11
-955
21
1885
0
LINE
5
252
100
AcDbEntity
8
0
6
ByLayer
62
256
370
-1
100
AcDbLine
10
0
20
25
11
-955
21
25
0
LINE
5
253
100
AcDbEntity
8
0
6
ByLayer
62
256
370
-1
100
AcDbLine
10
-25
20
0
11
-25
21
1910
0
LINE
5
254
100
AcDbEntity
8
0
6
ByLayer
62
256
370
-1
100
AcDbLine
10
0
20
955
11
-25
21
955
0
LINE
5
255
100
AcDbEntity
8
0
6
ByLayer
62
256
370
-1
100
AcDbLine
10
-930
20
955
11
-955
21
955
0
ENDBLK
5
D2
330
D0
100
AcDbEntity
8
0
100
AcDbBlockEnd
0
BLOCK
5
D4
330
D3
100
AcDbEntity
8
0
100
AcDbBlockBegin
2
KyotoKyomaTatamiVertical-7
70
0
10
0
20
0
3
KyotoKyomaTatamiVertical-7
1

0
LINE
5
256
100
AcDbEntity
8
0
6
ByLayer
62
256
370
-1
100
AcDbLine
10
0
20
0
11
-955
21
0
0
LINE
5
257
100
AcDbEntity
8
0
6
ByLayer
62
256
370
-1
100
AcDbLine
10
0
20
1910
11
-955
21
1910
0
LINE
5
258
100
AcDbEntity
8
0
6
ByLayer
62
256
370
-1
100
AcDbLine
10
-955
20
0
11
-955
21
1910
0
LINE
5
259
100
AcDbEntity
8
0
6
ByLayer
62
256
370
-1
100
AcDbLine
10
0
20
0
11
0
21
1910
0
LINE
5
25A
100
AcDbEntity
8
0
6
ByLayer
62
256
370
-1
100
AcDbLine
10
-930
20
0
11
-930
21
1910
0
LINE
5
25B
100
AcDbEntity
8
0
6
ByLayer
62
256
370
-1
100
AcDbLine
10
0
20
1885
11
-955
21
1885
0
LINE
5
25C
100
AcDbEntity
8
0
6
ByLayer
62
256
370
-1
100
AcDbLine
10
0
20
25
11
-955
21
25
0
LINE
5
25D
100
AcDbEntity
8
0
6
ByLayer
62
256
370
-1
100
AcDbLine
10
-25
20
0
11
-25
21
1910
0
LINE
5
25E
100
AcDbEntity
8
0
6
ByLayer
62
256
370
-1
100
AcDbLine
10
0
20
955
11
-25
21
955
0
LINE
5
25F
100
AcDbEntity
8
0
6
ByLayer
62
256
370
-1
100
AcDbLine
10
-930
20
955
11
-955
21
955
0
ENDBLK
5
D5
330
D3
100
AcDbEntity
8
0
100
AcDbBlockEnd
0
BLOCK
5
D7
330
D6
100
AcDbEntity
8
0
100
AcDbBlockBegin
2
KyotoKyomaTatamiVertical-8
70
0
10
0
20
0
3
KyotoKyomaTatamiVertical-8
1

0
LINE
5
260
100
AcDbEntity
8
0
6
ByLayer
62
256
370
-1
100
AcDbLine
10
0
20
0
11
-955
21
0
0
LINE
5
261
100
AcDbEntity
8
0
6
ByLayer
62
256
370
-1
100
AcDbLine
10
0
20
1910
11
-955
21
1910
0
LINE
5
262
100
AcDbEntity
8
0
6
ByLayer
62
256
370
-1
100
AcDbLine
10
-955
20
0
11
-955
21
1910
0
LINE
5
263
100
AcDbEntity
8
0
6
ByLayer
62
256
370
-1
100
AcDbLine
10
0
20
0
11
0
21
1910
0
LINE
5
264
100
AcDbEntity
8
0
6
ByLayer
62
256
370
-1
100
AcDbLine
10
-930
20
0
11
-930
21
1910
0
LINE
5
265
100
AcDbEntity
8
0
6
ByLayer
62
256
370
-1
100
AcDbLine
10
0
20
1885
11
-955
21
1885
0
LINE
5
266
100
AcDbEntity
8
0
6
ByLayer
62
256
370
-1
100
AcDbLine
10
0
20
25
11
-955
21
25
0
LINE
5
267
100
AcDbEntity
8
0
6
ByLayer
62
256
370
-1
100
AcDbLine
10
-25
20
0
11
-25
21
1910
0
LINE
5
268
100
AcDbEntity
8
0
6
ByLayer
62
256
370
-1
100
AcDbLine
10
0
20
955
11
-25
21
955
0
LINE
5
269
100
AcDbEntity
8
0
6
ByLayer
62
256
370
-1
100
AcDbLine
10
-930
20
955
11
-955
21
955
0
ENDBLK
5
D8
330
D6
100
AcDbEntity
8
0
100
AcDbBlockEnd
0
BLOCK
5
DA
330
D9
100
AcDbEntity
8
0
100
AcDbBlockBegin
2
KyotoKyomaTatamiHalf-0
70
0
10
0
20
0
3
KyotoKyomaTatamiHalf-0
1

0
LINE
5
26A
100
AcDbEntity
8
0
6
ByLayer
62
256
370
-1
100
AcDbLine
10
0
20
955
11
955
21
955
0
LINE
5
26B
100
AcDbEntity
8
0
6
ByLayer
62
256
370
-1
100
AcDbLine
10
0
20
0
11
955
21
0
0
LINE
5
26C
100
AcDbEntity
8
0
6
ByLayer
62
256
370
-1
100
AcDbLine
10
0
20
0
11
0
21
955
0
LINE
5
26D
100
AcDbEntity
8
0
6
ByLayer
62
256
370
-1
100
AcDbLine
10
955
20
0
11
955
21
955
0
LINE
5
26E
100
AcDbEntity
8
0
6
ByLayer
62
256
370
-1
100
AcDbLine
10
25
20
0
11
25
21
955
0
LINE
5
26F
100
AcDbEntity
8
0
6
ByLayer
62
256
370
-1
100
AcDbLine
10
0
20
930
11
955
21
930
0
LINE
5
270
100
AcDbEntity
8
0
6
ByLayer
62
256
370
-1
100
AcDbLine
10
930
20
0
11
930
21
955
0
LINE
5
271
100
AcDbEntity
8
0
6
ByLayer
62
256
370
-1
100
AcDbLine
10
0
20
25
11
955
21
25
0
ENDBLK
5
DB
330
D9
100
AcDbEntity
8
0
100
AcDbBlockEnd
0
BLOCK
5
DD
330
DC
100
AcDbEntity
8
0
100
AcDbBlockBegin
2
KyotoKyomaTatamiHalf-1
70
0
10
0
20
0
3
KyotoKyomaTatamiHalf-1
1

0
LINE
5
272
100
AcDbEntity
8
0
6
ByLayer
62
256
370
-1
100
AcDbLine
10
0
20
955
11
955
21
955
0
LINE
5
273
100
AcDbEntity
8
0
6
ByLayer
62
256
370
-1
100
AcDbLine
10
0
20
0
11
955
21
0
0
LINE
5
274
100
AcDbEntity
8
0
6
ByLayer
62
256
370
-1
100
AcDbLine
10
0
20
0
11
0
21
955
0
LINE
5
275
100
AcDbEntity
8
0
6
ByLayer
62
256
370
-1
100
AcDbLine
10
955
20
0
11
955
21
955
0
LINE
5
276
100
AcDbEntity
8
0
6
ByLayer
62
256
370
-1
100
AcDbLine
10
25
20
0
11
25
21
955
0
LINE
5
277
100
AcDbEntity
8
0
6
ByLayer
62
256
370
-1
100
AcDbLine
10
0
20
930
11
955
21
930
0
LINE
5
278
100
AcDbEntity
8
0
6
ByLayer
62
256
370
-1
100
AcDbLine
10
930
20
0
11
930
21
955
0
LINE
5
279
100
AcDbEntity
8
0
6
ByLayer
62
256
370
-1
100
AcDbLine
10
0
20
25
11
955
21
25
0
ENDBLK
5
DE
330
DC
100
AcDbEntity
8
0
100
AcDbBlockEnd
0
BLOCK
5
E0
330
DF
100
AcDbEntity
8
0
100
AcDbBlockBegin
2
KyotoKyomaTatamiHalf-2
70
0
10
0
20
0
3
KyotoKyomaTatamiHalf-2
1

0
LINE
5
27A
100
AcDbEntity
8
0
6
ByLayer
62
256
370
-1
100
AcDbLine
10
0
20
955
11
955
21
955
0
LINE
5
27B
100
AcDbEntity
8
0
6
ByLayer
62
256
370
-1
100
AcDbLine
10
0
20
0
11
955
21
0
0
LINE
5
27C
100
AcDbEntity
8
0
6
ByLayer
62
256
370
-1
100
AcDbLine
10
0
20
0
11
0
21
955
0
LINE
5
27D
100
AcDbEntity
8
0
6
ByLayer
62
256
370
-1
100
AcDbLine
10
955
20
0
11
955
21
955
0
LINE
5
27E
100
AcDbEntity
8
0
6
ByLayer
62
256
370
-1
100
AcDbLine
10
25
20
0
11
25
21
955
0
LINE
5
27F
100
AcDbEntity
8
0
6
ByLayer
62
256
370
-1
100
AcDbLine
10
0
20
930
11
955
21
930
0
LINE
5
280
100
AcDbEntity
8
0
6
ByLayer
62
256
370
-1
100
AcDbLine
10
930
20
0
11
930
21
955
0
LINE
5
281
100
AcDbEntity
8
0
6
ByLayer
62
256
370
-1
100
AcDbLine
10
0
20
25
11
955
21
25
0
ENDBLK
5
E1
330
DF
100
AcDbEntity
8
0
100
AcDbBlockEnd
0
BLOCK
5
E3
330
E2
100
AcDbEntity
8
0
100
AcDbBlockBegin
2
KyotoKyomaTatamiHalf-3
70
0
10
0
20
0
3
KyotoKyomaTatamiHalf-3
1

0
LINE
5
282
100
AcDbEntity
8
0
6
ByLayer
62
256
370
-1
100
AcDbLine
10
0
20
955
11
955
21
955
0
LINE
5
283
100
AcDbEntity
8
0
6
ByLayer
62
256
370
-1
100
AcDbLine
10
0
20
0
11
955
21
0
0
LINE
5
284
100
AcDbEntity
8
0
6
ByLayer
62
256
370
-1
100
AcDbLine
10
0
20
0
11
0
21
955
0
LINE
5
285
100
AcDbEntity
8
0
6
ByLayer
62
256
370
-1
100
AcDbLine
10
955
20
0
11
955
21
955
0
LINE
5
286
100
AcDbEntity
8
0
6
ByLayer
62
256
370
-1
100
AcDbLine
10
25
20
0
11
25
21
955
0
LINE
5
287
100
AcDbEntity
8
0
6
ByLayer
62
256
370
-1
100
AcDbLine
10
0
20
930
11
955
21
930
0
LINE
5
288
100
AcDbEntity
8
0
6
ByLayer
62
256
370
-1
100
AcDbLine
10
930
20
0
11
930
21
955
0
LINE
5
289
100
AcDbEntity
8
0
6
ByLayer
62
256
370
-1
100
AcDbLine
10
0
20
25
11
955
21
25
0
ENDBLK
5
E4
330
E2
100
AcDbEntity
8
0
100
AcDbBlockEnd
0
BLOCK
5
E6
330
E5
100
AcDbEntity
8
0
100
AcDbBlockBegin
2
KyotoKyomaTatamiVertical-9
70
0
10
0
20
0
3
KyotoKyomaTatamiVertical-9
1

0
LINE
5
28A
100
AcDbEntity
8
0
6
ByLayer
62
256
370
-1
100
AcDbLine
10
0
20
0
11
-955
21
0
0
LINE
5
28B
100
AcDbEntity
8
0
6
ByLayer
62
256
370
-1
100
AcDbLine
10
0
20
1910
11
-955
21
1910
0
LINE
5
28C
100
AcDbEntity
8
0
6
ByLayer
62
256
370
-1
100
AcDbLine
10
-955
20
0
11
-955
21
1910
0
LINE
5
28D
100
AcDbEntity
8
0
6
ByLayer
62
256
370
-1
100
AcDbLine
10
0
20
0
11
0
21
1910
0
LINE
5
28E
100
AcDbEntity
8
0
6
ByLayer
62
256
370
-1
100
AcDbLine
10
-930
20
0
11
-930
21
1910
0
LINE
5
28F
100
AcDbEntity
8
0
6
ByLayer
62
256
370
-1
100
AcDbLine
10
0
20
1885
11
-955
21
1885
0
LINE
5
290
100
AcDbEntity
8
0
6
ByLayer
62
256
370
-1
100
AcDbLine
10
0
20
25
11
-955
21
25
0
LINE
5
291
100
AcDbEntity
8
0
6
ByLayer
62
256
370
-1
100
AcDbLine
10
-25
20
0
11
-25
21
1910
0
LINE
5
292
100
AcDbEntity
8
0
6
ByLayer
62
256
370
-1
100
AcDbLine
10
0
20
955
11
-25
21
955
0
LINE
5
293
100
AcDbEntity
8
0
6
ByLayer
62
256
370
-1
100
AcDbLine
10
-930
20
955
11
-955
21
955
0
ENDBLK
5
E7
330
E5
100
AcDbEntity
8
0
100
AcDbBlockEnd
0
BLOCK
5
E9
330
E8
100
AcDbEntity
8
0
100
AcDbBlockBegin
2
KyotoKyomaTatami-0
70
0
10
0
20
0
3
KyotoKyomaTatami-0
1

0
LINE
5
294
100
AcDbEntity
8
0
6
ByLayer
62
256
370
-1
100
AcDbLine
10
0
20
0
11
0
21
955
0
LINE
5
295
100
AcDbEntity
8
0
6
ByLayer
62
256
370
-1
100
AcDbLine
10
1910
20
0
11
1910
21
955
0
LINE
5
296
100
AcDbEntity
8
0
6
ByLayer
62
256
370
-1
100
AcDbLine
10
0
20
955
11
1910
21
955
0
LINE
5
297
100
AcDbEntity
8
0
6
ByLayer
62
256
370
-1
100
AcDbLine
10
0
20
0
11
1910
21
0
0
LINE
5
298
100
AcDbEntity
8
0
6
ByLayer
62
256
370
-1
100
AcDbLine
10
0
20
930
11
1910
21
930
0
LINE
5
299
100
AcDbEntity
8
0
6
ByLayer
62
256
370
-1
100
AcDbLine
10
1885
20
0
11
1885
21
955
0
LINE
5
29A
100
AcDbEntity
8
0
6
ByLayer
62
256
370
-1
100
AcDbLine
10
25
20
0
11
25
21
955
0
LINE
5
29B
100
AcDbEntity
8
0
6
ByLayer
62
256
370
-1
100
AcDbLine
10
0
20
25
11
1910
21
25
0
LINE
5
29C
100
AcDbEntity
8
0
6
ByLayer
62
256
370
-1
100
AcDbLine
10
955
20
0
11
955
21
25
0
LINE
5
29D
100
AcDbEntity
8
0
6
ByLayer
62
256
370
-1
100
AcDbLine
10
955
20
930
11
955
21
955
0
ENDBLK
5
EA
330
E8
100
AcDbEntity
8
0
100
AcDbBlockEnd
0
BLOCK
5
EC
330
EB
100
AcDbEntity
8
0
100
AcDbBlockBegin
2
KyotoKyomaTatami-1
70
0
10
0
20
0
3
KyotoKyomaTatami-1
1

0
LINE
5
29E
100
AcDbEntity
8
0
6
ByLayer
62
256
370
-1
100
AcDbLine
10
0
20
0
11
0
21
955
0
LINE
5
29F
100
AcDbEntity
8
0
6
ByLayer
62
256
370
-1
100
AcDbLine
10
1910
20
0
11
1910
21
955
0
LINE
5
2A0
100
AcDbEntity
8
0
6
ByLayer
62
256
370
-1
100
AcDbLine
10
0
20
955
11
1910
21
955
0
LINE
5
2A1
100
AcDbEntity
8
0
6
ByLayer
62
256
370
-1
100
AcDbLine
10
0
20
0
11
1910
21
0
0
LINE
5
2A2
100
AcDbEntity
8
0
6
ByLayer
62
256
370
-1
100
AcDbLine
10
0
20
930
11
1910
21
930
0
LINE
5
2A3
100
AcDbEntity
8
0
6
ByLayer
62
256
370
-1
100
AcDbLine
10
1885
20
0
11
1885
21
955
0
LINE
5
2A4
100
AcDbEntity
8
0
6
ByLayer
62
256
370
-1
100
AcDbLine
10
25
20
0
11
25
21
955
0
LINE
5
2A5
100
AcDbEntity
8
0
6
ByLayer
62
256
370
-1
100
AcDbLine
10
0
20
25
11
1910
21
25
0
LINE
5
2A6
100
AcDbEntity
8
0
6
ByLayer
62
256
370
-1
100
AcDbLine
10
955
20
0
11
955
21
25
0
LINE
5
2A7
100
AcDbEntity
8
0
6
ByLayer
62
256
370
-1
100
AcDbLine
10
955
20
930
11
955
21
955
0
ENDBLK
5
ED
330
EB
100
AcDbEntity
8
0
100
AcDbBlockEnd
0
BLOCK
5
EF
330
EE
100
AcDbEntity
8
0
100
AcDbBlockBegin
2
washer_Hor-0
70
0
10
0
20
0
3
washer_Hor-0
1

0
LINE
5
2A8
100
AcDbEntity
8
0
6
ByLayer
62
256
370
-1
100
AcDbLine
10
520
20
0
11
520
21
550
0
LINE
5
2A9
100
AcDbEntity
8
0
6
ByLayer
62
256
370
-1
100
AcDbLine
10
0
20
0
11
0
21
550
0
LINE
5
2AA
100
AcDbEntity
8
0
6
ByLayer
62
256
370
-1
100
AcDbLine
10
0
20
550
11
520
21
550
0
LINE
5
2AB
100
AcDbEntity
8
0
6
ByLayer
62
256
370
-1
100
AcDbLine
10
0
20
0
11
520
21
0
0
CIRCLE
5
2AC
100
AcDbEntity
8
0
6
ByLayer
62
256
370
-1
100
AcDbCircle
10
260
20
275
40
190.24749449
0
LINE
5
2AD
100
AcDbEntity
8
0
6
ByLayer
62
256
370
-1
100
AcDbLine
10
0
20
50
11
520
21
50
0
ENDBLK
5
F0
330
EE
100
AcDbEntity
8
0
100
AcDbBlockEnd
0
BLOCK
5
F2
330
F1
100
AcDbEntity
8
0
100
AcDbBlockBegin
2
washer_Hor-1
70
0
10
0
20
0
3
washer_Hor-1
1

0
LINE
5
2AE
100
AcDbEntity
8
0
6
ByLayer
62
256
370
-1
100
AcDbLine
10
520
20
0
11
520
21
550
0
LINE
5
2AF
100
AcDbEntity
8
0
6
ByLayer
62
256
370
-1
100
AcDbLine
10
0
20
0
11
0
21
550
0
LINE
5
2B0
100
AcDbEntity
8
0
6
ByLayer
62
256
370
-1
100
AcDbLine
10
0
20
550
11
520
21
550
0
LINE
5
2B1
100
AcDbEntity
8
0
6
ByLayer
62
256
370
-1
100
AcDbLine
10
0
20
0
11
520
21
0
0
CIRCLE
5
2B2
100
AcDbEntity
8
0
6
ByLayer
62
256
370
-1
100
AcDbCircle
10
260
20
275
40
190.24749449
0
LINE
5
2B3
100
AcDbEntity
8
0
6
ByLayer
62
256
370
-1
100
AcDbLine
10
0
20
50
11
520
21
50
0
ENDBLK
5
F3
330
F1
100
AcDbEntity
8
0
100
AcDbBlockEnd
0
BLOCK
5
F5
330
F4
100
AcDbEntity
8
0
100
AcDbBlockBegin
2
refridge500_600_verRight-0
70
0
10
0
20
0
3
refridge500_600_verRight-0
1

0
LINE
5
2B4
100
AcDbEntity
8
0
6
ByLayer
62
256
370
-1
100
AcDbLine
10
0
20
0
11
550
21
0
0
LINE
5
2B5
100
AcDbEntity
8
0
6
ByLayer
62
256
370
-1
100
AcDbLine
10
0
20
-600
11
550
21
-600
0
LINE
5
2B6
100
AcDbEntity
8
0
6
ByLayer
62
256
370
-1
100
AcDbLine
10
500
20
0
11
500
21
-600
0
LINE
5
2B7
100
AcDbEntity
8
0
6
ByLayer
62
256
370
-1
100
AcDbLine
10
0
20
0
11
0
21
-600
0
ARC
5
2B8
100
AcDbEntity
8
0
6
ByLayer
62
256
370
-1
100
AcDbCircle
10
-689.692211372
20
-300
40
1275.4751189
100
AcDbArc
50
346.396206231
51
13.603793769
0
LINE
5
2B9
100
AcDbEntity
8
0
6
ByLayer
62
256
370
-1
100
AcDbLine
10
510
20
0
11
510
21
-600
0
MTEXT
5
2BA
100
AcDbEntity
8
0
6
ByLayer
62
256
370
-1
100
AcDbMText
10
266.901409432
20
-24.0279179021
30
0
40
200
41
533.333333333
71
4
72
5
1
Refr
7
iso
210
0
220
0
230
1
50
270
73
1
44
0.96
0
ENDBLK
5
F6
330
F4
100
AcDbEntity
8
0
100
AcDbBlockEnd
0
BLOCK
5
F8
330
F7
100
AcDbEntity
8
0
100
AcDbBlockBegin
2
Standard40ft12m_withIntwall-0
70
0
10
0
20
0
3
Standard40ft12m_withIntwall-0
1

0
LINE
5
2BB
100
AcDbEntity
8
0
6
ByLayer
62
256
370
-1
100
AcDbLine
10
94
20
94
11
94
21
2346
0
LINE
5
2BC
100
AcDbEntity
8
0
6
ByLayer
62
256
370
-1
100
AcDbLine
10
94
20
94
11
12076
21
94
0
LINE
5
2BD
100
AcDbEntity
8
0
6
ByLayer
62
256
370
-1
100
AcDbLine
10
44
20
44
11
44
21
2396
0
LINE
5
2BE
100
AcDbEntity
8
0
6
ByLayer
62
256
370
-1
100
AcDbLine
10
0
20
0
11
0
21
2440
0
LINE
5
2BF
100
AcDbEntity
8
0
6
ByLayer
62
256
370
-1
100
AcDbLine
10
0
20
0
11
12200
21
0
0
LINE
5
2C0
100
AcDbEntity
8
0
6
ByLayer
62
256
370
-1
100
AcDbLine
10
44
20
44
11
12200
21
44
0
LINE
5
2C1
100
AcDbEntity
8
0
6
ByLayer
62
256
370
-1
100
AcDbLine
10
12200
20
2390
11
13370
21
2390
0
LINE
5
2C2
100
AcDbEntity
8
0
6
ByLayer
62
256
370
-1
100
AcDbLine
10
12200
20
50
11
13370
21
50
0
LINE
5
2C3
100
AcDbEntity
8
0
6
ByLayer
62
256
370
-1
100
AcDbLine
10
12200
20
2434
11
13370
21
2434
0
LINE
5
2C4
100
AcDbEntity
8
0
6
ByLayer
62
256
370
-1
100
AcDbLine
10
12200
20
6
11
13370
21
6
0
LINE
5
2C5
100
AcDbEntity
8
0
6
ByLayer
62
256
370
-1
100
AcDbLine
10
13370
20
50
11
13370
21
2390
0
LINE
5
2C6
100
AcDbEntity
8
0
6
ByLayer
62
256
370
-1
100
AcDbLine
10
12076
20
44
11
12076
21
2396
0
LINE
5
2C7
100
AcDbEntity
8
0
6
ByLayer
62
256
370
-1
100
AcDbLine
10
12200
20
0
11
12200
21
2440
0
LINE
5
2C8
100
AcDbEntity
8
0
6
ByLayer
62
256
370
-1
100
AcDbLine
10
94
20
2346
11
12076
21
2346
0
LINE
5
2C9
100
AcDbEntity
8
0
6
ByLayer
62
256
370
-1
100
AcDbLine
10
0
20
2440
11
12200
21
2440
0
LINE
5
2CA
100
AcDbEntity
8
0
6
ByLayer
62
256
370
-1
100
AcDbLine
10
44
20
2396
11
12200
21
2396
0
ENDBLK
5
F9
330
F7
100
AcDbEntity
8
0
100
AcDbBlockEnd
0
BLOCK
5
FB
330
FA
100
AcDbEntity
8
0
100
AcDbBlockBegin
2
jtub
70
0
10
0
20
0
3
jtub
1

0
INSERT
5
2CB
100
AcDbEntity
8
fixtures
6
ByLayer
62
256
370
-1
100
AcDbBlockReference
2
tub_ver-0
10
89.9985784502
20
870.630897716
30
0
41
1
42
1
43
0
50
0
70
1
71
1
44
0
45
0
0
LINE
5
2CC
100
AcDbEntity
8
fixtures
6
ByLayer
62
256
370
-1
100
AcDbLine
10
759.99857845
20
0.630897714578
11
759.99857845
21
870.630897716
0
ARC
5
2CD
100
AcDbEntity
8
fixtures
6
ByLayer
62
256
370
-1
100
AcDbCircle
10
619.99857845
20
870.630897716
40
140
100
AcDbArc
50
0
51
90
0
ARC
5
2CE
100
AcDbEntity
8
fixtures
6
ByLayer
62
256
370
-1
100
AcDbCircle
10
619.99857845
20
0.630897714578
40
140
100
AcDbArc
50
270
51
0
0
LINE
5
2CF
100
AcDbEntity
8
fixtures
6
ByLayer
62
256
370
-1
100
AcDbLine
10
139.99857845
20
-139.369102285
11
619.99857845
21
-139.369102285
0
ARC
5
2D0
100
AcDbEntity
8
fixtures
6
ByLayer
62
256
370
-1
100
AcDbCircle
10
139.99857845
20
0.630897714578
40
140
100
AcDbArc
50
180
51
270
0
ARC
5
2D1
100
AcDbEntity
8
fixtures
6
ByLayer
62
256
370
-1
100
AcDbCircle
10
139.99857845
20
870.630897716
40
140
100
AcDbArc
50
90
51
180
0
LINE
5
2D2
100
AcDbEntity
8
fixtures
6
ByLayer
62
256
370
-1
100
AcDbLine
10
139.99857845
20
1010.63089772
11
619.99857845
21
1010.63089772
0
LINE
5
2D3
100
AcDbEntity
8
fixtures
6
ByLayer
62
256
370
-1
100
AcDbLine
10
-0.00142154981094
20
870.630897716
11
0
21
0
0
ENDBLK
5
FC
330
FA
100
AcDbEntity
8
0
100
AcDbBlockEnd
0
BLOCK
5
FE
330
FD
100
AcDbEntity
8
0
100
AcDbBlockBegin
2
bathroom
70
0
10
0
20
0
3
bathroom
1

0
ENDBLK
5
FF
330
FD
100
AcDbEntity
8
0
100
AcDbBlockEnd
0
BLOCK
5
101
330
100
100
AcDbEntity
8
0
100
AcDbBlockBegin
2
bathroom2
70
0
10
0
20
0
3
bathroom2
1

0
LINE
5
2D4
100
AcDbEntity
8
0
6
ByLayer
62
256
370
-1
100
AcDbLine
10
50
20
50
11
50
21
2302
0
LINE
5
2D5
100
AcDbEntity
8
0
6
ByLayer
62
256
370
-1
100
AcDbLine
10
50
20
50
11
12032
21
50
0
LINE
5
2D6
100
AcDbEntity
8
0
6
ByLayer
62
256
370
-1
100
AcDbLine
10
50
20
1502
11
1750
21
1502
0
LINE
5
2D7
100
AcDbEntity
8
0
6
ByLayer
62
256
370
-1
100
AcDbLine
10
50
20
1452
11
1750
21
1452
0
LINE
5
2D8
100
AcDbEntity
8
0
6
ByLayer
62
256
370
-1
100
AcDbLine
10
3040
20
50
11
3040
21
2302
0
LINE
5
2D9
100
AcDbEntity
8
0
6
ByLayer
62
256
370
-1
100
AcDbLine
10
3090
20
50
11
3090
21
2302
0
LINE
5
2DA
100
AcDbEntity
8
0
6
ByLayer
62
256
370
-1
100
AcDbLine
10
1750
20
2277
11
1800
21
2277
0
LINE
5
2DB
100
AcDbEntity
8
0
6
ByLayer
62
256
370
-1
100
AcDbLine
10
1750
20
1567
11
1800
21
1567
0
LINE
5
2DC
100
AcDbEntity
8
0
6
ByLayer
62
256
370
-1
100
AcDbLine
10
1750
20
2277
11
1750
21
2302
0
LINE
5
2DD
100
AcDbEntity
8
0
6
ByLayer
62
256
370
-1
100
AcDbLine
10
1800
20
2277
11
1800
21
2302
0
LINE
5
2DE
100
AcDbEntity
8
0
6
ByLayer
62
256
370
-1
100
AcDbLine
10
1750
20
1427
11
1800
21
1427
0
LINE
5
2DF
100
AcDbEntity
8
0
6
ByLayer
62
256
370
-1
100
AcDbLine
10
1750
20
627
11
1800
21
627
0
LINE
5
2E0
100
AcDbEntity
8
0
6
ByLayer
62
256
370
-1
100
AcDbLine
10
1800
20
1427
11
1800
21
1567
0
LINE
5
2E1
100
AcDbEntity
8
0
6
ByLayer
62
256
370
-1
100
AcDbLine
10
1750
20
1427
11
1750
21
1567
0
LINE
5
2E2
100
AcDbEntity
8
0
6
ByLayer
62
256
370
-1
100
AcDbLine
10
1800
20
50
11
1800
21
627
0
LINE
5
2E3
100
AcDbEntity
8
0
6
ByLayer
62
256
370
-1
100
AcDbLine
10
1750
20
50
11
1750
21
627
0
LINE
5
2E4
100
AcDbEntity
8
0
6
ByLayer
62
256
370
-1
100
AcDbLine
10
50
20
2302
11
2090
21
2302
0
LINE
5
2E5
100
AcDbEntity
8
0
6
ByLayer
62
256
370
-1
100
AcDbLine
10
2090
20
2302
11
2090
21
2352
0
LINE
5
2E6
100
AcDbEntity
8
0
6
ByLayer
62
256
370
-1
100
AcDbLine
10
2990
20
2302
11
2990
21
2352
0
LINE
5
2E7
100
AcDbEntity
8
0
6
ByLayer
62
256
370
-1
100
AcDbLine
10
2990
20
2302
11
3890
21
2302
0
INSERT
5
2E8
100
AcDbEntity
8
eletrical
6
ByLayer
62
256
370
-1
100
AcDbBlockReference
2
outlet110HorUp-0
10
427.774224368
20
1502
30
0
41
1
42
1
43
0
50
0
70
1
71
1
44
0
45
0
0
INSERT
5
2E9
100
AcDbEntity
8
doors
6
ByLayer
62
256
370
-1
100
AcDbBlockReference
2
door700VerLeft-1
10
1750
20
2277
30
0
41
1
42
1
43
0
50
0
70
1
71
1
44
0
45
0
0
INSERT
5
2EA
100
AcDbEntity
8
fixtures
6
ByLayer
62
256
370
-1
100
AcDbBlockReference
2
WCVerRight-2
10
50
20
1690.7718683
30
0
41
1
42
1
43
0
50
0
70
1
71
1
44
0
45
0
0
INSERT
5
2EB
100
AcDbEntity
8
doors
6
ByLayer
62
256
370
-1
100
AcDbBlockReference
2
door800VerLeft-0
10
1750
20
1427
30
0
41
1
42
1
43
0
50
0
70
1
71
1
44
0
45
0
0
INSERT
5
2EC
100
AcDbEntity
8
fixtures
6
ByLayer
62
256
370
-1
100
AcDbBlockReference
2
washer_Hor-1
10
2503.68526873
20
60
30
0
41
1
42
1
43
0
50
0
70
1
71
1
44
0
45
0
0
INSERT
5
2ED
100
AcDbEntity
8
fixtures
6
ByLayer
62
256
370
-1
100
AcDbBlockReference
2
jtub
10
50.00142155
20
442.67165141
30
0
41
1
42
1
43
0
50
0
70
1
71
1
44
0
45
0
0
ENDBLK
5
102
330
100
100
AcDbEntity
8
0
100
AcDbBlockEnd
0
BLOCK
5
104
330
103
100
AcDbEntity
8
0
100
AcDbBlockBegin
2
bathroom-0
70
0
10
0
20
0
3
bathroom-0
1

0
INSERT
5
2EE
100
AcDbEntity
8
eletrical
6
ByLayer
62
256
370
-1
100
AcDbBlockReference
2
outlet110HorUp-0
10
-6605.1567221
20
-8498.72804799
30
0
41
1
42
1
43
0
50
0
70
1
71
1
44
0
45
0
0
INSERT
5
2EF
100
AcDbEntity
8
doors
6
ByLayer
62
256
370
-1
100
AcDbBlockReference
2
door700VerLeft-1
10
-5282.93094647
20
-7723.72804799
30
0
41
1
42
1
43
0
50
0
70
1
71
1
44
0
45
0
0
INSERT
5
2F0
100
AcDbEntity
8
fixtures
6
ByLayer
62
256
370
-1
100
AcDbBlockReference
2
WCVerRight-2
10
-6982.93094647
20
-8309.95617969
30
0
41
1
42
1
43
0
50
0
70
1
71
1
44
0
45
0
0
INSERT
5
2F1
100
AcDbEntity
8
doors
6
ByLayer
62
256
370
-1
100
AcDbBlockReference
2
door800VerLeft-0
10
-5282.93094647
20
-8573.72804799
30
0
41
1
42
1
43
0
50
0
70
1
71
1
44
0
45
0
0
INSERT
5
2F2
100
AcDbEntity
8
fixtures
6
ByLayer
62
256
370
-1
100
AcDbBlockReference
2
washer_Hor-1
10
-4529.24567774
20
-9940.72804799
30
0
41
1
42
1
43
0
50
0
70
1
71
1
44
0
45
0
0
INSERT
5
2F3
100
AcDbEntity
8
fixtures
6
ByLayer
62
256
370
-1
100
AcDbBlockReference
2
jtub
10
-6982.92952492
20
-9558.05639658
30
0
41
1
42
1
43
0
50
0
70
1
71
1
44
0
45
0
0
LINE
5
2F4
100
AcDbEntity
8
wall
6
ByLayer
62
256
370
-1
100
AcDbLine
10
-6982.93094647
20
-8498.72804799
11
-5282.93094647
21
-8498.72804799
0
LINE
5
2F5
100
AcDbEntity
8
wall
6
ByLayer
62
256
370
-1
100
AcDbLine
10
-6982.93094647
20
-8548.72804799
11
-5282.93094647
21
-8548.72804799
0
LINE
5
2F6
100
AcDbEntity
8
wall
6
ByLayer
62
256
370
-1
100
AcDbLine
10
-3992.93094647
20
-9950.72804799
11
-3992.93094647
21
-7698.72804799
0
LINE
5
2F7
100
AcDbEntity
8
wall
6
ByLayer
62
256
370
-1
100
AcDbLine
10
-3942.93094647
20
-9950.72804799
11
-3942.93094647
21
-7698.72804799
0
LINE
5
2F8
100
AcDbEntity
8
wall
6
ByLayer
62
256
370
-1
100
AcDbLine
10
-5282.93094647
20
-7723.72804799
11
-5232.93094647
21
-7723.72804799
0
LINE
5
2F9
100
AcDbEntity
8
wall
6
ByLayer
62
256
370
-1
100
AcDbLine
10
-5282.93094647
20
-8433.72804799
11
-5232.93094647
21
-8433.72804799
0
LINE
5
2FA
100
AcDbEntity
8
wall
6
ByLayer
62
256
370
-1
100
AcDbLine
10
-5282.93094647
20
-7723.72804799
11
-5282.93094647
21
-7698.72804799
0
LINE
5
2FB
100
AcDbEntity
8
wall
6
ByLayer
62
256
370
-1
100
AcDbLine
10
-5232.93094647
20
-7723.72804799
11
-5232.93094647
21
-7698.72804799
0
LINE
5
2FC
100
AcDbEntity
8
wall
6
ByLayer
62
256
370
-1
100
AcDbLine
10
-5282.93094647
20
-8573.72804799
11
-5232.93094647
21
-8573.72804799
0
LINE
5
2FD
100
AcDbEntity
8
wall
6
ByLayer
62
256
370
-1
100
AcDbLine
10
-5282.93094647
20
-9373.72804799
11
-5232.93094647
21
-9373.72804799
0
LINE
5
2FE
100
AcDbEntity
8
wall
6
ByLayer
62
256
370
-1
100
AcDbLine
10
-5232.93094647
20
-8573.72804799
11
-5232.93094647
21
-8433.72804799
0
LINE
5
2FF
100
AcDbEntity
8
wall
6
ByLayer
62
256
370
-1
100
AcDbLine
10
-5232.93094647
20
-9950.72804799
11
-5232.93094647
21
-9373.72804799
0
LINE
5
300
100
AcDbEntity
8
wall
6
ByLayer
62
256
370
-1
100
AcDbLine
10
-5282.93094647
20
-9950.72804799
11
-5282.93094647
21
-9373.72804799
0
LINE
5
301
100
AcDbEntity
8
wall
6
ByLayer
62
256
370
-1
100
AcDbLine
10
-4942.93094647
20
-7698.72804799
11
-4942.93094647
21
-7648.72804799
0
LINE
5
302
100
AcDbEntity
8
wall
6
ByLayer
62
256
370
-1
100
AcDbLine
10
-4042.93094647
20
-7698.72804799
11
-4042.93094647
21
-7648.72804799
0
LINE
5
303
100
AcDbEntity
8
wall
6
ByLayer
62
256
370
-1
100
AcDbLine
10
-7032.93094647
20
-7648.72804799
11
-4942.93094647
21
-7648.72804799
0
LINE
5
304
100
AcDbEntity
8
wall
6
ByLayer
62
256
370
-1
100
AcDbLine
10
-7032.93094647
20
-10000.728048
11
-7032.93094647
21
-7648.72804799
0
LINE
5
305
100
AcDbEntity
8
wall
6
ByLayer
62
256
370
-1
100
AcDbLine
10
-4042.93094647
20
-7648.72804799
11
-3942.93094647
21
-7648.72804799
0
LINE
5
306
100
AcDbEntity
8
wall
6
ByLayer
62
256
370
-1
100
AcDbLine
10
-7032.93094647
20
-10000.728048
11
-3942.93094647
21
-10000.728048
0
LINE
5
307
100
AcDbEntity
8
wall
6
ByLayer
62
256
370
-1
100
AcDbLine
10
-4042.93094647
20
-7698.72804799
11
-3992.93094647
21
-7698.72804799
0
LINE
5
308
100
AcDbEntity
8
wall
6
ByLayer
62
256
370
-1
100
AcDbLine
10
-6982.93094647
20
-7698.72804799
11
-5282.93094647
21
-7698.72804799
0
LINE
5
309
100
AcDbEntity
8
wall
6
ByLayer
62
256
370
-1
100
AcDbLine
10
-5232.93094647
20
-7698.72804799
11
-4942.93094647
21
-7698.72804799
0
LINE
5
30A
100
AcDbEntity
8
wall
6
ByLayer
62
256
370
-1
100
AcDbLine
10
-5282.93094647
20
-8498.72804799
11
-5282.93094647
21
-8433.72804799
0
LINE
5
30B
100
AcDbEntity
8
wall
6
ByLayer
62
256
370
-1
100
AcDbLine
10
-5282.93094647
20
-8548.72804799
11
-5282.93094647
21
-8573.72804799
0
LINE
5
30C
100
AcDbEntity
8
wall
6
ByLayer
62
256
370
-1
100
AcDbLine
10
-6982.93094647
20
-9950.72804799
11
-5282.93094647
21
-9950.72804799
0
LINE
5
30D
100
AcDbEntity
8
wall
6
ByLayer
62
256
370
-1
100
AcDbLine
10
-5232.93094647
20
-9950.72804799
11
-3992.93094647
21
-9950.72804799
0
LINE
5
30E
100
AcDbEntity
8
wall
6
ByLayer
62
256
370
-1
100
AcDbLine
10
-6982.93094647
20
-8498.72804799
11
-6982.93094647
21
-7698.72804799
0
LINE
5
30F
100
AcDbEntity
8
wall
6
ByLayer
62
256
370
-1
100
AcDbLine
10
-6982.93094647
20
-8548.72804799
11
-6982.93094647
21
-9950.72804799
0
INSERT
5
310
100
AcDbEntity
8
eletrical
6
ByLayer
62
256
370
-1
100
AcDbBlockReference
2
outlet110HorUp-0
10
-4489.10942509
20
-9950.72804799
30
0
41
1
42
1
43
0
50
0
70
1
71
1
44
1
45
1
0
INSERT
5
311
100
AcDbEntity
8
eletrical
6
ByLayer
62
256
370
-1
100
AcDbBlockReference
2
outlet110HorUp-0
10
-4370.47597537
20
-9950.72804799
30
0
41
1
42
1
43
0
50
0
70
1
71
1
44
1
45
1
0
INSERT
5
312
100
AcDbEntity
8
eletrical
6
ByLayer
62
256
370
-1
100
AcDbBlockReference
2
outlet110HorUp-0
10
-6474.92772043
20
-8548.72804799
30
0
41
1
42
1
43
0
50
180
70
1
71
1
44
1
45
1
0
ENDBLK
5
105
330
103
100
AcDbEntity
8
0
100
AcDbBlockEnd
0
ENDSEC
0
SECTION
2
ENTITIES
0
DIMENSION
5
313
100
AcDbEntity
8
dimension
6
ByLayer
62
256
370
-1
100
AcDbDimension
2
*D1
10
6145.375
20
-61.2396733346
30
0
11
3199.375
21
-2.48967333456
31
0
70
32
71
5
72
0
3
Standard
53
0
210
0
220
0
230
1
100
AcDbAlignedDimension
13
253.375
23
337.545482915
33
0
14
6145.375
24
337.545482915
34
0
100
AcDbRotatedDimension
0
DIMENSION
5
314
100
AcDbEntity
8
dimension
6
ByLayer
62
256
370
-1
100
AcDbDimension
2
*D2
10
-353.203785218
20
6831.54548292
30
0
11
-411.953785218
21
5531.54548292
31
0
70
32
71
5
3
Standard
53
0
210
0
220
0
230
1
100
AcDbAlignedDimension
13
209.375
23
4231.54548292
33
0
14
209.375
24
6831.54548292
34
0
50
90
100
AcDbRotatedDimension
0
DIMENSION
5
315
100
AcDbEntity
8
dimension
6
ByLayer
62
256
370
-1
100
AcDbDimension
2
*D3
10
-25.8343340045
20
6776.54548292
30
0
11
-84.5843340045
21
5579.04548292
31
0
70
32
71
5
3
Standard
53
0
210
0
220
0
230
1
100
AcDbAlignedDimension
13
209.375
23
4381.54548292
33
0
14
209.375
24
6776.54548292
34
0
50
90
100
AcDbRotatedDimension
0
MTEXT
5
316
100
AcDbEntity
8
text
6
ByLayer
62
256
370
-1
100
AcDbMText
10
2357.38297791
20
3939.53141861
30
0
40
100
41
2055.55560698
71
1
72
1
1
20 ft container side elevation
7
standard
210
0
220
0
230
1
50
0
73
2
44
1
0
INSERT
5
317
100
AcDbEntity
8
text
6
ByLayer
62
256
370
-1
100
AcDbBlockReference
2
bathroom
10
-58373.346785
20
-53050.1957777
30
0
41
10
42
10
43
0
50
0
70
1
71
1
44
10
45
10
0
INSERT
5
318
100
AcDbEntity
8
text
6
ByLayer
62
256
370
-1
100
AcDbBlockReference
2
bathroom
10
-58120.0051837
20
-130945.276437
30
0
41
10
42
10
43
0
50
0
70
1
71
1
44
10
45
10
0
INSERT
5
319
100
AcDbEntity
8
text
6
ByLayer
62
256
370
-1
100
AcDbBlockReference
2
bathroom
10
-56904.8349162
20
-45661.7454378
30
0
41
10
42
10
43
0
50
0
70
1
71
1
44
10
45
10
0
INSERT
5
31A
100
AcDbEntity
8
eletrical
6
ByLayer
62
256
370
-1
100
AcDbBlockReference
2
outlet110HorUp-0
10
681.14922437
20
1839.54548293
30
0
41
1
42
1
43
0
50
0
70
1
71
1
44
0
45
0
0
INSERT
5
31B
100
AcDbEntity
8
doors
6
ByLayer
62
256
370
-1
100
AcDbBlockReference
2
door700VerLeft-1
10
2003.375
20
2614.54548293
30
0
41
1
42
1
43
0
50
0
70
1
71
1
44
0
45
0
0
INSERT
5
31C
100
AcDbEntity
8
doors
6
ByLayer
62
256
370
-1
100
AcDbBlockReference
2
door800VerLeft-0
10
2003.375
20
1764.54548293
30
0
41
1
42
1
43
0
50
0
70
1
71
1
44
0
45
0
0
INSERT
5
31D
100
AcDbEntity
8
fixtures
6
ByLayer
62
256
370
-1
100
AcDbBlockReference
2
washer_Hor-1
10
2757.06026873
20
397.545482925
30
0
41
1
42
1
43
0
50
0
70
1
71
1
44
0
45
0
0
LINE
5
31E
100
AcDbEntity
8
wall
6
ByLayer
62
256
370
-1
100
AcDbLine
10
303.375
20
1839.54548293
11
2003.375
21
1839.54548293
0
LINE
5
31F
100
AcDbEntity
8
wall
6
ByLayer
62
256
370
-1
100
AcDbLine
10
303.375
20
1789.54548293
11
2003.375
21
1789.54548293
0
LINE
5
320
100
AcDbEntity
8
wall
6
ByLayer
62
256
370
-1
100
AcDbLine
10
3293.375
20
387.545482925
11
3293.375
21
2639.54548293
0
LINE
5
321
100
AcDbEntity
8
wall
6
ByLayer
62
256
370
-1
100
AcDbLine
10
2003.375
20
2614.54548293
11
2053.375
21
2614.54548293
0
LINE
5
322
100
AcDbEntity
8
wall
6
ByLayer
62
256
370
-1
100
AcDbLine
10
2003.375
20
1904.54548293
11
2053.375
21
1904.54548293
0
LINE
5
323
100
AcDbEntity
8
wall
6
ByLayer
62
256
370
-1
100
AcDbLine
10
2003.375
20
2614.54548293
11
2003.375
21
2639.54548293
0
LINE
5
324
100
AcDbEntity
8
wall
6
ByLayer
62
256
370
-1
100
AcDbLine
10
2053.375
20
2614.54548293
11
2053.375
21
2639.54548293
0
LINE
5
325
100
AcDbEntity
8
wall
6
ByLayer
62
256
370
-1
100
AcDbLine
10
2003.375
20
1764.54548293
11
2053.375
21
1764.54548293
0
LINE
5
326
100
AcDbEntity
8
wall
6
ByLayer
62
256
370
-1
100
AcDbLine
10
2003.375
20
964.545482925
11
2053.375
21
964.545482925
0
LINE
5
327
100
AcDbEntity
8
wall
6
ByLayer
62
256
370
-1
100
AcDbLine
10
2053.375
20
1764.54548293
11
2053.375
21
1904.54548293
0
LINE
5
328
100
AcDbEntity
8
wall
6
ByLayer
62
256
370
-1
100
AcDbLine
10
2053.375
20
387.545482925
11
2053.375
21
964.545482925
0
LINE
5
329
100
AcDbEntity
8
wall
6
ByLayer
62
256
370
-1
100
AcDbLine
10
2003.375
20
387.545482925
11
2003.375
21
964.545482925
0
LINE
5
32A
100
AcDbEntity
8
wall
6
ByLayer
62
256
370
-1
100
AcDbLine
10
3243.375
20
2639.54548293
11
3293.375
21
2639.54548293
0
LINE
5
32B
100
AcDbEntity
8
wall
6
ByLayer
62
256
370
-1
100
AcDbLine
10
303.375
20
2639.54548293
11
2003.375
21
2639.54548293
0
LINE
5
32C
100
AcDbEntity
8
wall
6
ByLayer
62
256
370
-1
100
AcDbLine
10
2053.375
20
2639.54548293
11
2343.375
21
2639.54548293
0
LINE
5
32D
100
AcDbEntity
8
wall
6
ByLayer
62
256
370
-1
100
AcDbLine
10
2003.375
20
1839.54548293
11
2003.375
21
1904.54548293
0
LINE
5
32E
100
AcDbEntity
8
wall
6
ByLayer
62
256
370
-1
100
AcDbLine
10
2003.375
20
1789.54548293
11
2003.375
21
1764.54548293
0
LINE
5
32F
100
AcDbEntity
8
wall
6
ByLayer
62
256
370
-1
100
AcDbLine
10
303.375
20
387.545482925
11
2003.375
21
387.545482925
0
LINE
5
330
100
AcDbEntity
8
wall
6
ByLayer
62
256
370
-1
100
AcDbLine
10
2053.375
20
387.545482925
11
3293.375
21
387.545482925
0
LINE
5
331
100
AcDbEntity
8
wall
6
ByLayer
62
256
370
-1
100
AcDbLine
10
303.375
20
1839.54548293
11
303.375
21
2639.54548293
0
LINE
5
332
100
AcDbEntity
8
wall
6
ByLayer
62
256
370
-1
100
AcDbLine
10
303.375
20
1789.54548293
11
303.375
21
387.545482925
0
INSERT
5
333
100
AcDbEntity
8
eletrical
6
ByLayer
62
256
370
-1
100
AcDbBlockReference
2
outlet110HorUp-0
10
2797.19652138
20
387.545482925
30
0
41
1
42
1
43
0
50
0
70
1
71
1
44
1
45
1
0
INSERT
5
334
100
AcDbEntity
8
eletrical
6
ByLayer
62
256
370
-1
100
AcDbBlockReference
2
outlet110HorUp-0
10
2915.8299711
20
387.545482925
30
0
41
1
42
1
43
0
50
0
70
1
71
1
44
1
45
1
0
INSERT
5
335
100
AcDbEntity
8
eletrical
6
ByLayer
62
256
370
-1
100
AcDbBlockReference
2
outlet110HorUp-0
10
811.37822604
20
1789.54548293
30
0
41
1
42
1
43
0
50
180
70
1
71
1
44
1
45
1
0
INSERT
5
336
100
AcDbEntity
8
fixtures
6
ByLayer
62
256
370
-1
100
AcDbBlockReference
2
stove
10
3423.375
20
1699.72683297
30
0
41
10
42
10
43
0
50
270
70
1
71
1
44
0
45
0
0
LINE
5
337
100
AcDbEntity
8
wall
6
ByLayer
62
256
370
-1
100
AcDbLine
10
3393.375
20
387.545482915
11
3393.375
21
2637.54548292
0
LINE
5
338
100
AcDbEntity
8
wall
6
ByLayer
62
256
370
-1
100
AcDbLine
10
3393.375
20
387.545482915
11
6305.375
21
387.545482915
0
LINE
5
339
100
AcDbEntity
8
cabinates
6
ByLayer
62
256
370
-1
100
AcDbLine
10
3993.375
20
1737.54548292
11
3993.375
21
1937.54548292
0
INSERT
5
33A
100
AcDbEntity
8
fixtures
6
ByLayer
62
256
370
-1
100
AcDbBlockReference
2
sink
10
4264.44251292
20
537.545482915
30
0
41
10
42
10
43
0
50
90
70
1
71
1
44
0
45
0
0
LINE
5
33B
100
AcDbEntity
8
cabinates
6
ByLayer
62
256
370
-1
100
AcDbLine
10
3394.54430791
20
1937.54548292
11
3993.375
21
1937.54548292
0
LINE
5
33C
100
AcDbEntity
8
cabinates
6
ByLayer
62
256
370
-1
100
AcDbLine
10
3394.54430791
20
1737.54548292
11
3993.375
21
1737.54548292
0
INSERT
5
33D
100
AcDbEntity
8
fixtures
6
ByLayer
62
256
370
-1
100
AcDbBlockReference
2
refer
10
3444.54430791
20
2587.54548292
30
0
41
10
42
10
43
0
50
90
70
1
71
1
44
0
45
0
0
LINE
5
33E
100
AcDbEntity
8
wall
6
ByLayer
62
256
370
-1
100
AcDbLine
10
3243.375
20
2639.54548293
11
3243.375
21
2687.54548292
0
LINE
5
33F
100
AcDbEntity
8
wall
6
ByLayer
62
256
370
-1
100
AcDbLine
10
2343.375
20
2639.54548293
11
2343.375
21
2687.54548292
0
LINE
5
340
100
AcDbEntity
8
container
6
ByLayer
62
256
370
-1
100
AcDbLine
10
2343.375
20
2687.54548292
11
2343.375
21
2731.54548292
0
LINE
5
341
100
AcDbEntity
8
container
6
ByLayer
62
256
370
-1
100
AcDbLine
10
3243.375
20
2687.54548292
11
3243.375
21
2731.54548292
0
DIMENSION
5
342
100
AcDbEntity
8
dimension
6
ByLayer
62
256
370
-1
100
AcDbDimension
2
*D4
10
6305.375
20
-266.621086506
30
0
11
3257.375
21
-207.871086506
31
0
70
32
71
5
72
0
3
Standard
53
0
210
0
220
0
230
1
100
AcDbAlignedDimension
13
209.375
23
293.545482915
33
0
14
6305.375
24
293.545482915
34
0
100
AcDbRotatedDimension
0
LINE
5
343
100
AcDbEntity
8
container
6
ByLayer
62
256
370
-1
100
AcDbLine
10
6325.375
20
293.545482915
11
6325.375
21
333.545482915
0
DIMENSION
5
344
100
AcDbEntity
8
dimension
6
ByLayer
62
256
370
-1
100
AcDbDimension
2
*D5
10
7495.375
20
-62.2069186954
30
0
11
6910.375
21
-3.45691869536
31
0
70
32
71
5
72
0
3
Standard
53
0
210
0
220
0
230
1
100
AcDbAlignedDimension
13
6325.375
23
293.545482915
33
0
14
7495.375
24
293.545482915
34
0
100
AcDbRotatedDimension
0
LINE
5
345
100
AcDbEntity
8
container
6
ByLayer
62
256
370
-1
100
AcDbLine
10
256.375
20
1889.54548293
11
209.375
21
1889.54548293
0
LINE
5
346
100
AcDbEntity
8
wall
6
ByLayer
62
256
370
-1
100
AcDbLine
10
253.375
20
2589.54548293
11
303.375
21
2589.54548293
0
LINE
5
347
100
AcDbEntity
8
wall
6
ByLayer
62
256
370
-1
100
AcDbLine
10
303.375
20
1889.54548293
11
256.375
21
1889.54548293
0
INSERT
5
348
100
AcDbEntity
8
fixtures
6
ByLayer
62
256
370
-1
100
AcDbBlockReference
2
WCVerRight-2
10
353.375
20
2028.31735123
30
0
41
1
42
1
43
0
50
0
70
1
71
1
44
0
45
0
0
INSERT
5
349
100
AcDbEntity
8
fixtures
6
ByLayer
62
256
370
-1
100
AcDbBlockReference
2
jtub
10
323.376227743
20
760.217134335
30
0
41
1
42
1
43
0
50
0
70
1
71
1
44
0
45
0
0
LINE
5
34A
100
AcDbEntity
8
wall
6
ByLayer
62
256
370
-1
100
AcDbLine
10
303.375
20
1689.54548293
11
253.375
21
1689.54548293
0
LINE
5
34B
100
AcDbEntity
8
wall
6
ByLayer
62
256
370
-1
100
AcDbLine
10
303.375
20
689.545482925
11
253.375
21
689.545482925
0
LINE
5
34C
100
AcDbEntity
8
container
6
ByLayer
62
256
370
-1
100
AcDbLine
10
253.375
20
1689.54548293
11
209.375
21
1689.54548293
0
LINE
5
34D
100
AcDbEntity
8
container
6
ByLayer
62
256
370
-1
100
AcDbLine
10
253.375
20
689.545482925
11
209.375
21
689.545482925
0
DIMENSION
5
34E
100
AcDbEntity
8
dimension
6
ByLayer
62
256
370
-1
100
AcDbDimension
2
*D6
10
-264.543580206
20
1789.54548293
30
0
11
-323.293580206
21
1063.54548292
31
0
70
32
71
5
72
0
3
Standard
53
0
210
0
220
0
230
1
100
AcDbAlignedDimension
13
253.375
23
337.545482915
33
0
14
303.375
24
1789.54548293
34
0
50
90
100
AcDbRotatedDimension
0
DIMENSION
5
34F
100
AcDbEntity
8
dimension
6
ByLayer
62
256
370
-1
100
AcDbDimension
2
*D7
10
-260.410086765
20
2589.54548293
30
0
11
-319.160086765
21
2660.54548292
31
0
70
32
71
5
72
0
3
Standard
53
0
210
0
220
0
230
1
100
AcDbAlignedDimension
13
209.375
23
2731.54548292
33
0
14
209.375
24
2589.54548293
34
0
50
90
100
AcDbRotatedDimension
0
DIMENSION
5
350
100
AcDbEntity
8
dimension
6
ByLayer
62
256
370
-1
100
AcDbDimension
2
*D8
10
-33.0679475257
20
1889.54548293
30
0
11
-91.8179475257
21
2239.54548293
31
0
70
32
71
5
72
0
3
Standard
53
0
210
0
220
0
230
1
100
AcDbAlignedDimension
13
209.375
23
2589.54548293
33
0
14
209.375
24
1889.54548293
34
0
50
90
100
AcDbRotatedDimension
0
DIMENSION
5
351
100
AcDbEntity
8
dimension
6
ByLayer
62
256
370
-1
100
AcDbDimension
2
*D9
10
52.4854463128
20
689.545482925
30
0
11
-6.2645536872
21
491.54548292
31
0
70
32
71
5
72
0
3
Standard
53
0
210
0
220
0
230
1
100
AcDbAlignedDimension
13
209.375
23
293.545482915
33
0
14
209.375
24
689.545482925
34
0
50
90
100
AcDbRotatedDimension
0
DIMENSION
5
352
100
AcDbEntity
8
dimension
6
ByLayer
62
256
370
-1
100
AcDbDimension
2
*D10
10
55.5541518432
20
1689.54548293
30
0
11
-3.1958481568
21
1189.54548293
31
0
70
32
71
5
72
0
3
Standard
53
0
210
0
220
0
230
1
100
AcDbAlignedDimension
13
209.375
23
689.545482925
33
0
14
209.375
24
1689.54548293
34
0
50
90
100
AcDbRotatedDimension
0
DIMENSION
5
353
100
AcDbEntity
8
dimension
6
ByLayer
62
256
370
-1
100
AcDbDimension
2
*D11
10
2343.375
20
2978.55619604
30
0
11
1276.375
21
3037.30619604
31
0
70
32
71
5
72
0
3
Standard
53
0
210
0
220
0
230
1
100
AcDbAlignedDimension
13
209.375
23
2731.54548292
33
0
14
2343.375
24
2731.54548292
34
0
100
AcDbRotatedDimension
0
DIMENSION
5
354
100
AcDbEntity
8
dimension
6
ByLayer
62
256
370
-1
100
AcDbDimension
2
*D12
10
2003.375
20
2820.49140687
30
0
11
1128.375
21
2879.24140687
31
0
70
32
71
5
72
0
3
Standard
53
0
210
0
220
0
230
1
100
AcDbAlignedDimension
13
253.375
23
2687.54548292
33
0
14
2003.375
24
2639.54548293
34
0
100
AcDbRotatedDimension
0
DIMENSION
5
355
100
AcDbEntity
8
dimension
6
ByLayer
62
256
370
-1
100
AcDbDimension
2
*D13
10
3243.375
20
2984.17774712
30
0
11
2793.375
21
3042.92774712
31
0
70
32
71
5
72
0
3
Standard
53
0
210
0
220
0
230
1
100
AcDbAlignedDimension
13
2343.375
23
2731.54548292
33
0
14
3243.375
24
2731.54548292
34
0
100
AcDbRotatedDimension
0
DIMENSION
5
356
100
AcDbEntity
8
dimension
6
ByLayer
62
256
370
-1
100
AcDbDimension
2
*D14
10
6305.375
20
2975.91076024
30
0
11
4774.375
21
3034.66076024
31
0
70
32
71
5
72
0
3
Standard
53
0
210
0
220
0
230
1
100
AcDbAlignedDimension
13
3243.375
23
2731.54548292
33
0
14
6305.375
24
2731.54548292
34
0
100
AcDbRotatedDimension
0
DIMENSION
5
357
100
AcDbEntity
8
dimension
6
ByLayer
62
256
370
-1
100
AcDbDimension
2
*D15
10
3293.375
20
96.6742354322
30
0
11
1773.375
21
155.424235432
31
0
70
32
71
5
72
0
3
Standard
53
0
210
0
220
0
230
1
100
AcDbAlignedDimension
13
253.375
23
337.545482915
33
0
14
3293.375
24
387.545482925
34
0
100
AcDbRotatedDimension
0
DIMENSION
5
358
100
AcDbEntity
8
dimension
6
ByLayer
62
256
370
-1
100
AcDbDimension
2
*D16
10
3393.375
20
151.908041533
30
0
11
3343.375
21
210.658041533
31
0
70
32
71
5
72
0
3
Standard
53
0
210
0
220
0
230
1
100
AcDbAlignedDimension
13
3293.375
23
387.545482925
33
0
14
3393.375
24
387.545482915
34
0
100
AcDbRotatedDimension
0
LINE
5
359
100
AcDbEntity
8
cabinates
6
ByLayer
62
256
370
-1
100
AcDbLine
10
5093.375
20
387.545482915
11
5093.375
21
987.545482915
0
LINE
5
35A
100
AcDbEntity
8
cabinates
6
ByLayer
62
256
370
-1
100
AcDbLine
10
3393.375
20
987.545482915
11
5093.375
21
987.545482915
0
DIMENSION
5
35B
100
AcDbEntity
8
dimension
6
ByLayer
62
256
370
-1
100
AcDbDimension
2
*D17
10
5093.375
20
95.0311717895
30
0
11
4243.375
21
153.78117179
31
0
70
32
71
5
72
0
3
Standard
53
0
210
0
220
0
230
1
100
AcDbAlignedDimension
13
3393.375
23
387.545482915
33
0
14
5093.375
24
387.545482915
34
0
100
AcDbRotatedDimension
0
LINE
5
35C
100
AcDbEntity
8
wall
6
ByLayer
62
256
370
-1
100
AcDbLine
10
3393.375
20
2637.54548292
11
4645.375
21
2637.54548292
0
LINE
5
35D
100
AcDbEntity
8
wall
6
ByLayer
62
256
370
-1
100
AcDbLine
10
6045.375
20
2637.54548292
11
6305.375
21
2637.54548292
0
LINE
5
35E
100
AcDbEntity
8
wall
6
ByLayer
62
256
370
-1
100
AcDbLine
10
4645.375
20
2637.54548292
11
4645.375
21
2731.54548292
0
LINE
5
35F
100
AcDbEntity
8
wall
6
ByLayer
62
256
370
-1
100
AcDbLine
10
6045.375
20
2637.54548292
11
6045.375
21
2731.54548292
0
LINE
5
360
100
AcDbEntity
8
wall
6
ByLayer
62
256
370
-1
100
AcDbLine
10
4645.375
20
2637.54548292
11
6045.375
21
2637.54548292
0
LINE
5
361
100
AcDbEntity
8
doors
6
ByLayer
62
256
370
-1
100
AcDbLine
10
5360.375
20
2647.54548292
11
5360.375
21
2682.54548292
0
LINE
5
362
100
AcDbEntity
8
doors
6
ByLayer
62
256
370
-1
100
AcDbLine
10
5330.375
20
2682.54548292
11
5330.375
21
2717.54548292
0
LINE
5
363
100
AcDbEntity
8
doors
6
ByLayer
62
256
370
-1
100
AcDbLine
10
6255.375
20
1497.54548292
11
6205.375
21
1497.54548292
0
LINE
5
364
100
AcDbEntity
8
doors
6
ByLayer
62
256
370
-1
100
AcDbLine
10
6205.375
20
1527.54548292
11
6155.375
21
1527.54548292
0
LINE
5
365
100
AcDbEntity
8
doors
6
ByLayer
62
256
370
-1
100
AcDbLine
10
4655.375
20
2647.54548292
11
4655.375
21
2682.54548292
0
LINE
5
366
100
AcDbEntity
8
doors
6
ByLayer
62
256
370
-1
100
AcDbLine
10
4655.375
20
2647.54548292
11
5360.375
21
2647.54548292
0
LINE
5
367
100
AcDbEntity
8
doors
6
ByLayer
62
256
370
-1
100
AcDbLine
10
6035.375
20
2682.54548292
11
6035.375
21
2717.54548292
0
LINE
5
368
100
AcDbEntity
8
doors
6
ByLayer
62
256
370
-1
100
AcDbLine
10
5330.375
20
2717.54548292
11
6035.375
21
2717.54548292
0
LINE
5
369
100
AcDbEntity
8
doors
6
ByLayer
62
256
370
-1
100
AcDbLine
10
4655.375
20
2682.54548292
11
6035.375
21
2682.54548292
0
LINE
5
36A
100
AcDbEntity
8
doors
6
ByLayer
62
256
370
-1
100
AcDbLine
10
6205.375
20
2627.54548292
11
6255.375
21
2627.54548292
0
LINE
5
36B
100
AcDbEntity
8
doors
6
ByLayer
62
256
370
-1
100
AcDbLine
10
6205.375
20
1512.54548292
11
6205.375
21
2627.54548292
0
LINE
5
36C
100
AcDbEntity
8
doors
6
ByLayer
62
256
370
-1
100
AcDbLine
10
6255.375
20
2627.54548292
11
6255.375
21
1497.54548292
0
LINE
5
36D
100
AcDbEntity
8
doors
6
ByLayer
62
256
370
-1
100
AcDbLine
10
6155.375
20
397.545482915
11
6205.375
21
397.545482915
0
LINE
5
36E
100
AcDbEntity
8
doors
6
ByLayer
62
256
370
-1
100
AcDbLine
10
6205.375
20
397.545482915
11
6205.375
21
1512.54548292
0
LINE
5
36F
100
AcDbEntity
8
doors
6
ByLayer
62
256
370
-1
100
AcDbLine
10
6155.375
20
1527.54548292
11
6155.375
21
397.545482915
0
DIMENSION
5
370
100
AcDbEntity
8
dimension
6
ByLayer
62
256
370
-1
100
AcDbDimension
2
*D18
10
6045.375
20
2840.1046679
30
0
11
6175.375
21
2898.8546679
31
0
70
32
71
5
72
0
3
Standard
53
0
210
0
220
0
230
1
100
AcDbAlignedDimension
13
6305.375
23
2731.54548292
33
0
14
6045.375
24
2731.54548292
34
0
100
AcDbRotatedDimension
0
DIMENSION
5
371
100
AcDbEntity
8
dimension
6
ByLayer
62
256
370
-1
100
AcDbDimension
2
*D19
10
4645.375
20
2838.75020477
30
0
11
5345.375
21
2897.50020477
31
0
70
32
71
5
72
0
3
Standard
53
0
210
0
220
0
230
1
100
AcDbAlignedDimension
13
6045.375
23
2731.54548292
33
0
14
4645.375
24
2731.54548292
34
0
100
AcDbRotatedDimension
0
LINE
5
372
100
AcDbEntity
8
container
6
ByLayer
62
256
370
-1
100
AcDbLine
10
209.375
20
2589.54548293
11
253.375
21
2589.54548293
0
LINE
5
373
100
AcDbEntity
8
wall
6
ByLayer
62
256
370
-1
100
AcDbLine
10
253.375
20
2589.54548293
11
303.375
21
2589.54548293
0
LINE
5
374
100
AcDbEntity
8
container
6
ByLayer
62
256
370
-1
100
AcDbLine
10
209.375
20
293.545482915
11
6305.375
21
293.545482915
0
LINE
5
375
100
AcDbEntity
8
container
6
ByLayer
62
256
370
-1
100
AcDbLine
10
209.375
20
293.545482915
11
209.375
21
2731.54548292
0
LINE
5
376
100
AcDbEntity
8
container
6
ByLayer
62
256
370
-1
100
AcDbLine
10
6305.375
20
293.545482915
11
6305.375
21
2731.54548292
0
LINE
5
377
100
AcDbEntity
8
container
6
ByLayer
62
256
370
-1
100
AcDbLine
10
6145.375
20
337.545482915
11
6145.375
21
2687.54548292
0
LINE
5
378
100
AcDbEntity
8
container
6
ByLayer
62
256
370
-1
100
AcDbLine
10
6325.375
20
2731.54548292
11
7495.375
21
2731.54548292
0
LINE
5
379
100
AcDbEntity
8
container
6
ByLayer
62
256
370
-1
100
AcDbLine
10
6325.375
20
2691.54548292
11
7495.375
21
2691.54548292
0
LINE
5
37A
100
AcDbEntity
8
container
6
ByLayer
62
256
370
-1
100
AcDbLine
10
6325.375
20
293.545482915
11
7495.375
21
293.545482915
0
LINE
5
37B
100
AcDbEntity
8
container
6
ByLayer
62
256
370
-1
100
AcDbLine
10
6325.375
20
333.545482915
11
7495.375
21
333.545482915
0
LINE
5
37C
100
AcDbEntity
8
container
6
ByLayer
62
256
370
-1
100
AcDbLine
10
7495.375
20
2731.54548292
11
7495.375
21
2691.54548292
0
LINE
5
37D
100
AcDbEntity
8
container
6
ByLayer
62
256
370
-1
100
AcDbLine
10
6325.375
20
2731.54548292
11
6325.375
21
2691.54548292
0
LINE
5
37E
100
AcDbEntity
8
container
6
ByLayer
62
256
370
-1
100
AcDbLine
10
7495.375
20
293.545482915
11
7495.375
21
333.545482915
0
LINE
5
37F
100
AcDbEntity
8
container
6
ByLayer
62
256
370
-1
100
AcDbLine
10
209.375
20
4231.54548292
11
6267.375
21
4231.54548292
0
LINE
5
380
100
AcDbEntity
8
container
6
ByLayer
62
256
370
-1
100
AcDbLine
10
6267.375
20
4231.54548292
11
6267.375
21
6831.54548292
0
LINE
5
381
100
AcDbEntity
8
container
6
ByLayer
62
256
370
-1
100
AcDbLine
10
209.375
20
4231.54548292
11
209.375
21
6831.54548292
0
LINE
5
382
100
AcDbEntity
8
container
6
ByLayer
62
256
370
-1
100
AcDbLine
10
209.375
20
6831.54548292
11
6267.375
21
6831.54548292
0
LINE
5
383
100
AcDbEntity
8
container
6
DASHED2
62
256
370
-1
100
AcDbLine
10
209.375
20
6776.54548292
11
6267.375
21
6776.54548292
0
LINE
5
384
100
AcDbEntity
8
container
6
DASHED2
62
256
370
-1
100
AcDbLine
10
209.375
20
4381.54548292
11
6267.375
21
4381.54548292
0
LINE
5
385
100
AcDbEntity
8
container
6
ByLayer
62
256
370
-1
100
AcDbLine
10
209.375
20
2731.54548292
11
2343.375
21
2731.54548292
0
LINE
5
386
100
AcDbEntity
8
container
6
ByLayer
62
256
370
-1
100
AcDbLine
10
253.375
20
2687.54548292
11
2343.375
21
2687.54548292
0
LINE
5
387
100
AcDbEntity
8
container
6
ByLayer
62
256
370
-1
100
AcDbLine
10
3243.375
20
2687.54548292
11
4645.375
21
2687.54548292
0
LINE
5
388
100
AcDbEntity
8
container
6
ByLayer
62
256
370
-1
100
AcDbLine
10
3243.375
20
2731.54548292
11
4645.375
21
2731.54548292
0
LINE
5
389
100
AcDbEntity
8
container
6
ByLayer
62
256
370
-1
100
AcDbLine
10
6045.375
20
2687.54548292
11
6305.375
21
2687.54548292
0
LINE
5
38A
100
AcDbEntity
8
container
6
ByLayer
62
256
370
-1
100
AcDbLine
10
6045.375
20
2731.54548292
11
6305.375
21
2731.54548292
0
LINE
5
38B
100
AcDbEntity
8
container
6
ByLayer
62
256
370
-1
100
AcDbLine
10
4645.375
20
2731.54548292
11
6045.375
21
2731.54548292
0
LINE
5
38C
100
AcDbEntity
8
container
6
ByLayer
62
256
370
-1
100
AcDbLine
10
253.375
20
2589.54548293
11
253.375
21
2687.54548292
0
LINE
5
38D
100
AcDbEntity
8
container
6
ByLayer
62
256
370
-1
100
AcDbLine
10
253.375
20
1689.54548293
11
253.375
21
1889.54548293
0
LINE
5
38E
100
AcDbEntity
8
container
6
ByLayer
62
256
370
-1
100
AcDbLine
10
253.375
20
337.545482915
11
253.375
21
689.545482925
0
LINE
5
38F
100
AcDbEntity
8
doors
6
ByLayer
62
256
370
-1
100
AcDbLine
10
253.375
20
2589.54548293
11
253.375
21
1889.54548293
0
LINE
5
390
100
AcDbEntity
8
doors
6
ByLayer
62
256
370
-1
100
AcDbLine
10
253.375
20
1689.54548293
11
253.375
21
689.545482925
0
MTEXT
5
391
100
AcDbEntity
8
text
6
ByLayer
62
256
370
-1
100
AcDbMText
10
5166.8668009
20
2567.08242462
30
0
40
100
41
344.482541647
71
1
72
1
1
slider
7
STANDARD
210
0
220
0
230
1
50
0
73
2
44
1
0
MTEXT
5
392
100
AcDbEntity
8
text
6
ByLayer
62
256
370
-1
100
AcDbMText
10
6411.87502524
20
1458.09196881
30
0
40
100
41
344.482541647
71
1
72
1
1
slider
7
STANDARD
210
0
220
0
230
1
50
90
73
2
44
1
0
MTEXT
5
393
100
AcDbEntity
8
text
6
ByLayer
62
256
370
-1
100
AcDbMText
10
109.124226835
20
2096.30335605
30
0
40
80
41
346.666666667
71
1
72
1
1
window
7
STANDARD
210
0
220
0
230
1
50
90
73
2
44
1
0
MTEXT
5
394
100
AcDbEntity
8
text
6
ByLayer
62
256
370
-1
100
AcDbMText
10
109.124226835
20
1018.28826671
30
0
40
80
41
346.666666667
71
1
72
1
1
window
7
STANDARD
210
0
220
0
230
1
50
90
73
2
44
1
0
LINE
5
395
100
AcDbEntity
8
wall
6
ByLayer
62
256
370
-1
100
AcDbLine
10
2173.375
20
387.545482925
11
2173.375
21
337.545482915
0
LINE
5
396
100
AcDbEntity
8
wall
6
ByLayer
62
256
370
-1
100
AcDbLine
10
3173.375
20
387.545482925
11
3173.375
21
337.545482915
0
LINE
5
397
100
AcDbEntity
8
container
6
ByLayer
62
256
370
-1
100
AcDbLine
10
2173.375
20
337.545482915
11
2173.375
21
293.545482915
0
LINE
5
398
100
AcDbEntity
8
container
6
ByLayer
62
256
370
-1
100
AcDbLine
10
3173.375
20
337.545482915
11
3173.375
21
293.545482915
0
LINE
5
399
100
AcDbEntity
8
container
6
ByLayer
62
256
370
-1
100
AcDbLine
10
253.375
20
337.545482915
11
2173.375
21
337.545482915
0
LINE
5
39A
100
AcDbEntity
8
doors
6
ByLayer
62
256
370
-1
100
AcDbLine
10
2173.375
20
337.545482915
11
3173.375
21
337.545482915
0
LINE
5
39B
100
AcDbEntity
8
wall
6
ByLayer
62
256
370
-1
100
AcDbLine
10
3993.375
20
387.545482915
11
3993.375
21
337.545482915
0
LINE
5
39C
100
AcDbEntity
8
wall
6
ByLayer
62
256
370
-1
100
AcDbLine
10
4993.375
20
387.545482915
11
4993.375
21
337.545482915
0
LINE
5
39D
100
AcDbEntity
8
container
6
ByLayer
62
256
370
-1
100
AcDbLine
10
3993.375
20
337.545482915
11
3993.375
21
293.545482915
0
LINE
5
39E
100
AcDbEntity
8
container
6
ByLayer
62
256
370
-1
100
AcDbLine
10
4993.375
20
337.545482915
11
4993.375
21
293.545482915
0
LINE
5
39F
100
AcDbEntity
8
container
6
ByLayer
62
256
370
-1
100
AcDbLine
10
3173.375
20
337.545482915
11
3993.375
21
337.545482915
0
LINE
5
3A0
100
AcDbEntity
8
container
6
ByLayer
62
256
370
-1
100
AcDbLine
10
4993.375
20
337.545482915
11
6305.375
21
337.545482915
0
LINE
5
3A1
100
AcDbEntity
8
doors
6
ByLayer
62
256
370
-1
100
AcDbLine
10
3993.375
20
337.545482915
11
4993.375
21
337.545482915
0
CIRCLE
5
3A2
100
AcDbEntity
8
fixtures
6
ByLayer
62
256
370
-1
100
AcDbCircle
10
1517.76712276
20
903.997173072
40
50
0
MTEXT
5
3A3
100
AcDbEntity
8
text
6
ByLayer
62
256
370
-1
100
AcDbMText
10
1555.82201061
20
871.565313564
30
0
40
60
41
180
71
1
72
1
1
drain
7
STANDARD
210
0
220
0
230
1
50
0
73
2
44
1
0
LINE
5
3A4
100
AcDbEntity
8
wall
6
DOT2
62
256
370
-1
100
AcDbLine
10
2003.375
20
1764.54548293
11
2003.375
21
964.545482925
0
LINE
5
3A5
100
AcDbEntity
8
wall
6
DOT2
62
256
370
-1
100
AcDbLine
10
2053.375
20
1764.54548293
11
2053.375
21
964.545482925
0
MTEXT
5
3A6
100
AcDbEntity
8
text
6
ByLayer
62
256
370
-1
100
AcDbMText
10
2132.88261541
20
909.164039873
30
0
40
60
41
876.666697524
71
1
72
1
1
10-15cm lip \Pcontain shower water
7
STANDARD
210
0
220
0
230
1
50
90
73
2
44
1
0
MTEXT
5
3A7
100
AcDbEntity
8
text
6
ByLayer
62
256
370
-1
100
AcDbMText
10
1106.03242457
20
-1413.01965795
30
0
40
150
41
4437.5
71
1
72
1
1
20ft container, kitchen and bathrooom unit
7
STANDARD
210
0
220
0
230
1
50
0
73
2
44
1
0
MTEXT
5
3A8
100
AcDbEntity
8
text
6
ByLayer
62
256
370
-1
100
AcDbMText
10
3027.46101615
20
-508.817967798
30
0
40
100
41
652.777777778
71
1
72
1
1
floor plan
7
STANDARD
210
0
220
0
230
1
50
0
73
2
44
1
0
LINE
5
3A9
100
AcDbEntity
8
doors
6
ByLayer
62
256
370
-1
100
AcDbLine
10
2173.375
20
6541.54548292
11
3173.375
21
6541.54548292
0
LINE
5
3AA
100
AcDbEntity
8
doors
6
ByLayer
62
256
370
-1
100
AcDbLine
10
3173.375
20
6541.54548292
11
3173.375
21
5741.54548292
0
LINE
5
3AB
100
AcDbEntity
8
doors
6
ByLayer
62
256
370
-1
100
AcDbLine
10
3173.375
20
5741.54548292
11
2173.375
21
5741.54548292
0
LINE
5
3AC
100
AcDbEntity
8
doors
6
ByLayer
62
256
370
-1
100
AcDbLine
10
2173.375
20
5741.54548292
11
2173.375
21
6541.54548292
0
LINE
5
3AD
100
AcDbEntity
8
doors
6
ByLayer
62
256
370
-1
100
AcDbLine
10
3993.375
20
6481.54548292
11
4993.375
21
6481.54548292
0
LINE
5
3AE
100
AcDbEntity
8
doors
6
ByLayer
62
256
370
-1
100
AcDbLine
10
4993.375
20
6481.54548292
11
4993.375
21
5581.54548292
0
LINE
5
3AF
100
AcDbEntity
8
doors
6
ByLayer
62
256
370
-1
100
AcDbLine
10
4993.375
20
5581.54548292
11
3993.375
21
5581.54548292
0
LINE
5
3B0
100
AcDbEntity
8
doors
6
ByLayer
62
256
370
-1
100
AcDbLine
10
3993.375
20
5581.54548292
11
3993.375
21
6481.54548292
0
LINE
5
3B1
100
AcDbEntity
8
wall
6
DOT2
62
256
370
-1
100
AcDbLine
10
209.375
20
4541.54548292
11
3173.375
21
4541.54548292
0
MTEXT
5
3B2
100
AcDbEntity
8
text
6
ByLayer
62
256
370
-1
100
AcDbMText
10
1459.63987125
20
4998.73911279
30
0
40
80
41
955.586033318
71
1
72
1
1
bathroom floor\Praised to provide\Pspace for pluming
7
STANDARD
210
0
220
0
230
1
50
0
73
2
44
1
0
MTEXT
5
3B3
100
AcDbEntity
8
text
6
ByLayer
62
256
370
-1
100
AcDbMText
10
2234.66989139
20
2415.30571234
30
0
40
80
41
955.586033318
71
1
72
1
1
bathroom floor\Praised to provide\Pspace for pluming
7
STANDARD
210
0
220
0
230
1
50
0
73
2
44
1
0
LINE
5
3B4
100
AcDbEntity
8
wall
6
DOT2
62
256
370
-1
100
AcDbLine
10
2343.375
20
2687.54548292
11
3243.375
21
2687.54548292
0
LINE
5
3B5
100
AcDbEntity
8
text
6
ByLayer
62
256
370
-1
100
AcDbLine
10
2831.44300689
20
2781.63656852
11
2831.44300689
21
2581.63656852
0
LINE
5
3B6
100
AcDbEntity
8
text
6
ByLayer
62
256
370
-1
100
AcDbLine
10
2831.44300689
20
2581.63656852
11
2918.04554727
21
2631.63656852
0
LINE
5
3B7
100
AcDbEntity
8
text
6
ByLayer
62
256
370
-1
100
AcDbLine
10
2831.44300689
20
2581.63656852
11
2754.83856258
21
2645.91532949
0
MTEXT
5
3B8
100
AcDbEntity
8
text
6
ByLayer
62
256
370
-1
100
AcDbMText
10
2677.18103168
20
2891.25681457
30
0
40
80
41
397.80825554
71
1
72
1
1
step up
7
STANDARD
210
0
220
0
230
1
50
0
73
2
44
1
0
DIMENSION
5
3B9
100
AcDbEntity
8
dimension
6
ByLayer
62
256
370
-1
100
AcDbDimension
2
*D20
10
132.271790103
20
4541.54548292
30
0
11
73.521790103
21
4461.54548292
31
0
70
32
71
5
72
0
3
Standard
53
0
210
0
220
0
230
1
100
AcDbAlignedDimension
13
209.375
23
4381.54548292
33
0
14
209.375
24
4541.54548292
34
0
50
90
100
AcDbRotatedDimension
0
DIMENSION
5
3BA
100
AcDbEntity
8
dimension
6
ByLayer
62
256
370
-1
100
AcDbDimension
2
*D21
10
-148.805763866
20
4381.54548292
30
0
11
-207.555763866
21
4306.54548292
31
0
70
32
71
5
72
0
3
Standard
53
0
210
0
220
0
230
1
100
AcDbAlignedDimension
13
209.375
23
4231.54548292
33
0
14
209.375
24
4381.54548292
34
0
50
90
100
AcDbRotatedDimension
0
DIMENSION
5
3BB
100
AcDbEntity
8
dimension
6
ByLayer
62
256
370
-1
100
AcDbDimension
2
*D22
10
-148.144404915
20
6831.54548292
30
0
11
-206.894404915
21
6804.04548292
31
0
70
32
71
5
72
0
3
Standard
53
0
210
0
220
0
230
1
100
AcDbAlignedDimension
13
209.375
23
6776.54548292
33
0
14
209.375
24
6831.54548292
34
0
50
90
100
AcDbRotatedDimension
0
LINE
5
3BC
100
AcDbEntity
8
container
6
ByLayer
62
256
370
-1
100
AcDbLine
10
6393.99766611
20
6776.54548292
11
7495.375
21
6776.54548292
0
LINE
5
3BD
100
AcDbEntity
8
container
6
ByLayer
62
256
370
-1
100
AcDbLine
10
7495.375
20
6776.54548292
11
7495.375
21
4381.54548292
0
LINE
5
3BE
100
AcDbEntity
8
container
6
ByLayer
62
256
370
-1
100
AcDbLine
10
7495.375
20
4381.54548292
11
6325.375
21
4381.54548292
0
LINE
5
3BF
100
AcDbEntity
8
container
6
ByLayer
62
256
370
-1
100
AcDbLine
10
6325.375
20
4381.54548292
11
6325.375
21
6776.54548292
0
DIMENSION
5
3C0
100
AcDbEntity
8
dimension
6
ByLayer
62
256
370
-1
100
AcDbDimension
2
*D23
10
-1296.88356703
20
2731.54548292
30
0
11
-1355.63356703
21
1512.54548292
31
0
70
32
71
5
72
0
3
Standard
53
0
210
0
220
0
230
1
100
AcDbAlignedDimension
13
209.375
23
293.545482915
33
0
14
209.375
24
2731.54548292
34
0
50
90
100
AcDbRotatedDimension
0
DIMENSION
5
3C1
100
AcDbEntity
8
dimension
6
ByLayer
62
256
370
-1
100
AcDbDimension
2
*D24
10
-1061.48111558
20
2687.54548292
30
0
11
-1120.23111558
21
1512.54548292
31
0
70
32
71
5
72
0
3
Standard
53
0
210
0
220
0
230
1
100
AcDbAlignedDimension
13
253.375
23
337.545482915
33
0
14
253.375
24
2687.54548292
34
0
50
90
100
AcDbRotatedDimension
0
LINE
5
3C2
100
AcDbEntity
8
container
6
ByLayer
62
256
370
-1
100
AcDbLine
10
-3631.09154673
20
4231.54548292
11
-3631.09154673
21
6831.54548292
0
LINE
5
3C3
100
AcDbEntity
8
container
6
ByLayer
62
256
370
-1
100
AcDbLine
10
-1193.09154673
20
4231.54548292
11
-1193.09154673
21
6831.54548292
0
LINE
5
3C4
100
AcDbEntity
8
container
6
ByLayer
62
256
370
-1
100
AcDbLine
10
-1193.09154673
20
6831.54548292
11
-3631.09154673
21
6831.54548292
0
LINE
5
3C5
100
AcDbEntity
8
container
6
ByLayer
62
256
370
-1
100
AcDbLine
10
-1193.09154673
20
4231.54548292
11
-3631.09154673
21
4231.54548292
0
LINE
5
3C6
100
AcDbEntity
8
wall
6
DOT2
62
256
370
-1
100
AcDbLine
10
-1193.09154673
20
4541.54548292
11
-3631.09154673
21
4541.54548292
0
LINE
5
3C7
100
AcDbEntity
8
container
6
DASHED2
62
256
370
-1
100
AcDbLine
10
-1193.09154673
20
6776.54548292
11
-3631.09154673
21
6776.54548292
0
LINE
5
3C8
100
AcDbEntity
8
container
6
DASHED2
62
256
370
-1
100
AcDbLine
10
-1193.09154673
20
4381.54548292
11
-3631.09154673
21
4381.54548292
0
DIMENSION
5
3C9
100
AcDbEntity
8
dimension
6
ByLayer
62
256
370
-1
100
AcDbDimension
2
*D25
10
3492.80195741
20
5741.54548292
30
0
11
3434.05195741
21
4986.54548292
31
0
70
32
71
5
72
0
3
Standard
53
0
210
0
220
0
230
1
100
AcDbAlignedDimension
13
3177.62308255
23
4231.54548292
33
0
14
3173.375
24
5741.54548292
34
0
50
90
100
AcDbRotatedDimension
0
DIMENSION
5
3CA
100
AcDbEntity
8
dimension
6
ByLayer
62
256
370
-1
100
AcDbDimension
2
*D26
10
5280.53787052
20
5581.54548292
30
0
11
5221.78787052
21
4906.54548292
31
0
70
32
71
5
72
0
3
Standard
53
0
210
0
220
0
230
1
100
AcDbAlignedDimension
13
4996.36019647
23
4231.54548292
33
0
14
4993.375
24
5581.54548292
34
0
50
90
100
AcDbRotatedDimension
0
LINE
5
3CB
100
AcDbEntity
8
container
6
ByLayer
62
256
370
-1
100
AcDbLine
10
-3489.09154673
20
5741.54548292
11
-2789.09154673
21
5741.54548292
0
LINE
5
3CC
100
AcDbEntity
8
container
6
ByLayer
62
256
370
-1
100
AcDbLine
10
-2789.09154673
20
5741.54548292
11
-2789.09154673
21
6541.54548292
0
LINE
5
3CD
100
AcDbEntity
8
container
6
ByLayer
62
256
370
-1
100
AcDbLine
10
-2789.09154673
20
6541.54548292
11
-3489.09154673
21
6541.54548292
0
LINE
5
3CE
100
AcDbEntity
8
container
6
ByLayer
62
256
370
-1
100
AcDbLine
10
-3489.09154673
20
6541.54548292
11
-3489.09154673
21
5741.54548292
0
LINE
5
3CF
100
AcDbEntity
8
container
6
ByLayer
62
256
370
-1
100
AcDbLine
10
-2589.09154673
20
6541.54548292
11
-1589.09154673
21
6541.54548292
0
LINE
5
3D0
100
AcDbEntity
8
container
6
ByLayer
62
256
370
-1
100
AcDbLine
10
-1589.09154673
20
6541.54548292
11
-1589.09154673
21
5741.54548292
0
LINE
5
3D1
100
AcDbEntity
8
container
6
ByLayer
62
256
370
-1
100
AcDbLine
10
-1589.09154673
20
5741.54548292
11
-2589.09154673
21
5741.54548292
0
LINE
5
3D2
100
AcDbEntity
8
container
6
ByLayer
62
256
370
-1
100
AcDbLine
10
-2589.09154673
20
5741.54548292
11
-2589.09154673
21
6541.54548292
0
MTEXT
5
3D3
100
AcDbEntity
8
text
6
ByLayer
62
256
370
-1
100
AcDbMText
10
-3384.29775459
20
5651.0560464
30
0
40
80
41
540
71
1
72
1
1
wc window
7
STANDARD
210
0
220
0
230
1
50
0
73
2
44
1
0
MTEXT
5
3D4
100
AcDbEntity
8
text
6
ByLayer
62
256
370
-1
100
AcDbMText
10
2394.11940086
20
5670.94848358
30
0
40
80
41
584.444444444
71
1
72
1
1
util window
7
STANDARD
210
0
220
0
230
1
50
0
73
2
44
1
0
MTEXT
5
3D5
100
AcDbEntity
8
text
6
ByLayer
62
256
370
-1
100
AcDbMText
10
4179.78856725
20
5515.00004305
30
0
40
80
41
548.888888889
71
1
72
1
1
kit window
7
STANDARD
210
0
220
0
230
1
50
0
73
2
44
1
0
MTEXT
5
3D6
100
AcDbEntity
8
text
6
ByLayer
62
256
370
-1
100
AcDbMText
10
4944.85299305
20
1695.17365196
30
0
40
150
41
216.666666667
71
1
72
1
1
kit
7
STANDARD
210
0
220
0
230
1
50
0
73
2
44
1
0
MTEXT
5
3D7
100
AcDbEntity
8
text
6
ByLayer
62
256
370
-1
100
AcDbMText
10
2714.62337782
20
1523.61752772
30
0
40
150
41
283.333333333
71
1
72
1
1
util
7
STANDARD
210
0
220
0
230
1
50
0
73
2
44
1
0
MTEXT
5
3D8
100
AcDbEntity
8
text
6
ByLayer
62
256
370
-1
100
AcDbMText
10
1123.78112871
20
2530.94845833
30
0
40
150
41
200
71
1
72
1
1
wc
7
STANDARD
210
0
220
0
230
1
50
0
73
2
44
1
0
MTEXT
5
3D9
100
AcDbEntity
8
text
6
ByLayer
62
256
370
-1
100
AcDbMText
10
1190.44611093
20
1560.60260614
30
0
40
150
41
416.666666667
71
1
72
1
1
Bath
7
STANDARD
210
0
220
0
230
1
50
0
73
2
44
1
0
MTEXT
5
3DA
100
AcDbEntity
8
text
6
ByLayer
62
256
370
-1
100
AcDbMText
10
-2464.59546403
20
5647.1808963
30
0
40
80
41
655.555555556
71
1
72
1
1
Bath window
7
STANDARD
210
0
220
0
230
1
50
0
73
2
44
1
0
LINE
5
3DB
100
AcDbEntity
8
container
6
ByLayer
62
256
370
-1
100
AcDbLine
10
15624.6481242
20
4231.54548292
11
15624.6481242
21
6831.54548292
0
LINE
5
3DC
100
AcDbEntity
8
container
6
ByLayer
62
256
370
-1
100
AcDbLine
10
15624.6481242
20
6831.54548292
11
9528.64812416
21
6831.54548292
0
LINE
5
3DD
100
AcDbEntity
8
container
6
ByLayer
62
256
370
-1
100
AcDbLine
10
9528.64812416
20
6831.54548292
11
9528.64812416
21
4231.54548292
0
LINE
5
3DE
100
AcDbEntity
8
container
6
ByLayer
62
256
370
-1
100
AcDbLine
10
9528.64812416
20
4231.54548292
11
15624.6481242
21
4231.54548292
0
LINE
5
3DF
100
AcDbEntity
8
container
6
ByLayer
62
256
370
-1
100
AcDbLine
10
9508.64812416
20
6831.54548292
11
8338.64812416
21
6831.54548292
0
LINE
5
3E0
100
AcDbEntity
8
container
6
ByLayer
62
256
370
-1
100
AcDbLine
10
8338.64812416
20
6831.54548292
11
8338.64812416
21
4381.54548292
0
LINE
5
3E1
100
AcDbEntity
8
container
6
ByLayer
62
256
370
-1
100
AcDbLine
10
8338.64812416
20
4381.54548292
11
9508.64812416
21
4381.54548292
0
LINE
5
3E2
100
AcDbEntity
8
container
6
ByLayer
62
256
370
-1
100
AcDbLine
10
9508.64812416
20
4381.54548292
11
9508.64812416
21
6831.54548292
0
LINE
5
3E3
100
AcDbEntity
8
container
6
DASHED2
62
256
370
-1
100
AcDbLine
10
15624.6481242
20
4381.54548292
11
9528.64812416
21
4381.54548292
0
LINE
5
3E4
100
AcDbEntity
8
container
6
DASHED2
62
256
370
-1
100
AcDbLine
10
15624.6481242
20
6776.54548292
11
9528.64812416
21
6776.54548292
0
LINE
5
3E5
100
AcDbEntity
8
container
6
ByLayer
62
256
370
-1
100
AcDbLine
10
13490.6481242
20
4381.54548292
11
12590.6481242
21
4381.54548292
0
LINE
5
3E6
100
AcDbEntity
8
container
6
ByLayer
62
256
370
-1
100
AcDbLine
10
12590.6481242
20
4381.54548292
11
12590.6481242
21
6381.54548292
0
LINE
5
3E7
100
AcDbEntity
8
container
6
ByLayer
62
256
370
-1
100
AcDbLine
10
12590.6481242
20
6381.54548292
11
13490.6481242
21
6381.54548292
0
LINE
5
3E8
100
AcDbEntity
8
container
6
ByLayer
62
256
370
-1
100
AcDbLine
10
13490.6481242
20
6381.54548292
11
13490.6481242
21
4381.54548292
0
LINE
5
3E9
100
AcDbEntity
8
container
6
ByLayer
62
256
370
-1
100
AcDbLine
10
11188.6481242
20
6381.54548292
11
9788.64812416
21
6381.54548292
0
LINE
5
3EA
100
AcDbEntity
8
container
6
ByLayer
62
256
370
-1
100
AcDbLine
10
9788.64812416
20
6381.54548292
11
9788.64812416
21
4381.54548292
0
LINE
5
3EB
100
AcDbEntity
8
container
6
ByLayer
62
256
370
-1
100
AcDbLine
10
9788.64812416
20
4381.54548292
11
11188.6481242
21
4381.54548292
0
LINE
5
3EC
100
AcDbEntity
8
container
6
ByLayer
62
256
370
-1
100
AcDbLine
10
11188.6481242
20
6381.54548292
11
11188.6481242
21
4381.54548292
0
LINE
5
3ED
100
AcDbEntity
8
doors
6
ByLayer
62
256
370
-1
100
AcDbLine
10
10488.6481242
20
6346.54548292
11
10488.6481242
21
4381.54548292
0
LINE
5
3EE
100
AcDbEntity
8
doors
6
ByLayer
62
256
370
-1
100
AcDbLine
10
11153.6481242
20
6346.54548292
11
11153.6481242
21
4381.54548292
0
LINE
5
3EF
100
AcDbEntity
8
doors
6
ByLayer
62
256
370
-1
100
AcDbLine
10
9823.64812416
20
6346.54548292
11
9823.64812416
21
4381.54548292
0
LINE
5
3F0
100
AcDbEntity
8
doors
6
ByLayer
62
256
370
-1
100
AcDbLine
10
11153.6481242
20
6346.54548292
11
9823.64812416
21
6346.54548292
0
LINE
5
3F1
100
AcDbEntity
8
doors
6
ByLayer
62
256
370
-1
100
AcDbLine
10
13480.6481242
20
6371.54548292
11
13480.6481242
21
4381.54548292
0
LINE
5
3F2
100
AcDbEntity
8
doors
6
ByLayer
62
256
370
-1
100
AcDbLine
10
12600.6481242
20
6371.54548292
11
13480.6481242
21
6371.54548292
0
LINE
5
3F3
100
AcDbEntity
8
doors
6
ByLayer
62
256
370
-1
100
AcDbLine
10
12600.6481242
20
4381.54548292
11
12600.6481242
21
6371.54548292
0
MTEXT
5
3F4
100
AcDbEntity
8
text
6
ByLayer
62
256
370
-1
100
AcDbMText
10
11341.272628
20
3945.99000211
30
0
40
100
41
1294.44449587
71
1
72
1
1
back side elevation
7
STANDARD
210
0
220
0
230
1
50
0
73
2
44
1
0
MTEXT
5
3F5
100
AcDbEntity
8
text
6
ByLayer
62
256
370
-1
100
AcDbMText
10
10226.2627723
20
6534.8486127
30
0
40
80
41
477.777818921
71
1
72
1
1
kit slider
7
STANDARD
210
0
220
0
230
1
50
0
73
2
44
1
0
MTEXT
5
3F6
100
AcDbEntity
8
text
6
ByLayer
62
256
370
-1
100
AcDbMText
10
12814.4910252
20
6507.56755599
30
0
40
80
41
451.111111111
71
1
72
1
1
util door
7
STANDARD
210
0
220
0
230
1
50
0
73
2
44
1
0
DIMENSION
5
3F7
100
AcDbEntity
8
dimension
6
ByLayer
62
256
370
-1
100
AcDbDimension
2
*D27
10
-736.278519128
20
6776.54548292
30
0
11
-795.028519128
21
5659.04548292
31
0
70
32
71
5
3
Standard
53
0
210
0
220
0
230
1
100
AcDbAlignedDimension
13
-1193.09154673
23
4541.54548292
33
0
14
-1193.09154673
24
6776.54548292
34
0
50
90
100
AcDbRotatedDimension
0
ENDSEC
0
SECTION
2
OBJECTS
0
DICTIONARY
5
C
330
0
100
AcDbDictionary
281
1
3
ACAD_GROUP
350
D
0
DICTIONARY
5
D
330
C
100
AcDbDictionary
281
1
0
ENDSEC
0
EOF
