999
dxfrw 0.5.11
0
SECTION
2
HEADER
9
$ACADVER
1
AC1021
9
$HANDSEED
5
20000
9
$DWGCODEPAGE
3
ANSI_1252
9
$INSBASE
10
0
20
0
30
0
9
$EXTMIN
10
-592.492675781
20
-1433.62020931
30
0
9
$EXTMAX
10
7306.9375
20
6331.29123755
30
0
9
$LIMMIN
10
0
20
0
9
$LIMMAX
10
420
20
297
9
$ORTHOMODE
70
0
9
$LTSCALE
40
1
9
$TEXTSTYLE
7
STANDARD
9
$CLAYER
8
doors
9
$DIMASZ
40
75
9
$DIMLFAC
40
1
9
$DIMSCALE
40
1
9
$DIMEXO
40
6
9
$DIMEXE
40
25.5
9
$DIMTXT
40
75
9
$DIMTSZ
40
0
9
$DIMAUNIT
70
0
9
$DIMADEC
70
2
9
$DIMLUNIT
70
2
9
$DIMSTYLE
2
STANDARD
9
$DIMGAP
40
16.25
9
$DIMTIH
70
0
9
$LUNITS
70
2
9
$LUPREC
70
4
9
$AUNITS
70
0
9
$AUPREC
70
2
9
$SPLINESEGS
70
8
9
$GRIDMODE
70
1
9
$SNAPSTYLE
70
0
9
$GRIDUNIT
10
0
20
0
9
$PINSBASE
10
0
20
0
30
0
9
$PLIMMIN
10
0
20
0
9
$PLIMMAX
10
297
20
210
9
$INSUNITS
70
4
9
$PSVPSCALE
40
1
0
ENDSEC
0
SECTION
2
CLASSES
0
ENDSEC
0
SECTION
2
TABLES
0
TABLE
2
VPORT
5
8
330
0
100
AcDbSymbolTable
70
1
0
VPORT
5
31
330
2
100
AcDbSymbolTableRecord
100
AcDbViewportTableRecord
2
*ACTIVE
70
0
10
0
20
0
11
1
21
1
12
5744.81843385
22
3859.24919329
13
0
23
0
14
10
24
10
15
10
25
10
16
0
26
0
36
1
17
0
27
0
37
0
40
8623.10169825
41
2.10626702997
42
50
43
0
44
0
50
0
51
0
71
0
72
100
73
1
74
3
75
0
76
1
77
0
78
0
281
0
65
1
110
0
120
0
130
0
111
1
121
0
131
0
112
0
122
1
132
0
79
0
146
0
348
10020
60
7
61
5
292
1
282
1
141
0
142
0
63
250
421
3358443
0
ENDTAB
0
TABLE
2
LTYPE
5
5
330
0
100
AcDbSymbolTable
70
4
0
LTYPE
5
14
330
5
100
AcDbSymbolTableRecord
100
AcDbLinetypeTableRecord
2
ByBlock
70
0
3

72
65
73
0
40
0
0
LTYPE
5
15
330
5
100
AcDbSymbolTableRecord
100
AcDbLinetypeTableRecord
2
ByLayer
70
0
3

72
65
73
0
40
0
0
LTYPE
5
16
330
5
100
AcDbSymbolTableRecord
100
AcDbLinetypeTableRecord
2
Continuous
70
0
3
Solid line
72
65
73
0
40
0
0
LTYPE
5
32
330
5
100
AcDbSymbolTableRecord
100
AcDbLinetypeTableRecord
2
DOT
70
0
3
Dot . . . . . . . . . . . . . . . . . . . . . .
72
65
73
2
40
6.35
49
0
74
0
49
-6.35
74
0
0
LTYPE
5
33
330
5
100
AcDbSymbolTableRecord
100
AcDbLinetypeTableRecord
2
DOT2
70
0
3
Dot (.5x) .....................................
72
65
73
2
40
3.175
49
0
74
0
49
-3.175
74
0
0
LTYPE
5
34
330
5
100
AcDbSymbolTableRecord
100
AcDbLinetypeTableRecord
2
DOTX2
70
0
3
Dot (2x) .  .  .  .  .  .  .  .  .  .  .  .  .
72
65
73
2
40
12.7
49
0
74
0
49
-12.7
74
0
0
LTYPE
5
35
330
5
100
AcDbSymbolTableRecord
100
AcDbLinetypeTableRecord
2
DASHED
70
0
3
Dot . . . . . . . . . . . . . . . . . . . . . .
72
65
73
2
40
19.05
49
12.7
74
0
49
-6.35
74
0
0
LTYPE
5
36
330
5
100
AcDbSymbolTableRecord
100
AcDbLinetypeTableRecord
2
DASHED2
70
0
3
Dashed (.5x) _ _ _ _ _ _ _ _ _ _ _ _ _ _ _ _ _
72
65
73
2
40
9.525
49
6.35
74
0
49
-3.175
74
0
0
LTYPE
5
37
330
5
100
AcDbSymbolTableRecord
100
AcDbLinetypeTableRecord
2
DASHEDX2
70
0
3
Dashed (2x) ____  ____  ____  ____  ____  ___
72
65
73
2
40
38.1
49
25.4
74
0
49
-12.7
74
0
0
LTYPE
5
38
330
5
100
AcDbSymbolTableRecord
100
AcDbLinetypeTableRecord
2
DASHDOT
70
0
3
Dash dot __ . __ . __ . __ . __ . __ . __ . __
72
65
73
4
40
25.4
49
12.7
74
0
49
-6.35
74
0
49
0
74
0
49
-6.35
74
0
0
LTYPE
5
39
330
5
100
AcDbSymbolTableRecord
100
AcDbLinetypeTableRecord
2
DASHDOT2
70
0
3
Dash dot (.5x) _._._._._._._._._._._._._._._.
72
65
73
4
40
12.7
49
6.35
74
0
49
-3.175
74
0
49
0
74
0
49
-3.175
74
0
0
LTYPE
5
3A
330
5
100
AcDbSymbolTableRecord
100
AcDbLinetypeTableRecord
2
DASHDOTX2
70
0
3
Dash dot (2x) ____  .  ____  .  ____  .  ___
72
65
73
4
40
50.8
49
25.4
74
0
49
-12.7
74
0
49
0
74
0
49
-12.7
74
0
0
LTYPE
5
3B
330
5
100
AcDbSymbolTableRecord
100
AcDbLinetypeTableRecord
2
DIVIDE
70
0
3
Divide ____ . . ____ . . ____ . . ____ . . ____
72
65
73
6
40
31.75
49
12.7
74
0
49
-6.35
74
0
49
0
74
0
49
-6.35
74
0
49
0
74
0
49
-6.35
74
0
0
LTYPE
5
3C
330
5
100
AcDbSymbolTableRecord
100
AcDbLinetypeTableRecord
2
DIVIDE2
70
0
3
Divide (.5x) __..__..__..__..__..__..__..__.._
72
65
73
6
40
15.875
49
6.35
74
0
49
-3.175
74
0
49
0
74
0
49
-3.175
74
0
49
0
74
0
49
-3.175
74
0
0
LTYPE
5
3D
330
5
100
AcDbSymbolTableRecord
100
AcDbLinetypeTableRecord
2
DIVIDEX2
70
0
3
Divide (2x) ________  .  .  ________  .  .  _
72
65
73
6
40
63.5
49
25.4
74
0
49
-12.7
74
0
49
0
74
0
49
-12.7
74
0
49
0
74
0
49
-12.7
74
0
0
LTYPE
5
3E
330
5
100
AcDbSymbolTableRecord
100
AcDbLinetypeTableRecord
2
BORDER
70
0
3
Border __ __ . __ __ . __ __ . __ __ . __ __ .
72
65
73
6
40
44.45
49
12.7
74
0
49
-6.35
74
0
49
12.7
74
0
49
-6.35
74
0
49
0
74
0
49
-6.35
74
0
0
LTYPE
5
3F
330
5
100
AcDbSymbolTableRecord
100
AcDbLinetypeTableRecord
2
BORDER2
70
0
3
Border (.5x) __.__.__.__.__.__.__.__.__.__.__.
72
65
73
6
40
22.225
49
6.35
74
0
49
-3.175
74
0
49
6.35
74
0
49
-3.175
74
0
49
0
74
0
49
-3.175
74
0
0
LTYPE
5
40
330
5
100
AcDbSymbolTableRecord
100
AcDbLinetypeTableRecord
2
BORDERX2
70
0
3
Border (2x) ____  ____  .  ____  ____  .  ___
72
65
73
6
40
88.9
49
25.4
74
0
49
-12.7
74
0
49
25.4
74
0
49
-12.7
74
0
49
0
74
0
49
-12.7
74
0
0
LTYPE
5
41
330
5
100
AcDbSymbolTableRecord
100
AcDbLinetypeTableRecord
2
CENTER
70
0
3
Center ____ _ ____ _ ____ _ ____ _ ____ _ ____
72
65
73
4
40
50.8
49
31.75
74
0
49
-6.35
74
0
49
6.35
74
0
49
-6.35
74
0
0
LTYPE
5
42
330
5
100
AcDbSymbolTableRecord
100
AcDbLinetypeTableRecord
2
CENTER2
70
0
3
Center (.5x) ___ _ ___ _ ___ _ ___ _ ___ _ ___
72
65
73
4
40
28.575
49
19.05
74
0
49
-3.175
74
0
49
3.175
74
0
49
-3.175
74
0
0
LTYPE
5
43
330
5
100
AcDbSymbolTableRecord
100
AcDbLinetypeTableRecord
2
CENTERX2
70
0
3
Center (2x) ________  __  ________  __  _____
72
65
73
4
40
101.6
49
63.5
74
0
49
-12.7
74
0
49
12.7
74
0
49
-12.7
74
0
0
ENDTAB
0
TABLE
2
LAYER
5
2
330
0
100
AcDbSymbolTable
70
1
0
LAYER
5
10
330
2
100
AcDbSymbolTableRecord
100
AcDbLayerTableRecord
2
0
70
0
62
7
6
CONTINUOUS
370
0
390
F
0
LAYER
5
44
330
2
100
AcDbSymbolTableRecord
100
AcDbLayerTableRecord
2
bogus
70
0
62
3
6
CONTINUOUS
370
0
390
F
0
LAYER
5
45
330
2
100
AcDbSymbolTableRecord
100
AcDbLayerTableRecord
2
cabinates
70
0
62
96
420
32768
6
CONTINUOUS
370
0
390
F
0
LAYER
5
46
330
2
100
AcDbSymbolTableRecord
100
AcDbLayerTableRecord
2
container
70
0
62
7
6
CONTINUOUS
370
0
390
F
0
LAYER
5
47
330
2
100
AcDbSymbolTableRecord
100
AcDbLayerTableRecord
2
dimension
70
0
62
5
6
CONTINUOUS
370
0
390
F
0
LAYER
5
48
330
2
100
AcDbSymbolTableRecord
100
AcDbLayerTableRecord
2
doors
70
0
62
96
420
32768
6
CONTINUOUS
370
0
390
F
0
LAYER
5
49
330
2
100
AcDbSymbolTableRecord
100
AcDbLayerTableRecord
2
fixtures
70
0
62
7
6
CONTINUOUS
370
-3
390
F
0
LAYER
5
4A
330
2
100
AcDbSymbolTableRecord
100
AcDbLayerTableRecord
2
tatami182
70
0
62
6
6
CONTINUOUS
370
0
390
F
0
LAYER
5
4B
330
2
100
AcDbSymbolTableRecord
100
AcDbLayerTableRecord
2
text
70
0
62
7
6
CONTINUOUS
370
0
390
F
0
LAYER
5
4C
330
2
100
AcDbSymbolTableRecord
100
AcDbLayerTableRecord
2
wall
70
0
62
253
420
10526884
6
CONTINUOUS
370
0
390
F
0
ENDTAB
0
TABLE
2
STYLE
5
3
330
0
100
AcDbSymbolTable
70
3
0
STYLE
5
4D
330
2
100
AcDbSymbolTableRecord
100
AcDbTextStyleTableRecord
2
standard
70
0
40
0
41
1
50
0
71
0
42
1
3
standard
4

0
STYLE
5
4E
330
2
100
AcDbSymbolTableRecord
100
AcDbTextStyleTableRecord
2
iso
70
0
40
0
41
1
50
0
71
0
42
1
3
iso
4

0
ENDTAB
0
TABLE
2
VIEW
5
6
330
0
100
AcDbSymbolTable
70
0
0
ENDTAB
0
TABLE
2
UCS
5
7
330
0
100
AcDbSymbolTable
70
0
0
ENDTAB
0
TABLE
2
APPID
5
9
330
0
100
AcDbSymbolTable
70
1
0
APPID
5
12
330
9
100
AcDbSymbolTableRecord
100
AcDbRegAppTableRecord
2
ACAD
70
0
0
ENDTAB
0
TABLE
2
DIMSTYLE
5
A
330
0
100
AcDbSymbolTable
70
1
100
AcDbDimStyleTable
71
1
0
DIMSTYLE
105
4F
330
A
100
AcDbSymbolTableRecord
100
AcDbDimStyleTableRecord
2
Standard
70
0
40
1
41
75
42
6
43
0.38
44
25.5
45
0
46
0
47
0
48
0
140
75
141
0.09
142
0
143
25.4
144
1
145
0
146
1
147
16.25
148
0
71
0
72
0
73
0
74
1
75
0
76
0
77
0
78
0
79
0
170
0
171
2
172
0
173
0
174
0
175
0
176
0
177
0
178
0
179
0
271
4
272
4
273
2
274
2
275
0
276
0
277
2
278
46
279
0
280
0
281
0
282
0
283
1
284
0
285
0
286
0
288
0
289
3
340
Standard
341

371
-2
372
-2
0
ENDTAB
0
TABLE
2
BLOCK_RECORD
5
1
330
0
100
AcDbSymbolTable
70
2
0
BLOCK_RECORD
5
1F
330
1
100
AcDbSymbolTableRecord
100
AcDbBlockTableRecord
2
*Model_Space
70
0
280
1
281
0
0
BLOCK_RECORD
5
1E
330
1
100
AcDbSymbolTableRecord
100
AcDbBlockTableRecord
2
*Paper_Space
70
0
280
1
281
0
0
BLOCK_RECORD
5
50
330
1
100
AcDbSymbolTableRecord
100
AcDbBlockTableRecord
2
*D5
70
0
280
1
281
0
0
BLOCK_RECORD
5
53
330
1
100
AcDbSymbolTableRecord
100
AcDbBlockTableRecord
2
*D3
70
0
280
1
281
0
0
BLOCK_RECORD
5
56
330
1
100
AcDbSymbolTableRecord
100
AcDbBlockTableRecord
2
*D7
70
0
280
1
281
0
0
BLOCK_RECORD
5
59
330
1
100
AcDbSymbolTableRecord
100
AcDbBlockTableRecord
2
*D8
70
0
280
1
281
0
0
BLOCK_RECORD
5
5C
330
1
100
AcDbSymbolTableRecord
100
AcDbBlockTableRecord
2
*D6
70
0
280
1
281
0
0
BLOCK_RECORD
5
5F
330
1
100
AcDbSymbolTableRecord
100
AcDbBlockTableRecord
2
*D2
70
0
280
1
281
0
0
BLOCK_RECORD
5
62
330
1
100
AcDbSymbolTableRecord
100
AcDbBlockTableRecord
2
*D1
70
0
280
1
281
0
0
BLOCK_RECORD
5
65
330
1
100
AcDbSymbolTableRecord
100
AcDbBlockTableRecord
2
*D4
70
0
280
1
281
0
0
BLOCK_RECORD
5
68
330
1
100
AcDbSymbolTableRecord
100
AcDbBlockTableRecord
2
refer
70
0
280
1
281
0
0
BLOCK_RECORD
5
6B
330
1
100
AcDbSymbolTableRecord
100
AcDbBlockTableRecord
2
sink
70
0
280
1
281
0
0
BLOCK_RECORD
5
6E
330
1
100
AcDbSymbolTableRecord
100
AcDbBlockTableRecord
2
stove
70
0
280
1
281
0
0
BLOCK_RECORD
5
71
330
1
100
AcDbSymbolTableRecord
100
AcDbBlockTableRecord
2
tatami182vert
70
0
280
1
281
0
0
BLOCK_RECORD
5
74
330
1
100
AcDbSymbolTableRecord
100
AcDbBlockTableRecord
2
tatami182Half
70
0
280
1
281
0
0
BLOCK_RECORD
5
77
330
1
100
AcDbSymbolTableRecord
100
AcDbBlockTableRecord
2
slider3000
70
0
280
1
281
0
0
ENDTAB
0
ENDSEC
0
SECTION
2
BLOCKS
0
BLOCK
5
20
330
1F
100
AcDbEntity
8
0
100
AcDbBlockBegin
2
*Model_Space
70
0
10
0
20
0
30
0
3
*Model_Space
1

0
ENDBLK
5
21
330
1F
100
AcDbEntity
8
0
100
AcDbBlockEnd
0
BLOCK
5
1C
330
1B
100
AcDbEntity
8
0
100
AcDbBlockBegin
2
*Paper_Space
70
0
10
0
20
0
30
0
3
*Paper_Space
1

0
ENDBLK
5
1D
330
1F
100
AcDbEntity
8
0
100
AcDbBlockEnd
0
BLOCK
5
51
330
50
100
AcDbEntity
8
0
100
AcDbBlockBegin
2
*D5
70
1
10
0
20
0
3
*D5
1

0
LINE
5
7A
100
AcDbEntity
8
dimension
6
CONTINUOUS
62
7
370
0
100
AcDbLine
10
20.9375
20
2945.625
11
6116.9375
21
2945.625
0
SOLID
5
7B
100
AcDbEntity
8
dimension
6
CONTINUOUS
62
7
370
0
100
AcDbTrace
10
20.9375
20
2945.625
30
0
11
95.9375
21
2958.11353973
31
0
12
95.9375
22
2933.13646027
32
0
13
95.9375
23
2933.13646027
33
0
0
SOLID
5
7C
100
AcDbEntity
8
dimension
6
CONTINUOUS
62
7
370
0
100
AcDbTrace
10
6116.9375
20
2945.625
30
0
11
6041.9375
21
2933.13646027
31
0
12
6041.9375
22
2958.11353973
32
0
13
6041.9375
23
2958.11353973
33
0
0
MTEXT
5
7D
100
AcDbEntity
8
dimension
6
CONTINUOUS
62
7
370
0
100
AcDbMText
10
3068.9375
20
2999.375
30
0
40
75
41
208.333333333
71
5
72
1
1
6096
7
standard
210
0
220
0
230
1
50
0
73
2
44
1
0
LINE
5
7E
100
AcDbEntity
8
dimension
6
CONTINUOUS
62
7
370
0
100
AcDbLine
10
20.9375
20
2473.375
11
20.9375
21
2971.125
0
LINE
5
7F
100
AcDbEntity
8
dimension
6
CONTINUOUS
62
7
370
0
100
AcDbLine
10
6116.9375
20
2473.375
11
6116.9375
21
2971.125
0
ENDBLK
5
52
330
50
100
AcDbEntity
8
0
100
AcDbBlockEnd
0
BLOCK
5
54
330
53
100
AcDbEntity
8
0
100
AcDbBlockBegin
2
*D3
70
1
10
0
20
0
3
*D3
1

0
LINE
5
80
100
AcDbEntity
8
dimension
6
CONTINUOUS
62
7
370
0
100
AcDbLine
10
-247.03125
20
73.375
11
-247.03125
21
2423.375
0
SOLID
5
81
100
AcDbEntity
8
dimension
6
CONTINUOUS
62
7
370
0
100
AcDbTrace
10
-247.03125
20
73.375
30
0
11
-259.519789733
21
148.375
31
0
12
-234.542710267
22
148.375
32
0
13
-234.542710267
23
148.375
33
0
0
SOLID
5
82
100
AcDbEntity
8
dimension
6
CONTINUOUS
62
7
370
0
100
AcDbTrace
10
-247.03125
20
2423.375
30
0
11
-234.542710267
21
2348.375
31
0
12
-259.519789733
22
2348.375
32
0
13
-259.519789733
23
2348.375
33
0
0
MTEXT
5
83
100
AcDbEntity
8
dimension
6
CONTINUOUS
62
7
370
0
100
AcDbMText
10
-300.78125
20
1248.375
30
0
40
75
41
208.333333333
71
5
72
1
1
2350
7
standard
210
0
220
0
230
1
50
90
73
2
44
1
0
LINE
5
84
100
AcDbEntity
8
dimension
6
CONTINUOUS
62
7
370
0
100
AcDbLine
10
58.9375
20
73.375
11
-272.53125
21
73.375
0
LINE
5
85
100
AcDbEntity
8
dimension
6
CONTINUOUS
62
7
370
0
100
AcDbLine
10
58.9375
20
2423.375
11
-272.53125
21
2423.375
0
ENDBLK
5
55
330
53
100
AcDbEntity
8
0
100
AcDbBlockEnd
0
BLOCK
5
57
330
56
100
AcDbEntity
8
0
100
AcDbBlockBegin
2
*D7
70
1
10
0
20
0
3
*D7
1

0
LINE
5
86
100
AcDbEntity
8
dimension
6
CONTINUOUS
62
7
370
0
100
AcDbLine
10
6116.9375
20
-426.872003506
11
5351.9375
21
-426.872003506
0
SOLID
5
87
100
AcDbEntity
8
dimension
6
CONTINUOUS
62
7
370
0
100
AcDbTrace
10
6116.9375
20
-426.872003506
30
0
11
6041.9375
21
-439.360543239
31
0
12
6041.9375
22
-414.383463773
32
0
13
6041.9375
23
-414.383463773
33
0
0
SOLID
5
88
100
AcDbEntity
8
dimension
6
CONTINUOUS
62
7
370
0
100
AcDbTrace
10
5351.9375
20
-426.872003506
30
0
11
5426.9375
21
-414.383463773
31
0
12
5426.9375
22
-439.360543239
32
0
13
5426.9375
23
-439.360543239
33
0
0
MTEXT
5
89
100
AcDbEntity
8
dimension
6
CONTINUOUS
62
7
370
0
100
AcDbMText
10
5734.4375
20
-373.122003506
30
0
40
75
41
150
71
5
72
1
1
765
7
standard
210
0
220
0
230
1
50
360
73
2
44
1
0
LINE
5
8A
100
AcDbEntity
8
dimension
6
CONTINUOUS
62
7
370
0
100
AcDbLine
10
6116.9375
20
23.375
11
6116.9375
21
-452.372003506
0
LINE
5
8B
100
AcDbEntity
8
dimension
6
CONTINUOUS
62
7
370
0
100
AcDbLine
10
5351.9375
20
23.375
11
5351.9375
21
-452.372003506
0
ENDBLK
5
58
330
56
100
AcDbEntity
8
0
100
AcDbBlockEnd
0
BLOCK
5
5A
330
59
100
AcDbEntity
8
0
100
AcDbBlockBegin
2
*D8
70
1
10
0
20
0
3
*D8
1

0
LINE
5
8C
100
AcDbEntity
8
dimension
6
CONTINUOUS
62
7
370
0
100
AcDbLine
10
5351.9375
20
-427.07383424
11
2351.9375
21
-427.07383424
0
SOLID
5
8D
100
AcDbEntity
8
dimension
6
CONTINUOUS
62
7
370
0
100
AcDbTrace
10
5351.9375
20
-427.07383424
30
0
11
5276.9375
21
-439.562373974
31
0
12
5276.9375
22
-414.585294507
32
0
13
5276.9375
23
-414.585294507
33
0
0
SOLID
5
8E
100
AcDbEntity
8
dimension
6
CONTINUOUS
62
7
370
0
100
AcDbTrace
10
2351.9375
20
-427.07383424
30
0
11
2426.9375
21
-414.585294507
31
0
12
2426.9375
22
-439.562373974
32
0
13
2426.9375
23
-439.562373974
33
0
0
MTEXT
5
8F
100
AcDbEntity
8
dimension
6
CONTINUOUS
62
7
370
0
100
AcDbMText
10
3851.9375
20
-373.32383424
30
0
40
75
41
208.333333333
71
5
72
1
1
3000
7
standard
210
0
220
0
230
1
50
360
73
2
44
1
0
LINE
5
90
100
AcDbEntity
8
dimension
6
CONTINUOUS
62
7
370
0
100
AcDbLine
10
5351.9375
20
23.375
11
5351.9375
21
-452.57383424
0
LINE
5
91
100
AcDbEntity
8
dimension
6
CONTINUOUS
62
7
370
0
100
AcDbLine
10
2351.9375
20
23.375
11
2351.9375
21
-452.57383424
0
ENDBLK
5
5B
330
59
100
AcDbEntity
8
0
100
AcDbBlockEnd
0
BLOCK
5
5D
330
5C
100
AcDbEntity
8
0
100
AcDbBlockBegin
2
*D6
70
1
10
0
20
0
3
*D6
1

0
LINE
5
92
100
AcDbEntity
8
dimension
6
CONTINUOUS
62
7
370
0
100
AcDbLine
10
64.9375
20
2763.08601616
11
6016.9375
21
2763.08601616
0
SOLID
5
93
100
AcDbEntity
8
dimension
6
CONTINUOUS
62
7
370
0
100
AcDbTrace
10
64.9375
20
2763.08601616
30
0
11
139.9375
21
2775.57455589
31
0
12
139.9375
22
2750.59747643
32
0
13
139.9375
23
2750.59747643
33
0
0
SOLID
5
94
100
AcDbEntity
8
dimension
6
CONTINUOUS
62
7
370
0
100
AcDbTrace
10
6016.9375
20
2763.08601616
30
0
11
5941.9375
21
2750.59747643
31
0
12
5941.9375
22
2775.57455589
32
0
13
5941.9375
23
2775.57455589
33
0
0
MTEXT
5
95
100
AcDbEntity
8
dimension
6
CONTINUOUS
62
7
370
0
100
AcDbMText
10
3040.9375
20
2816.83601616
30
0
40
75
41
208.333333333
71
5
72
1
1
5952
7
standard
210
0
220
0
230
1
50
0
73
2
44
1
0
LINE
5
96
100
AcDbEntity
8
dimension
6
CONTINUOUS
62
7
370
0
100
AcDbLine
10
64.9375
20
2429.375
11
64.9375
21
2788.58601616
0
LINE
5
97
100
AcDbEntity
8
dimension
6
CONTINUOUS
62
7
370
0
100
AcDbLine
10
6016.9375
20
2379.375
11
6016.9375
21
2788.58601616
0
ENDBLK
5
5E
330
5C
100
AcDbEntity
8
0
100
AcDbBlockEnd
0
BLOCK
5
60
330
5F
100
AcDbEntity
8
0
100
AcDbBlockBegin
2
*D2
70
1
10
0
20
0
3
*D2
1

0
LINE
5
98
100
AcDbEntity
8
dimension
6
CONTINUOUS
62
7
370
0
100
AcDbLine
10
-501.242675781
20
29.375
11
-501.242675781
21
2467.375
0
SOLID
5
99
100
AcDbEntity
8
dimension
6
CONTINUOUS
62
7
370
0
100
AcDbTrace
10
-501.242675781
20
29.375
30
0
11
-513.731215514
21
104.375
31
0
12
-488.754136048
22
104.375
32
0
13
-488.754136048
23
104.375
33
0
0
SOLID
5
9A
100
AcDbEntity
8
dimension
6
CONTINUOUS
62
7
370
0
100
AcDbTrace
10
-501.242675781
20
2467.375
30
0
11
-488.754136048
21
2392.375
31
0
12
-513.731215514
22
2392.375
32
0
13
-513.731215514
23
2392.375
33
0
0
MTEXT
5
9B
100
AcDbEntity
8
dimension
6
CONTINUOUS
62
7
370
0
100
AcDbMText
10
-554.992675781
20
1248.375
30
0
40
75
41
216.666666667
71
5
72
1
1
2438
7
standard
210
0
220
0
230
1
50
90
73
2
44
1
0
LINE
5
9C
100
AcDbEntity
8
dimension
6
CONTINUOUS
62
7
370
0
100
AcDbLine
10
14.9375
20
29.375
11
-526.742675781
21
29.375
0
LINE
5
9D
100
AcDbEntity
8
dimension
6
CONTINUOUS
62
7
370
0
100
AcDbLine
10
14.9375
20
2467.375
11
-526.742675781
21
2467.375
0
ENDBLK
5
61
330
5F
100
AcDbEntity
8
0
100
AcDbBlockEnd
0
BLOCK
5
63
330
62
100
AcDbEntity
8
0
100
AcDbBlockBegin
2
*D1
70
1
10
0
20
0
3
*D1
1

0
LINE
5
9E
100
AcDbEntity
8
dimension
6
CONTINUOUS
62
7
370
0
100
AcDbLine
10
6136.9375
20
2732.425
11
7306.9375
21
2732.425
0
SOLID
5
9F
100
AcDbEntity
8
dimension
6
CONTINUOUS
62
7
370
0
100
AcDbTrace
10
6136.9375
20
2732.425
30
0
11
6211.9375
21
2744.91353973
31
0
12
6211.9375
22
2719.93646027
32
0
13
6211.9375
23
2719.93646027
33
0
0
SOLID
5
A0
100
AcDbEntity
8
dimension
6
CONTINUOUS
62
7
370
0
100
AcDbTrace
10
7306.9375
20
2732.425
30
0
11
7231.9375
21
2719.93646027
31
0
12
7231.9375
22
2744.91353973
32
0
13
7231.9375
23
2744.91353973
33
0
0
MTEXT
5
A1
100
AcDbEntity
8
dimension
6
CONTINUOUS
62
7
370
0
100
AcDbMText
10
6721.9375
20
2786.175
30
0
40
75
41
175
71
5
72
1
1
1170
7
standard
210
0
220
0
230
1
50
0
73
2
44
1
0
LINE
5
A2
100
AcDbEntity
8
dimension
6
CONTINUOUS
62
7
370
0
100
AcDbLine
10
6136.9375
20
2473.375
11
6136.9375
21
2757.925
0
LINE
5
A3
100
AcDbEntity
8
dimension
6
CONTINUOUS
62
7
370
0
100
AcDbLine
10
7306.9375
20
2473.375
11
7306.9375
21
2757.925
0
ENDBLK
5
64
330
62
100
AcDbEntity
8
0
100
AcDbBlockEnd
0
BLOCK
5
66
330
65
100
AcDbEntity
8
0
100
AcDbBlockBegin
2
*D4
70
1
10
0
20
0
3
*D4
1

0
LINE
5
A4
100
AcDbEntity
8
dimension
6
CONTINUOUS
62
7
370
0
100
AcDbLine
10
114.9375
20
2606.71875
11
914.9375
21
2606.71875
0
SOLID
5
A5
100
AcDbEntity
8
dimension
6
CONTINUOUS
62
7
370
0
100
AcDbTrace
10
114.9375
20
2606.71875
30
0
11
189.9375
21
2619.20728973
31
0
12
189.9375
22
2594.23021027
32
0
13
189.9375
23
2594.23021027
33
0
0
SOLID
5
A6
100
AcDbEntity
8
dimension
6
CONTINUOUS
62
7
370
0
100
AcDbTrace
10
914.9375
20
2606.71875
30
0
11
839.9375
21
2594.23021027
31
0
12
839.9375
22
2619.20728973
32
0
13
839.9375
23
2619.20728973
33
0
0
MTEXT
5
A7
100
AcDbEntity
8
dimension
6
CONTINUOUS
62
7
370
0
100
AcDbMText
10
514.9375
20
2660.46875
30
0
40
75
41
150
71
5
72
1
1
800
7
standard
210
0
220
0
230
1
50
0
73
2
44
1
0
LINE
5
A8
100
AcDbEntity
8
dimension
6
CONTINUOUS
62
7
370
0
100
AcDbLine
10
114.9375
20
2379.375
11
114.9375
21
2632.21875
0
LINE
5
A9
100
AcDbEntity
8
dimension
6
CONTINUOUS
62
7
370
0
100
AcDbLine
10
914.9375
20
2379.375
11
914.9375
21
2632.21875
0
ENDBLK
5
67
330
65
100
AcDbEntity
8
0
100
AcDbBlockEnd
0
BLOCK
5
69
330
68
100
AcDbEntity
8
0
100
AcDbBlockBegin
2
refer
70
0
10
0
20
0
3
refer
1

0
LINE
5
AA
100
AcDbEntity
8
fixtures
6
ByLayer
62
256
370
-1
100
AcDbLine
10
0
20
0
11
0
21
-55
0
LINE
5
AB
100
AcDbEntity
8
fixtures
6
ByLayer
62
256
370
-1
100
AcDbLine
10
-60
20
0
11
-60
21
-55
0
LINE
5
AC
100
AcDbEntity
8
fixtures
6
ByLayer
62
256
370
-1
100
AcDbLine
10
0
20
-50
11
-60
21
-50
0
LINE
5
AD
100
AcDbEntity
8
fixtures
6
ByLayer
62
256
370
-1
100
AcDbLine
10
0
20
0
11
-60
21
0
0
ARC
5
AE
100
AcDbEntity
8
fixtures
6
ByLayer
62
256
370
-1
100
AcDbCircle
10
-30
20
68.9692211372
40
127.54751189
100
AcDbArc
50
256.396206231
51
283.603793769
0
LINE
5
AF
100
AcDbEntity
8
fixtures
6
ByLayer
62
256
370
-1
100
AcDbLine
10
0
20
-51
11
-60
21
-51
0
MTEXT
5
B0
100
AcDbEntity
8
fixtures
6
ByLayer
62
256
370
-1
100
AcDbMText
10
-57.2722082099
20
-19.3598590569
30
0
40
20
41
53.3333333333
71
4
72
5
1
Refr
7
iso
210
0
220
0
230
1
50
360
73
1
44
0.96
0
ENDBLK
5
6A
330
68
100
AcDbEntity
8
0
100
AcDbBlockEnd
0
BLOCK
5
6C
330
6B
100
AcDbEntity
8
0
100
AcDbBlockBegin
2
sink
70
0
10
0
20
0
3
sink
1

0
ARC
5
B1
100
AcDbEntity
8
fixtures
6
ByLayer
62
256
370
-1
100
AcDbCircle
10
4.00260191002
20
0.99739808998
40
4.125
100
AcDbArc
50
76.0075830069
51
193.992416993
0
ARC
5
B2
100
AcDbEntity
8
fixtures
6
ByLayer
62
256
370
-1
100
AcDbCircle
10
30.99739809
20
0.99739808998
40
4.125
100
AcDbArc
50
346.007583007
51
103.992416993
0
ARC
5
B3
100
AcDbEntity
8
fixtures
6
ByLayer
62
256
370
-1
100
AcDbCircle
10
30.99739809
20
-20.99739809
40
4.125
100
AcDbArc
50
256.007583007
51
13.9924169931
0
ARC
5
B4
100
AcDbEntity
8
fixtures
6
ByLayer
62
256
370
-1
100
AcDbCircle
10
30.99739809
20
-35.00260191
40
4.125
100
AcDbArc
50
346.007583007
51
103.992416993
0
ARC
5
B5
100
AcDbEntity
8
fixtures
6
ByLayer
62
256
370
-1
100
AcDbCircle
10
4.00260191002
20
-20.99739809
40
4.125
100
AcDbArc
50
166.007583007
51
283.992416993
0
ARC
5
B6
100
AcDbEntity
8
fixtures
6
ByLayer
62
256
370
-1
100
AcDbCircle
10
4.00260191002
20
-35.00260191
40
4.125
100
AcDbArc
50
76.0075830069
51
193.992416993
0
ARC
5
B7
100
AcDbEntity
8
fixtures
6
ByLayer
62
256
370
-1
100
AcDbCircle
10
30.99739809
20
-56.99739809
40
4.125
100
AcDbArc
50
256.007583007
51
13.9924169931
0
ARC
5
B8
100
AcDbEntity
8
fixtures
6
ByLayer
62
256
370
-1
100
AcDbCircle
10
4.00260191002
20
-56.99739809
40
4.125
100
AcDbArc
50
166.007583007
51
283.992416993
0
LINE
5
B9
100
AcDbEntity
8
fixtures
6
ByLayer
62
256
370
-1
100
AcDbLine
10
30
20
-25
11
5
21
-25
0
LINE
5
BA
100
AcDbEntity
8
fixtures
6
ByLayer
62
256
370
-1
100
AcDbLine
10
5
20
5
11
30
21
5
0
LINE
5
BB
100
AcDbEntity
8
fixtures
6
ByLayer
62
256
370
-1
100
AcDbLine
10
5
20
-31
11
30
21
-31
0
LINE
5
BC
100
AcDbEntity
8
fixtures
6
ByLayer
62
256
370
-1
100
AcDbLine
10
30
20
-61
11
5
21
-61
0
LINE
5
BD
100
AcDbEntity
8
fixtures
6
ByLayer
62
256
370
-1
100
AcDbLine
10
35
20
-36
11
35
21
-56
0
LINE
5
BE
100
AcDbEntity
8
fixtures
6
ByLayer
62
256
370
-1
100
AcDbLine
10
0
20
-56
11
0
21
-36
0
LINE
5
BF
100
AcDbEntity
8
fixtures
6
ByLayer
62
256
370
-1
100
AcDbLine
10
0
20
-20
11
0
21
1.3073986338e-12
0
LINE
5
C0
100
AcDbEntity
8
fixtures
6
ByLayer
62
256
370
-1
100
AcDbLine
10
35
20
1.3073986338e-12
11
35
21
-20
0
ENDBLK
5
6D
330
6B
100
AcDbEntity
8
0
100
AcDbBlockEnd
0
BLOCK
5
6F
330
6E
100
AcDbEntity
8
0
100
AcDbBlockBegin
2
stove
70
0
10
0
20
0
3
stove
1

0
LINE
5
C1
100
AcDbEntity
8
fixtures
6
ByLayer
62
256
370
-1
100
AcDbLine
10
0
20
62
11
64
21
62
0
LINE
5
C2
100
AcDbEntity
8
fixtures
6
ByLayer
62
256
370
-1
100
AcDbLine
10
64
20
62
11
64
21
0
0
LINE
5
C3
100
AcDbEntity
8
fixtures
6
ByLayer
62
256
370
-1
100
AcDbLine
10
64
20
0
11
0
21
0
0
LINE
5
C4
100
AcDbEntity
8
fixtures
6
ByLayer
62
256
370
-1
100
AcDbLine
10
0
20
0
11
0
21
62
0
CIRCLE
5
C5
100
AcDbEntity
8
fixtures
6
ByLayer
62
256
370
-1
100
AcDbCircle
10
17
20
21.954456
40
10
0
CIRCLE
5
C6
100
AcDbEntity
8
fixtures
6
ByLayer
62
256
370
-1
100
AcDbCircle
10
47
20
21.954456
40
7
0
CIRCLE
5
C7
100
AcDbEntity
8
fixtures
6
ByLayer
62
256
370
-1
100
AcDbCircle
10
47
20
46.954456
40
10
0
CIRCLE
5
C8
100
AcDbEntity
8
fixtures
6
ByLayer
62
256
370
-1
100
AcDbCircle
10
17
20
46.954456
40
7
0
LINE
5
C9
100
AcDbEntity
8
fixtures
6
ByLayer
62
256
370
-1
100
AcDbLine
10
0
20
6
11
64
21
6
0
ENDBLK
5
70
330
6E
100
AcDbEntity
8
0
100
AcDbBlockEnd
0
BLOCK
5
72
330
71
100
AcDbEntity
8
0
100
AcDbBlockBegin
2
tatami182vert
70
0
10
0
20
0
3
tatami182vert
1

0
LINE
5
CA
100
AcDbEntity
8
tatami182
6
ByLayer
62
256
370
-1
100
AcDbLine
10
91
20
91
11
91
21
182
0
LINE
5
CB
100
AcDbEntity
8
tatami182
6
ByLayer
62
256
370
-1
100
AcDbLine
10
91
20
0
11
91
21
91
0
LINE
5
CC
100
AcDbEntity
8
tatami182
6
ByLayer
62
256
370
-1
100
AcDbLine
10
91
20
0
11
0
21
0
0
LINE
5
CD
100
AcDbEntity
8
tatami182
6
ByLayer
62
256
370
-1
100
AcDbLine
10
0
20
0
11
0
21
182
0
LINE
5
CE
100
AcDbEntity
8
tatami182
6
ByLayer
62
256
370
-1
100
AcDbLine
10
0
20
182
11
91
21
182
0
LINE
5
CF
100
AcDbEntity
8
tatami182
6
ByLayer
62
256
370
-1
100
AcDbLine
10
88.5
20
91
11
88.5
21
179.5
0
LINE
5
D0
100
AcDbEntity
8
tatami182
6
ByLayer
62
256
370
-1
100
AcDbLine
10
2.5
20
2.5
11
2.5
21
179.5
0
LINE
5
D1
100
AcDbEntity
8
tatami182
6
ByLayer
62
256
370
-1
100
AcDbLine
10
88.5
20
2.5
11
88.5
21
91
0
LINE
5
D2
100
AcDbEntity
8
tatami182
6
ByLayer
62
256
370
-1
100
AcDbLine
10
2.5
20
179.5
11
88.5
21
179.5
0
LINE
5
D3
100
AcDbEntity
8
tatami182
6
ByLayer
62
256
370
-1
100
AcDbLine
10
88.5
20
2.5
11
2.5
21
2.5
0
ENDBLK
5
73
330
71
100
AcDbEntity
8
0
100
AcDbBlockEnd
0
BLOCK
5
75
330
74
100
AcDbEntity
8
0
100
AcDbBlockBegin
2
tatami182Half
70
0
10
0
20
0
3
tatami182Half
1

0
LINE
5
D4
100
AcDbEntity
8
tatami182
6
ByLayer
62
256
370
-1
100
AcDbLine
10
91
20
0
11
91
21
182
0
LINE
5
D5
100
AcDbEntity
8
tatami182
6
ByLayer
62
256
370
-1
100
AcDbLine
10
91
20
91
11
0
21
91
0
LINE
5
D6
100
AcDbEntity
8
tatami182
6
ByLayer
62
256
370
-1
100
AcDbLine
10
91
20
0
11
0
21
0
0
LINE
5
D7
100
AcDbEntity
8
tatami182
6
ByLayer
62
256
370
-1
100
AcDbLine
10
0
20
0
11
0
21
91
0
LINE
5
D8
100
AcDbEntity
8
tatami182
6
ByLayer
62
256
370
-1
100
AcDbLine
10
88.5
20
88.5
11
88.5
21
2.5
0
LINE
5
D9
100
AcDbEntity
8
tatami182
6
ByLayer
62
256
370
-1
100
AcDbLine
10
2.5
20
2.5
11
2.5
21
88.5
0
LINE
5
DA
100
AcDbEntity
8
tatami182
6
ByLayer
62
256
370
-1
100
AcDbLine
10
88.5
20
88.5
11
2.5
21
88.5
0
LINE
5
DB
100
AcDbEntity
8
tatami182
6
ByLayer
62
256
370
-1
100
AcDbLine
10
88.5
20
2.5
11
2.5
21
2.5
0
ENDBLK
5
76
330
74
100
AcDbEntity
8
0
100
AcDbBlockEnd
0
BLOCK
5
78
330
77
100
AcDbEntity
8
0
100
AcDbBlockBegin
2
slider3000
70
0
10
0
20
0
3
slider3000
1

0
LINE
5
DC
100
AcDbEntity
8
doors
6
ByLayer
62
256
370
-1
100
AcDbLine
10
-10
20
-49
11
-10
21
-14
0
LINE
5
DD
100
AcDbEntity
8
doors
6
ByLayer
62
256
370
-1
100
AcDbLine
10
-2988
20
-49
11
-10
21
-49
0
LINE
5
DE
100
AcDbEntity
8
doors
6
ByLayer
62
256
370
-1
100
AcDbLine
10
-2988
20
-49
11
-2988
21
-84
0
LINE
5
DF
100
AcDbEntity
8
doors
6
ByLayer
62
256
370
-1
100
AcDbLine
10
-1525
20
-14
11
-10
21
-14
0
LINE
5
E0
100
AcDbEntity
8
doors
6
ByLayer
62
256
370
-1
100
AcDbLine
10
-2988
20
-84
11
-1475
21
-84
0
LINE
5
E1
100
AcDbEntity
8
doors
6
ByLayer
62
256
370
-1
100
AcDbLine
10
-1525
20
-14
11
-1525
21
-49
0
LINE
5
E2
100
AcDbEntity
8
doors
6
ByLayer
62
256
370
-1
100
AcDbLine
10
-1475
20
-49
11
-1475
21
-84
0
ENDBLK
5
79
330
77
100
AcDbEntity
8
0
100
AcDbBlockEnd
0
ENDSEC
0
SECTION
2
ENTITIES
0
DIMENSION
5
E3
100
AcDbEntity
8
dimension
6
ByLayer
62
256
370
-1
100
AcDbDimension
2
*D1
10
7306.9375
20
2732.425
30
0
11
6721.9375
21
2786.175
31
0
70
32
71
5
72
0
3
Standard
53
0
210
0
220
0
230
1
100
AcDbAlignedDimension
13
6136.9375
23
2467.375
33
0
14
7306.9375
24
2467.375
34
0
100
AcDbRotatedDimension
0
DIMENSION
5
E4
100
AcDbEntity
8
dimension
6
ByLayer
62
256
370
-1
100
AcDbDimension
2
*D2
10
-501.242675781
20
2467.375
30
0
11
-554.992675781
21
1248.375
31
0
70
32
71
5
72
0
3
Standard
53
0
210
0
220
0
230
1
100
AcDbAlignedDimension
13
20.9375
23
29.375
33
0
14
20.9375
24
2467.375
34
0
50
90
100
AcDbRotatedDimension
0
DIMENSION
5
E5
100
AcDbEntity
8
dimension
6
ByLayer
62
256
370
-1
100
AcDbDimension
2
*D3
10
-247.03125
20
2423.375
30
0
11
-300.78125
21
1248.375
31
0
70
32
71
5
72
0
3
Standard
53
0
210
0
220
0
230
1
100
AcDbAlignedDimension
13
64.9375
23
73.375
33
0
14
64.9375
24
2423.375
34
0
50
90
100
AcDbRotatedDimension
0
LINE
5
E6
100
AcDbEntity
8
0
6
DOT2
62
256
370
-1
100
AcDbLine
10
5956.9375
20
73.375
11
5956.9375
21
2423.375
0
LINE
5
E7
100
AcDbEntity
8
wall
6
ByLayer
62
256
370
-1
100
AcDbLine
10
114.9375
20
123.375
11
114.9375
21
2373.375
0
LINE
5
E8
100
AcDbEntity
8
cabinates
6
ByLayer
62
256
370
-1
100
AcDbLine
10
914.9375
20
123.375
11
914.9375
21
2373.375
0
LINE
5
E9
100
AcDbEntity
8
cabinates
6
DOT2
62
256
370
-1
100
AcDbLine
10
814.9375
20
123.375
11
814.9375
21
2373.375
0
MTEXT
5
EA
100
AcDbEntity
8
text
6
ByLayer
62
256
370
-1
100
AcDbMText
10
202.1875
20
1890.16601563
30
0
40
50
41
591.666718095
71
1
72
1
1
closet for futons
7
standard
210
0
220
0
230
1
50
0
73
2
44
1
0
DIMENSION
5
EB
100
AcDbEntity
8
dimension
6
ByLayer
62
256
370
-1
100
AcDbDimension
2
*D4
10
914.9375
20
2606.71875
30
0
11
514.9375
21
2660.46875
31
0
70
32
71
5
72
0
3
Standard
53
0
210
0
220
0
230
1
100
AcDbAlignedDimension
13
114.9375
23
2373.375
33
0
14
914.9375
24
2373.375
34
0
100
AcDbRotatedDimension
0
DIMENSION
5
EC
100
AcDbEntity
8
dimension
6
ByLayer
62
256
370
-1
100
AcDbDimension
2
*D5
10
6116.9375
20
2945.625
30
0
11
3068.9375
21
2999.375
31
0
70
32
71
5
72
0
3
Standard
53
0
210
0
220
0
230
1
100
AcDbAlignedDimension
13
20.9375
23
2467.375
33
0
14
6116.9375
24
2467.375
34
0
100
AcDbRotatedDimension
0
LINE
5
ED
100
AcDbEntity
8
tatami182
6
ByLayer
62
256
370
-1
100
AcDbLine
10
5739.9375
20
2158.375
11
5739.9375
21
338.375
0
LINE
5
EE
100
AcDbEntity
8
tatami182
6
ByLayer
62
256
370
-1
100
AcDbLine
10
5739.9375
20
338.375
11
4829.9375
21
338.375
0
LINE
5
EF
100
AcDbEntity
8
tatami182
6
ByLayer
62
256
370
-1
100
AcDbLine
10
4829.9375
20
2158.375
11
5739.9375
21
2158.375
0
LINE
5
F0
100
AcDbEntity
8
tatami182
6
ByLayer
62
256
370
-1
100
AcDbLine
10
4829.9375
20
2158.375
11
4829.9375
21
1248.375
0
LINE
5
F1
100
AcDbEntity
8
tatami182
6
ByLayer
62
256
370
-1
100
AcDbLine
10
3919.9375
20
1248.375
11
3919.9375
21
2158.375
0
LINE
5
F2
100
AcDbEntity
8
tatami182
6
ByLayer
62
256
370
-1
100
AcDbLine
10
3919.9375
20
2158.375
11
4829.9375
21
2158.375
0
LINE
5
F3
100
AcDbEntity
8
tatami182
6
ByLayer
62
256
370
-1
100
AcDbLine
10
4829.9375
20
1248.375
11
4829.9375
21
338.375
0
LINE
5
F4
100
AcDbEntity
8
tatami182
6
ByLayer
62
256
370
-1
100
AcDbLine
10
3919.9375
20
1248.375
11
4829.9375
21
1248.375
0
LINE
5
F5
100
AcDbEntity
8
tatami182
6
ByLayer
62
256
370
-1
100
AcDbLine
10
3919.9375
20
2158.375
11
3919.9375
21
338.375
0
LINE
5
F6
100
AcDbEntity
8
tatami182
6
ByLayer
62
256
370
-1
100
AcDbLine
10
3919.9375
20
338.375
11
3009.9375
21
338.375
0
LINE
5
F7
100
AcDbEntity
8
tatami182
6
ByLayer
62
256
370
-1
100
AcDbLine
10
3009.9375
20
338.375
11
3009.9375
21
2158.375
0
LINE
5
F8
100
AcDbEntity
8
tatami182
6
ByLayer
62
256
370
-1
100
AcDbLine
10
3009.9375
20
2158.375
11
3919.9375
21
2158.375
0
LINE
5
F9
100
AcDbEntity
8
tatami182
6
ByLayer
62
256
370
-1
100
AcDbLine
10
3009.9375
20
2158.375
11
3009.9375
21
1248.375
0
LINE
5
FA
100
AcDbEntity
8
tatami182
6
ByLayer
62
256
370
-1
100
AcDbLine
10
3009.9375
20
1248.375
11
2099.9375
21
1248.375
0
LINE
5
FB
100
AcDbEntity
8
tatami182
6
ByLayer
62
256
370
-1
100
AcDbLine
10
2099.9375
20
2158.375
11
3009.9375
21
2158.375
0
LINE
5
FC
100
AcDbEntity
8
tatami182
6
ByLayer
62
256
370
-1
100
AcDbLine
10
2099.9375
20
1248.375
11
3009.9375
21
1248.375
0
LINE
5
FD
100
AcDbEntity
8
tatami182
6
ByLayer
62
256
370
-1
100
AcDbLine
10
3009.9375
20
1248.375
11
3009.9375
21
338.375
0
LINE
5
FE
100
AcDbEntity
8
tatami182
6
ByLayer
62
256
370
-1
100
AcDbLine
10
3009.9375
20
338.375
11
2099.9375
21
338.375
0
LINE
5
FF
100
AcDbEntity
8
tatami182
6
ByLayer
62
256
370
-1
100
AcDbLine
10
2099.9375
20
2158.375
11
2099.9375
21
338.375
0
LINE
5
100
100
AcDbEntity
8
tatami182
6
ByLayer
62
256
370
-1
100
AcDbLine
10
3894.9375
20
1248.375
11
3894.9375
21
2133.375
0
LINE
5
101
100
AcDbEntity
8
tatami182
6
ByLayer
62
256
370
-1
100
AcDbLine
10
3034.9375
20
363.375
11
3034.9375
21
2133.375
0
LINE
5
102
100
AcDbEntity
8
tatami182
6
ByLayer
62
256
370
-1
100
AcDbLine
10
3894.9375
20
363.375
11
3894.9375
21
1248.375
0
LINE
5
103
100
AcDbEntity
8
tatami182
6
ByLayer
62
256
370
-1
100
AcDbLine
10
4854.9375
20
363.375
11
4854.9375
21
2133.375
0
LINE
5
104
100
AcDbEntity
8
tatami182
6
ByLayer
62
256
370
-1
100
AcDbLine
10
5714.9375
20
2133.375
11
5714.9375
21
363.375
0
LINE
5
105
100
AcDbEntity
8
tatami182
6
ByLayer
62
256
370
-1
100
AcDbLine
10
5714.9375
20
363.375
11
4854.9375
21
363.375
0
LINE
5
106
100
AcDbEntity
8
tatami182
6
ByLayer
62
256
370
-1
100
AcDbLine
10
4854.9375
20
2133.375
11
5714.9375
21
2133.375
0
LINE
5
107
100
AcDbEntity
8
tatami182
6
ByLayer
62
256
370
-1
100
AcDbLine
10
3944.9375
20
1273.375
11
3944.9375
21
2133.375
0
LINE
5
108
100
AcDbEntity
8
tatami182
6
ByLayer
62
256
370
-1
100
AcDbLine
10
4804.9375
20
1273.375
11
4804.9375
21
2133.375
0
LINE
5
109
100
AcDbEntity
8
tatami182
6
ByLayer
62
256
370
-1
100
AcDbLine
10
4804.9375
20
1273.375
11
3944.9375
21
1273.375
0
LINE
5
10A
100
AcDbEntity
8
tatami182
6
ByLayer
62
256
370
-1
100
AcDbLine
10
3894.9375
20
363.375
11
3034.9375
21
363.375
0
LINE
5
10B
100
AcDbEntity
8
tatami182
6
ByLayer
62
256
370
-1
100
AcDbLine
10
3944.9375
20
2133.375
11
4804.9375
21
2133.375
0
LINE
5
10C
100
AcDbEntity
8
tatami182
6
ByLayer
62
256
370
-1
100
AcDbLine
10
3034.9375
20
2133.375
11
3894.9375
21
2133.375
0
LINE
5
10D
100
AcDbEntity
8
tatami182
6
ByLayer
62
256
370
-1
100
AcDbLine
10
2984.9375
20
1273.375
11
2984.9375
21
2133.375
0
LINE
5
10E
100
AcDbEntity
8
tatami182
6
ByLayer
62
256
370
-1
100
AcDbLine
10
2984.9375
20
1223.375
11
2984.9375
21
363.375
0
LINE
5
10F
100
AcDbEntity
8
tatami182
6
ByLayer
62
256
370
-1
100
AcDbLine
10
2984.9375
20
363.375
11
2124.9375
21
363.375
0
LINE
5
110
100
AcDbEntity
8
tatami182
6
ByLayer
62
256
370
-1
100
AcDbLine
10
2984.9375
20
1223.375
11
2124.9375
21
1223.375
0
LINE
5
111
100
AcDbEntity
8
tatami182
6
ByLayer
62
256
370
-1
100
AcDbLine
10
2984.9375
20
1273.375
11
2124.9375
21
1273.375
0
LINE
5
112
100
AcDbEntity
8
tatami182
6
ByLayer
62
256
370
-1
100
AcDbLine
10
2124.9375
20
1273.375
11
2124.9375
21
2133.375
0
LINE
5
113
100
AcDbEntity
8
tatami182
6
ByLayer
62
256
370
-1
100
AcDbLine
10
2124.9375
20
363.375
11
2124.9375
21
1223.375
0
LINE
5
114
100
AcDbEntity
8
tatami182
6
ByLayer
62
256
370
-1
100
AcDbLine
10
2124.9375
20
2133.375
11
2984.9375
21
2133.375
0
INSERT
5
115
100
AcDbEntity
8
tatami182
6
ByLayer
62
256
370
-1
100
AcDbBlockReference
2
tatami182vert
10
1189.9375
20
338.375
30
0
41
10
42
10
43
0
50
0
70
1
71
1
44
0
45
0
0
INSERT
5
116
100
AcDbEntity
8
tatami182
6
ByLayer
62
256
370
-1
100
AcDbBlockReference
2
tatami182Half
10
3919.9375
20
338.375
30
0
41
10
42
10
43
0
50
0
70
1
71
1
44
0
45
0
0
DIMENSION
5
117
100
AcDbEntity
8
dimension
6
ByLayer
62
256
370
-1
100
AcDbDimension
2
*D6
10
6016.9375
20
2763.08601616
30
0
11
3040.9375
21
2816.83601616
31
0
70
32
71
5
3
Standard
53
0
210
0
220
0
230
1
100
AcDbAlignedDimension
13
64.9375
23
2423.375
33
0
14
6016.9375
24
2373.375
34
0
100
AcDbRotatedDimension
0
LINE
5
118
100
AcDbEntity
8
doors
6
ByLayer
62
256
370
-1
100
AcDbLine
10
6016.9375
20
2363.375
11
6066.9375
21
2363.375
0
LINE
5
119
100
AcDbEntity
8
doors
6
ByLayer
62
256
370
-1
100
AcDbLine
10
6016.9375
20
1248.375
11
6016.9375
21
2363.375
0
LINE
5
11A
100
AcDbEntity
8
doors
6
ByLayer
62
256
370
-1
100
AcDbLine
10
5966.9375
20
133.375
11
6016.9375
21
133.375
0
LINE
5
11B
100
AcDbEntity
8
doors
6
ByLayer
62
256
370
-1
100
AcDbLine
10
6016.9375
20
133.375
11
6016.9375
21
1248.375
0
LINE
5
11C
100
AcDbEntity
8
doors
6
ByLayer
62
256
370
-1
100
AcDbLine
10
6016.9375
20
1263.375
11
5966.9375
21
1263.375
0
LINE
5
11D
100
AcDbEntity
8
doors
6
ByLayer
62
256
370
-1
100
AcDbLine
10
6066.9375
20
1233.375
11
6016.9375
21
1233.375
0
LINE
5
11E
100
AcDbEntity
8
doors
6
ByLayer
62
256
370
-1
100
AcDbLine
10
6066.9375
20
2363.375
11
6066.9375
21
1233.375
0
LINE
5
11F
100
AcDbEntity
8
doors
6
ByLayer
62
256
370
-1
100
AcDbLine
10
5966.9375
20
1263.375
11
5966.9375
21
133.375
0
LINE
5
120
100
AcDbEntity
8
doors
6
ByLayer
62
256
370
-1
100
AcDbLine
10
974.9375
20
1238.375
11
949.9375
21
1238.375
0
LINE
5
121
100
AcDbEntity
8
doors
6
ByLayer
62
256
370
-1
100
AcDbLine
10
944.9375
20
1258.375
11
919.9375
21
1258.375
0
LINE
5
122
100
AcDbEntity
8
doors
6
ByLayer
62
256
370
-1
100
AcDbLine
10
949.9375
20
2363.375
11
974.9375
21
2363.375
0
LINE
5
123
100
AcDbEntity
8
doors
6
ByLayer
62
256
370
-1
100
AcDbLine
10
949.9375
20
1238.375
11
949.9375
21
2363.375
0
LINE
5
124
100
AcDbEntity
8
doors
6
ByLayer
62
256
370
-1
100
AcDbLine
10
974.9375
20
2363.375
11
974.9375
21
1238.375
0
LINE
5
125
100
AcDbEntity
8
doors
6
ByLayer
62
256
370
-1
100
AcDbLine
10
919.9375
20
1258.375
11
919.9375
21
133.375
0
LINE
5
126
100
AcDbEntity
8
doors
6
ByLayer
62
256
370
-1
100
AcDbLine
10
944.9375
20
133.375
11
944.9375
21
1258.375
0
LINE
5
127
100
AcDbEntity
8
doors
6
ByLayer
62
256
370
-1
100
AcDbLine
10
919.9375
20
133.375
11
944.9375
21
133.375
0
MTEXT
5
128
100
AcDbEntity
8
text
6
ByLayer
62
256
370
-1
100
AcDbMText
10
5879.5308742
20
1177.38751289
30
0
40
60
41
206.689524988
71
1
72
1
1
slider
7
standard
210
0
220
0
230
1
50
90
73
2
44
1
0
MTEXT
5
129
100
AcDbEntity
8
text
6
ByLayer
62
256
370
-1
100
AcDbMText
10
2485.81973235
20
-647.853395583
30
0
40
100
41
652.777777778
71
1
72
1
1
floor plan
7
standard
210
0
220
0
230
1
50
0
73
2
44
1
0
MTEXT
5
12A
100
AcDbEntity
8
text
6
ByLayer
62
256
370
-1
100
AcDbMText
10
3048.0878658
20
3588.04088879
30
0
40
100
41
919.482541647
71
1
72
1
1
side elevation
7
standard
210
0
220
0
230
1
50
0
73
2
44
1
0
MTEXT
5
12B
100
AcDbEntity
8
text
6
ByLayer
62
256
370
-1
100
AcDbMText
10
605.96827106
20
3959.53861198
30
0
40
60
41
1021.66666667
71
1
72
1
1
container ruff foor level
7
standard
210
0
220
0
230
1
50
0
73
2
44
1
0
MTEXT
5
12C
100
AcDbEntity
8
text
6
ByLayer
62
256
370
-1
100
AcDbMText
10
2011.51750624
20
-1283.62020931
30
0
40
150
41
2737.5
71
1
72
1
1
6m Container Bedroom unit
7
standard
210
0
220
0
230
1
50
0
73
2
44
1
0
MTEXT
5
12D
100
AcDbEntity
8
text
6
ByLayer
62
256
370
-1
100
AcDbMText
10
3107.98714599
20
1553.99175387
30
0
40
100
41
716.666666667
71
1
72
1
1
Bed Rm 5T
7
standard
210
0
220
0
230
1
50
0
73
2
44
1
0
LINE
5
12E
100
AcDbEntity
8
doors
6
ByLayer
62
256
370
-1
100
AcDbLine
10
5341.9375
20
78.375
11
5341.9375
21
113.375
0
LINE
5
12F
100
AcDbEntity
8
doors
6
ByLayer
62
256
370
-1
100
AcDbLine
10
2363.9375
20
78.375
11
5341.9375
21
78.375
0
LINE
5
130
100
AcDbEntity
8
doors
6
ByLayer
62
256
370
-1
100
AcDbLine
10
2363.9375
20
78.375
11
2363.9375
21
43.375
0
LINE
5
131
100
AcDbEntity
8
doors
6
ByLayer
62
256
370
-1
100
AcDbLine
10
3826.9375
20
113.375
11
5341.9375
21
113.375
0
LINE
5
132
100
AcDbEntity
8
doors
6
ByLayer
62
256
370
-1
100
AcDbLine
10
2363.9375
20
43.375
11
3876.9375
21
43.375
0
LINE
5
133
100
AcDbEntity
8
doors
6
ByLayer
62
256
370
-1
100
AcDbLine
10
3826.9375
20
113.375
11
3826.9375
21
78.375
0
LINE
5
134
100
AcDbEntity
8
doors
6
ByLayer
62
256
370
-1
100
AcDbLine
10
3876.9375
20
78.375
11
3876.9375
21
43.375
0
INSERT
5
135
100
AcDbEntity
8
doors
6
ByLayer
62
256
370
-1
100
AcDbBlockReference
2
slider3000
10
5351.9375
20
2467.375
30
0
41
1
42
1
43
0
50
0
70
1
71
1
44
0
45
0
0
LINE
5
136
100
AcDbEntity
8
wall
6
ByLayer
62
256
370
-1
100
AcDbLine
10
5351.9375
20
2373.375
11
6116.9375
21
2373.375
0
LINE
5
137
100
AcDbEntity
8
wall
6
ByLayer
62
256
370
-1
100
AcDbLine
10
114.9375
20
2373.375
11
2351.9375
21
2373.375
0
LINE
5
138
100
AcDbEntity
8
wall
6
ByLayer
62
256
370
-1
100
AcDbLine
10
114.9375
20
123.375
11
2351.9375
21
123.375
0
LINE
5
139
100
AcDbEntity
8
wall
6
ByLayer
62
256
370
-1
100
AcDbLine
10
5351.9375
20
123.375
11
6116.9375
21
123.375
0
LINE
5
13A
100
AcDbEntity
8
0
6
ByLayer
62
256
370
-1
100
AcDbLine
10
5351.9375
20
73.375
11
5351.9375
21
123.375
0
LINE
5
13B
100
AcDbEntity
8
0
6
ByLayer
62
256
370
-1
100
AcDbLine
10
2351.9375
20
73.375
11
2351.9375
21
123.375
0
LINE
5
13C
100
AcDbEntity
8
0
6
ByLayer
62
256
370
-1
100
AcDbLine
10
2351.9375
20
2373.375
11
2351.9375
21
2423.375
0
LINE
5
13D
100
AcDbEntity
8
0
6
ByLayer
62
256
370
-1
100
AcDbLine
10
5351.9375
20
2373.375
11
5351.9375
21
2423.375
0
LINE
5
13E
100
AcDbEntity
8
container
6
ByLayer
62
256
370
-1
100
AcDbLine
10
20.9375
20
29.375
11
20.9375
21
2467.375
0
LINE
5
13F
100
AcDbEntity
8
container
6
ByLayer
62
256
370
-1
100
AcDbLine
10
6116.9375
20
29.375
11
6116.9375
21
2467.375
0
LINE
5
140
100
AcDbEntity
8
container
6
ByLayer
62
256
370
-1
100
AcDbLine
10
64.9375
20
73.375
11
64.9375
21
2423.375
0
LINE
5
141
100
AcDbEntity
8
container
6
ByLayer
62
256
370
-1
100
AcDbLine
10
6136.9375
20
2467.375
11
7306.9375
21
2467.375
0
LINE
5
142
100
AcDbEntity
8
container
6
ByLayer
62
256
370
-1
100
AcDbLine
10
6136.9375
20
2427.375
11
7306.9375
21
2427.375
0
LINE
5
143
100
AcDbEntity
8
container
6
ByLayer
62
256
370
-1
100
AcDbLine
10
6136.9375
20
29.375
11
7306.9375
21
29.375
0
LINE
5
144
100
AcDbEntity
8
container
6
ByLayer
62
256
370
-1
100
AcDbLine
10
6136.9375
20
69.375
11
7306.9375
21
69.375
0
LINE
5
145
100
AcDbEntity
8
container
6
ByLayer
62
256
370
-1
100
AcDbLine
10
7306.9375
20
2467.375
11
7306.9375
21
2427.375
0
LINE
5
146
100
AcDbEntity
8
container
6
ByLayer
62
256
370
-1
100
AcDbLine
10
6136.9375
20
2467.375
11
6136.9375
21
2427.375
0
LINE
5
147
100
AcDbEntity
8
container
6
ByLayer
62
256
370
-1
100
AcDbLine
10
7306.9375
20
29.375
11
7306.9375
21
69.375
0
LINE
5
148
100
AcDbEntity
8
container
6
DASHED2
62
256
370
-1
100
AcDbLine
10
20.9375
20
6276.29123755
11
6116.9375
21
6276.29123755
0
LINE
5
149
100
AcDbEntity
8
container
6
CONTINUOUS
62
256
370
-1
100
AcDbLine
10
6136.9375
20
6276.29123755
11
7306.9375
21
6276.29123755
0
LINE
5
14A
100
AcDbEntity
8
container
6
CONTINUOUS
62
256
370
-1
100
AcDbLine
10
6136.9375
20
3881.29123755
11
7306.9375
21
3881.29123755
0
LINE
5
14B
100
AcDbEntity
8
container
6
ByLayer
62
256
370
-1
100
AcDbLine
10
6116.9375
20
3731.29123755
11
6116.9375
21
6331.29123755
0
LINE
5
14C
100
AcDbEntity
8
container
6
ByLayer
62
256
370
-1
100
AcDbLine
10
20.9375
20
3731.29123755
11
20.9375
21
6331.29123755
0
LINE
5
14D
100
AcDbEntity
8
container
6
ByLayer
62
256
370
-1
100
AcDbLine
10
20.9375
20
6331.29123755
11
6116.9375
21
6331.29123755
0
LINE
5
14E
100
AcDbEntity
8
container
6
ByLayer
62
256
370
-1
100
AcDbLine
10
20.9375
20
3731.29123755
11
6116.9375
21
3731.29123755
0
LINE
5
14F
100
AcDbEntity
8
container
6
ByLayer
62
256
370
-1
100
AcDbLine
10
6136.9375
20
3881.29123755
11
6136.9375
21
6276.29123755
0
LINE
5
150
100
AcDbEntity
8
container
6
ByLayer
62
256
370
-1
100
AcDbLine
10
7306.9375
20
3881.29123755
11
7306.9375
21
6276.29123755
0
LINE
5
151
100
AcDbEntity
8
container
6
ByLayer
62
256
370
-1
100
AcDbLine
10
64.9375
20
2423.375
11
2351.9375
21
2423.375
0
LINE
5
152
100
AcDbEntity
8
container
6
ByLayer
62
256
370
-1
100
AcDbLine
10
64.9375
20
73.375
11
2351.9375
21
73.375
0
LINE
5
153
100
AcDbEntity
8
container
6
ByLayer
62
256
370
-1
100
AcDbLine
10
5351.9375
20
73.375
11
6116.9375
21
73.375
0
LINE
5
154
100
AcDbEntity
8
container
6
ByLayer
62
256
370
-1
100
AcDbLine
10
5351.9375
20
2423.375
11
6116.9375
21
2423.375
0
LINE
5
155
100
AcDbEntity
8
container
6
ByLayer
62
256
370
-1
100
AcDbLine
10
5351.9375
20
2467.375
11
6116.9375
21
2467.375
0
LINE
5
156
100
AcDbEntity
8
container
6
ByLayer
62
256
370
-1
100
AcDbLine
10
20.9375
20
2467.375
11
2351.9375
21
2467.375
0
LINE
5
157
100
AcDbEntity
8
container
6
ByLayer
62
256
370
-1
100
AcDbLine
10
20.9375
20
29.375
11
2351.9375
21
29.375
0
LINE
5
158
100
AcDbEntity
8
container
6
ByLayer
62
256
370
-1
100
AcDbLine
10
5351.9375
20
29.375
11
6116.9375
21
29.375
0
LINE
5
159
100
AcDbEntity
8
container
6
DASHDOT2
62
256
370
-1
100
AcDbLine
10
2351.9375
20
2467.375
11
5351.9375
21
2467.375
0
LINE
5
15A
100
AcDbEntity
8
container
6
DASHDOT2
62
256
370
-1
100
AcDbLine
10
2351.9375
20
29.375
11
5351.9375
21
29.375
0
LINE
5
15B
100
AcDbEntity
8
container
6
ByLayer
62
256
370
-1
100
AcDbLine
10
5351.9375
20
29.375
11
5351.9375
21
73.375
0
LINE
5
15C
100
AcDbEntity
8
container
6
ByLayer
62
256
370
-1
100
AcDbLine
10
2351.9375
20
29.375
11
2351.9375
21
73.375
0
LINE
5
15D
100
AcDbEntity
8
container
6
ByLayer
62
256
370
-1
100
AcDbLine
10
2351.9375
20
2423.375
11
2351.9375
21
2467.375
0
LINE
5
15E
100
AcDbEntity
8
container
6
ByLayer
62
256
370
-1
100
AcDbLine
10
5351.9375
20
2423.375
11
5351.9375
21
2467.375
0
DIMENSION
5
15F
100
AcDbEntity
8
dimension
6
ByLayer
62
256
370
-1
100
AcDbDimension
2
*D7
10
5351.9375
20
-426.872003506
30
0
11
5734.4375
21
-373.122003506
31
0
70
32
71
5
3
Standard
53
0
210
0
220
0
230
1
100
AcDbAlignedDimension
13
6116.9375
23
29.375
33
0
14
5351.9375
24
29.375
34
0
100
AcDbRotatedDimension
0
DIMENSION
5
160
100
AcDbEntity
8
dimension
6
ByLayer
62
256
370
-1
100
AcDbDimension
2
*D8
10
2351.9375
20
-427.07383424
30
0
11
3851.9375
21
-373.32383424
31
0
70
32
71
5
3
Standard
53
0
210
0
220
0
230
1
100
AcDbAlignedDimension
13
5351.9375
23
29.375
33
0
14
2351.9375
24
29.375
34
0
100
AcDbRotatedDimension
0
MTEXT
5
161
100
AcDbEntity
8
text
6
ByLayer
62
256
370
-1
100
AcDbMText
10
3749.83371505
20
2564.7680009
30
0
40
60
41
206.689524988
71
1
72
1
1
slider
7
standard
210
0
220
0
230
1
50
0
73
2
44
1
0
MTEXT
5
162
100
AcDbEntity
8
text
6
ByLayer
62
256
370
-1
100
AcDbMText
10
3791.8715191
20
-52.9322166371
30
0
40
60
41
206.689524988
71
1
72
1
1
slider
7
standard
210
0
220
0
230
1
50
0
73
2
44
1
0
LINE
5
163
100
AcDbEntity
8
container
6
ByLayer
62
256
370
-1
100
AcDbLine
10
5351.9375
20
5881.29123755
11
5351.9375
21
3881.29123755
0
LINE
5
164
100
AcDbEntity
8
doors
6
ByLayer
62
256
370
-1
100
AcDbLine
10
5331.9375
20
3911.29123755
11
5331.9375
21
5861.29123755
0
LINE
5
165
100
AcDbEntity
8
container
6
DASHED2
62
256
370
-1
100
AcDbLine
10
5351.9375
20
3881.29123755
11
6116.9375
21
3881.29123755
0
LINE
5
166
100
AcDbEntity
8
container
6
DASHED2
62
256
370
-1
100
AcDbLine
10
20.9375
20
3881.29123755
11
2351.9375
21
3881.29123755
0
LINE
5
167
100
AcDbEntity
8
container
6
ByLayer
62
256
370
-1
100
AcDbLine
10
2351.9375
20
5881.29123755
11
2351.9375
21
3881.29123755
0
LINE
5
168
100
AcDbEntity
8
doors
6
ByLayer
62
256
370
-1
100
AcDbLine
10
2371.9375
20
3911.29123755
11
2371.9375
21
5861.29123755
0
LINE
5
169
100
AcDbEntity
8
doors
6
ByLayer
62
256
370
-1
100
AcDbLine
10
2371.9375
20
3911.29123755
11
5331.9375
21
3911.29123755
0
LINE
5
16A
100
AcDbEntity
8
doors
6
ByLayer
62
256
370
-1
100
AcDbLine
10
2371.9375
20
5861.29123755
11
5331.9375
21
5861.29123755
0
LINE
5
16B
100
AcDbEntity
8
container
6
ByLayer
62
256
370
-1
100
AcDbLine
10
2351.9375
20
5881.29123755
11
5351.9375
21
5881.29123755
0
LINE
5
16C
100
AcDbEntity
8
doors
6
ByLayer
62
256
370
-1
100
AcDbLine
10
3826.9375
20
5861.29123755
11
3826.9375
21
3911.29123755
0
MTEXT
5
16D
100
AcDbEntity
8
text
6
ByLayer
62
256
370
-1
100
AcDbMText
10
4192.47215864
20
5732.31846082
30
0
40
60
41
206.689524988
71
1
72
1
1
slider
7
standard
210
0
220
0
230
1
50
0
73
2
44
1
0
LINE
5
16E
100
AcDbEntity
8
doors
6
ByLayer
62
256
370
-1
100
AcDbLine
10
3876.9375
20
3911.29123755
11
3876.9375
21
5861.29123755
0
LINE
5
16F
100
AcDbEntity
8
doors
6
ByLayer
62
256
370
-1
100
AcDbLine
10
3826.9375
20
5861.29123755
11
2371.9375
21
4881.06713229
0
LINE
5
170
100
AcDbEntity
8
doors
6
ByLayer
62
256
370
-1
100
AcDbLine
10
2371.9375
20
4881.06713229
11
3826.9375
21
3911.29123755
0
LINE
5
171
100
AcDbEntity
8
doors
6
ByLayer
62
256
370
-1
100
AcDbLine
10
3885.34018964
20
5861.29123755
11
5331.9375
21
4881.06713229
0
LINE
5
172
100
AcDbEntity
8
doors
6
ByLayer
62
256
370
-1
100
AcDbLine
10
3876.9375
20
3911.29123755
11
5331.9375
21
4881.06713229
0
LINE
5
173
100
AcDbEntity
8
container
6
CONTINUOUS
62
256
370
-1
100
AcDbLine
10
2351.9375
20
3881.29123755
11
5351.9375
21
3881.29123755
0
ENDSEC
0
SECTION
2
OBJECTS
0
DICTIONARY
5
C
330
0
100
AcDbDictionary
281
1
3
ACAD_GROUP
350
D
0
DICTIONARY
5
D
330
C
100
AcDbDictionary
281
1
0
ENDSEC
0
EOF
