999
dxflib 2.2.0.0
  0
SECTION
  2
HEADER
  9
$ACADVER
  1
AC1015
  9
$HANDSEED
  5
FFFF
  9
$SPLINESEGS
 70
8
  9
$DIMEXE
 40
12.5
  9
$DIMLUNIT
 70
2
  9
$GRIDMODE
 70
0
  9
$INSUNITS
 70
5
  9
$DIMADEC
 70
2
  9
$DIMASZ
 40
5.0
  9
$DIMGAP
 40
6.25
  9
$DIMTXT
 40
9.0
  9
$GRIDUNIT
 10
0.0
 20
0.0
  9
$DIMEXO
 40
12.5
  9
$LUPREC
 70
4
  9
$DIMAUNIT
 70
0
  9
$AUPREC
 70
2
  9
$PLIMMIN
 10
0.0
 20
0.0
  9
$LUNITS
 70
2
  9
$PLIMMAX
 10
21.0
 20
29.6999999999999993
  9
$DIMSTYLE
  2
Standard
  9
$AUNITS
 70
0
  0
ENDSEC
  0
SECTION
  2
TABLES
  0
TABLE
  2
VPORT
  5
8
100
AcDbSymbolTable
 70
1
  0
VPORT
  5
30
100
AcDbSymbolTableRecord
100
AcDbViewportTableRecord
  2
*Active
 70
0
 10
0.0
 20
0.0
 11
1.0
 21
1.0
 12
286.3055555555554861
 22
148.5
 13
0.0
 23
0.0
 14
10.0
 24
10.0
 15
10.0
 25
10.0
 16
0.0
 26
0.0
 36
1.0
 17
0.0
 27
0.0
 37
0.0
 40
297.0
 41
1.92798353909465
 42
50.0
 43
0.0
 44
0.0
 50
0.0
 51
0.0
 71
0
 72
100
 73
1
 74
3
 75
1
 76
1
 77
0
 78
0
281
0
 65
1
110
0.0
120
0.0
130
0.0
111
1.0
121
0.0
131
0.0
112
0.0
122
1.0
132
0.0
 79
0
146
0.0
  0
ENDTAB
  0
TABLE
  2
LTYPE
  5
5
100
AcDbSymbolTable
 70
21
  0
LTYPE
  5
14
100
AcDbSymbolTableRecord
100
AcDbLinetypeTableRecord
  2
ByBlock
 70
0
  3

 72
65
 73
0
 40
0.0
  0
LTYPE
  5
15
100
AcDbSymbolTableRecord
100
AcDbLinetypeTableRecord
  2
ByLayer
 70
0
  3

 72
65
 73
0
 40
0.0
  0
LTYPE
  5
16
100
AcDbSymbolTableRecord
100
AcDbLinetypeTableRecord
  2
CONTINUOUS
 70
0
  3
Solid line
 72
65
 73
0
 40
0.0
  0
LTYPE
  5
31
100
AcDbSymbolTableRecord
100
AcDbLinetypeTableRecord
  2
DOT
 70
0
  3
Dot . . . . . . . . . . . . . . . . . . . . . .
 72
65
 73
2
 40
6.3499999999999996
 49
0.0
 74
0
 49
-6.3499999999999996
 74
0
  0
LTYPE
  5
32
100
AcDbSymbolTableRecord
100
AcDbLinetypeTableRecord
  2
DOT2
 70
0
  3
Dot (.5x) .....................................
 72
65
 73
2
 40
3.1749999999999998
 49
0.0
 74
0
 49
-3.1749999999999998
 74
0
  0
LTYPE
  5
33
100
AcDbSymbolTableRecord
100
AcDbLinetypeTableRecord
  2
DOTX2
 70
0
  3
Dot (2x) .  .  .  .  .  .  .  .  .  .  .  .  .
 72
65
 73
2
 40
12.6999999999999993
 49
0.0
 74
0
 49
-12.6999999999999993
 74
0
  0
LTYPE
  5
34
100
AcDbSymbolTableRecord
100
AcDbLinetypeTableRecord
  2
DASHED
 70
0
  3
Dashed __ __ __ __ __ __ __ __ __ __ __ __ __ _
 72
65
 73
2
 40
19.0500000000000007
 49
12.6999999999999993
 74
0
 49
-6.3499999999999996
 74
0
  0
LTYPE
  5
35
100
AcDbSymbolTableRecord
100
AcDbLinetypeTableRecord
  2
DASHED2
 70
0
  3
Dashed (.5x) _ _ _ _ _ _ _ _ _ _ _ _ _ _ _ _ _
 72
65
 73
2
 40
9.5250000000000004
 49
6.3499999999999996
 74
0
 49
-3.1749999999999998
 74
0
  0
LTYPE
  5
36
100
AcDbSymbolTableRecord
100
AcDbLinetypeTableRecord
  2
DASHEDX2
 70
0
  3
Dashed (2x) ____  ____  ____  ____  ____  ___
 72
65
 73
2
 40
38.1000000000000014
 49
25.3999999999999986
 74
0
 49
-12.6999999999999993
 74
0
  0
LTYPE
  5
37
100
AcDbSymbolTableRecord
100
AcDbLinetypeTableRecord
  2
DASHDOT
 70
0
  3
Dash dot __ . __ . __ . __ . __ . __ . __ . __
 72
65
 73
4
 40
25.3999999999999986
 49
12.6999999999999993
 74
0
 49
-6.3499999999999996
 74
0
 49
0.0
 74
0
 49
-6.3499999999999996
 74
0
  0
LTYPE
  5
38
100
AcDbSymbolTableRecord
100
AcDbLinetypeTableRecord
  2
DASHDOT2
 70
0
  3
Dash dot (.5x) _._._._._._._._._._._._._._._.
 72
65
 73
4
 40
12.6999999999999993
 49
6.3499999999999996
 74
0
 49
-3.1749999999999998
 74
0
 49
0.0
 74
0
 49
-3.1749999999999998
 74
0
  0
LTYPE
  5
39
100
AcDbSymbolTableRecord
100
AcDbLinetypeTableRecord
  2
DASHDOTX2
 70
0
  3
Dash dot (2x) ____  .  ____  .  ____  .  ___
 72
65
 73
4
 40
50.7999999999999972
 49
25.3999999999999986
 74
0
 49
-12.6999999999999993
 74
0
 49
0.0
 74
0
 49
-12.6999999999999993
 74
0
  0
LTYPE
  5
3A
100
AcDbSymbolTableRecord
100
AcDbLinetypeTableRecord
  2
DIVIDE
 70
0
  3
Divide ____ . . ____ . . ____ . . ____ . . ____
 72
65
 73
6
 40
31.75
 49
12.6999999999999993
 74
0
 49
-6.3499999999999996
 74
0
 49
0.0
 74
0
 49
-6.3499999999999996
 74
0
 49
0.0
 74
0
 49
-6.3499999999999996
 74
0
  0
LTYPE
  5
3B
100
AcDbSymbolTableRecord
100
AcDbLinetypeTableRecord
  2
DIVIDE2
 70
0
  3
Divide (.5x) __..__..__..__..__..__..__..__.._
 72
65
 73
6
 40
15.875
 49
6.3499999999999996
 74
0
 49
-3.1749999999999998
 74
0
 49
0.0
 74
0
 49
-3.1749999999999998
 74
0
 49
0.0
 74
0
 49
-3.1749999999999998
 74
0
  0
LTYPE
  5
3C
100
AcDbSymbolTableRecord
100
AcDbLinetypeTableRecord
  2
DIVIDEX2
 70
0
  3
Divide (2x) ________  .  .  ________  .  .  _
 72
65
 73
6
 40
63.5
 49
25.3999999999999986
 74
0
 49
-12.6999999999999993
 74
0
 49
0.0
 74
0
 49
-12.6999999999999993
 74
0
 49
0.0
 74
0
 49
-12.6999999999999993
 74
0
  0
LTYPE
  5
3D
100
AcDbSymbolTableRecord
100
AcDbLinetypeTableRecord
  2
CENTER
 70
0
  3
Center ____ _ ____ _ ____ _ ____ _ ____ _ ____
 72
65
 73
4
 40
50.7999999999999972
 49
31.75
 74
0
 49
-6.3499999999999996
 74
0
 49
6.3499999999999996
 74
0
 49
-6.3499999999999996
 74
0
  0
LTYPE
  5
3E
100
AcDbSymbolTableRecord
100
AcDbLinetypeTableRecord
  2
CENTER2
 70
0
  3
Center (.5x) ___ _ ___ _ ___ _ ___ _ ___ _ ___
 72
65
 73
4
 40
28.5749999999999993
 49
19.0500000000000007
 74
0
 49
-3.1749999999999998
 74
0
 49
3.1749999999999998
 74
0
 49
-3.1749999999999998
 74
0
  0
LTYPE
  5
3F
100
AcDbSymbolTableRecord
100
AcDbLinetypeTableRecord
  2
CENTERX2
 70
0
  3
Center (2x) ________  __  ________  __  _____
 72
65
 73
4
 40
101.5999999999999943
 49
63.5
 74
0
 49
-12.6999999999999993
 74
0
 49
12.6999999999999993
 74
0
 49
-12.6999999999999993
 74
0
  0
LTYPE
  5
40
100
AcDbSymbolTableRecord
100
AcDbLinetypeTableRecord
  2
BORDER
 70
0
  3
Border __ __ . __ __ . __ __ . __ __ . __ __ .
 72
65
 73
6
 40
44.4500000000000028
 49
12.6999999999999993
 74
0
 49
-6.3499999999999996
 74
0
 49
12.6999999999999993
 74
0
 49
-6.3499999999999996
 74
0
 49
0.0
 74
0
 49
-6.3499999999999996
 74
0
  0
LTYPE
  5
41
100
AcDbSymbolTableRecord
100
AcDbLinetypeTableRecord
  2
BORDER2
 70
0
  3
Border (.5x) __.__.__.__.__.__.__.__.__.__.__.
 72
65
 73
6
 40
22.2250000000000014
 49
6.3499999999999996
 74
0
 49
-3.1749999999999998
 74
0
 49
6.3499999999999996
 74
0
 49
-3.1749999999999998
 74
0
 49
0.0
 74
0
 49
-3.1749999999999998
 74
0
  0
LTYPE
  5
42
100
AcDbSymbolTableRecord
100
AcDbLinetypeTableRecord
  2
BORDERX2
 70
0
  3
Border (2x) ____  ____  .  ____  ____  .  ___
 72
65
 73
6
 40
88.9000000000000057
 49
25.3999999999999986
 74
0
 49
-12.6999999999999993
 74
0
 49
25.3999999999999986
 74
0
 49
-12.6999999999999993
 74
0
 49
0.0
 74
0
 49
-12.6999999999999993
 74
0
  0
ENDTAB
  0
TABLE
  2
LAYER
  5
2
100
AcDbSymbolTable
 70
9
  0
LAYER
  5
10
100
AcDbSymbolTableRecord
100
AcDbLayerTableRecord
  2
0
 70
0
 62
7
  6
CONTINUOUS
290
1
370
0
390
F
  0
LAYER
  5
43
100
AcDbSymbolTableRecord
100
AcDbLayerTableRecord
  2
dimesions
 70
0
 62
5
  6
CONTINUOUS
290
1
370
0
390
F
  0
LAYER
  5
44
100
AcDbSymbolTableRecord
100
AcDbLayerTableRecord
  2
bogus
 70
0
 62
3
  6
DOT
290
1
370
0
390
F
  0
LAYER
  5
45
100
AcDbSymbolTableRecord
100
AcDbLayerTableRecord
  2
fixtures
 70
0
 62
3
  6
CONTINUOUS
290
1
370
0
390
F
  0
LAYER
  5
46
100
AcDbSymbolTableRecord
100
AcDbLayerTableRecord
  2
doors
 70
0
 62
6
  6
CONTINUOUS
290
1
370
0
390
F
  0
LAYER
  5
47
100
AcDbSymbolTableRecord
100
AcDbLayerTableRecord
  2
eletrical
 70
0
 62
1
  6
CONTINUOUS
290
1
370
0
390
F
  0
LAYER
  5
48
100
AcDbSymbolTableRecord
100
AcDbLayerTableRecord
  2
text
 70
0
 62
7
  6
CONTINUOUS
290
1
370
0
390
F
  0
LAYER
  5
49
100
AcDbSymbolTableRecord
100
AcDbLayerTableRecord
  2
deck
 70
0
 62
222
  6
CONTINUOUS
290
1
370
0
390
F
  0
LAYER
  5
4A
100
AcDbSymbolTableRecord
100
AcDbLayerTableRecord
  2
tatami
 70
0
 62
30
  6
DOT2
290
1
370
0
390
F
  0
ENDTAB
  0
TABLE
  2
STYLE
  5
3
100
AcDbSymbolTable
 70
1
  0
STYLE
  5
11
100
AcDbSymbolTableRecord
100
AcDbTextStyleTableRecord
  2
Standard
 70
0
 40
0.0
 41
0.75
 50
0.0
 71
0
 42
2.5
  3
txt
  4

  0
ENDTAB
  0
TABLE
  2
VIEW
  5
6
100
AcDbSymbolTable
 70
0
  0
ENDTAB
  0
TABLE
  2
UCS
  5
7
100
AcDbSymbolTable
 70
0
  0
ENDTAB
  0
TABLE
  2
APPID
  5
9
100
AcDbSymbolTable
 70
1
  0
APPID
  5
12
100
AcDbSymbolTableRecord
100
AcDbRegAppTableRecord
  2
ACAD
 70
0
  0
ENDTAB
  0
TABLE
  2
DIMSTYLE
  5
A
100
AcDbSymbolTable
 70
1
100
AcDbDimStyleTable
 71
0
  0
DIMSTYLE
105
27
100
AcDbSymbolTableRecord
100
AcDbDimStyleTableRecord
  2
Standard
 41
5.0
 42
12.5
 43
3.75
 44
12.5
 70
0
 73
0
 74
0
 77
1
 78
8
140
9.0
141
2.5
143
0.03937007874016
147
6.25
171
3
172
1
271
2
272
2
274
3
278
44
283
0
284
8
340
11
  0
ENDTAB
  0
TABLE
  2
BLOCK_RECORD
  5
1
100
AcDbSymbolTable
 70
1
  0
BLOCK_RECORD
  5
1F
100
AcDbSymbolTableRecord
100
AcDbBlockTableRecord
  2
*Model_Space
340
22
  0
BLOCK_RECORD
  5
1B
100
AcDbSymbolTableRecord
100
AcDbBlockTableRecord
  2
*Paper_Space
340
1E
  0
BLOCK_RECORD
  5
23
100
AcDbSymbolTableRecord
100
AcDbBlockTableRecord
  2
*Paper_Space0
340
26
  0
BLOCK_RECORD
  5
4B
100
AcDbSymbolTableRecord
100
AcDbBlockTableRecord
  2
door60verleft
340
0
  0
BLOCK_RECORD
  5
4C
100
AcDbSymbolTableRecord
100
AcDbBlockTableRecord
  2
door71verleft
340
0
  0
BLOCK_RECORD
  5
4D
100
AcDbSymbolTableRecord
100
AcDbBlockTableRecord
  2
door80verright
340
0
  0
BLOCK_RECORD
  5
4E
100
AcDbSymbolTableRecord
100
AcDbBlockTableRecord
  2
out110hor
340
0
  0
BLOCK_RECORD
  5
4F
100
AcDbSymbolTableRecord
100
AcDbBlockTableRecord
  2
tub-ver
340
0
  0
BLOCK_RECORD
  5
50
100
AcDbSymbolTableRecord
100
AcDbBlockTableRecord
  2
WC-hor-left
340
0
  0
BLOCK_RECORD
  5
51
100
AcDbSymbolTableRecord
100
AcDbBlockTableRecord
  2
out110hor-dwn
340
0
  0
BLOCK_RECORD
  5
52
100
AcDbSymbolTableRecord
100
AcDbBlockTableRecord
  2
standard40
340
0
  0
BLOCK_RECORD
  5
53
100
AcDbSymbolTableRecord
100
AcDbBlockTableRecord
  2
standard40-interiorwall
340
0
  0
BLOCK_RECORD
  5
54
100
AcDbSymbolTableRecord
100
AcDbBlockTableRecord
  2
standard40-outline
340
0
  0
BLOCK_RECORD
  5
55
100
AcDbSymbolTableRecord
100
AcDbBlockTableRecord
  2
KyotoKyomaTatami
340
0
  0
BLOCK_RECORD
  5
56
100
AcDbSymbolTableRecord
100
AcDbBlockTableRecord
  2
KyotoKyomaTatamiHalf
340
0
  0
BLOCK_RECORD
  5
57
100
AcDbSymbolTableRecord
100
AcDbBlockTableRecord
  2
refridge50_60
340
0
  0
BLOCK_RECORD
  5
58
100
AcDbSymbolTableRecord
100
AcDbBlockTableRecord
  2
washer_hor
340
0
  0
BLOCK_RECORD
  5
59
100
AcDbSymbolTableRecord
100
AcDbBlockTableRecord
  2
switch-hor
340
0
  0
ENDTAB
  0
ENDSEC
  0
SECTION
  2
BLOCKS
  0
BLOCK
  5
20
100
AcDbEntity
  8
0
100
AcDbBlockBegin
  2
*Model_Space
 70
0
 10
0.0
 20
0.0
 30
0.0
  3
*Model_Space
  1

  0
ENDBLK
  5
21
100
AcDbEntity
  8
0
100
AcDbBlockEnd
  0
BLOCK
  5
1C
100
AcDbEntity
 67
1
  8
0
100
AcDbBlockBegin
  2
*Paper_Space
 70
0
 10
0.0
 20
0.0
 30
0.0
  3
*Paper_Space
  1

  0
ENDBLK
  5
1D
100
AcDbEntity
 67
1
  8
0
100
AcDbBlockEnd
  0
BLOCK
  5
24
100
AcDbEntity
  8
0
100
AcDbBlockBegin
  2
*Paper_Space0
 70
0
 10
0.0
 20
0.0
 30
0.0
  3
*Paper_Space0
  1

  0
ENDBLK
  5
25
100
AcDbEntity
  8
0
100
AcDbBlockEnd
  0
BLOCK
  5
5A
100
AcDbEntity
  8
0
100
AcDbBlockBegin
  2
door60verleft
 70
0
 10
0.0
 20
0.0
 30
0.0
  3
door60verleft
  1

  0
LINE
  5
5B
100
AcDbEntity
100
AcDbLine
  8
fixtures
 62
6
370
-1
  6
ByLayer
 10
0.0
 20
0.0
 30
0.0
 11
-51.5285115251740962
 21
-29.7500000000000071
 31
0.0
  0
ARC
  5
5C
100
AcDbEntity
  8
fixtures
 62
6
370
-1
  6
ByLayer
100
AcDbCircle
 10
0.0
 20
0.0
 30
0.0
 40
60.0
100
AcDbArc
 50
210.0
 51
270.0
  0
LINE
  5
5D
100
AcDbEntity
100
AcDbLine
  8
fixtures
 62
6
370
-1
  6
ByLayer
 10
2.5
 20
-4.3301270189221981
 30
0.0
 11
-49.0285115251740962
 21
-34.0801270189221981
 31
0.0
  0
LINE
  5
5E
100
AcDbEntity
100
AcDbLine
  8
fixtures
 62
6
370
-1
  6
ByLayer
 10
0.0
 20
0.0
 30
0.0
 11
2.5
 21
-4.3301270189221981
 31
0.0
  0
ENDBLK
  5
5F
100
AcDbEntity
  8
0
100
AcDbBlockEnd
  0
BLOCK
  5
60
100
AcDbEntity
  8
0
100
AcDbBlockBegin
  2
door71verleft
 70
0
 10
0.0
 20
0.0
 30
0.0
  3
door71verleft
  1

  0
LINE
  5
61
100
AcDbEntity
100
AcDbLine
  8
doors
 62
256
370
-1
  6
ByLayer
 10
0.0
 20
0.0
 30
0.0
 11
-61.4878036686951646
 21
-35.5000000000000071
 31
0.0
  0
ARC
  5
62
100
AcDbEntity
  8
doors
 62
256
370
-1
  6
ByLayer
100
AcDbCircle
 10
0.0
 20
0.0
 30
0.0
 40
71.0
100
AcDbArc
 50
210.0
 51
269.9999999999999432
  0
LINE
  5
63
100
AcDbEntity
100
AcDbLine
  8
doors
 62
256
370
-1
  6
ByLayer
 10
2.5
 20
-4.3301270189221981
 30
0.0
 11
-58.9878036686951646
 21
-39.8301270189221981
 31
0.0
  0
LINE
  5
64
100
AcDbEntity
100
AcDbLine
  8
doors
 62
256
370
-1
  6
ByLayer
 10
0.0
 20
0.0
 30
0.0
 11
2.5
 21
-4.3301270189221981
 31
0.0
  0
ENDBLK
  5
65
100
AcDbEntity
  8
0
100
AcDbBlockEnd
  0
BLOCK
  5
66
100
AcDbEntity
  8
0
100
AcDbBlockBegin
  2
door80verright
 70
0
 10
0.0
 20
0.0
 30
0.0
  3
door80verright
  1

  0
LINE
  5
67
100
AcDbEntity
100
AcDbLine
  8
doors
 62
256
370
-1
  6
ByLayer
 10
0.0
 20
0.0
 30
0.0
 11
51.4230087749231188
 21
-61.2835554495182464
 31
0.0
  0
ARC
  5
68
100
AcDbEntity
  8
doors
 62
256
370
-1
  6
ByLayer
100
AcDbCircle
 10
0.0
 20
0.0
 30
0.0
 40
80.0
100
AcDbArc
 50
270.0
 51
309.9999999999999432
  0
LINE
  5
69
100
AcDbEntity
100
AcDbLine
  8
doors
 62
256
370
-1
  6
ByLayer
 10
-3.8302222155948584
 20
-3.2139380484326807
 30
0.0
 11
47.5927865593282604
 21
-64.4974934979509413
 31
0.0
  0
LINE
  5
6A
100
AcDbEntity
100
AcDbLine
  8
doors
 62
256
370
-1
  6
ByLayer
 10
0.0
 20
0.0
 30
0.0
 11
-3.8302222155948584
 21
-3.2139380484326807
 31
0.0
  0
ENDBLK
  5
6B
100
AcDbEntity
  8
0
100
AcDbBlockEnd
  0
BLOCK
  5
6C
100
AcDbEntity
  8
0
100
AcDbBlockBegin
  2
out110hor
 70
0
 10
0.0
 20
0.0
 30
0.0
  3
out110hor
  1

  0
CIRCLE
  5
6D
100
AcDbEntity
100
AcDbCircle
  8
eletrical
 62
256
370
-1
  6
ByLayer
 10
1.923833067930623
 20
9.3156922990824143
 30
0.0
 40
5.0
  0
LINE
  5
6E
100
AcDbEntity
100
AcDbLine
  8
eletrical
 62
256
370
-1
  6
ByLayer
 10
3.628960766971737
 20
0.0
 30
0.0
 11
3.628960766971737
 21
16.1186024643239421
 31
0.0
  0
LINE
  5
6F
100
AcDbEntity
100
AcDbLine
  8
eletrical
 62
256
370
-1
  6
ByLayer
 10
0.0
 20
0.0
 30
0.0
 11
0.0
 21
16.1186024643239421
 31
0.0
  0
ENDBLK
  5
70
100
AcDbEntity
  8
0
100
AcDbBlockEnd
  0
BLOCK
  5
71
100
AcDbEntity
  8
0
100
AcDbBlockBegin
  2
tub-ver
 70
0
 10
0.0
 20
0.0
 30
0.0
  3
tub-ver
  1

  0
ARC
  5
72
100
AcDbEntity
  8
0
 62
3
370
-1
  6
ByLayer
100
AcDbCircle
 10
5.0
 20
0.0
 30
0.0
 40
5.0
100
AcDbArc
 50
90.0
 51
180.0
  0
LINE
  5
73
100
AcDbEntity
100
AcDbLine
  8
0
 62
3
370
-1
  6
ByLayer
 10
5.0
 20
5.0
 30
0.0
 11
53.0000000000000071
 21
5.0
 31
0.0
  0
ARC
  5
74
100
AcDbEntity
  8
0
 62
3
370
-1
  6
ByLayer
100
AcDbCircle
 10
53.0000000000000071
 20
0.0
 30
0.0
 40
5.0
100
AcDbArc
 50
0.0
 51
90.0
  0
LINE
  5
75
100
AcDbEntity
100
AcDbLine
  8
0
 62
3
370
-1
  6
ByLayer
 10
58.0000000000000071
 20
-86.9999999999999858
 30
0.0
 11
58.0000000000000071
 21
0.0
 31
0.0
  0
ARC
  5
76
100
AcDbEntity
  8
0
 62
3
370
-1
  6
ByLayer
100
AcDbCircle
 10
53.0000000000000071
 20
-86.9999999999999858
 30
0.0
 40
5.0
100
AcDbArc
 50
270.0
 51
0.0
  0
LINE
  5
77
100
AcDbEntity
100
AcDbLine
  8
0
 62
3
370
-1
  6
ByLayer
 10
4.9999999999999716
 20
-91.9999999999999858
 30
0.0
 11
53.0000000000000071
 21
-91.9999999999999858
 31
0.0
  0
LINE
  5
78
100
AcDbEntity
100
AcDbLine
  8
0
 62
3
370
-1
  6
ByLayer
 10
-0.0000000000000284
 20
-86.9999999999999858
 30
0.0
 11
0.0
 21
0.0
 31
0.0
  0
ARC
  5
79
100
AcDbEntity
  8
0
 62
3
370
-1
  6
ByLayer
100
AcDbCircle
 10
4.9999999999999716
 20
-86.9999999999999858
 30
0.0
 40
5.0
100
AcDbArc
 50
180.0
 51
270.0
  0
ENDBLK
  5
7A
100
AcDbEntity
  8
0
100
AcDbBlockEnd
  0
BLOCK
  5
7B
100
AcDbEntity
  8
0
100
AcDbBlockBegin
  2
WC-hor-left
 70
0
 10
0.0
 20
0.0
 30
0.0
  3
WC-hor-left
  1

  0
LINE
  5
7C
100
AcDbEntity
100
AcDbLine
  8
fixtures
 62
256
370
-1
  6
ByLayer
 10
0.0
 20
0.0
 30
0.0
 11
20.0
 21
0.0
 31
0.0
  0
LINE
  5
7D
100
AcDbEntity
100
AcDbLine
  8
fixtures
 62
256
370
-1
  6
ByLayer
 10
0.0
 20
0.0
 30
0.0
 11
0.0
 21
47.0
 31
0.0
  0
LINE
  5
7E
100
AcDbEntity
100
AcDbLine
  8
fixtures
 62
256
370
-1
  6
ByLayer
 10
20.0
 20
0.0
 30
0.0
 11
20.0
 21
47.0
 31
0.0
  0
LINE
  5
7F
100
AcDbEntity
100
AcDbLine
  8
fixtures
 62
256
370
-1
  6
ByLayer
 10
0.0
 20
47.0
 30
0.0
 11
20.0
 21
47.0
 31
0.0
  0
ELLIPSE
  5
80
100
AcDbEntity
100
AcDbEllipse
  8
fixtures
 62
256
370
-1
  6
ByLayer
 10
48.383983460600291
 20
22.8898383817995068
 30
0.0
 11
23.8828093948296072
 21
-0.663411372078599
 31
0.0
 40
0.6156515034695453
 41
0.0
 42
6.2831853071795862
  0
MTEXT
  5
81
100
AcDbEntity
100
AcDbMText
  8
text
 62
256
370
-1
  6
ByLayer
 10
80.8402745876098265
 20
8.7561304533611377
 30
0.0
 40
15.0
 41
100.0
 71
1
 72
2
  1
WC
  7
iso
 50
0.0
 73
0
 44
1.0
  0
ENDBLK
  5
82
100
AcDbEntity
  8
0
100
AcDbBlockEnd
  0
BLOCK
  5
83
100
AcDbEntity
  8
0
100
AcDbBlockBegin
  2
out110hor-dwn
 70
0
 10
0.0
 20
0.0
 30
0.0
  3
out110hor-dwn
  1

  0
INSERT
  5
84
100
AcDbEntity
100
AcDbBlockReference
  8
eletrical
 62
256
370
-1
  6
ByLayer
  2
out110hor
 10
0.0
 20
0.0
 30
0.0
 50
180.0
 44
1.0
 45
1.0
  0
ENDBLK
  5
85
100
AcDbEntity
  8
0
100
AcDbBlockEnd
  0
BLOCK
  5
86
100
AcDbEntity
  8
0
100
AcDbBlockBegin
  2
standard40
 70
0
 10
0.0
 20
0.0
 30
0.0
  3
standard40
  1

  0
LINE
  5
87
100
AcDbEntity
100
AcDbLine
  8
0
 62
256
370
-1
  6
ByLayer
 10
0.0
 20
0.0000000000001705
 30
0.0
 11
0.0
 21
244.0000000000001705
 31
0.0
  0
LINE
  5
88
100
AcDbEntity
100
AcDbLine
  8
0
 62
256
370
-1
  6
ByLayer
 10
0.0
 20
243.9999999999999432
 30
0.0
 11
1219.0
 21
243.9999999999999432
 31
0.0
  0
LINE
  5
89
100
AcDbEntity
100
AcDbLine
  8
0
 62
256
370
-1
  6
ByLayer
 10
0.0
 20
0.0
 30
0.0
 11
1219.0
 21
0.0
 31
0.0
  0
LINE
  5
8A
100
AcDbEntity
100
AcDbLine
  8
0
 62
256
370
-1
  6
ByLayer
 10
1219.0
 20
0.0
 30
0.0
 11
1219.0
 21
243.9999999999999432
 31
0.0
  0
LINE
  5
8B
100
AcDbEntity
100
AcDbLine
  8
0
 62
256
370
-1
  6
ByLayer
 10
4.5
 20
239.4999999999999432
 30
0.0
 11
1219.0
 21
239.4999999999999432
 31
0.0
  0
LINE
  5
8C
100
AcDbEntity
100
AcDbLine
  8
0
 62
256
370
-1
  6
ByLayer
 10
4.5
 20
4.5
 30
0.0
 11
1219.0
 21
4.5
 31
0.0
  0
LINE
  5
8D
100
AcDbEntity
100
AcDbLine
  8
0
 62
256
370
-1
  6
ByLayer
 10
4.5
 20
4.5
 30
0.0
 11
4.5
 21
239.4999999999999432
 31
0.0
  0
LINE
  5
8E
100
AcDbEntity
100
AcDbLine
  8
0
 62
256
370
-1
  6
ByLayer
 10
1205.5
 20
4.5
 30
0.0
 11
1205.5
 21
239.4999999999999432
 31
0.0
  0
ENDBLK
  5
8F
100
AcDbEntity
  8
0
100
AcDbBlockEnd
  0
BLOCK
  5
90
100
AcDbEntity
  8
0
100
AcDbBlockBegin
  2
standard40-interiorwall
 70
0
 10
0.0
 20
0.0
 30
0.0
  3
standard40-interiorwall
  1

  0
LINE
  5
91
100
AcDbEntity
100
AcDbLine
  8
0
 62
256
370
-1
  6
ByLayer
 10
0.0
 20
0.0000000000002274
 30
0.0
 11
0.0
 21
244.0000000000002274
 31
0.0
  0
LINE
  5
92
100
AcDbEntity
100
AcDbLine
  8
0
 62
256
370
-1
  6
ByLayer
 10
0.0
 20
244.0
 30
0.0
 11
1219.0
 21
244.0
 31
0.0
  0
LINE
  5
93
100
AcDbEntity
100
AcDbLine
  8
0
 62
256
370
-1
  6
ByLayer
 10
0.0
 20
0.0
 30
0.0
 11
1219.0
 21
0.0
 31
0.0
  0
LINE
  5
94
100
AcDbEntity
100
AcDbLine
  8
0
 62
256
370
-1
  6
ByLayer
 10
1219.0
 20
0.0
 30
0.0
 11
1219.0
 21
244.0
 31
0.0
  0
LINE
  5
95
100
AcDbEntity
100
AcDbLine
  8
0
 62
256
370
-1
  6
ByLayer
 10
9.0
 20
235.0
 30
0.0
 11
1219.0
 21
235.0
 31
0.0
  0
LINE
  5
96
100
AcDbEntity
100
AcDbLine
  8
0
 62
256
370
-1
  6
ByLayer
 10
9.0
 20
9.0
 30
0.0
 11
1219.0
 21
9.0
 31
0.0
  0
LINE
  5
97
100
AcDbEntity
100
AcDbLine
  8
0
 62
256
370
-1
  6
ByLayer
 10
9.0
 20
9.0
 30
0.0
 11
9.0
 21
235.0
 31
0.0
  0
LINE
  5
98
100
AcDbEntity
100
AcDbLine
  8
0
 62
256
370
-1
  6
DASHED
 10
4.5
 20
239.5
 30
0.0
 11
1219.0
 21
239.5
 31
0.0
  0
LINE
  5
99
100
AcDbEntity
100
AcDbLine
  8
0
 62
256
370
-1
  6
DASHED
 10
4.5
 20
4.5
 30
0.0
 11
1219.0
 21
4.5
 31
0.0
  0
LINE
  5
9A
100
AcDbEntity
100
AcDbLine
  8
0
 62
256
370
-1
  6
DASHED
 10
4.5
 20
4.5
 30
0.0
 11
4.5
 21
239.5
 31
0.0
  0
LINE
  5
9B
100
AcDbEntity
100
AcDbLine
  8
0
 62
256
370
-1
  6
ByLayer
 10
1205.5
 20
9.0
 30
0.0
 11
1205.5
 21
235.0
 31
0.0
  0
ENDBLK
  5
9C
100
AcDbEntity
  8
0
100
AcDbBlockEnd
  0
BLOCK
  5
9D
100
AcDbEntity
  8
0
100
AcDbBlockBegin
  2
standard40-outline
 70
0
 10
0.0
 20
0.0
 30
0.0
  3
standard40-outline
  1

  0
LINE
  5
9E
100
AcDbEntity
100
AcDbLine
  8
0
 62
256
370
-1
  6
DASHEDX2
 10
0.0
 20
0.0
 30
0.0
 11
0.0
 21
244.0
 31
0.0
  0
LINE
  5
9F
100
AcDbEntity
100
AcDbLine
  8
0
 62
256
370
-1
  6
DASHEDX2
 10
0.0
 20
243.9999999999997726
 30
0.0
 11
1219.0000000000002274
 21
243.9999999999997726
 31
0.0
  0
LINE
  5
A0
100
AcDbEntity
100
AcDbLine
  8
0
 62
256
370
-1
  6
DASHEDX2
 10
0.0
 20
-0.0000000000002274
 30
0.0
 11
1219.0000000000002274
 21
-0.0000000000002274
 31
0.0
  0
LINE
  5
A1
100
AcDbEntity
100
AcDbLine
  8
0
 62
256
370
-1
  6
DASHEDX2
 10
1219.0000000000002274
 20
-0.0000000000002274
 30
0.0
 11
1219.0000000000002274
 21
243.9999999999997726
 31
0.0
  0
ENDBLK
  5
A2
100
AcDbEntity
  8
0
100
AcDbBlockEnd
  0
BLOCK
  5
A3
100
AcDbEntity
  8
0
100
AcDbBlockBegin
  2
KyotoKyomaTatami
 70
0
 10
0.0
 20
0.0
 30
0.0
  3
KyotoKyomaTatami
  1

  0
LINE
  5
A4
100
AcDbEntity
100
AcDbLine
  8
tatami
 62
256
370
-1
  6
ByLayer
 10
0.0
 20
0.0
 30
0.0
 11
0.0
 21
95.5
 31
0.0
  0
LINE
  5
A5
100
AcDbEntity
100
AcDbLine
  8
tatami
 62
256
370
-1
  6
ByLayer
 10
191.0
 20
0.0
 30
0.0
 11
191.0
 21
95.5
 31
0.0
  0
LINE
  5
A6
100
AcDbEntity
100
AcDbLine
  8
tatami
 62
256
370
-1
  6
ByLayer
 10
0.0
 20
95.5
 30
0.0
 11
191.0
 21
95.5
 31
0.0
  0
LINE
  5
A7
100
AcDbEntity
100
AcDbLine
  8
tatami
 62
256
370
-1
  6
ByLayer
 10
0.0
 20
0.0
 30
0.0
 11
191.0
 21
0.0
 31
0.0
  0
LINE
  5
A8
100
AcDbEntity
100
AcDbLine
  8
tatami
 62
256
370
-1
  6
ByLayer
 10
0.0
 20
93.0
 30
0.0
 11
191.0
 21
93.0
 31
0.0
  0
LINE
  5
A9
100
AcDbEntity
100
AcDbLine
  8
tatami
 62
256
370
-1
  6
ByLayer
 10
188.5
 20
0.0
 30
0.0
 11
188.5
 21
95.5
 31
0.0
  0
LINE
  5
AA
100
AcDbEntity
100
AcDbLine
  8
tatami
 62
256
370
-1
  6
ByLayer
 10
2.5
 20
0.0
 30
0.0
 11
2.5
 21
95.5
 31
0.0
  0
LINE
  5
AB
100
AcDbEntity
100
AcDbLine
  8
tatami
 62
256
370
-1
  6
ByLayer
 10
0.0
 20
2.5
 30
0.0
 11
191.0
 21
2.5
 31
0.0
  0
LINE
  5
AC
100
AcDbEntity
100
AcDbLine
  8
tatami
 62
256
370
-1
  6
ByLayer
 10
95.5
 20
0.0
 30
0.0
 11
95.5
 21
2.5
 31
0.0
  0
LINE
  5
AD
100
AcDbEntity
100
AcDbLine
  8
tatami
 62
256
370
-1
  6
ByLayer
 10
95.5
 20
93.0
 30
0.0
 11
95.5
 21
95.5
 31
0.0
  0
ENDBLK
  5
AE
100
AcDbEntity
  8
0
100
AcDbBlockEnd
  0
BLOCK
  5
AF
100
AcDbEntity
  8
0
100
AcDbBlockBegin
  2
KyotoKyomaTatamiHalf
 70
0
 10
0.0
 20
0.0
 30
0.0
  3
KyotoKyomaTatamiHalf
  1

  0
LINE
  5
B0
100
AcDbEntity
100
AcDbLine
  8
tatami
 62
256
370
-1
  6
ByLayer
 10
0.0
 20
95.5
 30
0.0
 11
95.5
 21
95.5
 31
0.0
  0
LINE
  5
B1
100
AcDbEntity
100
AcDbLine
  8
tatami
 62
256
370
-1
  6
ByLayer
 10
0.0
 20
0.0
 30
0.0
 11
95.5
 21
0.0
 31
0.0
  0
LINE
  5
B2
100
AcDbEntity
100
AcDbLine
  8
tatami
 62
256
370
-1
  6
ByLayer
 10
0.0
 20
0.0
 30
0.0
 11
0.0
 21
95.5
 31
0.0
  0
LINE
  5
B3
100
AcDbEntity
100
AcDbLine
  8
tatami
 62
256
370
-1
  6
ByLayer
 10
95.5
 20
0.0
 30
0.0
 11
95.5
 21
95.5
 31
0.0
  0
LINE
  5
B4
100
AcDbEntity
100
AcDbLine
  8
tatami
 62
256
370
-1
  6
ByLayer
 10
2.5
 20
0.0
 30
0.0
 11
2.5
 21
95.5
 31
0.0
  0
LINE
  5
B5
100
AcDbEntity
100
AcDbLine
  8
tatami
 62
256
370
-1
  6
ByLayer
 10
0.0
 20
93.0
 30
0.0
 11
95.5
 21
93.0
 31
0.0
  0
LINE
  5
B6
100
AcDbEntity
100
AcDbLine
  8
tatami
 62
256
370
-1
  6
ByLayer
 10
93.0
 20
0.0
 30
0.0
 11
93.0
 21
95.5
 31
0.0
  0
LINE
  5
B7
100
AcDbEntity
100
AcDbLine
  8
tatami
 62
256
370
-1
  6
ByLayer
 10
0.0
 20
2.5
 30
0.0
 11
95.5
 21
2.5
 31
0.0
  0
ENDBLK
  5
B8
100
AcDbEntity
  8
0
100
AcDbBlockEnd
  0
BLOCK
  5
B9
100
AcDbEntity
  8
0
100
AcDbBlockBegin
  2
refridge50_60
 70
0
 10
0.0
 20
0.0
 30
0.0
  3
refridge50_60
  1

  0
LINE
  5
BA
100
AcDbEntity
100
AcDbLine
  8
fixtures
 62
256
370
-1
  6
ByLayer
 10
0.0
 20
0.0
 30
0.0
 11
0.0
 21
55.0
 31
0.0
  0
LINE
  5
BB
100
AcDbEntity
100
AcDbLine
  8
fixtures
 62
256
370
-1
  6
ByLayer
 10
60.0
 20
0.0
 30
0.0
 11
60.0
 21
55.0
 31
0.0
  0
LINE
  5
BC
100
AcDbEntity
100
AcDbLine
  8
fixtures
 62
256
370
-1
  6
ByLayer
 10
0.0
 20
50.0
 30
0.0
 11
60.0
 21
50.0
 31
0.0
  0
LINE
  5
BD
100
AcDbEntity
100
AcDbLine
  8
fixtures
 62
256
370
-1
  6
ByLayer
 10
0.0
 20
0.0
 30
0.0
 11
60.0
 21
0.0
 31
0.0
  0
ARC
  5
BE
100
AcDbEntity
  8
fixtures
 62
256
370
-1
  6
ByLayer
100
AcDbCircle
 10
29.9999999999998863
 20
-68.969221137215186
 30
0.0
 40
127.5475118901492664
100
AcDbArc
 50
76.3962062313950128
 51
103.6037937686048878
  0
LINE
  5
BF
100
AcDbEntity
100
AcDbLine
  8
fixtures
 62
256
370
-1
  6
ByLayer
 10
0.0
 20
51.0
 30
0.0
 11
60.0
 21
51.0
 31
0.0
  0
MTEXT
  5
C0
100
AcDbEntity
100
AcDbMText
  8
fixtures
 62
256
370
-1
  6
ByLayer
 10
2.4027917902074023
 20
26.6901409431941374
 30
0.0
 40
20.0
 41
100.0
 71
4
 72
2
  1
Refr
  7
iso
 50
0.0
 73
1
 44
1.0
  0
ENDBLK
  5
C1
100
AcDbEntity
  8
0
100
AcDbBlockEnd
  0
BLOCK
  5
C2
100
AcDbEntity
  8
0
100
AcDbBlockBegin
  2
washer_hor
 70
0
 10
0.0
 20
0.0
 30
0.0
  3
washer_hor
  1

  0
LINE
  5
C3
100
AcDbEntity
100
AcDbLine
  8
fixtures
 62
256
370
-1
  6
ByLayer
 10
52.0
 20
0.0
 30
0.0
 11
52.0
 21
55.0
 31
0.0
  0
LINE
  5
C4
100
AcDbEntity
100
AcDbLine
  8
fixtures
 62
256
370
-1
  6
ByLayer
 10
0.0
 20
0.0
 30
0.0
 11
0.0
 21
55.0
 31
0.0
  0
LINE
  5
C5
100
AcDbEntity
100
AcDbLine
  8
fixtures
 62
256
370
-1
  6
ByLayer
 10
0.0
 20
55.0
 30
0.0
 11
52.0
 21
55.0
 31
0.0
  0
LINE
  5
C6
100
AcDbEntity
100
AcDbLine
  8
fixtures
 62
256
370
-1
  6
ByLayer
 10
0.0
 20
0.0
 30
0.0
 11
52.0
 21
0.0
 31
0.0
  0
CIRCLE
  5
C7
100
AcDbEntity
100
AcDbCircle
  8
fixtures
 62
256
370
-1
  6
ByLayer
 10
26.0
 20
27.5
 30
0.0
 40
19.0247494489576567
  0
LINE
  5
C8
100
AcDbEntity
100
AcDbLine
  8
fixtures
 62
256
370
-1
  6
ByLayer
 10
0.0
 20
5.0
 30
0.0
 11
52.0
 21
5.0
 31
0.0
  0
ENDBLK
  5
C9
100
AcDbEntity
  8
0
100
AcDbBlockEnd
  0
BLOCK
  5
CA
100
AcDbEntity
  8
0
100
AcDbBlockBegin
  2
switch-hor
 70
0
 10
0.0
 20
0.0
 30
0.0
  3
switch-hor
  1

  0
MTEXT
  5
CB
100
AcDbEntity
100
AcDbMText
  8
eletrical
 62
256
370
-1
  6
ByLayer
 10
-4.1474881859601034
 20
12.4289303324727598
 30
0.0
 40
15.0
 41
100.0
 71
4
 72
2
  1
S
  7
iso
 50
0.0
 73
1
 44
1.0
  0
LINE
  5
CC
100
AcDbEntity
100
AcDbLine
  8
eletrical
 62
256
370
-1
  6
ByLayer
 10
0.0
 20
0.0
 30
0.0
 11
0.0
 21
24.709756538595343
 31
0.0
  0
ENDBLK
  5
CD
100
AcDbEntity
  8
0
100
AcDbBlockEnd
  0
ENDSEC
  0
SECTION
  2
ENTITIES
  0
LINE
  5
CE
100
AcDbEntity
100
AcDbLine
  8
deck
 62
256
370
-1
  6
ByLayer
 10
2902.0720006827486941
 20
-210.1490923077745947
 30
0.0
 11
4391.0720006827486941
 21
-210.1490923077745947
 31
0.0
  0
LINE
  5
CF
100
AcDbEntity
100
AcDbLine
  8
0
 62
256
370
-1
  6
ByLayer
 10
3037.0720006827482393
 20
-34.2525353728141226
 30
0.0
 11
3037.0720006827486941
 21
-210.1490923077745947
 31
0.0
  0
LINE
  5
D0
100
AcDbEntity
100
AcDbLine
  8
0
 62
256
370
-1
  6
ByLayer
 10
4256.0720006827486941
 20
-210.1490923077745947
 30
0.0
 11
4256.0720006827486941
 21
-34.2525353728141226
 31
0.0
  0
LINE
  5
D1
100
AcDbEntity
100
AcDbLine
  8
0
 62
256
370
-1
  6
DASHEDX2
 10
4256.0720006827486941
 20
28.8509076922252916
 30
0.0
 11
3037.0720006827482393
 21
28.8509076922254053
 31
0.0
  0
LINE
  5
D2
100
AcDbEntity
100
AcDbLine
  8
0
 62
256
370
-1
  6
DASHEDX2
 10
3037.0720006827486941
 20
-230.1490923077745947
 30
0.0
 11
4256.0720006827486941
 21
-230.1490923077745947
 31
0.0
  0
LINE
  5
D3
100
AcDbEntity
100
AcDbLine
  8
0
 62
256
370
-1
  6
DASHEDX2
 10
3037.0720006827482393
 20
28.8509076922254053
 30
0.0
 11
3037.0720006827482393
 21
-34.2525353728141226
 31
0.0
  0
LINE
  5
D4
100
AcDbEntity
100
AcDbLine
  8
0
 62
256
370
-1
  6
DASHEDX2
 10
4256.0720006827486941
 20
-34.2525353728141226
 30
0.0
 11
4256.0720006827486941
 21
28.8509076922252916
 31
0.0
  0
LINE
  5
D5
100
AcDbEntity
100
AcDbLine
  8
0
 62
256
370
-1
  6
DASHEDX2
 10
3037.0720006827486941
 20
-210.1490923077745947
 30
0.0
 11
3037.0720006827486941
 21
-230.1490923077745947
 31
0.0
  0
LINE
  5
D6
100
AcDbEntity
100
AcDbLine
  8
0
 62
256
370
-1
  6
DASHEDX2
 10
4256.0720006827486941
 20
-230.1490923077745947
 30
0.0
 11
4256.0720006827486941
 21
-210.1490923077745947
 31
0.0
  0
LINE
  5
D7
100
AcDbEntity
100
AcDbLine
  8
deck
 62
256
370
-1
  6
ByLayer
 10
2902.0720006827486941
 20
-230.1490923077745947
 30
0.0
 11
4391.0720006827486941
 21
-230.1490923077745947
 31
0.0
  0
LWPOLYLINE
  5
D8
  8
deck
 62
256
370
-1
  6
ByLayer
100
AcDbEntity
100
AcDbPolyline
 90
511
 70
0
 10
2818.604946567917068
 20
-297.9052385661733524
 10
2822.6557577407656936
 20
-297.9052385661733524
 10
2824.6811633271900064
 20
-297.9052385661733524
 10
2826.7065689136143192
 20
-297.9052385661733524
 10
2828.731974500038632
 20
-297.9052385661733524
 10
2830.7573800864629447
 20
-297.9052385661733524
 10
2834.8081912593120251
 20
-297.9052385661733524
 10
2836.8335968457367926
 20
-297.9052385661733524
 10
2838.8590024321611054
 20
-297.9052385661733524
 10
2840.8844080185854182
 20
-297.9052385661733524
 10
2842.909813605009731
 20
-297.9052385661733524
 10
2844.9352191914340438
 20
-297.9052385661733524
 10
2846.9606247778583565
 20
-297.9052385661733524
 10
2848.9860303642826693
 20
-297.9052385661733524
 10
2851.0114359507074369
 20
-297.9052385661733524
 10
2853.0368415371317496
 20
-297.9052385661733524
 10
2855.0622471235565172
 20
-297.9052385661733524
 10
2857.08765270998083
 20
-297.9052385661733524
 10
2859.1130582964051428
 20
-297.9052385661733524
 10
2863.1638694692537683
 20
-297.9052385661733524
 10
2867.2146806421023939
 20
-297.9052385661733524
 10
2871.2654918149514742
 20
-297.9052385661733524
 10
2873.290897401375787
 20
-297.9052385661733524
 10
2877.3417085742248673
 20
-297.9052385661733524
 10
2881.3925197470734929
 20
-297.9052385661733524
 10
2885.4433309199221185
 20
-297.9052385661733524
 10
2889.4941420927711988
 20
-297.9052385661733524
 10
2891.5195476791955116
 20
-297.9052385661733524
 10
2895.5703588520445919
 20
-297.9052385661733524
 10
2899.6211700248932175
 20
-297.9052385661733524
 10
2901.6465756113175303
 20
-293.8544273933244995
 10
2905.6973867841661558
 20
-293.8544273933244995
 10
2907.7227923705909234
 20
-293.8544273933244995
 10
2911.7736035434400037
 20
-293.8544273933244995
 10
2915.8244147162886293
 20
-293.8544273933244995
 10
2917.8498203027129421
 20
-293.8544273933244995
 10
2923.9260370619858804
 20
-293.8544273933244995
 10
2925.951442648410648
 20
-293.8544273933244995
 10
2927.9768482348349607
 20
-293.8544273933244995
 10
2930.0022538212597283
 20
-291.8290218068999593
 10
2932.0276594076840411
 20
-291.8290218068999593
 10
2934.0530649941083539
 20
-291.8290218068999593
 10
2936.0784705805326666
 20
-291.8290218068999593
 10
2940.1292817533812922
 20
-291.8290218068999593
 10
2942.154687339805605
 20
-291.8290218068999593
 10
2946.2054985126546853
 20
-291.8290218068999593
 10
2950.2563096855037656
 20
-291.8290218068999593
 10
2954.3071208583523912
 20
-289.8036162204756465
 10
2958.3579320312010168
 20
-289.8036162204756465
 10
2962.4087432040496424
 20
-289.8036162204756465
 10
2966.4595543768987227
 20
-289.8036162204756465
 10
2970.510365549747803
 20
-289.8036162204756465
 10
2976.5865823090207414
 20
-287.7782106340513337
 10
2978.6119878954450542
 20
-287.7782106340513337
 10
2980.637393481869367
 20
-287.7782106340513337
 10
2982.6627990682941345
 20
-287.7782106340513337
 10
2984.6882046547184473
 20
-287.7782106340513337
 10
2986.7136102411432148
 20
-287.7782106340513337
 10
2988.7390158275675276
 20
-287.7782106340513337
 10
2990.7644214139918404
 20
-287.7782106340513337
 10
2992.7898270004161532
 20
-287.7782106340513337
 10
2994.815232586840466
 20
-287.7782106340513337
 10
2996.8406381732647787
 20
-287.7782106340513337
 10
2998.8660437596890915
 20
-287.7782106340513337
 10
3002.9168549325381719
 20
-287.7782106340513337
 10
3004.9422605189624846
 20
-287.7782106340513337
 10
3006.9676661053872522
 20
-287.7782106340513337
 10
3011.0184772782358777
 20
-287.7782106340513337
 10
3015.0692884510845033
 20
-287.7782106340513337
 10
3017.0946940375088161
 20
-287.7782106340513337
 10
3019.1200996239331289
 20
-287.7782106340513337
 10
3021.1455052103578964
 20
-287.7782106340513337
 10
3023.1709107967822092
 20
-287.7782106340513337
 10
3025.1963163832069768
 20
-287.7782106340513337
 10
3027.2217219696312895
 20
-287.7782106340513337
 10
3029.2471275560556023
 20
-287.7782106340513337
 10
3031.2725331424799151
 20
-287.7782106340513337
 10
3035.3233443153285407
 20
-287.7782106340513337
 10
3037.3487499017528535
 20
-287.7782106340513337
 10
3041.3995610746019338
 20
-287.7782106340513337
 10
3047.4757778338753269
 20
-291.8290218068999593
 10
3051.5265890067239525
 20
-291.8290218068999593
 10
3057.6028057659973456
 20
-291.8290218068999593
 10
3063.6790225252707387
 20
-291.8290218068999593
 10
3067.7298336981193643
 20
-293.8544273933244995
 10
3071.7806448709679898
 20
-293.8544273933244995
 10
3077.856861630241383
 20
-293.8544273933244995
 10
3079.8822672166656957
 20
-295.8798329797488122
 10
3081.9076728030904633
 20
-295.8798329797488122
 10
3085.9584839759390889
 20
-295.8798329797488122
 10
3087.9838895623634016
 20
-297.9052385661733524
 10
3090.0092951487877144
 20
-297.9052385661733524
 10
3092.0347007352120272
 20
-297.9052385661733524
 10
3094.06010632163634
 20
-299.9306441525976652
 10
3096.0855119080611075
 20
-299.9306441525976652
 10
3098.1109174944854203
 20
-301.9560497390222054
 10
3100.1363230809101879
 20
-301.9560497390222054
 10
3104.1871342537588134
 20
-301.9560497390222054
 10
3106.2125398401831262
 20
-301.9560497390222054
 10
3108.237945426607439
 20
-301.9560497390222054
 10
3110.2633510130317518
 20
-301.9560497390222054
 10
3112.2887565994560646
 20
-301.9560497390222054
 10
3114.3141621858808321
 20
-301.9560497390222054
 10
3118.3649733587299124
 20
-303.9814553254465181
 10
3120.3903789451542252
 20
-303.9814553254465181
 10
3122.415784531578538
 20
-303.9814553254465181
 10
3126.4665957044271636
 20
-303.9814553254465181
 10
3128.4920012908514764
 20
-303.9814553254465181
 10
3130.5174068772757892
 20
-303.9814553254465181
 10
3134.5682180501248695
 20
-303.9814553254465181
 10
3136.5936236365491823
 20
-303.9814553254465181
 10
3138.6190292229739498
 20
-306.0068609118708309
 10
3142.6698403958225754
 20
-306.0068609118708309
 10
3144.6952459822468882
 20
-306.0068609118708309
 10
3146.7206515686712009
 20
-306.0068609118708309
 10
3148.7460571550955137
 20
-306.0068609118708309
 10
3150.7714627415198265
 20
-306.0068609118708309
 10
3152.7968683279445941
 20
-306.0068609118708309
 10
3154.8222739143689068
 20
-306.0068609118708309
 10
3160.8984906736423
 20
-306.0068609118708309
 10
3162.9238962600666127
 20
-306.0068609118708309
 10
3166.9747074329152383
 20
-306.0068609118708309
 10
3173.0509241921886314
 20
-306.0068609118708309
 10
3177.1017353650377117
 20
-306.0068609118708309
 10
3179.1271409514620245
 20
-306.0068609118708309
 10
3185.2033577107349629
 20
-306.0068609118708309
 10
3187.2287632971592757
 20
-306.0068609118708309
 10
3193.3049800564331235
 20
-306.0068609118708309
 10
3195.3303856428574363
 20
-306.0068609118708309
 10
3199.3811968157060619
 20
-306.0068609118708309
 10
3205.4574135749790003
 20
-306.0068609118708309
 10
3207.4828191614037678
 20
-306.0068609118708309
 10
3211.5336303342523934
 20
-306.0068609118708309
 10
3213.5590359206771609
 20
-306.0068609118708309
 10
3217.6098470935257865
 20
-306.0068609118708309
 10
3221.6606582663744121
 20
-306.0068609118708309
 10
3223.6860638527987248
 20
-306.0068609118708309
 10
3227.7368750256478052
 20
-301.9560497390222054
 10
3229.7622806120721179
 20
-301.9560497390222054
 10
3233.8130917849211983
 20
-301.9560497390222054
 10
3235.8384973713455111
 20
-301.9560497390222054
 10
3237.8639029577698238
 20
-301.9560497390222054
 10
3241.9147141306184494
 20
-301.9560497390222054
 10
3243.9401197170427622
 20
-301.9560497390222054
 10
3245.9655253034675297
 20
-301.9560497390222054
 10
3247.9909308898918425
 20
-301.9560497390222054
 10
3250.0163364763166101
 20
-301.9560497390222054
 10
3252.0417420627409228
 20
-301.9560497390222054
 10
3254.0671476491652356
 20
-301.9560497390222054
 10
3256.0925532355895484
 20
-301.9560497390222054
 10
3262.1687699948624868
 20
-301.9560497390222054
 10
3264.1941755812872543
 20
-301.9560497390222054
 10
3266.2195811677115671
 20
-301.9560497390222054
 10
3270.2703923405606474
 20
-301.9560497390222054
 10
3274.321203513409273
 20
-301.9560497390222054
 10
3276.3466090998335858
 20
-301.9560497390222054
 10
3280.3974202726822114
 20
-301.9560497390222054
 10
3282.4228258591065241
 20
-301.9560497390222054
 10
3284.4482314455312917
 20
-301.9560497390222054
 10
3286.4736370319556045
 20
-301.9560497390222054
 10
3288.499042618380372
 20
-301.9560497390222054
 10
3290.5244482048046848
 20
-301.9560497390222054
 10
3292.5498537912289976
 20
-301.9560497390222054
 10
3298.6260705505019359
 20
-301.9560497390222054
 10
3302.6768817233510163
 20
-301.9560497390222054
 10
3306.7276928962000966
 20
-301.9560497390222054
 10
3308.7530984826244094
 20
-301.9560497390222054
 10
3312.8039096554730349
 20
-301.9560497390222054
 10
3314.8293152418973477
 20
-301.9560497390222054
 10
3316.8547208283216605
 20
-301.9560497390222054
 10
3320.9055320011707408
 20
-301.9560497390222054
 10
3322.9309375875950536
 20
-301.9560497390222054
 10
3324.9563431740198212
 20
-301.9560497390222054
 10
3329.0071543468684467
 20
-301.9560497390222054
 10
3333.0579655197170723
 20
-301.9560497390222054
 10
3335.0833711061413851
 20
-301.9560497390222054
 10
3337.1087766925656979
 20
-301.9560497390222054
 10
3339.1341822789904654
 20
-301.9560497390222054
 10
3343.184993451839091
 20
-301.9560497390222054
 10
3345.2103990382638585
 20
-301.9560497390222054
 10
3347.2358046246881713
 20
-301.9560497390222054
 10
3351.2866157975367969
 20
-301.9560497390222054
 10
3353.3120213839611097
 20
-301.9560497390222054
 10
3357.3628325568097353
 20
-301.9560497390222054
 10
3359.3882381432345028
 20
-301.9560497390222054
 10
3363.4390493160835831
 20
-301.9560497390222054
 10
3367.4898604889322087
 20
-301.9560497390222054
 10
3369.5152660753565215
 20
-301.9560497390222054
 10
3375.5914828346294598
 20
-301.9560497390222054
 10
3379.6422940074785402
 20
-301.9560497390222054
 10
3383.6931051803276205
 20
-301.9560497390222054
 10
3385.7185107667519333
 20
-301.9560497390222054
 10
3387.743916353176246
 20
-301.9560497390222054
 10
3389.7693219396005588
 20
-301.9560497390222054
 10
3393.8201331124491844
 20
-301.9560497390222054
 10
3395.8455386988739519
 20
-301.9560497390222054
 10
3399.8963498717225775
 20
-301.9560497390222054
 10
3401.9217554581473451
 20
-301.9560497390222054
 10
3405.9725666309959706
 20
-301.9560497390222054
 10
3407.9979722174202834
 20
-301.9560497390222054
 10
3410.0233778038445962
 20
-301.9560497390222054
 10
3412.0487833902693637
 20
-301.9560497390222054
 10
3416.0995945631179893
 20
-301.9560497390222054
 10
3420.1504057359666149
 20
-301.9560497390222054
 10
3422.1758113223913824
 20
-301.9560497390222054
 10
3424.2012169088156952
 20
-301.9560497390222054
 10
3426.226622495240008
 20
-306.0068609118708309
 10
3430.2774336680886336
 20
-306.0068609118708309
 10
3432.3028392545134011
 20
-306.0068609118708309
 10
3434.3282448409377139
 20
-306.0068609118708309
 10
3436.3536504273620267
 20
-306.0068609118708309
 10
3438.3790560137863395
 20
-306.0068609118708309
 10
3440.404461600211107
 20
-306.0068609118708309
 10
3444.4552727730597326
 20
-306.0068609118708309
 10
3446.4806783594840454
 20
-306.0068609118708309
 10
3448.5060839459083581
 20
-306.0068609118708309
 10
3450.5314895323331257
 20
-306.0068609118708309
 10
3452.5568951187574385
 20
-306.0068609118708309
 10
3456.607706291606064
 20
-306.0068609118708309
 10
3458.6331118780303768
 20
-306.0068609118708309
 10
3462.6839230508794572
 20
-306.0068609118708309
 10
3466.7347342237280827
 20
-306.0068609118708309
 10
3468.7601398101528503
 20
-306.0068609118708309
 10
3476.8617621558501014
 20
-308.0322664982953711
 10
3482.9379789151234945
 20
-308.0322664982953711
 10
3486.9887900879721201
 20
-308.0322664982953711
 10
3489.0141956743968876
 20
-308.0322664982953711
 10
3493.0650068472455132
 20
-308.0322664982953711
 10
3495.090412433669826
 20
-308.0322664982953711
 10
3501.1666291929432191
 20
-308.0322664982953711
 10
3503.1920347793675319
 20
-308.0322664982953711
 10
3507.2428459522166122
 20
-308.0322664982953711
 10
3511.2936571250652378
 20
-308.0322664982953711
 10
3513.3190627114895506
 20
-308.0322664982953711
 10
3521.4206850571872565
 20
-310.0576720847196839
 10
3523.4460906436115692
 20
-310.0576720847196839
 10
3527.4969018164606496
 20
-310.0576720847196839
 10
3529.5223074028849624
 20
-310.0576720847196839
 10
3533.5731185757335879
 20
-310.0576720847196839
 10
3539.649335335006981
 20
-310.0576720847196839
 10
3543.7001465078560614
 20
-310.0576720847196839
 10
3547.7509576807046869
 20
-310.0576720847196839
 10
3549.7763632671289997
 20
-310.0576720847196839
 10
3553.82717443997808
 20
-310.0576720847196839
 10
3557.8779856128267056
 20
-310.0576720847196839
 10
3559.9033911992510184
 20
-310.0576720847196839
 10
3563.9542023721000987
 20
-310.0576720847196839
 10
3568.0050135449487243
 20
-310.0576720847196839
 10
3572.0558247177978046
 20
-310.0576720847196839
 10
3580.1574470634950558
 20
-310.0576720847196839
 10
3584.2082582363441361
 20
-310.0576720847196839
 10
3588.2590694091927617
 20
-310.0576720847196839
 10
3592.309880582041842
 20
-310.0576720847196839
 10
3598.3860973413147804
 20
-310.0576720847196839
 10
3602.4369085141638607
 20
-310.0576720847196839
 10
3606.4877196870124862
 20
-310.0576720847196839
 10
3610.5385308598615666
 20
-310.0576720847196839
 10
3614.5893420327101921
 20
-310.0576720847196839
 10
3616.6147476191345049
 20
-310.0576720847196839
 10
3618.6401532055588177
 20
-310.0576720847196839
 10
3622.690964378407898
 20
-310.0576720847196839
 10
3626.7417755512565236
 20
-310.0576720847196839
 10
3628.7671811376812911
 20
-310.0576720847196839
 10
3636.8688034833785423
 20
-310.0576720847196839
 10
3638.8942090698033098
 20
-310.0576720847196839
 10
3640.9196146562276226
 20
-310.0576720847196839
 10
3644.9704258290762482
 20
-310.0576720847196839
 10
3649.0212370019253285
 20
-310.0576720847196839
 10
3653.0720481747739541
 20
-310.0576720847196839
 10
3657.1228593476230344
 20
-310.0576720847196839
 10
3659.1482649340473472
 20
-310.0576720847196839
 10
3663.1990761068959728
 20
-310.0576720847196839
 10
3665.2244816933202856
 20
-310.0576720847196839
 10
3667.2498872797450531
 20
-310.0576720847196839
 10
3671.3006984525936787
 20
-310.0576720847196839
 10
3673.3261040390179915
 20
-310.0576720847196839
 10
3675.351509625442759
 20
-310.0576720847196839
 10
3677.3769152118670718
 20
-310.0576720847196839
 10
3681.4277263847156973
 20
-310.0576720847196839
 10
3683.4531319711400101
 20
-310.0576720847196839
 10
3685.4785375575647777
 20
-310.0576720847196839
 10
3687.5039431439890905
 20
-310.0576720847196839
 10
3691.554754316837716
 20
-310.0576720847196839
 10
3693.5801599032620288
 20
-310.0576720847196839
 10
3699.6563766625354219
 20
-310.0576720847196839
 10
3703.7071878353845023
 20
-310.0576720847196839
 10
3707.7579990082331278
 20
-310.0576720847196839
 10
3709.7834045946574406
 20
-310.0576720847196839
 10
3711.8088101810817534
 20
-310.0576720847196839
 10
3713.8342157675065209
 20
-310.0576720847196839
 10
3715.8596213539308337
 20
-310.0576720847196839
 10
3717.8850269403551465
 20
-310.0576720847196839
 10
3719.9104325267794593
 20
-310.0576720847196839
 10
3721.9358381132037721
 20
-310.0576720847196839
 10
3723.9612436996285396
 20
-310.0576720847196839
 10
3725.9866492860528524
 20
-306.0068609118708309
 10
3728.0120548724771652
 20
-306.0068609118708309
 10
3732.0628660453262455
 20
-306.0068609118708309
 10
3734.0882716317505583
 20
-306.0068609118708309
 10
3736.1136772181748711
 20
-303.9814553254465181
 10
3740.1644883910234967
 20
-303.9814553254465181
 10
3742.1898939774482642
 20
-303.9814553254465181
 10
3746.2407051502968898
 20
-301.9560497390222054
 10
3752.3169219095702829
 20
-301.9560497390222054
 10
3756.3677330824189085
 20
-301.9560497390222054
 10
3762.4439498416923016
 20
-301.9560497390222054
 10
3764.4693554281166143
 20
-301.9560497390222054
 10
3768.5201666009652399
 20
-301.9560497390222054
 10
3772.5709777738143202
 20
-301.9560497390222054
 10
3778.6471945330872586
 20
-301.9560497390222054
 10
3782.6980057059363389
 20
-301.9560497390222054
 10
3786.7488168787849645
 20
-301.9560497390222054
 10
3794.8504392244826704
 20
-301.9560497390222054
 10
3798.9012503973317507
 20
-301.9560497390222054
 10
3802.9520615701803763
 20
-301.9560497390222054
 10
3807.0028727430290019
 20
-301.9560497390222054
 10
3809.0282783294537694
 20
-301.9560497390222054
 10
3817.1299006751514753
 20
-301.9560497390222054
 10
3823.2061174344244137
 20
-301.9560497390222054
 10
3827.256928607273494
 20
-301.9560497390222054
 10
3829.2823341936978068
 20
-301.9560497390222054
 10
3835.3585509529711999
 20
-301.9560497390222054
 10
3839.4093621258198255
 20
-301.9560497390222054
 10
3843.460173298668451
 20
-301.9560497390222054
 10
3845.4855788850932186
 20
-301.9560497390222054
 10
3849.5363900579418441
 20
-301.9560497390222054
 10
3853.5872012307904697
 20
-301.9560497390222054
 10
3855.6126068172152372
 20
-301.9560497390222054
 10
3859.6634179900638628
 20
-301.9560497390222054
 10
3863.7142291629129431
 20
-301.9560497390222054
 10
3865.7396347493372559
 20
-301.9560497390222054
 10
3869.7904459221858815
 20
-301.9560497390222054
 10
3871.8158515086101943
 20
-301.9560497390222054
 10
3875.8666626814592746
 20
-301.9560497390222054
 10
3877.8920682678835874
 20
-301.9560497390222054
 10
3881.942879440732213
 20
-301.9560497390222054
 10
3885.9936906135812933
 20
-301.9560497390222054
 10
3890.0445017864299189
 20
-301.9560497390222054
 10
3892.0699073728546864
 20
-301.9560497390222054
 10
3896.120718545703312
 20
-301.9560497390222054
 10
3900.1715297185519375
 20
-301.9560497390222054
 10
3902.1969353049767051
 20
-306.0068609118708309
 10
3906.2477464778253307
 20
-306.0068609118708309
 10
3910.2985576506739562
 20
-306.0068609118708309
 10
3914.3493688235230366
 20
-308.0322664982953711
 10
3916.3747744099473493
 20
-308.0322664982953711
 10
3918.4001799963716621
 20
-308.0322664982953711
 10
3920.4255855827964297
 20
-308.0322664982953711
 10
3922.4509911692207424
 20
-308.0322664982953711
 10
3926.501802342069368
 20
-308.0322664982953711
 10
3930.5526135149184483
 20
-308.0322664982953711
 10
3936.6288302741913867
 20
-308.0322664982953711
 10
3940.679641447040467
 20
-308.0322664982953711
 10
3944.7304526198890926
 20
-308.0322664982953711
 10
3948.7812637927381729
 20
-310.0576720847196839
 10
3952.8320749655867985
 20
-310.0576720847196839
 10
3956.8828861384354241
 20
-310.0576720847196839
 10
3958.9082917248601916
 20
-310.0576720847196839
 10
3962.9591028977088172
 20
-310.0576720847196839
 10
3967.0099140705578975
 20
-310.0576720847196839
 10
3975.1115364162551487
 20
-310.0576720847196839
 10
3981.1877531755285418
 20
-310.0576720847196839
 10
3983.2131587619528545
 20
-312.083077671144224
 10
3987.2639699348019349
 20
-312.083077671144224
 10
3991.3147811076505604
 20
-312.083077671144224
 10
3995.3655922804996408
 20
-312.083077671144224
 10
3999.4164034533482663
 20
-312.083077671144224
 10
4003.4672146261968919
 20
-312.083077671144224
 10
4005.4926202126216594
 20
-312.083077671144224
 10
4007.5180257990459722
 20
-312.083077671144224
 10
4011.5688369718945978
 20
-312.083077671144224
 10
4013.5942425583189106
 20
-312.083077671144224
 10
4015.6196481447436781
 20
-312.083077671144224
 10
4017.6450537311679909
 20
-312.083077671144224
 10
4019.6704593175923037
 20
-308.0322664982953711
 10
4021.6958649040166165
 20
-308.0322664982953711
 10
4023.721270490441384
 20
-308.0322664982953711
 10
4025.7466760768656968
 20
-306.0068609118708309
 10
4027.7720816632900096
 20
-306.0068609118708309
 10
4029.7974872497143224
 20
-306.0068609118708309
 10
4033.8482984225634027
 20
-303.9814553254465181
 10
4035.8737040089877155
 20
-303.9814553254465181
 10
4039.9245151818363411
 20
-301.9560497390222054
 10
4041.9499207682606539
 20
-301.9560497390222054
 10
4046.0007319411097342
 20
-299.9306441525976652
 10
4050.0515431139583598
 20
-299.9306441525976652
 10
4052.0769487003831273
 20
-297.9052385661733524
 10
4058.1531654596560657
 20
-297.9052385661733524
 10
4060.1785710460803784
 20
-297.9052385661733524
 10
4064.2293822189294588
 20
-295.8798329797488122
 10
4070.3055989782023971
 20
-295.8798329797488122
 10
4074.3564101510514774
 20
-295.8798329797488122
 10
4080.4326269103248706
 20
-295.8798329797488122
 10
4084.4834380831734961
 20
-295.8798329797488122
 10
4090.5596548424468892
 20
-295.8798329797488122
 10
4096.6358716017202823
 20
-295.8798329797488122
 10
4100.6866827745689079
 20
-295.8798329797488122
 10
4108.7883051202661591
 20
-295.8798329797488122
 10
4114.8645218795390974
 20
-295.8798329797488122
 10
4116.8899274659634102
 20
-295.8798329797488122
 10
4118.9153330523886325
 20
-295.8798329797488122
 10
4120.9407386388129453
 20
-295.8798329797488122
 10
4122.9661442252372581
 20
-295.8798329797488122
 10
4124.9915498116615709
 20
-295.8798329797488122
 10
4129.0423609845111059
 20
-295.8798329797488122
 10
4135.1185777437840443
 20
-295.8798329797488122
 10
4139.1693889166326699
 20
-295.8798329797488122
 10
4143.2202000894812954
 20
-295.8798329797488122
 10
4147.271011262329921
 20
-295.8798329797488122
 10
4151.3218224351785466
 20
-295.8798329797488122
 10
4155.3726336080280817
 20
-295.8798329797488122
 10
4159.4234447808767072
 20
-295.8798329797488122
 10
4165.4996615401505551
 20
-295.8798329797488122
 10
4169.5504727129991807
 20
-295.8798329797488122
 10
4171.5758782994234934
 20
-295.8798329797488122
 10
4175.626689472272119
 20
-295.8798329797488122
 10
4177.6520950586964318
 20
-295.8798329797488122
 10
4181.7029062315450574
 20
-295.8798329797488122
 10
4183.7283118179693702
 20
-295.8798329797488122
 10
4187.7791229908179957
 20
-299.9306441525976652
 10
4189.8045285772423085
 20
-299.9306441525976652
 10
4193.8553397500918436
 20
-299.9306441525976652
 10
4197.9061509229404692
 20
-301.9560497390222054
 10
4201.9569620957890947
 20
-301.9560497390222054
 10
4206.0077732686386298
 20
-303.9814553254465181
 10
4210.0585844414872554
 20
-303.9814553254465181
 10
4214.109395614335881
 20
-303.9814553254465181
 10
4220.1856123736088193
 20
-303.9814553254465181
 10
4226.2618291328817577
 20
-306.0068609118708309
 10
4230.3126403057303833
 20
-306.0068609118708309
 10
4232.3380458921556055
 20
-306.0068609118708309
 10
4236.3888570650042311
 20
-306.0068609118708309
 10
4240.4396682378537662
 20
-308.0322664982953711
 10
4244.4904794107023918
 20
-308.0322664982953711
 10
4248.5412905835510173
 20
-308.0322664982953711
 10
4250.5666961699753301
 20
-308.0322664982953711
 10
4254.6175073428239557
 20
-310.0576720847196839
 10
4256.6429129292482685
 20
-312.083077671144224
 10
4258.6683185156725813
 20
-312.083077671144224
 10
4262.7191296885212068
 20
-312.083077671144224
 10
4266.7699408613698324
 20
-312.083077671144224
 10
4270.8207520342193675
 20
-312.083077671144224
 10
4274.8715632070679931
 20
-312.083077671144224
 10
4278.9223743799175281
 20
-312.083077671144224
 10
4282.9731855527661537
 20
-312.083077671144224
 10
4289.0494023120390921
 20
-312.083077671144224
 10
4291.0748078984634049
 20
-312.083077671144224
 10
4295.1256190713120304
 20
-312.083077671144224
 10
4299.176430244160656
 20
-312.083077671144224
 10
4301.2018358305849688
 20
-312.083077671144224
 10
4303.2272414170092816
 20
-312.083077671144224
 10
4305.2526470034335944
 20
-312.083077671144224
 10
4307.2780525898588166
 20
-312.083077671144224
 10
4309.3034581762831294
 20
-312.083077671144224
 10
4313.354269349131755
 20
-312.083077671144224
 10
4315.3796749355569773
 20
-312.083077671144224
 10
4319.4304861084056029
 20
-312.083077671144224
 10
4323.4812972812542284
 20
-312.083077671144224
 10
4323.4812972812542284
 20
-308.0322664982953711
 10
4325.5067028676785412
 20
-308.0322664982953711
 10
4327.532108454102854
 20
-308.0322664982953711
 10
4329.5575140405271668
 20
-308.0322664982953711
 10
4331.5829196269514796
 20
-306.0068609118708309
 10
4335.6337307998001052
 20
-306.0068609118708309
 10
4337.6591363862244179
 20
-306.0068609118708309
 10
4341.7099475590730435
 20
-303.9814553254465181
 10
4345.7607587319225786
 20
-303.9814553254465181
 10
4347.7861643183468914
 20
-303.9814553254465181
 10
4351.836975491195517
 20
-303.9814553254465181
 10
4355.887786664045052
 20
-303.9814553254465181
 10
4357.9131922504693648
 20
-303.9814553254465181
 10
4359.9385978368936776
 20
-303.9814553254465181
 10
4361.9640034233179904
 20
-303.9814553254465181
 10
4363.9894090097423032
 20
-303.9814553254465181
 10
4366.014814596166616
 20
-303.9814553254465181
 10
4368.0402201825909287
 20
-303.9814553254465181
 10
4370.0656257690152415
 20
-303.9814553254465181
 10
4372.0910313554395543
 20
-303.9814553254465181
 10
4376.1418425282881799
 20
-303.9814553254465181
 10
4380.1926537011368055
 20
-303.9814553254465181
 10
4382.2180592875620277
 20
-303.9814553254465181
 10
4384.2434648739863405
 20
-303.9814553254465181
 10
4386.2688704604106533
 20
-303.9814553254465181
 10
4388.2942760468349661
 20
-303.9814553254465181
 10
4390.3196816332592789
 20
-303.9814553254465181
 10
4394.370492806108814
 20
-303.9814553254465181
 10
4398.4213039789574395
 20
-303.9814553254465181
 10
4408.5483319110790035
 20
-303.9814553254465181
 10
4416.6499542567762546
 20
-303.9814553254465181
 10
4420.7007654296257897
 20
-303.9814553254465181
 10
4424.7515766024744153
 20
-303.9814553254465181
 10
4426.7769821888987281
 20
-303.9814553254465181
 10
4430.8277933617482631
 20
-303.9814553254465181
 10
4432.8531989481725759
 20
-303.9814553254465181
 10
4434.8786045345968887
 20
-303.9814553254465181
 10
4436.9040101210212015
 20
-303.9814553254465181
 10
4440.9548212938698271
 20
-303.9814553254465181
 10
4445.0056324667184526
 20
-303.9814553254465181
 10
4449.0564436395670782
 20
-303.9814553254465181
 10
4451.081849225991391
 20
-303.9814553254465181
 10
4453.1072548124157038
 20
-303.9814553254465181
 10
4457.1580659852652389
 20
-303.9814553254465181
 10
4459.1834715716895516
 20
-303.9814553254465181
 10
4463.2342827445381772
 20
-303.9814553254465181
 10
4465.25968833096249
 20
-303.9814553254465181
 10
4469.3104995038120251
 20
-303.9814553254465181
 10
4471.3359050902363379
 20
-303.9814553254465181
 10
4473.3613106766606506
 20
-303.9814553254465181
 10
4475.3867162630849634
 20
-303.9814553254465181
 10
4477.4121218495092762
 20
-303.9814553254465181
 10
4477.4121218495092762
 20
-301.9560497390222054
  0
LINE
  5
D9
100
AcDbEntity
100
AcDbLine
  8
deck
 62
256
370
-1
  6
ByLayer
 10
2907.0720006827486941
 20
-293.8544273933244995
 30
0.0
 11
2907.0720006827486941
 21
-230.1490923077745947
 31
0.0
  0
LINE
  5
DA
100
AcDbEntity
100
AcDbLine
  8
deck
 62
256
370
-1
  6
ByLayer
 10
2927.0720006827486941
 20
-293.8544273933244995
 30
0.0
 11
2927.0720006827486941
 21
-230.1490923077745947
 31
0.0
  0
LINE
  5
DB
100
AcDbEntity
100
AcDbLine
  8
deck
 62
256
370
-1
  6
ByLayer
 10
3147.0720006827486941
 20
-306.0068609118708309
 30
0.0
 11
3147.0720006827486941
 21
-230.1490923077745947
 31
0.0
  0
LINE
  5
DC
100
AcDbEntity
100
AcDbLine
  8
deck
 62
256
370
-1
  6
ByLayer
 10
3167.0720006827486941
 20
-306.0068609118708309
 30
0.0
 11
3167.0720006827486941
 21
-230.1490923077745947
 31
0.0
  0
LINE
  5
DD
100
AcDbEntity
100
AcDbLine
  8
deck
 62
256
370
-1
  6
ByLayer
 10
3267.0720006827486941
 20
-301.9560497390222054
 30
0.0
 11
3267.0720006827486941
 21
-230.1490923077745947
 31
0.0
  0
LINE
  5
DE
100
AcDbEntity
100
AcDbLine
  8
deck
 62
256
370
-1
  6
ByLayer
 10
3287.0720006827486941
 20
-301.9560497390222054
 30
0.0
 11
3287.0720006827486941
 21
-230.1490923077745947
 31
0.0
  0
LINE
  5
DF
100
AcDbEntity
100
AcDbLine
  8
deck
 62
256
370
-1
  6
ByLayer
 10
3387.0720006827486941
 20
-301.9560497390222054
 30
0.0
 11
3387.0720006827486941
 21
-230.1490923077745947
 31
0.0
  0
LINE
  5
E0
100
AcDbEntity
100
AcDbLine
  8
deck
 62
256
370
-1
  6
ByLayer
 10
3407.0720006827486941
 20
-301.9560497390222054
 30
0.0
 11
3407.0720006827486941
 21
-230.1490923077745947
 31
0.0
  0
LINE
  5
E1
100
AcDbEntity
100
AcDbLine
  8
deck
 62
256
370
-1
  6
ByLayer
 10
3507.0720006827486941
 20
-308.0322664982953711
 30
0.0
 11
3507.0720006827486941
 21
-230.1490923077745947
 31
0.0
  0
LINE
  5
E2
100
AcDbEntity
100
AcDbLine
  8
deck
 62
256
370
-1
  6
ByLayer
 10
3527.0720006827486941
 20
-310.0576720847196839
 30
0.0
 11
3527.0720006827486941
 21
-230.1490923077745947
 31
0.0
  0
LINE
  5
E3
100
AcDbEntity
100
AcDbLine
  8
deck
 62
256
370
-1
  6
ByLayer
 10
3747.0720006827486941
 20
-301.9560497390222054
 30
0.0
 11
3747.0720006827486941
 21
-230.1490923077745947
 31
0.0
  0
LINE
  5
E4
100
AcDbEntity
100
AcDbLine
  8
deck
 62
256
370
-1
  6
ByLayer
 10
3767.0720006827486941
 20
-301.9560497390222054
 30
0.0
 11
3767.0720006827486941
 21
-230.1490923077745947
 31
0.0
  0
LINE
  5
E5
100
AcDbEntity
100
AcDbLine
  8
deck
 62
256
370
-1
  6
ByLayer
 10
3867.0720006827486941
 20
-301.9560497390222054
 30
0.0
 11
3867.0720006827486941
 21
-230.1490923077745947
 31
0.0
  0
LINE
  5
E6
100
AcDbEntity
100
AcDbLine
  8
deck
 62
256
370
-1
  6
ByLayer
 10
3887.0720006827486941
 20
-301.9560497390222054
 30
0.0
 11
3887.0720006827486941
 21
-230.1490923077745947
 31
0.0
  0
LINE
  5
E7
100
AcDbEntity
100
AcDbLine
  8
deck
 62
256
370
-1
  6
ByLayer
 10
3987.0720006827486941
 20
-312.083077671144224
 30
0.0
 11
3987.0720006827486941
 21
-230.1490923077745947
 31
0.0
  0
LINE
  5
E8
100
AcDbEntity
100
AcDbLine
  8
deck
 62
256
370
-1
  6
ByLayer
 10
4007.0720006827486941
 20
-312.083077671144224
 30
0.0
 11
4007.0720006827486941
 21
-230.1490923077745947
 31
0.0
  0
LINE
  5
E9
100
AcDbEntity
100
AcDbLine
  8
deck
 62
256
370
-1
  6
ByLayer
 10
4107.0720006827486941
 20
-295.8798329797488122
 30
0.0
 11
4107.0720006827486941
 21
-230.1490923077745947
 31
0.0
  0
LINE
  5
EA
100
AcDbEntity
100
AcDbLine
  8
deck
 62
256
370
-1
  6
ByLayer
 10
4127.0720006827486941
 20
-295.8798329797488122
 30
0.0
 11
4127.0720006827486941
 21
-230.1490923077745947
 31
0.0
  0
LINE
  5
EB
100
AcDbEntity
100
AcDbLine
  8
deck
 62
256
370
-1
  6
ByLayer
 10
4246.0720006827486941
 20
-308.0322664982953711
 30
0.0
 11
4246.0720006827486941
 21
-230.1490923077745947
 31
0.0
  0
LINE
  5
EC
100
AcDbEntity
100
AcDbLine
  8
deck
 62
256
370
-1
  6
ByLayer
 10
4266.0720006827486941
 20
-312.083077671144224
 30
0.0
 11
4266.0720006827486941
 21
-230.1490923077745947
 31
0.0
  0
LINE
  5
ED
100
AcDbEntity
100
AcDbLine
  8
deck
 62
256
370
-1
  6
ByLayer
 10
4366.0720006827486941
 20
-303.9814553254465181
 30
0.0
 11
4366.0720006827486941
 21
-230.1490923077745947
 31
0.0
  0
LINE
  5
EE
100
AcDbEntity
100
AcDbLine
  8
deck
 62
256
370
-1
  6
ByLayer
 10
4386.0720006827486941
 20
-303.9814553254465181
 30
0.0
 11
4386.0720006827486941
 21
-230.1490923077745947
 31
0.0
  0
LINE
  5
EF
100
AcDbEntity
100
AcDbLine
  8
deck
 62
256
370
-1
  6
DASHED2
 10
2907.0720006827486941
 20
-365.1490923077745947
 30
0.0
 11
2907.0720006827486941
 21
-293.8544273933244995
 31
0.0
  0
LINE
  5
F0
100
AcDbEntity
100
AcDbLine
  8
deck
 62
256
370
-1
  6
DASHED2
 10
2927.0720006827486941
 20
-365.1490923077745947
 30
0.0
 11
2927.0720006827486941
 21
-293.8544273933244995
 31
0.0
  0
LINE
  5
F1
100
AcDbEntity
100
AcDbLine
  8
deck
 62
256
370
-1
  6
DASHED2
 10
3147.0720006827486941
 20
-365.1490923077745947
 30
0.0
 11
3147.0720006827486941
 21
-306.0068609118708309
 31
0.0
  0
LINE
  5
F2
100
AcDbEntity
100
AcDbLine
  8
deck
 62
256
370
-1
  6
DASHED2
 10
3167.0720006827486941
 20
-365.1490923077745947
 30
0.0
 11
3167.0720006827486941
 21
-306.0068609118708309
 31
0.0
  0
LINE
  5
F3
100
AcDbEntity
100
AcDbLine
  8
deck
 62
256
370
-1
  6
DASHED2
 10
3267.0720006827486941
 20
-365.1490923077745947
 30
0.0
 11
3267.0720006827486941
 21
-301.9560497390222054
 31
0.0
  0
LINE
  5
F4
100
AcDbEntity
100
AcDbLine
  8
deck
 62
256
370
-1
  6
DASHED2
 10
3287.0720006827486941
 20
-365.1490923077745947
 30
0.0
 11
3287.0720006827486941
 21
-301.9560497390222054
 31
0.0
  0
LINE
  5
F5
100
AcDbEntity
100
AcDbLine
  8
deck
 62
256
370
-1
  6
DASHED2
 10
3387.0720006827486941
 20
-365.1490923077745947
 30
0.0
 11
3387.0720006827486941
 21
-301.9560497390222054
 31
0.0
  0
LINE
  5
F6
100
AcDbEntity
100
AcDbLine
  8
deck
 62
256
370
-1
  6
DASHED2
 10
3407.0720006827486941
 20
-365.1490923077745947
 30
0.0
 11
3407.0720006827486941
 21
-301.9560497390222054
 31
0.0
  0
LINE
  5
F7
100
AcDbEntity
100
AcDbLine
  8
deck
 62
256
370
-1
  6
DASHED2
 10
3507.0720006827486941
 20
-365.1490923077745947
 30
0.0
 11
3507.0720006827486941
 21
-308.0322664982953711
 31
0.0
  0
LINE
  5
F8
100
AcDbEntity
100
AcDbLine
  8
deck
 62
256
370
-1
  6
DASHED2
 10
3527.0720006827486941
 20
-365.1490923077745947
 30
0.0
 11
3527.0720006827486941
 21
-310.0576720847196839
 31
0.0
  0
LINE
  5
F9
100
AcDbEntity
100
AcDbLine
  8
deck
 62
256
370
-1
  6
DASHED2
 10
3747.0720006827486941
 20
-365.1490923077745947
 30
0.0
 11
3747.0720006827486941
 21
-301.9560497390222054
 31
0.0
  0
LINE
  5
FA
100
AcDbEntity
100
AcDbLine
  8
deck
 62
256
370
-1
  6
DASHED2
 10
3767.0720006827486941
 20
-365.1490923077745947
 30
0.0
 11
3767.0720006827486941
 21
-301.9560497390222054
 31
0.0
  0
LINE
  5
FB
100
AcDbEntity
100
AcDbLine
  8
deck
 62
256
370
-1
  6
DASHED2
 10
3867.0720006827486941
 20
-365.1490923077745947
 30
0.0
 11
3867.0720006827486941
 21
-301.9560497390222054
 31
0.0
  0
LINE
  5
FC
100
AcDbEntity
100
AcDbLine
  8
deck
 62
256
370
-1
  6
DASHED2
 10
3887.0720006827486941
 20
-365.1490923077745947
 30
0.0
 11
3887.0720006827486941
 21
-301.9560497390222054
 31
0.0
  0
LINE
  5
FD
100
AcDbEntity
100
AcDbLine
  8
deck
 62
256
370
-1
  6
DASHED2
 10
3987.0720006827486941
 20
-365.1490923077745947
 30
0.0
 11
3987.0720006827486941
 21
-312.083077671144224
 31
0.0
  0
LINE
  5
FE
100
AcDbEntity
100
AcDbLine
  8
deck
 62
256
370
-1
  6
DASHED2
 10
4007.0720006827486941
 20
-365.1490923077745947
 30
0.0
 11
4007.0720006827486941
 21
-312.083077671144224
 31
0.0
  0
LINE
  5
FF
100
AcDbEntity
100
AcDbLine
  8
deck
 62
256
370
-1
  6
DASHED2
 10
4107.0720006827486941
 20
-365.1490923077745947
 30
0.0
 11
4107.0720006827486941
 21
-295.8798329797488122
 31
0.0
  0
LINE
  5
100
100
AcDbEntity
100
AcDbLine
  8
deck
 62
256
370
-1
  6
DASHED2
 10
4127.0720006827486941
 20
-365.1490923077745947
 30
0.0
 11
4127.0720006827486941
 21
-295.8798329797488122
 31
0.0
  0
LINE
  5
101
100
AcDbEntity
100
AcDbLine
  8
deck
 62
256
370
-1
  6
DASHED2
 10
4246.0720006827486941
 20
-365.1490923077745947
 30
0.0
 11
4246.0720006827486941
 21
-308.0322664982953711
 31
0.0
  0
LINE
  5
102
100
AcDbEntity
100
AcDbLine
  8
deck
 62
256
370
-1
  6
DASHED2
 10
4266.0720006827486941
 20
-365.1490923077745947
 30
0.0
 11
4266.0720006827486941
 21
-312.083077671144224
 31
0.0
  0
LINE
  5
103
100
AcDbEntity
100
AcDbLine
  8
deck
 62
256
370
-1
  6
DASHED2
 10
4366.0720006827486941
 20
-365.1490923077745947
 30
0.0
 11
4366.0720006827486941
 21
-303.9814553254465181
 31
0.0
  0
LINE
  5
104
100
AcDbEntity
100
AcDbLine
  8
deck
 62
256
370
-1
  6
DASHED2
 10
4386.0720006827486941
 20
-365.1490923077745947
 30
0.0
 11
4386.0720006827486941
 21
-303.9814553254465181
 31
0.0
  0
LINE
  5
105
100
AcDbEntity
100
AcDbLine
  8
deck
 62
256
370
-1
  6
ByLayer
 10
3027.0720006827486941
 20
-287.7782106340513337
 30
0.0
 11
3027.0720006827486941
 21
-230.1490923077745947
 31
0.0
  0
LINE
  5
106
100
AcDbEntity
100
AcDbLine
  8
deck
 62
256
370
-1
  6
ByLayer
 10
3047.0720006827486941
 20
-291.5598370394819767
 30
0.0
 11
3047.0720006827486941
 21
-230.1490923077745947
 31
0.0
  0
LINE
  5
107
100
AcDbEntity
100
AcDbLine
  8
deck
 62
256
370
-1
  6
ByLayer
 10
3627.0720006827486941
 20
-310.0576720847196839
 30
0.0
 11
3627.0720006827486941
 21
-230.1490923077745947
 31
0.0
  0
LINE
  5
108
100
AcDbEntity
100
AcDbLine
  8
deck
 62
256
370
-1
  6
ByLayer
 10
3647.0720006827486941
 20
-310.0576720847196839
 30
0.0
 11
3647.0720006827486941
 21
-230.1490923077745947
 31
0.0
  0
LINE
  5
109
100
AcDbEntity
100
AcDbLine
  8
deck
 62
256
370
-1
  6
DASHED2
 10
3027.0720006827486941
 20
-365.1490923077745947
 30
0.0
 11
3027.0720006827486941
 21
-287.7782106340513337
 31
0.0
  0
LINE
  5
10A
100
AcDbEntity
100
AcDbLine
  8
deck
 62
256
370
-1
  6
DASHED2
 10
3047.0720006827486941
 20
-365.1490923077745947
 30
0.0
 11
3047.0720006827486941
 21
-291.5598370394819767
 31
0.0
  0
LINE
  5
10B
100
AcDbEntity
100
AcDbLine
  8
deck
 62
256
370
-1
  6
DASHED2
 10
3627.0720006827486941
 20
-365.1490923077745947
 30
0.0
 11
3627.0720006827486941
 21
-310.0576720847196839
 31
0.0
  0
LINE
  5
10C
100
AcDbEntity
100
AcDbLine
  8
deck
 62
256
370
-1
  6
DASHED2
 10
3647.0720006827486941
 20
-365.1490923077745947
 30
0.0
 11
3647.0720006827486941
 21
-310.0576720847196839
 31
0.0
  0
LINE
  5
10D
100
AcDbEntity
100
AcDbLine
  8
deck
 62
256
370
-1
  6
ByLayer
 10
4391.0720006827486941
 20
-230.1490923077745947
 30
0.0
 11
4391.0720006827486941
 21
-210.1490923077745947
 31
0.0
  0
LINE
  5
10E
100
AcDbEntity
100
AcDbLine
  8
deck
 62
256
370
-1
  6
ByLayer
 10
2902.0720006827486941
 20
-230.1490923077745947
 30
0.0
 11
2902.0720006827486941
 21
-210.1490923077745947
 31
0.0
  0
MTEXT
  5
10F
100
AcDbEntity
100
AcDbMText
  8
text
 62
256
370
-1
  6
ByLayer
 10
3526.4351034440619514
 20
-427.9366142900281602
 30
0.0
 40
20.0
 41
100.0
 71
4
 72
2
  1
back side elevation
  7
iso
 50
0.0
 73
1
 44
1.0
  0
LINE
  5
110
100
AcDbEntity
100
AcDbLine
  8
0
 62
256
370
-1
  6
ByLayer
 10
4147.0720006827486941
 20
-210.1490923077745947
 30
0.0
 11
4147.0720006827486941
 21
-34.2525353728141226
 31
0.0
  0
LINE
  5
111
100
AcDbEntity
100
AcDbLine
  8
0
 62
256
370
-1
  6
ByLayer
 10
4062.0720006827482393
 20
-210.1490923077745947
 30
0.0
 11
4062.0720006827482393
 21
-34.2525353728141226
 31
0.0
  0
LINE
  5
112
100
AcDbEntity
100
AcDbLine
  8
0
 62
256
370
-1
  6
ByLayer
 10
3977.0720006827477846
 20
-34.2525353728141226
 30
0.0
 11
3977.0720006827477846
 21
-210.1490923077745947
 31
0.0
  0
LINE
  5
113
100
AcDbEntity
100
AcDbLine
  8
0
 62
256
370
-1
  6
ByLayer
 10
3798.0720006827486941
 20
-210.1490923077745947
 30
0.0
 11
3798.0720006827486941
 21
-34.2525353728141226
 31
0.0
  0
LINE
  5
114
100
AcDbEntity
100
AcDbLine
  8
0
 62
256
370
-1
  6
ByLayer
 10
3713.0720006827486941
 20
-210.1490923077745947
 30
0.0
 11
3713.0720006827486941
 21
-34.2525353728141226
 31
0.0
  0
LINE
  5
115
100
AcDbEntity
100
AcDbLine
  8
0
 62
256
370
-1
  6
ByLayer
 10
3628.0720006827482393
 20
-34.2525353728141226
 30
0.0
 11
3628.0720006827482393
 21
-210.1490923077745947
 31
0.0
  0
LINE
  5
116
100
AcDbEntity
100
AcDbLine
  8
0
 62
256
370
-1
  6
ByLayer
 10
3344.0720006827477846
 20
-210.1490923077745947
 30
0.0
 11
3344.0720006827477846
 21
-34.2525353728141226
 31
0.0
  0
LINE
  5
117
100
AcDbEntity
100
AcDbLine
  8
0
 62
256
370
-1
  6
ByLayer
 10
3259.0720006827482393
 20
-210.1490923077745947
 30
0.0
 11
3259.0720006827482393
 21
-34.2525353728140942
 31
0.0
  0
LINE
  5
118
100
AcDbEntity
100
AcDbLine
  8
0
 62
256
370
-1
  6
ByLayer
 10
3174.0720006827486941
 20
-34.2525353728141226
 30
0.0
 11
3174.0720006827486941
 21
-210.1490923077745947
 31
0.0
  0
LINE
  5
119
100
AcDbEntity
100
AcDbLine
  8
0
 62
256
370
-1
  6
DASHEDX2
 10
4147.0720006827486941
 20
-7.1490923077745947
 30
0.0
 11
3977.0720006827477846
 21
-7.1490923077745947
 31
0.0
  0
LINE
  5
11A
100
AcDbEntity
100
AcDbLine
  8
0
 62
256
370
-1
  6
DASHEDX2
 10
3798.0720006827486941
 20
-7.1490923077745947
 30
0.0
 11
3628.0720006827482393
 21
-7.1490923077745663
 31
0.0
  0
LINE
  5
11B
100
AcDbEntity
100
AcDbLine
  8
0
 62
256
370
-1
  6
DASHEDX2
 10
3344.0720006827477846
 20
-7.1490923077745947
 30
0.0
 11
3174.0720006827486941
 21
-7.1490923077745947
 31
0.0
  0
LINE
  5
11C
100
AcDbEntity
100
AcDbLine
  8
0
 62
256
370
-1
  6
DASHEDX2
 10
4147.0720006827486941
 20
-34.2525353728141226
 30
0.0
 11
4147.0720006827486941
 21
-7.1490923077745947
 31
0.0
  0
LINE
  5
11D
100
AcDbEntity
100
AcDbLine
  8
0
 62
256
370
-1
  6
DASHEDX2
 10
4062.0720006827482393
 20
-34.2525353728141226
 30
0.0
 11
4062.0720006827482393
 21
-7.1490923077746231
 31
0.0
  0
LINE
  5
11E
100
AcDbEntity
100
AcDbLine
  8
0
 62
256
370
-1
  6
DASHEDX2
 10
3977.0720006827477846
 20
-7.1490923077745947
 30
0.0
 11
3977.0720006827477846
 21
-34.2525353728141226
 31
0.0
  0
LINE
  5
11F
100
AcDbEntity
100
AcDbLine
  8
0
 62
256
370
-1
  6
DASHEDX2
 10
3798.0720006827486941
 20
-34.2525353728141226
 30
0.0
 11
3798.0720006827486941
 21
-7.1490923077745947
 31
0.0
  0
LINE
  5
120
100
AcDbEntity
100
AcDbLine
  8
0
 62
256
370
-1
  6
DASHEDX2
 10
3713.0720006827486941
 20
-34.2525353728141226
 30
0.0
 11
3713.0720006827486941
 21
-7.1490923077745947
 31
0.0
  0
LINE
  5
121
100
AcDbEntity
100
AcDbLine
  8
0
 62
256
370
-1
  6
DASHEDX2
 10
3628.0720006827482393
 20
-7.1490923077745663
 30
0.0
 11
3628.0720006827482393
 21
-34.2525353728141226
 31
0.0
  0
LINE
  5
122
100
AcDbEntity
100
AcDbLine
  8
0
 62
256
370
-1
  6
DASHEDX2
 10
3344.0720006827477846
 20
-34.2525353728141226
 30
0.0
 11
3344.0720006827477846
 21
-7.1490923077745947
 31
0.0
  0
LINE
  5
123
100
AcDbEntity
100
AcDbLine
  8
0
 62
256
370
-1
  6
DASHEDX2
 10
3259.0720006827482393
 20
-34.2525353728140942
 30
0.0
 11
3259.0720006827482393
 21
-7.1490923077746231
 31
0.0
  0
LINE
  5
124
100
AcDbEntity
100
AcDbLine
  8
0
 62
256
370
-1
  6
DASHEDX2
 10
3174.0720006827486941
 20
-7.1490923077745947
 30
0.0
 11
3174.0720006827486941
 21
-34.2525353728141226
 31
0.0
  0
LINE
  5
125
100
AcDbEntity
100
AcDbLine
  8
deck
 62
256
370
-1
  6
ByLayer
 10
3037.0720006827482393
 20
-34.2525353728141155
 30
0.0
 11
3037.0720006827482393
 21
285.519105499449438
 31
0.0
  0
LINE
  5
126
100
AcDbEntity
100
AcDbLine
  8
deck
 62
256
370
-1
  6
ByLayer
 10
3042.0720006827482393
 20
-34.2525353728141155
 30
0.0
 11
3042.0720006827482393
 21
285.519105499449438
 31
0.0
  0
LINE
  5
127
100
AcDbEntity
100
AcDbLine
  8
deck
 62
256
370
-1
  6
ByLayer
 10
3047.0720006827482393
 20
-34.2525353728141155
 30
0.0
 11
3047.0720006827482393
 21
285.519105499449438
 31
0.0
  0
LINE
  5
128
100
AcDbEntity
100
AcDbLine
  8
deck
 62
256
370
-1
  6
ByLayer
 10
4256.0720006827486941
 20
-34.2525353728141297
 30
0.0
 11
4256.0720006827486941
 21
285.519105499449438
 31
0.0
  0
LINE
  5
129
100
AcDbEntity
100
AcDbLine
  8
deck
 62
256
370
-1
  6
ByLayer
 10
4251.0720006827486941
 20
-34.2525353728141297
 30
0.0
 11
4251.0720006827486941
 21
285.519105499449438
 31
0.0
  0
LINE
  5
12A
100
AcDbEntity
100
AcDbLine
  8
deck
 62
256
370
-1
  6
ByLayer
 10
3037.0720006827482393
 20
-34.2525353728141155
 30
0.0
 11
3037.0720006827482393
 21
285.519105499449438
 31
0.0
  0
LINE
  5
12B
100
AcDbEntity
100
AcDbLine
  8
deck
 62
256
370
-1
  6
ByLayer
 10
3102.0720006827482393
 20
-34.2525353728141297
 30
0.0
 11
3102.0720006827482393
 21
285.519105499449438
 31
0.0
  0
LINE
  5
12C
100
AcDbEntity
100
AcDbLine
  8
deck
 62
256
370
-1
  6
ByLayer
 10
3162.0720006827482393
 20
-34.252535372814144
 30
0.0
 11
3162.0720006827482393
 21
285.519105499449438
 31
0.0
  0
LINE
  5
12D
100
AcDbEntity
100
AcDbLine
  8
deck
 62
256
370
-1
  6
ByLayer
 10
3222.0720006827482393
 20
-34.2525353728141582
 30
0.0
 11
3222.0720006827482393
 21
285.519105499449438
 31
0.0
  0
LINE
  5
12E
100
AcDbEntity
100
AcDbLine
  8
deck
 62
256
370
-1
  6
ByLayer
 10
3282.0720006827482393
 20
-34.2525353728141724
 30
0.0
 11
3282.0720006827482393
 21
285.519105499449438
 31
0.0
  0
LINE
  5
12F
100
AcDbEntity
100
AcDbLine
  8
deck
 62
256
370
-1
  6
ByLayer
 10
3342.0720006827482393
 20
-34.2525353728141866
 30
0.0
 11
3342.0720006827482393
 21
285.519105499449438
 31
0.0
  0
LINE
  5
130
100
AcDbEntity
100
AcDbLine
  8
deck
 62
256
370
-1
  6
ByLayer
 10
3402.0720006827482393
 20
-34.2525353728142008
 30
0.0
 11
3402.0720006827482393
 21
285.519105499449438
 31
0.0
  0
LINE
  5
131
100
AcDbEntity
100
AcDbLine
  8
deck
 62
256
370
-1
  6
ByLayer
 10
3462.0720006827482393
 20
-34.252535372814215
 30
0.0
 11
3462.0720006827482393
 21
285.519105499449438
 31
0.0
  0
LINE
  5
132
100
AcDbEntity
100
AcDbLine
  8
deck
 62
256
370
-1
  6
ByLayer
 10
3522.0720006827482393
 20
-34.2525353728142292
 30
0.0
 11
3522.0720006827482393
 21
285.519105499449438
 31
0.0
  0
LINE
  5
133
100
AcDbEntity
100
AcDbLine
  8
deck
 62
256
370
-1
  6
ByLayer
 10
3582.0720006827482393
 20
-34.2525353728142434
 30
0.0
 11
3582.0720006827482393
 21
285.519105499449438
 31
0.0
  0
LINE
  5
134
100
AcDbEntity
100
AcDbLine
  8
deck
 62
256
370
-1
  6
ByLayer
 10
3642.0720006827482393
 20
-34.2525353728142576
 30
0.0
 11
3642.0720006827482393
 21
285.519105499449438
 31
0.0
  0
LINE
  5
135
100
AcDbEntity
100
AcDbLine
  8
deck
 62
256
370
-1
  6
ByLayer
 10
3702.0720006827482393
 20
-34.2525353728142719
 30
0.0
 11
3702.0720006827482393
 21
285.519105499449438
 31
0.0
  0
LINE
  5
136
100
AcDbEntity
100
AcDbLine
  8
deck
 62
256
370
-1
  6
ByLayer
 10
3762.0720006827482393
 20
-34.2525353728142861
 30
0.0
 11
3762.0720006827482393
 21
285.519105499449438
 31
0.0
  0
LINE
  5
137
100
AcDbEntity
100
AcDbLine
  8
deck
 62
256
370
-1
  6
ByLayer
 10
3822.0720006827482393
 20
-34.2525353728143003
 30
0.0
 11
3822.0720006827482393
 21
285.519105499449438
 31
0.0
  0
LINE
  5
138
100
AcDbEntity
100
AcDbLine
  8
deck
 62
256
370
-1
  6
ByLayer
 10
3882.0720006827482393
 20
-34.2525353728143145
 30
0.0
 11
3882.0720006827482393
 21
285.519105499449438
 31
0.0
  0
LINE
  5
139
100
AcDbEntity
100
AcDbLine
  8
deck
 62
256
370
-1
  6
ByLayer
 10
3942.0720006827482393
 20
-34.2525353728143287
 30
0.0
 11
3942.0720006827482393
 21
285.519105499449438
 31
0.0
  0
LINE
  5
13A
100
AcDbEntity
100
AcDbLine
  8
deck
 62
256
370
-1
  6
ByLayer
 10
4002.0720006827482393
 20
-34.2525353728143429
 30
0.0
 11
4002.0720006827482393
 21
285.519105499449438
 31
0.0
  0
LINE
  5
13B
100
AcDbEntity
100
AcDbLine
  8
deck
 62
256
370
-1
  6
ByLayer
 10
4062.0720006827482393
 20
-34.2525353728143571
 30
0.0
 11
4062.0720006827482393
 21
285.519105499449438
 31
0.0
  0
LINE
  5
13C
100
AcDbEntity
100
AcDbLine
  8
deck
 62
256
370
-1
  6
ByLayer
 10
4122.0720006827486941
 20
-34.2525353728143713
 30
0.0
 11
4122.0720006827486941
 21
285.519105499449438
 31
0.0
  0
LINE
  5
13D
100
AcDbEntity
100
AcDbLine
  8
deck
 62
256
370
-1
  6
ByLayer
 10
4182.0720006827486941
 20
-34.2525353728143855
 30
0.0
 11
4182.0720006827486941
 21
285.519105499449438
 31
0.0
  0
LINE
  5
13E
100
AcDbEntity
100
AcDbLine
  8
deck
 62
256
370
-1
  6
ByLayer
 10
4242.0720006827486941
 20
-34.2525353728143998
 30
0.0
 11
4242.0720006827486941
 21
285.519105499449438
 31
0.0
  0
LINE
  5
13F
100
AcDbEntity
100
AcDbLine
  8
deck
 62
256
370
-1
  6
ByLayer
 10
4302.0720006827486941
 20
-34.252535372814414
 30
0.0
 11
4302.0720006827486941
 21
285.519105499449438
 31
0.0
  0
LINE
  5
140
100
AcDbEntity
100
AcDbLine
  8
deck
 62
256
370
-1
  6
ByLayer
 10
4362.0720006827486941
 20
-34.2525353728144282
 30
0.0
 11
4362.0720006827486941
 21
285.519105499449438
 31
0.0
  0
LINE
  5
141
100
AcDbEntity
100
AcDbLine
  8
deck
 62
256
370
-1
  6
ByLayer
 10
2982.0720006827482393
 20
-34.2525353728141084
 30
0.0
 11
2982.0720006827482393
 21
285.519105499449438
 31
0.0
  0
LINE
  5
142
100
AcDbEntity
100
AcDbLine
  8
deck
 62
256
370
-1
  6
ByLayer
 10
2922.0720006827482393
 20
-34.2525353728141013
 30
0.0
 11
2922.0720006827482393
 21
285.519105499449438
 31
0.0
  0
LINE
  5
143
100
AcDbEntity
100
AcDbLine
  8
deck
 62
256
370
-1
  6
ByLayer
 10
2927.0720006827482393
 20
-34.2525353728141013
 30
0.0
 11
2927.0720006827482393
 21
285.519105499449438
 31
0.0
  0
LINE
  5
144
100
AcDbEntity
100
AcDbLine
  8
deck
 62
256
370
-1
  6
ByLayer
 10
2987.0720006827482393
 20
-34.2525353728141084
 30
0.0
 11
2987.0720006827482393
 21
285.519105499449438
 31
0.0
  0
LINE
  5
145
100
AcDbEntity
100
AcDbLine
  8
deck
 62
256
370
-1
  6
ByLayer
 10
3107.0720006827482393
 20
-34.2525353728141297
 30
0.0
 11
3107.0720006827482393
 21
285.519105499449438
 31
0.0
  0
LINE
  5
146
100
AcDbEntity
100
AcDbLine
  8
deck
 62
256
370
-1
  6
ByLayer
 10
3167.0720006827482393
 20
-34.252535372814144
 30
0.0
 11
3167.0720006827482393
 21
285.519105499449438
 31
0.0
  0
LINE
  5
147
100
AcDbEntity
100
AcDbLine
  8
deck
 62
256
370
-1
  6
ByLayer
 10
3227.0720006827482393
 20
-34.2525353728141582
 30
0.0
 11
3227.0720006827482393
 21
285.519105499449438
 31
0.0
  0
LINE
  5
148
100
AcDbEntity
100
AcDbLine
  8
deck
 62
256
370
-1
  6
ByLayer
 10
3287.0720006827482393
 20
-34.2525353728141724
 30
0.0
 11
3287.0720006827482393
 21
285.519105499449438
 31
0.0
  0
LINE
  5
149
100
AcDbEntity
100
AcDbLine
  8
deck
 62
256
370
-1
  6
ByLayer
 10
3347.0720006827482393
 20
-34.2525353728141866
 30
0.0
 11
3347.0720006827482393
 21
285.519105499449438
 31
0.0
  0
LINE
  5
14A
100
AcDbEntity
100
AcDbLine
  8
deck
 62
256
370
-1
  6
ByLayer
 10
3407.0720006827482393
 20
-34.2525353728142008
 30
0.0
 11
3407.0720006827482393
 21
285.519105499449438
 31
0.0
  0
LINE
  5
14B
100
AcDbEntity
100
AcDbLine
  8
deck
 62
256
370
-1
  6
ByLayer
 10
3467.0720006827482393
 20
-34.252535372814215
 30
0.0
 11
3467.0720006827482393
 21
285.519105499449438
 31
0.0
  0
LINE
  5
14C
100
AcDbEntity
100
AcDbLine
  8
deck
 62
256
370
-1
  6
ByLayer
 10
3527.0720006827482393
 20
-34.2525353728142292
 30
0.0
 11
3527.0720006827482393
 21
285.519105499449438
 31
0.0
  0
LINE
  5
14D
100
AcDbEntity
100
AcDbLine
  8
deck
 62
256
370
-1
  6
ByLayer
 10
3587.0720006827482393
 20
-34.2525353728142434
 30
0.0
 11
3587.0720006827482393
 21
285.519105499449438
 31
0.0
  0
LINE
  5
14E
100
AcDbEntity
100
AcDbLine
  8
deck
 62
256
370
-1
  6
ByLayer
 10
3647.0720006827482393
 20
-34.2525353728142576
 30
0.0
 11
3647.0720006827482393
 21
285.519105499449438
 31
0.0
  0
LINE
  5
14F
100
AcDbEntity
100
AcDbLine
  8
deck
 62
256
370
-1
  6
ByLayer
 10
3707.0720006827482393
 20
-34.2525353728142719
 30
0.0
 11
3707.0720006827482393
 21
285.519105499449438
 31
0.0
  0
LINE
  5
150
100
AcDbEntity
100
AcDbLine
  8
deck
 62
256
370
-1
  6
ByLayer
 10
3767.0720006827482393
 20
-34.2525353728142861
 30
0.0
 11
3767.0720006827482393
 21
285.519105499449438
 31
0.0
  0
LINE
  5
151
100
AcDbEntity
100
AcDbLine
  8
deck
 62
256
370
-1
  6
ByLayer
 10
3827.0720006827482393
 20
-34.2525353728143003
 30
0.0
 11
3827.0720006827482393
 21
285.519105499449438
 31
0.0
  0
LINE
  5
152
100
AcDbEntity
100
AcDbLine
  8
deck
 62
256
370
-1
  6
ByLayer
 10
3887.0720006827482393
 20
-34.2525353728143145
 30
0.0
 11
3887.0720006827482393
 21
285.519105499449438
 31
0.0
  0
LINE
  5
153
100
AcDbEntity
100
AcDbLine
  8
deck
 62
256
370
-1
  6
ByLayer
 10
3947.0720006827482393
 20
-34.2525353728143287
 30
0.0
 11
3947.0720006827482393
 21
285.519105499449438
 31
0.0
  0
LINE
  5
154
100
AcDbEntity
100
AcDbLine
  8
deck
 62
256
370
-1
  6
ByLayer
 10
4007.0720006827482393
 20
-34.2525353728143429
 30
0.0
 11
4007.0720006827482393
 21
285.519105499449438
 31
0.0
  0
LINE
  5
155
100
AcDbEntity
100
AcDbLine
  8
deck
 62
256
370
-1
  6
ByLayer
 10
4067.0720006827482393
 20
-34.2525353728143571
 30
0.0
 11
4067.0720006827482393
 21
285.519105499449438
 31
0.0
  0
LINE
  5
156
100
AcDbEntity
100
AcDbLine
  8
deck
 62
256
370
-1
  6
ByLayer
 10
4127.0720006827486941
 20
-34.2525353728143713
 30
0.0
 11
4127.0720006827486941
 21
285.519105499449438
 31
0.0
  0
LINE
  5
157
100
AcDbEntity
100
AcDbLine
  8
deck
 62
256
370
-1
  6
ByLayer
 10
4187.0720006827486941
 20
-34.2525353728143855
 30
0.0
 11
4187.0720006827486941
 21
285.519105499449438
 31
0.0
  0
LINE
  5
158
100
AcDbEntity
100
AcDbLine
  8
deck
 62
256
370
-1
  6
ByLayer
 10
4247.0720006827486941
 20
-34.2525353728143998
 30
0.0
 11
4247.0720006827486941
 21
285.519105499449438
 31
0.0
  0
LINE
  5
159
100
AcDbEntity
100
AcDbLine
  8
deck
 62
256
370
-1
  6
ByLayer
 10
4307.0720006827486941
 20
-34.252535372814414
 30
0.0
 11
4307.0720006827486941
 21
285.519105499449438
 31
0.0
  0
LINE
  5
15A
100
AcDbEntity
100
AcDbLine
  8
deck
 62
256
370
-1
  6
ByLayer
 10
4367.0720006827486941
 20
-34.2525353728144282
 30
0.0
 11
4367.0720006827486941
 21
285.519105499449438
 31
0.0
  0
LINE
  5
15B
100
AcDbEntity
100
AcDbLine
  8
deck
 62
256
370
-1
  6
ByLayer
 10
2922.0720006827482393
 20
285.519105499449438
 30
0.0
 11
4367.0720006827486941
 21
285.519105499449438
 31
0.0
  0
LINE
  5
15C
100
AcDbEntity
100
AcDbLine
  8
deck
 62
256
370
-1
  6
ByLayer
 10
4367.0720006827486941
 20
-34.2525353728141226
 30
0.0
 11
2922.0720006827482393
 21
-34.2525353728141226
 31
0.0
  0
DIMENSION
  5
15D
100
AcDbEntity
  8
dimesions
 62
256
370
-1
  6
ByLayer
100
AcDbDimension
 10
2984.5720006827482393
 20
322.6055239277155806
 30
0.0
 11
2954.5720006827482393
 21
333.3555239277155806
 31
0.0
 70
0
 71
5
 72
0
 41
1.0
 42
0.0
  1

  3
Standard
100
AcDbAlignedDimension
 13
2924.5720006827482393
 23
285.519105499449438
 33
0.0
 14
2984.5720006827482393
 24
285.519105499449438
 34
0.0
 50
0.0
100
AcDbRotatedDimension
  0
DIMENSION
  5
15E
100
AcDbEntity
  8
dimesions
 62
256
370
-1
  6
ByLayer
100
AcDbDimension
 10
3044.5720006827482393
 20
322.6055239277155806
 30
0.0
 11
3014.5720006827482393
 21
333.3555239277155806
 31
0.0
 70
0
 71
5
 72
0
 41
1.0
 42
0.0
  1

  3
Standard
100
AcDbAlignedDimension
 13
2984.5720006827482393
 23
285.519105499449438
 33
0.0
 14
3044.5720006827482393
 24
285.519105499449438
 34
0.0
 50
0.0
100
AcDbRotatedDimension
  0
DIMENSION
  5
15F
100
AcDbEntity
  8
dimesions
 62
256
370
-1
  6
ByLayer
100
AcDbDimension
 10
3104.5720006827482393
 20
322.6055239277155806
 30
0.0
 11
3074.5720006827482393
 21
333.3555239277155806
 31
0.0
 70
0
 71
5
 72
0
 41
1.0
 42
0.0
  1

  3
Standard
100
AcDbAlignedDimension
 13
3044.5720006827482393
 23
285.519105499449438
 33
0.0
 14
3104.5720006827482393
 24
285.519105499449438
 34
0.0
 50
0.0
100
AcDbRotatedDimension
  0
DIMENSION
  5
160
100
AcDbEntity
  8
dimesions
 62
256
370
-1
  6
ByLayer
100
AcDbDimension
 10
3164.5720006827482393
 20
322.6055239277155806
 30
0.0
 11
3134.5720006827482393
 21
333.3555239277155806
 31
0.0
 70
0
 71
5
 72
0
 41
1.0
 42
0.0
  1

  3
Standard
100
AcDbAlignedDimension
 13
3104.5720006827482393
 23
285.519105499449438
 33
0.0
 14
3164.5720006827482393
 24
285.519105499449438
 34
0.0
 50
0.0
100
AcDbRotatedDimension
  0
DIMENSION
  5
161
100
AcDbEntity
  8
dimesions
 62
256
370
-1
  6
ByLayer
100
AcDbDimension
 10
3224.5720006827482393
 20
322.6055239277155806
 30
0.0
 11
3194.5720006827482393
 21
333.3555239277155806
 31
0.0
 70
0
 71
5
 72
0
 41
1.0
 42
0.0
  1

  3
Standard
100
AcDbAlignedDimension
 13
3164.5720006827482393
 23
285.519105499449438
 33
0.0
 14
3224.5720006827482393
 24
285.519105499449438
 34
0.0
 50
0.0
100
AcDbRotatedDimension
  0
DIMENSION
  5
162
100
AcDbEntity
  8
dimesions
 62
256
370
-1
  6
ByLayer
100
AcDbDimension
 10
3284.5720006827482393
 20
322.6055239277155806
 30
0.0
 11
3254.5720006827482393
 21
333.3555239277155806
 31
0.0
 70
0
 71
5
 72
0
 41
1.0
 42
0.0
  1

  3
Standard
100
AcDbAlignedDimension
 13
3224.5720006827482393
 23
285.519105499449438
 33
0.0
 14
3284.5720006827482393
 24
285.519105499449438
 34
0.0
 50
0.0
100
AcDbRotatedDimension
  0
DIMENSION
  5
163
100
AcDbEntity
  8
dimesions
 62
256
370
-1
  6
ByLayer
100
AcDbDimension
 10
3344.5720006827482393
 20
322.6055239277155806
 30
0.0
 11
3314.5720006827482393
 21
333.3555239277155806
 31
0.0
 70
0
 71
5
 72
0
 41
1.0
 42
0.0
  1

  3
Standard
100
AcDbAlignedDimension
 13
3284.5720006827482393
 23
285.519105499449438
 33
0.0
 14
3344.5720006827482393
 24
285.519105499449438
 34
0.0
 50
0.0
100
AcDbRotatedDimension
  0
DIMENSION
  5
164
100
AcDbEntity
  8
dimesions
 62
256
370
-1
  6
ByLayer
100
AcDbDimension
 10
3404.5720006827482393
 20
322.6055239277155806
 30
0.0
 11
3374.5720006827482393
 21
333.3555239277155806
 31
0.0
 70
0
 71
5
 72
0
 41
1.0
 42
0.0
  1

  3
Standard
100
AcDbAlignedDimension
 13
3344.5720006827482393
 23
285.519105499449438
 33
0.0
 14
3404.5720006827482393
 24
285.519105499449438
 34
0.0
 50
0.0
100
AcDbRotatedDimension
  0
DIMENSION
  5
165
100
AcDbEntity
  8
dimesions
 62
256
370
-1
  6
ByLayer
100
AcDbDimension
 10
3464.5720006827482393
 20
322.6055239277155806
 30
0.0
 11
3434.5720006827482393
 21
333.3555239277155806
 31
0.0
 70
0
 71
5
 72
0
 41
1.0
 42
0.0
  1

  3
Standard
100
AcDbAlignedDimension
 13
3404.5720006827482393
 23
285.519105499449438
 33
0.0
 14
3464.5720006827482393
 24
285.519105499449438
 34
0.0
 50
0.0
100
AcDbRotatedDimension
  0
DIMENSION
  5
166
100
AcDbEntity
  8
dimesions
 62
256
370
-1
  6
ByLayer
100
AcDbDimension
 10
3524.5720006827482393
 20
322.6055239277155806
 30
0.0
 11
3494.5720006827482393
 21
333.3555239277155806
 31
0.0
 70
0
 71
5
 72
0
 41
1.0
 42
0.0
  1

  3
Standard
100
AcDbAlignedDimension
 13
3464.5720006827482393
 23
285.519105499449438
 33
0.0
 14
3524.5720006827482393
 24
285.519105499449438
 34
0.0
 50
0.0
100
AcDbRotatedDimension
  0
DIMENSION
  5
167
100
AcDbEntity
  8
dimesions
 62
256
370
-1
  6
ByLayer
100
AcDbDimension
 10
3584.5720006827482393
 20
322.6055239277155806
 30
0.0
 11
3554.5720006827482393
 21
333.3555239277155806
 31
0.0
 70
0
 71
5
 72
0
 41
1.0
 42
0.0
  1

  3
Standard
100
AcDbAlignedDimension
 13
3524.5720006827482393
 23
285.519105499449438
 33
0.0
 14
3584.5720006827482393
 24
285.519105499449438
 34
0.0
 50
0.0
100
AcDbRotatedDimension
  0
DIMENSION
  5
168
100
AcDbEntity
  8
dimesions
 62
256
370
-1
  6
ByLayer
100
AcDbDimension
 10
3644.5720006827482393
 20
322.6055239277155806
 30
0.0
 11
3614.5720006827482393
 21
333.3555239277155806
 31
0.0
 70
0
 71
5
 72
0
 41
1.0
 42
0.0
  1

  3
Standard
100
AcDbAlignedDimension
 13
3584.5720006827482393
 23
285.519105499449438
 33
0.0
 14
3644.5720006827482393
 24
285.519105499449438
 34
0.0
 50
0.0
100
AcDbRotatedDimension
  0
DIMENSION
  5
169
100
AcDbEntity
  8
dimesions
 62
256
370
-1
  6
ByLayer
100
AcDbDimension
 10
3704.5720006827482393
 20
322.6055239277155806
 30
0.0
 11
3674.5720006827482393
 21
333.3555239277155806
 31
0.0
 70
0
 71
5
 72
0
 41
1.0
 42
0.0
  1

  3
Standard
100
AcDbAlignedDimension
 13
3644.5720006827482393
 23
285.519105499449438
 33
0.0
 14
3704.5720006827482393
 24
285.519105499449438
 34
0.0
 50
0.0
100
AcDbRotatedDimension
  0
DIMENSION
  5
16A
100
AcDbEntity
  8
dimesions
 62
256
370
-1
  6
ByLayer
100
AcDbDimension
 10
3764.5720006827482393
 20
322.6055239277155806
 30
0.0
 11
3734.5720006827482393
 21
333.3555239277155806
 31
0.0
 70
0
 71
5
 72
0
 41
1.0
 42
0.0
  1

  3
Standard
100
AcDbAlignedDimension
 13
3704.5720006827482393
 23
285.519105499449438
 33
0.0
 14
3764.5720006827482393
 24
285.519105499449438
 34
0.0
 50
0.0
100
AcDbRotatedDimension
  0
DIMENSION
  5
16B
100
AcDbEntity
  8
dimesions
 62
256
370
-1
  6
ByLayer
100
AcDbDimension
 10
3824.5720006827482393
 20
322.6055239277155806
 30
0.0
 11
3794.5720006827482393
 21
333.3555239277155806
 31
0.0
 70
0
 71
5
 72
0
 41
1.0
 42
0.0
  1

  3
Standard
100
AcDbAlignedDimension
 13
3764.5720006827482393
 23
285.519105499449438
 33
0.0
 14
3824.5720006827482393
 24
285.519105499449438
 34
0.0
 50
0.0
100
AcDbRotatedDimension
  0
DIMENSION
  5
16C
100
AcDbEntity
  8
dimesions
 62
256
370
-1
  6
ByLayer
100
AcDbDimension
 10
3884.5720006827482393
 20
322.6055239277155806
 30
0.0
 11
3854.5720006827482393
 21
333.3555239277155806
 31
0.0
 70
0
 71
5
 72
0
 41
1.0
 42
0.0
  1

  3
Standard
100
AcDbAlignedDimension
 13
3824.5720006827482393
 23
285.519105499449438
 33
0.0
 14
3884.5720006827482393
 24
285.519105499449438
 34
0.0
 50
0.0
100
AcDbRotatedDimension
  0
DIMENSION
  5
16D
100
AcDbEntity
  8
dimesions
 62
256
370
-1
  6
ByLayer
100
AcDbDimension
 10
3944.5720006827482393
 20
322.6055239277155806
 30
0.0
 11
3914.5720006827482393
 21
333.3555239277155806
 31
0.0
 70
0
 71
5
 72
0
 41
1.0
 42
0.0
  1

  3
Standard
100
AcDbAlignedDimension
 13
3884.5720006827482393
 23
285.519105499449438
 33
0.0
 14
3944.5720006827482393
 24
285.519105499449438
 34
0.0
 50
0.0
100
AcDbRotatedDimension
  0
DIMENSION
  5
16E
100
AcDbEntity
  8
dimesions
 62
256
370
-1
  6
ByLayer
100
AcDbDimension
 10
4004.5720006827482393
 20
322.6055239277155806
 30
0.0
 11
3974.5720006827482393
 21
333.3555239277155806
 31
0.0
 70
0
 71
5
 72
0
 41
1.0
 42
0.0
  1

  3
Standard
100
AcDbAlignedDimension
 13
3944.5720006827482393
 23
285.519105499449438
 33
0.0
 14
4004.5720006827482393
 24
285.519105499449438
 34
0.0
 50
0.0
100
AcDbRotatedDimension
  0
DIMENSION
  5
16F
100
AcDbEntity
  8
dimesions
 62
256
370
-1
  6
ByLayer
100
AcDbDimension
 10
4064.5720006827482393
 20
322.6055239277155806
 30
0.0
 11
4034.5720006827482393
 21
333.3555239277155806
 31
0.0
 70
0
 71
5
 72
0
 41
1.0
 42
0.0
  1

  3
Standard
100
AcDbAlignedDimension
 13
4004.5720006827482393
 23
285.519105499449438
 33
0.0
 14
4064.5720006827482393
 24
285.519105499449438
 34
0.0
 50
0.0
100
AcDbRotatedDimension
  0
DIMENSION
  5
170
100
AcDbEntity
  8
dimesions
 62
256
370
-1
  6
ByLayer
100
AcDbDimension
 10
4124.5720006827486941
 20
322.6055239277155806
 30
0.0
 11
4094.5720006827486941
 21
333.3555239277155806
 31
0.0
 70
0
 71
5
 72
0
 41
1.0
 42
0.0
  1

  3
Standard
100
AcDbAlignedDimension
 13
4064.5720006827482393
 23
285.519105499449438
 33
0.0
 14
4124.5720006827486941
 24
285.519105499449438
 34
0.0
 50
0.0
100
AcDbRotatedDimension
  0
DIMENSION
  5
171
100
AcDbEntity
  8
dimesions
 62
256
370
-1
  6
ByLayer
100
AcDbDimension
 10
4184.5720006827486941
 20
322.6055239277155806
 30
0.0
 11
4154.5720006827486941
 21
333.3555239277155806
 31
0.0
 70
0
 71
5
 72
0
 41
1.0
 42
0.0
  1

  3
Standard
100
AcDbAlignedDimension
 13
4124.5720006827486941
 23
285.519105499449438
 33
0.0
 14
4184.5720006827486941
 24
285.519105499449438
 34
0.0
 50
0.0
100
AcDbRotatedDimension
  0
DIMENSION
  5
172
100
AcDbEntity
  8
dimesions
 62
256
370
-1
  6
ByLayer
100
AcDbDimension
 10
4244.5720006827486941
 20
322.6055239277155806
 30
0.0
 11
4214.5720006827486941
 21
333.3555239277155806
 31
0.0
 70
0
 71
5
 72
0
 41
1.0
 42
0.0
  1

  3
Standard
100
AcDbAlignedDimension
 13
4184.5720006827486941
 23
285.519105499449438
 33
0.0
 14
4244.5720006827486941
 24
285.519105499449438
 34
0.0
 50
0.0
100
AcDbRotatedDimension
  0
DIMENSION
  5
173
100
AcDbEntity
  8
dimesions
 62
256
370
-1
  6
ByLayer
100
AcDbDimension
 10
4304.5720006827486941
 20
322.6055239277155806
 30
0.0
 11
4274.5720006827486941
 21
333.3555239277155806
 31
0.0
 70
0
 71
5
 72
0
 41
1.0
 42
0.0
  1

  3
Standard
100
AcDbAlignedDimension
 13
4244.5720006827486941
 23
285.519105499449438
 33
0.0
 14
4304.5720006827486941
 24
285.519105499449438
 34
0.0
 50
0.0
100
AcDbRotatedDimension
  0
DIMENSION
  5
174
100
AcDbEntity
  8
dimesions
 62
256
370
-1
  6
ByLayer
100
AcDbDimension
 10
4364.5720006827486941
 20
322.6055239277155806
 30
0.0
 11
4334.5720006827486941
 21
333.3555239277155806
 31
0.0
 70
0
 71
5
 72
0
 41
1.0
 42
0.0
  1

  3
Standard
100
AcDbAlignedDimension
 13
4304.5720006827486941
 23
285.519105499449438
 33
0.0
 14
4364.5720006827486941
 24
285.519105499449438
 34
0.0
 50
0.0
100
AcDbRotatedDimension
  0
DIMENSION
  5
175
100
AcDbEntity
  8
dimesions
 62
256
370
-1
  6
ByLayer
100
AcDbDimension
 10
2922.0720006827482393
 20
-65.1428823662025422
 30
0.0
 11
2979.5720006827482393
 21
-54.3928823662025422
 31
0.0
 70
0
 71
5
 72
0
 41
1.0
 42
0.0
  1

  3
Standard
100
AcDbAlignedDimension
 13
3037.0720006827482393
 23
-34.2525353728141226
 33
0.0
 14
2922.0720006827482393
 24
-34.2525353728141226
 34
0.0
 50
0.0
100
AcDbRotatedDimension
  0
DIMENSION
  5
176
100
AcDbEntity
  8
dimesions
 62
256
370
-1
  6
ByLayer
100
AcDbDimension
 10
4367.0720006827486941
 20
364.4631953074771218
 30
0.0
 11
3644.5720006827486941
 21
375.2131953074771218
 31
0.0
 70
0
 71
5
 72
0
 41
1.0
 42
0.0
  1

  3
Standard
100
AcDbAlignedDimension
 13
2922.0720006827482393
 23
285.519105499449438
 33
0.0
 14
4367.0720006827486941
 24
285.519105499449438
 34
0.0
 50
0.0
100
AcDbRotatedDimension
  0
ENDSEC
  0
SECTION
  2
OBJECTS
  0
DICTIONARY
  5
C
100
AcDbDictionary
280
0
281
1
  3
ACAD_GROUP
350
D
  3
ACAD_LAYOUT
350
1A
  3
ACAD_MLINESTYLE
350
17
  3
ACAD_PLOTSETTINGS
350
19
  3
ACAD_PLOTSTYLENAME
350
E
  3
AcDbVariableDictionary
350
177
  0
DICTIONARY
  5
D
100
AcDbDictionary
280
0
281
1
  0
ACDBDICTIONARYWDFLT
  5
E
100
AcDbDictionary
281
1
  3
Normal
350
F
100
AcDbDictionaryWithDefault
340
F
  0
ACDBPLACEHOLDER
  5
F
  0
DICTIONARY
  5
17
100
AcDbDictionary
280
0
281
1
  3
Standard
350
18
  0
MLINESTYLE
  5
18
100
AcDbMlineStyle
  2
STANDARD
 70
0
  3

 62
256
 51
90.0
 52
90.0
 71
2
 49
0.5
 62
256
  6
BYLAYER
 49
-0.5
 62
256
  6
BYLAYER
  0
DICTIONARY
  5
19
100
AcDbDictionary
280
0
281
1
  0
DICTIONARY
  5
1A
100
AcDbDictionary
281
1
  3
Layout1
350
1E
  3
Layout2
350
26
  3
Model
350
22
  0
LAYOUT
  5
1E
100
AcDbPlotSettings
  1

  2
C:\Program Files\AutoCAD 2002\plotters\DWF ePlot (optimized for plotting).pc3
  4

  6

 40
0.0
 41
0.0
 42
0.0
 43
0.0
 44
0.0
 45
0.0
 46
0.0
 47
0.0
 48
0.0
 49
0.0
140
0.0
141
0.0
142
1.0
143
1.0
 70
688
 72
0
 73
0
 74
5
  7

 75
16
147
1.0
148
0.0
149
0.0
100
AcDbLayout
  1
Layout1
 70
1
 71
1
 10
0.0
 20
0.0
 11
420.0
 21
297.0
 12
0.0
 22
0.0
 32
0.0
 14
100000000000000000000.0
 24
100000000000000000000.0
 34
100000000000000000000.0
 15
-100000000000000000000.0
 25
-100000000000000000000.0
 35
-100000000000000000000.0
146
0.0
 13
0.0
 23
0.0
 33
0.0
 16
1.0
 26
0.0
 36
0.0
 17
0.0
 27
1.0
 37
0.0
 76
0
330
1B
  0
LAYOUT
  5
22
100
AcDbPlotSettings
  1

  2
C:\Program Files\AutoCAD 2002\plotters\DWF ePlot (optimized for plotting).pc3
  4

  6

 40
0.0
 41
0.0
 42
0.0
 43
0.0
 44
0.0
 45
0.0
 46
0.0
 47
0.0
 48
0.0
 49
0.0
140
0.0
141
0.0
142
1.0
143
1.0
 70
1712
 72
0
 73
0
 74
0
  7

 75
0
147
1.0
148
0.0
149
0.0
100
AcDbLayout
  1
Model
 70
1
 71
0
 10
0.0
 20
0.0
 11
12.0
 21
9.0
 12
0.0
 22
0.0
 32
0.0
 14
0.0
 24
0.0
 34
0.0
 15
0.0
 25
0.0
 35
0.0
146
0.0
 13
0.0
 23
0.0
 33
0.0
 16
1.0
 26
0.0
 36
0.0
 17
0.0
 27
1.0
 37
0.0
 76
0
330
1F
  0
LAYOUT
  5
26
100
AcDbPlotSettings
  1

  2
C:\Program Files\AutoCAD 2002\plotters\DWF ePlot (optimized for plotting).pc3
  4

  6

 40
0.0
 41
0.0
 42
0.0
 43
0.0
 44
0.0
 45
0.0
 46
0.0
 47
0.0
 48
0.0
 49
0.0
140
0.0
141
0.0
142
1.0
143
1.0
 70
688
 72
0
 73
0
 74
5
  7

 75
16
147
1.0
148
0.0
149
0.0
100
AcDbLayout
  1
Layout2
 70
1
 71
2
 10
0.0
 20
0.0
 11
12.0
 21
9.0
 12
0.0
 22
0.0
 32
0.0
 14
0.0
 24
0.0
 34
0.0
 15
0.0
 25
0.0
 35
0.0
146
0.0
 13
0.0
 23
0.0
 33
0.0
 16
1.0
 26
0.0
 36
0.0
 17
0.0
 27
1.0
 37
0.0
 76
0
330
23
  0
DICTIONARY
  5
177
100
AcDbDictionary
281
1
  3
DIMASSOC
350
179
  3
HIDETEXT
350
178
  0
DICTIONARYVAR
  5
178
100
DictionaryVariables
280
0
  1
2
  0
DICTIONARYVAR
  5
179
100
DictionaryVariables
280
0
  1
1
  0
ENDSEC
  0
EOF
