999
dxflib 2.2.0.0
  0
SECTION
  2
HEADER
  9
$ACADVER
  1
AC1015
  9
$HANDSEED
  5
FFFF
  9
$SPLINESEGS
 70
8
  9
$DIMEXE
 40
12.5
  9
$DIMLUNIT
 70
2
  9
$GRIDMODE
 70
0
  9
$INSUNITS
 70
5
  9
$DIMADEC
 70
2
  9
$DIMASZ
 40
5.0
  9
$DIMGAP
 40
6.25
  9
$DIMTXT
 40
9.0
  9
$GRIDUNIT
 10
0.0
 20
0.0
  9
$DIMEXO
 40
12.5
  9
$LUPREC
 70
4
  9
$DIMAUNIT
 70
0
  9
$AUPREC
 70
2
  9
$PLIMMIN
 10
0.0
 20
0.0
  9
$LUNITS
 70
2
  9
$PLIMMAX
 10
21.0
 20
29.6999999999999993
  9
$DIMSTYLE
  2
Standard
  9
$AUNITS
 70
0
  0
ENDSEC
  0
SECTION
  2
TABLES
  0
TABLE
  2
VPORT
  5
8
100
AcDbSymbolTable
 70
1
  0
VPORT
  5
30
100
AcDbSymbolTableRecord
100
AcDbViewportTableRecord
  2
*Active
 70
0
 10
0.0
 20
0.0
 11
1.0
 21
1.0
 12
286.3055555555554861
 22
148.5
 13
0.0
 23
0.0
 14
10.0
 24
10.0
 15
10.0
 25
10.0
 16
0.0
 26
0.0
 36
1.0
 17
0.0
 27
0.0
 37
0.0
 40
297.0
 41
1.92798353909465
 42
50.0
 43
0.0
 44
0.0
 50
0.0
 51
0.0
 71
0
 72
100
 73
1
 74
3
 75
1
 76
1
 77
0
 78
0
281
0
 65
1
110
0.0
120
0.0
130
0.0
111
1.0
121
0.0
131
0.0
112
0.0
122
1.0
132
0.0
 79
0
146
0.0
  0
ENDTAB
  0
TABLE
  2
LTYPE
  5
5
100
AcDbSymbolTable
 70
21
  0
LTYPE
  5
14
100
AcDbSymbolTableRecord
100
AcDbLinetypeTableRecord
  2
ByBlock
 70
0
  3

 72
65
 73
0
 40
0.0
  0
LTYPE
  5
15
100
AcDbSymbolTableRecord
100
AcDbLinetypeTableRecord
  2
ByLayer
 70
0
  3

 72
65
 73
0
 40
0.0
  0
LTYPE
  5
16
100
AcDbSymbolTableRecord
100
AcDbLinetypeTableRecord
  2
CONTINUOUS
 70
0
  3
Solid line
 72
65
 73
0
 40
0.0
  0
LTYPE
  5
31
100
AcDbSymbolTableRecord
100
AcDbLinetypeTableRecord
  2
DOT
 70
0
  3
Dot . . . . . . . . . . . . . . . . . . . . . .
 72
65
 73
2
 40
6.3499999999999996
 49
0.0
 74
0
 49
-6.3499999999999996
 74
0
  0
LTYPE
  5
32
100
AcDbSymbolTableRecord
100
AcDbLinetypeTableRecord
  2
DOT2
 70
0
  3
Dot (.5x) .....................................
 72
65
 73
2
 40
3.1749999999999998
 49
0.0
 74
0
 49
-3.1749999999999998
 74
0
  0
LTYPE
  5
33
100
AcDbSymbolTableRecord
100
AcDbLinetypeTableRecord
  2
DOTX2
 70
0
  3
Dot (2x) .  .  .  .  .  .  .  .  .  .  .  .  .
 72
65
 73
2
 40
12.6999999999999993
 49
0.0
 74
0
 49
-12.6999999999999993
 74
0
  0
LTYPE
  5
34
100
AcDbSymbolTableRecord
100
AcDbLinetypeTableRecord
  2
DASHED
 70
0
  3
Dashed __ __ __ __ __ __ __ __ __ __ __ __ __ _
 72
65
 73
2
 40
19.0500000000000007
 49
12.6999999999999993
 74
0
 49
-6.3499999999999996
 74
0
  0
LTYPE
  5
35
100
AcDbSymbolTableRecord
100
AcDbLinetypeTableRecord
  2
DASHED2
 70
0
  3
Dashed (.5x) _ _ _ _ _ _ _ _ _ _ _ _ _ _ _ _ _
 72
65
 73
2
 40
9.5250000000000004
 49
6.3499999999999996
 74
0
 49
-3.1749999999999998
 74
0
  0
LTYPE
  5
36
100
AcDbSymbolTableRecord
100
AcDbLinetypeTableRecord
  2
DASHEDX2
 70
0
  3
Dashed (2x) ____  ____  ____  ____  ____  ___
 72
65
 73
2
 40
38.1000000000000014
 49
25.3999999999999986
 74
0
 49
-12.6999999999999993
 74
0
  0
LTYPE
  5
37
100
AcDbSymbolTableRecord
100
AcDbLinetypeTableRecord
  2
DASHDOT
 70
0
  3
Dash dot __ . __ . __ . __ . __ . __ . __ . __
 72
65
 73
4
 40
25.3999999999999986
 49
12.6999999999999993
 74
0
 49
-6.3499999999999996
 74
0
 49
0.0
 74
0
 49
-6.3499999999999996
 74
0
  0
LTYPE
  5
38
100
AcDbSymbolTableRecord
100
AcDbLinetypeTableRecord
  2
DASHDOT2
 70
0
  3
Dash dot (.5x) _._._._._._._._._._._._._._._.
 72
65
 73
4
 40
12.6999999999999993
 49
6.3499999999999996
 74
0
 49
-3.1749999999999998
 74
0
 49
0.0
 74
0
 49
-3.1749999999999998
 74
0
  0
LTYPE
  5
39
100
AcDbSymbolTableRecord
100
AcDbLinetypeTableRecord
  2
DASHDOTX2
 70
0
  3
Dash dot (2x) ____  .  ____  .  ____  .  ___
 72
65
 73
4
 40
50.7999999999999972
 49
25.3999999999999986
 74
0
 49
-12.6999999999999993
 74
0
 49
0.0
 74
0
 49
-12.6999999999999993
 74
0
  0
LTYPE
  5
3A
100
AcDbSymbolTableRecord
100
AcDbLinetypeTableRecord
  2
DIVIDE
 70
0
  3
Divide ____ . . ____ . . ____ . . ____ . . ____
 72
65
 73
6
 40
31.75
 49
12.6999999999999993
 74
0
 49
-6.3499999999999996
 74
0
 49
0.0
 74
0
 49
-6.3499999999999996
 74
0
 49
0.0
 74
0
 49
-6.3499999999999996
 74
0
  0
LTYPE
  5
3B
100
AcDbSymbolTableRecord
100
AcDbLinetypeTableRecord
  2
DIVIDE2
 70
0
  3
Divide (.5x) __..__..__..__..__..__..__..__.._
 72
65
 73
6
 40
15.875
 49
6.3499999999999996
 74
0
 49
-3.1749999999999998
 74
0
 49
0.0
 74
0
 49
-3.1749999999999998
 74
0
 49
0.0
 74
0
 49
-3.1749999999999998
 74
0
  0
LTYPE
  5
3C
100
AcDbSymbolTableRecord
100
AcDbLinetypeTableRecord
  2
DIVIDEX2
 70
0
  3
Divide (2x) ________  .  .  ________  .  .  _
 72
65
 73
6
 40
63.5
 49
25.3999999999999986
 74
0
 49
-12.6999999999999993
 74
0
 49
0.0
 74
0
 49
-12.6999999999999993
 74
0
 49
0.0
 74
0
 49
-12.6999999999999993
 74
0
  0
LTYPE
  5
3D
100
AcDbSymbolTableRecord
100
AcDbLinetypeTableRecord
  2
CENTER
 70
0
  3
Center ____ _ ____ _ ____ _ ____ _ ____ _ ____
 72
65
 73
4
 40
50.7999999999999972
 49
31.75
 74
0
 49
-6.3499999999999996
 74
0
 49
6.3499999999999996
 74
0
 49
-6.3499999999999996
 74
0
  0
LTYPE
  5
3E
100
AcDbSymbolTableRecord
100
AcDbLinetypeTableRecord
  2
CENTER2
 70
0
  3
Center (.5x) ___ _ ___ _ ___ _ ___ _ ___ _ ___
 72
65
 73
4
 40
28.5749999999999993
 49
19.0500000000000007
 74
0
 49
-3.1749999999999998
 74
0
 49
3.1749999999999998
 74
0
 49
-3.1749999999999998
 74
0
  0
LTYPE
  5
3F
100
AcDbSymbolTableRecord
100
AcDbLinetypeTableRecord
  2
CENTERX2
 70
0
  3
Center (2x) ________  __  ________  __  _____
 72
65
 73
4
 40
101.5999999999999943
 49
63.5
 74
0
 49
-12.6999999999999993
 74
0
 49
12.6999999999999993
 74
0
 49
-12.6999999999999993
 74
0
  0
LTYPE
  5
40
100
AcDbSymbolTableRecord
100
AcDbLinetypeTableRecord
  2
BORDER
 70
0
  3
Border __ __ . __ __ . __ __ . __ __ . __ __ .
 72
65
 73
6
 40
44.4500000000000028
 49
12.6999999999999993
 74
0
 49
-6.3499999999999996
 74
0
 49
12.6999999999999993
 74
0
 49
-6.3499999999999996
 74
0
 49
0.0
 74
0
 49
-6.3499999999999996
 74
0
  0
LTYPE
  5
41
100
AcDbSymbolTableRecord
100
AcDbLinetypeTableRecord
  2
BORDER2
 70
0
  3
Border (.5x) __.__.__.__.__.__.__.__.__.__.__.
 72
65
 73
6
 40
22.2250000000000014
 49
6.3499999999999996
 74
0
 49
-3.1749999999999998
 74
0
 49
6.3499999999999996
 74
0
 49
-3.1749999999999998
 74
0
 49
0.0
 74
0
 49
-3.1749999999999998
 74
0
  0
LTYPE
  5
42
100
AcDbSymbolTableRecord
100
AcDbLinetypeTableRecord
  2
BORDERX2
 70
0
  3
Border (2x) ____  ____  .  ____  ____  .  ___
 72
65
 73
6
 40
88.9000000000000057
 49
25.3999999999999986
 74
0
 49
-12.6999999999999993
 74
0
 49
25.3999999999999986
 74
0
 49
-12.6999999999999993
 74
0
 49
0.0
 74
0
 49
-12.6999999999999993
 74
0
  0
ENDTAB
  0
TABLE
  2
LAYER
  5
2
100
AcDbSymbolTable
 70
9
  0
LAYER
  5
10
100
AcDbSymbolTableRecord
100
AcDbLayerTableRecord
  2
0
 70
0
 62
7
  6
CONTINUOUS
290
1
370
0
390
F
  0
LAYER
  5
43
100
AcDbSymbolTableRecord
100
AcDbLayerTableRecord
  2
dimesions
 70
0
 62
5
  6
CONTINUOUS
290
1
370
0
390
F
  0
LAYER
  5
44
100
AcDbSymbolTableRecord
100
AcDbLayerTableRecord
  2
bogus
 70
0
 62
3
  6
DOT
290
1
370
0
390
F
  0
LAYER
  5
45
100
AcDbSymbolTableRecord
100
AcDbLayerTableRecord
  2
fixtures
 70
0
 62
3
  6
CONTINUOUS
290
1
370
0
390
F
  0
LAYER
  5
46
100
AcDbSymbolTableRecord
100
AcDbLayerTableRecord
  2
doors
 70
0
 62
6
  6
CONTINUOUS
290
1
370
0
390
F
  0
LAYER
  5
47
100
AcDbSymbolTableRecord
100
AcDbLayerTableRecord
  2
eletrical
 70
0
 62
1
  6
CONTINUOUS
290
1
370
0
390
F
  0
LAYER
  5
48
100
AcDbSymbolTableRecord
100
AcDbLayerTableRecord
  2
text
 70
0
 62
7
  6
CONTINUOUS
290
1
370
0
390
F
  0
LAYER
  5
49
100
AcDbSymbolTableRecord
100
AcDbLayerTableRecord
  2
tatami
 70
0
 62
30
  6
DOT2
290
1
370
0
390
F
  0
LAYER
  5
4A
100
AcDbSymbolTableRecord
100
AcDbLayerTableRecord
  2
deck-outside
 70
0
 62
3
  6
CONTINUOUS
290
1
370
0
390
F
  0
ENDTAB
  0
TABLE
  2
STYLE
  5
3
100
AcDbSymbolTable
 70
1
  0
STYLE
  5
11
100
AcDbSymbolTableRecord
100
AcDbTextStyleTableRecord
  2
Standard
 70
0
 40
0.0
 41
0.75
 50
0.0
 71
0
 42
2.5
  3
txt
  4

  0
ENDTAB
  0
TABLE
  2
VIEW
  5
6
100
AcDbSymbolTable
 70
0
  0
ENDTAB
  0
TABLE
  2
UCS
  5
7
100
AcDbSymbolTable
 70
0
  0
ENDTAB
  0
TABLE
  2
APPID
  5
9
100
AcDbSymbolTable
 70
1
  0
APPID
  5
12
100
AcDbSymbolTableRecord
100
AcDbRegAppTableRecord
  2
ACAD
 70
0
  0
ENDTAB
  0
TABLE
  2
DIMSTYLE
  5
A
100
AcDbSymbolTable
 70
1
100
AcDbDimStyleTable
 71
0
  0
DIMSTYLE
105
27
100
AcDbSymbolTableRecord
100
AcDbDimStyleTableRecord
  2
Standard
 41
5.0
 42
12.5
 43
3.75
 44
12.5
 70
0
 73
0
 74
0
 77
1
 78
8
140
9.0
141
2.5
143
0.03937007874016
147
6.25
171
3
172
1
271
2
272
2
274
3
278
44
283
0
284
8
340
11
  0
ENDTAB
  0
TABLE
  2
BLOCK_RECORD
  5
1
100
AcDbSymbolTable
 70
1
  0
BLOCK_RECORD
  5
1F
100
AcDbSymbolTableRecord
100
AcDbBlockTableRecord
  2
*Model_Space
340
22
  0
BLOCK_RECORD
  5
1B
100
AcDbSymbolTableRecord
100
AcDbBlockTableRecord
  2
*Paper_Space
340
1E
  0
BLOCK_RECORD
  5
23
100
AcDbSymbolTableRecord
100
AcDbBlockTableRecord
  2
*Paper_Space0
340
26
  0
BLOCK_RECORD
  5
4B
100
AcDbSymbolTableRecord
100
AcDbBlockTableRecord
  2
door60verleft
340
0
  0
BLOCK_RECORD
  5
4C
100
AcDbSymbolTableRecord
100
AcDbBlockTableRecord
  2
door71verleft
340
0
  0
BLOCK_RECORD
  5
4D
100
AcDbSymbolTableRecord
100
AcDbBlockTableRecord
  2
door80verright
340
0
  0
BLOCK_RECORD
  5
4E
100
AcDbSymbolTableRecord
100
AcDbBlockTableRecord
  2
out110hor
340
0
  0
BLOCK_RECORD
  5
4F
100
AcDbSymbolTableRecord
100
AcDbBlockTableRecord
  2
tub-ver
340
0
  0
BLOCK_RECORD
  5
50
100
AcDbSymbolTableRecord
100
AcDbBlockTableRecord
  2
WC-hor-left
340
0
  0
BLOCK_RECORD
  5
51
100
AcDbSymbolTableRecord
100
AcDbBlockTableRecord
  2
out110hor-dwn
340
0
  0
BLOCK_RECORD
  5
52
100
AcDbSymbolTableRecord
100
AcDbBlockTableRecord
  2
standard40
340
0
  0
BLOCK_RECORD
  5
53
100
AcDbSymbolTableRecord
100
AcDbBlockTableRecord
  2
standard40-interiorwall
340
0
  0
BLOCK_RECORD
  5
54
100
AcDbSymbolTableRecord
100
AcDbBlockTableRecord
  2
standard40-outline
340
0
  0
BLOCK_RECORD
  5
55
100
AcDbSymbolTableRecord
100
AcDbBlockTableRecord
  2
tokyoEdomaTatami
340
0
  0
BLOCK_RECORD
  5
56
100
AcDbSymbolTableRecord
100
AcDbBlockTableRecord
  2
KyotoKyomaTatami
340
0
  0
BLOCK_RECORD
  5
57
100
AcDbSymbolTableRecord
100
AcDbBlockTableRecord
  2
nagoyaAinomaTatami
340
0
  0
BLOCK_RECORD
  5
58
100
AcDbSymbolTableRecord
100
AcDbBlockTableRecord
  2
KyotoKyomaTatamiHalf
340
0
  0
BLOCK_RECORD
  5
59
100
AcDbSymbolTableRecord
100
AcDbBlockTableRecord
  2
refridge50_60
340
0
  0
BLOCK_RECORD
  5
5A
100
AcDbSymbolTableRecord
100
AcDbBlockTableRecord
  2
washer_hor
340
0
  0
BLOCK_RECORD
  5
5B
100
AcDbSymbolTableRecord
100
AcDbBlockTableRecord
  2
switch-hor
340
0
  0
ENDTAB
  0
ENDSEC
  0
SECTION
  2
BLOCKS
  0
BLOCK
  5
20
100
AcDbEntity
  8
0
100
AcDbBlockBegin
  2
*Model_Space
 70
0
 10
0.0
 20
0.0
 30
0.0
  3
*Model_Space
  1

  0
ENDBLK
  5
21
100
AcDbEntity
  8
0
100
AcDbBlockEnd
  0
BLOCK
  5
1C
100
AcDbEntity
 67
1
  8
0
100
AcDbBlockBegin
  2
*Paper_Space
 70
0
 10
0.0
 20
0.0
 30
0.0
  3
*Paper_Space
  1

  0
ENDBLK
  5
1D
100
AcDbEntity
 67
1
  8
0
100
AcDbBlockEnd
  0
BLOCK
  5
24
100
AcDbEntity
  8
0
100
AcDbBlockBegin
  2
*Paper_Space0
 70
0
 10
0.0
 20
0.0
 30
0.0
  3
*Paper_Space0
  1

  0
ENDBLK
  5
25
100
AcDbEntity
  8
0
100
AcDbBlockEnd
  0
BLOCK
  5
5C
100
AcDbEntity
  8
0
100
AcDbBlockBegin
  2
door60verleft
 70
0
 10
0.0
 20
0.0
 30
0.0
  3
door60verleft
  1

  0
LINE
  5
5D
100
AcDbEntity
100
AcDbLine
  8
fixtures
 62
6
370
-1
  6
ByLayer
 10
0.0
 20
0.0
 30
0.0
 11
-51.5285115251740962
 21
-29.7500000000000071
 31
0.0
  0
ARC
  5
5E
100
AcDbEntity
  8
fixtures
 62
6
370
-1
  6
ByLayer
100
AcDbCircle
 10
0.0
 20
0.0
 30
0.0
 40
60.0
100
AcDbArc
 50
210.0
 51
270.0
  0
LINE
  5
5F
100
AcDbEntity
100
AcDbLine
  8
fixtures
 62
6
370
-1
  6
ByLayer
 10
2.5
 20
-4.3301270189221981
 30
0.0
 11
-49.0285115251740962
 21
-34.0801270189221981
 31
0.0
  0
LINE
  5
60
100
AcDbEntity
100
AcDbLine
  8
fixtures
 62
6
370
-1
  6
ByLayer
 10
0.0
 20
0.0
 30
0.0
 11
2.5
 21
-4.3301270189221981
 31
0.0
  0
ENDBLK
  5
61
100
AcDbEntity
  8
0
100
AcDbBlockEnd
  0
BLOCK
  5
62
100
AcDbEntity
  8
0
100
AcDbBlockBegin
  2
door71verleft
 70
0
 10
0.0
 20
0.0
 30
0.0
  3
door71verleft
  1

  0
LINE
  5
63
100
AcDbEntity
100
AcDbLine
  8
doors
 62
256
370
-1
  6
ByLayer
 10
0.0
 20
0.0
 30
0.0
 11
-61.4878036686951646
 21
-35.5000000000000071
 31
0.0
  0
ARC
  5
64
100
AcDbEntity
  8
doors
 62
256
370
-1
  6
ByLayer
100
AcDbCircle
 10
0.0
 20
0.0
 30
0.0
 40
71.0
100
AcDbArc
 50
210.0
 51
269.9999999999999432
  0
LINE
  5
65
100
AcDbEntity
100
AcDbLine
  8
doors
 62
256
370
-1
  6
ByLayer
 10
2.5
 20
-4.3301270189221981
 30
0.0
 11
-58.9878036686951646
 21
-39.8301270189221981
 31
0.0
  0
LINE
  5
66
100
AcDbEntity
100
AcDbLine
  8
doors
 62
256
370
-1
  6
ByLayer
 10
0.0
 20
0.0
 30
0.0
 11
2.5
 21
-4.3301270189221981
 31
0.0
  0
ENDBLK
  5
67
100
AcDbEntity
  8
0
100
AcDbBlockEnd
  0
BLOCK
  5
68
100
AcDbEntity
  8
0
100
AcDbBlockBegin
  2
door80verright
 70
0
 10
0.0
 20
0.0
 30
0.0
  3
door80verright
  1

  0
LINE
  5
69
100
AcDbEntity
100
AcDbLine
  8
doors
 62
256
370
-1
  6
ByLayer
 10
0.0
 20
0.0
 30
0.0
 11
51.4230087749231188
 21
-61.2835554495182464
 31
0.0
  0
ARC
  5
6A
100
AcDbEntity
  8
doors
 62
256
370
-1
  6
ByLayer
100
AcDbCircle
 10
0.0
 20
0.0
 30
0.0
 40
80.0
100
AcDbArc
 50
270.0
 51
309.9999999999999432
  0
LINE
  5
6B
100
AcDbEntity
100
AcDbLine
  8
doors
 62
256
370
-1
  6
ByLayer
 10
-3.8302222155948584
 20
-3.2139380484326807
 30
0.0
 11
47.5927865593282604
 21
-64.4974934979509413
 31
0.0
  0
LINE
  5
6C
100
AcDbEntity
100
AcDbLine
  8
doors
 62
256
370
-1
  6
ByLayer
 10
0.0
 20
0.0
 30
0.0
 11
-3.8302222155948584
 21
-3.2139380484326807
 31
0.0
  0
ENDBLK
  5
6D
100
AcDbEntity
  8
0
100
AcDbBlockEnd
  0
BLOCK
  5
6E
100
AcDbEntity
  8
0
100
AcDbBlockBegin
  2
out110hor
 70
0
 10
0.0
 20
0.0
 30
0.0
  3
out110hor
  1

  0
CIRCLE
  5
6F
100
AcDbEntity
100
AcDbCircle
  8
eletrical
 62
256
370
-1
  6
ByLayer
 10
1.923833067930623
 20
9.3156922990824143
 30
0.0
 40
5.0
  0
LINE
  5
70
100
AcDbEntity
100
AcDbLine
  8
eletrical
 62
256
370
-1
  6
ByLayer
 10
3.628960766971737
 20
0.0
 30
0.0
 11
3.628960766971737
 21
16.1186024643239421
 31
0.0
  0
LINE
  5
71
100
AcDbEntity
100
AcDbLine
  8
eletrical
 62
256
370
-1
  6
ByLayer
 10
0.0
 20
0.0
 30
0.0
 11
0.0
 21
16.1186024643239421
 31
0.0
  0
ENDBLK
  5
72
100
AcDbEntity
  8
0
100
AcDbBlockEnd
  0
BLOCK
  5
73
100
AcDbEntity
  8
0
100
AcDbBlockBegin
  2
tub-ver
 70
0
 10
0.0
 20
0.0
 30
0.0
  3
tub-ver
  1

  0
ARC
  5
74
100
AcDbEntity
  8
0
 62
3
370
-1
  6
ByLayer
100
AcDbCircle
 10
5.0
 20
0.0
 30
0.0
 40
5.0
100
AcDbArc
 50
90.0
 51
180.0
  0
LINE
  5
75
100
AcDbEntity
100
AcDbLine
  8
0
 62
3
370
-1
  6
ByLayer
 10
5.0
 20
5.0
 30
0.0
 11
53.0000000000000071
 21
5.0
 31
0.0
  0
ARC
  5
76
100
AcDbEntity
  8
0
 62
3
370
-1
  6
ByLayer
100
AcDbCircle
 10
53.0000000000000071
 20
0.0
 30
0.0
 40
5.0
100
AcDbArc
 50
0.0
 51
90.0
  0
LINE
  5
77
100
AcDbEntity
100
AcDbLine
  8
0
 62
3
370
-1
  6
ByLayer
 10
58.0000000000000071
 20
-86.9999999999999858
 30
0.0
 11
58.0000000000000071
 21
0.0
 31
0.0
  0
ARC
  5
78
100
AcDbEntity
  8
0
 62
3
370
-1
  6
ByLayer
100
AcDbCircle
 10
53.0000000000000071
 20
-86.9999999999999858
 30
0.0
 40
5.0
100
AcDbArc
 50
270.0
 51
0.0
  0
LINE
  5
79
100
AcDbEntity
100
AcDbLine
  8
0
 62
3
370
-1
  6
ByLayer
 10
4.9999999999999716
 20
-91.9999999999999858
 30
0.0
 11
53.0000000000000071
 21
-91.9999999999999858
 31
0.0
  0
LINE
  5
7A
100
AcDbEntity
100
AcDbLine
  8
0
 62
3
370
-1
  6
ByLayer
 10
-0.0000000000000284
 20
-86.9999999999999858
 30
0.0
 11
0.0
 21
0.0
 31
0.0
  0
ARC
  5
7B
100
AcDbEntity
  8
0
 62
3
370
-1
  6
ByLayer
100
AcDbCircle
 10
4.9999999999999716
 20
-86.9999999999999858
 30
0.0
 40
5.0
100
AcDbArc
 50
180.0
 51
270.0
  0
ENDBLK
  5
7C
100
AcDbEntity
  8
0
100
AcDbBlockEnd
  0
BLOCK
  5
7D
100
AcDbEntity
  8
0
100
AcDbBlockBegin
  2
WC-hor-left
 70
0
 10
0.0
 20
0.0
 30
0.0
  3
WC-hor-left
  1

  0
LINE
  5
7E
100
AcDbEntity
100
AcDbLine
  8
fixtures
 62
256
370
-1
  6
ByLayer
 10
0.0
 20
0.0
 30
0.0
 11
20.0
 21
0.0
 31
0.0
  0
LINE
  5
7F
100
AcDbEntity
100
AcDbLine
  8
fixtures
 62
256
370
-1
  6
ByLayer
 10
0.0
 20
0.0
 30
0.0
 11
0.0
 21
47.0
 31
0.0
  0
LINE
  5
80
100
AcDbEntity
100
AcDbLine
  8
fixtures
 62
256
370
-1
  6
ByLayer
 10
20.0
 20
0.0
 30
0.0
 11
20.0
 21
47.0
 31
0.0
  0
LINE
  5
81
100
AcDbEntity
100
AcDbLine
  8
fixtures
 62
256
370
-1
  6
ByLayer
 10
0.0
 20
47.0
 30
0.0
 11
20.0
 21
47.0
 31
0.0
  0
ELLIPSE
  5
82
100
AcDbEntity
100
AcDbEllipse
  8
fixtures
 62
256
370
-1
  6
ByLayer
 10
48.383983460600291
 20
22.8898383817995068
 30
0.0
 11
23.8828093948296072
 21
-0.663411372078599
 31
0.0
 40
0.6156515034695453
 41
0.0
 42
6.2831853071795862
  0
MTEXT
  5
83
100
AcDbEntity
100
AcDbMText
  8
text
 62
256
370
-1
  6
ByLayer
 10
80.8402745876098265
 20
8.7561304533611377
 30
0.0
 40
15.0
 41
100.0
 71
1
 72
2
  1
WC
  7
iso
 50
0.0
 73
0
 44
1.0
  0
ENDBLK
  5
84
100
AcDbEntity
  8
0
100
AcDbBlockEnd
  0
BLOCK
  5
85
100
AcDbEntity
  8
0
100
AcDbBlockBegin
  2
out110hor-dwn
 70
0
 10
0.0
 20
0.0
 30
0.0
  3
out110hor-dwn
  1

  0
INSERT
  5
86
100
AcDbEntity
100
AcDbBlockReference
  8
eletrical
 62
256
370
-1
  6
ByLayer
  2
out110hor
 10
0.0
 20
0.0
 30
0.0
 50
180.0
 44
1.0
 45
1.0
  0
ENDBLK
  5
87
100
AcDbEntity
  8
0
100
AcDbBlockEnd
  0
BLOCK
  5
88
100
AcDbEntity
  8
0
100
AcDbBlockBegin
  2
standard40
 70
0
 10
0.0
 20
0.0
 30
0.0
  3
standard40
  1

  0
LINE
  5
89
100
AcDbEntity
100
AcDbLine
  8
0
 62
256
370
-1
  6
ByLayer
 10
0.0
 20
0.0000000000001705
 30
0.0
 11
0.0
 21
244.0000000000001705
 31
0.0
  0
LINE
  5
8A
100
AcDbEntity
100
AcDbLine
  8
0
 62
256
370
-1
  6
ByLayer
 10
0.0
 20
243.9999999999999432
 30
0.0
 11
1219.0
 21
243.9999999999999432
 31
0.0
  0
LINE
  5
8B
100
AcDbEntity
100
AcDbLine
  8
0
 62
256
370
-1
  6
ByLayer
 10
0.0
 20
0.0
 30
0.0
 11
1219.0
 21
0.0
 31
0.0
  0
LINE
  5
8C
100
AcDbEntity
100
AcDbLine
  8
0
 62
256
370
-1
  6
ByLayer
 10
1219.0
 20
0.0
 30
0.0
 11
1219.0
 21
243.9999999999999432
 31
0.0
  0
LINE
  5
8D
100
AcDbEntity
100
AcDbLine
  8
0
 62
256
370
-1
  6
ByLayer
 10
4.5
 20
239.4999999999999432
 30
0.0
 11
1219.0
 21
239.4999999999999432
 31
0.0
  0
LINE
  5
8E
100
AcDbEntity
100
AcDbLine
  8
0
 62
256
370
-1
  6
ByLayer
 10
4.5
 20
4.5
 30
0.0
 11
1219.0
 21
4.5
 31
0.0
  0
LINE
  5
8F
100
AcDbEntity
100
AcDbLine
  8
0
 62
256
370
-1
  6
ByLayer
 10
4.5
 20
4.5
 30
0.0
 11
4.5
 21
239.4999999999999432
 31
0.0
  0
LINE
  5
90
100
AcDbEntity
100
AcDbLine
  8
0
 62
256
370
-1
  6
ByLayer
 10
1205.5
 20
4.5
 30
0.0
 11
1205.5
 21
239.4999999999999432
 31
0.0
  0
ENDBLK
  5
91
100
AcDbEntity
  8
0
100
AcDbBlockEnd
  0
BLOCK
  5
92
100
AcDbEntity
  8
0
100
AcDbBlockBegin
  2
standard40-interiorwall
 70
0
 10
0.0
 20
0.0
 30
0.0
  3
standard40-interiorwall
  1

  0
LINE
  5
93
100
AcDbEntity
100
AcDbLine
  8
0
 62
256
370
-1
  6
ByLayer
 10
0.0
 20
0.0000000000002274
 30
0.0
 11
0.0
 21
244.0000000000002274
 31
0.0
  0
LINE
  5
94
100
AcDbEntity
100
AcDbLine
  8
0
 62
256
370
-1
  6
ByLayer
 10
0.0
 20
244.0
 30
0.0
 11
1219.0
 21
244.0
 31
0.0
  0
LINE
  5
95
100
AcDbEntity
100
AcDbLine
  8
0
 62
256
370
-1
  6
ByLayer
 10
0.0
 20
0.0
 30
0.0
 11
1219.0
 21
0.0
 31
0.0
  0
LINE
  5
96
100
AcDbEntity
100
AcDbLine
  8
0
 62
256
370
-1
  6
ByLayer
 10
1219.0
 20
0.0
 30
0.0
 11
1219.0
 21
244.0
 31
0.0
  0
LINE
  5
97
100
AcDbEntity
100
AcDbLine
  8
0
 62
256
370
-1
  6
ByLayer
 10
9.0
 20
235.0
 30
0.0
 11
1219.0
 21
235.0
 31
0.0
  0
LINE
  5
98
100
AcDbEntity
100
AcDbLine
  8
0
 62
256
370
-1
  6
ByLayer
 10
9.0
 20
9.0
 30
0.0
 11
1219.0
 21
9.0
 31
0.0
  0
LINE
  5
99
100
AcDbEntity
100
AcDbLine
  8
0
 62
256
370
-1
  6
ByLayer
 10
9.0
 20
9.0
 30
0.0
 11
9.0
 21
235.0
 31
0.0
  0
LINE
  5
9A
100
AcDbEntity
100
AcDbLine
  8
0
 62
256
370
-1
  6
DASHED
 10
4.5
 20
239.5
 30
0.0
 11
1219.0
 21
239.5
 31
0.0
  0
LINE
  5
9B
100
AcDbEntity
100
AcDbLine
  8
0
 62
256
370
-1
  6
DASHED
 10
4.5
 20
4.5
 30
0.0
 11
1219.0
 21
4.5
 31
0.0
  0
LINE
  5
9C
100
AcDbEntity
100
AcDbLine
  8
0
 62
256
370
-1
  6
DASHED
 10
4.5
 20
4.5
 30
0.0
 11
4.5
 21
239.5
 31
0.0
  0
LINE
  5
9D
100
AcDbEntity
100
AcDbLine
  8
0
 62
256
370
-1
  6
ByLayer
 10
1205.5
 20
9.0
 30
0.0
 11
1205.5
 21
235.0
 31
0.0
  0
ENDBLK
  5
9E
100
AcDbEntity
  8
0
100
AcDbBlockEnd
  0
BLOCK
  5
9F
100
AcDbEntity
  8
0
100
AcDbBlockBegin
  2
standard40-outline
 70
0
 10
0.0
 20
0.0
 30
0.0
  3
standard40-outline
  1

  0
LINE
  5
A0
100
AcDbEntity
100
AcDbLine
  8
0
 62
256
370
-1
  6
ByLayer
 10
0.0
 20
0.0
 30
0.0
 11
0.0
 21
244.0
 31
0.0
  0
LINE
  5
A1
100
AcDbEntity
100
AcDbLine
  8
0
 62
256
370
-1
  6
ByLayer
 10
0.0
 20
243.9999999999997726
 30
0.0
 11
1219.0000000000002274
 21
243.9999999999997726
 31
0.0
  0
LINE
  5
A2
100
AcDbEntity
100
AcDbLine
  8
0
 62
256
370
-1
  6
ByLayer
 10
0.0
 20
-0.0000000000002274
 30
0.0
 11
1219.0000000000002274
 21
-0.0000000000002274
 31
0.0
  0
LINE
  5
A3
100
AcDbEntity
100
AcDbLine
  8
0
 62
256
370
-1
  6
ByLayer
 10
1219.0000000000002274
 20
-0.0000000000002274
 30
0.0
 11
1219.0000000000002274
 21
243.9999999999997726
 31
0.0
  0
ENDBLK
  5
A4
100
AcDbEntity
  8
0
100
AcDbBlockEnd
  0
BLOCK
  5
A5
100
AcDbEntity
  8
0
100
AcDbBlockBegin
  2
tokyoEdomaTatami
 70
0
 10
0.0
 20
0.0
 30
0.0
  3
tokyoEdomaTatami
  1

  0
LINE
  5
A6
100
AcDbEntity
100
AcDbLine
  8
tatami
 62
256
370
-1
  6
ByLayer
 10
0.0
 20
0.0
 30
0.0
 11
0.0
 21
88.0
 31
0.0
  0
LINE
  5
A7
100
AcDbEntity
100
AcDbLine
  8
tatami
 62
256
370
-1
  6
ByLayer
 10
176.0
 20
0.0
 30
0.0
 11
176.0
 21
88.0
 31
0.0
  0
LINE
  5
A8
100
AcDbEntity
100
AcDbLine
  8
tatami
 62
256
370
-1
  6
ByLayer
 10
0.0
 20
88.0
 30
0.0
 11
176.0
 21
88.0
 31
0.0
  0
LINE
  5
A9
100
AcDbEntity
100
AcDbLine
  8
tatami
 62
256
370
-1
  6
ByLayer
 10
0.0
 20
0.0
 30
0.0
 11
176.0
 21
0.0
 31
0.0
  0
LINE
  5
AA
100
AcDbEntity
100
AcDbLine
  8
tatami
 62
256
370
-1
  6
ByLayer
 10
2.5
 20
0.0
 30
0.0
 11
2.5
 21
88.0
 31
0.0
  0
LINE
  5
AB
100
AcDbEntity
100
AcDbLine
  8
tatami
 62
256
370
-1
  6
ByLayer
 10
0.0
 20
85.5
 30
0.0
 11
176.0
 21
85.5
 31
0.0
  0
LINE
  5
AC
100
AcDbEntity
100
AcDbLine
  8
tatami
 62
256
370
-1
  6
ByLayer
 10
173.5
 20
0.0
 30
0.0
 11
173.5
 21
88.0
 31
0.0
  0
LINE
  5
AD
100
AcDbEntity
100
AcDbLine
  8
tatami
 62
256
370
-1
  6
ByLayer
 10
0.0
 20
2.5
 30
0.0
 11
176.0
 21
2.5
 31
0.0
  0
ENDBLK
  5
AE
100
AcDbEntity
  8
0
100
AcDbBlockEnd
  0
BLOCK
  5
AF
100
AcDbEntity
  8
0
100
AcDbBlockBegin
  2
KyotoKyomaTatami
 70
0
 10
0.0
 20
0.0
 30
0.0
  3
KyotoKyomaTatami
  1

  0
LINE
  5
B0
100
AcDbEntity
100
AcDbLine
  8
tatami
 62
256
370
-1
  6
ByLayer
 10
0.0
 20
0.0
 30
0.0
 11
0.0
 21
95.5
 31
0.0
  0
LINE
  5
B1
100
AcDbEntity
100
AcDbLine
  8
tatami
 62
256
370
-1
  6
ByLayer
 10
191.0
 20
0.0
 30
0.0
 11
191.0
 21
95.5
 31
0.0
  0
LINE
  5
B2
100
AcDbEntity
100
AcDbLine
  8
tatami
 62
256
370
-1
  6
ByLayer
 10
0.0
 20
95.5
 30
0.0
 11
191.0
 21
95.5
 31
0.0
  0
LINE
  5
B3
100
AcDbEntity
100
AcDbLine
  8
tatami
 62
256
370
-1
  6
ByLayer
 10
0.0
 20
0.0
 30
0.0
 11
191.0
 21
0.0
 31
0.0
  0
LINE
  5
B4
100
AcDbEntity
100
AcDbLine
  8
tatami
 62
256
370
-1
  6
ByLayer
 10
0.0
 20
93.0
 30
0.0
 11
191.0
 21
93.0
 31
0.0
  0
LINE
  5
B5
100
AcDbEntity
100
AcDbLine
  8
tatami
 62
256
370
-1
  6
ByLayer
 10
188.5
 20
0.0
 30
0.0
 11
188.5
 21
95.5
 31
0.0
  0
LINE
  5
B6
100
AcDbEntity
100
AcDbLine
  8
tatami
 62
256
370
-1
  6
ByLayer
 10
2.5
 20
0.0
 30
0.0
 11
2.5
 21
95.5
 31
0.0
  0
LINE
  5
B7
100
AcDbEntity
100
AcDbLine
  8
tatami
 62
256
370
-1
  6
ByLayer
 10
0.0
 20
2.5
 30
0.0
 11
191.0
 21
2.5
 31
0.0
  0
LINE
  5
B8
100
AcDbEntity
100
AcDbLine
  8
tatami
 62
256
370
-1
  6
ByLayer
 10
95.5
 20
0.0
 30
0.0
 11
95.5
 21
2.5
 31
0.0
  0
LINE
  5
B9
100
AcDbEntity
100
AcDbLine
  8
tatami
 62
256
370
-1
  6
ByLayer
 10
95.5
 20
93.0
 30
0.0
 11
95.5
 21
95.5
 31
0.0
  0
ENDBLK
  5
BA
100
AcDbEntity
  8
0
100
AcDbBlockEnd
  0
BLOCK
  5
BB
100
AcDbEntity
  8
0
100
AcDbBlockBegin
  2
nagoyaAinomaTatami
 70
0
 10
0.0
 20
0.0
 30
0.0
  3
nagoyaAinomaTatami
  1

  0
LINE
  5
BC
100
AcDbEntity
100
AcDbLine
  8
tatami
 62
256
370
-1
  6
ByLayer
 10
0.0
 20
0.0
 30
0.0
 11
0.0
 21
91.0
 31
0.0
  0
LINE
  5
BD
100
AcDbEntity
100
AcDbLine
  8
tatami
 62
256
370
-1
  6
ByLayer
 10
182.0
 20
0.0
 30
0.0
 11
182.0
 21
91.0
 31
0.0
  0
LINE
  5
BE
100
AcDbEntity
100
AcDbLine
  8
tatami
 62
256
370
-1
  6
ByLayer
 10
0.0
 20
91.0
 30
0.0
 11
182.0
 21
91.0
 31
0.0
  0
LINE
  5
BF
100
AcDbEntity
100
AcDbLine
  8
tatami
 62
256
370
-1
  6
ByLayer
 10
0.0
 20
0.0
 30
0.0
 11
182.0
 21
0.0
 31
0.0
  0
LINE
  5
C0
100
AcDbEntity
100
AcDbLine
  8
tatami
 62
256
370
-1
  6
ByLayer
 10
0.0
 20
88.5
 30
0.0
 11
182.0
 21
88.5
 31
0.0
  0
LINE
  5
C1
100
AcDbEntity
100
AcDbLine
  8
tatami
 62
256
370
-1
  6
ByLayer
 10
179.5
 20
0.0
 30
0.0
 11
179.5
 21
91.0
 31
0.0
  0
LINE
  5
C2
100
AcDbEntity
100
AcDbLine
  8
tatami
 62
256
370
-1
  6
ByLayer
 10
0.0
 20
2.5
 30
0.0
 11
182.0
 21
2.5
 31
0.0
  0
LINE
  5
C3
100
AcDbEntity
100
AcDbLine
  8
tatami
 62
256
370
-1
  6
ByLayer
 10
2.5
 20
0.0
 30
0.0
 11
2.5
 21
91.0
 31
0.0
  0
ENDBLK
  5
C4
100
AcDbEntity
  8
0
100
AcDbBlockEnd
  0
BLOCK
  5
C5
100
AcDbEntity
  8
0
100
AcDbBlockBegin
  2
KyotoKyomaTatamiHalf
 70
0
 10
0.0
 20
0.0
 30
0.0
  3
KyotoKyomaTatamiHalf
  1

  0
LINE
  5
C6
100
AcDbEntity
100
AcDbLine
  8
tatami
 62
256
370
-1
  6
ByLayer
 10
0.0
 20
95.5
 30
0.0
 11
95.5
 21
95.5
 31
0.0
  0
LINE
  5
C7
100
AcDbEntity
100
AcDbLine
  8
tatami
 62
256
370
-1
  6
ByLayer
 10
0.0
 20
0.0
 30
0.0
 11
95.5
 21
0.0
 31
0.0
  0
LINE
  5
C8
100
AcDbEntity
100
AcDbLine
  8
tatami
 62
256
370
-1
  6
ByLayer
 10
0.0
 20
0.0
 30
0.0
 11
0.0
 21
95.5
 31
0.0
  0
LINE
  5
C9
100
AcDbEntity
100
AcDbLine
  8
tatami
 62
256
370
-1
  6
ByLayer
 10
95.5
 20
0.0
 30
0.0
 11
95.5
 21
95.5
 31
0.0
  0
LINE
  5
CA
100
AcDbEntity
100
AcDbLine
  8
tatami
 62
256
370
-1
  6
ByLayer
 10
2.5
 20
0.0
 30
0.0
 11
2.5
 21
95.5
 31
0.0
  0
LINE
  5
CB
100
AcDbEntity
100
AcDbLine
  8
tatami
 62
256
370
-1
  6
ByLayer
 10
0.0
 20
93.0
 30
0.0
 11
95.5
 21
93.0
 31
0.0
  0
LINE
  5
CC
100
AcDbEntity
100
AcDbLine
  8
tatami
 62
256
370
-1
  6
ByLayer
 10
93.0
 20
0.0
 30
0.0
 11
93.0
 21
95.5
 31
0.0
  0
LINE
  5
CD
100
AcDbEntity
100
AcDbLine
  8
tatami
 62
256
370
-1
  6
ByLayer
 10
0.0
 20
2.5
 30
0.0
 11
95.5
 21
2.5
 31
0.0
  0
ENDBLK
  5
CE
100
AcDbEntity
  8
0
100
AcDbBlockEnd
  0
BLOCK
  5
CF
100
AcDbEntity
  8
0
100
AcDbBlockBegin
  2
refridge50_60
 70
0
 10
0.0
 20
0.0
 30
0.0
  3
refridge50_60
  1

  0
LINE
  5
D0
100
AcDbEntity
100
AcDbLine
  8
fixtures
 62
256
370
-1
  6
ByLayer
 10
0.0
 20
0.0
 30
0.0
 11
0.0
 21
55.0
 31
0.0
  0
LINE
  5
D1
100
AcDbEntity
100
AcDbLine
  8
fixtures
 62
256
370
-1
  6
ByLayer
 10
60.0
 20
0.0
 30
0.0
 11
60.0
 21
55.0
 31
0.0
  0
LINE
  5
D2
100
AcDbEntity
100
AcDbLine
  8
fixtures
 62
256
370
-1
  6
ByLayer
 10
0.0
 20
50.0
 30
0.0
 11
60.0
 21
50.0
 31
0.0
  0
LINE
  5
D3
100
AcDbEntity
100
AcDbLine
  8
fixtures
 62
256
370
-1
  6
ByLayer
 10
0.0
 20
0.0
 30
0.0
 11
60.0
 21
0.0
 31
0.0
  0
ARC
  5
D4
100
AcDbEntity
  8
fixtures
 62
256
370
-1
  6
ByLayer
100
AcDbCircle
 10
29.9999999999998863
 20
-68.969221137215186
 30
0.0
 40
127.5475118901492664
100
AcDbArc
 50
76.3962062313950128
 51
103.6037937686048878
  0
LINE
  5
D5
100
AcDbEntity
100
AcDbLine
  8
fixtures
 62
256
370
-1
  6
ByLayer
 10
0.0
 20
51.0
 30
0.0
 11
60.0
 21
51.0
 31
0.0
  0
MTEXT
  5
D6
100
AcDbEntity
100
AcDbMText
  8
fixtures
 62
256
370
-1
  6
ByLayer
 10
2.4027917902074023
 20
26.6901409431941374
 30
0.0
 40
20.0
 41
100.0
 71
4
 72
0
  1
Refr
  7
normallatin1
 50
0.0
 73
1
 44
1.0
  0
ENDBLK
  5
D7
100
AcDbEntity
  8
0
100
AcDbBlockEnd
  0
BLOCK
  5
D8
100
AcDbEntity
  8
0
100
AcDbBlockBegin
  2
washer_hor
 70
0
 10
0.0
 20
0.0
 30
0.0
  3
washer_hor
  1

  0
LINE
  5
D9
100
AcDbEntity
100
AcDbLine
  8
fixtures
 62
256
370
-1
  6
ByLayer
 10
52.0
 20
0.0
 30
0.0
 11
52.0
 21
55.0
 31
0.0
  0
LINE
  5
DA
100
AcDbEntity
100
AcDbLine
  8
fixtures
 62
256
370
-1
  6
ByLayer
 10
0.0
 20
0.0
 30
0.0
 11
0.0
 21
55.0
 31
0.0
  0
LINE
  5
DB
100
AcDbEntity
100
AcDbLine
  8
fixtures
 62
256
370
-1
  6
ByLayer
 10
0.0
 20
55.0
 30
0.0
 11
52.0
 21
55.0
 31
0.0
  0
LINE
  5
DC
100
AcDbEntity
100
AcDbLine
  8
fixtures
 62
256
370
-1
  6
ByLayer
 10
0.0
 20
0.0
 30
0.0
 11
52.0
 21
0.0
 31
0.0
  0
CIRCLE
  5
DD
100
AcDbEntity
100
AcDbCircle
  8
fixtures
 62
256
370
-1
  6
ByLayer
 10
26.0
 20
27.5
 30
0.0
 40
19.0247494489576567
  0
LINE
  5
DE
100
AcDbEntity
100
AcDbLine
  8
fixtures
 62
256
370
-1
  6
ByLayer
 10
0.0
 20
5.0
 30
0.0
 11
52.0
 21
5.0
 31
0.0
  0
ENDBLK
  5
DF
100
AcDbEntity
  8
0
100
AcDbBlockEnd
  0
BLOCK
  5
E0
100
AcDbEntity
  8
0
100
AcDbBlockBegin
  2
switch-hor
 70
0
 10
0.0
 20
0.0
 30
0.0
  3
switch-hor
  1

  0
MTEXT
  5
E1
100
AcDbEntity
100
AcDbMText
  8
eletrical
 62
256
370
-1
  6
ByLayer
 10
-4.1474881859601034
 20
12.4289303324727598
 30
0.0
 40
15.0
 41
100.0
 71
4
 72
0
  1
S
  7
normallatin1
 50
0.0
 73
1
 44
1.0
  0
LINE
  5
E2
100
AcDbEntity
100
AcDbLine
  8
eletrical
 62
256
370
-1
  6
ByLayer
 10
0.0
 20
0.0
 30
0.0
 11
0.0
 21
24.709756538595343
 31
0.0
  0
ENDBLK
  5
E3
100
AcDbEntity
  8
0
100
AcDbBlockEnd
  0
ENDSEC
  0
SECTION
  2
ENTITIES
  0
LINE
  5
E4
100
AcDbEntity
100
AcDbLine
  8
0
 62
256
370
-1
  6
ByLayer
 10
112.8927808621605493
 20
838.6320864046213046
 30
0.0
 11
112.8927808621605493
 21
1082.6320864046213046
 31
0.0
  0
LINE
  5
E5
100
AcDbEntity
100
AcDbLine
  8
0
 62
256
370
-1
  6
ByLayer
 10
112.8927808621605493
 20
1082.6320864046210772
 30
0.0
 11
1331.8927808621606346
 21
1082.6320864046210772
 31
0.0
  0
LINE
  5
E6
100
AcDbEntity
100
AcDbLine
  8
0
 62
256
370
-1
  6
ByLayer
 10
112.8927808621605493
 20
838.6320864046210772
 30
0.0
 11
1331.8927808621606346
 21
838.6320864046210772
 31
0.0
  0
LINE
  5
E7
100
AcDbEntity
100
AcDbLine
  8
0
 62
256
370
-1
  6
ByLayer
 10
1331.8927808621606346
 20
838.6320864046210772
 30
0.0
 11
1331.8927808621606346
 21
1082.6320864046210772
 31
0.0
  0
LINE
  5
E8
100
AcDbEntity
100
AcDbLine
  8
0
 62
256
370
-1
  6
ByLayer
 10
121.8927808621605493
 20
847.6320864046210772
 30
0.0
 11
1331.8927808621606346
 21
847.6320864046210772
 31
0.0
  0
LINE
  5
E9
100
AcDbEntity
100
AcDbLine
  8
0
 62
256
370
-1
  6
ByLayer
 10
121.8927808621605493
 20
847.6320864046210772
 30
0.0
 11
121.8927808621605493
 21
1073.6320864046210772
 31
0.0
  0
LINE
  5
EA
100
AcDbEntity
100
AcDbLine
  8
0
 62
256
370
-1
  6
ByLayer
 10
428.8927808621605209
 20
847.6320864046210772
 30
0.0
 11
428.8927808621605209
 21
1073.6320864046210772
 31
0.0
  0
LINE
  5
EB
100
AcDbEntity
100
AcDbLine
  8
0
 62
256
370
-1
  6
ByLayer
 10
438.8927808621605209
 20
847.6320864046210772
 30
0.0
 11
438.8927808621605209
 21
1073.6320864046210772
 31
0.0
  0
LINE
  5
EC
100
AcDbEntity
100
AcDbLine
  8
0
 62
256
370
-1
  6
ByLayer
 10
121.8927808621605351
 20
993.6320864046210772
 30
0.0
 11
281.8927808621605209
 21
993.6320864046210772
 31
0.0
  0
LINE
  5
ED
100
AcDbEntity
100
AcDbLine
  8
0
 62
256
370
-1
  6
ByLayer
 10
121.8927808621605351
 20
983.6320864046210772
 30
0.0
 11
281.8927808621605209
 21
983.6320864046210772
 31
0.0
  0
LINE
  5
EE
100
AcDbEntity
100
AcDbLine
  8
0
 62
256
370
-1
  6
ByLayer
 10
780.8927808621605209
 20
847.6320864046209635
 30
0.0
 11
780.8927808621605209
 21
1073.6320864046210772
 31
0.0
  0
LINE
  5
EF
100
AcDbEntity
100
AcDbLine
  8
0
 62
256
370
-1
  6
ByLayer
 10
790.8927808621605209
 20
847.6320864046209635
 30
0.0
 11
790.8927808621605209
 21
1073.6320864046210772
 31
0.0
  0
LINE
  5
F0
100
AcDbEntity
100
AcDbLine
  8
0
 62
256
370
-1
  6
ByLayer
 10
541.8927808621605209
 20
847.6320864046210772
 30
0.0
 11
541.8927808621605209
 21
902.6320864046210772
 31
0.0
  0
LINE
  5
F1
100
AcDbEntity
100
AcDbLine
  8
0
 62
256
370
-1
  6
ByLayer
 10
541.8927808621605209
 20
902.6320864046210772
 30
0.0
 11
780.8927808621605209
 21
902.6320864046210772
 31
0.0
  0
LINE
  5
F2
100
AcDbEntity
100
AcDbLine
  8
0
 62
256
370
-1
  6
ByLayer
 10
870.8927808621605209
 20
847.6320864046209635
 30
0.0
 11
870.8927808621605209
 21
1073.6320864046210772
 31
0.0
  0
LINE
  5
F3
100
AcDbEntity
100
AcDbLine
  8
0
 62
256
370
-1
  6
ByLayer
 10
425.8927808621605209
 20
1073.6320864046210772
 30
0.0
 11
425.8927808621605209
 21
1082.6320864046210772
 31
0.0
  0
LINE
  5
F4
100
AcDbEntity
100
AcDbLine
  8
0
 62
256
370
-1
  6
ByLayer
 10
281.8927808621605209
 20
1070.6320864046210772
 30
0.0
 11
291.8927808621605209
 21
1070.6320864046210772
 31
0.0
  0
LINE
  5
F5
100
AcDbEntity
100
AcDbLine
  8
0
 62
256
370
-1
  6
ByLayer
 10
281.8927808621605209
 20
980.6320864046210772
 30
0.0
 11
291.8927808621605209
 21
980.6320864046210772
 31
0.0
  0
LINE
  5
F6
100
AcDbEntity
100
AcDbLine
  8
0
 62
256
370
-1
  6
ByLayer
 10
281.8927808621605209
 20
1010.6320864046210772
 30
0.0
 11
291.8927808621605209
 21
1010.6320864046210772
 31
0.0
  0
LINE
  5
F7
100
AcDbEntity
100
AcDbLine
  8
0
 62
256
370
-1
  6
ByLayer
 10
281.8927808621605209
 20
920.6320864046210772
 30
0.0
 11
291.8927808621605209
 21
920.6320864046210772
 31
0.0
  0
LINE
  5
F8
100
AcDbEntity
100
AcDbLine
  8
0
 62
256
370
-1
  6
ByLayer
 10
1024.8927808621606346
 20
1073.6320864046210772
 30
0.0
 11
1024.8927808621606346
 21
1082.6320864046210772
 31
0.0
  0
LINE
  5
F9
100
AcDbEntity
100
AcDbLine
  8
0
 62
256
370
-1
  6
ByLayer
 10
1194.8927808621606346
 20
838.6320864046210772
 30
0.0
 11
1194.8927808621606346
 21
847.6320864046210772
 31
0.0
  0
LINE
  5
FA
100
AcDbEntity
100
AcDbLine
  8
0
 62
256
370
-1
  6
ByLayer
 10
1194.8927808621606346
 20
838.6320864046210772
 30
0.0
 11
1194.8927808621606346
 21
847.6320864046210772
 31
0.0
  0
LINE
  5
FB
100
AcDbEntity
100
AcDbLine
  8
bogus
 62
256
370
-1
  6
ByLayer
 10
1024.8927808621606346
 20
838.6320864046210772
 30
0.0
 11
1024.8927808621606346
 21
847.6320864046210772
 31
0.0
  0
LINE
  5
FC
100
AcDbEntity
100
AcDbLine
  8
0
 62
256
370
-1
  6
ByLayer
 10
1024.8927808621606346
 20
838.6320864046210772
 30
0.0
 11
1024.8927808621606346
 21
847.6320864046210772
 31
0.0
  0
LINE
  5
FD
100
AcDbEntity
100
AcDbLine
  8
0
 62
256
370
-1
  6
ByLayer
 10
1194.8927808621606346
 20
1073.6320864046210772
 30
0.0
 11
1194.8927808621606346
 21
1082.6320864046210772
 31
0.0
  0
LINE
  5
FE
100
AcDbEntity
100
AcDbLine
  8
0
 62
256
370
-1
  6
ByLayer
 10
1024.8927808621606346
 20
1078.1320864046210772
 30
0.0
 11
1194.8927808621606346
 21
1078.1320864046210772
 31
0.0
  0
LINE
  5
FF
100
AcDbEntity
100
AcDbLine
  8
0
 62
256
370
-1
  6
ByLayer
 10
1024.8927808621606346
 20
843.1320864046210772
 30
0.0
 11
1194.8927808621606346
 21
843.1320864046210772
 31
0.0
  0
LINE
  5
100
100
AcDbEntity
100
AcDbLine
  8
0
 62
256
370
-1
  6
ByLayer
 10
281.8927808621605209
 20
847.6320864046210772
 30
0.0
 11
281.8927808621605209
 21
920.6320864046210772
 31
0.0
  0
LINE
  5
101
100
AcDbEntity
100
AcDbLine
  8
0
 62
256
370
-1
  6
ByLayer
 10
281.8927808621605209
 20
1070.6320864046210772
 30
0.0
 11
281.8927808621605209
 21
1073.6320864046210772
 31
0.0
  0
LINE
  5
102
100
AcDbEntity
100
AcDbLine
  8
0
 62
256
370
-1
  6
ByLayer
 10
281.8927808621605209
 20
993.6320864046210772
 30
0.0
 11
281.8927808621605209
 21
1010.6320864046210772
 31
0.0
  0
LINE
  5
103
100
AcDbEntity
100
AcDbLine
  8
0
 62
256
370
-1
  6
ByLayer
 10
291.8927808621605209
 20
1070.6320864046210772
 30
0.0
 11
291.8927808621605209
 21
1073.6320864046210772
 31
0.0
  0
LINE
  5
104
100
AcDbEntity
100
AcDbLine
  8
0
 62
256
370
-1
  6
ByLayer
 10
291.8927808621605209
 20
980.6320864046210772
 30
0.0
 11
291.8927808621605209
 21
1010.6320864046210772
 31
0.0
  0
LINE
  5
105
100
AcDbEntity
100
AcDbLine
  8
0
 62
256
370
-1
  6
ByLayer
 10
281.8927808621605209
 20
980.6320864046210772
 30
0.0
 11
281.8927808621605209
 21
983.6320864046210772
 31
0.0
  0
LINE
  5
106
100
AcDbEntity
100
AcDbLine
  8
0
 62
256
370
-1
  6
ByLayer
 10
291.8927808621605209
 20
847.6320864046210772
 30
0.0
 11
291.8927808621605209
 21
920.6320864046210772
 31
0.0
  0
LINE
  5
107
100
AcDbEntity
100
AcDbLine
  8
0
 62
256
370
-1
  6
ByLayer
 10
1318.3927808621606346
 20
847.6320864046210772
 30
0.0
 11
1318.3927808621606346
 21
1073.6320864046210772
 31
0.0
  0
INSERT
  5
108
100
AcDbEntity
100
AcDbBlockReference
  8
fixtures
 62
256
370
-1
  6
ByLayer
  2
WC-hor-left
 10
131.2737959314395937
 20
1012.529852225284003
 30
0.0
 44
1.0
 45
1.0
  0
INSERT
  5
109
100
AcDbEntity
100
AcDbBlockReference
  8
doors
 62
256
370
-1
  6
ByLayer
  2
door60verleft
 10
281.8927808621605209
 20
1070.6320864046210772
 30
0.0
 44
1.0
 45
1.0
  0
INSERT
  5
10A
100
AcDbEntity
100
AcDbBlockReference
  8
doors
 62
256
370
-1
  6
ByLayer
  2
door60verleft
 10
281.8927808621605209
 20
980.6320864046210772
 30
0.0
 44
1.0
 45
1.0
  0
INSERT
  5
10B
100
AcDbEntity
100
AcDbBlockReference
  8
fixtures
 62
256
370
-1
  6
ByLayer
  2
tub-ver
 10
130.0170107376042381
 20
967.9656265507230728
 30
0.0
 44
1.0
 45
1.0
  0
INSERT
  5
10C
100
AcDbEntity
100
AcDbBlockReference
  8
doors
 62
256
370
-1
  6
ByLayer
  2
door80verright
 10
425.8927808621605209
 20
1073.6320864046210772
 30
0.0
 50
270.0
 44
1.0
 45
1.0
  0
INSERT
  5
10D
100
AcDbEntity
100
AcDbBlockReference
  8
eletrical
 62
256
370
-1
  6
ByLayer
  2
out110hor
 10
406.991807976293444
 20
847.6320864046210772
 30
0.0
 44
1.0
 45
1.0
  0
INSERT
  5
10E
100
AcDbEntity
100
AcDbBlockReference
  8
eletrical
 62
256
370
-1
  6
ByLayer
  2
out110hor
 10
454.5086180445916852
 20
847.6320864046210772
 30
0.0
 44
1.0
 45
1.0
  0
INSERT
  5
10F
100
AcDbEntity
100
AcDbBlockReference
  8
eletrical
 62
256
370
-1
  6
ByLayer
  2
out110hor
 10
760.9576105140512254
 20
847.6320864046210772
 30
0.0
 44
1.0
 45
1.0
  0
INSERT
  5
110
100
AcDbEntity
100
AcDbBlockReference
  8
eletrical
 62
256
370
-1
  6
ByLayer
  2
out110hor
 10
892.4896499784708794
 20
847.6320864046210772
 30
0.0
 44
1.0
 45
1.0
  0
INSERT
  5
111
100
AcDbEntity
100
AcDbBlockReference
  8
eletrical
 62
256
370
-1
  6
ByLayer
  2
out110hor
 10
1283.6425212653316521
 20
847.6320864046210772
 30
0.0
 44
1.0
 45
1.0
  0
INSERT
  5
112
100
AcDbEntity
100
AcDbBlockReference
  8
eletrical
 62
256
370
-1
  6
ByLayer
  2
out110hor
 10
161.8326140007258971
 20
993.6320864046210772
 30
0.0
 44
1.0
 45
1.0
  0
INSERT
  5
113
100
AcDbEntity
100
AcDbBlockReference
  8
eletrical
 62
256
370
-1
  6
ByLayer
  2
out110hor-dwn
 10
1286.5073028578619869
 20
1073.6320864046210772
 30
0.0
 44
1.0
 45
1.0
  0
INSERT
  5
114
100
AcDbEntity
100
AcDbBlockReference
  8
eletrical
 62
256
370
-1
  6
ByLayer
  2
out110hor-dwn
 10
894.2525924969517064
 20
1073.6320864046210772
 30
0.0
 44
1.0
 45
1.0
  0
MTEXT
  5
115
100
AcDbEntity
100
AcDbMText
  8
text
 62
256
370
-1
  6
ByLayer
 10
586.4280228084855935
 20
971.1032854764371223
 30
0.0
 40
20.0
 41
100.0
 71
4
 72
2
  1
Kit
  7
iso
 50
0.0
 73
0
 44
1.0
  0
MTEXT
  5
116
100
AcDbEntity
100
AcDbMText
  8
text
 62
256
370
-1
  6
ByLayer
 10
1028.9390767167235481
 20
1034.3191503204711807
 30
0.0
 40
20.0
 41
100.0
 71
4
 72
2
  1
Bed Room
  7
iso
 50
0.0
 73
0
 44
1.0
  0
DIMENSION
  5
117
100
AcDbEntity
  8
dimesions
 62
256
370
-1
  6
ByLayer
100
AcDbDimension
 10
281.8927808621605209
 20
752.0051680374265288
 30
0.0
 11
201.8927808621605493
 21
762.7551680374265288
 31
0.0
 70
0
 71
5
 72
0
 41
1.0
 42
0.0
  1

  3
Standard
100
AcDbAlignedDimension
 13
121.8927808621605493
 23
847.6320864046210772
 33
0.0
 14
281.8927808621605209
 24
847.6320864046210772
 34
0.0
 50
0.0
100
AcDbRotatedDimension
  0
DIMENSION
  5
118
100
AcDbEntity
  8
dimesions
 62
256
370
-1
  6
ByLayer
100
AcDbDimension
 10
428.8927808621605209
 20
752.0051680374265288
 30
0.0
 11
355.3927808621605209
 21
762.7551680374265288
 31
0.0
 70
0
 71
5
 72
0
 41
1.0
 42
0.0
  1

  3
Standard
100
AcDbAlignedDimension
 13
281.8927808621605209
 23
847.6320864046210772
 33
0.0
 14
428.8927808621605209
 24
847.6320864046210772
 34
0.0
 50
0.0
100
AcDbRotatedDimension
  0
DIMENSION
  5
119
100
AcDbEntity
  8
dimesions
 62
256
370
-1
  6
ByLayer
100
AcDbDimension
 10
780.8927808621605209
 20
752.0051680374265288
 30
0.0
 11
604.8927808621605209
 21
762.7551680374265288
 31
0.0
 70
0
 71
5
 72
0
 41
1.0
 42
0.0
  1

  3
Standard
100
AcDbAlignedDimension
 13
428.8927808621605209
 23
847.6320864046210772
 33
0.0
 14
780.8927808621605209
 24
847.6320864046209635
 34
0.0
 50
0.0
100
AcDbRotatedDimension
  0
DIMENSION
  5
11A
100
AcDbEntity
  8
dimesions
 62
256
370
-1
  6
ByLayer
100
AcDbDimension
 10
1194.8927808621606346
 20
798.5516789059238363
 30
0.0
 11
1256.6427808621606346
 21
809.3016789059238363
 31
0.0
 70
0
 71
5
 72
0
 41
1.0
 42
0.0
  1

  3
Standard
100
AcDbAlignedDimension
 13
1318.3927808621606346
 23
847.6320864046210772
 33
0.0
 14
1194.8927808621606346
 24
847.6320864046210772
 34
0.0
 50
0.0
100
AcDbRotatedDimension
  0
DIMENSION
  5
11B
100
AcDbEntity
  8
dimesions
 62
256
370
-1
  6
ByLayer
100
AcDbDimension
 10
1024.8927808621606346
 20
798.5516789059238363
 30
0.0
 11
1109.8927808621606346
 21
809.3016789059238363
 31
0.0
 70
0
 71
5
 72
0
 41
1.0
 42
0.0
  1

  3
Standard
100
AcDbAlignedDimension
 13
1194.8927808621606346
 23
847.6320864046210772
 33
0.0
 14
1024.8927808621606346
 24
847.6320864046210772
 34
0.0
 50
0.0
100
AcDbRotatedDimension
  0
DIMENSION
  5
11C
100
AcDbEntity
  8
dimesions
 62
256
370
-1
  6
ByLayer
100
AcDbDimension
 10
870.8927808621605209
 20
799.3842482214695337
 30
0.0
 11
830.8927808621605209
 21
810.1342482214695337
 31
0.0
 70
0
 71
5
 72
0
 41
1.0
 42
0.0
  1

  3
Standard
100
AcDbAlignedDimension
 13
790.8927808621605209
 23
847.6320864046209635
 33
0.0
 14
870.8927808621605209
 24
847.6320864046209635
 34
0.0
 50
0.0
100
AcDbRotatedDimension
  0
DIMENSION
  5
11D
100
AcDbEntity
  8
dimesions
 62
256
370
-1
  6
ByLayer
100
AcDbDimension
 10
541.8927808621605209
 20
799.3842482214695337
 30
0.0
 11
490.3927808621605209
 21
810.1342482214695337
 31
0.0
 70
0
 71
5
 72
0
 41
1.0
 42
0.0
  1

  3
Standard
100
AcDbAlignedDimension
 13
438.8927808621605209
 23
847.6320864046210772
 33
0.0
 14
541.8927808621605209
 24
847.6320864046210772
 34
0.0
 50
0.0
100
AcDbRotatedDimension
  0
DIMENSION
  5
11E
100
AcDbEntity
  8
dimesions
 62
256
370
-1
  6
ByLayer
100
AcDbDimension
 10
51.6487065959772877
 20
983.6320864046210772
 30
0.0
 11
40.8987065959772877
 21
915.6320864046210772
 31
0.0
 70
0
 71
5
 72
0
 41
1.0
 42
0.0
  1

  3
Standard
100
AcDbAlignedDimension
 13
121.8927808621605493
 23
847.6320864046210772
 33
0.0
 14
121.8927808621605351
 24
983.6320864046210772
 34
0.0
 50
90.0
100
AcDbRotatedDimension
  0
DIMENSION
  5
11F
100
AcDbEntity
  8
dimesions
 62
256
370
-1
  6
ByLayer
100
AcDbDimension
 10
51.6487065959772877
 20
993.6320864046210772
 30
0.0
 11
40.8987065959772877
 21
1033.6320864046210772
 31
0.0
 70
0
 71
5
 72
0
 41
1.0
 42
0.0
  1

  3
Standard
100
AcDbAlignedDimension
 13
121.8927808621605493
 23
1073.6320864046210772
 33
0.0
 14
121.8927808621605351
 24
993.6320864046210772
 34
0.0
 50
90.0
100
AcDbRotatedDimension
  0
LINE
  5
120
100
AcDbEntity
100
AcDbLine
  8
0
 62
256
370
-1
  6
ByLayer
 10
1109.8927808621606346
 20
838.6320864046210772
 30
0.0
 11
1109.8927808621606346
 21
847.6320864046210772
 31
0.0
  0
LINE
  5
121
100
AcDbEntity
100
AcDbLine
  8
0
 62
256
370
-1
  6
ByLayer
 10
1109.8927808621606346
 20
1073.6320864046210772
 30
0.0
 11
1109.8927808621606346
 21
1082.6320864046210772
 31
0.0
  0
DIMENSION
  5
122
100
AcDbEntity
  8
dimesions
 62
256
370
-1
  6
ByLayer
100
AcDbDimension
 10
51.6487065959772877
 20
993.6320864046210772
 30
0.0
 11
40.8987065959772877
 21
988.6320864046210772
 31
0.0
 70
0
 71
5
 72
1
 41
1.0
 42
0.0
  1

  3
Standard
100
AcDbAlignedDimension
 13
121.8927808621605351
 23
983.6320864046210772
 33
0.0
 14
121.8927808621605351
 24
993.6320864046210772
 34
0.0
 50
90.0
100
AcDbRotatedDimension
  0
LINE
  5
123
100
AcDbEntity
100
AcDbLine
  8
0
 62
256
370
-1
  6
ByLayer
 10
112.8927808621605493
 20
1033.6320864046210772
 30
0.0
 11
121.8927808621605493
 21
1033.6320864046210772
 31
0.0
  0
LINE
  5
124
100
AcDbEntity
100
AcDbLine
  8
0
 62
256
370
-1
  6
ByLayer
 10
112.8927808621605493
 20
1063.6320864046210772
 30
0.0
 11
121.8927808621605493
 21
1063.6320864046210772
 31
0.0
  0
LINE
  5
125
100
AcDbEntity
100
AcDbLine
  8
0
 62
256
370
-1
  6
ByLayer
 10
112.8927808621605493
 20
1003.6320864046210772
 30
0.0
 11
121.8927808621605493
 21
1003.6320864046210772
 31
0.0
  0
LINE
  5
126
100
AcDbEntity
100
AcDbLine
  8
0
 62
256
370
-1
  6
ByLayer
 10
112.8927808621605493
 20
915.6320864046210772
 30
0.0
 11
121.8927808621605493
 21
915.6320864046210772
 31
0.0
  0
LINE
  5
127
100
AcDbEntity
100
AcDbLine
  8
0
 62
256
370
-1
  6
ByLayer
 10
112.8927808621605493
 20
975.6320864046210772
 30
0.0
 11
121.8927808621605493
 21
975.6320864046210772
 31
0.0
  0
LINE
  5
128
100
AcDbEntity
100
AcDbLine
  8
0
 62
256
370
-1
  6
ByLayer
 10
112.8927808621605351
 20
855.6320864046210772
 30
0.0
 11
121.8927808621605351
 21
855.6320864046210772
 31
0.0
  0
LINE
  5
129
100
AcDbEntity
100
AcDbLine
  8
0
 62
256
370
-1
  6
DASHED
 10
117.3927808621605493
 20
843.1320864046210772
 30
0.0
 11
117.3927808621605493
 21
855.6320864046210772
 31
0.0
  0
LINE
  5
12A
100
AcDbEntity
100
AcDbLine
  8
0
 62
256
370
-1
  6
DASHED
 10
117.3927808621605493
 20
975.6320864046210772
 30
0.0
 11
117.3927808621605493
 21
1003.6320864046210772
 31
0.0
  0
LINE
  5
12B
100
AcDbEntity
100
AcDbLine
  8
0
 62
256
370
-1
  6
DASHED
 10
117.3927808621605493
 20
1063.6320864046210772
 30
0.0
 11
117.3927808621605493
 21
1078.1320864046210772
 31
0.0
  0
LINE
  5
12C
100
AcDbEntity
100
AcDbLine
  8
0
 62
256
370
-1
  6
ByLayer
 10
117.3927808621605493
 20
1063.6320864046210772
 30
0.0
 11
117.3927808621605493
 21
1003.6320864046210772
 31
0.0
  0
LINE
  5
12D
100
AcDbEntity
100
AcDbLine
  8
0
 62
256
370
-1
  6
ByLayer
 10
117.3927808621605493
 20
975.6320864046210772
 30
0.0
 11
117.3927808621605493
 21
855.6320864046210772
 31
0.0
  0
DIMENSION
  5
12E
100
AcDbEntity
  8
dimesions
 62
256
370
-1
  6
ByLayer
100
AcDbDimension
 10
88.0626933175315543
 20
1063.6320864046210772
 30
0.0
 11
77.3126933175315543
 21
1068.6320864046210772
 31
0.0
 70
0
 71
5
 72
1
 41
1.0
 42
0.0
  1

  3
Standard
100
AcDbAlignedDimension
 13
121.8927808621605493
 23
1073.6320864046210772
 33
0.0
 14
121.8927808621605493
 24
1063.6320864046210772
 34
0.0
 50
90.0
100
AcDbRotatedDimension
  0
DIMENSION
  5
12F
100
AcDbEntity
  8
dimesions
 62
256
370
-1
  6
ByLayer
100
AcDbDimension
 10
88.0626933175315543
 20
1003.6320864046210772
 30
0.0
 11
77.3126933175315543
 21
1033.6320864046210772
 31
0.0
 70
0
 71
5
 72
1
 41
1.0
 42
0.0
  1

  3
Standard
100
AcDbAlignedDimension
 13
121.8927808621605493
 23
1063.6320864046210772
 33
0.0
 14
121.8927808621605493
 24
1003.6320864046210772
 34
0.0
 50
90.0
100
AcDbRotatedDimension
  0
DIMENSION
  5
130
100
AcDbEntity
  8
dimesions
 62
256
370
-1
  6
ByLayer
100
AcDbDimension
 10
88.0626933175315543
 20
975.6320864046210772
 30
0.0
 11
77.3126933175315543
 21
979.6320864046210772
 31
0.0
 70
0
 71
5
 72
1
 41
1.0
 42
0.0
  1

  3
Standard
100
AcDbAlignedDimension
 13
121.8927808621605351
 23
983.6320864046210772
 33
0.0
 14
121.8927808621605493
 24
975.6320864046210772
 34
0.0
 50
90.0
100
AcDbRotatedDimension
  0
DIMENSION
  5
131
100
AcDbEntity
  8
dimesions
 62
256
370
-1
  6
ByLayer
100
AcDbDimension
 10
88.0626933175315543
 20
855.6320864046210772
 30
0.0
 11
77.3126933175315543
 21
915.6320864046210772
 31
0.0
 70
0
 71
5
 72
1
 41
1.0
 42
0.0
  1

  3
Standard
100
AcDbAlignedDimension
 13
121.8927808621605493
 23
975.6320864046210772
 33
0.0
 14
121.8927808621605351
 24
855.6320864046210772
 34
0.0
 50
90.0
100
AcDbRotatedDimension
  0
LINE
  5
132
100
AcDbEntity
100
AcDbLine
  8
fixtures
 62
256
370
-1
  6
ByLayer
 10
198.0170107376042665
 20
847.6320864046210772
 30
0.0
 11
198.0170107376042381
 21
983.6320864046210772
 31
0.0
  0
LINE
  5
133
100
AcDbEntity
100
AcDbLine
  8
0
 62
256
370
-1
  6
ByLayer
 10
1318.3927808621606346
 20
847.6320864046210772
 30
0.0
 11
1318.3927808621606346
 21
1073.6320864046210772
 31
0.0
  0
LINE
  5
134
100
AcDbEntity
100
AcDbLine
  8
0
 62
256
370
-1
  6
ByLayer
 10
1328.3927808621606346
 20
847.6320864046210772
 30
0.0
 11
1328.3927808621606346
 21
1073.6320864046210772
 31
0.0
  0
LINE
  5
135
100
AcDbEntity
100
AcDbLine
  8
0
 62
256
370
-1
  6
ByLayer
 10
1318.3927808621606346
 20
960.6320864046210772
 30
0.0
 11
1328.3927808621606346
 21
960.6320864046210772
 31
0.0
  0
LINE
  5
136
100
AcDbEntity
100
AcDbLine
  8
0
 62
256
370
-1
  6
ByLayer
 10
1318.3927808621606346
 20
1060.6320864046210772
 30
0.0
 11
1328.3927808621606346
 21
1060.6320864046210772
 31
0.0
  0
LINE
  5
137
100
AcDbEntity
100
AcDbLine
  8
0
 62
256
370
-1
  6
ByLayer
 10
1318.3927808621606346
 20
860.6320864046210772
 30
0.0
 11
1328.3927808621606346
 21
860.6320864046210772
 31
0.0
  0
LINE
  5
138
100
AcDbEntity
100
AcDbLine
  8
0
 62
256
370
-1
  6
ByLayer
 10
1323.3927808621606346
 20
860.6320864046210772
 30
0.0
 11
1323.3927808621606346
 21
1060.6320864046210772
 31
0.0
  0
INSERT
  5
139
100
AcDbEntity
100
AcDbBlockReference
  8
tatami
 62
256
370
-1
  6
ByLayer
  2
KyotoKyomaTatami
 10
1182.6186107454427656
 20
863.7506888689449625
 30
0.0
 50
90.0
  0
INSERT
  5
13A
100
AcDbEntity
100
AcDbBlockReference
  8
tatami
 62
256
370
-1
  6
ByLayer
  2
KyotoKyomaTatami
 10
991.6186107454427656
 20
863.7506888689449625
 30
0.0
 50
90.0
 44
1.0
 45
1.0
  0
INSERT
  5
13B
100
AcDbEntity
100
AcDbBlockReference
  8
tatami
 62
256
370
-1
  6
ByLayer
  2
KyotoKyomaTatamiHalf
 10
991.6186107454427656
 20
959.2506888689450761
 30
0.0
 44
1.0
 45
1.0
  0
INSERT
  5
13C
100
AcDbEntity
100
AcDbBlockReference
  8
tatami
 62
256
370
-1
  6
ByLayer
  2
KyotoKyomaTatamiHalf
 10
991.6186107454427656
 20
863.7506888689449625
 30
0.0
 44
1.0
 45
1.0
  0
INSERT
  5
13D
100
AcDbEntity
100
AcDbBlockReference
  8
tatami
 62
256
370
-1
  6
ByLayer
  2
KyotoKyomaTatamiHalf
 10
1180.1186107454427656
 20
959.2506888689450761
 30
0.0
 44
1.0
 45
1.0
  0
INSERT
  5
13E
100
AcDbEntity
100
AcDbBlockReference
  8
tatami
 62
256
370
-1
  6
ByLayer
  2
KyotoKyomaTatamiHalf
 10
1180.1186107454427656
 20
863.7506888689449625
 30
0.0
 44
1.0
 45
1.0
  0
LINE
  5
13F
100
AcDbEntity
100
AcDbLine
  8
0
 62
256
370
-1
  6
ByLayer
 10
345.8927808621605209
 20
1073.6320864046210772
 30
0.0
 11
345.8927808621605209
 21
1082.6320864046210772
 31
0.0
  0
LINE
  5
140
100
AcDbEntity
100
AcDbLine
  8
0
 62
256
370
-1
  6
DASHED
 10
117.3927808621605493
 20
1078.1320864046210772
 30
0.0
 11
345.8927808621605209
 21
1078.1320864046210772
 31
0.0
  0
LINE
  5
141
100
AcDbEntity
100
AcDbLine
  8
0
 62
256
370
-1
  6
ByLayer
 10
121.8927808621605493
 20
1073.6320864046210772
 30
0.0
 11
345.8927808621605209
 21
1073.6320864046210772
 31
0.0
  0
LINE
  5
142
100
AcDbEntity
100
AcDbLine
  8
0
 62
256
370
-1
  6
ByLayer
 10
425.8927808621605209
 20
1073.6320864046210772
 30
0.0
 11
1331.8927808621606346
 21
1073.6320864046210772
 31
0.0
  0
INSERT
  5
143
100
AcDbEntity
100
AcDbBlockReference
  8
fixtures
 62
256
370
-1
  6
ByLayer
  2
refridge50_60
 10
466.1788751441057457
 20
857.1676091359363454
 30
0.0
 44
1.0
 45
1.0
  0
LINE
  5
144
100
AcDbEntity
100
AcDbLine
  8
0
 62
256
370
-1
  6
ByLayer
 10
570.8927808621605209
 20
1073.6320864046210772
 30
0.0
 11
570.8927808621605209
 21
1082.6320864046210772
 31
0.0
  0
LINE
  5
145
100
AcDbEntity
100
AcDbLine
  8
0
 62
256
370
-1
  6
ByLayer
 10
740.8927808621605209
 20
1073.6320864046210772
 30
0.0
 11
740.8927808621605209
 21
1082.6320864046210772
 31
0.0
  0
LINE
  5
146
100
AcDbEntity
100
AcDbLine
  8
0
 62
256
370
-1
  6
ByLayer
 10
570.8927808621605209
 20
838.6320864046209635
 30
0.0
 11
570.8927808621605209
 21
847.6320864046209635
 31
0.0
  0
LINE
  5
147
100
AcDbEntity
100
AcDbLine
  8
0
 62
256
370
-1
  6
ByLayer
 10
740.8927808621605209
 20
838.6320864046209635
 30
0.0
 11
740.8927808621605209
 21
847.6320864046209635
 31
0.0
  0
LINE
  5
148
100
AcDbEntity
100
AcDbLine
  8
0
 62
256
370
-1
  6
ByLayer
 10
655.8927808621605209
 20
838.6320864046209635
 30
0.0
 11
655.8927808621605209
 21
847.6320864046209635
 31
0.0
  0
LINE
  5
149
100
AcDbEntity
100
AcDbLine
  8
0
 62
256
370
-1
  6
ByLayer
 10
655.8927808621605209
 20
1073.6320864046210772
 30
0.0
 11
655.8927808621605209
 21
1082.6320864046210772
 31
0.0
  0
LINE
  5
14A
100
AcDbEntity
100
AcDbLine
  8
0
 62
256
370
-1
  6
DASHED
 10
740.8927808621605209
 20
843.1320864046210772
 30
0.0
 11
1331.8927808621606346
 21
843.1320864046210772
 31
0.0
  0
LINE
  5
14B
100
AcDbEntity
100
AcDbLine
  8
0
 62
256
370
-1
  6
DASHED
 10
117.3927808621605493
 20
843.1320864046210772
 30
0.0
 11
570.8927808621605209
 21
843.1320864046210772
 31
0.0
  0
LINE
  5
14C
100
AcDbEntity
100
AcDbLine
  8
0
 62
256
370
-1
  6
DASHED
 10
425.8927808621605209
 20
1078.1320864046210772
 30
0.0
 11
570.8927808621605209
 21
1078.1320864046210772
 31
0.0
  0
LINE
  5
14D
100
AcDbEntity
100
AcDbLine
  8
0
 62
256
370
-1
  6
DASHED
 10
740.8927808621605209
 20
1078.1320864046210772
 30
0.0
 11
1331.8927808621606346
 21
1078.1320864046210772
 31
0.0
  0
LINE
  5
14E
100
AcDbEntity
100
AcDbLine
  8
0
 62
256
370
-1
  6
ByLayer
 10
570.8927808621605209
 20
1078.1320864046210772
 30
0.0
 11
740.8927808621605209
 21
1078.1320864046210772
 31
0.0
  0
LINE
  5
14F
100
AcDbEntity
100
AcDbLine
  8
0
 62
256
370
-1
  6
ByLayer
 10
570.8927808621605209
 20
843.1320864046210772
 30
0.0
 11
740.8927808621605209
 21
843.1320864046210772
 31
0.0
  0
DIMENSION
  5
150
100
AcDbEntity
  8
dimesions
 62
256
370
-1
  6
ByLayer
100
AcDbDimension
 10
740.8927808621605209
 20
799.3842482214695337
 30
0.0
 11
760.8927808621605209
 21
810.1342482214695337
 31
0.0
 70
0
 71
5
 72
1
 41
1.0
 42
0.0
  1

  3
Standard
100
AcDbAlignedDimension
 13
780.8927808621605209
 23
847.6320864046209635
 33
0.0
 14
740.8927808621605209
 24
847.6320864046209635
 34
0.0
 50
0.0
100
AcDbRotatedDimension
  0
DIMENSION
  5
151
100
AcDbEntity
  8
dimesions
 62
256
370
-1
  6
ByLayer
100
AcDbDimension
 10
570.8927808621605209
 20
799.3842482214695337
 30
0.0
 11
655.8927808621605209
 21
810.1342482214695337
 31
0.0
 70
0
 71
5
 72
1
 41
1.0
 42
0.0
  1

  3
Standard
100
AcDbAlignedDimension
 13
740.8927808621605209
 23
847.6320864046209635
 33
0.0
 14
570.8927808621605209
 24
847.6320864046209635
 34
0.0
 50
0.0
100
AcDbRotatedDimension
  0
INSERT
  5
152
100
AcDbEntity
100
AcDbBlockReference
  8
eletrical
 62
256
370
-1
  6
ByLayer
  2
out110hor-dwn
 10
760.9242284611244713
 20
1073.6320864046210772
 30
0.0
 44
1.0
 45
1.0
  0
INSERT
  5
153
100
AcDbEntity
100
AcDbBlockReference
  8
eletrical
 62
256
370
-1
  6
ByLayer
  2
out110hor-dwn
 10
458.6598610289386784
 20
1073.6320864046210772
 30
0.0
 44
1.0
 45
1.0
  0
INSERT
  5
154
100
AcDbEntity
100
AcDbBlockReference
  8
eletrical
 62
256
370
-1
  6
ByLayer
  2
out110hor-dwn
 10
321.8138041317801594
 20
1073.6320864046210772
 30
0.0
 44
1.0
 45
1.0
  0
INSERT
  5
155
100
AcDbEntity
100
AcDbBlockReference
  8
fixtures
 62
256
370
-1
  6
ByLayer
  2
washer_hor
 10
370.076475983907244
 20
858.8123934737657237
 30
0.0
 44
1.0
 45
1.0
  0
INSERT
  5
156
100
AcDbEntity
100
AcDbBlockReference
  8
eletrical
 62
256
370
-1
  6
ByLayer
  2
switch-hor
 10
260.4586489515213543
 20
993.6320864046210772
 30
0.0
 44
1.0
 45
1.0
  0
INSERT
  5
157
100
AcDbEntity
100
AcDbBlockReference
  8
eletrical
 62
256
370
-1
  6
ByLayer
  2
switch-hor
 10
335.3889329759857674
 20
1073.6320864046210772
 30
0.0
 50
180.0
 44
1.0
 45
1.0
  0
INSERT
  5
158
100
AcDbEntity
100
AcDbBlockReference
  8
eletrical
 62
256
370
-1
  6
ByLayer
  2
switch-hor
 10
281.8927808621605209
 20
911.3045107657155768
 30
0.0
 50
90.0
 44
1.0
 45
1.0
  0
LINE
  5
159
100
AcDbEntity
100
AcDbLine
  8
0
 62
256
370
-1
  6
ByLayer
 10
112.8927808621605493
 20
1202.6320864046213046
 30
0.0
 11
112.8927808621605493
 21
1446.6320864046213046
 31
0.0
  0
LINE
  5
15A
100
AcDbEntity
100
AcDbLine
  8
0
 62
256
370
-1
  6
ByLayer
 10
112.8927808621605493
 20
1446.6320864046210772
 30
0.0
 11
1331.8927808621606346
 21
1446.6320864046210772
 31
0.0
  0
LINE
  5
15B
100
AcDbEntity
100
AcDbLine
  8
0
 62
256
370
-1
  6
ByLayer
 10
112.8927808621605493
 20
1202.6320864046210772
 30
0.0
 11
1331.8927808621606346
 21
1202.6320864046210772
 31
0.0
  0
LINE
  5
15C
100
AcDbEntity
100
AcDbLine
  8
0
 62
256
370
-1
  6
ByLayer
 10
1331.8927808621606346
 20
1202.6320864046210772
 30
0.0
 11
1331.8927808621606346
 21
1446.6320864046210772
 31
0.0
  0
LINE
  5
15D
100
AcDbEntity
100
AcDbLine
  8
0
 62
256
370
-1
  6
ByLayer
 10
121.8927808621605493
 20
1437.6320864046210772
 30
0.0
 11
1331.8927808621606346
 21
1437.6320864046210772
 31
0.0
  0
LINE
  5
15E
100
AcDbEntity
100
AcDbLine
  8
0
 62
256
370
-1
  6
ByLayer
 10
121.8927808621605493
 20
1211.6320864046210772
 30
0.0
 11
1331.8927808621606346
 21
1211.6320864046210772
 31
0.0
  0
LINE
  5
15F
100
AcDbEntity
100
AcDbLine
  8
0
 62
256
370
-1
  6
ByLayer
 10
121.8927808621605493
 20
1211.6320864046210772
 30
0.0
 11
121.8927808621605493
 21
1437.6320864046210772
 31
0.0
  0
LINE
  5
160
100
AcDbEntity
100
AcDbLine
  8
0
 62
256
370
-1
  6
ByLayer
 10
531.8927808621605209
 20
1211.6320864046210772
 30
0.0
 11
531.8927808621605209
 21
1437.6320864046210772
 31
0.0
  0
LINE
  5
161
100
AcDbEntity
100
AcDbLine
  8
0
 62
256
370
-1
  6
ByLayer
 10
541.8927808621605209
 20
1211.6320864046210772
 30
0.0
 11
541.8927808621605209
 21
1437.6320864046210772
 31
0.0
  0
LINE
  5
162
100
AcDbEntity
100
AcDbLine
  8
0
 62
256
370
-1
  6
ByLayer
 10
874.8927808621605209
 20
1211.6320864046210772
 30
0.0
 11
874.8927808621605209
 21
1437.6320864046210772
 31
0.0
  0
LINE
  5
163
100
AcDbEntity
100
AcDbLine
  8
0
 62
256
370
-1
  6
ByLayer
 10
884.8927808621605209
 20
1211.6320864046210772
 30
0.0
 11
884.8927808621605209
 21
1437.6320864046210772
 31
0.0
  0
LINE
  5
164
100
AcDbEntity
100
AcDbLine
  8
0
 62
256
370
-1
  6
ByLayer
 10
451.8927808621605209
 20
1211.6320864046210772
 30
0.0
 11
451.8927808621605209
 21
1437.6320864046210772
 31
0.0
  0
LINE
  5
165
100
AcDbEntity
100
AcDbLine
  8
0
 62
256
370
-1
  6
ByLayer
 10
964.8927808621605209
 20
1211.6320864046210772
 30
0.0
 11
964.8927808621605209
 21
1437.6320864046210772
 31
0.0
  0
LINE
  5
166
100
AcDbEntity
100
AcDbLine
  8
0
 62
256
370
-1
  6
DASHED
 10
117.3927808621605493
 20
1207.1320864046210772
 30
0.0
 11
117.3927808621605493
 21
1442.1320864046210772
 31
0.0
  0
LINE
  5
167
100
AcDbEntity
100
AcDbLine
  8
0
 62
256
370
-1
  6
ByLayer
 10
391.8927808621605209
 20
1437.6320864046210772
 30
0.0
 11
391.8927808621605209
 21
1446.6320864046210772
 31
0.0
  0
LINE
  5
168
100
AcDbEntity
100
AcDbLine
  8
0
 62
256
370
-1
  6
ByLayer
 10
221.8927808621605209
 20
1437.6320864046210772
 30
0.0
 11
221.8927808621605209
 21
1446.6320864046210772
 31
0.0
  0
LINE
  5
169
100
AcDbEntity
100
AcDbLine
  8
0
 62
256
370
-1
  6
ByLayer
 10
221.8927808621605209
 20
1442.1320864046210772
 30
0.0
 11
391.8927808621605209
 21
1442.1320864046210772
 31
0.0
  0
LINE
  5
16A
100
AcDbEntity
100
AcDbLine
  8
0
 62
256
370
-1
  6
ByLayer
 10
391.8927808621605209
 20
1202.6320864046210772
 30
0.0
 11
391.8927808621605209
 21
1211.6320864046210772
 31
0.0
  0
LINE
  5
16B
100
AcDbEntity
100
AcDbLine
  8
0
 62
256
370
-1
  6
ByLayer
 10
221.8927808621605209
 20
1202.6320864046210772
 30
0.0
 11
221.8927808621605209
 21
1211.6320864046210772
 31
0.0
  0
LINE
  5
16C
100
AcDbEntity
100
AcDbLine
  8
bogus
 62
256
370
-1
  6
ByLayer
 10
391.8927808621605209
 20
1202.6320864046210772
 30
0.0
 11
391.8927808621605209
 21
1211.6320864046210772
 31
0.0
  0
LINE
  5
16D
100
AcDbEntity
100
AcDbLine
  8
0
 62
256
370
-1
  6
ByLayer
 10
221.8927808621605209
 20
1207.1320864046210772
 30
0.0
 11
391.8927808621605209
 21
1207.1320864046210772
 31
0.0
  0
LINE
  5
16E
100
AcDbEntity
100
AcDbLine
  8
0
 62
256
370
-1
  6
ByLayer
 10
1024.8927808621606346
 20
1437.6320864046210772
 30
0.0
 11
1024.8927808621606346
 21
1446.6320864046210772
 31
0.0
  0
LINE
  5
16F
100
AcDbEntity
100
AcDbLine
  8
0
 62
256
370
-1
  6
ByLayer
 10
1194.8927808621606346
 20
1437.6320864046210772
 30
0.0
 11
1194.8927808621606346
 21
1446.6320864046210772
 31
0.0
  0
LINE
  5
170
100
AcDbEntity
100
AcDbLine
  8
0
 62
256
370
-1
  6
ByLayer
 10
1024.8927808621606346
 20
1202.6320864046210772
 30
0.0
 11
1024.8927808621606346
 21
1211.6320864046210772
 31
0.0
  0
LINE
  5
171
100
AcDbEntity
100
AcDbLine
  8
0
 62
256
370
-1
  6
ByLayer
 10
1194.8927808621606346
 20
1202.6320864046210772
 30
0.0
 11
1194.8927808621606346
 21
1211.6320864046210772
 31
0.0
  0
LINE
  5
172
100
AcDbEntity
100
AcDbLine
  8
0
 62
256
370
-1
  6
ByLayer
 10
1024.8927808621606346
 20
1442.1320864046210772
 30
0.0
 11
1194.8927808621606346
 21
1442.1320864046210772
 31
0.0
  0
LINE
  5
173
100
AcDbEntity
100
AcDbLine
  8
0
 62
256
370
-1
  6
ByLayer
 10
1024.8927808621606346
 20
1207.1320864046210772
 30
0.0
 11
1194.8927808621606346
 21
1207.1320864046210772
 31
0.0
  0
LINE
  5
174
100
AcDbEntity
100
AcDbLine
  8
0
 62
256
370
-1
  6
ByLayer
 10
1318.3927808621606346
 20
1211.6320864046210772
 30
0.0
 11
1318.3927808621606346
 21
1437.6320864046210772
 31
0.0
  0
INSERT
  5
175
100
AcDbEntity
100
AcDbBlockReference
  8
eletrical
 62
256
370
-1
  6
ByLayer
  2
out110hor
 10
1286.0527942398109644
 20
1211.6320864046210772
 30
0.0
 44
1.0
 45
1.0
  0
INSERT
  5
176
100
AcDbEntity
100
AcDbBlockReference
  8
eletrical
 62
256
370
-1
  6
ByLayer
  2
out110hor
 10
986.4902959831483713
 20
1211.6320864046210772
 30
0.0
 44
1.0
 45
1.0
  0
INSERT
  5
177
100
AcDbEntity
100
AcDbBlockReference
  8
eletrical
 62
256
370
-1
  6
ByLayer
  2
out110hor
 10
845.3171646208128323
 20
1211.6320864046210772
 30
0.0
 44
1.0
 45
1.0
  0
INSERT
  5
178
100
AcDbEntity
100
AcDbBlockReference
  8
eletrical
 62
256
370
-1
  6
ByLayer
  2
out110hor
 10
565.5533372259410498
 20
1211.6320864046210772
 30
0.0
 44
1.0
 45
1.0
  0
INSERT
  5
179
100
AcDbEntity
100
AcDbBlockReference
  8
eletrical
 62
256
370
-1
  6
ByLayer
  2
out110hor
 10
426.9626411934044654
 20
1211.6320864046210772
 30
0.0
 44
1.0
 45
1.0
  0
INSERT
  5
17A
100
AcDbEntity
100
AcDbBlockReference
  8
eletrical
 62
256
370
-1
  6
ByLayer
  2
out110hor
 10
148.0596255751322019
 20
1211.6320864046210772
 30
0.0
 44
1.0
 45
1.0
  0
INSERT
  5
17B
100
AcDbEntity
100
AcDbBlockReference
  8
eletrical
 62
256
370
-1
  6
ByLayer
  2
out110hor-dwn
 10
152.0537922185551167
 20
1437.6320864046210772
 30
0.0
 44
1.0
 45
1.0
  0
INSERT
  5
17C
100
AcDbEntity
100
AcDbBlockReference
  8
eletrical
 62
256
370
-1
  6
ByLayer
  2
out110hor-dwn
 10
427.5135607304302994
 20
1437.6320864046210772
 30
0.0
 44
1.0
 45
1.0
  0
INSERT
  5
17D
100
AcDbEntity
100
AcDbBlockReference
  8
eletrical
 62
256
370
-1
  6
ByLayer
  2
out110hor-dwn
 10
568.9896978381295867
 20
1437.6320864046210772
 30
0.0
 44
1.0
 45
1.0
  0
INSERT
  5
17E
100
AcDbEntity
100
AcDbBlockReference
  8
eletrical
 62
256
370
-1
  6
ByLayer
  2
out110hor-dwn
 10
848.8568226461947006
 20
1437.6320864046210772
 30
0.0
 44
1.0
 45
1.0
  0
INSERT
  5
17F
100
AcDbEntity
100
AcDbBlockReference
  8
eletrical
 62
256
370
-1
  6
ByLayer
  2
out110hor-dwn
 10
989.8922241242748896
 20
1437.6320864046210772
 30
0.0
 44
1.0
 45
1.0
  0
INSERT
  5
180
100
AcDbEntity
100
AcDbBlockReference
  8
eletrical
 62
256
370
-1
  6
ByLayer
  2
out110hor-dwn
 10
1290.0331878948140911
 20
1437.6320864046210772
 30
0.0
 44
1.0
 45
1.0
  0
MTEXT
  5
181
100
AcDbEntity
100
AcDbMText
  8
text
 62
256
370
-1
  6
ByLayer
 10
224.6180729564612193
 20
1379.8136033471994324
 30
0.0
 40
20.0
 41
100.0
 71
4
 72
2
  1
Bed Room
  7
iso
 50
0.0
 73
0
 44
1.0
  0
MTEXT
  5
182
100
AcDbEntity
100
AcDbMText
  8
text
 62
256
370
-1
  6
ByLayer
 10
1028.9390767167235481
 20
1373.0885113425149484
 30
0.0
 40
20.0
 41
100.0
 71
4
 72
2
  1
Bed Room
  7
iso
 50
0.0
 73
0
 44
1.0
  0
DIMENSION
  5
183
100
AcDbEntity
  8
dimesions
 62
256
370
-1
  6
ByLayer
100
AcDbDimension
 10
221.8927808621605209
 20
1494.2606810755464721
 30
0.0
 11
171.8927808621605209
 21
1505.0106810755464721
 31
0.0
 70
0
 71
5
 72
0
 41
1.0
 42
0.0
  1

  3
Standard
100
AcDbAlignedDimension
 13
121.8927808621605493
 23
1437.6320864046210772
 33
0.0
 14
221.8927808621605209
 24
1437.6320864046210772
 34
0.0
 50
0.0
100
AcDbRotatedDimension
  0
DIMENSION
  5
184
100
AcDbEntity
  8
dimesions
 62
256
370
-1
  6
ByLayer
100
AcDbDimension
 10
391.8927808621605209
 20
1494.2606810755464721
 30
0.0
 11
306.8927808621605209
 21
1505.0106810755464721
 31
0.0
 70
0
 71
5
 72
0
 41
1.0
 42
0.0
  1

  3
Standard
100
AcDbAlignedDimension
 13
221.8927808621605209
 23
1437.6320864046210772
 33
0.0
 14
391.8927808621605209
 24
1437.6320864046210772
 34
0.0
 50
0.0
100
AcDbRotatedDimension
  0
DIMENSION
  5
185
100
AcDbEntity
  8
dimesions
 62
256
370
-1
  6
ByLayer
100
AcDbDimension
 10
964.8927808621605209
 20
1494.2606810755464721
 30
0.0
 11
924.8927808621605209
 21
1505.0106810755464721
 31
0.0
 70
0
 71
5
 72
0
 41
1.0
 42
0.0
  1

  3
Standard
100
AcDbAlignedDimension
 13
884.8927808621605209
 23
1437.6320864046210772
 33
0.0
 14
964.8927808621605209
 24
1437.6320864046210772
 34
0.0
 50
0.0
100
AcDbRotatedDimension
  0
DIMENSION
  5
186
100
AcDbEntity
  8
dimesions
 62
256
370
-1
  6
ByLayer
100
AcDbDimension
 10
1024.8927808621606346
 20
1494.2606810755464721
 30
0.0
 11
994.8927808621606346
 21
1505.0106810755464721
 31
0.0
 70
0
 71
5
 72
0
 41
1.0
 42
0.0
  1

  3
Standard
100
AcDbAlignedDimension
 13
964.8927808621605209
 23
1437.6320864046210772
 33
0.0
 14
1024.8927808621606346
 24
1437.6320864046210772
 34
0.0
 50
0.0
100
AcDbRotatedDimension
  0
DIMENSION
  5
187
100
AcDbEntity
  8
dimesions
 62
256
370
-1
  6
ByLayer
100
AcDbDimension
 10
1194.8927808621606346
 20
1494.2606810755464721
 30
0.0
 11
1109.8927808621606346
 21
1505.0106810755464721
 31
0.0
 70
0
 71
5
 72
0
 41
1.0
 42
0.0
  1

  3
Standard
100
AcDbAlignedDimension
 13
1024.8927808621606346
 23
1437.6320864046210772
 33
0.0
 14
1194.8927808621606346
 24
1437.6320864046210772
 34
0.0
 50
0.0
100
AcDbRotatedDimension
  0
DIMENSION
  5
188
100
AcDbEntity
  8
dimesions
 62
256
370
-1
  6
ByLayer
100
AcDbDimension
 10
541.8927808621605209
 20
1544.5045428521261783
 30
0.0
 11
331.8927808621605209
 21
1555.2545428521261783
 31
0.0
 70
0
 71
5
 72
0
 41
1.0
 42
0.0
  1

  3
Standard
100
AcDbAlignedDimension
 13
121.8927808621605493
 23
1437.6320864046210772
 33
0.0
 14
541.8927808621605209
 24
1437.6320864046210772
 34
0.0
 50
0.0
100
AcDbRotatedDimension
  0
DIMENSION
  5
189
100
AcDbEntity
  8
dimesions
 62
256
370
-1
  6
ByLayer
100
AcDbDimension
 10
884.8927808621605209
 20
1544.5045428521261783
 30
0.0
 11
713.3927808621605209
 21
1555.2545428521261783
 31
0.0
 70
0
 71
5
 72
0
 41
1.0
 42
0.0
  1

  3
Standard
100
AcDbAlignedDimension
 13
541.8927808621605209
 23
1437.6320864046210772
 33
0.0
 14
884.8927808621605209
 24
1437.6320864046210772
 34
0.0
 50
0.0
100
AcDbRotatedDimension
  0
DIMENSION
  5
18A
100
AcDbEntity
  8
dimesions
 62
256
370
-1
  6
ByLayer
100
AcDbDimension
 10
451.8927808621605209
 20
1494.2606810755464721
 30
0.0
 11
491.8927808621605209
 21
1505.0106810755464721
 31
0.0
 70
0
 71
5
 72
0
 41
1.0
 42
0.0
  1

  3
Standard
100
AcDbAlignedDimension
 13
531.8927808621605209
 23
1437.6320864046210772
 33
0.0
 14
451.8927808621605209
 24
1437.6320864046210772
 34
0.0
 50
0.0
100
AcDbRotatedDimension
  0
DIMENSION
  5
18B
100
AcDbEntity
  8
dimesions
 62
256
370
-1
  6
ByLayer
100
AcDbDimension
 10
1318.3927808621606346
 20
1593.9771172768605538
 30
0.0
 11
720.1427808621606346
 21
1604.7271172768605538
 31
0.0
 70
0
 71
5
 72
0
 41
1.0
 42
0.0
  1

  3
Standard
100
AcDbAlignedDimension
 13
121.8927808621605493
 23
1437.6320864046210772
 33
0.0
 14
1318.3927808621606346
 24
1437.6320864046210772
 34
0.0
 50
0.0
100
AcDbRotatedDimension
  0
DIMENSION
  5
18C
100
AcDbEntity
  8
dimesions
 62
256
370
-1
  6
ByLayer
100
AcDbDimension
 10
1331.8927808621606346
 20
1651.8236686643547273
 30
0.0
 11
722.3927808621606346
 21
1662.5736686643547273
 31
0.0
 70
0
 71
5
 72
0
 41
1.0
 42
0.0
  1

  3
Standard
100
AcDbAlignedDimension
 13
112.8927808621605493
 23
1446.6320864046213046
 33
0.0
 14
1331.8927808621606346
 24
1446.6320864046210772
 34
0.0
 50
0.0
100
AcDbRotatedDimension
  0
LINE
  5
18D
100
AcDbEntity
100
AcDbLine
  8
0
 62
256
370
-1
  6
ByLayer
 10
1109.8927808621606346
 20
1202.6320864046210772
 30
0.0
 11
1109.8927808621606346
 21
1211.6320864046210772
 31
0.0
  0
LINE
  5
18E
100
AcDbEntity
100
AcDbLine
  8
0
 62
256
370
-1
  6
ByLayer
 10
306.8927808621605209
 20
1437.6320864046210772
 30
0.0
 11
306.8927808621605209
 21
1446.6320864046210772
 31
0.0
  0
LINE
  5
18F
100
AcDbEntity
100
AcDbLine
  8
0
 62
256
370
-1
  6
ByLayer
 10
306.8927808621605209
 20
1202.6320864046210772
 30
0.0
 11
306.8927808621605209
 21
1211.6320864046210772
 31
0.0
  0
LINE
  5
190
100
AcDbEntity
100
AcDbLine
  8
0
 62
256
370
-1
  6
ByLayer
 10
1328.3927808621606346
 20
1211.6320864046210772
 30
0.0
 11
1328.3927808621606346
 21
1437.6320864046210772
 31
0.0
  0
LINE
  5
191
100
AcDbEntity
100
AcDbLine
  8
0
 62
256
370
-1
  6
ByLayer
 10
1318.3927808621606346
 20
1324.6320864046210772
 30
0.0
 11
1328.3927808621606346
 21
1324.6320864046210772
 31
0.0
  0
LINE
  5
192
100
AcDbEntity
100
AcDbLine
  8
0
 62
256
370
-1
  6
ByLayer
 10
1318.3927808621606346
 20
1424.6320864046210772
 30
0.0
 11
1328.3927808621606346
 21
1424.6320864046210772
 31
0.0
  0
LINE
  5
193
100
AcDbEntity
100
AcDbLine
  8
0
 62
256
370
-1
  6
ByLayer
 10
1318.3927808621606346
 20
1224.6320864046210772
 30
0.0
 11
1328.3927808621606346
 21
1224.6320864046210772
 31
0.0
  0
LINE
  5
194
100
AcDbEntity
100
AcDbLine
  8
0
 62
256
370
-1
  6
ByLayer
 10
1323.3927808621606346
 20
1224.6320864046210772
 30
0.0
 11
1323.3927808621606346
 21
1424.6320864046210772
 31
0.0
  0
INSERT
  5
195
100
AcDbEntity
100
AcDbBlockReference
  8
tatami
 62
256
370
-1
  6
ByLayer
  2
KyotoKyomaTatami
 10
434.5596255751322587
 20
1227.7506888689449625
 30
0.0
 50
90.0
  0
INSERT
  5
196
100
AcDbEntity
100
AcDbBlockReference
  8
tatami
 62
256
370
-1
  6
ByLayer
  2
KyotoKyomaTatami
 10
243.5596255751322587
 20
1227.7506888689449625
 30
0.0
 50
90.0
 44
1.0
 45
1.0
  0
INSERT
  5
197
100
AcDbEntity
100
AcDbBlockReference
  8
tatami
 62
256
370
-1
  6
ByLayer
  2
KyotoKyomaTatamiHalf
 10
243.5596255751322587
 20
1323.2506888689449625
 30
0.0
 44
1.0
 45
1.0
  0
INSERT
  5
198
100
AcDbEntity
100
AcDbBlockReference
  8
tatami
 62
256
370
-1
  6
ByLayer
  2
KyotoKyomaTatamiHalf
 10
243.5596255751322587
 20
1227.7506888689449625
 30
0.0
 44
1.0
 45
1.0
  0
INSERT
  5
199
100
AcDbEntity
100
AcDbBlockReference
  8
tatami
 62
256
370
-1
  6
ByLayer
  2
KyotoKyomaTatami
 10
852.0533372259410498
 20
1227.7506888689449625
 30
0.0
 50
90.0
  0
INSERT
  5
19A
100
AcDbEntity
100
AcDbBlockReference
  8
tatami
 62
256
370
-1
  6
ByLayer
  2
KyotoKyomaTatami
 10
661.0533372259410498
 20
1227.7506888689449625
 30
0.0
 50
90.0
 44
1.0
 45
1.0
  0
INSERT
  5
19B
100
AcDbEntity
100
AcDbBlockReference
  8
tatami
 62
256
370
-1
  6
ByLayer
  2
KyotoKyomaTatamiHalf
 10
661.0533372259410498
 20
1323.2506888689449625
 30
0.0
 44
1.0
 45
1.0
  0
INSERT
  5
19C
100
AcDbEntity
100
AcDbBlockReference
  8
tatami
 62
256
370
-1
  6
ByLayer
  2
KyotoKyomaTatamiHalf
 10
661.0533372259410498
 20
1227.7506888689449625
 30
0.0
 44
1.0
 45
1.0
  0
INSERT
  5
19D
100
AcDbEntity
100
AcDbBlockReference
  8
tatami
 62
256
370
-1
  6
ByLayer
  2
KyotoKyomaTatami
 10
1276.6192567501202575
 20
1227.7506888689449625
 30
0.0
 50
90.0
  0
INSERT
  5
19E
100
AcDbEntity
100
AcDbBlockReference
  8
tatami
 62
256
370
-1
  6
ByLayer
  2
KyotoKyomaTatami
 10
1085.6192567501202575
 20
1227.7506888689449625
 30
0.0
 50
90.0
 44
1.0
 45
1.0
  0
INSERT
  5
19F
100
AcDbEntity
100
AcDbBlockReference
  8
tatami
 62
256
370
-1
  6
ByLayer
  2
KyotoKyomaTatamiHalf
 10
1085.6192567501202575
 20
1323.2506888689449625
 30
0.0
 44
1.0
 45
1.0
  0
INSERT
  5
1A0
100
AcDbEntity
100
AcDbBlockReference
  8
tatami
 62
256
370
-1
  6
ByLayer
  2
KyotoKyomaTatamiHalf
 10
1085.6192567501202575
 20
1227.7506888689449625
 30
0.0
 44
1.0
 45
1.0
  0
DIMENSION
  5
1A1
100
AcDbEntity
  8
dimesions
 62
256
370
-1
  6
ByLayer
100
AcDbDimension
 10
1395.5290197862689183
 20
1224.6320864046210772
 30
0.0
 11
1384.7790197862689183
 21
1324.6320864046210772
 31
0.0
 70
0
 71
5
 72
1
 41
1.0
 42
0.0
  1

  3
Standard
100
AcDbAlignedDimension
 13
1318.3927808621606346
 23
1424.6320864046210772
 33
0.0
 14
1318.3927808621606346
 24
1224.6320864046210772
 34
0.0
 50
90.0
100
AcDbRotatedDimension
  0
DIMENSION
  5
1A2
100
AcDbEntity
  8
dimesions
 62
256
370
-1
  6
ByLayer
100
AcDbDimension
 10
1395.5290197862689183
 20
1424.6320864046210772
 30
0.0
 11
1384.7790197862689183
 21
1431.1320864046210772
 31
0.0
 70
0
 71
5
 72
1
 41
1.0
 42
0.0
  1

  3
Standard
100
AcDbAlignedDimension
 13
1318.3927808621606346
 23
1437.6320864046210772
 33
0.0
 14
1318.3927808621606346
 24
1424.6320864046210772
 34
0.0
 50
90.0
100
AcDbRotatedDimension
  0
DIMENSION
  5
1A3
100
AcDbEntity
  8
dimesions
 62
256
370
-1
  6
ByLayer
100
AcDbDimension
 10
-21.3481320596707462
 20
1446.6320864046210772
 30
0.0
 11
-32.0981320596707533
 21
1324.6320864046210772
 31
0.0
 70
0
 71
5
 72
1
 41
1.0
 42
0.0
  1

  3
Standard
100
AcDbAlignedDimension
 13
112.8927808621605493
 23
1202.6320864046210772
 33
0.0
 14
112.8927808621605493
 24
1446.6320864046210772
 34
0.0
 50
90.0
100
AcDbRotatedDimension
  0
LINE
  5
1A4
100
AcDbEntity
100
AcDbLine
  8
0
 62
256
370
-1
  6
ByLayer
 10
1109.8927808621606346
 20
1437.6320864046210772
 30
0.0
 11
1109.8927808621606346
 21
1446.6320864046210772
 31
0.0
  0
DIMENSION
  5
1A5
100
AcDbEntity
  8
dimesions
 62
256
370
-1
  6
ByLayer
100
AcDbDimension
 10
884.8927808621605209
 20
1544.5045428521261783
 30
0.0
 11
1101.6427808621606346
 21
1555.2545428521261783
 31
0.0
 70
0
 71
5
 72
1
 41
1.0
 42
0.0
  1

  3
Standard
100
AcDbAlignedDimension
 13
1318.3927808621606346
 23
1437.6320864046210772
 33
0.0
 14
884.8927808621605209
 24
1437.6320864046210772
 34
0.0
 50
0.0
100
AcDbRotatedDimension
  0
LINE
  5
1A6
100
AcDbEntity
100
AcDbLine
  8
0
 62
256
370
-1
  6
ByLayer
 10
570.8927808621605209
 20
1202.6320864046210772
 30
0.0
 11
570.8927808621605209
 21
1211.6320864046210772
 31
0.0
  0
LINE
  5
1A7
100
AcDbEntity
100
AcDbLine
  8
0
 62
256
370
-1
  6
ByLayer
 10
740.8927808621605209
 20
1202.6320864046210772
 30
0.0
 11
740.8927808621605209
 21
1211.6320864046210772
 31
0.0
  0
LINE
  5
1A8
100
AcDbEntity
100
AcDbLine
  8
0
 62
256
370
-1
  6
ByLayer
 10
570.8927808621605209
 20
1437.6320864046210772
 30
0.0
 11
570.8927808621605209
 21
1446.6320864046210772
 31
0.0
  0
LINE
  5
1A9
100
AcDbEntity
100
AcDbLine
  8
0
 62
256
370
-1
  6
ByLayer
 10
740.8927808621605209
 20
1437.6320864046210772
 30
0.0
 11
740.8927808621605209
 21
1446.6320864046210772
 31
0.0
  0
LINE
  5
1AA
100
AcDbEntity
100
AcDbLine
  8
0
 62
256
370
-1
  6
ByLayer
 10
655.8927808621605209
 20
1202.6320864046210772
 30
0.0
 11
655.8927808621605209
 21
1211.6320864046210772
 31
0.0
  0
LINE
  5
1AB
100
AcDbEntity
100
AcDbLine
  8
0
 62
256
370
-1
  6
ByLayer
 10
655.8927808621605209
 20
1437.6320864046210772
 30
0.0
 11
655.8927808621605209
 21
1446.6320864046210772
 31
0.0
  0
LINE
  5
1AC
100
AcDbEntity
100
AcDbLine
  8
0
 62
256
370
-1
  6
DASHED
 10
117.3927808621605493
 20
1207.1320864046210772
 30
0.0
 11
570.8927808621605209
 21
1207.1320864046210772
 31
0.0
  0
LINE
  5
1AD
100
AcDbEntity
100
AcDbLine
  8
0
 62
256
370
-1
  6
DASHED
 10
740.8927808621605209
 20
1442.1320864046210772
 30
0.0
 11
1331.8927808621606346
 21
1442.1320864046210772
 31
0.0
  0
LINE
  5
1AE
100
AcDbEntity
100
AcDbLine
  8
0
 62
256
370
-1
  6
DASHED
 10
117.3927808621605493
 20
1442.1320864046210772
 30
0.0
 11
570.8927808621605209
 21
1442.1320864046210772
 31
0.0
  0
LINE
  5
1AF
100
AcDbEntity
100
AcDbLine
  8
0
 62
256
370
-1
  6
DASHED
 10
740.8927808621605209
 20
1207.1320864046210772
 30
0.0
 11
1331.8927808621606346
 21
1207.1320864046210772
 31
0.0
  0
LINE
  5
1B0
100
AcDbEntity
100
AcDbLine
  8
0
 62
256
370
-1
  6
ByLayer
 10
570.8927808621605209
 20
1207.1320864046210772
 30
0.0
 11
740.8927808621605209
 21
1207.1320864046210772
 31
0.0
  0
LINE
  5
1B1
100
AcDbEntity
100
AcDbLine
  8
0
 62
256
370
-1
  6
ByLayer
 10
570.8927808621605209
 20
1442.1320864046210772
 30
0.0
 11
740.8927808621605209
 21
1442.1320864046210772
 31
0.0
  0
DIMENSION
  5
1B2
100
AcDbEntity
  8
dimesions
 62
256
370
-1
  6
ByLayer
100
AcDbDimension
 10
570.8927808621605209
 20
1494.2606810755464721
 30
0.0
 11
556.3927808621605209
 21
1505.0106810755464721
 31
0.0
 70
0
 71
5
 72
1
 41
1.0
 42
0.0
  1

  3
Standard
100
AcDbAlignedDimension
 13
541.8927808621605209
 23
1437.6320864046210772
 33
0.0
 14
570.8927808621605209
 24
1437.6320864046210772
 34
0.0
 50
0.0
100
AcDbRotatedDimension
  0
DIMENSION
  5
1B3
100
AcDbEntity
  8
dimesions
 62
256
370
-1
  6
ByLayer
100
AcDbDimension
 10
740.8927808621605209
 20
1494.2606810755464721
 30
0.0
 11
655.8927808621605209
 21
1505.0106810755464721
 31
0.0
 70
0
 71
5
 72
1
 41
1.0
 42
0.0
  1

  3
Standard
100
AcDbAlignedDimension
 13
570.8927808621605209
 23
1437.6320864046210772
 33
0.0
 14
740.8927808621605209
 24
1437.6320864046210772
 34
0.0
 50
0.0
100
AcDbRotatedDimension
  0
INSERT
  5
1B4
100
AcDbEntity
100
AcDbBlockReference
  8
doors
 62
256
370
-1
  6
ByLayer
  2
door80verright
 10
1318.3927808621606346
 20
1192.6320864046213046
 30
0.0
 41
1.0
 42
-1.0
 43
1.0
 50
180.0
 44
1.0
 45
1.0
  0
LINE
  5
1B5
100
AcDbEntity
100
AcDbLine
  8
deck-outside
 62
256
370
-1
  6
ByLayer
 10
1318.3927808621606346
 20
1202.6320864046213046
 30
0.0
 11
1318.3927808621606346
 21
1192.6320864046213046
 31
0.0
  0
LINE
  5
1B6
100
AcDbEntity
100
AcDbLine
  8
deck-outside
 62
256
370
-1
  6
ByLayer
 10
1318.3927808621606346
 20
1192.6320864046213046
 30
0.0
 11
1328.3927808621606346
 21
1192.6320864046213046
 31
0.0
  0
LINE
  5
1B7
100
AcDbEntity
100
AcDbLine
  8
deck-outside
 62
256
370
-1
  6
ByLayer
 10
1328.3927808621606346
 20
1192.6320864046213046
 30
0.0
 11
1328.3927808621606346
 21
1202.6320864046213046
 31
0.0
  0
LINE
  5
1B8
100
AcDbEntity
100
AcDbLine
  8
deck-outside
 62
256
370
-1
  6
ByLayer
 10
1318.3927808621606346
 20
1112.6320864046213046
 30
0.0
 11
1328.3927808621606346
 21
1112.6320864046213046
 31
0.0
  0
INSERT
  5
1B9
100
AcDbEntity
100
AcDbBlockReference
  8
doors
 62
256
370
-1
  6
ByLayer
  2
door80verright
 10
122.8927808621605493
 20
1192.6320864046213046
 30
0.0
 44
1.0
 45
1.0
  0
LINE
  5
1BA
100
AcDbEntity
100
AcDbLine
  8
deck-outside
 62
256
370
-1
  6
ByLayer
 10
122.8927808621605493
 20
1202.6320864046213046
 30
0.0
 11
122.8927808621605493
 21
1192.6320864046213046
 31
0.0
  0
LINE
  5
1BB
100
AcDbEntity
100
AcDbLine
  8
deck-outside
 62
256
370
-1
  6
ByLayer
 10
122.8927808621605493
 20
1192.6320864046213046
 30
0.0
 11
112.8927808621605493
 21
1192.6320864046213046
 31
0.0
  0
LINE
  5
1BC
100
AcDbEntity
100
AcDbLine
  8
deck-outside
 62
256
370
-1
  6
ByLayer
 10
112.8927808621605493
 20
1192.6320864046213046
 30
0.0
 11
112.8927808621605493
 21
1202.6320864046213046
 31
0.0
  0
LINE
  5
1BD
100
AcDbEntity
100
AcDbLine
  8
deck-outside
 62
256
370
-1
  6
ByLayer
 10
122.8927808621605493
 20
1112.6320864046213046
 30
0.0
 11
112.8927808621605067
 21
1112.6320864046213046
 31
0.0
  0
LINE
  5
1BE
100
AcDbEntity
100
AcDbLine
  8
deck-outside
 62
256
370
-1
  6
ByLayer
 10
112.8927808621605067
 20
1112.6320864046213046
 30
0.0
 11
112.8927808621606346
 21
1082.6320864046210772
 31
0.0
  0
LINE
  5
1BF
100
AcDbEntity
100
AcDbLine
  8
deck-outside
 62
256
370
-1
  6
ByLayer
 10
122.8927808621605067
 20
1082.6320864046210772
 30
0.0
 11
122.8927808621605493
 21
1112.6320864046213046
 31
0.0
  0
LINE
  5
1C0
100
AcDbEntity
100
AcDbLine
  8
deck-outside
 62
256
370
-1
  6
ByLayer
 10
1318.3927808621606346
 20
1082.6320864046210772
 30
0.0
 11
1318.3927808621606346
 21
1112.6320864046213046
 31
0.0
  0
LINE
  5
1C1
100
AcDbEntity
100
AcDbLine
  8
deck-outside
 62
256
370
-1
  6
ByLayer
 10
1328.3927808621606346
 20
1112.6320864046213046
 30
0.0
 11
1328.3927808621606346
 21
1082.6320864046210772
 31
0.0
  0
DIMENSION
  5
1C2
100
AcDbEntity
  8
dimesions
 62
256
370
-1
  6
ByLayer
100
AcDbDimension
 10
51.648706595977302
 20
1202.6320864046210772
 30
0.0
 11
40.898706595977302
 21
1142.6320864046210772
 31
0.0
 70
0
 71
5
 72
1
 41
1.0
 42
0.0
  1

  3
Standard
100
AcDbAlignedDimension
 13
112.8927808621605493
 23
1082.6320864046210772
 33
0.0
 14
112.8927808621605493
 24
1202.6320864046210772
 34
0.0
 50
90.0
100
AcDbRotatedDimension
  0
DIMENSION
  5
1C3
100
AcDbEntity
  8
dimesions
 62
256
370
-1
  6
ByLayer
100
AcDbDimension
 10
88.0626933175315543
 20
1112.6320864046213046
 30
0.0
 11
77.3126933175315543
 21
1097.6320864046210772
 31
0.0
 70
0
 71
5
 72
1
 41
1.0
 42
0.0
  1

  3
Standard
100
AcDbAlignedDimension
 13
122.8927808621605067
 23
1082.6320864046210772
 33
0.0
 14
122.8927808621605351
 24
1112.6320864046213046
 34
0.0
 50
90.0
100
AcDbRotatedDimension
  0
DIMENSION
  5
1C4
100
AcDbEntity
  8
dimesions
 62
256
370
-1
  6
ByLayer
100
AcDbDimension
 10
88.0626933175315543
 20
1192.6320864046213046
 30
0.0
 11
77.3126933175315543
 21
1152.6320864046213046
 31
0.0
 70
0
 71
5
 72
1
 41
1.0
 42
0.0
  1

  3
Standard
100
AcDbAlignedDimension
 13
122.8927808621605351
 23
1112.6320864046213046
 33
0.0
 14
122.8927808621605493
 24
1192.6320864046213046
 34
0.0
 50
90.0
100
AcDbRotatedDimension
  0
DIMENSION
  5
1C5
100
AcDbEntity
  8
dimesions
 62
256
370
-1
  6
ByLayer
100
AcDbDimension
 10
88.0626933175315543
 20
1202.6320864046213046
 30
0.0
 11
77.3126933175315543
 21
1197.6320864046213046
 31
0.0
 70
0
 71
5
 72
1
 41
1.0
 42
0.0
  1

  3
Standard
100
AcDbAlignedDimension
 13
122.8927808621605493
 23
1192.6320864046213046
 33
0.0
 14
122.8927808621605493
 24
1202.6320864046213046
 34
0.0
 50
90.0
100
AcDbRotatedDimension
  0
MTEXT
  5
1C6
100
AcDbEntity
100
AcDbMText
  8
text
 62
256
370
-1
  6
ByLayer
 10
170.3526635481617575
 20
1099.9495258411479881
 30
0.0
 40
15.0
 41
100.0
 71
7
 72
0
  1
back door
  7
normallatin1
 50
0.0
 73
1
 44
1.0
  0
MTEXT
  5
1C7
100
AcDbEntity
100
AcDbMText
  8
text
 62
256
370
-1
  6
ByLayer
 10
1333.4501594976800334
 20
1148.4119215057112342
 30
0.0
 40
15.0
 41
100.0
 71
7
 72
0
  1
entry
  7
normallatin1
 50
0.0
 73
1
 44
1.0
  0
ENDSEC
  0
SECTION
  2
OBJECTS
  0
DICTIONARY
  5
C
100
AcDbDictionary
280
0
281
1
  3
ACAD_GROUP
350
D
  3
ACAD_LAYOUT
350
1A
  3
ACAD_MLINESTYLE
350
17
  3
ACAD_PLOTSETTINGS
350
19
  3
ACAD_PLOTSTYLENAME
350
E
  3
AcDbVariableDictionary
350
1C8
  0
DICTIONARY
  5
D
100
AcDbDictionary
280
0
281
1
  0
ACDBDICTIONARYWDFLT
  5
E
100
AcDbDictionary
281
1
  3
Normal
350
F
100
AcDbDictionaryWithDefault
340
F
  0
ACDBPLACEHOLDER
  5
F
  0
DICTIONARY
  5
17
100
AcDbDictionary
280
0
281
1
  3
Standard
350
18
  0
MLINESTYLE
  5
18
100
AcDbMlineStyle
  2
STANDARD
 70
0
  3

 62
256
 51
90.0
 52
90.0
 71
2
 49
0.5
 62
256
  6
BYLAYER
 49
-0.5
 62
256
  6
BYLAYER
  0
DICTIONARY
  5
19
100
AcDbDictionary
280
0
281
1
  0
DICTIONARY
  5
1A
100
AcDbDictionary
281
1
  3
Layout1
350
1E
  3
Layout2
350
26
  3
Model
350
22
  0
LAYOUT
  5
1E
100
AcDbPlotSettings
  1

  2
C:\Program Files\AutoCAD 2002\plotters\DWF ePlot (optimized for plotting).pc3
  4

  6

 40
0.0
 41
0.0
 42
0.0
 43
0.0
 44
0.0
 45
0.0
 46
0.0
 47
0.0
 48
0.0
 49
0.0
140
0.0
141
0.0
142
1.0
143
1.0
 70
688
 72
0
 73
0
 74
5
  7

 75
16
147
1.0
148
0.0
149
0.0
100
AcDbLayout
  1
Layout1
 70
1
 71
1
 10
0.0
 20
0.0
 11
420.0
 21
297.0
 12
0.0
 22
0.0
 32
0.0
 14
100000000000000000000.0
 24
100000000000000000000.0
 34
100000000000000000000.0
 15
-100000000000000000000.0
 25
-100000000000000000000.0
 35
-100000000000000000000.0
146
0.0
 13
0.0
 23
0.0
 33
0.0
 16
1.0
 26
0.0
 36
0.0
 17
0.0
 27
1.0
 37
0.0
 76
0
330
1B
  0
LAYOUT
  5
22
100
AcDbPlotSettings
  1

  2
C:\Program Files\AutoCAD 2002\plotters\DWF ePlot (optimized for plotting).pc3
  4

  6

 40
0.0
 41
0.0
 42
0.0
 43
0.0
 44
0.0
 45
0.0
 46
0.0
 47
0.0
 48
0.0
 49
0.0
140
0.0
141
0.0
142
1.0
143
1.0
 70
1712
 72
0
 73
0
 74
0
  7

 75
0
147
1.0
148
0.0
149
0.0
100
AcDbLayout
  1
Model
 70
1
 71
0
 10
0.0
 20
0.0
 11
12.0
 21
9.0
 12
0.0
 22
0.0
 32
0.0
 14
0.0
 24
0.0
 34
0.0
 15
0.0
 25
0.0
 35
0.0
146
0.0
 13
0.0
 23
0.0
 33
0.0
 16
1.0
 26
0.0
 36
0.0
 17
0.0
 27
1.0
 37
0.0
 76
0
330
1F
  0
LAYOUT
  5
26
100
AcDbPlotSettings
  1

  2
C:\Program Files\AutoCAD 2002\plotters\DWF ePlot (optimized for plotting).pc3
  4

  6

 40
0.0
 41
0.0
 42
0.0
 43
0.0
 44
0.0
 45
0.0
 46
0.0
 47
0.0
 48
0.0
 49
0.0
140
0.0
141
0.0
142
1.0
143
1.0
 70
688
 72
0
 73
0
 74
5
  7

 75
16
147
1.0
148
0.0
149
0.0
100
AcDbLayout
  1
Layout2
 70
1
 71
2
 10
0.0
 20
0.0
 11
12.0
 21
9.0
 12
0.0
 22
0.0
 32
0.0
 14
0.0
 24
0.0
 34
0.0
 15
0.0
 25
0.0
 35
0.0
146
0.0
 13
0.0
 23
0.0
 33
0.0
 16
1.0
 26
0.0
 36
0.0
 17
0.0
 27
1.0
 37
0.0
 76
0
330
23
  0
DICTIONARY
  5
1C8
100
AcDbDictionary
281
1
  3
DIMASSOC
350
1CA
  3
HIDETEXT
350
1C9
  0
DICTIONARYVAR
  5
1C9
100
DictionaryVariables
280
0
  1
2
  0
DICTIONARYVAR
  5
1CA
100
DictionaryVariables
280
0
  1
1
  0
ENDSEC
  0
EOF
