999
dxflib 2.2.0.0
  0
SECTION
  2
HEADER
  9
$ACADVER
  1
AC1015
  9
$HANDSEED
  5
FFFF
  9
$SPLINESEGS
 70
8
  9
$DIMEXE
 40
12.5
  9
$DIMLUNIT
 70
2
  9
$GRIDMODE
 70
0
  9
$INSUNITS
 70
5
  9
$DIMADEC
 70
2
  9
$DIMASZ
 40
5.0
  9
$DIMGAP
 40
6.25
  9
$DIMTXT
 40
9.0
  9
$GRIDUNIT
 10
0.0
 20
0.0
  9
$DIMEXO
 40
12.5
  9
$LUPREC
 70
4
  9
$DIMAUNIT
 70
0
  9
$AUPREC
 70
2
  9
$PLIMMIN
 10
0.0
 20
0.0
  9
$LUNITS
 70
2
  9
$PLIMMAX
 10
21.0
 20
29.6999999999999993
  9
$DIMSTYLE
  2
Standard
  9
$AUNITS
 70
0
  0
ENDSEC
  0
SECTION
  2
TABLES
  0
TABLE
  2
VPORT
  5
8
100
AcDbSymbolTable
 70
1
  0
VPORT
  5
30
100
AcDbSymbolTableRecord
100
AcDbViewportTableRecord
  2
*Active
 70
0
 10
0.0
 20
0.0
 11
1.0
 21
1.0
 12
286.3055555555554861
 22
148.5
 13
0.0
 23
0.0
 14
10.0
 24
10.0
 15
10.0
 25
10.0
 16
0.0
 26
0.0
 36
1.0
 17
0.0
 27
0.0
 37
0.0
 40
297.0
 41
1.92798353909465
 42
50.0
 43
0.0
 44
0.0
 50
0.0
 51
0.0
 71
0
 72
100
 73
1
 74
3
 75
1
 76
1
 77
0
 78
0
281
0
 65
1
110
0.0
120
0.0
130
0.0
111
1.0
121
0.0
131
0.0
112
0.0
122
1.0
132
0.0
 79
0
146
0.0
  0
ENDTAB
  0
TABLE
  2
LTYPE
  5
5
100
AcDbSymbolTable
 70
21
  0
LTYPE
  5
14
100
AcDbSymbolTableRecord
100
AcDbLinetypeTableRecord
  2
ByBlock
 70
0
  3

 72
65
 73
0
 40
0.0
  0
LTYPE
  5
15
100
AcDbSymbolTableRecord
100
AcDbLinetypeTableRecord
  2
ByLayer
 70
0
  3

 72
65
 73
0
 40
0.0
  0
LTYPE
  5
16
100
AcDbSymbolTableRecord
100
AcDbLinetypeTableRecord
  2
CONTINUOUS
 70
0
  3
Solid line
 72
65
 73
0
 40
0.0
  0
LTYPE
  5
31
100
AcDbSymbolTableRecord
100
AcDbLinetypeTableRecord
  2
DOT
 70
0
  3
Dot . . . . . . . . . . . . . . . . . . . . . .
 72
65
 73
2
 40
6.3499999999999996
 49
0.0
 74
0
 49
-6.3499999999999996
 74
0
  0
LTYPE
  5
32
100
AcDbSymbolTableRecord
100
AcDbLinetypeTableRecord
  2
DOT2
 70
0
  3
Dot (.5x) .....................................
 72
65
 73
2
 40
3.1749999999999998
 49
0.0
 74
0
 49
-3.1749999999999998
 74
0
  0
LTYPE
  5
33
100
AcDbSymbolTableRecord
100
AcDbLinetypeTableRecord
  2
DOTX2
 70
0
  3
Dot (2x) .  .  .  .  .  .  .  .  .  .  .  .  .
 72
65
 73
2
 40
12.6999999999999993
 49
0.0
 74
0
 49
-12.6999999999999993
 74
0
  0
LTYPE
  5
34
100
AcDbSymbolTableRecord
100
AcDbLinetypeTableRecord
  2
DASHED
 70
0
  3
Dashed __ __ __ __ __ __ __ __ __ __ __ __ __ _
 72
65
 73
2
 40
19.0500000000000007
 49
12.6999999999999993
 74
0
 49
-6.3499999999999996
 74
0
  0
LTYPE
  5
35
100
AcDbSymbolTableRecord
100
AcDbLinetypeTableRecord
  2
DASHED2
 70
0
  3
Dashed (.5x) _ _ _ _ _ _ _ _ _ _ _ _ _ _ _ _ _
 72
65
 73
2
 40
9.5250000000000004
 49
6.3499999999999996
 74
0
 49
-3.1749999999999998
 74
0
  0
LTYPE
  5
36
100
AcDbSymbolTableRecord
100
AcDbLinetypeTableRecord
  2
DASHEDX2
 70
0
  3
Dashed (2x) ____  ____  ____  ____  ____  ___
 72
65
 73
2
 40
38.1000000000000014
 49
25.3999999999999986
 74
0
 49
-12.6999999999999993
 74
0
  0
LTYPE
  5
37
100
AcDbSymbolTableRecord
100
AcDbLinetypeTableRecord
  2
DASHDOT
 70
0
  3
Dash dot __ . __ . __ . __ . __ . __ . __ . __
 72
65
 73
4
 40
25.3999999999999986
 49
12.6999999999999993
 74
0
 49
-6.3499999999999996
 74
0
 49
0.0
 74
0
 49
-6.3499999999999996
 74
0
  0
LTYPE
  5
38
100
AcDbSymbolTableRecord
100
AcDbLinetypeTableRecord
  2
DASHDOT2
 70
0
  3
Dash dot (.5x) _._._._._._._._._._._._._._._.
 72
65
 73
4
 40
12.6999999999999993
 49
6.3499999999999996
 74
0
 49
-3.1749999999999998
 74
0
 49
0.0
 74
0
 49
-3.1749999999999998
 74
0
  0
LTYPE
  5
39
100
AcDbSymbolTableRecord
100
AcDbLinetypeTableRecord
  2
DASHDOTX2
 70
0
  3
Dash dot (2x) ____  .  ____  .  ____  .  ___
 72
65
 73
4
 40
50.7999999999999972
 49
25.3999999999999986
 74
0
 49
-12.6999999999999993
 74
0
 49
0.0
 74
0
 49
-12.6999999999999993
 74
0
  0
LTYPE
  5
3A
100
AcDbSymbolTableRecord
100
AcDbLinetypeTableRecord
  2
DIVIDE
 70
0
  3
Divide ____ . . ____ . . ____ . . ____ . . ____
 72
65
 73
6
 40
31.75
 49
12.6999999999999993
 74
0
 49
-6.3499999999999996
 74
0
 49
0.0
 74
0
 49
-6.3499999999999996
 74
0
 49
0.0
 74
0
 49
-6.3499999999999996
 74
0
  0
LTYPE
  5
3B
100
AcDbSymbolTableRecord
100
AcDbLinetypeTableRecord
  2
DIVIDE2
 70
0
  3
Divide (.5x) __..__..__..__..__..__..__..__.._
 72
65
 73
6
 40
15.875
 49
6.3499999999999996
 74
0
 49
-3.1749999999999998
 74
0
 49
0.0
 74
0
 49
-3.1749999999999998
 74
0
 49
0.0
 74
0
 49
-3.1749999999999998
 74
0
  0
LTYPE
  5
3C
100
AcDbSymbolTableRecord
100
AcDbLinetypeTableRecord
  2
DIVIDEX2
 70
0
  3
Divide (2x) ________  .  .  ________  .  .  _
 72
65
 73
6
 40
63.5
 49
25.3999999999999986
 74
0
 49
-12.6999999999999993
 74
0
 49
0.0
 74
0
 49
-12.6999999999999993
 74
0
 49
0.0
 74
0
 49
-12.6999999999999993
 74
0
  0
LTYPE
  5
3D
100
AcDbSymbolTableRecord
100
AcDbLinetypeTableRecord
  2
CENTER
 70
0
  3
Center ____ _ ____ _ ____ _ ____ _ ____ _ ____
 72
65
 73
4
 40
50.7999999999999972
 49
31.75
 74
0
 49
-6.3499999999999996
 74
0
 49
6.3499999999999996
 74
0
 49
-6.3499999999999996
 74
0
  0
LTYPE
  5
3E
100
AcDbSymbolTableRecord
100
AcDbLinetypeTableRecord
  2
CENTER2
 70
0
  3
Center (.5x) ___ _ ___ _ ___ _ ___ _ ___ _ ___
 72
65
 73
4
 40
28.5749999999999993
 49
19.0500000000000007
 74
0
 49
-3.1749999999999998
 74
0
 49
3.1749999999999998
 74
0
 49
-3.1749999999999998
 74
0
  0
LTYPE
  5
3F
100
AcDbSymbolTableRecord
100
AcDbLinetypeTableRecord
  2
CENTERX2
 70
0
  3
Center (2x) ________  __  ________  __  _____
 72
65
 73
4
 40
101.5999999999999943
 49
63.5
 74
0
 49
-12.6999999999999993
 74
0
 49
12.6999999999999993
 74
0
 49
-12.6999999999999993
 74
0
  0
LTYPE
  5
40
100
AcDbSymbolTableRecord
100
AcDbLinetypeTableRecord
  2
BORDER
 70
0
  3
Border __ __ . __ __ . __ __ . __ __ . __ __ .
 72
65
 73
6
 40
44.4500000000000028
 49
12.6999999999999993
 74
0
 49
-6.3499999999999996
 74
0
 49
12.6999999999999993
 74
0
 49
-6.3499999999999996
 74
0
 49
0.0
 74
0
 49
-6.3499999999999996
 74
0
  0
LTYPE
  5
41
100
AcDbSymbolTableRecord
100
AcDbLinetypeTableRecord
  2
BORDER2
 70
0
  3
Border (.5x) __.__.__.__.__.__.__.__.__.__.__.
 72
65
 73
6
 40
22.2250000000000014
 49
6.3499999999999996
 74
0
 49
-3.1749999999999998
 74
0
 49
6.3499999999999996
 74
0
 49
-3.1749999999999998
 74
0
 49
0.0
 74
0
 49
-3.1749999999999998
 74
0
  0
LTYPE
  5
42
100
AcDbSymbolTableRecord
100
AcDbLinetypeTableRecord
  2
BORDERX2
 70
0
  3
Border (2x) ____  ____  .  ____  ____  .  ___
 72
65
 73
6
 40
88.9000000000000057
 49
25.3999999999999986
 74
0
 49
-12.6999999999999993
 74
0
 49
25.3999999999999986
 74
0
 49
-12.6999999999999993
 74
0
 49
0.0
 74
0
 49
-12.6999999999999993
 74
0
  0
ENDTAB
  0
TABLE
  2
LAYER
  5
2
100
AcDbSymbolTable
 70
9
  0
LAYER
  5
10
100
AcDbSymbolTableRecord
100
AcDbLayerTableRecord
  2
0
 70
0
 62
7
  6
CONTINUOUS
290
1
370
0
390
F
  0
LAYER
  5
43
100
AcDbSymbolTableRecord
100
AcDbLayerTableRecord
  2
dimesions
 70
0
 62
5
  6
CONTINUOUS
290
1
370
0
390
F
  0
LAYER
  5
44
100
AcDbSymbolTableRecord
100
AcDbLayerTableRecord
  2
bogus
 70
0
 62
3
  6
DOT
290
1
370
0
390
F
  0
LAYER
  5
45
100
AcDbSymbolTableRecord
100
AcDbLayerTableRecord
  2
fixtures
 70
0
 62
3
  6
CONTINUOUS
290
1
370
0
390
F
  0
LAYER
  5
46
100
AcDbSymbolTableRecord
100
AcDbLayerTableRecord
  2
doors
 70
0
 62
6
  6
CONTINUOUS
290
1
370
0
390
F
  0
LAYER
  5
47
100
AcDbSymbolTableRecord
100
AcDbLayerTableRecord
  2
eletrical
 70
0
 62
1
  6
CONTINUOUS
290
1
370
0
390
F
  0
LAYER
  5
48
100
AcDbSymbolTableRecord
100
AcDbLayerTableRecord
  2
text
 70
0
 62
7
  6
CONTINUOUS
290
1
370
0
390
F
  0
LAYER
  5
49
100
AcDbSymbolTableRecord
100
AcDbLayerTableRecord
  2
deck
 70
0
 62
222
  6
CONTINUOUS
290
1
370
0
390
F
  0
LAYER
  5
4A
100
AcDbSymbolTableRecord
100
AcDbLayerTableRecord
  2
tatami
 70
0
 62
30
  6
DOT2
290
1
370
0
390
F
  0
ENDTAB
  0
TABLE
  2
STYLE
  5
3
100
AcDbSymbolTable
 70
1
  0
STYLE
  5
11
100
AcDbSymbolTableRecord
100
AcDbTextStyleTableRecord
  2
Standard
 70
0
 40
0.0
 41
0.75
 50
0.0
 71
0
 42
2.5
  3
txt
  4

  0
ENDTAB
  0
TABLE
  2
VIEW
  5
6
100
AcDbSymbolTable
 70
0
  0
ENDTAB
  0
TABLE
  2
UCS
  5
7
100
AcDbSymbolTable
 70
0
  0
ENDTAB
  0
TABLE
  2
APPID
  5
9
100
AcDbSymbolTable
 70
1
  0
APPID
  5
12
100
AcDbSymbolTableRecord
100
AcDbRegAppTableRecord
  2
ACAD
 70
0
  0
ENDTAB
  0
TABLE
  2
DIMSTYLE
  5
A
100
AcDbSymbolTable
 70
1
100
AcDbDimStyleTable
 71
0
  0
DIMSTYLE
105
27
100
AcDbSymbolTableRecord
100
AcDbDimStyleTableRecord
  2
Standard
 41
5.0
 42
12.5
 43
3.75
 44
12.5
 70
0
 73
0
 74
0
 77
1
 78
8
140
9.0
141
2.5
143
0.03937007874016
147
6.25
171
3
172
1
271
2
272
2
274
3
278
44
283
0
284
8
340
11
  0
ENDTAB
  0
TABLE
  2
BLOCK_RECORD
  5
1
100
AcDbSymbolTable
 70
1
  0
BLOCK_RECORD
  5
1F
100
AcDbSymbolTableRecord
100
AcDbBlockTableRecord
  2
*Model_Space
340
22
  0
BLOCK_RECORD
  5
1B
100
AcDbSymbolTableRecord
100
AcDbBlockTableRecord
  2
*Paper_Space
340
1E
  0
BLOCK_RECORD
  5
23
100
AcDbSymbolTableRecord
100
AcDbBlockTableRecord
  2
*Paper_Space0
340
26
  0
BLOCK_RECORD
  5
4B
100
AcDbSymbolTableRecord
100
AcDbBlockTableRecord
  2
door60verleft
340
0
  0
BLOCK_RECORD
  5
4C
100
AcDbSymbolTableRecord
100
AcDbBlockTableRecord
  2
door71verleft
340
0
  0
BLOCK_RECORD
  5
4D
100
AcDbSymbolTableRecord
100
AcDbBlockTableRecord
  2
door80verright
340
0
  0
BLOCK_RECORD
  5
4E
100
AcDbSymbolTableRecord
100
AcDbBlockTableRecord
  2
out110hor
340
0
  0
BLOCK_RECORD
  5
4F
100
AcDbSymbolTableRecord
100
AcDbBlockTableRecord
  2
tub-ver
340
0
  0
BLOCK_RECORD
  5
50
100
AcDbSymbolTableRecord
100
AcDbBlockTableRecord
  2
WC-hor-left
340
0
  0
BLOCK_RECORD
  5
51
100
AcDbSymbolTableRecord
100
AcDbBlockTableRecord
  2
out110hor-dwn
340
0
  0
BLOCK_RECORD
  5
52
100
AcDbSymbolTableRecord
100
AcDbBlockTableRecord
  2
standard40
340
0
  0
BLOCK_RECORD
  5
53
100
AcDbSymbolTableRecord
100
AcDbBlockTableRecord
  2
standard40-interiorwall
340
0
  0
BLOCK_RECORD
  5
54
100
AcDbSymbolTableRecord
100
AcDbBlockTableRecord
  2
standard40-outline
340
0
  0
BLOCK_RECORD
  5
55
100
AcDbSymbolTableRecord
100
AcDbBlockTableRecord
  2
KyotoKyomaTatami
340
0
  0
BLOCK_RECORD
  5
56
100
AcDbSymbolTableRecord
100
AcDbBlockTableRecord
  2
KyotoKyomaTatamiHalf
340
0
  0
BLOCK_RECORD
  5
57
100
AcDbSymbolTableRecord
100
AcDbBlockTableRecord
  2
refridge50_60
340
0
  0
BLOCK_RECORD
  5
58
100
AcDbSymbolTableRecord
100
AcDbBlockTableRecord
  2
washer_hor
340
0
  0
BLOCK_RECORD
  5
59
100
AcDbSymbolTableRecord
100
AcDbBlockTableRecord
  2
switch-hor
340
0
  0
ENDTAB
  0
ENDSEC
  0
SECTION
  2
BLOCKS
  0
BLOCK
  5
20
100
AcDbEntity
  8
0
100
AcDbBlockBegin
  2
*Model_Space
 70
0
 10
0.0
 20
0.0
 30
0.0
  3
*Model_Space
  1

  0
ENDBLK
  5
21
100
AcDbEntity
  8
0
100
AcDbBlockEnd
  0
BLOCK
  5
1C
100
AcDbEntity
 67
1
  8
0
100
AcDbBlockBegin
  2
*Paper_Space
 70
0
 10
0.0
 20
0.0
 30
0.0
  3
*Paper_Space
  1

  0
ENDBLK
  5
1D
100
AcDbEntity
 67
1
  8
0
100
AcDbBlockEnd
  0
BLOCK
  5
24
100
AcDbEntity
  8
0
100
AcDbBlockBegin
  2
*Paper_Space0
 70
0
 10
0.0
 20
0.0
 30
0.0
  3
*Paper_Space0
  1

  0
ENDBLK
  5
25
100
AcDbEntity
  8
0
100
AcDbBlockEnd
  0
BLOCK
  5
5A
100
AcDbEntity
  8
0
100
AcDbBlockBegin
  2
door60verleft
 70
0
 10
0.0
 20
0.0
 30
0.0
  3
door60verleft
  1

  0
LINE
  5
5B
100
AcDbEntity
100
AcDbLine
  8
fixtures
 62
6
370
-1
  6
ByLayer
 10
0.0
 20
0.0
 30
0.0
 11
-51.5285115251740962
 21
-29.7500000000000071
 31
0.0
  0
ARC
  5
5C
100
AcDbEntity
  8
fixtures
 62
6
370
-1
  6
ByLayer
100
AcDbCircle
 10
0.0
 20
0.0
 30
0.0
 40
60.0
100
AcDbArc
 50
210.0
 51
270.0
  0
LINE
  5
5D
100
AcDbEntity
100
AcDbLine
  8
fixtures
 62
6
370
-1
  6
ByLayer
 10
2.5
 20
-4.3301270189221981
 30
0.0
 11
-49.0285115251740962
 21
-34.0801270189221981
 31
0.0
  0
LINE
  5
5E
100
AcDbEntity
100
AcDbLine
  8
fixtures
 62
6
370
-1
  6
ByLayer
 10
0.0
 20
0.0
 30
0.0
 11
2.5
 21
-4.3301270189221981
 31
0.0
  0
ENDBLK
  5
5F
100
AcDbEntity
  8
0
100
AcDbBlockEnd
  0
BLOCK
  5
60
100
AcDbEntity
  8
0
100
AcDbBlockBegin
  2
door71verleft
 70
0
 10
0.0
 20
0.0
 30
0.0
  3
door71verleft
  1

  0
LINE
  5
61
100
AcDbEntity
100
AcDbLine
  8
doors
 62
256
370
-1
  6
ByLayer
 10
0.0
 20
0.0
 30
0.0
 11
-61.4878036686951646
 21
-35.5000000000000071
 31
0.0
  0
ARC
  5
62
100
AcDbEntity
  8
doors
 62
256
370
-1
  6
ByLayer
100
AcDbCircle
 10
0.0
 20
0.0
 30
0.0
 40
71.0
100
AcDbArc
 50
210.0
 51
269.9999999999999432
  0
LINE
  5
63
100
AcDbEntity
100
AcDbLine
  8
doors
 62
256
370
-1
  6
ByLayer
 10
2.5
 20
-4.3301270189221981
 30
0.0
 11
-58.9878036686951646
 21
-39.8301270189221981
 31
0.0
  0
LINE
  5
64
100
AcDbEntity
100
AcDbLine
  8
doors
 62
256
370
-1
  6
ByLayer
 10
0.0
 20
0.0
 30
0.0
 11
2.5
 21
-4.3301270189221981
 31
0.0
  0
ENDBLK
  5
65
100
AcDbEntity
  8
0
100
AcDbBlockEnd
  0
BLOCK
  5
66
100
AcDbEntity
  8
0
100
AcDbBlockBegin
  2
door80verright
 70
0
 10
0.0
 20
0.0
 30
0.0
  3
door80verright
  1

  0
LINE
  5
67
100
AcDbEntity
100
AcDbLine
  8
doors
 62
256
370
-1
  6
ByLayer
 10
0.0
 20
0.0
 30
0.0
 11
51.4230087749231188
 21
-61.2835554495182464
 31
0.0
  0
ARC
  5
68
100
AcDbEntity
  8
doors
 62
256
370
-1
  6
ByLayer
100
AcDbCircle
 10
0.0
 20
0.0
 30
0.0
 40
80.0
100
AcDbArc
 50
270.0
 51
309.9999999999999432
  0
LINE
  5
69
100
AcDbEntity
100
AcDbLine
  8
doors
 62
256
370
-1
  6
ByLayer
 10
-3.8302222155948584
 20
-3.2139380484326807
 30
0.0
 11
47.5927865593282604
 21
-64.4974934979509413
 31
0.0
  0
LINE
  5
6A
100
AcDbEntity
100
AcDbLine
  8
doors
 62
256
370
-1
  6
ByLayer
 10
0.0
 20
0.0
 30
0.0
 11
-3.8302222155948584
 21
-3.2139380484326807
 31
0.0
  0
ENDBLK
  5
6B
100
AcDbEntity
  8
0
100
AcDbBlockEnd
  0
BLOCK
  5
6C
100
AcDbEntity
  8
0
100
AcDbBlockBegin
  2
out110hor
 70
0
 10
0.0
 20
0.0
 30
0.0
  3
out110hor
  1

  0
CIRCLE
  5
6D
100
AcDbEntity
100
AcDbCircle
  8
eletrical
 62
256
370
-1
  6
ByLayer
 10
1.923833067930623
 20
9.3156922990824143
 30
0.0
 40
5.0
  0
LINE
  5
6E
100
AcDbEntity
100
AcDbLine
  8
eletrical
 62
256
370
-1
  6
ByLayer
 10
3.628960766971737
 20
0.0
 30
0.0
 11
3.628960766971737
 21
16.1186024643239421
 31
0.0
  0
LINE
  5
6F
100
AcDbEntity
100
AcDbLine
  8
eletrical
 62
256
370
-1
  6
ByLayer
 10
0.0
 20
0.0
 30
0.0
 11
0.0
 21
16.1186024643239421
 31
0.0
  0
ENDBLK
  5
70
100
AcDbEntity
  8
0
100
AcDbBlockEnd
  0
BLOCK
  5
71
100
AcDbEntity
  8
0
100
AcDbBlockBegin
  2
tub-ver
 70
0
 10
0.0
 20
0.0
 30
0.0
  3
tub-ver
  1

  0
ARC
  5
72
100
AcDbEntity
  8
0
 62
3
370
-1
  6
ByLayer
100
AcDbCircle
 10
5.0
 20
0.0
 30
0.0
 40
5.0
100
AcDbArc
 50
90.0
 51
180.0
  0
LINE
  5
73
100
AcDbEntity
100
AcDbLine
  8
0
 62
3
370
-1
  6
ByLayer
 10
5.0
 20
5.0
 30
0.0
 11
53.0000000000000071
 21
5.0
 31
0.0
  0
ARC
  5
74
100
AcDbEntity
  8
0
 62
3
370
-1
  6
ByLayer
100
AcDbCircle
 10
53.0000000000000071
 20
0.0
 30
0.0
 40
5.0
100
AcDbArc
 50
0.0
 51
90.0
  0
LINE
  5
75
100
AcDbEntity
100
AcDbLine
  8
0
 62
3
370
-1
  6
ByLayer
 10
58.0000000000000071
 20
-86.9999999999999858
 30
0.0
 11
58.0000000000000071
 21
0.0
 31
0.0
  0
ARC
  5
76
100
AcDbEntity
  8
0
 62
3
370
-1
  6
ByLayer
100
AcDbCircle
 10
53.0000000000000071
 20
-86.9999999999999858
 30
0.0
 40
5.0
100
AcDbArc
 50
270.0
 51
0.0
  0
LINE
  5
77
100
AcDbEntity
100
AcDbLine
  8
0
 62
3
370
-1
  6
ByLayer
 10
4.9999999999999716
 20
-91.9999999999999858
 30
0.0
 11
53.0000000000000071
 21
-91.9999999999999858
 31
0.0
  0
LINE
  5
78
100
AcDbEntity
100
AcDbLine
  8
0
 62
3
370
-1
  6
ByLayer
 10
-0.0000000000000284
 20
-86.9999999999999858
 30
0.0
 11
0.0
 21
0.0
 31
0.0
  0
ARC
  5
79
100
AcDbEntity
  8
0
 62
3
370
-1
  6
ByLayer
100
AcDbCircle
 10
4.9999999999999716
 20
-86.9999999999999858
 30
0.0
 40
5.0
100
AcDbArc
 50
180.0
 51
270.0
  0
ENDBLK
  5
7A
100
AcDbEntity
  8
0
100
AcDbBlockEnd
  0
BLOCK
  5
7B
100
AcDbEntity
  8
0
100
AcDbBlockBegin
  2
WC-hor-left
 70
0
 10
0.0
 20
0.0
 30
0.0
  3
WC-hor-left
  1

  0
LINE
  5
7C
100
AcDbEntity
100
AcDbLine
  8
fixtures
 62
256
370
-1
  6
ByLayer
 10
0.0
 20
0.0
 30
0.0
 11
20.0
 21
0.0
 31
0.0
  0
LINE
  5
7D
100
AcDbEntity
100
AcDbLine
  8
fixtures
 62
256
370
-1
  6
ByLayer
 10
0.0
 20
0.0
 30
0.0
 11
0.0
 21
47.0
 31
0.0
  0
LINE
  5
7E
100
AcDbEntity
100
AcDbLine
  8
fixtures
 62
256
370
-1
  6
ByLayer
 10
20.0
 20
0.0
 30
0.0
 11
20.0
 21
47.0
 31
0.0
  0
LINE
  5
7F
100
AcDbEntity
100
AcDbLine
  8
fixtures
 62
256
370
-1
  6
ByLayer
 10
0.0
 20
47.0
 30
0.0
 11
20.0
 21
47.0
 31
0.0
  0
ELLIPSE
  5
80
100
AcDbEntity
100
AcDbEllipse
  8
fixtures
 62
256
370
-1
  6
ByLayer
 10
48.383983460600291
 20
22.8898383817995068
 30
0.0
 11
23.8828093948296072
 21
-0.663411372078599
 31
0.0
 40
0.6156515034695453
 41
0.0
 42
6.2831853071795862
  0
MTEXT
  5
81
100
AcDbEntity
100
AcDbMText
  8
text
 62
256
370
-1
  6
ByLayer
 10
80.8402745876098265
 20
8.7561304533611377
 30
0.0
 40
15.0
 41
100.0
 71
1
 72
2
  1
WC
  7
iso
 50
0.0
 73
1
 44
1.0
  0
ENDBLK
  5
82
100
AcDbEntity
  8
0
100
AcDbBlockEnd
  0
BLOCK
  5
83
100
AcDbEntity
  8
0
100
AcDbBlockBegin
  2
out110hor-dwn
 70
0
 10
0.0
 20
0.0
 30
0.0
  3
out110hor-dwn
  1

  0
INSERT
  5
84
100
AcDbEntity
100
AcDbBlockReference
  8
eletrical
 62
256
370
-1
  6
ByLayer
  2
out110hor
 10
0.0
 20
0.0
 30
0.0
 50
180.0
 44
1.0
 45
1.0
  0
ENDBLK
  5
85
100
AcDbEntity
  8
0
100
AcDbBlockEnd
  0
BLOCK
  5
86
100
AcDbEntity
  8
0
100
AcDbBlockBegin
  2
standard40
 70
0
 10
0.0
 20
0.0
 30
0.0
  3
standard40
  1

  0
LINE
  5
87
100
AcDbEntity
100
AcDbLine
  8
0
 62
256
370
-1
  6
ByLayer
 10
0.0
 20
0.0000000000001705
 30
0.0
 11
0.0
 21
244.0000000000001705
 31
0.0
  0
LINE
  5
88
100
AcDbEntity
100
AcDbLine
  8
0
 62
256
370
-1
  6
ByLayer
 10
0.0
 20
243.9999999999999432
 30
0.0
 11
1219.0
 21
243.9999999999999432
 31
0.0
  0
LINE
  5
89
100
AcDbEntity
100
AcDbLine
  8
0
 62
256
370
-1
  6
ByLayer
 10
0.0
 20
0.0
 30
0.0
 11
1219.0
 21
0.0
 31
0.0
  0
LINE
  5
8A
100
AcDbEntity
100
AcDbLine
  8
0
 62
256
370
-1
  6
ByLayer
 10
1219.0
 20
0.0
 30
0.0
 11
1219.0
 21
243.9999999999999432
 31
0.0
  0
LINE
  5
8B
100
AcDbEntity
100
AcDbLine
  8
0
 62
256
370
-1
  6
ByLayer
 10
4.5
 20
239.4999999999999432
 30
0.0
 11
1219.0
 21
239.4999999999999432
 31
0.0
  0
LINE
  5
8C
100
AcDbEntity
100
AcDbLine
  8
0
 62
256
370
-1
  6
ByLayer
 10
4.5
 20
4.5
 30
0.0
 11
1219.0
 21
4.5
 31
0.0
  0
LINE
  5
8D
100
AcDbEntity
100
AcDbLine
  8
0
 62
256
370
-1
  6
ByLayer
 10
4.5
 20
4.5
 30
0.0
 11
4.5
 21
239.4999999999999432
 31
0.0
  0
LINE
  5
8E
100
AcDbEntity
100
AcDbLine
  8
0
 62
256
370
-1
  6
ByLayer
 10
1205.5
 20
4.5
 30
0.0
 11
1205.5
 21
239.4999999999999432
 31
0.0
  0
ENDBLK
  5
8F
100
AcDbEntity
  8
0
100
AcDbBlockEnd
  0
BLOCK
  5
90
100
AcDbEntity
  8
0
100
AcDbBlockBegin
  2
standard40-interiorwall
 70
0
 10
0.0
 20
0.0
 30
0.0
  3
standard40-interiorwall
  1

  0
LINE
  5
91
100
AcDbEntity
100
AcDbLine
  8
0
 62
256
370
-1
  6
ByLayer
 10
0.0
 20
0.0000000000002274
 30
0.0
 11
0.0
 21
244.0000000000002274
 31
0.0
  0
LINE
  5
92
100
AcDbEntity
100
AcDbLine
  8
0
 62
256
370
-1
  6
ByLayer
 10
0.0
 20
244.0
 30
0.0
 11
1219.0
 21
244.0
 31
0.0
  0
LINE
  5
93
100
AcDbEntity
100
AcDbLine
  8
0
 62
256
370
-1
  6
ByLayer
 10
0.0
 20
0.0
 30
0.0
 11
1219.0
 21
0.0
 31
0.0
  0
LINE
  5
94
100
AcDbEntity
100
AcDbLine
  8
0
 62
256
370
-1
  6
ByLayer
 10
1219.0
 20
0.0
 30
0.0
 11
1219.0
 21
244.0
 31
0.0
  0
LINE
  5
95
100
AcDbEntity
100
AcDbLine
  8
0
 62
256
370
-1
  6
ByLayer
 10
9.0
 20
235.0
 30
0.0
 11
1219.0
 21
235.0
 31
0.0
  0
LINE
  5
96
100
AcDbEntity
100
AcDbLine
  8
0
 62
256
370
-1
  6
ByLayer
 10
9.0
 20
9.0
 30
0.0
 11
1219.0
 21
9.0
 31
0.0
  0
LINE
  5
97
100
AcDbEntity
100
AcDbLine
  8
0
 62
256
370
-1
  6
ByLayer
 10
9.0
 20
9.0
 30
0.0
 11
9.0
 21
235.0
 31
0.0
  0
LINE
  5
98
100
AcDbEntity
100
AcDbLine
  8
0
 62
256
370
-1
  6
DASHED
 10
4.5
 20
239.5
 30
0.0
 11
1219.0
 21
239.5
 31
0.0
  0
LINE
  5
99
100
AcDbEntity
100
AcDbLine
  8
0
 62
256
370
-1
  6
DASHED
 10
4.5
 20
4.5
 30
0.0
 11
1219.0
 21
4.5
 31
0.0
  0
LINE
  5
9A
100
AcDbEntity
100
AcDbLine
  8
0
 62
256
370
-1
  6
DASHED
 10
4.5
 20
4.5
 30
0.0
 11
4.5
 21
239.5
 31
0.0
  0
LINE
  5
9B
100
AcDbEntity
100
AcDbLine
  8
0
 62
256
370
-1
  6
ByLayer
 10
1205.5
 20
9.0
 30
0.0
 11
1205.5
 21
235.0
 31
0.0
  0
ENDBLK
  5
9C
100
AcDbEntity
  8
0
100
AcDbBlockEnd
  0
BLOCK
  5
9D
100
AcDbEntity
  8
0
100
AcDbBlockBegin
  2
standard40-outline
 70
0
 10
0.0
 20
0.0
 30
0.0
  3
standard40-outline
  1

  0
LINE
  5
9E
100
AcDbEntity
100
AcDbLine
  8
0
 62
256
370
-1
  6
DASHEDX2
 10
0.0
 20
0.0
 30
0.0
 11
0.0
 21
244.0
 31
0.0
  0
LINE
  5
9F
100
AcDbEntity
100
AcDbLine
  8
0
 62
256
370
-1
  6
DASHEDX2
 10
0.0
 20
243.9999999999997726
 30
0.0
 11
1219.0000000000002274
 21
243.9999999999997726
 31
0.0
  0
LINE
  5
A0
100
AcDbEntity
100
AcDbLine
  8
0
 62
256
370
-1
  6
DASHEDX2
 10
0.0
 20
-0.0000000000002274
 30
0.0
 11
1219.0000000000002274
 21
-0.0000000000002274
 31
0.0
  0
LINE
  5
A1
100
AcDbEntity
100
AcDbLine
  8
0
 62
256
370
-1
  6
DASHEDX2
 10
1219.0000000000002274
 20
-0.0000000000002274
 30
0.0
 11
1219.0000000000002274
 21
243.9999999999997726
 31
0.0
  0
ENDBLK
  5
A2
100
AcDbEntity
  8
0
100
AcDbBlockEnd
  0
BLOCK
  5
A3
100
AcDbEntity
  8
0
100
AcDbBlockBegin
  2
KyotoKyomaTatami
 70
0
 10
0.0
 20
0.0
 30
0.0
  3
KyotoKyomaTatami
  1

  0
LINE
  5
A4
100
AcDbEntity
100
AcDbLine
  8
tatami
 62
256
370
-1
  6
ByLayer
 10
0.0
 20
0.0
 30
0.0
 11
0.0
 21
95.5
 31
0.0
  0
LINE
  5
A5
100
AcDbEntity
100
AcDbLine
  8
tatami
 62
256
370
-1
  6
ByLayer
 10
191.0
 20
0.0
 30
0.0
 11
191.0
 21
95.5
 31
0.0
  0
LINE
  5
A6
100
AcDbEntity
100
AcDbLine
  8
tatami
 62
256
370
-1
  6
ByLayer
 10
0.0
 20
95.5
 30
0.0
 11
191.0
 21
95.5
 31
0.0
  0
LINE
  5
A7
100
AcDbEntity
100
AcDbLine
  8
tatami
 62
256
370
-1
  6
ByLayer
 10
0.0
 20
0.0
 30
0.0
 11
191.0
 21
0.0
 31
0.0
  0
LINE
  5
A8
100
AcDbEntity
100
AcDbLine
  8
tatami
 62
256
370
-1
  6
ByLayer
 10
0.0
 20
93.0
 30
0.0
 11
191.0
 21
93.0
 31
0.0
  0
LINE
  5
A9
100
AcDbEntity
100
AcDbLine
  8
tatami
 62
256
370
-1
  6
ByLayer
 10
188.5
 20
0.0
 30
0.0
 11
188.5
 21
95.5
 31
0.0
  0
LINE
  5
AA
100
AcDbEntity
100
AcDbLine
  8
tatami
 62
256
370
-1
  6
ByLayer
 10
2.5
 20
0.0
 30
0.0
 11
2.5
 21
95.5
 31
0.0
  0
LINE
  5
AB
100
AcDbEntity
100
AcDbLine
  8
tatami
 62
256
370
-1
  6
ByLayer
 10
0.0
 20
2.5
 30
0.0
 11
191.0
 21
2.5
 31
0.0
  0
LINE
  5
AC
100
AcDbEntity
100
AcDbLine
  8
tatami
 62
256
370
-1
  6
ByLayer
 10
95.5
 20
0.0
 30
0.0
 11
95.5
 21
2.5
 31
0.0
  0
LINE
  5
AD
100
AcDbEntity
100
AcDbLine
  8
tatami
 62
256
370
-1
  6
ByLayer
 10
95.5
 20
93.0
 30
0.0
 11
95.5
 21
95.5
 31
0.0
  0
ENDBLK
  5
AE
100
AcDbEntity
  8
0
100
AcDbBlockEnd
  0
BLOCK
  5
AF
100
AcDbEntity
  8
0
100
AcDbBlockBegin
  2
KyotoKyomaTatamiHalf
 70
0
 10
0.0
 20
0.0
 30
0.0
  3
KyotoKyomaTatamiHalf
  1

  0
LINE
  5
B0
100
AcDbEntity
100
AcDbLine
  8
tatami
 62
256
370
-1
  6
ByLayer
 10
0.0
 20
95.5
 30
0.0
 11
95.5
 21
95.5
 31
0.0
  0
LINE
  5
B1
100
AcDbEntity
100
AcDbLine
  8
tatami
 62
256
370
-1
  6
ByLayer
 10
0.0
 20
0.0
 30
0.0
 11
95.5
 21
0.0
 31
0.0
  0
LINE
  5
B2
100
AcDbEntity
100
AcDbLine
  8
tatami
 62
256
370
-1
  6
ByLayer
 10
0.0
 20
0.0
 30
0.0
 11
0.0
 21
95.5
 31
0.0
  0
LINE
  5
B3
100
AcDbEntity
100
AcDbLine
  8
tatami
 62
256
370
-1
  6
ByLayer
 10
95.5
 20
0.0
 30
0.0
 11
95.5
 21
95.5
 31
0.0
  0
LINE
  5
B4
100
AcDbEntity
100
AcDbLine
  8
tatami
 62
256
370
-1
  6
ByLayer
 10
2.5
 20
0.0
 30
0.0
 11
2.5
 21
95.5
 31
0.0
  0
LINE
  5
B5
100
AcDbEntity
100
AcDbLine
  8
tatami
 62
256
370
-1
  6
ByLayer
 10
0.0
 20
93.0
 30
0.0
 11
95.5
 21
93.0
 31
0.0
  0
LINE
  5
B6
100
AcDbEntity
100
AcDbLine
  8
tatami
 62
256
370
-1
  6
ByLayer
 10
93.0
 20
0.0
 30
0.0
 11
93.0
 21
95.5
 31
0.0
  0
LINE
  5
B7
100
AcDbEntity
100
AcDbLine
  8
tatami
 62
256
370
-1
  6
ByLayer
 10
0.0
 20
2.5
 30
0.0
 11
95.5
 21
2.5
 31
0.0
  0
ENDBLK
  5
B8
100
AcDbEntity
  8
0
100
AcDbBlockEnd
  0
BLOCK
  5
B9
100
AcDbEntity
  8
0
100
AcDbBlockBegin
  2
refridge50_60
 70
0
 10
0.0
 20
0.0
 30
0.0
  3
refridge50_60
  1

  0
LINE
  5
BA
100
AcDbEntity
100
AcDbLine
  8
fixtures
 62
256
370
-1
  6
ByLayer
 10
0.0
 20
0.0
 30
0.0
 11
0.0
 21
55.0
 31
0.0
  0
LINE
  5
BB
100
AcDbEntity
100
AcDbLine
  8
fixtures
 62
256
370
-1
  6
ByLayer
 10
60.0
 20
0.0
 30
0.0
 11
60.0
 21
55.0
 31
0.0
  0
LINE
  5
BC
100
AcDbEntity
100
AcDbLine
  8
fixtures
 62
256
370
-1
  6
ByLayer
 10
0.0
 20
50.0
 30
0.0
 11
60.0
 21
50.0
 31
0.0
  0
LINE
  5
BD
100
AcDbEntity
100
AcDbLine
  8
fixtures
 62
256
370
-1
  6
ByLayer
 10
0.0
 20
0.0
 30
0.0
 11
60.0
 21
0.0
 31
0.0
  0
ARC
  5
BE
100
AcDbEntity
  8
fixtures
 62
256
370
-1
  6
ByLayer
100
AcDbCircle
 10
29.9999999999998863
 20
-68.969221137215186
 30
0.0
 40
127.5475118901492664
100
AcDbArc
 50
76.3962062313950128
 51
103.6037937686048878
  0
LINE
  5
BF
100
AcDbEntity
100
AcDbLine
  8
fixtures
 62
256
370
-1
  6
ByLayer
 10
0.0
 20
51.0
 30
0.0
 11
60.0
 21
51.0
 31
0.0
  0
MTEXT
  5
C0
100
AcDbEntity
100
AcDbMText
  8
fixtures
 62
256
370
-1
  6
ByLayer
 10
2.4027917902074023
 20
26.6901409431941374
 30
0.0
 40
20.0
 41
100.0
 71
4
 72
2
  1
Refr
  7
iso
 50
0.0
 73
0
 44
1.0
  0
ENDBLK
  5
C1
100
AcDbEntity
  8
0
100
AcDbBlockEnd
  0
BLOCK
  5
C2
100
AcDbEntity
  8
0
100
AcDbBlockBegin
  2
washer_hor
 70
0
 10
0.0
 20
0.0
 30
0.0
  3
washer_hor
  1

  0
LINE
  5
C3
100
AcDbEntity
100
AcDbLine
  8
fixtures
 62
256
370
-1
  6
ByLayer
 10
52.0
 20
0.0
 30
0.0
 11
52.0
 21
55.0
 31
0.0
  0
LINE
  5
C4
100
AcDbEntity
100
AcDbLine
  8
fixtures
 62
256
370
-1
  6
ByLayer
 10
0.0
 20
0.0
 30
0.0
 11
0.0
 21
55.0
 31
0.0
  0
LINE
  5
C5
100
AcDbEntity
100
AcDbLine
  8
fixtures
 62
256
370
-1
  6
ByLayer
 10
0.0
 20
55.0
 30
0.0
 11
52.0
 21
55.0
 31
0.0
  0
LINE
  5
C6
100
AcDbEntity
100
AcDbLine
  8
fixtures
 62
256
370
-1
  6
ByLayer
 10
0.0
 20
0.0
 30
0.0
 11
52.0
 21
0.0
 31
0.0
  0
CIRCLE
  5
C7
100
AcDbEntity
100
AcDbCircle
  8
fixtures
 62
256
370
-1
  6
ByLayer
 10
26.0
 20
27.5
 30
0.0
 40
19.0247494489576567
  0
LINE
  5
C8
100
AcDbEntity
100
AcDbLine
  8
fixtures
 62
256
370
-1
  6
ByLayer
 10
0.0
 20
5.0
 30
0.0
 11
52.0
 21
5.0
 31
0.0
  0
ENDBLK
  5
C9
100
AcDbEntity
  8
0
100
AcDbBlockEnd
  0
BLOCK
  5
CA
100
AcDbEntity
  8
0
100
AcDbBlockBegin
  2
switch-hor
 70
0
 10
0.0
 20
0.0
 30
0.0
  3
switch-hor
  1

  0
MTEXT
  5
CB
100
AcDbEntity
100
AcDbMText
  8
eletrical
 62
256
370
-1
  6
ByLayer
 10
-4.1474881859601034
 20
12.4289303324727598
 30
0.0
 40
15.0
 41
100.0
 71
4
 72
2
  1
S
  7
iso
 50
0.0
 73
0
 44
1.0
  0
LINE
  5
CC
100
AcDbEntity
100
AcDbLine
  8
eletrical
 62
256
370
-1
  6
ByLayer
 10
0.0
 20
0.0
 30
0.0
 11
0.0
 21
24.709756538595343
 31
0.0
  0
ENDBLK
  5
CD
100
AcDbEntity
  8
0
100
AcDbBlockEnd
  0
ENDSEC
  0
SECTION
  2
ENTITIES
  0
LINE
  5
CE
100
AcDbEntity
100
AcDbLine
  8
deck
 62
256
370
-1
  6
ByLayer
 10
-131.2128242184983264
 20
-210.1490923077745947
 30
0.0
 11
1357.7871757815019009
 21
-210.1490923077745947
 31
0.0
  0
LINE
  5
CF
100
AcDbEntity
100
AcDbLine
  8
0
 62
256
370
-1
  6
ByLayer
 10
3.7871757815014462
 20
-34.2525353728141226
 30
0.0
 11
3.7871757815016736
 21
-210.1490923077745947
 31
0.0
  0
LINE
  5
D0
100
AcDbEntity
100
AcDbLine
  8
0
 62
256
370
-1
  6
ByLayer
 10
1222.7871757815019009
 20
-210.1490923077745947
 30
0.0
 11
1222.7871757815019009
 21
-34.2525353728141226
 31
0.0
  0
LINE
  5
D1
100
AcDbEntity
100
AcDbLine
  8
0
 62
256
370
-1
  6
DASHEDX2
 10
1222.7871757815019009
 20
28.8509076922252916
 30
0.0
 11
3.7871757815014462
 21
28.8509076922254053
 31
0.0
  0
LINE
  5
D2
100
AcDbEntity
100
AcDbLine
  8
0
 62
256
370
-1
  6
DASHEDX2
 10
3.7871757815016736
 20
-230.1490923077745947
 30
0.0
 11
1222.7871757815019009
 21
-230.1490923077745947
 31
0.0
  0
LINE
  5
D3
100
AcDbEntity
100
AcDbLine
  8
0
 62
256
370
-1
  6
DASHEDX2
 10
3.7871757815014462
 20
28.8509076922254053
 30
0.0
 11
3.7871757815014462
 21
-34.2525353728141226
 31
0.0
  0
LINE
  5
D4
100
AcDbEntity
100
AcDbLine
  8
0
 62
256
370
-1
  6
DASHEDX2
 10
1222.7871757815019009
 20
-34.2525353728141226
 30
0.0
 11
1222.7871757815019009
 21
28.8509076922252916
 31
0.0
  0
LINE
  5
D5
100
AcDbEntity
100
AcDbLine
  8
0
 62
256
370
-1
  6
DASHEDX2
 10
3.7871757815016736
 20
-210.1490923077745947
 30
0.0
 11
3.7871757815016736
 21
-230.1490923077745947
 31
0.0
  0
LINE
  5
D6
100
AcDbEntity
100
AcDbLine
  8
0
 62
256
370
-1
  6
DASHEDX2
 10
1222.7871757815019009
 20
-230.1490923077745947
 30
0.0
 11
1222.7871757815019009
 21
-210.1490923077745947
 31
0.0
  0
LINE
  5
D7
100
AcDbEntity
100
AcDbLine
  8
deck
 62
256
370
-1
  6
ByLayer
 10
-131.2128242184980991
 20
-230.1490923077745947
 30
0.0
 11
1357.7871757815019009
 21
-230.1490923077745947
 31
0.0
  0
LWPOLYLINE
  5
D8
  8
deck
 62
256
370
-1
  6
ByLayer
100
AcDbEntity
100
AcDbPolyline
 90
511
 70
0
 10
-214.6798783333299525
 20
-297.9052385661733524
 10
-210.6290671604810996
 20
-297.9052385661733524
 10
-208.6036615740567868
 20
-297.9052385661733524
 10
-206.5782559876322466
 20
-297.9052385661733524
 10
-204.5528504012079338
 20
-297.9052385661733524
 10
-202.527444814783621
 20
-297.9052385661733524
 10
-198.4766336419347681
 20
-297.9052385661733524
 10
-196.4512280555102279
 20
-297.9052385661733524
 10
-194.4258224690859151
 20
-297.9052385661733524
 10
-192.400416882661375
 20
-297.9052385661733524
 10
-190.3750112962370622
 20
-297.9052385661733524
 10
-188.3496057098127494
 20
-297.9052385661733524
 10
-186.3242001233882092
 20
-297.9052385661733524
 10
-184.2987945369638965
 20
-297.9052385661733524
 10
-182.2733889505393563
 20
-297.9052385661733524
 10
-180.2479833641150435
 20
-297.9052385661733524
 10
-178.2225777776905034
 20
-297.9052385661733524
 10
-176.1971721912661906
 20
-297.9052385661733524
 10
-174.1717666048418778
 20
-297.9052385661733524
 10
-170.1209554319930248
 20
-297.9052385661733524
 10
-166.0701442591441719
 20
-297.9052385661733524
 10
-162.0193330862953189
 20
-297.9052385661733524
 10
-159.9939274998710061
 20
-297.9052385661733524
 10
-155.9431163270221532
 20
-297.9052385661733524
 10
-151.8923051541733003
 20
-297.9052385661733524
 10
-147.8414939813244473
 20
-297.9052385661733524
 10
-143.7906828084755944
 20
-297.9052385661733524
 10
-141.7652772220512816
 20
-297.9052385661733524
 10
-137.7144660492024286
 20
-297.9052385661733524
 10
-133.6636548763535757
 20
-297.9052385661733524
 10
-131.6382492899290355
 20
-293.8544273933244995
 10
-127.5874381170804099
 20
-293.8544273933244995
 10
-125.5620325306558698
 20
-293.8544273933244995
 10
-121.5112213578070168
 20
-293.8544273933244995
 10
-117.4604101849581639
 20
-293.8544273933244995
 10
-115.4350045985338511
 20
-293.8544273933244995
 10
-109.3587878392606854
 20
-293.8544273933244995
 10
-107.3333822528361452
 20
-293.8544273933244995
 10
-105.3079766664118324
 20
-293.8544273933244995
 10
-103.2825710799872923
 20
-291.8290218068999593
 10
-101.2571654935629795
 20
-291.8290218068999593
 10
-99.2317599071386667
 20
-291.8290218068999593
 10
-97.2063543207141265
 20
-291.8290218068999593
 10
-93.1555431478652736
 20
-291.8290218068999593
 10
-91.1301375614409608
 20
-291.8290218068999593
 10
-87.0793263885921078
 20
-291.8290218068999593
 10
-83.0285152157432549
 20
-291.8290218068999593
 10
-78.9777040428944019
 20
-289.8036162204756465
 10
-74.926892870045549
 20
-289.8036162204756465
 10
-70.8760816971969234
 20
-289.8036162204756465
 10
-66.8252705243480705
 20
-289.8036162204756465
 10
-62.7744593514992175
 20
-289.8036162204756465
 10
-56.6982425922260518
 20
-287.7782106340513337
 10
-54.6728370058015116
 20
-287.7782106340513337
 10
-52.6474314193771988
 20
-287.7782106340513337
 10
-50.6220258329526587
 20
-287.7782106340513337
 10
-48.5966202465283459
 20
-287.7782106340513337
 10
-46.5712146601038057
 20
-287.7782106340513337
 10
-44.5458090736794929
 20
-287.7782106340513337
 10
-42.5204034872551802
 20
-287.7782106340513337
 10
-40.49499790083064
 20
-287.7782106340513337
 10
-38.4695923144063272
 20
-287.7782106340513337
 10
-36.444186727981787
 20
-287.7782106340513337
 10
-34.4187811415574743
 20
-287.7782106340513337
 10
-30.3679699687086213
 20
-287.7782106340513337
 10
-28.3425643822843085
 20
-287.7782106340513337
 10
-26.3171587958597684
 20
-287.7782106340513337
 10
-22.2663476230109154
 20
-287.7782106340513337
 10
-18.2155364501620625
 20
-287.7782106340513337
 10
-16.1901308637377497
 20
-287.7782106340513337
 10
-14.1647252773134369
 20
-287.7782106340513337
 10
-12.1393196908888967
 20
-287.7782106340513337
 10
-10.1139141044645839
 20
-287.7782106340513337
 10
-8.0885085180400438
 20
-287.7782106340513337
 10
-6.063102931615731
 20
-287.7782106340513337
 10
-4.0376973451911908
 20
-287.7782106340513337
 10
-2.012291758766878
 20
-287.7782106340513337
 10
2.0385194140819749
 20
-287.7782106340513337
 10
4.0639250005062877
 20
-287.7782106340513337
 10
8.1147361733551406
 20
-287.7782106340513337
 10
14.1909529326285337
 20
-291.8290218068999593
 10
18.2417641054771593
 20
-291.8290218068999593
 10
24.3179808647505524
 20
-291.8290218068999593
 10
30.3941976240237182
 20
-291.8290218068999593
 10
34.4450087968725711
 20
-293.8544273933244995
 10
38.4958199697214241
 20
-293.8544273933244995
 10
44.5720367289945898
 20
-293.8544273933244995
 10
46.5974423154189026
 20
-295.8798329797488122
 10
48.6228479018434427
 20
-295.8798329797488122
 10
52.6736590746922957
 20
-295.8798329797488122
 10
54.6990646611166085
 20
-297.9052385661733524
 10
56.7244702475411486
 20
-297.9052385661733524
 10
58.7498758339654614
 20
-297.9052385661733524
 10
60.7752814203897742
 20
-299.9306441525976652
 10
62.8006870068143144
 20
-299.9306441525976652
 10
64.8260925932386272
 20
-301.9560497390222054
 10
66.8514981796631673
 20
-301.9560497390222054
 10
70.9023093525120203
 20
-301.9560497390222054
 10
72.9277149389363331
 20
-301.9560497390222054
 10
74.9531205253606458
 20
-301.9560497390222054
 10
76.978526111785186
 20
-301.9560497390222054
 10
79.0039316982094988
 20
-301.9560497390222054
 10
81.029337284634039
 20
-301.9560497390222054
 10
85.0801484574828919
 20
-303.9814553254465181
 10
87.1055540439072047
 20
-303.9814553254465181
 10
89.1309596303315175
 20
-303.9814553254465181
 10
93.1817708031803704
 20
-303.9814553254465181
 10
95.2071763896049106
 20
-303.9814553254465181
 10
97.2325819760292234
 20
-303.9814553254465181
 10
101.2833931488780763
 20
-303.9814553254465181
 10
103.3087987353023891
 20
-303.9814553254465181
 10
105.3342043217269293
 20
-306.0068609118708309
 10
109.3850154945757822
 20
-306.0068609118708309
 10
111.410421081000095
 20
-306.0068609118708309
 10
113.4358266674246352
 20
-306.0068609118708309
 10
115.4612322538489479
 20
-306.0068609118708309
 10
117.4866378402732607
 20
-306.0068609118708309
 10
119.5120434266978009
 20
-306.0068609118708309
 10
121.5374490131221137
 20
-306.0068609118708309
 10
127.6136657723955068
 20
-306.0068609118708309
 10
129.6390713588198196
 20
-306.0068609118708309
 10
133.6898825316686725
 20
-306.0068609118708309
 10
139.7660992909418383
 20
-306.0068609118708309
 10
143.8169104637906912
 20
-306.0068609118708309
 10
145.8423160502152314
 20
-306.0068609118708309
 10
151.9185328094883971
 20
-306.0068609118708309
 10
153.9439383959127099
 20
-306.0068609118708309
 10
160.020155155186103
 20
-306.0068609118708309
 10
162.0455607416104158
 20
-306.0068609118708309
 10
166.0963719144592687
 20
-306.0068609118708309
 10
172.1725886737324345
 20
-306.0068609118708309
 10
174.1979942601569746
 20
-306.0068609118708309
 10
178.2488054330056002
 20
-306.0068609118708309
 10
180.2742110194301404
 20
-306.0068609118708309
 10
184.3250221922789933
 20
-306.0068609118708309
 10
188.3758333651278463
 20
-306.0068609118708309
 10
190.4012389515521591
 20
-306.0068609118708309
 10
194.452050124401012
 20
-301.9560497390222054
 10
196.4774557108253248
 20
-301.9560497390222054
 10
200.5282668836741777
 20
-301.9560497390222054
 10
202.5536724700987179
 20
-301.9560497390222054
 10
204.5790780565230307
 20
-301.9560497390222054
 10
208.6298892293718836
 20
-301.9560497390222054
 10
210.6552948157961964
 20
-301.9560497390222054
 10
212.6807004022207366
 20
-301.9560497390222054
 10
214.7061059886450494
 20
-301.9560497390222054
 10
216.7315115750695895
 20
-301.9560497390222054
 10
218.7569171614939023
 20
-301.9560497390222054
 10
220.7823227479182151
 20
-301.9560497390222054
 10
222.8077283343427553
 20
-301.9560497390222054
 10
228.883945093615921
 20
-301.9560497390222054
 10
230.9093506800404612
 20
-301.9560497390222054
 10
232.9347562664647739
 20
-301.9560497390222054
 10
236.9855674393136269
 20
-301.9560497390222054
 10
241.0363786121624798
 20
-301.9560497390222054
 10
243.0617841985867926
 20
-301.9560497390222054
 10
247.1125953714356456
 20
-301.9560497390222054
 10
249.1380009578599584
 20
-301.9560497390222054
 10
251.1634065442844985
 20
-301.9560497390222054
 10
253.1888121307088113
 20
-301.9560497390222054
 10
255.2142177171333515
 20
-301.9560497390222054
 10
257.2396233035576643
 20
-301.9560497390222054
 10
259.2650288899822044
 20
-301.9560497390222054
 10
265.3412456492553702
 20
-301.9560497390222054
 10
269.3920568221042231
 20
-301.9560497390222054
 10
273.442867994953076
 20
-301.9560497390222054
 10
275.4682735813773888
 20
-301.9560497390222054
 10
279.5190847542262418
 20
-301.9560497390222054
 10
281.5444903406505546
 20
-301.9560497390222054
 10
283.5698959270750947
 20
-301.9560497390222054
 10
287.6207070999239477
 20
-301.9560497390222054
 10
289.6461126863482605
 20
-301.9560497390222054
 10
291.6715182727728006
 20
-301.9560497390222054
 10
295.7223294456214262
 20
-301.9560497390222054
 10
299.7731406184702792
 20
-301.9560497390222054
 10
301.7985462048948193
 20
-301.9560497390222054
 10
303.8239517913191321
 20
-301.9560497390222054
 10
305.8493573777436723
 20
-301.9560497390222054
 10
309.9001685505922978
 20
-301.9560497390222054
 10
311.925574137016838
 20
-301.9560497390222054
 10
313.9509797234411508
 20
-301.9560497390222054
 10
318.0017908962900037
 20
-301.9560497390222054
 10
320.0271964827145439
 20
-301.9560497390222054
 10
324.0780076555631695
 20
-301.9560497390222054
 10
326.1034132419877096
 20
-301.9560497390222054
 10
330.1542244148365626
 20
-301.9560497390222054
 10
334.2050355876854155
 20
-301.9560497390222054
 10
336.2304411741097283
 20
-301.9560497390222054
 10
342.306657933382894
 20
-301.9560497390222054
 10
346.357469106231747
 20
-301.9560497390222054
 10
350.4082802790805999
 20
-301.9560497390222054
 10
352.4336858655049127
 20
-301.9560497390222054
 10
354.4590914519294529
 20
-301.9560497390222054
 10
356.4844970383537657
 20
-301.9560497390222054
 10
360.5353082112026186
 20
-301.9560497390222054
 10
362.5607137976271588
 20
-301.9560497390222054
 10
366.6115249704757844
 20
-301.9560497390222054
 10
368.6369305569003245
 20
-301.9560497390222054
 10
372.6877417297491775
 20
-301.9560497390222054
 10
374.7131473161734903
 20
-301.9560497390222054
 10
376.738552902597803
 20
-301.9560497390222054
 10
378.7639584890225706
 20
-301.9560497390222054
 10
382.8147696618711961
 20
-301.9560497390222054
 10
386.8655808347198217
 20
-301.9560497390222054
 10
388.8909864211445893
 20
-301.9560497390222054
 10
390.916392007568902
 20
-301.9560497390222054
 10
392.9417975939932148
 20
-306.0068609118708309
 10
396.9926087668418404
 20
-306.0068609118708309
 10
399.0180143532666079
 20
-306.0068609118708309
 10
401.0434199396909207
 20
-306.0068609118708309
 10
403.0688255261152335
 20
-306.0068609118708309
 10
405.0942311125395463
 20
-306.0068609118708309
 10
407.1196366989643138
 20
-306.0068609118708309
 10
411.1704478718129394
 20
-306.0068609118708309
 10
413.1958534582372522
 20
-306.0068609118708309
 10
415.221259044661565
 20
-306.0068609118708309
 10
417.2466646310863325
 20
-306.0068609118708309
 10
419.2720702175106453
 20
-306.0068609118708309
 10
423.3228813903592709
 20
-306.0068609118708309
 10
425.3482869767835837
 20
-306.0068609118708309
 10
429.399098149632664
 20
-306.0068609118708309
 10
433.4499093224812896
 20
-306.0068609118708309
 10
435.4753149089060571
 20
-306.0068609118708309
 10
443.5769372546033082
 20
-308.0322664982953711
 10
449.6531540138767014
 20
-308.0322664982953711
 10
453.7039651867253269
 20
-308.0322664982953711
 10
455.7293707731500945
 20
-308.0322664982953711
 10
459.78018194599872
 20
-308.0322664982953711
 10
461.8055875324230328
 20
-308.0322664982953711
 10
467.8818042916964259
 20
-308.0322664982953711
 10
469.9072098781207387
 20
-308.0322664982953711
 10
473.958021050969819
 20
-308.0322664982953711
 10
478.0088322238184446
 20
-308.0322664982953711
 10
480.0342378102427574
 20
-308.0322664982953711
 10
488.1358601559404633
 20
-310.0576720847196839
 10
490.1612657423647761
 20
-310.0576720847196839
 10
494.2120769152138564
 20
-310.0576720847196839
 10
496.2374825016381692
 20
-310.0576720847196839
 10
500.2882936744867948
 20
-310.0576720847196839
 10
506.3645104337601879
 20
-310.0576720847196839
 10
510.4153216066092682
 20
-310.0576720847196839
 10
514.4661327794578938
 20
-310.0576720847196839
 10
516.4915383658822066
 20
-310.0576720847196839
 10
520.5423495387312869
 20
-310.0576720847196839
 10
524.5931607115799125
 20
-310.0576720847196839
 10
526.6185662980042252
 20
-310.0576720847196839
 10
530.6693774708533056
 20
-310.0576720847196839
 10
534.7201886437019311
 20
-310.0576720847196839
 10
538.7709998165510115
 20
-310.0576720847196839
 10
546.8726221622482626
 20
-310.0576720847196839
 10
550.9234333350973429
 20
-310.0576720847196839
 10
554.9742445079459685
 20
-310.0576720847196839
 10
559.0250556807950488
 20
-310.0576720847196839
 10
565.1012724400679872
 20
-310.0576720847196839
 10
569.1520836129170675
 20
-310.0576720847196839
 10
573.2028947857656931
 20
-310.0576720847196839
 10
577.2537059586147734
 20
-310.0576720847196839
 10
581.304517131463399
 20
-310.0576720847196839
 10
583.3299227178877118
 20
-310.0576720847196839
 10
585.3553283043120246
 20
-310.0576720847196839
 10
589.4061394771611049
 20
-310.0576720847196839
 10
593.4569506500097305
 20
-310.0576720847196839
 10
595.482356236434498
 20
-310.0576720847196839
 10
603.5839785821317491
 20
-310.0576720847196839
 10
605.6093841685565167
 20
-310.0576720847196839
 10
607.6347897549808295
 20
-310.0576720847196839
 10
611.685600927829455
 20
-310.0576720847196839
 10
615.7364121006785354
 20
-310.0576720847196839
 10
619.7872232735271609
 20
-310.0576720847196839
 10
623.8380344463762412
 20
-310.0576720847196839
 10
625.863440032800554
 20
-310.0576720847196839
 10
629.9142512056491796
 20
-310.0576720847196839
 10
631.9396567920734924
 20
-310.0576720847196839
 10
633.9650623784982599
 20
-310.0576720847196839
 10
638.0158735513468855
 20
-310.0576720847196839
 10
640.0412791377711983
 20
-310.0576720847196839
 10
642.0666847241959658
 20
-310.0576720847196839
 10
644.0920903106202786
 20
-310.0576720847196839
 10
648.1429014834689042
 20
-310.0576720847196839
 10
650.168307069893217
 20
-310.0576720847196839
 10
652.1937126563179845
 20
-310.0576720847196839
 10
654.2191182427422973
 20
-310.0576720847196839
 10
658.2699294155909229
 20
-310.0576720847196839
 10
660.2953350020152357
 20
-310.0576720847196839
 10
666.3715517612886288
 20
-310.0576720847196839
 10
670.4223629341377091
 20
-310.0576720847196839
 10
674.4731741069863347
 20
-310.0576720847196839
 10
676.4985796934106475
 20
-310.0576720847196839
 10
678.5239852798349602
 20
-310.0576720847196839
 10
680.5493908662597278
 20
-310.0576720847196839
 10
682.5747964526840406
 20
-310.0576720847196839
 10
684.6002020391083533
 20
-310.0576720847196839
 10
686.6256076255326661
 20
-310.0576720847196839
 10
688.6510132119569789
 20
-310.0576720847196839
 10
690.6764187983817465
 20
-310.0576720847196839
 10
692.7018243848060592
 20
-306.0068609118708309
 10
694.727229971230372
 20
-306.0068609118708309
 10
698.7780411440794524
 20
-306.0068609118708309
 10
700.8034467305037651
 20
-306.0068609118708309
 10
702.8288523169280779
 20
-303.9814553254465181
 10
706.8796634897767035
 20
-303.9814553254465181
 10
708.905069076201471
 20
-303.9814553254465181
 10
712.9558802490500966
 20
-301.9560497390222054
 10
719.0320970083234897
 20
-301.9560497390222054
 10
723.0829081811721153
 20
-301.9560497390222054
 10
729.1591249404455084
 20
-301.9560497390222054
 10
731.1845305268698212
 20
-301.9560497390222054
 10
735.2353416997184468
 20
-301.9560497390222054
 10
739.2861528725675271
 20
-301.9560497390222054
 10
745.3623696318404654
 20
-301.9560497390222054
 10
749.4131808046895458
 20
-301.9560497390222054
 10
753.4639919775381713
 20
-301.9560497390222054
 10
761.5656143232358772
 20
-301.9560497390222054
 10
765.6164254960849576
 20
-301.9560497390222054
 10
769.6672366689335831
 20
-301.9560497390222054
 10
773.7180478417822087
 20
-301.9560497390222054
 10
775.7434534282069762
 20
-301.9560497390222054
 10
783.8450757739046821
 20
-301.9560497390222054
 10
789.9212925331776205
 20
-301.9560497390222054
 10
793.9721037060267008
 20
-301.9560497390222054
 10
795.9975092924510136
 20
-301.9560497390222054
 10
802.0737260517244067
 20
-301.9560497390222054
 10
806.1245372245730323
 20
-301.9560497390222054
 10
810.1753483974216579
 20
-301.9560497390222054
 10
812.2007539838464254
 20
-301.9560497390222054
 10
816.251565156695051
 20
-301.9560497390222054
 10
820.3023763295436765
 20
-301.9560497390222054
 10
822.3277819159684441
 20
-301.9560497390222054
 10
826.3785930888170697
 20
-301.9560497390222054
 10
830.42940426166615
 20
-301.9560497390222054
 10
832.4548098480904628
 20
-301.9560497390222054
 10
836.5056210209390883
 20
-301.9560497390222054
 10
838.5310266073634011
 20
-301.9560497390222054
 10
842.5818377802124814
 20
-301.9560497390222054
 10
844.6072433666367942
 20
-301.9560497390222054
 10
848.6580545394854198
 20
-301.9560497390222054
 10
852.7088657123345001
 20
-301.9560497390222054
 10
856.7596768851831257
 20
-301.9560497390222054
 10
858.7850824716078932
 20
-301.9560497390222054
 10
862.8358936444565188
 20
-301.9560497390222054
 10
866.8867048173051444
 20
-301.9560497390222054
 10
868.9121104037299119
 20
-306.0068609118708309
 10
872.9629215765785375
 20
-306.0068609118708309
 10
877.0137327494271631
 20
-306.0068609118708309
 10
881.0645439222762434
 20
-308.0322664982953711
 10
883.0899495087005562
 20
-308.0322664982953711
 10
885.115355095124869
 20
-308.0322664982953711
 10
887.1407606815496365
 20
-308.0322664982953711
 10
889.1661662679739493
 20
-308.0322664982953711
 10
893.2169774408225749
 20
-308.0322664982953711
 10
897.2677886136716552
 20
-308.0322664982953711
 10
903.3440053729445935
 20
-308.0322664982953711
 10
907.3948165457936739
 20
-308.0322664982953711
 10
911.4456277186422994
 20
-308.0322664982953711
 10
915.4964388914913798
 20
-310.0576720847196839
 10
919.5472500643400053
 20
-310.0576720847196839
 10
923.5980612371886309
 20
-310.0576720847196839
 10
925.6234668236133984
 20
-310.0576720847196839
 10
929.674277996462024
 20
-310.0576720847196839
 10
933.7250891693111043
 20
-310.0576720847196839
 10
941.8267115150083555
 20
-310.0576720847196839
 10
947.9029282742817486
 20
-310.0576720847196839
 10
949.9283338607060614
 20
-312.083077671144224
 10
953.9791450335551417
 20
-312.083077671144224
 10
958.0299562064037673
 20
-312.083077671144224
 10
962.0807673792528476
 20
-312.083077671144224
 10
966.1315785521014732
 20
-312.083077671144224
 10
970.1823897249500988
 20
-312.083077671144224
 10
972.2077953113748663
 20
-312.083077671144224
 10
974.2332008977991791
 20
-312.083077671144224
 10
978.2840120706478046
 20
-312.083077671144224
 10
980.3094176570721174
 20
-312.083077671144224
 10
982.334823243496885
 20
-312.083077671144224
 10
984.3602288299211978
 20
-312.083077671144224
 10
986.3856344163455105
 20
-308.0322664982953711
 10
988.4110400027698233
 20
-308.0322664982953711
 10
990.4364455891945909
 20
-308.0322664982953711
 10
992.4618511756189037
 20
-306.0068609118708309
 10
994.4872567620432164
 20
-306.0068609118708309
 10
996.5126623484675292
 20
-306.0068609118708309
 10
1000.5634735213166095
 20
-303.9814553254465181
 10
1002.5888791077409223
 20
-303.9814553254465181
 10
1006.6396902805895479
 20
-301.9560497390222054
 10
1008.6650958670138607
 20
-301.9560497390222054
 10
1012.715907039862941
 20
-299.9306441525976652
 10
1016.7667182127115666
 20
-299.9306441525976652
 10
1018.7921237991363341
 20
-297.9052385661733524
 10
1024.8683405584092725
 20
-297.9052385661733524
 10
1026.8937461448335853
 20
-297.9052385661733524
 10
1030.9445573176826656
 20
-295.8798329797488122
 10
1037.020774076955604
 20
-295.8798329797488122
 10
1041.0715852498046843
 20
-295.8798329797488122
 10
1047.1478020090780774
 20
-295.8798329797488122
 10
1051.198613181926703
 20
-295.8798329797488122
 10
1057.2748299412000961
 20
-295.8798329797488122
 10
1063.3510467004730344
 20
-295.8798329797488122
 10
1067.4018578733221148
 20
-295.8798329797488122
 10
1075.5034802190198207
 20
-295.8798329797488122
 10
1081.579696978292759
 20
-295.8798329797488122
 10
1083.6051025647170718
 20
-295.8798329797488122
 10
1085.6305081511418393
 20
-295.8798329797488122
 10
1087.6559137375661521
 20
-295.8798329797488122
 10
1089.6813193239904649
 20
-295.8798329797488122
 10
1091.7067249104147777
 20
-295.8798329797488122
 10
1095.757536083263858
 20
-295.8798329797488122
 10
1101.8337528425367964
 20
-295.8798329797488122
 10
1105.8845640153858767
 20
-295.8798329797488122
 10
1109.9353751882345023
 20
-295.8798329797488122
 10
1113.9861863610835826
 20
-295.8798329797488122
 10
1118.0369975339322082
 20
-295.8798329797488122
 10
1122.0878087067812885
 20
-295.8798329797488122
 10
1126.1386198796299141
 20
-295.8798329797488122
 10
1132.2148366389033072
 20
-295.8798329797488122
 10
1136.2656478117519327
 20
-295.8798329797488122
 10
1138.2910533981762455
 20
-295.8798329797488122
 10
1142.3418645710253259
 20
-295.8798329797488122
 10
1144.3672701574496386
 20
-295.8798329797488122
 10
1148.4180813302982642
 20
-295.8798329797488122
 10
1150.4434869167230318
 20
-295.8798329797488122
 10
1154.4942980895716573
 20
-299.9306441525976652
 10
1156.5197036759959701
 20
-299.9306441525976652
 10
1160.5705148488450504
 20
-299.9306441525976652
 10
1164.621326021693676
 20
-301.9560497390222054
 10
1168.6721371945423016
 20
-301.9560497390222054
 10
1172.7229483673913819
 20
-303.9814553254465181
 10
1176.7737595402400075
 20
-303.9814553254465181
 10
1180.8245707130890878
 20
-303.9814553254465181
 10
1186.9007874723620262
 20
-303.9814553254465181
 10
1192.9770042316354193
 20
-306.0068609118708309
 10
1197.0278154044840448
 20
-306.0068609118708309
 10
1199.0532209909088124
 20
-306.0068609118708309
 10
1203.104032163757438
 20
-306.0068609118708309
 10
1207.1548433366065183
 20
-308.0322664982953711
 10
1211.2056545094551439
 20
-308.0322664982953711
 10
1215.2564656823037694
 20
-308.0322664982953711
 10
1217.281871268728537
 20
-308.0322664982953711
 10
1221.3326824415771625
 20
-310.0576720847196839
 10
1223.3580880280014753
 20
-312.083077671144224
 10
1225.3834936144262429
 20
-312.083077671144224
 10
1229.4343047872748684
 20
-312.083077671144224
 10
1233.485115960123494
 20
-312.083077671144224
 10
1237.5359271329725743
 20
-312.083077671144224
 10
1241.5867383058211999
 20
-312.083077671144224
 10
1245.6375494786702802
 20
-312.083077671144224
 10
1249.6883606515189058
 20
-312.083077671144224
 10
1255.7645774107922989
 20
-312.083077671144224
 10
1257.7899829972166117
 20
-312.083077671144224
 10
1261.8407941700652373
 20
-312.083077671144224
 10
1265.8916053429143176
 20
-312.083077671144224
 10
1267.9170109293386304
 20
-312.083077671144224
 10
1269.9424165157629432
 20
-312.083077671144224
 10
1271.967822102187256
 20
-312.083077671144224
 10
1273.9932276886120235
 20
-312.083077671144224
 10
1276.0186332750363363
 20
-312.083077671144224
 10
1280.0694444478849618
 20
-312.083077671144224
 10
1282.0948500343097294
 20
-312.083077671144224
 10
1286.145661207158355
 20
-312.083077671144224
 10
1290.1964723800069805
 20
-312.083077671144224
 10
1290.1964723800069805
 20
-308.0322664982953711
 10
1292.2218779664317481
 20
-308.0322664982953711
 10
1294.2472835528560609
 20
-308.0322664982953711
 10
1296.2726891392803736
 20
-308.0322664982953711
 10
1298.2980947257046864
 20
-306.0068609118708309
 10
1302.3489058985537667
 20
-306.0068609118708309
 10
1304.3743114849780795
 20
-306.0068609118708309
 10
1308.4251226578267051
 20
-303.9814553254465181
 10
1312.4759338306757854
 20
-303.9814553254465181
 10
1314.5013394171000982
 20
-303.9814553254465181
 10
1318.5521505899487238
 20
-303.9814553254465181
 10
1322.6029617627978041
 20
-303.9814553254465181
 10
1324.6283673492221169
 20
-303.9814553254465181
 10
1326.6537729356464297
 20
-303.9814553254465181
 10
1328.6791785220707425
 20
-303.9814553254465181
 10
1330.70458410849551
 20
-303.9814553254465181
 10
1332.7299896949198228
 20
-303.9814553254465181
 10
1334.7553952813441356
 20
-303.9814553254465181
 10
1336.7808008677684484
 20
-303.9814553254465181
 10
1338.8062064541932159
 20
-303.9814553254465181
 10
1342.8570176270418415
 20
-303.9814553254465181
 10
1346.9078287998904671
 20
-303.9814553254465181
 10
1348.9332343863152346
 20
-303.9814553254465181
 10
1350.9586399727395474
 20
-303.9814553254465181
 10
1352.9840455591638602
 20
-303.9814553254465181
 10
1355.0094511455881729
 20
-303.9814553254465181
 10
1357.0348567320124857
 20
-303.9814553254465181
 10
1361.0856679048615661
 20
-303.9814553254465181
 10
1365.1364790777101916
 20
-303.9814553254465181
 10
1375.2635070098322103
 20
-303.9814553254465181
 10
1383.3651293555299162
 20
-303.9814553254465181
 10
1387.4159405283789965
 20
-303.9814553254465181
 10
1391.4667517012276221
 20
-303.9814553254465181
 10
1393.4921572876519349
 20
-303.9814553254465181
 10
1397.5429684605010152
 20
-303.9814553254465181
 10
1399.568374046925328
 20
-303.9814553254465181
 10
1401.5937796333496408
 20
-303.9814553254465181
 10
1403.6191852197739536
 20
-303.9814553254465181
 10
1407.6699963926230339
 20
-303.9814553254465181
 10
1411.7208075654716595
 20
-303.9814553254465181
 10
1415.7716187383207398
 20
-303.9814553254465181
 10
1417.7970243247450526
 20
-303.9814553254465181
 10
1419.8224299111693654
 20
-303.9814553254465181
 10
1423.8732410840184457
 20
-303.9814553254465181
 10
1425.8986466704427585
 20
-303.9814553254465181
 10
1429.9494578432913841
 20
-303.9814553254465181
 10
1431.9748634297156968
 20
-303.9814553254465181
 10
1436.0256746025647772
 20
-303.9814553254465181
 10
1438.0510801889890899
 20
-303.9814553254465181
 10
1440.0764857754134027
 20
-303.9814553254465181
 10
1442.1018913618381703
 20
-303.9814553254465181
 10
1444.1272969482624831
 20
-303.9814553254465181
 10
1444.1272969482624831
 20
-301.9560497390222054
  0
LINE
  5
D9
100
AcDbEntity
100
AcDbLine
  8
deck
 62
256
370
-1
  6
ByLayer
 10
-126.2128242184983264
 20
-293.8544273933244995
 30
0.0
 11
-126.2128242184983264
 21
-230.1490923077745947
 31
0.0
  0
LINE
  5
DA
100
AcDbEntity
100
AcDbLine
  8
deck
 62
256
370
-1
  6
ByLayer
 10
-106.2128242184983264
 20
-293.8544273933244995
 30
0.0
 11
-106.2128242184983264
 21
-230.1490923077745947
 31
0.0
  0
LINE
  5
DB
100
AcDbEntity
100
AcDbLine
  8
deck
 62
256
370
-1
  6
ByLayer
 10
113.7871757815016736
 20
-306.0068609118708309
 30
0.0
 11
113.7871757815016736
 21
-230.1490923077745947
 31
0.0
  0
LINE
  5
DC
100
AcDbEntity
100
AcDbLine
  8
deck
 62
256
370
-1
  6
ByLayer
 10
133.7871757815016736
 20
-306.0068609118708309
 30
0.0
 11
133.7871757815016736
 21
-230.1490923077745947
 31
0.0
  0
LINE
  5
DD
100
AcDbEntity
100
AcDbLine
  8
deck
 62
256
370
-1
  6
ByLayer
 10
233.7871757815016736
 20
-301.9560497390222054
 30
0.0
 11
233.7871757815016736
 21
-230.1490923077745947
 31
0.0
  0
LINE
  5
DE
100
AcDbEntity
100
AcDbLine
  8
deck
 62
256
370
-1
  6
ByLayer
 10
253.7871757815016736
 20
-301.9560497390222054
 30
0.0
 11
253.7871757815016736
 21
-230.1490923077745947
 31
0.0
  0
LINE
  5
DF
100
AcDbEntity
100
AcDbLine
  8
deck
 62
256
370
-1
  6
ByLayer
 10
353.7871757815016736
 20
-301.9560497390222054
 30
0.0
 11
353.7871757815016736
 21
-230.1490923077745947
 31
0.0
  0
LINE
  5
E0
100
AcDbEntity
100
AcDbLine
  8
deck
 62
256
370
-1
  6
ByLayer
 10
373.7871757815019009
 20
-301.9560497390222054
 30
0.0
 11
373.7871757815019009
 21
-230.1490923077745947
 31
0.0
  0
LINE
  5
E1
100
AcDbEntity
100
AcDbLine
  8
deck
 62
256
370
-1
  6
ByLayer
 10
473.7871757815019009
 20
-308.0322664982953711
 30
0.0
 11
473.7871757815019009
 21
-230.1490923077745947
 31
0.0
  0
LINE
  5
E2
100
AcDbEntity
100
AcDbLine
  8
deck
 62
256
370
-1
  6
ByLayer
 10
493.7871757815019009
 20
-310.0576720847196839
 30
0.0
 11
493.7871757815019009
 21
-230.1490923077745947
 31
0.0
  0
LINE
  5
E3
100
AcDbEntity
100
AcDbLine
  8
deck
 62
256
370
-1
  6
ByLayer
 10
713.7871757815019009
 20
-301.9560497390222054
 30
0.0
 11
713.7871757815019009
 21
-230.1490923077745947
 31
0.0
  0
LINE
  5
E4
100
AcDbEntity
100
AcDbLine
  8
deck
 62
256
370
-1
  6
ByLayer
 10
733.7871757815019009
 20
-301.9560497390222054
 30
0.0
 11
733.7871757815019009
 21
-230.1490923077745947
 31
0.0
  0
LINE
  5
E5
100
AcDbEntity
100
AcDbLine
  8
deck
 62
256
370
-1
  6
ByLayer
 10
833.7871757815019009
 20
-301.9560497390222054
 30
0.0
 11
833.7871757815019009
 21
-230.1490923077745947
 31
0.0
  0
LINE
  5
E6
100
AcDbEntity
100
AcDbLine
  8
deck
 62
256
370
-1
  6
ByLayer
 10
853.7871757815019009
 20
-301.9560497390222054
 30
0.0
 11
853.7871757815019009
 21
-230.1490923077745947
 31
0.0
  0
LINE
  5
E7
100
AcDbEntity
100
AcDbLine
  8
deck
 62
256
370
-1
  6
ByLayer
 10
953.7871757815019009
 20
-312.083077671144224
 30
0.0
 11
953.7871757815019009
 21
-230.1490923077745947
 31
0.0
  0
LINE
  5
E8
100
AcDbEntity
100
AcDbLine
  8
deck
 62
256
370
-1
  6
ByLayer
 10
973.7871757815019009
 20
-312.083077671144224
 30
0.0
 11
973.7871757815019009
 21
-230.1490923077745947
 31
0.0
  0
LINE
  5
E9
100
AcDbEntity
100
AcDbLine
  8
deck
 62
256
370
-1
  6
ByLayer
 10
1073.7871757815019009
 20
-295.8798329797488122
 30
0.0
 11
1073.7871757815019009
 21
-230.1490923077745947
 31
0.0
  0
LINE
  5
EA
100
AcDbEntity
100
AcDbLine
  8
deck
 62
256
370
-1
  6
ByLayer
 10
1093.7871757815019009
 20
-295.8798329797488122
 30
0.0
 11
1093.7871757815019009
 21
-230.1490923077745947
 31
0.0
  0
LINE
  5
EB
100
AcDbEntity
100
AcDbLine
  8
deck
 62
256
370
-1
  6
ByLayer
 10
1212.7871757815019009
 20
-308.0322664982953711
 30
0.0
 11
1212.7871757815019009
 21
-230.1490923077745947
 31
0.0
  0
LINE
  5
EC
100
AcDbEntity
100
AcDbLine
  8
deck
 62
256
370
-1
  6
ByLayer
 10
1232.7871757815019009
 20
-312.083077671144224
 30
0.0
 11
1232.7871757815019009
 21
-230.1490923077745947
 31
0.0
  0
LINE
  5
ED
100
AcDbEntity
100
AcDbLine
  8
deck
 62
256
370
-1
  6
ByLayer
 10
1332.7871757815019009
 20
-303.9814553254465181
 30
0.0
 11
1332.7871757815019009
 21
-230.1490923077745947
 31
0.0
  0
LINE
  5
EE
100
AcDbEntity
100
AcDbLine
  8
deck
 62
256
370
-1
  6
ByLayer
 10
1352.7871757815019009
 20
-303.9814553254465181
 30
0.0
 11
1352.7871757815019009
 21
-230.1490923077745947
 31
0.0
  0
LINE
  5
EF
100
AcDbEntity
100
AcDbLine
  8
deck
 62
256
370
-1
  6
DASHED2
 10
-126.2128242184983264
 20
-365.1490923077745947
 30
0.0
 11
-126.2128242184983264
 21
-293.8544273933244995
 31
0.0
  0
LINE
  5
F0
100
AcDbEntity
100
AcDbLine
  8
deck
 62
256
370
-1
  6
DASHED2
 10
-106.2128242184983264
 20
-365.1490923077745947
 30
0.0
 11
-106.2128242184983264
 21
-293.8544273933244995
 31
0.0
  0
LINE
  5
F1
100
AcDbEntity
100
AcDbLine
  8
deck
 62
256
370
-1
  6
DASHED2
 10
113.7871757815016736
 20
-365.1490923077745947
 30
0.0
 11
113.7871757815016736
 21
-306.0068609118708309
 31
0.0
  0
LINE
  5
F2
100
AcDbEntity
100
AcDbLine
  8
deck
 62
256
370
-1
  6
DASHED2
 10
133.7871757815016736
 20
-365.1490923077745947
 30
0.0
 11
133.7871757815016736
 21
-306.0068609118708309
 31
0.0
  0
LINE
  5
F3
100
AcDbEntity
100
AcDbLine
  8
deck
 62
256
370
-1
  6
DASHED2
 10
233.7871757815016736
 20
-365.1490923077745947
 30
0.0
 11
233.7871757815016736
 21
-301.9560497390222054
 31
0.0
  0
LINE
  5
F4
100
AcDbEntity
100
AcDbLine
  8
deck
 62
256
370
-1
  6
DASHED2
 10
253.7871757815016736
 20
-365.1490923077745947
 30
0.0
 11
253.7871757815016736
 21
-301.9560497390222054
 31
0.0
  0
LINE
  5
F5
100
AcDbEntity
100
AcDbLine
  8
deck
 62
256
370
-1
  6
DASHED2
 10
353.7871757815016736
 20
-365.1490923077745947
 30
0.0
 11
353.7871757815016736
 21
-301.9560497390222054
 31
0.0
  0
LINE
  5
F6
100
AcDbEntity
100
AcDbLine
  8
deck
 62
256
370
-1
  6
DASHED2
 10
373.7871757815019009
 20
-365.1490923077745947
 30
0.0
 11
373.7871757815019009
 21
-301.9560497390222054
 31
0.0
  0
LINE
  5
F7
100
AcDbEntity
100
AcDbLine
  8
deck
 62
256
370
-1
  6
DASHED2
 10
473.7871757815019009
 20
-365.1490923077745947
 30
0.0
 11
473.7871757815019009
 21
-308.0322664982953711
 31
0.0
  0
LINE
  5
F8
100
AcDbEntity
100
AcDbLine
  8
deck
 62
256
370
-1
  6
DASHED2
 10
493.7871757815019009
 20
-365.1490923077745947
 30
0.0
 11
493.7871757815019009
 21
-310.0576720847196839
 31
0.0
  0
LINE
  5
F9
100
AcDbEntity
100
AcDbLine
  8
deck
 62
256
370
-1
  6
DASHED2
 10
713.7871757815019009
 20
-365.1490923077745947
 30
0.0
 11
713.7871757815019009
 21
-301.9560497390222054
 31
0.0
  0
LINE
  5
FA
100
AcDbEntity
100
AcDbLine
  8
deck
 62
256
370
-1
  6
DASHED2
 10
733.7871757815019009
 20
-365.1490923077745947
 30
0.0
 11
733.7871757815019009
 21
-301.9560497390222054
 31
0.0
  0
LINE
  5
FB
100
AcDbEntity
100
AcDbLine
  8
deck
 62
256
370
-1
  6
DASHED2
 10
833.7871757815019009
 20
-365.1490923077745947
 30
0.0
 11
833.7871757815019009
 21
-301.9560497390222054
 31
0.0
  0
LINE
  5
FC
100
AcDbEntity
100
AcDbLine
  8
deck
 62
256
370
-1
  6
DASHED2
 10
853.7871757815019009
 20
-365.1490923077745947
 30
0.0
 11
853.7871757815019009
 21
-301.9560497390222054
 31
0.0
  0
LINE
  5
FD
100
AcDbEntity
100
AcDbLine
  8
deck
 62
256
370
-1
  6
DASHED2
 10
953.7871757815019009
 20
-365.1490923077745947
 30
0.0
 11
953.7871757815019009
 21
-312.083077671144224
 31
0.0
  0
LINE
  5
FE
100
AcDbEntity
100
AcDbLine
  8
deck
 62
256
370
-1
  6
DASHED2
 10
973.7871757815019009
 20
-365.1490923077745947
 30
0.0
 11
973.7871757815019009
 21
-312.083077671144224
 31
0.0
  0
LINE
  5
FF
100
AcDbEntity
100
AcDbLine
  8
deck
 62
256
370
-1
  6
DASHED2
 10
1073.7871757815019009
 20
-365.1490923077745947
 30
0.0
 11
1073.7871757815019009
 21
-295.8798329797488122
 31
0.0
  0
LINE
  5
100
100
AcDbEntity
100
AcDbLine
  8
deck
 62
256
370
-1
  6
DASHED2
 10
1093.7871757815019009
 20
-365.1490923077745947
 30
0.0
 11
1093.7871757815019009
 21
-295.8798329797488122
 31
0.0
  0
LINE
  5
101
100
AcDbEntity
100
AcDbLine
  8
deck
 62
256
370
-1
  6
DASHED2
 10
1212.7871757815019009
 20
-365.1490923077745947
 30
0.0
 11
1212.7871757815019009
 21
-308.0322664982953711
 31
0.0
  0
LINE
  5
102
100
AcDbEntity
100
AcDbLine
  8
deck
 62
256
370
-1
  6
DASHED2
 10
1232.7871757815019009
 20
-365.1490923077745947
 30
0.0
 11
1232.7871757815019009
 21
-312.083077671144224
 31
0.0
  0
LINE
  5
103
100
AcDbEntity
100
AcDbLine
  8
deck
 62
256
370
-1
  6
DASHED2
 10
1332.7871757815019009
 20
-365.1490923077745947
 30
0.0
 11
1332.7871757815019009
 21
-303.9814553254465181
 31
0.0
  0
LINE
  5
104
100
AcDbEntity
100
AcDbLine
  8
deck
 62
256
370
-1
  6
DASHED2
 10
1352.7871757815019009
 20
-365.1490923077745947
 30
0.0
 11
1352.7871757815019009
 21
-303.9814553254465181
 31
0.0
  0
LINE
  5
105
100
AcDbEntity
100
AcDbLine
  8
deck
 62
256
370
-1
  6
ByLayer
 10
-6.2128242184983264
 20
-287.7782106340513337
 30
0.0
 11
-6.2128242184983264
 21
-230.1490923077745947
 31
0.0
  0
LINE
  5
106
100
AcDbEntity
100
AcDbLine
  8
deck
 62
256
370
-1
  6
ByLayer
 10
13.7871757815016736
 20
-291.5598370394819767
 30
0.0
 11
13.7871757815016736
 21
-230.1490923077745947
 31
0.0
  0
LINE
  5
107
100
AcDbEntity
100
AcDbLine
  8
deck
 62
256
370
-1
  6
ByLayer
 10
593.7871757815019009
 20
-310.0576720847196839
 30
0.0
 11
593.7871757815019009
 21
-230.1490923077745947
 31
0.0
  0
LINE
  5
108
100
AcDbEntity
100
AcDbLine
  8
deck
 62
256
370
-1
  6
ByLayer
 10
613.7871757815019009
 20
-310.0576720847196839
 30
0.0
 11
613.7871757815019009
 21
-230.1490923077745947
 31
0.0
  0
LINE
  5
109
100
AcDbEntity
100
AcDbLine
  8
deck
 62
256
370
-1
  6
DASHED2
 10
-6.2128242184983264
 20
-365.1490923077745947
 30
0.0
 11
-6.2128242184983264
 21
-287.7782106340513337
 31
0.0
  0
LINE
  5
10A
100
AcDbEntity
100
AcDbLine
  8
deck
 62
256
370
-1
  6
DASHED2
 10
13.7871757815016736
 20
-365.1490923077745947
 30
0.0
 11
13.7871757815016736
 21
-291.5598370394819767
 31
0.0
  0
LINE
  5
10B
100
AcDbEntity
100
AcDbLine
  8
deck
 62
256
370
-1
  6
DASHED2
 10
593.7871757815019009
 20
-365.1490923077745947
 30
0.0
 11
593.7871757815019009
 21
-310.0576720847196839
 31
0.0
  0
LINE
  5
10C
100
AcDbEntity
100
AcDbLine
  8
deck
 62
256
370
-1
  6
DASHED2
 10
613.7871757815019009
 20
-365.1490923077745947
 30
0.0
 11
613.7871757815019009
 21
-310.0576720847196839
 31
0.0
  0
LINE
  5
10D
100
AcDbEntity
100
AcDbLine
  8
0
 62
256
370
-1
  6
ByLayer
 10
1085.7871757815019009
 20
-210.1490923077745947
 30
0.0
 11
915.7871757815019009
 21
-210.1490923077745947
 31
0.0
  0
LINE
  5
10E
100
AcDbEntity
100
AcDbLine
  8
0
 62
256
370
-1
  6
ByLayer
 10
915.7871757815019009
 20
-210.1490923077745947
 30
0.0
 11
915.7871757815019009
 21
-34.2525353728141226
 31
0.0
  0
LINE
  5
10F
100
AcDbEntity
100
AcDbLine
  8
0
 62
256
370
-1
  6
ByLayer
 10
1085.7871757815019009
 20
-34.2525353728141226
 30
0.0
 11
1085.7871757815019009
 21
-210.1490923077745947
 31
0.0
  0
LINE
  5
110
100
AcDbEntity
100
AcDbLine
  8
0
 62
256
370
-1
  6
ByLayer
 10
1000.7871757815019009
 20
-210.1490923077745947
 30
0.0
 11
1000.7871757815019009
 21
-34.2525353728141226
 31
0.0
  0
LINE
  5
111
100
AcDbEntity
100
AcDbLine
  8
0
 62
256
370
-1
  6
DASHEDX2
 10
915.7871757815019009
 20
-7.1490923077745947
 30
0.0
 11
1085.7871757815019009
 21
-7.1490923077745947
 31
0.0
  0
LINE
  5
112
100
AcDbEntity
100
AcDbLine
  8
0
 62
256
370
-1
  6
DASHEDX2
 10
915.7871757815019009
 20
-34.2525353728141226
 30
0.0
 11
915.7871757815019009
 21
-7.1490923077745947
 31
0.0
  0
LINE
  5
113
100
AcDbEntity
100
AcDbLine
  8
0
 62
256
370
-1
  6
DASHEDX2
 10
1085.7871757815019009
 20
-7.1490923077745947
 30
0.0
 11
1085.7871757815019009
 21
-34.2525353728141226
 31
0.0
  0
LINE
  5
114
100
AcDbEntity
100
AcDbLine
  8
0
 62
256
370
-1
  6
DASHEDX2
 10
1000.7871757815019009
 20
-34.2525353728141226
 30
0.0
 11
1000.7871757815019009
 21
-7.1490923077745947
 31
0.0
  0
LINE
  5
115
100
AcDbEntity
100
AcDbLine
  8
deck
 62
256
370
-1
  6
ByLayer
 10
1357.7871757815019009
 20
-230.1490923077745947
 30
0.0
 11
1357.7871757815019009
 21
-210.1490923077745947
 31
0.0
  0
LINE
  5
116
100
AcDbEntity
100
AcDbLine
  8
deck
 62
256
370
-1
  6
ByLayer
 10
-131.2128242184980991
 20
-230.1490923077745947
 30
0.0
 11
-131.2128242184983264
 21
-210.1490923077745947
 31
0.0
  0
MTEXT
  5
117
100
AcDbEntity
100
AcDbMText
  8
text
 62
256
370
-1
  6
ByLayer
 10
498.6087320302980856
 20
-435.626576405418291
 30
0.0
 40
20.0
 41
100.0
 71
4
 72
2
  1
front side elevation
  7
iso
 50
0.0
 73
0
 44
1.0
  0
LINE
  5
118
100
AcDbEntity
100
AcDbLine
  8
0
 62
256
370
-1
  6
ByLayer
 10
631.7871757815014462
 20
-82.1490923077745947
 30
0.0
 11
461.7871757815014462
 21
-82.1490923077745947
 31
0.0
  0
LINE
  5
119
100
AcDbEntity
100
AcDbLine
  8
0
 62
256
370
-1
  6
ByLayer
 10
546.7871757815014462
 20
-34.2525353728141226
 30
0.0
 11
546.7871757815014462
 21
-82.1490923077745947
 31
0.0
  0
LINE
  5
11A
100
AcDbEntity
100
AcDbLine
  8
0
 62
256
370
-1
  6
ByLayer
 10
461.7871757815014462
 20
-82.1490923077745947
 30
0.0
 11
461.7871757815014462
 21
-34.2525353728141226
 31
0.0
  0
LINE
  5
11B
100
AcDbEntity
100
AcDbLine
  8
0
 62
256
370
-1
  6
ByLayer
 10
631.7871757815009914
 20
-34.2525353728141226
 30
0.0
 11
631.7871757815014462
 21
-82.1490923077745947
 31
0.0
  0
LINE
  5
11C
100
AcDbEntity
100
AcDbLine
  8
0
 62
256
370
-1
  6
DASHEDX2
 10
461.7871757815009914
 20
-7.1490923077745947
 30
0.0
 11
631.7871757815009914
 21
-7.1490923077745947
 31
0.0
  0
LINE
  5
11D
100
AcDbEntity
100
AcDbLine
  8
0
 62
256
370
-1
  6
DASHEDX2
 10
546.7871757815014462
 20
-7.1490923077745947
 30
0.0
 11
546.7871757815014462
 21
-34.2525353728141226
 31
0.0
  0
LINE
  5
11E
100
AcDbEntity
100
AcDbLine
  8
0
 62
256
370
-1
  6
DASHEDX2
 10
461.7871757815014462
 20
-34.2525353728141226
 30
0.0
 11
461.7871757815014462
 21
-7.1490923077745947
 31
0.0
  0
LINE
  5
11F
100
AcDbEntity
100
AcDbLine
  8
0
 62
256
370
-1
  6
DASHEDX2
 10
631.7871757815009914
 20
-7.1490923077745947
 30
0.0
 11
631.7871757815009914
 21
-34.2525353728141226
 31
0.0
  0
LINE
  5
120
100
AcDbEntity
100
AcDbLine
  8
deck
 62
256
370
-1
  6
ByLayer
 10
-111.2128242184985822
 20
285.519105499449438
 30
0.0
 11
1333.7871757815019009
 21
285.519105499449438
 31
0.0
  0
LINE
  5
121
100
AcDbEntity
100
AcDbLine
  8
deck
 62
256
370
-1
  6
ByLayer
 10
1333.7871757815019009
 20
-34.2525353728141226
 30
0.0
 11
-111.2128242184985538
 21
-34.2525353728141226
 31
0.0
  0
LINE
  5
122
100
AcDbEntity
100
AcDbLine
  8
deck
 62
256
370
-1
  6
ByLayer
 10
-111.2128242184985538
 20
-34.2525353728141226
 30
0.0
 11
-111.2128242184985822
 21
285.519105499449438
 31
0.0
  0
LINE
  5
123
100
AcDbEntity
100
AcDbLine
  8
deck
 62
256
370
-1
  6
ByLayer
 10
1333.7871757815019009
 20
-34.2525353728141226
 30
0.0
 11
1333.7871757815019009
 21
285.519105499449438
 31
0.0
  0
LINE
  5
124
100
AcDbEntity
100
AcDbLine
  8
deck
 62
256
370
-1
  6
ByLayer
 10
-101.2128242184985538
 20
-34.2525353728141226
 30
0.0
 11
-101.2128242184985822
 21
285.519105499449438
 31
0.0
  0
LINE
  5
125
100
AcDbEntity
100
AcDbLine
  8
deck
 62
256
370
-1
  6
ByLayer
 10
-91.2128242184985538
 20
-34.2525353728141226
 30
0.0
 11
-91.2128242184985822
 21
285.519105499449438
 31
0.0
  0
LINE
  5
126
100
AcDbEntity
100
AcDbLine
  8
deck
 62
256
370
-1
  6
ByLayer
 10
-81.2128242184985538
 20
-34.2525353728141226
 30
0.0
 11
-81.2128242184985822
 21
285.519105499449438
 31
0.0
  0
LINE
  5
127
100
AcDbEntity
100
AcDbLine
  8
deck
 62
256
370
-1
  6
ByLayer
 10
-71.2128242184985538
 20
-34.2525353728141226
 30
0.0
 11
-71.2128242184985822
 21
285.519105499449438
 31
0.0
  0
LINE
  5
128
100
AcDbEntity
100
AcDbLine
  8
deck
 62
256
370
-1
  6
ByLayer
 10
-61.2128242184985538
 20
-34.2525353728141226
 30
0.0
 11
-61.2128242184985822
 21
285.519105499449438
 31
0.0
  0
LINE
  5
129
100
AcDbEntity
100
AcDbLine
  8
deck
 62
256
370
-1
  6
ByLayer
 10
-51.2128242184985538
 20
-34.2525353728141226
 30
0.0
 11
-51.2128242184985822
 21
285.519105499449438
 31
0.0
  0
LINE
  5
12A
100
AcDbEntity
100
AcDbLine
  8
deck
 62
256
370
-1
  6
ByLayer
 10
-41.2128242184985538
 20
-34.2525353728141226
 30
0.0
 11
-41.2128242184985822
 21
285.519105499449438
 31
0.0
  0
LINE
  5
12B
100
AcDbEntity
100
AcDbLine
  8
deck
 62
256
370
-1
  6
ByLayer
 10
-31.2128242184985538
 20
-34.2525353728141226
 30
0.0
 11
-31.2128242184985822
 21
285.519105499449438
 31
0.0
  0
LINE
  5
12C
100
AcDbEntity
100
AcDbLine
  8
deck
 62
256
370
-1
  6
ByLayer
 10
-21.2128242184985538
 20
-34.2525353728141226
 30
0.0
 11
-21.2128242184985822
 21
285.519105499449438
 31
0.0
  0
LINE
  5
12D
100
AcDbEntity
100
AcDbLine
  8
deck
 62
256
370
-1
  6
ByLayer
 10
-11.2128242184985538
 20
-34.2525353728141226
 30
0.0
 11
-11.2128242184985822
 21
285.519105499449438
 31
0.0
  0
LINE
  5
12E
100
AcDbEntity
100
AcDbLine
  8
deck
 62
256
370
-1
  6
ByLayer
 10
-1.2128242184985538
 20
-34.2525353728141226
 30
0.0
 11
-1.2128242184985822
 21
285.519105499449438
 31
0.0
  0
LINE
  5
12F
100
AcDbEntity
100
AcDbLine
  8
deck
 62
256
370
-1
  6
ByLayer
 10
8.7871757815014462
 20
-34.2525353728141226
 30
0.0
 11
8.7871757815014178
 21
285.519105499449438
 31
0.0
  0
LINE
  5
130
100
AcDbEntity
100
AcDbLine
  8
deck
 62
256
370
-1
  6
ByLayer
 10
18.7871757815014462
 20
-34.2525353728141226
 30
0.0
 11
18.7871757815014178
 21
285.519105499449438
 31
0.0
  0
LINE
  5
131
100
AcDbEntity
100
AcDbLine
  8
deck
 62
256
370
-1
  6
ByLayer
 10
28.7871757815014462
 20
-34.2525353728141226
 30
0.0
 11
28.7871757815014178
 21
285.519105499449438
 31
0.0
  0
LINE
  5
132
100
AcDbEntity
100
AcDbLine
  8
deck
 62
256
370
-1
  6
ByLayer
 10
38.7871757815014462
 20
-34.2525353728141226
 30
0.0
 11
38.7871757815014178
 21
285.519105499449438
 31
0.0
  0
LINE
  5
133
100
AcDbEntity
100
AcDbLine
  8
deck
 62
256
370
-1
  6
ByLayer
 10
48.7871757815014462
 20
-34.2525353728141226
 30
0.0
 11
48.7871757815014178
 21
285.519105499449438
 31
0.0
  0
LINE
  5
134
100
AcDbEntity
100
AcDbLine
  8
deck
 62
256
370
-1
  6
ByLayer
 10
58.7871757815014462
 20
-34.2525353728141226
 30
0.0
 11
58.7871757815014178
 21
285.519105499449438
 31
0.0
  0
LINE
  5
135
100
AcDbEntity
100
AcDbLine
  8
deck
 62
256
370
-1
  6
ByLayer
 10
68.7871757815014462
 20
-34.2525353728141226
 30
0.0
 11
68.7871757815014178
 21
285.519105499449438
 31
0.0
  0
LINE
  5
136
100
AcDbEntity
100
AcDbLine
  8
deck
 62
256
370
-1
  6
ByLayer
 10
78.7871757815014462
 20
-34.2525353728141226
 30
0.0
 11
78.7871757815014178
 21
285.519105499449438
 31
0.0
  0
LINE
  5
137
100
AcDbEntity
100
AcDbLine
  8
deck
 62
256
370
-1
  6
ByLayer
 10
88.7871757815014462
 20
-34.2525353728141226
 30
0.0
 11
88.7871757815014178
 21
285.519105499449438
 31
0.0
  0
LINE
  5
138
100
AcDbEntity
100
AcDbLine
  8
deck
 62
256
370
-1
  6
ByLayer
 10
98.7871757815014462
 20
-34.2525353728141226
 30
0.0
 11
98.7871757815014178
 21
285.519105499449438
 31
0.0
  0
LINE
  5
139
100
AcDbEntity
100
AcDbLine
  8
deck
 62
256
370
-1
  6
ByLayer
 10
108.7871757815014462
 20
-34.2525353728141226
 30
0.0
 11
108.7871757815014178
 21
285.519105499449438
 31
0.0
  0
LINE
  5
13A
100
AcDbEntity
100
AcDbLine
  8
deck
 62
256
370
-1
  6
ByLayer
 10
118.7871757815014462
 20
-34.2525353728141226
 30
0.0
 11
118.7871757815014178
 21
285.519105499449438
 31
0.0
  0
LINE
  5
13B
100
AcDbEntity
100
AcDbLine
  8
deck
 62
256
370
-1
  6
ByLayer
 10
128.7871757815014462
 20
-34.2525353728141226
 30
0.0
 11
128.7871757815014178
 21
285.519105499449438
 31
0.0
  0
LINE
  5
13C
100
AcDbEntity
100
AcDbLine
  8
deck
 62
256
370
-1
  6
ByLayer
 10
138.7871757815014462
 20
-34.2525353728141226
 30
0.0
 11
138.7871757815014178
 21
285.519105499449438
 31
0.0
  0
LINE
  5
13D
100
AcDbEntity
100
AcDbLine
  8
deck
 62
256
370
-1
  6
ByLayer
 10
148.7871757815014462
 20
-34.2525353728141226
 30
0.0
 11
148.7871757815014178
 21
285.519105499449438
 31
0.0
  0
LINE
  5
13E
100
AcDbEntity
100
AcDbLine
  8
deck
 62
256
370
-1
  6
ByLayer
 10
158.7871757815014462
 20
-34.2525353728141226
 30
0.0
 11
158.7871757815014178
 21
285.519105499449438
 31
0.0
  0
LINE
  5
13F
100
AcDbEntity
100
AcDbLine
  8
deck
 62
256
370
-1
  6
ByLayer
 10
168.7871757815014462
 20
-34.2525353728141226
 30
0.0
 11
168.7871757815014178
 21
285.519105499449438
 31
0.0
  0
LINE
  5
140
100
AcDbEntity
100
AcDbLine
  8
deck
 62
256
370
-1
  6
ByLayer
 10
178.7871757815014462
 20
-34.2525353728141226
 30
0.0
 11
178.7871757815014178
 21
285.519105499449438
 31
0.0
  0
LINE
  5
141
100
AcDbEntity
100
AcDbLine
  8
deck
 62
256
370
-1
  6
ByLayer
 10
188.7871757815014462
 20
-34.2525353728141226
 30
0.0
 11
188.7871757815014178
 21
285.519105499449438
 31
0.0
  0
LINE
  5
142
100
AcDbEntity
100
AcDbLine
  8
deck
 62
256
370
-1
  6
ByLayer
 10
198.7871757815014462
 20
-34.2525353728141226
 30
0.0
 11
198.7871757815014178
 21
285.519105499449438
 31
0.0
  0
LINE
  5
143
100
AcDbEntity
100
AcDbLine
  8
deck
 62
256
370
-1
  6
ByLayer
 10
208.7871757815014462
 20
-34.2525353728141226
 30
0.0
 11
208.7871757815014178
 21
285.519105499449438
 31
0.0
  0
LINE
  5
144
100
AcDbEntity
100
AcDbLine
  8
deck
 62
256
370
-1
  6
ByLayer
 10
218.7871757815014462
 20
-34.2525353728141226
 30
0.0
 11
218.7871757815014178
 21
285.519105499449438
 31
0.0
  0
LINE
  5
145
100
AcDbEntity
100
AcDbLine
  8
deck
 62
256
370
-1
  6
ByLayer
 10
228.7871757815014462
 20
-34.2525353728141226
 30
0.0
 11
228.7871757815014178
 21
285.519105499449438
 31
0.0
  0
LINE
  5
146
100
AcDbEntity
100
AcDbLine
  8
deck
 62
256
370
-1
  6
ByLayer
 10
238.7871757815014462
 20
-34.2525353728141226
 30
0.0
 11
238.7871757815014178
 21
285.519105499449438
 31
0.0
  0
LINE
  5
147
100
AcDbEntity
100
AcDbLine
  8
deck
 62
256
370
-1
  6
ByLayer
 10
248.7871757815014462
 20
-34.2525353728141226
 30
0.0
 11
248.7871757815014178
 21
285.519105499449438
 31
0.0
  0
LINE
  5
148
100
AcDbEntity
100
AcDbLine
  8
deck
 62
256
370
-1
  6
ByLayer
 10
258.7871757815014462
 20
-34.2525353728141226
 30
0.0
 11
258.7871757815014462
 21
285.519105499449438
 31
0.0
  0
LINE
  5
149
100
AcDbEntity
100
AcDbLine
  8
deck
 62
256
370
-1
  6
ByLayer
 10
268.7871757815014462
 20
-34.2525353728141226
 30
0.0
 11
268.7871757815014462
 21
285.519105499449438
 31
0.0
  0
LINE
  5
14A
100
AcDbEntity
100
AcDbLine
  8
deck
 62
256
370
-1
  6
ByLayer
 10
278.7871757815014462
 20
-34.2525353728141226
 30
0.0
 11
278.7871757815014462
 21
285.519105499449438
 31
0.0
  0
LINE
  5
14B
100
AcDbEntity
100
AcDbLine
  8
deck
 62
256
370
-1
  6
ByLayer
 10
288.7871757815014462
 20
-34.2525353728141226
 30
0.0
 11
288.7871757815014462
 21
285.519105499449438
 31
0.0
  0
LINE
  5
14C
100
AcDbEntity
100
AcDbLine
  8
deck
 62
256
370
-1
  6
ByLayer
 10
298.7871757815014462
 20
-34.2525353728141226
 30
0.0
 11
298.7871757815014462
 21
285.519105499449438
 31
0.0
  0
LINE
  5
14D
100
AcDbEntity
100
AcDbLine
  8
deck
 62
256
370
-1
  6
ByLayer
 10
308.7871757815014462
 20
-34.2525353728141226
 30
0.0
 11
308.7871757815014462
 21
285.519105499449438
 31
0.0
  0
LINE
  5
14E
100
AcDbEntity
100
AcDbLine
  8
deck
 62
256
370
-1
  6
ByLayer
 10
318.7871757815014462
 20
-34.2525353728141226
 30
0.0
 11
318.7871757815014462
 21
285.519105499449438
 31
0.0
  0
LINE
  5
14F
100
AcDbEntity
100
AcDbLine
  8
deck
 62
256
370
-1
  6
ByLayer
 10
328.7871757815014462
 20
-34.2525353728141226
 30
0.0
 11
328.7871757815014462
 21
285.519105499449438
 31
0.0
  0
LINE
  5
150
100
AcDbEntity
100
AcDbLine
  8
deck
 62
256
370
-1
  6
ByLayer
 10
338.7871757815014462
 20
-34.2525353728141226
 30
0.0
 11
338.7871757815014462
 21
285.519105499449438
 31
0.0
  0
LINE
  5
151
100
AcDbEntity
100
AcDbLine
  8
deck
 62
256
370
-1
  6
ByLayer
 10
348.7871757815014462
 20
-34.2525353728141226
 30
0.0
 11
348.7871757815014462
 21
285.519105499449438
 31
0.0
  0
LINE
  5
152
100
AcDbEntity
100
AcDbLine
  8
deck
 62
256
370
-1
  6
ByLayer
 10
358.7871757815014462
 20
-34.2525353728141226
 30
0.0
 11
358.7871757815014462
 21
285.519105499449438
 31
0.0
  0
LINE
  5
153
100
AcDbEntity
100
AcDbLine
  8
deck
 62
256
370
-1
  6
ByLayer
 10
368.7871757815014462
 20
-34.2525353728141226
 30
0.0
 11
368.7871757815014462
 21
285.519105499449438
 31
0.0
  0
LINE
  5
154
100
AcDbEntity
100
AcDbLine
  8
deck
 62
256
370
-1
  6
ByLayer
 10
378.7871757815014462
 20
-34.2525353728141226
 30
0.0
 11
378.7871757815014462
 21
285.519105499449438
 31
0.0
  0
LINE
  5
155
100
AcDbEntity
100
AcDbLine
  8
deck
 62
256
370
-1
  6
ByLayer
 10
388.7871757815014462
 20
-34.2525353728141226
 30
0.0
 11
388.7871757815014462
 21
285.519105499449438
 31
0.0
  0
LINE
  5
156
100
AcDbEntity
100
AcDbLine
  8
deck
 62
256
370
-1
  6
ByLayer
 10
398.7871757815014462
 20
-34.2525353728141226
 30
0.0
 11
398.7871757815014462
 21
285.519105499449438
 31
0.0
  0
LINE
  5
157
100
AcDbEntity
100
AcDbLine
  8
deck
 62
256
370
-1
  6
ByLayer
 10
408.7871757815014462
 20
-34.2525353728141226
 30
0.0
 11
408.7871757815014462
 21
285.519105499449438
 31
0.0
  0
LINE
  5
158
100
AcDbEntity
100
AcDbLine
  8
deck
 62
256
370
-1
  6
ByLayer
 10
418.7871757815014462
 20
-34.2525353728141226
 30
0.0
 11
418.7871757815014462
 21
285.519105499449438
 31
0.0
  0
LINE
  5
159
100
AcDbEntity
100
AcDbLine
  8
deck
 62
256
370
-1
  6
ByLayer
 10
428.7871757815014462
 20
-34.2525353728141226
 30
0.0
 11
428.7871757815014462
 21
285.519105499449438
 31
0.0
  0
LINE
  5
15A
100
AcDbEntity
100
AcDbLine
  8
deck
 62
256
370
-1
  6
ByLayer
 10
438.7871757815014462
 20
-34.2525353728141226
 30
0.0
 11
438.7871757815014462
 21
285.519105499449438
 31
0.0
  0
LINE
  5
15B
100
AcDbEntity
100
AcDbLine
  8
deck
 62
256
370
-1
  6
ByLayer
 10
448.7871757815014462
 20
-34.2525353728141226
 30
0.0
 11
448.7871757815014462
 21
285.519105499449438
 31
0.0
  0
LINE
  5
15C
100
AcDbEntity
100
AcDbLine
  8
deck
 62
256
370
-1
  6
ByLayer
 10
458.7871757815014462
 20
-34.2525353728141226
 30
0.0
 11
458.7871757815014462
 21
285.519105499449438
 31
0.0
  0
LINE
  5
15D
100
AcDbEntity
100
AcDbLine
  8
deck
 62
256
370
-1
  6
ByLayer
 10
468.7871757815014462
 20
-34.2525353728141226
 30
0.0
 11
468.7871757815014462
 21
285.519105499449438
 31
0.0
  0
LINE
  5
15E
100
AcDbEntity
100
AcDbLine
  8
deck
 62
256
370
-1
  6
ByLayer
 10
478.7871757815014462
 20
-34.2525353728141226
 30
0.0
 11
478.7871757815014462
 21
285.519105499449438
 31
0.0
  0
LINE
  5
15F
100
AcDbEntity
100
AcDbLine
  8
deck
 62
256
370
-1
  6
ByLayer
 10
488.7871757815014462
 20
-34.2525353728141226
 30
0.0
 11
488.7871757815014462
 21
285.519105499449438
 31
0.0
  0
LINE
  5
160
100
AcDbEntity
100
AcDbLine
  8
deck
 62
256
370
-1
  6
ByLayer
 10
498.7871757815014462
 20
-34.2525353728141226
 30
0.0
 11
498.7871757815014462
 21
285.519105499449438
 31
0.0
  0
LINE
  5
161
100
AcDbEntity
100
AcDbLine
  8
deck
 62
256
370
-1
  6
ByLayer
 10
508.7871757815014462
 20
-34.2525353728141226
 30
0.0
 11
508.7871757815014462
 21
285.519105499449438
 31
0.0
  0
LINE
  5
162
100
AcDbEntity
100
AcDbLine
  8
deck
 62
256
370
-1
  6
ByLayer
 10
518.7871757815014462
 20
-34.2525353728141226
 30
0.0
 11
518.7871757815014462
 21
285.519105499449438
 31
0.0
  0
LINE
  5
163
100
AcDbEntity
100
AcDbLine
  8
deck
 62
256
370
-1
  6
ByLayer
 10
528.7871757815014462
 20
-34.2525353728141226
 30
0.0
 11
528.7871757815014462
 21
285.519105499449438
 31
0.0
  0
LINE
  5
164
100
AcDbEntity
100
AcDbLine
  8
deck
 62
256
370
-1
  6
ByLayer
 10
538.7871757815014462
 20
-34.2525353728141226
 30
0.0
 11
538.7871757815014462
 21
285.519105499449438
 31
0.0
  0
LINE
  5
165
100
AcDbEntity
100
AcDbLine
  8
deck
 62
256
370
-1
  6
ByLayer
 10
548.7871757815014462
 20
-34.2525353728141226
 30
0.0
 11
548.7871757815014462
 21
285.519105499449438
 31
0.0
  0
LINE
  5
166
100
AcDbEntity
100
AcDbLine
  8
deck
 62
256
370
-1
  6
ByLayer
 10
558.7871757815014462
 20
-34.2525353728141226
 30
0.0
 11
558.7871757815014462
 21
285.519105499449438
 31
0.0
  0
LINE
  5
167
100
AcDbEntity
100
AcDbLine
  8
deck
 62
256
370
-1
  6
ByLayer
 10
568.7871757815014462
 20
-34.2525353728141226
 30
0.0
 11
568.7871757815014462
 21
285.519105499449438
 31
0.0
  0
LINE
  5
168
100
AcDbEntity
100
AcDbLine
  8
deck
 62
256
370
-1
  6
ByLayer
 10
578.7871757815014462
 20
-34.2525353728141226
 30
0.0
 11
578.7871757815014462
 21
285.519105499449438
 31
0.0
  0
LINE
  5
169
100
AcDbEntity
100
AcDbLine
  8
deck
 62
256
370
-1
  6
ByLayer
 10
588.7871757815014462
 20
-34.2525353728141226
 30
0.0
 11
588.7871757815014462
 21
285.519105499449438
 31
0.0
  0
LINE
  5
16A
100
AcDbEntity
100
AcDbLine
  8
deck
 62
256
370
-1
  6
ByLayer
 10
598.7871757815014462
 20
-34.2525353728141226
 30
0.0
 11
598.7871757815014462
 21
285.519105499449438
 31
0.0
  0
LINE
  5
16B
100
AcDbEntity
100
AcDbLine
  8
deck
 62
256
370
-1
  6
ByLayer
 10
608.7871757815014462
 20
-34.2525353728141226
 30
0.0
 11
608.7871757815014462
 21
285.519105499449438
 31
0.0
  0
LINE
  5
16C
100
AcDbEntity
100
AcDbLine
  8
deck
 62
256
370
-1
  6
ByLayer
 10
618.7871757815014462
 20
-34.2525353728141226
 30
0.0
 11
618.7871757815014462
 21
285.519105499449438
 31
0.0
  0
LINE
  5
16D
100
AcDbEntity
100
AcDbLine
  8
deck
 62
256
370
-1
  6
ByLayer
 10
628.7871757815014462
 20
-34.2525353728141226
 30
0.0
 11
628.7871757815014462
 21
285.519105499449438
 31
0.0
  0
LINE
  5
16E
100
AcDbEntity
100
AcDbLine
  8
deck
 62
256
370
-1
  6
ByLayer
 10
638.7871757815014462
 20
-34.2525353728141226
 30
0.0
 11
638.7871757815014462
 21
285.519105499449438
 31
0.0
  0
LINE
  5
16F
100
AcDbEntity
100
AcDbLine
  8
deck
 62
256
370
-1
  6
ByLayer
 10
648.7871757815014462
 20
-34.2525353728141226
 30
0.0
 11
648.7871757815014462
 21
285.519105499449438
 31
0.0
  0
LINE
  5
170
100
AcDbEntity
100
AcDbLine
  8
deck
 62
256
370
-1
  6
ByLayer
 10
658.7871757815014462
 20
-34.2525353728141226
 30
0.0
 11
658.7871757815014462
 21
285.519105499449438
 31
0.0
  0
LINE
  5
171
100
AcDbEntity
100
AcDbLine
  8
deck
 62
256
370
-1
  6
ByLayer
 10
668.7871757815014462
 20
-34.2525353728141226
 30
0.0
 11
668.7871757815014462
 21
285.519105499449438
 31
0.0
  0
LINE
  5
172
100
AcDbEntity
100
AcDbLine
  8
deck
 62
256
370
-1
  6
ByLayer
 10
678.7871757815014462
 20
-34.2525353728141226
 30
0.0
 11
678.7871757815014462
 21
285.519105499449438
 31
0.0
  0
LINE
  5
173
100
AcDbEntity
100
AcDbLine
  8
deck
 62
256
370
-1
  6
ByLayer
 10
688.7871757815014462
 20
-34.2525353728141226
 30
0.0
 11
688.7871757815014462
 21
285.519105499449438
 31
0.0
  0
LINE
  5
174
100
AcDbEntity
100
AcDbLine
  8
deck
 62
256
370
-1
  6
ByLayer
 10
698.7871757815014462
 20
-34.2525353728141226
 30
0.0
 11
698.7871757815014462
 21
285.519105499449438
 31
0.0
  0
LINE
  5
175
100
AcDbEntity
100
AcDbLine
  8
deck
 62
256
370
-1
  6
ByLayer
 10
708.7871757815014462
 20
-34.2525353728141226
 30
0.0
 11
708.7871757815014462
 21
285.519105499449438
 31
0.0
  0
LINE
  5
176
100
AcDbEntity
100
AcDbLine
  8
deck
 62
256
370
-1
  6
ByLayer
 10
718.7871757815014462
 20
-34.2525353728141226
 30
0.0
 11
718.7871757815014462
 21
285.519105499449438
 31
0.0
  0
LINE
  5
177
100
AcDbEntity
100
AcDbLine
  8
deck
 62
256
370
-1
  6
ByLayer
 10
728.7871757815014462
 20
-34.2525353728141226
 30
0.0
 11
728.7871757815014462
 21
285.519105499449438
 31
0.0
  0
LINE
  5
178
100
AcDbEntity
100
AcDbLine
  8
deck
 62
256
370
-1
  6
ByLayer
 10
738.7871757815014462
 20
-34.2525353728141226
 30
0.0
 11
738.7871757815014462
 21
285.519105499449438
 31
0.0
  0
LINE
  5
179
100
AcDbEntity
100
AcDbLine
  8
deck
 62
256
370
-1
  6
ByLayer
 10
748.7871757815014462
 20
-34.2525353728141226
 30
0.0
 11
748.7871757815014462
 21
285.519105499449438
 31
0.0
  0
LINE
  5
17A
100
AcDbEntity
100
AcDbLine
  8
deck
 62
256
370
-1
  6
ByLayer
 10
758.7871757815014462
 20
-34.2525353728141226
 30
0.0
 11
758.7871757815014462
 21
285.519105499449438
 31
0.0
  0
LINE
  5
17B
100
AcDbEntity
100
AcDbLine
  8
deck
 62
256
370
-1
  6
ByLayer
 10
768.7871757815014462
 20
-34.2525353728141226
 30
0.0
 11
768.7871757815014462
 21
285.519105499449438
 31
0.0
  0
LINE
  5
17C
100
AcDbEntity
100
AcDbLine
  8
deck
 62
256
370
-1
  6
ByLayer
 10
778.7871757815014462
 20
-34.2525353728141226
 30
0.0
 11
778.7871757815014462
 21
285.519105499449438
 31
0.0
  0
LINE
  5
17D
100
AcDbEntity
100
AcDbLine
  8
deck
 62
256
370
-1
  6
ByLayer
 10
788.7871757815014462
 20
-34.2525353728141226
 30
0.0
 11
788.7871757815014462
 21
285.519105499449438
 31
0.0
  0
LINE
  5
17E
100
AcDbEntity
100
AcDbLine
  8
deck
 62
256
370
-1
  6
ByLayer
 10
798.7871757815014462
 20
-34.2525353728141226
 30
0.0
 11
798.7871757815014462
 21
285.519105499449438
 31
0.0
  0
LINE
  5
17F
100
AcDbEntity
100
AcDbLine
  8
deck
 62
256
370
-1
  6
ByLayer
 10
808.7871757815014462
 20
-34.2525353728141226
 30
0.0
 11
808.7871757815014462
 21
285.519105499449438
 31
0.0
  0
LINE
  5
180
100
AcDbEntity
100
AcDbLine
  8
deck
 62
256
370
-1
  6
ByLayer
 10
818.7871757815014462
 20
-34.2525353728141226
 30
0.0
 11
818.7871757815014462
 21
285.519105499449438
 31
0.0
  0
LINE
  5
181
100
AcDbEntity
100
AcDbLine
  8
deck
 62
256
370
-1
  6
ByLayer
 10
828.7871757815014462
 20
-34.2525353728141226
 30
0.0
 11
828.7871757815014462
 21
285.519105499449438
 31
0.0
  0
LINE
  5
182
100
AcDbEntity
100
AcDbLine
  8
deck
 62
256
370
-1
  6
ByLayer
 10
838.7871757815014462
 20
-34.2525353728141226
 30
0.0
 11
838.7871757815014462
 21
285.519105499449438
 31
0.0
  0
LINE
  5
183
100
AcDbEntity
100
AcDbLine
  8
deck
 62
256
370
-1
  6
ByLayer
 10
848.7871757815014462
 20
-34.2525353728141226
 30
0.0
 11
848.7871757815014462
 21
285.519105499449438
 31
0.0
  0
LINE
  5
184
100
AcDbEntity
100
AcDbLine
  8
deck
 62
256
370
-1
  6
ByLayer
 10
858.7871757815014462
 20
-34.2525353728141226
 30
0.0
 11
858.7871757815014462
 21
285.519105499449438
 31
0.0
  0
LINE
  5
185
100
AcDbEntity
100
AcDbLine
  8
deck
 62
256
370
-1
  6
ByLayer
 10
868.7871757815014462
 20
-34.2525353728141226
 30
0.0
 11
868.7871757815014462
 21
285.519105499449438
 31
0.0
  0
LINE
  5
186
100
AcDbEntity
100
AcDbLine
  8
deck
 62
256
370
-1
  6
ByLayer
 10
878.7871757815014462
 20
-34.2525353728141226
 30
0.0
 11
878.7871757815014462
 21
285.519105499449438
 31
0.0
  0
LINE
  5
187
100
AcDbEntity
100
AcDbLine
  8
deck
 62
256
370
-1
  6
ByLayer
 10
888.7871757815014462
 20
-34.2525353728141226
 30
0.0
 11
888.7871757815014462
 21
285.519105499449438
 31
0.0
  0
LINE
  5
188
100
AcDbEntity
100
AcDbLine
  8
deck
 62
256
370
-1
  6
ByLayer
 10
898.7871757815014462
 20
-34.2525353728141226
 30
0.0
 11
898.7871757815014462
 21
285.519105499449438
 31
0.0
  0
LINE
  5
189
100
AcDbEntity
100
AcDbLine
  8
deck
 62
256
370
-1
  6
ByLayer
 10
908.7871757815014462
 20
-34.2525353728141226
 30
0.0
 11
908.7871757815014462
 21
285.519105499449438
 31
0.0
  0
LINE
  5
18A
100
AcDbEntity
100
AcDbLine
  8
deck
 62
256
370
-1
  6
ByLayer
 10
918.7871757815014462
 20
-34.2525353728141226
 30
0.0
 11
918.7871757815014462
 21
285.519105499449438
 31
0.0
  0
LINE
  5
18B
100
AcDbEntity
100
AcDbLine
  8
deck
 62
256
370
-1
  6
ByLayer
 10
928.7871757815014462
 20
-34.2525353728141226
 30
0.0
 11
928.7871757815014462
 21
285.519105499449438
 31
0.0
  0
LINE
  5
18C
100
AcDbEntity
100
AcDbLine
  8
deck
 62
256
370
-1
  6
ByLayer
 10
938.7871757815014462
 20
-34.2525353728141226
 30
0.0
 11
938.7871757815014462
 21
285.519105499449438
 31
0.0
  0
LINE
  5
18D
100
AcDbEntity
100
AcDbLine
  8
deck
 62
256
370
-1
  6
ByLayer
 10
948.7871757815014462
 20
-34.2525353728141226
 30
0.0
 11
948.7871757815014462
 21
285.519105499449438
 31
0.0
  0
LINE
  5
18E
100
AcDbEntity
100
AcDbLine
  8
deck
 62
256
370
-1
  6
ByLayer
 10
958.7871757815014462
 20
-34.2525353728141226
 30
0.0
 11
958.7871757815014462
 21
285.519105499449438
 31
0.0
  0
LINE
  5
18F
100
AcDbEntity
100
AcDbLine
  8
deck
 62
256
370
-1
  6
ByLayer
 10
968.7871757815014462
 20
-34.2525353728141226
 30
0.0
 11
968.7871757815014462
 21
285.519105499449438
 31
0.0
  0
LINE
  5
190
100
AcDbEntity
100
AcDbLine
  8
deck
 62
256
370
-1
  6
ByLayer
 10
978.7871757815014462
 20
-34.2525353728141226
 30
0.0
 11
978.7871757815014462
 21
285.519105499449438
 31
0.0
  0
LINE
  5
191
100
AcDbEntity
100
AcDbLine
  8
deck
 62
256
370
-1
  6
ByLayer
 10
988.7871757815014462
 20
-34.2525353728141226
 30
0.0
 11
988.7871757815014462
 21
285.519105499449438
 31
0.0
  0
LINE
  5
192
100
AcDbEntity
100
AcDbLine
  8
deck
 62
256
370
-1
  6
ByLayer
 10
998.7871757815014462
 20
-34.2525353728141226
 30
0.0
 11
998.7871757815014462
 21
285.519105499449438
 31
0.0
  0
LINE
  5
193
100
AcDbEntity
100
AcDbLine
  8
deck
 62
256
370
-1
  6
ByLayer
 10
1008.7871757815014462
 20
-34.2525353728141226
 30
0.0
 11
1008.7871757815014462
 21
285.519105499449438
 31
0.0
  0
LINE
  5
194
100
AcDbEntity
100
AcDbLine
  8
deck
 62
256
370
-1
  6
ByLayer
 10
1018.7871757815014462
 20
-34.2525353728141226
 30
0.0
 11
1018.7871757815014462
 21
285.519105499449438
 31
0.0
  0
LINE
  5
195
100
AcDbEntity
100
AcDbLine
  8
deck
 62
256
370
-1
  6
ByLayer
 10
1028.7871757815014462
 20
-34.2525353728141226
 30
0.0
 11
1028.7871757815014462
 21
285.519105499449438
 31
0.0
  0
LINE
  5
196
100
AcDbEntity
100
AcDbLine
  8
deck
 62
256
370
-1
  6
ByLayer
 10
1038.7871757815014462
 20
-34.2525353728141226
 30
0.0
 11
1038.7871757815014462
 21
285.519105499449438
 31
0.0
  0
LINE
  5
197
100
AcDbEntity
100
AcDbLine
  8
deck
 62
256
370
-1
  6
ByLayer
 10
1048.7871757815014462
 20
-34.2525353728141226
 30
0.0
 11
1048.7871757815014462
 21
285.519105499449438
 31
0.0
  0
LINE
  5
198
100
AcDbEntity
100
AcDbLine
  8
deck
 62
256
370
-1
  6
ByLayer
 10
1058.7871757815014462
 20
-34.2525353728141226
 30
0.0
 11
1058.7871757815014462
 21
285.519105499449438
 31
0.0
  0
LINE
  5
199
100
AcDbEntity
100
AcDbLine
  8
deck
 62
256
370
-1
  6
ByLayer
 10
1068.7871757815014462
 20
-34.2525353728141226
 30
0.0
 11
1068.7871757815014462
 21
285.519105499449438
 31
0.0
  0
LINE
  5
19A
100
AcDbEntity
100
AcDbLine
  8
deck
 62
256
370
-1
  6
ByLayer
 10
1078.7871757815014462
 20
-34.2525353728141226
 30
0.0
 11
1078.7871757815014462
 21
285.519105499449438
 31
0.0
  0
LINE
  5
19B
100
AcDbEntity
100
AcDbLine
  8
deck
 62
256
370
-1
  6
ByLayer
 10
1088.7871757815014462
 20
-34.2525353728141226
 30
0.0
 11
1088.7871757815014462
 21
285.519105499449438
 31
0.0
  0
LINE
  5
19C
100
AcDbEntity
100
AcDbLine
  8
deck
 62
256
370
-1
  6
ByLayer
 10
1098.7871757815014462
 20
-34.2525353728141226
 30
0.0
 11
1098.7871757815014462
 21
285.519105499449438
 31
0.0
  0
LINE
  5
19D
100
AcDbEntity
100
AcDbLine
  8
deck
 62
256
370
-1
  6
ByLayer
 10
1108.7871757815014462
 20
-34.2525353728141226
 30
0.0
 11
1108.7871757815014462
 21
285.519105499449438
 31
0.0
  0
LINE
  5
19E
100
AcDbEntity
100
AcDbLine
  8
deck
 62
256
370
-1
  6
ByLayer
 10
1118.7871757815014462
 20
-34.2525353728141226
 30
0.0
 11
1118.7871757815014462
 21
285.519105499449438
 31
0.0
  0
LINE
  5
19F
100
AcDbEntity
100
AcDbLine
  8
deck
 62
256
370
-1
  6
ByLayer
 10
1128.7871757815014462
 20
-34.2525353728141226
 30
0.0
 11
1128.7871757815014462
 21
285.519105499449438
 31
0.0
  0
LINE
  5
1A0
100
AcDbEntity
100
AcDbLine
  8
deck
 62
256
370
-1
  6
ByLayer
 10
1138.7871757815014462
 20
-34.2525353728141226
 30
0.0
 11
1138.7871757815014462
 21
285.519105499449438
 31
0.0
  0
LINE
  5
1A1
100
AcDbEntity
100
AcDbLine
  8
deck
 62
256
370
-1
  6
ByLayer
 10
1148.7871757815014462
 20
-34.2525353728141226
 30
0.0
 11
1148.7871757815014462
 21
285.519105499449438
 31
0.0
  0
LINE
  5
1A2
100
AcDbEntity
100
AcDbLine
  8
deck
 62
256
370
-1
  6
ByLayer
 10
1158.7871757815014462
 20
-34.2525353728141226
 30
0.0
 11
1158.7871757815014462
 21
285.519105499449438
 31
0.0
  0
LINE
  5
1A3
100
AcDbEntity
100
AcDbLine
  8
deck
 62
256
370
-1
  6
ByLayer
 10
1168.7871757815014462
 20
-34.2525353728141226
 30
0.0
 11
1168.7871757815014462
 21
285.519105499449438
 31
0.0
  0
LINE
  5
1A4
100
AcDbEntity
100
AcDbLine
  8
deck
 62
256
370
-1
  6
ByLayer
 10
1178.7871757815014462
 20
-34.2525353728141226
 30
0.0
 11
1178.7871757815014462
 21
285.519105499449438
 31
0.0
  0
LINE
  5
1A5
100
AcDbEntity
100
AcDbLine
  8
deck
 62
256
370
-1
  6
ByLayer
 10
1188.7871757815014462
 20
-34.2525353728141226
 30
0.0
 11
1188.7871757815014462
 21
285.519105499449438
 31
0.0
  0
LINE
  5
1A6
100
AcDbEntity
100
AcDbLine
  8
deck
 62
256
370
-1
  6
ByLayer
 10
1198.7871757815014462
 20
-34.2525353728141226
 30
0.0
 11
1198.7871757815014462
 21
285.519105499449438
 31
0.0
  0
LINE
  5
1A7
100
AcDbEntity
100
AcDbLine
  8
deck
 62
256
370
-1
  6
ByLayer
 10
1208.7871757815014462
 20
-34.2525353728141226
 30
0.0
 11
1208.7871757815014462
 21
285.519105499449438
 31
0.0
  0
LINE
  5
1A8
100
AcDbEntity
100
AcDbLine
  8
deck
 62
256
370
-1
  6
ByLayer
 10
1218.7871757815014462
 20
-34.2525353728141226
 30
0.0
 11
1218.7871757815014462
 21
285.519105499449438
 31
0.0
  0
LINE
  5
1A9
100
AcDbEntity
100
AcDbLine
  8
deck
 62
256
370
-1
  6
ByLayer
 10
1228.7871757815014462
 20
-34.2525353728141226
 30
0.0
 11
1228.7871757815014462
 21
285.519105499449438
 31
0.0
  0
LINE
  5
1AA
100
AcDbEntity
100
AcDbLine
  8
deck
 62
256
370
-1
  6
ByLayer
 10
1238.7871757815014462
 20
-34.2525353728141226
 30
0.0
 11
1238.7871757815014462
 21
285.519105499449438
 31
0.0
  0
LINE
  5
1AB
100
AcDbEntity
100
AcDbLine
  8
deck
 62
256
370
-1
  6
ByLayer
 10
1248.7871757815014462
 20
-34.2525353728141226
 30
0.0
 11
1248.7871757815014462
 21
285.519105499449438
 31
0.0
  0
LINE
  5
1AC
100
AcDbEntity
100
AcDbLine
  8
deck
 62
256
370
-1
  6
ByLayer
 10
1258.7871757815014462
 20
-34.2525353728141226
 30
0.0
 11
1258.7871757815014462
 21
285.519105499449438
 31
0.0
  0
LINE
  5
1AD
100
AcDbEntity
100
AcDbLine
  8
deck
 62
256
370
-1
  6
ByLayer
 10
1268.7871757815014462
 20
-34.2525353728141226
 30
0.0
 11
1268.7871757815014462
 21
285.519105499449438
 31
0.0
  0
LINE
  5
1AE
100
AcDbEntity
100
AcDbLine
  8
deck
 62
256
370
-1
  6
ByLayer
 10
1278.7871757815014462
 20
-34.2525353728141226
 30
0.0
 11
1278.7871757815014462
 21
285.519105499449438
 31
0.0
  0
LINE
  5
1AF
100
AcDbEntity
100
AcDbLine
  8
deck
 62
256
370
-1
  6
ByLayer
 10
1288.7871757815014462
 20
-34.2525353728141226
 30
0.0
 11
1288.7871757815014462
 21
285.519105499449438
 31
0.0
  0
LINE
  5
1B0
100
AcDbEntity
100
AcDbLine
  8
deck
 62
256
370
-1
  6
ByLayer
 10
1298.7871757815014462
 20
-34.2525353728141226
 30
0.0
 11
1298.7871757815014462
 21
285.519105499449438
 31
0.0
  0
LINE
  5
1B1
100
AcDbEntity
100
AcDbLine
  8
deck
 62
256
370
-1
  6
ByLayer
 10
1308.7871757815014462
 20
-34.2525353728141226
 30
0.0
 11
1308.7871757815014462
 21
285.519105499449438
 31
0.0
  0
LINE
  5
1B2
100
AcDbEntity
100
AcDbLine
  8
deck
 62
256
370
-1
  6
ByLayer
 10
1318.7871757815014462
 20
-34.2525353728141226
 30
0.0
 11
1318.7871757815014462
 21
285.519105499449438
 31
0.0
  0
LINE
  5
1B3
100
AcDbEntity
100
AcDbLine
  8
deck
 62
256
370
-1
  6
ByLayer
 10
1326.7871757815014462
 20
-34.2525353728141226
 30
0.0
 11
1326.7871757815014462
 21
285.519105499449438
 31
0.0
  0
LINE
  5
1B4
100
AcDbEntity
100
AcDbLine
  8
deck
 62
256
370
-1
  6
DASHED2
 10
-126.2128242184983264
 20
-365.1490923077745947
 30
0.0
 11
-106.2128242184983264
 21
-365.1490923077745947
 31
0.0
  0
LINE
  5
1B5
100
AcDbEntity
100
AcDbLine
  8
deck
 62
256
370
-1
  6
DASHED2
 10
113.7871757815016736
 20
-365.1490923077745947
 30
0.0
 11
133.7871757815016736
 21
-365.1490923077745947
 31
0.0
  0
LINE
  5
1B6
100
AcDbEntity
100
AcDbLine
  8
deck
 62
256
370
-1
  6
DASHED2
 10
233.7871757815016736
 20
-365.1490923077745947
 30
0.0
 11
253.7871757815016736
 21
-365.1490923077745947
 31
0.0
  0
LINE
  5
1B7
100
AcDbEntity
100
AcDbLine
  8
deck
 62
256
370
-1
  6
DASHED2
 10
353.7871757815016736
 20
-365.1490923077745947
 30
0.0
 11
373.7871757815019009
 21
-365.1490923077745947
 31
0.0
  0
LINE
  5
1B8
100
AcDbEntity
100
AcDbLine
  8
deck
 62
256
370
-1
  6
DASHED2
 10
473.7871757815019009
 20
-365.1490923077745947
 30
0.0
 11
493.7871757815019009
 21
-365.1490923077745947
 31
0.0
  0
LINE
  5
1B9
100
AcDbEntity
100
AcDbLine
  8
deck
 62
256
370
-1
  6
DASHED2
 10
593.7871757815019009
 20
-365.1490923077745947
 30
0.0
 11
613.7871757815019009
 21
-365.1490923077745947
 31
0.0
  0
LINE
  5
1BA
100
AcDbEntity
100
AcDbLine
  8
deck
 62
256
370
-1
  6
DASHED2
 10
713.7871757815019009
 20
-365.1490923077745947
 30
0.0
 11
733.7871757815019009
 21
-365.1490923077745947
 31
0.0
  0
LINE
  5
1BB
100
AcDbEntity
100
AcDbLine
  8
deck
 62
256
370
-1
  6
DASHED2
 10
833.7871757815019009
 20
-365.1490923077745947
 30
0.0
 11
853.7871757815019009
 21
-365.1490923077745947
 31
0.0
  0
LINE
  5
1BC
100
AcDbEntity
100
AcDbLine
  8
deck
 62
256
370
-1
  6
DASHED2
 10
953.7871757815019009
 20
-365.1490923077745947
 30
0.0
 11
973.7871757815019009
 21
-365.1490923077745947
 31
0.0
  0
LINE
  5
1BD
100
AcDbEntity
100
AcDbLine
  8
deck
 62
256
370
-1
  6
DASHED2
 10
1073.7871757815019009
 20
-365.1490923077745947
 30
0.0
 11
1093.7871757815019009
 21
-365.1490923077745947
 31
0.0
  0
LINE
  5
1BE
100
AcDbEntity
100
AcDbLine
  8
deck
 62
256
370
-1
  6
DASHED2
 10
1212.7871757815019009
 20
-365.1490923077745947
 30
0.0
 11
1232.7871757815019009
 21
-365.1490923077745947
 31
0.0
  0
LINE
  5
1BF
100
AcDbEntity
100
AcDbLine
  8
deck
 62
256
370
-1
  6
DASHED2
 10
1332.7871757815019009
 20
-365.1490923077745947
 30
0.0
 11
1352.7871757815019009
 21
-365.1490923077745947
 31
0.0
  0
LINE
  5
1C0
100
AcDbEntity
100
AcDbLine
  8
deck
 62
256
370
-1
  6
DASHED2
 10
-6.2128242184983264
 20
-365.1490923077745947
 30
0.0
 11
13.7871757815016736
 21
-365.1490923077745947
 31
0.0
  0
ENDSEC
  0
SECTION
  2
OBJECTS
  0
DICTIONARY
  5
C
100
AcDbDictionary
280
0
281
1
  3
ACAD_GROUP
350
D
  3
ACAD_LAYOUT
350
1A
  3
ACAD_MLINESTYLE
350
17
  3
ACAD_PLOTSETTINGS
350
19
  3
ACAD_PLOTSTYLENAME
350
E
  3
AcDbVariableDictionary
350
1C1
  0
DICTIONARY
  5
D
100
AcDbDictionary
280
0
281
1
  0
ACDBDICTIONARYWDFLT
  5
E
100
AcDbDictionary
281
1
  3
Normal
350
F
100
AcDbDictionaryWithDefault
340
F
  0
ACDBPLACEHOLDER
  5
F
  0
DICTIONARY
  5
17
100
AcDbDictionary
280
0
281
1
  3
Standard
350
18
  0
MLINESTYLE
  5
18
100
AcDbMlineStyle
  2
STANDARD
 70
0
  3

 62
256
 51
90.0
 52
90.0
 71
2
 49
0.5
 62
256
  6
BYLAYER
 49
-0.5
 62
256
  6
BYLAYER
  0
DICTIONARY
  5
19
100
AcDbDictionary
280
0
281
1
  0
DICTIONARY
  5
1A
100
AcDbDictionary
281
1
  3
Layout1
350
1E
  3
Layout2
350
26
  3
Model
350
22
  0
LAYOUT
  5
1E
100
AcDbPlotSettings
  1

  2
C:\Program Files\AutoCAD 2002\plotters\DWF ePlot (optimized for plotting).pc3
  4

  6

 40
0.0
 41
0.0
 42
0.0
 43
0.0
 44
0.0
 45
0.0
 46
0.0
 47
0.0
 48
0.0
 49
0.0
140
0.0
141
0.0
142
1.0
143
1.0
 70
688
 72
0
 73
0
 74
5
  7

 75
16
147
1.0
148
0.0
149
0.0
100
AcDbLayout
  1
Layout1
 70
1
 71
1
 10
0.0
 20
0.0
 11
420.0
 21
297.0
 12
0.0
 22
0.0
 32
0.0
 14
100000000000000000000.0
 24
100000000000000000000.0
 34
100000000000000000000.0
 15
-100000000000000000000.0
 25
-100000000000000000000.0
 35
-100000000000000000000.0
146
0.0
 13
0.0
 23
0.0
 33
0.0
 16
1.0
 26
0.0
 36
0.0
 17
0.0
 27
1.0
 37
0.0
 76
0
330
1B
  0
LAYOUT
  5
22
100
AcDbPlotSettings
  1

  2
C:\Program Files\AutoCAD 2002\plotters\DWF ePlot (optimized for plotting).pc3
  4

  6

 40
0.0
 41
0.0
 42
0.0
 43
0.0
 44
0.0
 45
0.0
 46
0.0
 47
0.0
 48
0.0
 49
0.0
140
0.0
141
0.0
142
1.0
143
1.0
 70
1712
 72
0
 73
0
 74
0
  7

 75
0
147
1.0
148
0.0
149
0.0
100
AcDbLayout
  1
Model
 70
1
 71
0
 10
0.0
 20
0.0
 11
12.0
 21
9.0
 12
0.0
 22
0.0
 32
0.0
 14
0.0
 24
0.0
 34
0.0
 15
0.0
 25
0.0
 35
0.0
146
0.0
 13
0.0
 23
0.0
 33
0.0
 16
1.0
 26
0.0
 36
0.0
 17
0.0
 27
1.0
 37
0.0
 76
0
330
1F
  0
LAYOUT
  5
26
100
AcDbPlotSettings
  1

  2
C:\Program Files\AutoCAD 2002\plotters\DWF ePlot (optimized for plotting).pc3
  4

  6

 40
0.0
 41
0.0
 42
0.0
 43
0.0
 44
0.0
 45
0.0
 46
0.0
 47
0.0
 48
0.0
 49
0.0
140
0.0
141
0.0
142
1.0
143
1.0
 70
688
 72
0
 73
0
 74
5
  7

 75
16
147
1.0
148
0.0
149
0.0
100
AcDbLayout
  1
Layout2
 70
1
 71
2
 10
0.0
 20
0.0
 11
12.0
 21
9.0
 12
0.0
 22
0.0
 32
0.0
 14
0.0
 24
0.0
 34
0.0
 15
0.0
 25
0.0
 35
0.0
146
0.0
 13
0.0
 23
0.0
 33
0.0
 16
1.0
 26
0.0
 36
0.0
 17
0.0
 27
1.0
 37
0.0
 76
0
330
23
  0
DICTIONARY
  5
1C1
100
AcDbDictionary
281
1
  3
DIMASSOC
350
1C3
  3
HIDETEXT
350
1C2
  0
DICTIONARYVAR
  5
1C2
100
DictionaryVariables
280
0
  1
2
  0
DICTIONARYVAR
  5
1C3
100
DictionaryVariables
280
0
  1
1
  0
ENDSEC
  0
EOF
