999
dxfrw 0.5.11
0
SECTION
2
HEADER
9
$ACADVER
1
AC1021
9
$HANDSEED
5
20000
9
$DWGCODEPAGE
3
ANSI_1252
9
$INSBASE
10
0
20
0
30
0
9
$EXTMIN
10
-11974.889651
20
-11693.5362411
30
0
9
$EXTMAX
10
134064.640342
20
70600.3504209
30
0
9
$LIMMIN
10
0
20
0
9
$LIMMAX
10
420
20
297
9
$ORTHOMODE
70
0
9
$LTSCALE
40
1
9
$TEXTSTYLE
7
STANDARD
9
$CLAYER
8
dimension
9
$DIMASZ
40
7
9
$DIMLFAC
40
1
9
$DIMSCALE
40
1
9
$DIMEXO
40
3
9
$DIMEXE
40
3
9
$DIMTXT
40
8
9
$DIMTSZ
40
0
9
$DIMAUNIT
70
0
9
$DIMADEC
70
2
9
$DIMLUNIT
70
2
9
$DIMSTYLE
2
Standard
9
$DIMGAP
40
2
9
$DIMTIH
70
0
9
$LUNITS
70
2
9
$LUPREC
70
4
9
$AUNITS
70
0
9
$AUPREC
70
2
9
$SPLINESEGS
70
8
9
$GRIDMODE
70
1
9
$SNAPSTYLE
70
0
9
$GRIDUNIT
10
0
20
0
9
$PINSBASE
10
2.82558146564
20
14.6783085573
30
0
9
$PLIMMIN
10
0
20
0
9
$PLIMMAX
10
210
20
297
9
$INSUNITS
70
4
9
$PSVPSCALE
40
0.0125809584677
0
ENDSEC
0
SECTION
2
CLASSES
0
ENDSEC
0
SECTION
2
TABLES
0
TABLE
2
VPORT
5
8
330
0
100
AcDbSymbolTable
70
1
0
VPORT
5
31
330
2
100
AcDbSymbolTableRecord
100
AcDbViewportTableRecord
2
*ACTIVE
70
0
10
0
20
0
11
1
21
1
12
1141.4546083
22
233.075924076
13
0
23
0
14
10
24
10
15
10
25
10
16
0
26
0
36
1
17
0
27
0
37
0
40
1132.96508789
41
2.10626702997
42
50
43
0
44
0
50
0
51
0
71
0
72
100
73
1
74
3
75
0
76
1
77
0
78
0
281
0
65
1
110
0
120
0
130
0
111
1
121
0
131
0
112
0
122
1
132
0
79
0
146
0
348
10020
60
7
61
5
292
1
282
1
141
0
142
0
63
250
421
3358443
0
ENDTAB
0
TABLE
2
LTYPE
5
5
330
0
100
AcDbSymbolTable
70
4
0
LTYPE
5
14
330
5
100
AcDbSymbolTableRecord
100
AcDbLinetypeTableRecord
2
ByBlock
70
0
3

72
65
73
0
40
0
0
LTYPE
5
15
330
5
100
AcDbSymbolTableRecord
100
AcDbLinetypeTableRecord
2
ByLayer
70
0
3

72
65
73
0
40
0
0
LTYPE
5
16
330
5
100
AcDbSymbolTableRecord
100
AcDbLinetypeTableRecord
2
Continuous
70
0
3
Solid line
72
65
73
0
40
0
0
LTYPE
5
32
330
5
100
AcDbSymbolTableRecord
100
AcDbLinetypeTableRecord
2
DOT
70
0
3
Dot . . . . . . . . . . . . . . . . . . . . . .
72
65
73
2
40
6.35
49
0
74
0
49
-6.35
74
0
0
LTYPE
5
33
330
5
100
AcDbSymbolTableRecord
100
AcDbLinetypeTableRecord
2
DOT2
70
0
3
Dot (.5x) .....................................
72
65
73
2
40
3.175
49
0
74
0
49
-3.175
74
0
0
LTYPE
5
34
330
5
100
AcDbSymbolTableRecord
100
AcDbLinetypeTableRecord
2
DOTX2
70
0
3
Dot (2x) .  .  .  .  .  .  .  .  .  .  .  .  .
72
65
73
2
40
12.7
49
0
74
0
49
-12.7
74
0
0
LTYPE
5
35
330
5
100
AcDbSymbolTableRecord
100
AcDbLinetypeTableRecord
2
DASHED
70
0
3
Dot . . . . . . . . . . . . . . . . . . . . . .
72
65
73
2
40
19.05
49
12.7
74
0
49
-6.35
74
0
0
LTYPE
5
36
330
5
100
AcDbSymbolTableRecord
100
AcDbLinetypeTableRecord
2
DASHED2
70
0
3
Dashed (.5x) _ _ _ _ _ _ _ _ _ _ _ _ _ _ _ _ _
72
65
73
2
40
9.525
49
6.35
74
0
49
-3.175
74
0
0
LTYPE
5
37
330
5
100
AcDbSymbolTableRecord
100
AcDbLinetypeTableRecord
2
DASHEDX2
70
0
3
Dashed (2x) ____  ____  ____  ____  ____  ___
72
65
73
2
40
38.1
49
25.4
74
0
49
-12.7
74
0
0
LTYPE
5
38
330
5
100
AcDbSymbolTableRecord
100
AcDbLinetypeTableRecord
2
DASHDOT
70
0
3
Dash dot __ . __ . __ . __ . __ . __ . __ . __
72
65
73
4
40
25.4
49
12.7
74
0
49
-6.35
74
0
49
0
74
0
49
-6.35
74
0
0
LTYPE
5
39
330
5
100
AcDbSymbolTableRecord
100
AcDbLinetypeTableRecord
2
DASHDOT2
70
0
3
Dash dot (.5x) _._._._._._._._._._._._._._._.
72
65
73
4
40
12.7
49
6.35
74
0
49
-3.175
74
0
49
0
74
0
49
-3.175
74
0
0
LTYPE
5
3A
330
5
100
AcDbSymbolTableRecord
100
AcDbLinetypeTableRecord
2
DASHDOTX2
70
0
3
Dash dot (2x) ____  .  ____  .  ____  .  ___
72
65
73
4
40
50.8
49
25.4
74
0
49
-12.7
74
0
49
0
74
0
49
-12.7
74
0
0
LTYPE
5
3B
330
5
100
AcDbSymbolTableRecord
100
AcDbLinetypeTableRecord
2
DIVIDE
70
0
3
Divide ____ . . ____ . . ____ . . ____ . . ____
72
65
73
6
40
31.75
49
12.7
74
0
49
-6.35
74
0
49
0
74
0
49
-6.35
74
0
49
0
74
0
49
-6.35
74
0
0
LTYPE
5
3C
330
5
100
AcDbSymbolTableRecord
100
AcDbLinetypeTableRecord
2
DIVIDE2
70
0
3
Divide (.5x) __..__..__..__..__..__..__..__.._
72
65
73
6
40
15.875
49
6.35
74
0
49
-3.175
74
0
49
0
74
0
49
-3.175
74
0
49
0
74
0
49
-3.175
74
0
0
LTYPE
5
3D
330
5
100
AcDbSymbolTableRecord
100
AcDbLinetypeTableRecord
2
DIVIDEX2
70
0
3
Divide (2x) ________  .  .  ________  .  .  _
72
65
73
6
40
63.5
49
25.4
74
0
49
-12.7
74
0
49
0
74
0
49
-12.7
74
0
49
0
74
0
49
-12.7
74
0
0
LTYPE
5
3E
330
5
100
AcDbSymbolTableRecord
100
AcDbLinetypeTableRecord
2
BORDER
70
0
3
Border __ __ . __ __ . __ __ . __ __ . __ __ .
72
65
73
6
40
44.45
49
12.7
74
0
49
-6.35
74
0
49
12.7
74
0
49
-6.35
74
0
49
0
74
0
49
-6.35
74
0
0
LTYPE
5
3F
330
5
100
AcDbSymbolTableRecord
100
AcDbLinetypeTableRecord
2
BORDER2
70
0
3
Border (.5x) __.__.__.__.__.__.__.__.__.__.__.
72
65
73
6
40
22.225
49
6.35
74
0
49
-3.175
74
0
49
6.35
74
0
49
-3.175
74
0
49
0
74
0
49
-3.175
74
0
0
LTYPE
5
40
330
5
100
AcDbSymbolTableRecord
100
AcDbLinetypeTableRecord
2
BORDERX2
70
0
3
Border (2x) ____  ____  .  ____  ____  .  ___
72
65
73
6
40
88.9
49
25.4
74
0
49
-12.7
74
0
49
25.4
74
0
49
-12.7
74
0
49
0
74
0
49
-12.7
74
0
0
LTYPE
5
41
330
5
100
AcDbSymbolTableRecord
100
AcDbLinetypeTableRecord
2
CENTER
70
0
3
Center ____ _ ____ _ ____ _ ____ _ ____ _ ____
72
65
73
4
40
50.8
49
31.75
74
0
49
-6.35
74
0
49
6.35
74
0
49
-6.35
74
0
0
LTYPE
5
42
330
5
100
AcDbSymbolTableRecord
100
AcDbLinetypeTableRecord
2
CENTER2
70
0
3
Center (.5x) ___ _ ___ _ ___ _ ___ _ ___ _ ___
72
65
73
4
40
28.575
49
19.05
74
0
49
-3.175
74
0
49
3.175
74
0
49
-3.175
74
0
0
LTYPE
5
43
330
5
100
AcDbSymbolTableRecord
100
AcDbLinetypeTableRecord
2
CENTERX2
70
0
3
Center (2x) ________  __  ________  __  _____
72
65
73
4
40
101.6
49
63.5
74
0
49
-12.7
74
0
49
12.7
74
0
49
-12.7
74
0
0
ENDTAB
0
TABLE
2
LAYER
5
2
330
0
100
AcDbSymbolTable
70
1
0
LAYER
5
10
330
2
100
AcDbSymbolTableRecord
100
AcDbLayerTableRecord
2
0
70
0
62
7
6
CONTINUOUS
370
0
390
F
0
LAYER
5
44
330
2
100
AcDbSymbolTableRecord
100
AcDbLayerTableRecord
2
bugus
70
0
62
3
6
DOT
370
0
390
F
0
LAYER
5
45
330
2
100
AcDbSymbolTableRecord
100
AcDbLayerTableRecord
2
dimension
70
0
62
5
6
CONTINUOUS
370
0
390
F
0
LAYER
5
46
330
2
100
AcDbSymbolTableRecord
100
AcDbLayerTableRecord
2
doors
70
0
62
9
6
CONTINUOUS
370
0
390
F
0
LAYER
5
47
330
2
100
AcDbSymbolTableRecord
100
AcDbLayerTableRecord
2
eletrical
70
0
62
7
6
CONTINUOUS
370
0
390
F
0
LAYER
5
48
330
2
100
AcDbSymbolTableRecord
100
AcDbLayerTableRecord
2
fixtures
70
0
62
7
6
CONTINUOUS
370
0
390
F
0
LAYER
5
49
330
2
100
AcDbSymbolTableRecord
100
AcDbLayerTableRecord
2
text
70
0
62
7
6
CONTINUOUS
370
0
390
F
0
ENDTAB
0
TABLE
2
STYLE
5
3
330
0
100
AcDbSymbolTable
70
3
0
STYLE
5
4A
330
2
100
AcDbSymbolTableRecord
100
AcDbTextStyleTableRecord
2
standard
70
0
40
0
41
1
50
0
71
0
42
1
3
standard
4

0
STYLE
5
4B
330
2
100
AcDbSymbolTableRecord
100
AcDbTextStyleTableRecord
2
iso
70
0
40
0
41
1
50
0
71
0
42
1
3
iso
4

0
ENDTAB
0
TABLE
2
VIEW
5
6
330
0
100
AcDbSymbolTable
70
0
0
ENDTAB
0
TABLE
2
UCS
5
7
330
0
100
AcDbSymbolTable
70
0
0
ENDTAB
0
TABLE
2
APPID
5
9
330
0
100
AcDbSymbolTable
70
1
0
APPID
5
12
330
9
100
AcDbSymbolTableRecord
100
AcDbRegAppTableRecord
2
ACAD
70
0
0
ENDTAB
0
TABLE
2
DIMSTYLE
5
A
330
0
100
AcDbSymbolTable
70
1
100
AcDbDimStyleTable
71
1
0
DIMSTYLE
105
4C
330
A
100
AcDbSymbolTableRecord
100
AcDbDimStyleTableRecord
2
Standard
70
0
40
1
41
7
42
3
43
0.38
44
3
45
0
46
0
47
0
48
0
140
8
141
0.09
142
0
143
25.4
144
1
145
0
146
1
147
2
148
0
71
0
72
0
73
0
74
1
75
0
76
0
77
0
78
0
79
0
170
0
171
2
172
0
173
0
174
0
175
0
176
0
177
0
178
0
179
0
271
4
272
4
273
2
274
2
275
0
276
0
277
2
278
46
279
0
280
0
281
0
282
0
283
1
284
0
285
0
286
0
288
0
289
3
340
Standard
341

371
-2
372
-2
0
ENDTAB
0
TABLE
2
BLOCK_RECORD
5
1
330
0
100
AcDbSymbolTable
70
2
0
BLOCK_RECORD
5
1F
330
1
100
AcDbSymbolTableRecord
100
AcDbBlockTableRecord
2
*Model_Space
70
0
280
1
281
0
0
BLOCK_RECORD
5
1E
330
1
100
AcDbSymbolTableRecord
100
AcDbBlockTableRecord
2
*Paper_Space
70
0
280
1
281
0
0
BLOCK_RECORD
5
4D
330
1
100
AcDbSymbolTableRecord
100
AcDbBlockTableRecord
2
*D1
70
0
280
1
281
0
0
BLOCK_RECORD
5
50
330
1
100
AcDbSymbolTableRecord
100
AcDbBlockTableRecord
2
WC-hor-left
70
0
280
1
281
0
0
BLOCK_RECORD
5
53
330
1
100
AcDbSymbolTableRecord
100
AcDbBlockTableRecord
2
tub-ver
70
0
280
1
281
0
0
BLOCK_RECORD
5
56
330
1
100
AcDbSymbolTableRecord
100
AcDbBlockTableRecord
2
door60verleft
70
0
280
1
281
0
0
BLOCK_RECORD
5
59
330
1
100
AcDbSymbolTableRecord
100
AcDbBlockTableRecord
2
door71verleft
70
0
280
1
281
0
0
BLOCK_RECORD
5
5C
330
1
100
AcDbSymbolTableRecord
100
AcDbBlockTableRecord
2
door80verright
70
0
280
1
281
0
0
BLOCK_RECORD
5
5F
330
1
100
AcDbSymbolTableRecord
100
AcDbBlockTableRecord
2
out110hor
70
0
280
1
281
0
0
BLOCK_RECORD
5
62
330
1
100
AcDbSymbolTableRecord
100
AcDbBlockTableRecord
2
dim1
70
0
280
1
281
0
0
ENDTAB
0
ENDSEC
0
SECTION
2
BLOCKS
0
BLOCK
5
20
330
1F
100
AcDbEntity
8
0
100
AcDbBlockBegin
2
*Model_Space
70
0
10
0
20
0
30
0
3
*Model_Space
1

0
ENDBLK
5
21
330
1F
100
AcDbEntity
8
0
100
AcDbBlockEnd
0
BLOCK
5
1C
330
1B
100
AcDbEntity
8
0
100
AcDbBlockBegin
2
*Paper_Space
70
0
10
0
20
0
30
0
3
*Paper_Space
1

0
ENDBLK
5
1D
330
1F
100
AcDbEntity
8
0
100
AcDbBlockEnd
0
BLOCK
5
4E
330
4D
100
AcDbEntity
8
0
100
AcDbBlockBegin
2
*D1
70
1
10
0
20
0
3
*D1
1

0
LINE
5
65
100
AcDbEntity
8
dimension
6
CONTINUOUS
62
7
370
0
100
AcDbLine
10
657.506610404
20
170.573440644
11
657.506610404
21
90.5734406439
0
SOLID
5
66
100
AcDbEntity
8
dimension
6
CONTINUOUS
62
7
370
0
100
AcDbTrace
10
657.506610404
20
170.573440644
30
0
11
658.672207446
21
163.573440644
31
0
12
656.341013363
22
163.573440644
32
0
13
656.341013363
23
163.573440644
33
0
0
SOLID
5
67
100
AcDbEntity
8
dimension
6
CONTINUOUS
62
7
370
0
100
AcDbTrace
10
657.506610404
20
90.5734406439
30
0
11
656.341013363
21
97.5734406439
31
0
12
658.672207446
22
97.5734406439
32
0
13
658.672207446
23
97.5734406439
33
0
0
MTEXT
5
68
100
AcDbEntity
8
dimension
6
CONTINUOUS
62
7
370
0
100
AcDbMText
10
651.506610404
20
130.573440644
30
0
40
8
41
9.77777777778
71
5
72
1
1
80
7
standard
210
0
220
0
230
1
50
90
73
2
44
1
0
LINE
5
69
100
AcDbEntity
8
dimension
6
CONTINUOUS
62
7
370
0
100
AcDbLine
10
678.42418029
20
170.573440644
11
654.506610404
21
170.573440644
0
LINE
5
6A
100
AcDbEntity
8
dimension
6
CONTINUOUS
62
7
370
0
100
AcDbLine
10
678.42418029
20
90.5734406439
11
654.506610404
21
90.5734406439
0
ENDBLK
5
4F
330
4D
100
AcDbEntity
8
0
100
AcDbBlockEnd
0
BLOCK
5
51
330
50
100
AcDbEntity
8
0
100
AcDbBlockBegin
2
WC-hor-left
70
0
10
0
20
0
3
WC-hor-left
1

0
LINE
5
6B
100
AcDbEntity
8
fixtures
6
ByLayer
62
256
370
-1
100
AcDbLine
10
0
20
0
11
20
21
0
0
LINE
5
6C
100
AcDbEntity
8
fixtures
6
ByLayer
62
256
370
-1
100
AcDbLine
10
0
20
0
11
0
21
47
0
LINE
5
6D
100
AcDbEntity
8
fixtures
6
ByLayer
62
256
370
-1
100
AcDbLine
10
20
20
0
11
20
21
47
0
LINE
5
6E
100
AcDbEntity
8
fixtures
6
ByLayer
62
256
370
-1
100
AcDbLine
10
0
20
47
11
20
21
47
0
ELLIPSE
5
6F
100
AcDbEntity
8
fixtures
6
ByLayer
62
256
370
-1
100
AcDbEllipse
10
48.3839834606
20
22.8898383818
30
0
11
23.8828093948
21
-0.663411372079
31
0
40
0.61565150347
41
0
42
6.28318530718
0
MTEXT
5
70
100
AcDbEntity
8
text
6
ByLayer
62
256
370
-1
100
AcDbMText
10
80.8402745876
20
8.75613045336
30
0
40
15
41
25
71
1
72
5
1
WC
7
iso
210
0
220
0
230
1
50
0
73
2
44
0.96
0
ENDBLK
5
52
330
50
100
AcDbEntity
8
0
100
AcDbBlockEnd
0
BLOCK
5
54
330
53
100
AcDbEntity
8
0
100
AcDbBlockBegin
2
tub-ver
70
0
10
0
20
0
3
tub-ver
1

0
ARC
5
71
100
AcDbEntity
8
0
6
ByLayer
62
256
370
-1
100
AcDbCircle
10
5
20
0
40
5
100
AcDbArc
50
90
51
180
0
LINE
5
72
100
AcDbEntity
8
0
6
ByLayer
62
256
370
-1
100
AcDbLine
10
5
20
5
11
53
21
5
0
ARC
5
73
100
AcDbEntity
8
0
6
ByLayer
62
256
370
-1
100
AcDbCircle
10
53
20
0
40
5
100
AcDbArc
50
0
51
90
0
LINE
5
74
100
AcDbEntity
8
0
6
ByLayer
62
256
370
-1
100
AcDbLine
10
58
20
-87
11
58
21
0
0
ARC
5
75
100
AcDbEntity
8
0
6
ByLayer
62
256
370
-1
100
AcDbCircle
10
53
20
-87
40
5
100
AcDbArc
50
270
51
0
0
LINE
5
76
100
AcDbEntity
8
0
6
ByLayer
62
256
370
-1
100
AcDbLine
10
5
20
-92
11
53
21
-92
0
LINE
5
77
100
AcDbEntity
8
0
6
ByLayer
62
256
370
-1
100
AcDbLine
10
-2.84e-14
20
-87
11
0
21
0
0
ARC
5
78
100
AcDbEntity
8
0
6
ByLayer
62
256
370
-1
100
AcDbCircle
10
5
20
-87
40
5
100
AcDbArc
50
180
51
270
0
ENDBLK
5
55
330
53
100
AcDbEntity
8
0
100
AcDbBlockEnd
0
BLOCK
5
57
330
56
100
AcDbEntity
8
0
100
AcDbBlockBegin
2
door60verleft
70
0
10
0
20
0
3
door60verleft
1

0
LINE
5
79
100
AcDbEntity
8
fixtures
6
ByLayer
62
256
370
-1
100
AcDbLine
10
0
20
0
11
-51.5285115252
21
-29.75
0
ARC
5
7A
100
AcDbEntity
8
fixtures
6
ByLayer
62
256
370
-1
100
AcDbCircle
10
0
20
0
40
60
100
AcDbArc
50
210
51
270
0
LINE
5
7B
100
AcDbEntity
8
fixtures
6
ByLayer
62
256
370
-1
100
AcDbLine
10
2.5
20
-4.33012701892
11
-49.0285115252
21
-34.0801270189
0
LINE
5
7C
100
AcDbEntity
8
fixtures
6
ByLayer
62
256
370
-1
100
AcDbLine
10
0
20
0
11
2.5
21
-4.33012701892
0
ENDBLK
5
58
330
56
100
AcDbEntity
8
0
100
AcDbBlockEnd
0
BLOCK
5
5A
330
59
100
AcDbEntity
8
0
100
AcDbBlockBegin
2
door71verleft
70
0
10
0
20
0
3
door71verleft
1

0
LINE
5
7D
100
AcDbEntity
8
doors
6
ByLayer
62
256
370
-1
100
AcDbLine
10
0
20
0
11
-61.4878036687
21
-35.5
0
ARC
5
7E
100
AcDbEntity
8
doors
6
ByLayer
62
256
370
-1
100
AcDbCircle
10
0
20
0
40
71
100
AcDbArc
50
210
51
270
0
LINE
5
7F
100
AcDbEntity
8
doors
6
ByLayer
62
256
370
-1
100
AcDbLine
10
2.5
20
-4.33012701892
11
-58.9878036687
21
-39.8301270189
0
LINE
5
80
100
AcDbEntity
8
doors
6
ByLayer
62
256
370
-1
100
AcDbLine
10
0
20
0
11
2.5
21
-4.33012701892
0
ENDBLK
5
5B
330
59
100
AcDbEntity
8
0
100
AcDbBlockEnd
0
BLOCK
5
5D
330
5C
100
AcDbEntity
8
0
100
AcDbBlockBegin
2
door80verright
70
0
10
0
20
0
3
door80verright
1

0
LINE
5
81
100
AcDbEntity
8
doors
6
ByLayer
62
256
370
-1
100
AcDbLine
10
0
20
0
11
51.4230087749
21
-61.2835554495
0
ARC
5
82
100
AcDbEntity
8
doors
6
ByLayer
62
256
370
-1
100
AcDbCircle
10
0
20
0
40
80
100
AcDbArc
50
270
51
310
0
LINE
5
83
100
AcDbEntity
8
doors
6
ByLayer
62
256
370
-1
100
AcDbLine
10
-3.83022221559
20
-3.21393804843
11
47.5927865593
21
-64.497493498
0
LINE
5
84
100
AcDbEntity
8
doors
6
ByLayer
62
256
370
-1
100
AcDbLine
10
0
20
0
11
-3.83022221559
21
-3.21393804843
0
ENDBLK
5
5E
330
5C
100
AcDbEntity
8
0
100
AcDbBlockEnd
0
BLOCK
5
60
330
5F
100
AcDbEntity
8
0
100
AcDbBlockBegin
2
out110hor
70
0
10
0
20
0
3
out110hor
1

0
CIRCLE
5
85
100
AcDbEntity
8
eletrical
6
ByLayer
62
256
370
-1
100
AcDbCircle
10
1.92383306793
20
9.31569229908
40
5
0
LINE
5
86
100
AcDbEntity
8
eletrical
6
ByLayer
62
256
370
-1
100
AcDbLine
10
3.62896076697
20
0
11
3.62896076697
21
16.1186024643
0
LINE
5
87
100
AcDbEntity
8
eletrical
6
ByLayer
62
256
370
-1
100
AcDbLine
10
0
20
0
11
0
21
16.1186024643
0
ENDBLK
5
61
330
5F
100
AcDbEntity
8
0
100
AcDbBlockEnd
0
BLOCK
5
63
330
62
100
AcDbEntity
8
0
100
AcDbBlockBegin
2
dim1
70
0
10
0
20
0
3
dim1
1

0
LINE
5
88
100
AcDbEntity
8
dimension
6
ByLayer
62
256
370
-1
100
AcDbLine
10
0
20
0
11
0
21
145
0
MTEXT
5
89
100
AcDbEntity
8
dimension
6
ByLayer
62
256
370
-1
100
AcDbMText
10
-10.75
20
72.5
30
0
40
9
41
17
71
5
72
5
1
145
7
standard
210
0
220
0
230
1
50
90
73
2
44
0.96
0
LINE
5
8A
100
AcDbEntity
8
dimension
6
ByLayer
62
256
370
-1
100
AcDbLine
10
21.4175698858
20
0
11
-12.5
21
0
0
ENDBLK
5
64
330
62
100
AcDbEntity
8
0
100
AcDbBlockEnd
0
ENDSEC
0
SECTION
2
ENTITIES
0
LINE
5
8B
100
AcDbEntity
8
0
6
ByLayer
62
256
370
-1
100
AcDbLine
10
11.7049855311
20
-179.426559356
11
11.7049855311
21
75.5734406439
0
LINE
5
8C
100
AcDbEntity
8
0
6
ByLayer
62
256
370
-1
100
AcDbLine
10
11.7049855311
20
-179.426559356
11
11.7049855311
21
75.5734406439
0
LINE
5
8D
100
AcDbEntity
8
0
6
ByLayer
62
256
370
-1
100
AcDbLine
10
21.7049855311
20
-169.426559356
11
21.7049855311
21
65.5734406439
0
LINE
5
8E
100
AcDbEntity
8
0
6
ByLayer
62
256
370
-1
100
AcDbLine
10
11.7049855311
20
-179.426559356
11
1235.30498553
21
-179.426559356
0
LINE
5
8F
100
AcDbEntity
8
0
6
ByLayer
62
256
370
-1
100
AcDbLine
10
441.704985531
20
-169.426559356
11
441.704985531
21
-102.426559356
0
LINE
5
90
100
AcDbEntity
8
0
6
ByLayer
62
256
370
-1
100
AcDbLine
10
11.7049855311
20
330.573440644
11
1235.30498553
21
330.573440644
0
LINE
5
91
100
AcDbEntity
8
0
6
ByLayer
62
256
370
-1
100
AcDbLine
10
11.7049855311
20
75.5734406439
11
11.7049855311
21
330.573440644
0
LINE
5
92
100
AcDbEntity
8
0
6
ByLayer
62
256
370
-1
100
AcDbLine
10
21.7049855311
20
85.5734406439
11
21.7049855311
21
320.573440644
0
LINE
5
93
100
AcDbEntity
8
0
6
ByLayer
62
256
370
-1
100
AcDbLine
10
21.7049434788
20
320.573
11
1225.30464348
21
320.573
0
MTEXT
5
94
100
AcDbEntity
8
text
6
ByLayer
62
256
370
-1
100
AcDbMText
10
852.801320595
20
225.423197492
30
0
40
15
41
82.9166666667
71
1
72
5
1
Bd Room
7
iso
210
0
220
0
230
1
50
0
73
2
44
0.96
0
MTEXT
5
95
100
AcDbEntity
8
text
6
ByLayer
62
256
370
-1
100
AcDbMText
10
454.7135463
20
-5.11598746082
30
0
40
15
41
23.3333333333
71
1
72
5
1
Kit
7
iso
210
0
220
0
230
1
50
0
73
2
44
0.96
0
LINE
5
96
100
AcDbEntity
8
0
6
ByLayer
62
256
370
-1
100
AcDbLine
10
181.704985531
20
60.5734406439
11
191.704985531
21
60.5734406439
0
LINE
5
97
100
AcDbEntity
8
0
6
ByLayer
62
256
370
-1
100
AcDbLine
10
328.704985531
20
60.5734406439
11
338.704985531
21
60.5734406439
0
LINE
5
98
100
AcDbEntity
8
0
6
ByLayer
62
256
370
-1
100
AcDbLine
10
181.704985531
20
60.5734406439
11
181.704985531
21
65.5734406439
0
LINE
5
99
100
AcDbEntity
8
0
6
ByLayer
62
256
370
-1
100
AcDbLine
10
328.704985531
20
-10.4265593561
11
338.704985531
21
-10.4265593561
0
LINE
5
9A
100
AcDbEntity
8
0
6
ByLayer
62
256
370
-1
100
AcDbLine
10
338.704985531
20
-169.426559356
11
338.704985531
21
-10.4265593561
0
LINE
5
9B
100
AcDbEntity
8
0
6
ByLayer
62
256
370
-1
100
AcDbLine
10
328.704985531
20
-169.426559356
11
328.704985531
21
-10.4265593561
0
LINE
5
9C
100
AcDbEntity
8
0
6
ByLayer
62
256
370
-1
100
AcDbLine
10
328.704985531
20
60.5734406439
11
328.704985531
21
65.5734406439
0
LINE
5
9D
100
AcDbEntity
8
0
6
ByLayer
62
256
370
-1
100
AcDbLine
10
338.704985531
20
60.5734406439
11
338.704985531
21
65.5734406439
0
LINE
5
9E
100
AcDbEntity
8
0
6
ByLayer
62
256
370
-1
100
AcDbLine
10
191.704985531
20
65.5734406439
11
328.704985531
21
65.5734406439
0
LINE
5
9F
100
AcDbEntity
8
0
6
ByLayer
62
256
370
-1
100
AcDbLine
10
21.7049855311
20
65.5734406439
11
181.704985531
21
65.5734406439
0
LINE
5
A0
100
AcDbEntity
8
0
6
ByLayer
62
256
370
-1
100
AcDbLine
10
1235.30498553
20
65.5734
11
1352.30498553
21
65.5734
0
LINE
5
A1
100
AcDbEntity
8
0
6
ByLayer
62
256
370
-1
100
AcDbLine
10
1235.30498553
20
-169.426559356
11
1352.30498553
21
-169.426559356
0
LINE
5
A2
100
AcDbEntity
8
0
6
ByLayer
62
256
370
-1
100
AcDbLine
10
1225.30498553
20
-169.426559356
11
1225.30498553
21
-164.426559356
0
LINE
5
A3
100
AcDbEntity
8
0
6
ByLayer
62
256
370
-1
100
AcDbLine
10
1235.30498553
20
-179.426559356
11
1235.30498553
21
-164.426559356
0
LINE
5
A4
100
AcDbEntity
8
0
6
ByLayer
62
256
370
-1
100
AcDbLine
10
1225.45938965
20
60.5173612365
11
1225.45938965
21
65.5734
0
LINE
5
A5
100
AcDbEntity
8
0
6
ByLayer
62
256
370
-1
100
AcDbLine
10
1235.30498553
20
320.573
11
1352.30498553
21
320.573
0
LINE
5
A6
100
AcDbEntity
8
0
6
ByLayer
62
256
370
-1
100
AcDbLine
10
1235.30498553
20
85.5734406439
11
1352.30498553
21
85.5734406439
0
LINE
5
A7
100
AcDbEntity
8
0
6
ByLayer
62
256
370
-1
100
AcDbLine
10
1225.30498553
20
85.5734406439
11
1225.30498553
21
90.5734406439
0
LINE
5
A8
100
AcDbEntity
8
0
6
ByLayer
62
256
370
-1
100
AcDbLine
10
1235.30498553
20
75.5734406439
11
1235.30498553
21
90.5734406439
0
LINE
5
A9
100
AcDbEntity
8
0
6
ByLayer
62
256
370
-1
100
AcDbLine
10
1225.30464348
20
315.573
11
1225.30464348
21
320.573
0
LINE
5
AA
100
AcDbEntity
8
0
6
ByLayer
62
256
370
-1
100
AcDbLine
10
1235.30498553
20
315.573
11
1235.30498553
21
330.573440644
0
LINE
5
AB
100
AcDbEntity
8
0
6
ByLayer
62
256
370
-1
100
AcDbLine
10
1235.43831624
20
60.5734
11
1235.43831624
21
75.5734406439
0
LINE
5
AC
100
AcDbEntity
8
0
6
ByLayer
62
256
370
-1
100
AcDbLine
10
1352.30498553
20
315.573
11
1352.30498553
21
320.573
0
LINE
5
AD
100
AcDbEntity
8
0
6
ByLayer
62
256
370
-1
100
AcDbLine
10
1352.30498553
20
60.5734
11
1352.30498553
21
65.5734
0
LINE
5
AE
100
AcDbEntity
8
0
6
ByLayer
62
256
370
-1
100
AcDbLine
10
1352.30498553
20
85.5734406439
11
1352.30498553
21
90.5734406439
0
LINE
5
AF
100
AcDbEntity
8
0
6
ByLayer
62
256
370
-1
100
AcDbLine
10
1352.30498553
20
-169.426559356
11
1352.30498553
21
60.5734
0
LINE
5
B0
100
AcDbEntity
8
0
6
ByLayer
62
256
370
-1
100
AcDbLine
10
1352.30498553
20
90.5734406439
11
1352.30498553
21
315.573
0
LINE
5
B1
100
AcDbEntity
8
0
6
ByLayer
62
256
370
-1
100
AcDbLine
10
1230.30498553
20
90.5734406439
11
1230.30498553
21
315.573
0
LINE
5
B2
100
AcDbEntity
8
0
6
ByLayer
62
256
370
-1
100
AcDbLine
10
1225.30498553
20
90.5734406439
11
1225.30498553
21
315.573
0
LINE
5
B3
100
AcDbEntity
8
0
6
ByLayer
62
256
370
-1
100
AcDbLine
10
1230.30498553
20
-164.426559356
11
1230.30498553
21
60.5734
0
LINE
5
B4
100
AcDbEntity
8
0
6
ByLayer
62
256
370
-1
100
AcDbLine
10
1225.30498553
20
-164.426559356
11
1225.30498553
21
60.5734
0
LINE
5
B5
100
AcDbEntity
8
0
6
ByLayer
62
256
370
-1
100
AcDbLine
10
1220.30498553
20
-169.426559356
11
1220.30498553
21
65.5734
0
LINE
5
B6
100
AcDbEntity
8
0
6
ByLayer
62
256
370
-1
100
AcDbLine
10
1220.30498553
20
85.5734406439
11
1220.30498553
21
320.573
0
LINE
5
B7
100
AcDbEntity
8
0
6
ByLayer
62
256
370
-1
100
AcDbLine
10
1220.30498553
20
315.573
11
1352.30498553
21
315.573
0
LINE
5
B8
100
AcDbEntity
8
0
6
ByLayer
62
256
370
-1
100
AcDbLine
10
1220.30498553
20
90.5734406439
11
1352.30498553
21
90.5734406439
0
LINE
5
B9
100
AcDbEntity
8
0
6
ByLayer
62
256
370
-1
100
AcDbLine
10
1220.30498553
20
60.5734
11
1352.30498553
21
60.5734
0
LINE
5
BA
100
AcDbEntity
8
0
6
ByLayer
62
256
370
-1
100
AcDbLine
10
1220.30498553
20
-164.426559356
11
1352.30498553
21
-164.426559356
0
LINE
5
BB
100
AcDbEntity
8
0
6
ByLayer
62
256
370
-1
100
AcDbLine
10
1220.30498553
20
203.073220322
11
1230.30498553
21
203.073220322
0
LINE
5
BC
100
AcDbEntity
8
0
6
ByLayer
62
256
370
-1
100
AcDbLine
10
1220.30498553
20
-51.9265796781
11
1230.30498553
21
-51.9265796781
0
LINE
5
BD
100
AcDbEntity
8
0
6
ByLayer
62
256
370
-1
100
AcDbLine
10
1120.30498553
20
-169.426559356
11
1120.30498553
21
65.5734
0
LINE
5
BE
100
AcDbEntity
8
0
6
ByLayer
62
256
370
-1
100
AcDbLine
10
21.7049855311
20
-14.4265593561
11
181.704985531
21
-14.4265593561
0
LINE
5
BF
100
AcDbEntity
8
0
6
ByLayer
62
256
370
-1
100
AcDbLine
10
21.7049855311
20
-24.4265593561
11
181.704985531
21
-24.4265593561
0
LINE
5
C0
100
AcDbEntity
8
0
6
ByLayer
62
256
370
-1
100
AcDbLine
10
181.704985531
20
0.57344064386
11
191.704985531
21
0.57344064386
0
LINE
5
C1
100
AcDbEntity
8
0
6
ByLayer
62
256
370
-1
100
AcDbLine
10
92.7049855311
20
-169.426559356
11
92.7049855311
21
-24.4265593561
0
LINE
5
C2
100
AcDbEntity
8
0
6
ByLayer
62
256
370
-1
100
AcDbLine
10
181.704985531
20
-29.4265593561
11
191.704985531
21
-29.4265593561
0
LINE
5
C3
100
AcDbEntity
8
0
6
ByLayer
62
256
370
-1
100
AcDbLine
10
181.704985531
20
-89.4265593561
11
191.704985531
21
-89.4265593561
0
LINE
5
C4
100
AcDbEntity
8
0
6
ByLayer
62
256
370
-1
100
AcDbLine
10
191.704985531
20
-169.426559356
11
191.704985531
21
-89.4265593561
0
LINE
5
C5
100
AcDbEntity
8
0
6
ByLayer
62
256
370
-1
100
AcDbLine
10
181.704985531
20
-169.426559356
11
181.704985531
21
-89.4265593561
0
LINE
5
C6
100
AcDbEntity
8
0
6
ByLayer
62
256
370
-1
100
AcDbLine
10
191.704985531
20
60.5734406439
11
191.704985531
21
65.5734406439
0
LINE
5
C7
100
AcDbEntity
8
0
6
ByLayer
62
256
370
-1
100
AcDbLine
10
191.704985531
20
-29.4265593561
11
191.704985531
21
0.57344064386
0
LINE
5
C8
100
AcDbEntity
8
0
6
ByLayer
62
256
370
-1
100
AcDbLine
10
181.704985531
20
-14.4265593561
11
181.704985531
21
0.57344064386
0
LINE
5
C9
100
AcDbEntity
8
0
6
ByLayer
62
256
370
-1
100
AcDbLine
10
181.704985531
20
-29.4265593561
11
181.704985531
21
-24.4265593561
0
MTEXT
5
CA
100
AcDbEntity
8
text
6
ByLayer
62
256
370
-1
100
AcDbMText
10
118.469982527
20
-113.911464805
30
0
40
15
41
41.6666666667
71
1
72
5
1
Bath
7
iso
210
0
220
0
230
1
50
0
73
2
44
0.96
0
LINE
5
CB
100
AcDbEntity
8
0
6
ByLayer
62
256
370
-1
100
AcDbLine
10
452.304985531
20
75.5734406439
11
452.304985531
21
85.5734406439
0
LINE
5
CC
100
AcDbEntity
8
0
6
ByLayer
62
256
370
-1
100
AcDbLine
10
452.304985531
20
65.5734406439
11
452.304985531
21
75.5734406439
0
LINE
5
CD
100
AcDbEntity
8
0
6
ByLayer
62
256
370
-1
100
AcDbLine
10
11.7049855311
20
75.5734406439
11
452.304985531
21
75.5734406439
0
LINE
5
CE
100
AcDbEntity
8
0
6
ByLayer
62
256
370
-1
100
AcDbLine
10
338.704985531
20
65.5734406439
11
452.304985531
21
65.5734406439
0
LINE
5
CF
100
AcDbEntity
8
0
6
ByLayer
62
256
370
-1
100
AcDbLine
10
21.7049855311
20
85.5734406439
11
432.304985531
21
85.5734406439
0
LINE
5
D0
100
AcDbEntity
8
0
6
ByLayer
62
256
370
-1
100
AcDbLine
10
442.304985531
20
85.5734406439
11
452.304985531
21
85.5734406439
0
MTEXT
5
D1
100
AcDbEntity
8
text
6
ByLayer
62
256
370
-1
100
AcDbMText
10
169.303430595
20
223.225339586
30
0
40
15
41
82.9166666667
71
1
72
5
1
Bd Room
7
iso
210
0
220
0
230
1
50
0
73
2
44
0.96
0
LINE
5
D2
100
AcDbEntity
8
0
6
ByLayer
62
256
370
-1
100
AcDbLine
10
432.304985531
20
169.752405397
11
442.304985531
21
169.752405397
0
LINE
5
D3
100
AcDbEntity
8
0
6
ByLayer
62
256
370
-1
100
AcDbLine
10
432.304985531
20
90.3774380584
11
442.304985531
21
90.3774380584
0
LINE
5
D4
100
AcDbEntity
8
0
6
ByLayer
62
256
370
-1
100
AcDbLine
10
442.304985531
20
85.5734406439
11
442.304985531
21
90.3774380584
0
LINE
5
D5
100
AcDbEntity
8
0
6
ByLayer
62
256
370
-1
100
AcDbLine
10
432.304985531
20
85.5734406439
11
432.304985531
21
90.3774380584
0
LINE
5
D6
100
AcDbEntity
8
0
6
ByLayer
62
256
370
-1
100
AcDbLine
10
442.304985531
20
169.752405397
11
442.304985531
21
320.573
0
INSERT
5
D7
100
AcDbEntity
8
fixtures
6
ByLayer
62
256
370
-1
100
AcDbBlockReference
2
WC-hor-left
10
34.1404871767
20
1.69204310818
30
0
41
1
42
1
43
0
50
0
70
1
71
1
44
0
45
0
0
INSERT
5
D8
100
AcDbEntity
8
fixtures
6
ByLayer
62
256
370
-1
100
AcDbBlockReference
2
tub-ver
10
27.9592764132
20
-38.155788337
30
0
41
1
42
1
43
0
50
0
70
1
71
1
44
0
45
0
0
CIRCLE
5
D9
100
AcDbEntity
8
fixtures
6
ByLayer
62
256
370
-1
100
AcDbCircle
10
181.704985531
20
60.5734406439
40
1
0
CIRCLE
5
DA
100
AcDbEntity
8
fixtures
6
ByLayer
62
256
370
-1
100
AcDbCircle
10
181.704985531
20
0.57344064386
40
1
0
CIRCLE
5
DB
100
AcDbEntity
8
fixtures
6
ByLayer
62
256
370
-1
100
AcDbCircle
10
181.704985531
20
60.5734406439
40
1
0
INSERT
5
DC
100
AcDbEntity
8
doors
6
ByLayer
62
256
370
-1
100
AcDbBlockReference
2
door60verleft
10
181.704985531
20
60.5734406439
30
0
41
1
42
1
43
0
50
0
70
1
71
1
44
0
45
0
0
INSERT
5
DD
100
AcDbEntity
8
doors
6
ByLayer
62
256
370
-1
100
AcDbBlockReference
2
door60verleft
10
181.704985531
20
-29.4265593561
30
0
41
1
42
1
43
0
50
0
70
1
71
1
44
0
45
0
0
INSERT
5
DE
100
AcDbEntity
8
doors
6
ByLayer
62
256
370
-1
100
AcDbBlockReference
2
door71verleft
10
328.704985531
20
60.5734406439
30
0
41
1
42
1
43
0
50
0
70
1
71
1
44
0
45
0
0
LINE
5
DF
100
AcDbEntity
8
0
6
ByLayer
62
256
370
-1
100
AcDbLine
10
353.304985531
20
180.573
11
432.304985531
21
180.573
0
LINE
5
E0
100
AcDbEntity
8
0
6
ByLayer
62
256
370
-1
100
AcDbLine
10
348.304985531
20
185.573
11
353.304985531
21
185.573
0
LINE
5
E1
100
AcDbEntity
8
0
6
ByLayer
62
256
370
-1
100
AcDbLine
10
348.304985531
20
175.573
11
432.304985531
21
175.573
0
LINE
5
E2
100
AcDbEntity
8
0
6
ByLayer
62
256
370
-1
100
AcDbLine
10
348.304985531
20
175.573
11
348.304985531
21
185.573
0
LINE
5
E3
100
AcDbEntity
8
0
6
ByLayer
62
256
370
-1
100
AcDbLine
10
353.304985531
20
180.573
11
353.304985531
21
185.573
0
LINE
5
E4
100
AcDbEntity
8
0
6
ByLayer
62
256
370
-1
100
AcDbLine
10
432.304985531
20
180.573
11
432.304985531
21
320.573
0
LINE
5
E5
100
AcDbEntity
8
0
6
ByLayer
62
256
370
-1
100
AcDbLine
10
432.304985531
20
169.752405397
11
432.304985531
21
175.573
0
LINE
5
E6
100
AcDbEntity
8
0
6
ByLayer
62
256
370
-1
100
AcDbLine
10
348.304985531
20
315.573
11
353.304985531
21
315.573
0
LINE
5
E7
100
AcDbEntity
8
0
6
ByLayer
62
256
370
-1
100
AcDbLine
10
348.304985531
20
315.573
11
348.304985531
21
320.573
0
LINE
5
E8
100
AcDbEntity
8
0
6
ByLayer
62
256
370
-1
100
AcDbLine
10
353.304985531
20
315.573
11
353.304985531
21
320.573
0
MTEXT
5
E9
100
AcDbEntity
8
text
6
ByLayer
62
256
370
-1
100
AcDbMText
10
1153.9123251
20
-6.89093027583
30
0
40
10
41
33.3333333333
71
4
72
5
1
entry
7
iso
210
0
220
0
230
1
50
0
73
1
44
0.96
0
INSERT
5
EA
100
AcDbEntity
8
eletrical
6
ByLayer
62
256
370
-1
100
AcDbBlockReference
2
out110hor
10
59.8861835314
20
-14.4265593561
30
0
41
1
42
1
43
0
50
0
70
1
71
1
44
0
45
0
0
LINE
5
EB
100
AcDbEntity
8
0
6
ByLayer
62
256
370
-1
100
AcDbLine
10
770.304985531
20
-169.426559356
11
770.304985531
21
-164.426559356
0
LINE
5
EC
100
AcDbEntity
8
0
6
ByLayer
62
256
370
-1
100
AcDbLine
10
691.304985531
20
-169.426559356
11
691.304985531
21
-102.426559356
0
LINE
5
ED
100
AcDbEntity
8
0
6
ByLayer
62
256
370
-1
100
AcDbLine
10
681.304985531
20
-169.426559356
11
681.304985531
21
-95.4265593561
0
LINE
5
EE
100
AcDbEntity
8
0
6
ByLayer
62
256
370
-1
100
AcDbLine
10
763.304985531
20
-164.426559356
11
770.304985531
21
-164.426559356
0
LINE
5
EF
100
AcDbEntity
8
bugus
6
ByLayer
62
256
370
-1
100
AcDbLine
10
763.304985531
20
-169.426559356
11
763.304985531
21
-164.426559356
0
LINE
5
F0
100
AcDbEntity
8
dimension
6
ByLayer
62
256
370
-1
100
AcDbLine
10
827.242940433
20
-169.426559356
11
827.242940433
21
-19.4266
0
LINE
5
F1
100
AcDbEntity
8
dimension
6
ByLayer
62
256
370
-1
100
AcDbLine
10
827.242940433
20
-169.426559356
11
826.410371117
21
-164.426559356
0
LINE
5
F2
100
AcDbEntity
8
dimension
6
ByLayer
62
256
370
-1
100
AcDbLine
10
826.410371117
20
-164.426559356
11
828.075509748
21
-164.426559356
0
LINE
5
F3
100
AcDbEntity
8
dimension
6
ByLayer
62
256
370
-1
100
AcDbLine
10
828.075509748
20
-164.426559356
11
827.242940433
21
-169.426559356
0
LINE
5
F4
100
AcDbEntity
8
dimension
6
ByLayer
62
256
370
-1
100
AcDbLine
10
827.242940433
20
-19.4266
11
828.075509748
21
-24.4266
0
LINE
5
F5
100
AcDbEntity
8
dimension
6
ByLayer
62
256
370
-1
100
AcDbLine
10
828.075509748
20
-24.4266
11
826.410371117
21
-24.4266
0
LINE
5
F6
100
AcDbEntity
8
dimension
6
ByLayer
62
256
370
-1
100
AcDbLine
10
826.410371117
20
-24.4266
11
827.242940433
21
-19.4266
0
MTEXT
5
F7
100
AcDbEntity
8
dimension
6
ByLayer
62
256
370
-1
100
AcDbMText
10
816.492940433
20
-94.4265796781
30
0
40
9
41
16
71
5
72
5
1
150
7
standard
210
0
220
0
230
1
50
90
73
1
44
0.96
0
LINE
5
F8
100
AcDbEntity
8
dimension
6
ByLayer
62
256
370
-1
100
AcDbLine
10
782.804985531
20
-19.4266
11
839.742940433
21
-19.4266
0
LINE
5
F9
100
AcDbEntity
8
0
6
ByLayer
62
256
370
-1
100
AcDbLine
10
763.304985531
20
-169.426559356
11
763.304985531
21
-164.426559356
0
LINE
5
FA
100
AcDbEntity
8
0
6
ByLayer
62
256
370
-1
100
AcDbLine
10
441.704985531
20
-102.426559356
11
681.304985531
21
-102.426559356
0
LINE
5
FB
100
AcDbEntity
8
0
6
ByLayer
62
256
370
-1
100
AcDbLine
10
770.42418029
20
315.573440644
11
775.42418029
21
315.573440644
0
LINE
5
FC
100
AcDbEntity
8
0
6
ByLayer
62
256
370
-1
100
AcDbLine
10
770.42418029
20
315.573440644
11
770.42418029
21
320.573440644
0
LINE
5
FD
100
AcDbEntity
8
0
6
ByLayer
62
256
370
-1
100
AcDbLine
10
775.42418029
20
315.573440644
11
775.42418029
21
320.573440644
0
LINE
5
FE
100
AcDbEntity
8
0
6
ByLayer
62
256
370
-1
100
AcDbLine
10
681.42418029
20
86.5734406439
11
681.42418029
21
90.5734406439
0
LINE
5
FF
100
AcDbEntity
8
0
6
ByLayer
62
256
370
-1
100
AcDbLine
10
681.42418029
20
90.5734406439
11
691.42418029
21
90.5734406439
0
LINE
5
100
100
AcDbEntity
8
0
6
ByLayer
62
256
370
-1
100
AcDbLine
10
691.42418029
20
85.5734406439
11
691.42418029
21
90.5734406439
0
LINE
5
101
100
AcDbEntity
8
0
6
ByLayer
62
256
370
-1
100
AcDbLine
10
681.42418029
20
170.573440644
11
691.42418029
21
170.573440644
0
LINE
5
102
100
AcDbEntity
8
0
6
ByLayer
62
256
370
-1
100
AcDbLine
10
681.42418029
20
170.573440644
11
681.42418029
21
320.573440644
0
LINE
5
103
100
AcDbEntity
8
0
6
ByLayer
62
256
370
-1
100
AcDbLine
10
691.42418029
20
175.573440644
11
775.42418029
21
175.573440644
0
LINE
5
104
100
AcDbEntity
8
0
6
ByLayer
62
256
370
-1
100
AcDbLine
10
775.42418029
20
175.573440644
11
775.42418029
21
180.573440644
0
LINE
5
105
100
AcDbEntity
8
0
6
ByLayer
62
256
370
-1
100
AcDbLine
10
775.42418029
20
180.573440644
11
775.42418029
21
185.573440644
0
LINE
5
106
100
AcDbEntity
8
0
6
ByLayer
62
256
370
-1
100
AcDbLine
10
770.42418029
20
185.573440644
11
775.42418029
21
185.573440644
0
LINE
5
107
100
AcDbEntity
8
0
6
ByLayer
62
256
370
-1
100
AcDbLine
10
691.42418029
20
180.573440644
11
770.42418029
21
180.573440644
0
LINE
5
108
100
AcDbEntity
8
0
6
ByLayer
62
256
370
-1
100
AcDbLine
10
691.42418029
20
180.573440644
11
691.42418029
21
320.573440644
0
LINE
5
109
100
AcDbEntity
8
0
6
ByLayer
62
256
370
-1
100
AcDbLine
10
770.42418029
20
180.573440644
11
770.42418029
21
185.573440644
0
LINE
5
10A
100
AcDbEntity
8
0
6
ByLayer
62
256
370
-1
100
AcDbLine
10
691.42418029
20
170.573440644
11
691.42418029
21
175.573440644
0
DIMENSION
5
10B
100
AcDbEntity
8
dimension
6
ByLayer
62
256
370
-1
100
AcDbDimension
2
*D1
10
657.506610404
20
90.5734406439
30
0
11
651.506610404
21
130.573440644
31
0
70
32
71
5
72
0
3
Standard
53
0
210
0
220
0
230
1
100
AcDbAlignedDimension
13
681.42418029
23
170.573440644
33
0
14
681.42418029
24
90.5734406439
34
0
50
90
100
AcDbRotatedDimension
0
LINE
5
10C
100
AcDbEntity
8
0
6
ByLayer
62
256
370
-1
100
AcDbLine
10
671.42418029
20
75.5734406439
11
671.42418029
21
85.5734406439
0
LINE
5
10D
100
AcDbEntity
8
0
6
ByLayer
62
256
370
-1
100
AcDbLine
10
671.42418029
20
65.5734
11
671.42418029
21
75.5734406439
0
LINE
5
10E
100
AcDbEntity
8
0
6
ByLayer
62
256
370
-1
100
AcDbLine
10
671.42418029
20
85.5734406439
11
1225.30498553
21
85.5734406439
0
LINE
5
10F
100
AcDbEntity
8
0
6
ByLayer
62
256
370
-1
100
AcDbLine
10
671.42418029
20
75.5734406439
11
1235.30498553
21
75.5734406439
0
LINE
5
110
100
AcDbEntity
8
0
6
ByLayer
62
256
370
-1
100
AcDbLine
10
671.42418029
20
65.5734
11
1225.30464348
21
65.5734
0
LINE
5
111
100
AcDbEntity
8
0
6
ByLayer
62
256
370
-1
100
AcDbLine
10
1120.30498553
20
85.5734406439
11
1120.30498553
21
320.573
0
INSERT
5
112
100
AcDbEntity
8
eletrical
6
ByLayer
62
256
370
-1
100
AcDbBlockReference
2
out110hor
10
259.56928369
20
-169.426559356
30
0
41
1
42
1
43
0
50
0
70
1
71
1
44
0
45
0
0
INSERT
5
113
100
AcDbEntity
8
eletrical
6
ByLayer
62
256
370
-1
100
AcDbBlockReference
2
out110hor
10
271.441431685
20
-169.426559356
30
0
41
1
42
1
43
0
50
0
70
1
71
1
44
0
45
0
0
LINE
5
114
100
AcDbEntity
8
0
6
ByLayer
62
256
370
-1
100
AcDbLine
10
21.7049855311
20
-169.426559356
11
181.704985531
21
-169.426559356
0
LINE
5
115
100
AcDbEntity
8
0
6
ByLayer
62
256
370
-1
100
AcDbLine
10
191.704985531
20
-169.426559356
11
328.704985531
21
-169.426559356
0
LINE
5
116
100
AcDbEntity
8
0
6
ByLayer
62
256
370
-1
100
AcDbLine
10
691.304985531
20
-169.426559356
11
1225.30498553
21
-169.426559356
0
LINE
5
117
100
AcDbEntity
8
0
6
ByLayer
62
256
370
-1
100
AcDbLine
10
338.704985531
20
-169.426559356
11
681.304985531
21
-169.426559356
0
INSERT
5
118
100
AcDbEntity
8
eletrical
6
ByLayer
62
256
370
-1
100
AcDbBlockReference
2
out110hor
10
415.397740703
20
-169.426559356
30
0
41
1
42
1
43
0
50
0
70
1
71
1
44
0
45
0
0
INSERT
5
119
100
AcDbEntity
8
eletrical
6
ByLayer
62
256
370
-1
100
AcDbBlockReference
2
out110hor
10
797.281693467
20
-169.426559356
30
0
41
1
42
1
43
0
50
0
70
1
71
1
44
0
45
0
0
INSERT
5
11A
100
AcDbEntity
8
eletrical
6
ByLayer
62
256
370
-1
100
AcDbBlockReference
2
out110hor
10
1096.54789992
20
-169.426559356
30
0
41
1
42
1
43
0
50
0
70
1
71
1
44
0
45
0
0
INSERT
5
11B
100
AcDbEntity
8
eletrical
6
ByLayer
62
256
370
-1
100
AcDbBlockReference
2
out110hor
10
1102.65530704
20
85.5734406439
30
0
41
1
42
1
43
0
50
0
70
1
71
1
44
0
45
0
0
INSERT
5
11C
100
AcDbEntity
8
eletrical
6
ByLayer
62
256
370
-1
100
AcDbBlockReference
2
out110hor
10
807.871123103
20
85.5734406439
30
0
41
1
42
1
43
0
50
0
70
1
71
1
44
0
45
0
0
INSERT
5
11D
100
AcDbEntity
8
eletrical
6
ByLayer
62
256
370
-1
100
AcDbBlockReference
2
out110hor
10
1104.4893614
20
320.573
30
0
41
1
42
1
43
0
50
180
70
1
71
1
44
0
45
0
0
INSERT
5
11E
100
AcDbEntity
8
eletrical
6
ByLayer
62
256
370
-1
100
AcDbBlockReference
2
out110hor
10
807.314127573
20
320.573
30
0
41
1
42
1
43
0
50
180
70
1
71
1
44
0
45
0
0
INSERT
5
11F
100
AcDbEntity
8
eletrical
6
ByLayer
62
256
370
-1
100
AcDbBlockReference
2
out110hor
10
647.837512703
20
320.573
30
0
41
1
42
1
43
0
50
180
70
1
71
1
44
0
45
0
0
INSERT
5
120
100
AcDbEntity
8
eletrical
6
ByLayer
62
256
370
-1
100
AcDbBlockReference
2
out110hor
10
328.884282963
20
320.573
30
0
41
1
42
1
43
0
50
180
70
1
71
1
44
0
45
0
0
INSERT
5
121
100
AcDbEntity
8
eletrical
6
ByLayer
62
256
370
-1
100
AcDbBlockReference
2
out110hor
10
477.334992168
20
320.573
30
0
41
1
42
1
43
0
50
180
70
1
71
1
44
0
45
0
0
INSERT
5
122
100
AcDbEntity
8
eletrical
6
ByLayer
62
256
370
-1
100
AcDbBlockReference
2
out110hor
10
51.0379747849
20
320.573
30
0
41
1
42
1
43
0
50
180
70
1
71
1
44
0
45
0
0
INSERT
5
123
100
AcDbEntity
8
eletrical
6
ByLayer
62
256
370
-1
100
AcDbBlockReference
2
out110hor
10
322.043986982
20
85.5734406439
30
0
41
1
42
1
43
0
50
0
70
1
71
1
44
0
45
0
0
INSERT
5
124
100
AcDbEntity
8
eletrical
6
ByLayer
62
256
370
-1
100
AcDbBlockReference
2
out110hor
10
53.8880981103
20
85.5734406439
30
0
41
1
42
1
43
0
50
0
70
1
71
1
44
0
45
0
0
MTEXT
5
125
100
AcDbEntity
8
text
6
ByLayer
62
256
370
-1
100
AcDbMText
10
765.911696576
20
215.581336696
30
0
40
10
41
76.3926986091
71
1
72
5
1
sliding door
7
iso
210
0
220
0
230
1
50
90
73
1
44
0.96
0
MTEXT
5
126
100
AcDbEntity
8
text
6
ByLayer
62
256
370
-1
100
AcDbMText
10
343.44294194
20
216.575380825
30
0
40
10
41
76.3926986091
71
1
72
5
1
sliding door
7
iso
210
0
220
0
230
1
50
90
73
1
44
0.96
0
INSERT
5
127
100
AcDbEntity
8
eletrical
6
ByLayer
62
256
370
-1
100
AcDbBlockReference
2
out110hor
10
1104.4893614
20
65.5734
30
0
41
1
42
1
43
0
50
180
70
1
71
1
44
0
45
0
0
INSERT
5
128
100
AcDbEntity
8
eletrical
6
ByLayer
62
256
370
-1
100
AcDbBlockReference
2
out110hor
10
807.314127573
20
65.5734
30
0
41
1
42
1
43
0
50
180
70
1
71
1
44
0
45
0
0
LINE
5
129
100
AcDbEntity
8
0
6
ByLayer
62
256
370
-1
100
AcDbLine
10
11.7049855311
20
283.073440644
11
21.7049855311
21
283.073440644
0
LINE
5
12A
100
AcDbEntity
8
0
6
ByLayer
62
256
370
-1
100
AcDbLine
10
11.7049855311
20
123.073440644
11
21.7049855311
21
123.073440644
0
LINE
5
12B
100
AcDbEntity
8
0
6
ByLayer
62
256
370
-1
100
AcDbLine
10
11.7049855311
20
203.073440644
11
21.7049855311
21
203.073440644
0
LINE
5
12C
100
AcDbEntity
8
0
6
ByLayer
62
256
370
-1
100
AcDbLine
10
16.7049855311
20
123.073440644
11
16.7049855311
21
283.073440644
0
LINE
5
12D
100
AcDbEntity
8
0
6
ByLayer
62
256
370
-1
100
AcDbLine
10
561.304985531
20
320.573
11
561.304985531
21
330.573440644
0
LINE
5
12E
100
AcDbEntity
8
0
6
ByLayer
62
256
370
-1
100
AcDbLine
10
476.304985531
20
320.573
11
476.304985531
21
330.573440644
0
LINE
5
12F
100
AcDbEntity
8
0
6
ByLayer
62
256
370
-1
100
AcDbLine
10
646.304985531
20
320.573
11
646.304985531
21
330.573440644
0
LINE
5
130
100
AcDbEntity
8
0
6
ByLayer
62
256
370
-1
100
AcDbLine
10
476.304985531
20
325.573220322
11
646.304985531
21
325.573220322
0
LINE
5
131
100
AcDbEntity
8
0
6
ByLayer
62
256
370
-1
100
AcDbLine
10
11.7049855311
20
55.5734406439
11
21.7049855311
21
55.5734406439
0
LINE
5
132
100
AcDbEntity
8
0
6
ByLayer
62
256
370
-1
100
AcDbLine
10
11.7049855311
20
-4.42655935614
11
21.7049855311
21
-4.42655935614
0
LINE
5
133
100
AcDbEntity
8
0
6
ByLayer
62
256
370
-1
100
AcDbLine
10
16.7049855311
20
-4.42655935614
11
16.7049855311
21
55.5734406439
0
LINE
5
134
100
AcDbEntity
8
0
6
ByLayer
62
256
370
-1
100
AcDbLine
10
11.7049855311
20
-96.4265593561
11
21.7049855311
21
-96.4265593561
0
LINE
5
135
100
AcDbEntity
8
0
6
ByLayer
62
256
370
-1
100
AcDbLine
10
11.7049855311
20
-36.4265593561
11
21.7049855311
21
-36.4265593561
0
LINE
5
136
100
AcDbEntity
8
0
6
ByLayer
62
256
370
-1
100
AcDbLine
10
11.7049855311
20
-156.426559356
11
21.7049855311
21
-156.426559356
0
LINE
5
137
100
AcDbEntity
8
0
6
ByLayer
62
256
370
-1
100
AcDbLine
10
16.7049855311
20
-156.426559356
11
16.7049855311
21
-36.4265593561
0
LINE
5
138
100
AcDbEntity
8
eletrical
6
ByLayer
62
256
370
-1
100
AcDbLine
10
681.304985531
20
60.5734
11
691.304985531
21
60.5734
0
LINE
5
139
100
AcDbEntity
8
eletrical
6
ByLayer
62
256
370
-1
100
AcDbLine
10
681.304985531
20
-19.4266
11
691.304985531
21
-19.4266
0
LINE
5
13A
100
AcDbEntity
8
eletrical
6
ByLayer
62
256
370
-1
100
AcDbLine
10
691.304985531
20
60.5734
11
691.304985531
21
65.5734
0
LINE
5
13B
100
AcDbEntity
8
eletrical
6
ByLayer
62
256
370
-1
100
AcDbLine
10
681.304985531
20
60.5734
11
681.304985531
21
65.5734
0
LINE
5
13C
100
AcDbEntity
8
eletrical
6
ByLayer
62
256
370
-1
100
AcDbLine
10
681.304985531
20
-95.4265593561
11
681.304985531
21
-19.4266
0
LINE
5
13D
100
AcDbEntity
8
eletrical
6
ByLayer
62
256
370
-1
100
AcDbLine
10
691.304985531
20
-24.4265593561
11
770.304985531
21
-24.4265593561
0
LINE
5
13E
100
AcDbEntity
8
eletrical
6
ByLayer
62
256
370
-1
100
AcDbLine
10
763.304985531
20
-34.4265593561
11
770.304985531
21
-34.4265593561
0
LINE
5
13F
100
AcDbEntity
8
eletrical
6
ByLayer
62
256
370
-1
100
AcDbLine
10
691.304985531
20
-29.4265593561
11
763.304985531
21
-29.4265593561
0
LINE
5
140
100
AcDbEntity
8
0
6
ByLayer
62
256
370
-1
100
AcDbLine
10
770.304985531
20
-34.4265593561
11
770.304985531
21
-24.4265593561
0
LINE
5
141
100
AcDbEntity
8
0
6
ByLayer
62
256
370
-1
100
AcDbLine
10
763.304985531
20
-34.4265593561
11
763.304985531
21
-29.4265593561
0
LINE
5
142
100
AcDbEntity
8
eletrical
6
ByLayer
62
256
370
-1
100
AcDbLine
10
691.304985531
20
-102.426559356
11
691.304985531
21
-29.4265593561
0
LINE
5
143
100
AcDbEntity
8
eletrical
6
ByLayer
62
256
370
-1
100
AcDbLine
10
691.304985531
20
-24.4265593561
11
691.304985531
21
-19.4266
0
INSERT
5
144
100
AcDbEntity
8
doors
6
ByLayer
62
256
370
-1
100
AcDbBlockReference
2
door80verright
10
691.42418029
20
90.5734406439
30
0
41
1
42
-1
43
0
50
0
70
1
71
1
44
0
45
0
0
INSERT
5
145
100
AcDbEntity
8
doors
6
ByLayer
62
256
370
-1
100
AcDbBlockReference
2
door80verright
10
691.304985531
20
60.5734
30
0
41
1
42
1
43
0
50
0
70
1
71
1
44
0
45
0
0
INSERT
5
146
100
AcDbEntity
8
doors
6
ByLayer
62
256
370
-1
100
AcDbBlockReference
2
door80verright
10
432.304985531
20
90.3774380584
30
0
41
1
42
1
43
0
50
180
70
1
71
1
44
0
45
0
0
ENDSEC
0
SECTION
2
OBJECTS
0
DICTIONARY
5
C
330
0
100
AcDbDictionary
281
1
3
ACAD_GROUP
350
D
0
DICTIONARY
5
D
330
C
100
AcDbDictionary
281
1
0
ENDSEC
0
EOF
