999
dxflib 2.2.0.0
  0
SECTION
  2
HEADER
  9
$ACADVER
  1
AC1015
  9
$HANDSEED
  5
FFFF
  9
$SPLINESEGS
 70
8
  9
$DIMEXE
 40
12.5
  9
$PSVPSCALE
 40
0.0125809584677399
  9
$DIMLUNIT
 70
2
  9
$GRIDMODE
 70
0
  9
$INSUNITS
 70
5
  9
$DIMADEC
 70
2
  9
$DIMASZ
 40
5.0
  9
$DIMGAP
 40
6.25
  9
$DIMTXT
 40
9.0
  9
$GRIDUNIT
 10
0.0
 20
0.0
  9
$DIMEXO
 40
12.5
  9
$LUPREC
 70
4
  9
$PINSBASE
 10
2.8255814656432925
 20
14.6783085572808325
 30
0.0
  9
$DIMAUNIT
 70
0
  9
$AUPREC
 70
2
  9
$PLIMMIN
 10
0.0
 20
0.0
  9
$LUNITS
 70
2
  9
$PLIMMAX
 10
21.0
 20
29.6999999999999993
  9
$DIMSTYLE
  2
Standard
  9
$AUNITS
 70
0
  0
ENDSEC
  0
SECTION
  2
TABLES
  0
TABLE
  2
VPORT
  5
8
100
AcDbSymbolTable
 70
1
  0
VPORT
  5
30
100
AcDbSymbolTableRecord
100
AcDbViewportTableRecord
  2
*Active
 70
0
 10
0.0
 20
0.0
 11
1.0
 21
1.0
 12
286.3055555555554861
 22
148.5
 13
0.0
 23
0.0
 14
10.0
 24
10.0
 15
10.0
 25
10.0
 16
0.0
 26
0.0
 36
1.0
 17
0.0
 27
0.0
 37
0.0
 40
297.0
 41
1.92798353909465
 42
50.0
 43
0.0
 44
0.0
 50
0.0
 51
0.0
 71
0
 72
100
 73
1
 74
3
 75
1
 76
1
 77
0
 78
0
281
0
 65
1
110
0.0
120
0.0
130
0.0
111
1.0
121
0.0
131
0.0
112
0.0
122
1.0
132
0.0
 79
0
146
0.0
  0
ENDTAB
  0
TABLE
  2
LTYPE
  5
5
100
AcDbSymbolTable
 70
21
  0
LTYPE
  5
14
100
AcDbSymbolTableRecord
100
AcDbLinetypeTableRecord
  2
ByBlock
 70
0
  3

 72
65
 73
0
 40
0.0
  0
LTYPE
  5
15
100
AcDbSymbolTableRecord
100
AcDbLinetypeTableRecord
  2
ByLayer
 70
0
  3

 72
65
 73
0
 40
0.0
  0
LTYPE
  5
16
100
AcDbSymbolTableRecord
100
AcDbLinetypeTableRecord
  2
CONTINUOUS
 70
0
  3
Solid line
 72
65
 73
0
 40
0.0
  0
LTYPE
  5
31
100
AcDbSymbolTableRecord
100
AcDbLinetypeTableRecord
  2
DOT
 70
0
  3
Dot . . . . . . . . . . . . . . . . . . . . . .
 72
65
 73
2
 40
6.3499999999999996
 49
0.0
 74
0
 49
-6.3499999999999996
 74
0
  0
LTYPE
  5
32
100
AcDbSymbolTableRecord
100
AcDbLinetypeTableRecord
  2
DOT2
 70
0
  3
Dot (.5x) .....................................
 72
65
 73
2
 40
3.1749999999999998
 49
0.0
 74
0
 49
-3.1749999999999998
 74
0
  0
LTYPE
  5
33
100
AcDbSymbolTableRecord
100
AcDbLinetypeTableRecord
  2
DOTX2
 70
0
  3
Dot (2x) .  .  .  .  .  .  .  .  .  .  .  .  .
 72
65
 73
2
 40
12.6999999999999993
 49
0.0
 74
0
 49
-12.6999999999999993
 74
0
  0
LTYPE
  5
34
100
AcDbSymbolTableRecord
100
AcDbLinetypeTableRecord
  2
DASHED
 70
0
  3
Dashed __ __ __ __ __ __ __ __ __ __ __ __ __ _
 72
65
 73
2
 40
19.0500000000000007
 49
12.6999999999999993
 74
0
 49
-6.3499999999999996
 74
0
  0
LTYPE
  5
35
100
AcDbSymbolTableRecord
100
AcDbLinetypeTableRecord
  2
DASHED2
 70
0
  3
Dashed (.5x) _ _ _ _ _ _ _ _ _ _ _ _ _ _ _ _ _
 72
65
 73
2
 40
9.5250000000000004
 49
6.3499999999999996
 74
0
 49
-3.1749999999999998
 74
0
  0
LTYPE
  5
36
100
AcDbSymbolTableRecord
100
AcDbLinetypeTableRecord
  2
DASHEDX2
 70
0
  3
Dashed (2x) ____  ____  ____  ____  ____  ___
 72
65
 73
2
 40
38.1000000000000014
 49
25.3999999999999986
 74
0
 49
-12.6999999999999993
 74
0
  0
LTYPE
  5
37
100
AcDbSymbolTableRecord
100
AcDbLinetypeTableRecord
  2
DASHDOT
 70
0
  3
Dash dot __ . __ . __ . __ . __ . __ . __ . __
 72
65
 73
4
 40
25.3999999999999986
 49
12.6999999999999993
 74
0
 49
-6.3499999999999996
 74
0
 49
0.0
 74
0
 49
-6.3499999999999996
 74
0
  0
LTYPE
  5
38
100
AcDbSymbolTableRecord
100
AcDbLinetypeTableRecord
  2
DASHDOT2
 70
0
  3
Dash dot (.5x) _._._._._._._._._._._._._._._.
 72
65
 73
4
 40
12.6999999999999993
 49
6.3499999999999996
 74
0
 49
-3.1749999999999998
 74
0
 49
0.0
 74
0
 49
-3.1749999999999998
 74
0
  0
LTYPE
  5
39
100
AcDbSymbolTableRecord
100
AcDbLinetypeTableRecord
  2
DASHDOTX2
 70
0
  3
Dash dot (2x) ____  .  ____  .  ____  .  ___
 72
65
 73
4
 40
50.7999999999999972
 49
25.3999999999999986
 74
0
 49
-12.6999999999999993
 74
0
 49
0.0
 74
0
 49
-12.6999999999999993
 74
0
  0
LTYPE
  5
3A
100
AcDbSymbolTableRecord
100
AcDbLinetypeTableRecord
  2
DIVIDE
 70
0
  3
Divide ____ . . ____ . . ____ . . ____ . . ____
 72
65
 73
6
 40
31.75
 49
12.6999999999999993
 74
0
 49
-6.3499999999999996
 74
0
 49
0.0
 74
0
 49
-6.3499999999999996
 74
0
 49
0.0
 74
0
 49
-6.3499999999999996
 74
0
  0
LTYPE
  5
3B
100
AcDbSymbolTableRecord
100
AcDbLinetypeTableRecord
  2
DIVIDE2
 70
0
  3
Divide (.5x) __..__..__..__..__..__..__..__.._
 72
65
 73
6
 40
15.875
 49
6.3499999999999996
 74
0
 49
-3.1749999999999998
 74
0
 49
0.0
 74
0
 49
-3.1749999999999998
 74
0
 49
0.0
 74
0
 49
-3.1749999999999998
 74
0
  0
LTYPE
  5
3C
100
AcDbSymbolTableRecord
100
AcDbLinetypeTableRecord
  2
DIVIDEX2
 70
0
  3
Divide (2x) ________  .  .  ________  .  .  _
 72
65
 73
6
 40
63.5
 49
25.3999999999999986
 74
0
 49
-12.6999999999999993
 74
0
 49
0.0
 74
0
 49
-12.6999999999999993
 74
0
 49
0.0
 74
0
 49
-12.6999999999999993
 74
0
  0
LTYPE
  5
3D
100
AcDbSymbolTableRecord
100
AcDbLinetypeTableRecord
  2
CENTER
 70
0
  3
Center ____ _ ____ _ ____ _ ____ _ ____ _ ____
 72
65
 73
4
 40
50.7999999999999972
 49
31.75
 74
0
 49
-6.3499999999999996
 74
0
 49
6.3499999999999996
 74
0
 49
-6.3499999999999996
 74
0
  0
LTYPE
  5
3E
100
AcDbSymbolTableRecord
100
AcDbLinetypeTableRecord
  2
CENTER2
 70
0
  3
Center (.5x) ___ _ ___ _ ___ _ ___ _ ___ _ ___
 72
65
 73
4
 40
28.5749999999999993
 49
19.0500000000000007
 74
0
 49
-3.1749999999999998
 74
0
 49
3.1749999999999998
 74
0
 49
-3.1749999999999998
 74
0
  0
LTYPE
  5
3F
100
AcDbSymbolTableRecord
100
AcDbLinetypeTableRecord
  2
CENTERX2
 70
0
  3
Center (2x) ________  __  ________  __  _____
 72
65
 73
4
 40
101.5999999999999943
 49
63.5
 74
0
 49
-12.6999999999999993
 74
0
 49
12.6999999999999993
 74
0
 49
-12.6999999999999993
 74
0
  0
LTYPE
  5
40
100
AcDbSymbolTableRecord
100
AcDbLinetypeTableRecord
  2
BORDER
 70
0
  3
Border __ __ . __ __ . __ __ . __ __ . __ __ .
 72
65
 73
6
 40
44.4500000000000028
 49
12.6999999999999993
 74
0
 49
-6.3499999999999996
 74
0
 49
12.6999999999999993
 74
0
 49
-6.3499999999999996
 74
0
 49
0.0
 74
0
 49
-6.3499999999999996
 74
0
  0
LTYPE
  5
41
100
AcDbSymbolTableRecord
100
AcDbLinetypeTableRecord
  2
BORDER2
 70
0
  3
Border (.5x) __.__.__.__.__.__.__.__.__.__.__.
 72
65
 73
6
 40
22.2250000000000014
 49
6.3499999999999996
 74
0
 49
-3.1749999999999998
 74
0
 49
6.3499999999999996
 74
0
 49
-3.1749999999999998
 74
0
 49
0.0
 74
0
 49
-3.1749999999999998
 74
0
  0
LTYPE
  5
42
100
AcDbSymbolTableRecord
100
AcDbLinetypeTableRecord
  2
BORDERX2
 70
0
  3
Border (2x) ____  ____  .  ____  ____  .  ___
 72
65
 73
6
 40
88.9000000000000057
 49
25.3999999999999986
 74
0
 49
-12.6999999999999993
 74
0
 49
25.3999999999999986
 74
0
 49
-12.6999999999999993
 74
0
 49
0.0
 74
0
 49
-12.6999999999999993
 74
0
  0
ENDTAB
  0
TABLE
  2
LAYER
  5
2
100
AcDbSymbolTable
 70
7
  0
LAYER
  5
10
100
AcDbSymbolTableRecord
100
AcDbLayerTableRecord
  2
0
 70
0
 62
7
  6
CONTINUOUS
290
1
370
0
390
F
  0
LAYER
  5
43
100
AcDbSymbolTableRecord
100
AcDbLayerTableRecord
  2
bugus
 70
0
 62
3
  6
DOT
290
1
370
0
390
F
  0
LAYER
  5
44
100
AcDbSymbolTableRecord
100
AcDbLayerTableRecord
  2
text
 70
0
 62
7
  6
CONTINUOUS
290
1
370
0
390
F
  0
LAYER
  5
45
100
AcDbSymbolTableRecord
100
AcDbLayerTableRecord
  2
dimension
 70
0
 62
5
  6
CONTINUOUS
290
1
370
0
390
F
  0
LAYER
  5
46
100
AcDbSymbolTableRecord
100
AcDbLayerTableRecord
  2
fixtures
 70
0
 62
7
  6
CONTINUOUS
290
1
370
0
390
F
  0
LAYER
  5
47
100
AcDbSymbolTableRecord
100
AcDbLayerTableRecord
  2
doors
 70
0
 62
9
  6
CONTINUOUS
290
1
370
0
390
F
  0
LAYER
  5
48
100
AcDbSymbolTableRecord
100
AcDbLayerTableRecord
  2
eletrical
 70
0
 62
7
  6
CONTINUOUS
290
1
370
0
390
F
  0
ENDTAB
  0
TABLE
  2
STYLE
  5
3
100
AcDbSymbolTable
 70
1
  0
STYLE
  5
11
100
AcDbSymbolTableRecord
100
AcDbTextStyleTableRecord
  2
Standard
 70
0
 40
0.0
 41
0.75
 50
0.0
 71
0
 42
2.5
  3
txt
  4

  0
ENDTAB
  0
TABLE
  2
VIEW
  5
6
100
AcDbSymbolTable
 70
0
  0
ENDTAB
  0
TABLE
  2
UCS
  5
7
100
AcDbSymbolTable
 70
0
  0
ENDTAB
  0
TABLE
  2
APPID
  5
9
100
AcDbSymbolTable
 70
1
  0
APPID
  5
12
100
AcDbSymbolTableRecord
100
AcDbRegAppTableRecord
  2
ACAD
 70
0
  0
ENDTAB
  0
TABLE
  2
DIMSTYLE
  5
A
100
AcDbSymbolTable
 70
1
100
AcDbDimStyleTable
 71
0
  0
DIMSTYLE
105
27
100
AcDbSymbolTableRecord
100
AcDbDimStyleTableRecord
  2
Standard
 41
5.0
 42
12.5
 43
3.75
 44
12.5
 70
0
 73
0
 74
0
 77
1
 78
8
140
9.0
141
2.5
143
0.03937007874016
147
6.25
171
3
172
1
271
2
272
2
274
3
278
44
283
0
284
8
340
11
  0
ENDTAB
  0
TABLE
  2
BLOCK_RECORD
  5
1
100
AcDbSymbolTable
 70
1
  0
BLOCK_RECORD
  5
1F
100
AcDbSymbolTableRecord
100
AcDbBlockTableRecord
  2
*Model_Space
340
22
  0
BLOCK_RECORD
  5
1B
100
AcDbSymbolTableRecord
100
AcDbBlockTableRecord
  2
*Paper_Space
340
1E
  0
BLOCK_RECORD
  5
23
100
AcDbSymbolTableRecord
100
AcDbBlockTableRecord
  2
*Paper_Space0
340
26
  0
BLOCK_RECORD
  5
49
100
AcDbSymbolTableRecord
100
AcDbBlockTableRecord
  2
WC-hor-left
340
0
  0
BLOCK_RECORD
  5
4A
100
AcDbSymbolTableRecord
100
AcDbBlockTableRecord
  2
tub-ver
340
0
  0
BLOCK_RECORD
  5
4B
100
AcDbSymbolTableRecord
100
AcDbBlockTableRecord
  2
door60verleft
340
0
  0
BLOCK_RECORD
  5
4C
100
AcDbSymbolTableRecord
100
AcDbBlockTableRecord
  2
door71verleft
340
0
  0
BLOCK_RECORD
  5
4D
100
AcDbSymbolTableRecord
100
AcDbBlockTableRecord
  2
door80verright
340
0
  0
BLOCK_RECORD
  5
4E
100
AcDbSymbolTableRecord
100
AcDbBlockTableRecord
  2
out110hor
340
0
  0
BLOCK_RECORD
  5
4F
100
AcDbSymbolTableRecord
100
AcDbBlockTableRecord
  2
dim1
340
0
  0
ENDTAB
  0
ENDSEC
  0
SECTION
  2
BLOCKS
  0
BLOCK
  5
20
100
AcDbEntity
  8
0
100
AcDbBlockBegin
  2
*Model_Space
 70
0
 10
0.0
 20
0.0
 30
0.0
  3
*Model_Space
  1

  0
ENDBLK
  5
21
100
AcDbEntity
  8
0
100
AcDbBlockEnd
  0
BLOCK
  5
1C
100
AcDbEntity
 67
1
  8
0
100
AcDbBlockBegin
  2
*Paper_Space
 70
0
 10
0.0
 20
0.0
 30
0.0
  3
*Paper_Space
  1

  0
ENDBLK
  5
1D
100
AcDbEntity
 67
1
  8
0
100
AcDbBlockEnd
  0
BLOCK
  5
24
100
AcDbEntity
  8
0
100
AcDbBlockBegin
  2
*Paper_Space0
 70
0
 10
0.0
 20
0.0
 30
0.0
  3
*Paper_Space0
  1

  0
ENDBLK
  5
25
100
AcDbEntity
  8
0
100
AcDbBlockEnd
  0
BLOCK
  5
50
100
AcDbEntity
  8
0
100
AcDbBlockBegin
  2
WC-hor-left
 70
0
 10
0.0
 20
0.0
 30
0.0
  3
WC-hor-left
  1

  0
LINE
  5
51
100
AcDbEntity
100
AcDbLine
  8
fixtures
 62
256
370
-1
  6
ByLayer
 10
0.0
 20
0.0
 30
0.0
 11
20.0
 21
0.0
 31
0.0
  0
LINE
  5
52
100
AcDbEntity
100
AcDbLine
  8
fixtures
 62
256
370
-1
  6
ByLayer
 10
0.0
 20
0.0
 30
0.0
 11
0.0
 21
47.0
 31
0.0
  0
LINE
  5
53
100
AcDbEntity
100
AcDbLine
  8
fixtures
 62
256
370
-1
  6
ByLayer
 10
20.0
 20
0.0
 30
0.0
 11
20.0
 21
47.0
 31
0.0
  0
LINE
  5
54
100
AcDbEntity
100
AcDbLine
  8
fixtures
 62
256
370
-1
  6
ByLayer
 10
0.0
 20
47.0
 30
0.0
 11
20.0
 21
47.0
 31
0.0
  0
ELLIPSE
  5
55
100
AcDbEntity
100
AcDbEllipse
  8
fixtures
 62
256
370
-1
  6
ByLayer
 10
48.383983460600291
 20
22.8898383817995068
 30
0.0
 11
23.8828093948296072
 21
-0.663411372078599
 31
0.0
 40
0.6156515034695453
 41
0.0
 42
6.2831853071795862
  0
MTEXT
  5
56
100
AcDbEntity
100
AcDbMText
  8
text
 62
256
370
-1
  6
ByLayer
 10
80.8402745876098265
 20
8.7561304533611377
 30
0.0
 40
15.0
 41
100.0
 71
1
 72
2
  1
WC
  7
iso
 50
0.0
 73
0
 44
1.0
  0
ENDBLK
  5
57
100
AcDbEntity
  8
0
100
AcDbBlockEnd
  0
BLOCK
  5
58
100
AcDbEntity
  8
0
100
AcDbBlockBegin
  2
tub-ver
 70
0
 10
0.0
 20
0.0
 30
0.0
  3
tub-ver
  1

  0
ARC
  5
59
100
AcDbEntity
  8
0
 62
256
370
-1
  6
ByLayer
100
AcDbCircle
 10
5.0
 20
0.0
 30
0.0
 40
5.0
100
AcDbArc
 50
90.0
 51
180.0
  0
LINE
  5
5A
100
AcDbEntity
100
AcDbLine
  8
0
 62
256
370
-1
  6
ByLayer
 10
5.0
 20
5.0
 30
0.0
 11
53.0000000000000071
 21
5.0
 31
0.0
  0
ARC
  5
5B
100
AcDbEntity
  8
0
 62
256
370
-1
  6
ByLayer
100
AcDbCircle
 10
53.0000000000000071
 20
0.0
 30
0.0
 40
5.0
100
AcDbArc
 50
0.0
 51
90.0
  0
LINE
  5
5C
100
AcDbEntity
100
AcDbLine
  8
0
 62
256
370
-1
  6
ByLayer
 10
58.0000000000000071
 20
-86.9999999999999858
 30
0.0
 11
58.0000000000000071
 21
0.0
 31
0.0
  0
ARC
  5
5D
100
AcDbEntity
  8
0
 62
256
370
-1
  6
ByLayer
100
AcDbCircle
 10
53.0000000000000071
 20
-86.9999999999999858
 30
0.0
 40
5.0
100
AcDbArc
 50
270.0
 51
0.0
  0
LINE
  5
5E
100
AcDbEntity
100
AcDbLine
  8
0
 62
256
370
-1
  6
ByLayer
 10
4.9999999999999716
 20
-91.9999999999999858
 30
0.0
 11
53.0000000000000071
 21
-91.9999999999999858
 31
0.0
  0
LINE
  5
5F
100
AcDbEntity
100
AcDbLine
  8
0
 62
256
370
-1
  6
ByLayer
 10
-0.0000000000000284
 20
-86.9999999999999858
 30
0.0
 11
0.0
 21
0.0
 31
0.0
  0
ARC
  5
60
100
AcDbEntity
  8
0
 62
256
370
-1
  6
ByLayer
100
AcDbCircle
 10
4.9999999999999716
 20
-86.9999999999999858
 30
0.0
 40
5.0
100
AcDbArc
 50
180.0
 51
270.0
  0
ENDBLK
  5
61
100
AcDbEntity
  8
0
100
AcDbBlockEnd
  0
BLOCK
  5
62
100
AcDbEntity
  8
0
100
AcDbBlockBegin
  2
door60verleft
 70
0
 10
0.0
 20
0.0
 30
0.0
  3
door60verleft
  1

  0
LINE
  5
63
100
AcDbEntity
100
AcDbLine
  8
fixtures
 62
256
370
-1
  6
ByLayer
 10
0.0
 20
0.0
 30
0.0
 11
-51.5285115251740962
 21
-29.7500000000000071
 31
0.0
  0
ARC
  5
64
100
AcDbEntity
  8
fixtures
 62
256
370
-1
  6
ByLayer
100
AcDbCircle
 10
0.0
 20
0.0
 30
0.0
 40
60.0
100
AcDbArc
 50
210.0
 51
270.0
  0
LINE
  5
65
100
AcDbEntity
100
AcDbLine
  8
fixtures
 62
256
370
-1
  6
ByLayer
 10
2.5
 20
-4.3301270189221981
 30
0.0
 11
-49.0285115251740962
 21
-34.0801270189221981
 31
0.0
  0
LINE
  5
66
100
AcDbEntity
100
AcDbLine
  8
fixtures
 62
256
370
-1
  6
ByLayer
 10
0.0
 20
0.0
 30
0.0
 11
2.5
 21
-4.3301270189221981
 31
0.0
  0
ENDBLK
  5
67
100
AcDbEntity
  8
0
100
AcDbBlockEnd
  0
BLOCK
  5
68
100
AcDbEntity
  8
0
100
AcDbBlockBegin
  2
door71verleft
 70
0
 10
0.0
 20
0.0
 30
0.0
  3
door71verleft
  1

  0
LINE
  5
69
100
AcDbEntity
100
AcDbLine
  8
doors
 62
256
370
-1
  6
ByLayer
 10
0.0
 20
0.0
 30
0.0
 11
-61.4878036686951646
 21
-35.5000000000000071
 31
0.0
  0
ARC
  5
6A
100
AcDbEntity
  8
doors
 62
256
370
-1
  6
ByLayer
100
AcDbCircle
 10
0.0
 20
0.0
 30
0.0
 40
71.0
100
AcDbArc
 50
210.0
 51
269.9999999999999432
  0
LINE
  5
6B
100
AcDbEntity
100
AcDbLine
  8
doors
 62
256
370
-1
  6
ByLayer
 10
2.5
 20
-4.3301270189221981
 30
0.0
 11
-58.9878036686951646
 21
-39.8301270189221981
 31
0.0
  0
LINE
  5
6C
100
AcDbEntity
100
AcDbLine
  8
doors
 62
256
370
-1
  6
ByLayer
 10
0.0
 20
0.0
 30
0.0
 11
2.5
 21
-4.3301270189221981
 31
0.0
  0
ENDBLK
  5
6D
100
AcDbEntity
  8
0
100
AcDbBlockEnd
  0
BLOCK
  5
6E
100
AcDbEntity
  8
0
100
AcDbBlockBegin
  2
door80verright
 70
0
 10
0.0
 20
0.0
 30
0.0
  3
door80verright
  1

  0
LINE
  5
6F
100
AcDbEntity
100
AcDbLine
  8
doors
 62
256
370
-1
  6
ByLayer
 10
0.0
 20
0.0
 30
0.0
 11
51.4230087749231188
 21
-61.2835554495182464
 31
0.0
  0
ARC
  5
70
100
AcDbEntity
  8
doors
 62
256
370
-1
  6
ByLayer
100
AcDbCircle
 10
0.0
 20
0.0
 30
0.0
 40
80.0
100
AcDbArc
 50
270.0
 51
309.9999999999999432
  0
LINE
  5
71
100
AcDbEntity
100
AcDbLine
  8
doors
 62
256
370
-1
  6
ByLayer
 10
-3.8302222155948584
 20
-3.2139380484326807
 30
0.0
 11
47.5927865593282604
 21
-64.4974934979509413
 31
0.0
  0
LINE
  5
72
100
AcDbEntity
100
AcDbLine
  8
doors
 62
256
370
-1
  6
ByLayer
 10
0.0
 20
0.0
 30
0.0
 11
-3.8302222155948584
 21
-3.2139380484326807
 31
0.0
  0
ENDBLK
  5
73
100
AcDbEntity
  8
0
100
AcDbBlockEnd
  0
BLOCK
  5
74
100
AcDbEntity
  8
0
100
AcDbBlockBegin
  2
out110hor
 70
0
 10
0.0
 20
0.0
 30
0.0
  3
out110hor
  1

  0
CIRCLE
  5
75
100
AcDbEntity
100
AcDbCircle
  8
eletrical
 62
256
370
-1
  6
ByLayer
 10
1.923833067930623
 20
9.3156922990824143
 30
0.0
 40
5.0
  0
LINE
  5
76
100
AcDbEntity
100
AcDbLine
  8
eletrical
 62
256
370
-1
  6
ByLayer
 10
3.628960766971737
 20
0.0
 30
0.0
 11
3.628960766971737
 21
16.1186024643239421
 31
0.0
  0
LINE
  5
77
100
AcDbEntity
100
AcDbLine
  8
eletrical
 62
256
370
-1
  6
ByLayer
 10
0.0
 20
0.0
 30
0.0
 11
0.0
 21
16.1186024643239421
 31
0.0
  0
ENDBLK
  5
78
100
AcDbEntity
  8
0
100
AcDbBlockEnd
  0
BLOCK
  5
79
100
AcDbEntity
  8
0
100
AcDbBlockBegin
  2
dim1
 70
0
 10
0.0
 20
0.0
 30
0.0
  3
dim1
  1

  0
LINE
  5
7A
100
AcDbEntity
100
AcDbLine
  8
dimension
 62
256
370
-1
  6
ByLayer
 10
0.0
 20
0.0
 30
0.0
 11
0.0
 21
145.0
 31
0.0
  0
MTEXT
  5
7B
100
AcDbEntity
100
AcDbMText
  8
dimension
 62
256
370
-1
  6
ByLayer
 10
-10.75
 20
72.5
 30
0.0
 40
9.0
 41
30.0
 71
5
 72
2
  1
145
  7
standard
 50
90.0
 73
0
 44
1.0
  0
LINE
  5
7C
100
AcDbEntity
100
AcDbLine
  8
dimension
 62
256
370
-1
  6
ByLayer
 10
21.4175698857781072
 20
0.0
 30
0.0
 11
-12.5
 21
0.0
 31
0.0
  0
ENDBLK
  5
7D
100
AcDbEntity
  8
0
100
AcDbBlockEnd
  0
ENDSEC
  0
SECTION
  2
ENTITIES
  0
LINE
  5
7E
100
AcDbEntity
100
AcDbLine
  8
0
 62
256
370
-1
  6
ByLayer
 10
4.6403420523139713
 20
-179.426559356140217
 30
0.0
 11
4.6403420523139873
 21
75.573440643859783
 31
0.0
  0
LINE
  5
7F
100
AcDbEntity
100
AcDbLine
  8
0
 62
256
370
-1
  6
ByLayer
 10
4.6403420523139713
 20
-179.426559356140217
 30
0.0
 11
4.6403420523139873
 21
75.573440643859783
 31
0.0
  0
LINE
  5
80
100
AcDbEntity
100
AcDbLine
  8
0
 62
256
370
-1
  6
ByLayer
 10
14.6403420523139722
 20
-169.426559356140217
 30
0.0
 11
14.6403420523139864
 21
65.573440643859783
 31
0.0
  0
LINE
  5
81
100
AcDbEntity
100
AcDbLine
  8
0
 62
256
370
-1
  6
ByLayer
 10
4.6403420523139713
 20
-179.426559356140217
 30
0.0
 11
1228.240342052313963
 21
-179.426559356140217
 31
0.0
  0
LINE
  5
82
100
AcDbEntity
100
AcDbLine
  8
0
 62
256
370
-1
  6
ByLayer
 10
434.6403420523139403
 20
-169.4265593561403307
 30
0.0
 11
434.6403420523139403
 21
-102.426559356140217
 31
0.0
  0
LINE
  5
83
100
AcDbEntity
100
AcDbLine
  8
0
 62
256
370
-1
  6
ByLayer
 10
4.6403420523140033
 20
330.573440643859783
 30
0.0
 11
1228.240342052313963
 21
330.573440643859783
 31
0.0
  0
LINE
  5
84
100
AcDbEntity
100
AcDbLine
  8
0
 62
256
370
-1
  6
ByLayer
 10
4.6403420523139873
 20
75.573440643859783
 30
0.0
 11
4.6403420523140033
 21
330.573440643859783
 31
0.0
  0
LINE
  5
85
100
AcDbEntity
100
AcDbLine
  8
0
 62
256
370
-1
  6
ByLayer
 10
14.6403420523139882
 20
85.573440643859783
 30
0.0
 11
14.6403420523140024
 21
320.573440643859783
 31
0.0
  0
LINE
  5
86
100
AcDbEntity
100
AcDbLine
  8
0
 62
256
370
-1
  6
ByLayer
 10
14.6402999999999999
 20
320.5729999999999791
 30
0.0
 11
1218.2400000000000091
 21
320.5729999999999791
 31
0.0
  0
MTEXT
  5
87
100
AcDbEntity
100
AcDbMText
  8
text
 62
256
370
-1
  6
ByLayer
 10
447.6489028213531469
 20
-5.1159874608154645
 30
0.0
 40
15.0
 41
100.0
 71
1
 72
2
  1
Kit
  7
iso
 50
0.0
 73
0
 44
1.0
  0
DIMENSION
  5
88
100
AcDbEntity
  8
dimension
 62
256
370
-1
  6
ByLayer
100
AcDbDimension
 10
174.6403420523139687
 20
-238.4963882622550102
 30
0.0
 11
94.6403420523139687
 21
-229.7463882622550102
 31
0.0
 70
0
 71
5
 72
1
 41
1.0
 42
0.0
  1

  3
Standard
100
AcDbAlignedDimension
 13
14.6403420523139722
 23
-169.426559356140217
 33
0.0
 14
174.6403420523139687
 24
-169.4265593561402454
 34
0.0
 50
0.0
100
AcDbRotatedDimension
  0
LINE
  5
89
100
AcDbEntity
100
AcDbLine
  8
0
 62
256
370
-1
  6
ByLayer
 10
174.6403420523139971
 20
60.573440643859783
 30
0.0
 11
184.6403420523139971
 21
60.573440643859783
 31
0.0
  0
LINE
  5
8A
100
AcDbEntity
100
AcDbLine
  8
0
 62
256
370
-1
  6
ByLayer
 10
321.6403420523140539
 20
60.573440643859783
 30
0.0
 11
331.6403420523140539
 21
60.573440643859783
 31
0.0
  0
LINE
  5
8B
100
AcDbEntity
100
AcDbLine
  8
0
 62
256
370
-1
  6
ByLayer
 10
174.6403420523139971
 20
60.573440643859783
 30
0.0
 11
174.6403420523139971
 21
65.5734406438597404
 31
0.0
  0
LINE
  5
8C
100
AcDbEntity
100
AcDbLine
  8
0
 62
256
370
-1
  6
ByLayer
 10
321.6403420523140539
 20
-10.426559356140217
 30
0.0
 11
331.6403420523140539
 21
-10.426559356140217
 31
0.0
  0
LINE
  5
8D
100
AcDbEntity
100
AcDbLine
  8
0
 62
256
370
-1
  6
ByLayer
 10
331.6403420523139403
 20
-169.4265593561402738
 30
0.0
 11
331.6403420523139971
 21
-10.426559356140217
 31
0.0
  0
LINE
  5
8E
100
AcDbEntity
100
AcDbLine
  8
0
 62
256
370
-1
  6
ByLayer
 10
321.6403420523139403
 20
-169.4265593561402738
 30
0.0
 11
321.6403420523139971
 21
-10.426559356140217
 31
0.0
  0
LINE
  5
8F
100
AcDbEntity
100
AcDbLine
  8
0
 62
256
370
-1
  6
ByLayer
 10
321.6403420523140539
 20
60.573440643859783
 30
0.0
 11
321.6403420523140539
 21
65.573440643859783
 31
0.0
  0
LINE
  5
90
100
AcDbEntity
100
AcDbLine
  8
0
 62
256
370
-1
  6
ByLayer
 10
331.6403420523140539
 20
60.573440643859783
 30
0.0
 11
331.6403420523140539
 21
65.573440643859783
 31
0.0
  0
LINE
  5
91
100
AcDbEntity
100
AcDbLine
  8
0
 62
256
370
-1
  6
ByLayer
 10
184.6403420523139971
 20
65.573440643859783
 30
0.0
 11
321.6403420523140539
 21
65.573440643859783
 31
0.0
  0
LINE
  5
92
100
AcDbEntity
100
AcDbLine
  8
0
 62
256
370
-1
  6
ByLayer
 10
14.6403420523139864
 20
65.573440643859783
 30
0.0
 11
174.6403420523139971
 21
65.573440643859783
 31
0.0
  0
DIMENSION
  5
93
100
AcDbEntity
  8
dimension
 62
256
370
-1
  6
ByLayer
100
AcDbDimension
 10
434.6403420523139403
 20
-238.4963882622550102
 30
0.0
 11
383.1403420523139403
 21
-227.7463882622550102
 31
0.0
 70
0
 71
5
 72
1
 41
1.0
 42
0.0
  1

  3
Standard
100
AcDbAlignedDimension
 13
331.6403420523139403
 23
-169.4265593561402738
 33
0.0
 14
434.6403420523139403
 24
-169.4265593561403307
 34
0.0
 50
0.0
100
AcDbRotatedDimension
  0
DIMENSION
  5
94
100
AcDbEntity
  8
dimension
 62
256
370
-1
  6
ByLayer
100
AcDbDimension
 10
-109.9849578782143311
 20
-169.426559356140217
 30
0.0
 11
-120.7349578782143311
 21
-51.926559356140217
 31
0.0
 70
0
 71
5
 72
1
 41
1.0
 42
0.0
  1

  3
Standard
100
AcDbAlignedDimension
 13
14.6403420523139864
 23
65.573440643859783
 33
0.0
 14
16.3070087189806365
 24
-169.426559356140217
 34
0.0
 50
90.0
100
AcDbRotatedDimension
  0
LINE
  5
95
100
AcDbEntity
100
AcDbLine
  8
0
 62
256
370
-1
  6
ByLayer
 10
1228.240342052313963
 20
65.5734000000000066
 30
0.0
 11
1345.240342052313963
 21
65.5734000000000066
 31
0.0
  0
LINE
  5
96
100
AcDbEntity
100
AcDbLine
  8
0
 62
256
370
-1
  6
ByLayer
 10
1228.240342052313963
 20
-169.426559356140217
 30
0.0
 11
1345.240342052313963
 21
-169.426559356140217
 31
0.0
  0
LINE
  5
97
100
AcDbEntity
100
AcDbLine
  8
0
 62
256
370
-1
  6
ByLayer
 10
1218.240342052313963
 20
-169.426559356140217
 30
0.0
 11
1218.240342052313963
 21
-164.426559356140217
 31
0.0
  0
LINE
  5
98
100
AcDbEntity
100
AcDbLine
  8
0
 62
256
370
-1
  6
ByLayer
 10
1228.240342052313963
 20
-179.4265593561405296
 30
0.0
 11
1228.240342052313963
 21
-164.426559356140217
 31
0.0
  0
LINE
  5
99
100
AcDbEntity
100
AcDbLine
  8
0
 62
256
370
-1
  6
ByLayer
 10
1218.3947461708471565
 20
60.5173612364912259
 30
0.0
 11
1218.3947461708471565
 21
65.5734000000000066
 31
0.0
  0
LINE
  5
9A
100
AcDbEntity
100
AcDbLine
  8
0
 62
256
370
-1
  6
ByLayer
 10
1228.240342052313963
 20
320.5729999999999791
 30
0.0
 11
1345.240342052313963
 21
320.5729999999999791
 31
0.0
  0
LINE
  5
9B
100
AcDbEntity
100
AcDbLine
  8
0
 62
256
370
-1
  6
ByLayer
 10
1228.240342052313963
 20
85.573440643859783
 30
0.0
 11
1345.240342052313963
 21
85.573440643859783
 31
0.0
  0
LINE
  5
9C
100
AcDbEntity
100
AcDbLine
  8
0
 62
256
370
-1
  6
ByLayer
 10
1218.240342052313963
 20
85.573440643859783
 30
0.0
 11
1218.240342052313963
 21
90.573440643859783
 31
0.0
  0
LINE
  5
9D
100
AcDbEntity
100
AcDbLine
  8
0
 62
256
370
-1
  6
ByLayer
 10
1228.240342052313963
 20
75.5734406438594846
 30
0.0
 11
1228.240342052313963
 21
90.573440643859783
 31
0.0
  0
LINE
  5
9E
100
AcDbEntity
100
AcDbLine
  8
0
 62
256
370
-1
  6
ByLayer
 10
1218.2400000000000091
 20
315.5729999999999791
 30
0.0
 11
1218.2400000000000091
 21
320.5729999999999791
 31
0.0
  0
LINE
  5
9F
100
AcDbEntity
100
AcDbLine
  8
0
 62
256
370
-1
  6
ByLayer
 10
1228.240342052313963
 20
315.5729999999999791
 30
0.0
 11
1228.240342052313963
 21
330.573440643859783
 31
0.0
  0
LINE
  5
A0
100
AcDbEntity
100
AcDbLine
  8
0
 62
256
370
-1
  6
ByLayer
 10
1228.3736727577154397
 20
60.5734000000000066
 30
0.0
 11
1228.3736727577154397
 21
75.573440643859783
 31
0.0
  0
LINE
  5
A1
100
AcDbEntity
100
AcDbLine
  8
0
 62
256
370
-1
  6
ByLayer
 10
1345.240342052313963
 20
315.5729999999999791
 30
0.0
 11
1345.240342052313963
 21
320.5729999999999791
 31
0.0
  0
LINE
  5
A2
100
AcDbEntity
100
AcDbLine
  8
0
 62
256
370
-1
  6
ByLayer
 10
1345.240342052313963
 20
60.5734000000000066
 30
0.0
 11
1345.240342052313963
 21
65.5734000000000066
 31
0.0
  0
LINE
  5
A3
100
AcDbEntity
100
AcDbLine
  8
0
 62
256
370
-1
  6
ByLayer
 10
1345.240342052313963
 20
85.573440643859783
 30
0.0
 11
1345.240342052313963
 21
90.573440643859783
 31
0.0
  0
LINE
  5
A4
100
AcDbEntity
100
AcDbLine
  8
0
 62
256
370
-1
  6
ByLayer
 10
1345.240342052313963
 20
-169.426559356140217
 30
0.0
 11
1345.240342052313963
 21
60.5733999999999639
 31
0.0
  0
LINE
  5
A5
100
AcDbEntity
100
AcDbLine
  8
0
 62
256
370
-1
  6
ByLayer
 10
1345.240342052313963
 20
90.573440643859783
 30
0.0
 11
1345.240342052313963
 21
315.5729999999999791
 31
0.0
  0
LINE
  5
A6
100
AcDbEntity
100
AcDbLine
  8
0
 62
256
370
-1
  6
ByLayer
 10
1223.240342052313963
 20
90.573440643859783
 30
0.0
 11
1223.240342052313963
 21
315.5729999999999791
 31
0.0
  0
LINE
  5
A7
100
AcDbEntity
100
AcDbLine
  8
0
 62
256
370
-1
  6
ByLayer
 10
1218.240342052313963
 20
90.573440643859783
 30
0.0
 11
1218.240342052313963
 21
315.5729999999999791
 31
0.0
  0
LINE
  5
A8
100
AcDbEntity
100
AcDbLine
  8
0
 62
256
370
-1
  6
ByLayer
 10
1223.240342052313963
 20
-164.426559356140217
 30
0.0
 11
1223.240342052313963
 21
60.5733999999999924
 31
0.0
  0
LINE
  5
A9
100
AcDbEntity
100
AcDbLine
  8
0
 62
256
370
-1
  6
ByLayer
 10
1218.240342052313963
 20
-164.426559356140217
 30
0.0
 11
1218.240342052313963
 21
60.5733999999999924
 31
0.0
  0
LINE
  5
AA
100
AcDbEntity
100
AcDbLine
  8
0
 62
256
370
-1
  6
ByLayer
 10
1213.240342052313963
 20
-169.426559356140217
 30
0.0
 11
1213.240342052313963
 21
65.5734000000000492
 31
0.0
  0
LINE
  5
AB
100
AcDbEntity
100
AcDbLine
  8
0
 62
256
370
-1
  6
ByLayer
 10
1213.240342052313963
 20
85.573440643859783
 30
0.0
 11
1213.240342052313963
 21
320.5729999999999791
 31
0.0
  0
LINE
  5
AC
100
AcDbEntity
100
AcDbLine
  8
0
 62
256
370
-1
  6
ByLayer
 10
1213.240342052313963
 20
315.5729999999999791
 30
0.0
 11
1345.240342052313963
 21
315.5729999999999791
 31
0.0
  0
LINE
  5
AD
100
AcDbEntity
100
AcDbLine
  8
0
 62
256
370
-1
  6
ByLayer
 10
1213.240342052313963
 20
90.573440643859783
 30
0.0
 11
1345.240342052313963
 21
90.573440643859783
 31
0.0
  0
LINE
  5
AE
100
AcDbEntity
100
AcDbLine
  8
0
 62
256
370
-1
  6
ByLayer
 10
1213.240342052313963
 20
60.5734000000000066
 30
0.0
 11
1345.240342052313963
 21
60.5734000000000066
 31
0.0
  0
LINE
  5
AF
100
AcDbEntity
100
AcDbLine
  8
0
 62
256
370
-1
  6
ByLayer
 10
1213.240342052313963
 20
-164.426559356140217
 30
0.0
 11
1345.240342052313963
 21
-164.426559356140217
 31
0.0
  0
LINE
  5
B0
100
AcDbEntity
100
AcDbLine
  8
0
 62
256
370
-1
  6
ByLayer
 10
1213.240342052313963
 20
203.073220321929881
 30
0.0
 11
1223.240342052313963
 21
203.073220321929881
 31
0.0
  0
LINE
  5
B1
100
AcDbEntity
100
AcDbLine
  8
0
 62
256
370
-1
  6
ByLayer
 10
1213.240342052313963
 20
-51.9265796780701123
 30
0.0
 11
1223.240342052313963
 21
-51.9265796780701123
 31
0.0
  0
LINE
  5
B2
100
AcDbEntity
100
AcDbLine
  8
0
 62
256
370
-1
  6
ByLayer
 10
1113.240342052313963
 20
-169.426559356140217
 30
0.0
 11
1113.240342052313963
 21
65.5734000000000634
 31
0.0
  0
LINE
  5
B3
100
AcDbEntity
100
AcDbLine
  8
0
 62
256
370
-1
  6
ByLayer
 10
14.6403420523139722
 20
-14.426559356140217
 30
0.0
 11
174.6403420523139687
 21
-14.426559356140217
 31
0.0
  0
LINE
  5
B4
100
AcDbEntity
100
AcDbLine
  8
0
 62
256
370
-1
  6
ByLayer
 10
14.6403420523139705
 20
-24.426559356140217
 30
0.0
 11
174.6403420523139687
 21
-24.426559356140217
 31
0.0
  0
LINE
  5
B5
100
AcDbEntity
100
AcDbLine
  8
0
 62
256
370
-1
  6
ByLayer
 10
174.6403420523139971
 20
0.573440643859783
 30
0.0
 11
184.6403420523139971
 21
0.573440643859783
 31
0.0
  0
LINE
  5
B6
100
AcDbEntity
100
AcDbLine
  8
0
 62
256
370
-1
  6
ByLayer
 10
85.6403420523139687
 20
-169.4265593561402454
 30
0.0
 11
85.6403420523139829
 21
-24.426559356140217
 31
0.0
  0
LINE
  5
B7
100
AcDbEntity
100
AcDbLine
  8
0
 62
256
370
-1
  6
ByLayer
 10
174.6403420523139687
 20
-29.426559356140217
 30
0.0
 11
184.6403420523139971
 21
-29.426559356140217
 31
0.0
  0
LINE
  5
B8
100
AcDbEntity
100
AcDbLine
  8
0
 62
256
370
-1
  6
ByLayer
 10
174.6403420523139687
 20
-89.426559356140217
 30
0.0
 11
184.6403420523139971
 21
-89.426559356140217
 31
0.0
  0
LINE
  5
B9
100
AcDbEntity
100
AcDbLine
  8
0
 62
256
370
-1
  6
ByLayer
 10
184.6403420523139971
 20
-169.426559356140217
 30
0.0
 11
184.6403420523139971
 21
-89.4265593561402028
 31
0.0
  0
LINE
  5
BA
100
AcDbEntity
100
AcDbLine
  8
0
 62
256
370
-1
  6
ByLayer
 10
174.6403420523139687
 20
-169.426559356140217
 30
0.0
 11
174.6403420523139687
 21
-89.4265593561402028
 31
0.0
  0
LINE
  5
BB
100
AcDbEntity
100
AcDbLine
  8
0
 62
256
370
-1
  6
ByLayer
 10
184.6403420523139971
 20
60.573440643859783
 30
0.0
 11
184.6403420523139971
 21
65.5734406438597404
 31
0.0
  0
LINE
  5
BC
100
AcDbEntity
100
AcDbLine
  8
0
 62
256
370
-1
  6
ByLayer
 10
184.6403420523139971
 20
-29.4265593561401886
 30
0.0
 11
184.6403420523139971
 21
0.5734406438597794
 31
0.0
  0
LINE
  5
BD
100
AcDbEntity
100
AcDbLine
  8
0
 62
256
370
-1
  6
ByLayer
 10
174.6403420523139971
 20
-14.426559356140217
 30
0.0
 11
174.6403420523139971
 21
0.5734406438597794
 31
0.0
  0
LINE
  5
BE
100
AcDbEntity
100
AcDbLine
  8
0
 62
256
370
-1
  6
ByLayer
 10
174.6403420523139687
 20
-29.426559356140217
 30
0.0
 11
174.6403420523139687
 21
-24.426559356140217
 31
0.0
  0
MTEXT
  5
BF
100
AcDbEntity
100
AcDbMText
  8
text
 62
256
370
-1
  6
ByLayer
 10
111.4053390480902408
 20
-113.9114648050048402
 30
0.0
 40
15.0
 41
100.0
 71
1
 72
2
  1
Bath
  7
iso
 50
0.0
 73
0
 44
1.0
  0
LINE
  5
C0
100
AcDbEntity
100
AcDbLine
  8
0
 62
256
370
-1
  6
ByLayer
 10
445.240342052313963
 20
75.5734406438597972
 30
0.0
 11
445.240342052313963
 21
85.5734406438597972
 31
0.0
  0
LINE
  5
C1
100
AcDbEntity
100
AcDbLine
  8
0
 62
256
370
-1
  6
ByLayer
 10
445.240342052313963
 20
65.5734406438597972
 30
0.0
 11
445.240342052313963
 21
75.5734406438597972
 31
0.0
  0
LINE
  5
C2
100
AcDbEntity
100
AcDbLine
  8
0
 62
256
370
-1
  6
ByLayer
 10
4.6403420523139873
 20
75.573440643859783
 30
0.0
 11
445.2403420523140198
 21
75.573440643859783
 31
0.0
  0
LINE
  5
C3
100
AcDbEntity
100
AcDbLine
  8
0
 62
256
370
-1
  6
ByLayer
 10
331.6403420523140539
 20
65.573440643859783
 30
0.0
 11
445.240342052313963
 21
65.573440643859783
 31
0.0
  0
LINE
  5
C4
100
AcDbEntity
100
AcDbLine
  8
0
 62
256
370
-1
  6
ByLayer
 10
14.6403420523139882
 20
85.573440643859783
 30
0.0
 11
425.2403420523139062
 21
85.573440643859783
 31
0.0
  0
LINE
  5
C5
100
AcDbEntity
100
AcDbLine
  8
0
 62
256
370
-1
  6
ByLayer
 10
435.240342052313963
 20
85.573440643859783
 30
0.0
 11
445.240342052313963
 21
85.573440643859783
 31
0.0
  0
MTEXT
  5
C6
100
AcDbEntity
100
AcDbMText
  8
text
 62
256
370
-1
  6
ByLayer
 10
162.2387871159653514
 20
223.2253395862450134
 30
0.0
 40
15.0
 41
100.0
 71
1
 72
2
  1
Bd Room
  7
iso
 50
0.0
 73
0
 44
1.0
  0
LINE
  5
C7
100
AcDbEntity
100
AcDbLine
  8
0
 62
256
370
-1
  6
ByLayer
 10
425.240342052313963
 20
169.7524053965863118
 30
0.0
 11
435.240342052313963
 21
169.7524053965863118
 31
0.0
  0
LINE
  5
C8
100
AcDbEntity
100
AcDbLine
  8
0
 62
256
370
-1
  6
ByLayer
 10
425.240342052313963
 20
90.3774380583677157
 30
0.0
 11
435.240342052313963
 21
90.3774380583677157
 31
0.0
  0
LINE
  5
C9
100
AcDbEntity
100
AcDbLine
  8
0
 62
256
370
-1
  6
ByLayer
 10
435.240342052313963
 20
85.573440643859783
 30
0.0
 11
435.240342052313963
 21
90.3774380583677157
 31
0.0
  0
LINE
  5
CA
100
AcDbEntity
100
AcDbLine
  8
0
 62
256
370
-1
  6
ByLayer
 10
425.240342052313963
 20
85.573440643859783
 30
0.0
 11
425.240342052313963
 21
90.3774380583677157
 31
0.0
  0
LINE
  5
CB
100
AcDbEntity
100
AcDbLine
  8
0
 62
256
370
-1
  6
ByLayer
 10
435.240342052313963
 20
169.7524053965863118
 30
0.0
 11
435.240342052313963
 21
320.5729999999999791
 31
0.0
  0
INSERT
  5
CC
100
AcDbEntity
100
AcDbBlockReference
  8
fixtures
 62
256
370
-1
  6
ByLayer
  2
WC-hor-left
 10
27.0758436978475174
 20
1.6920431081837251
 30
0.0
  0
INSERT
  5
CD
100
AcDbEntity
100
AcDbBlockReference
  8
fixtures
 62
256
370
-1
  6
ByLayer
  2
tub-ver
 10
20.8946329343438819
 20
-38.1557883370156077
 30
0.0
  0
CIRCLE
  5
CE
100
AcDbEntity
100
AcDbCircle
  8
fixtures
 62
256
370
-1
  6
ByLayer
 10
174.6403420523139971
 20
60.573440643859783
 30
0.0
 40
1.0
  0
CIRCLE
  5
CF
100
AcDbEntity
100
AcDbCircle
  8
fixtures
 62
256
370
-1
  6
ByLayer
 10
174.6403420523139971
 20
0.573440643859783
 30
0.0
 40
1.0
  0
CIRCLE
  5
D0
100
AcDbEntity
100
AcDbCircle
  8
fixtures
 62
256
370
-1
  6
ByLayer
 10
174.6403420523139971
 20
60.573440643859783
 30
0.0
 40
1.0
  0
INSERT
  5
D1
100
AcDbEntity
100
AcDbBlockReference
  8
doors
 62
256
370
-1
  6
ByLayer
  2
door60verleft
 10
174.6403420523139971
 20
60.573440643859783
 30
0.0
  0
INSERT
  5
D2
100
AcDbEntity
100
AcDbBlockReference
  8
doors
 62
256
370
-1
  6
ByLayer
  2
door60verleft
 10
174.6403420523139687
 20
-29.426559356140217
 30
0.0
  0
DIMENSION
  5
D3
100
AcDbEntity
  8
dimension
 62
256
370
-1
  6
ByLayer
100
AcDbDimension
 10
1218.240342052313963
 20
-238.4963882622550102
 30
0.0
 11
1165.740342052313963
 21
-227.7463882622550102
 31
0.0
 70
0
 71
5
 72
1
 41
1.0
 42
0.0
  1

  3
Standard
100
AcDbAlignedDimension
 13
1113.240342052313963
 23
-169.426559356140217
 33
0.0
 14
1218.240342052313963
 24
-169.426559356140217
 34
0.0
 50
0.0
100
AcDbRotatedDimension
  0
DIMENSION
  5
D4
100
AcDbEntity
  8
dimension
 62
256
370
-1
  6
ByLayer
100
AcDbDimension
 10
321.6403420523139403
 20
-238.4963882622550102
 30
0.0
 11
253.1403420523139687
 21
-227.7463882622550102
 31
0.0
 70
0
 71
5
 72
1
 41
1.0
 42
0.0
  1

  3
Standard
100
AcDbAlignedDimension
 13
184.6403420523139971
 23
-169.426559356140217
 33
0.0
 14
321.6403420523139403
 24
-169.4265593561402738
 34
0.0
 50
0.0
100
AcDbRotatedDimension
  0
INSERT
  5
D5
100
AcDbEntity
100
AcDbBlockReference
  8
doors
 62
256
370
-1
  6
ByLayer
  2
door71verleft
 10
321.6403420523140539
 20
60.573440643859783
 30
0.0
  0
DIMENSION
  5
D6
100
AcDbEntity
  8
dimension
 62
256
370
-1
  6
ByLayer
100
AcDbDimension
 10
203.625020813411254
 20
0.5734406438597771
 30
0.0
 11
192.875020813411254
 21
30.573440643859783
 31
0.0
 70
0
 71
5
 72
1
 41
1.0
 42
0.0
  1

  3
Standard
100
AcDbAlignedDimension
 13
184.6403420523139971
 23
60.573440643859783
 33
0.0
 14
184.6403420523139971
 24
0.5734406438597794
 34
0.0
 50
90.0
100
AcDbRotatedDimension
  0
DIMENSION
  5
D7
100
AcDbEntity
  8
dimension
 62
256
370
-1
  6
ByLayer
100
AcDbDimension
 10
203.625020813411254
 20
-89.426559356140217
 30
0.0
 11
192.875020813411254
 21
-59.426559356140217
 31
0.0
 70
0
 71
5
 72
1
 41
1.0
 42
0.0
  1

  3
Standard
100
AcDbAlignedDimension
 13
184.6403420523139971
 23
-29.426559356140217
 33
0.0
 14
184.6403420523139971
 24
-89.426559356140217
 34
0.0
 50
90.0
100
AcDbRotatedDimension
  0
DIMENSION
  5
D8
100
AcDbEntity
  8
dimension
 62
256
370
-1
  6
ByLayer
100
AcDbDimension
 10
356.0413730262221748
 20
-10.4265593561402206
 30
0.0
 11
345.2913730262221748
 21
25.073440643859783
 31
0.0
 70
0
 71
5
 72
1
 41
1.0
 42
0.0
  1

  3
Standard
100
AcDbAlignedDimension
 13
331.6403420523140539
 23
60.573440643859783
 33
0.0
 14
331.6403420523139971
 24
-10.426559356140217
 34
0.0
 50
90.0
100
AcDbRotatedDimension
  0
DIMENSION
  5
D9
100
AcDbEntity
  8
dimension
 62
256
370
-1
  6
ByLayer
100
AcDbDimension
 10
203.625020813411254
 20
-169.426559356140217
 30
0.0
 11
192.875020813411254
 21
-129.426559356140217
 31
0.0
 70
0
 71
5
 72
1
 41
1.0
 42
0.0
  1

  3
Standard
100
AcDbAlignedDimension
 13
184.6403420523139971
 23
-89.426559356140217
 33
0.0
 14
184.6403420523139971
 24
-169.426559356140217
 34
0.0
 50
90.0
100
AcDbRotatedDimension
  0
INSERT
  5
DA
100
AcDbEntity
100
AcDbBlockReference
  8
doors
 62
256
370
-1
  6
ByLayer
  2
door80verright
 10
425.240342052313963
 20
169.7524053965863118
 30
0.0
 41
1.0
 42
-1.0
 43
1.0
 50
180.0
  0
LINE
  5
DB
100
AcDbEntity
100
AcDbLine
  8
0
 62
256
370
-1
  6
ByLayer
 10
346.2403420523140198
 20
180.5729999999999791
 30
0.0
 11
425.240342052313963
 21
180.5729999999999791
 31
0.0
  0
LINE
  5
DC
100
AcDbEntity
100
AcDbLine
  8
0
 62
256
370
-1
  6
ByLayer
 10
341.240342052313963
 20
185.5729999999999791
 30
0.0
 11
346.240342052313963
 21
185.5729999999999791
 31
0.0
  0
LINE
  5
DD
100
AcDbEntity
100
AcDbLine
  8
0
 62
256
370
-1
  6
ByLayer
 10
341.240342052313963
 20
175.5729999999999791
 30
0.0
 11
425.240342052313963
 21
175.5729999999999791
 31
0.0
  0
LINE
  5
DE
100
AcDbEntity
100
AcDbLine
  8
0
 62
256
370
-1
  6
ByLayer
 10
341.240342052313963
 20
175.5729999999999791
 30
0.0
 11
341.240342052313963
 21
185.5729999999999791
 31
0.0
  0
LINE
  5
DF
100
AcDbEntity
100
AcDbLine
  8
0
 62
256
370
-1
  6
ByLayer
 10
346.240342052313963
 20
180.5729999999999791
 30
0.0
 11
346.240342052313963
 21
185.5729999999999791
 31
0.0
  0
LINE
  5
E0
100
AcDbEntity
100
AcDbLine
  8
0
 62
256
370
-1
  6
ByLayer
 10
425.240342052313963
 20
180.5729999999999791
 30
0.0
 11
425.240342052313963
 21
320.5729999999999791
 31
0.0
  0
LINE
  5
E1
100
AcDbEntity
100
AcDbLine
  8
0
 62
256
370
-1
  6
ByLayer
 10
425.240342052313963
 20
169.7524053965863118
 30
0.0
 11
425.240342052313963
 21
175.5729999999999791
 31
0.0
  0
LINE
  5
E2
100
AcDbEntity
100
AcDbLine
  8
0
 62
256
370
-1
  6
ByLayer
 10
341.240342052313963
 20
315.5729999999999791
 30
0.0
 11
346.240342052313963
 21
315.5729999999999791
 31
0.0
  0
LINE
  5
E3
100
AcDbEntity
100
AcDbLine
  8
0
 62
256
370
-1
  6
ByLayer
 10
341.240342052313963
 20
315.5729999999999791
 30
0.0
 11
341.240342052313963
 21
320.5729999999999791
 31
0.0
  0
LINE
  5
E4
100
AcDbEntity
100
AcDbLine
  8
0
 62
256
370
-1
  6
ByLayer
 10
346.240342052313963
 20
315.5729999999999791
 30
0.0
 11
346.240342052313963
 21
320.5729999999999791
 31
0.0
  0
MTEXT
  5
E5
100
AcDbEntity
100
AcDbMText
  8
text
 62
256
370
-1
  6
ByLayer
 10
1146.8476816194879575
 20
-6.8909302758252489
 30
0.0
 40
10.0
 41
100.0
 71
4
 72
2
  1
entry
  7
iso
 50
0.0
 73
1
 44
1.0
  0
INSERT
  5
E6
100
AcDbEntity
100
AcDbBlockReference
  8
eletrical
 62
256
370
-1
  6
ByLayer
  2
out110hor
 10
52.8215400525887162
 20
-14.426559356140217
 30
0.0
  0
LINE
  5
E7
100
AcDbEntity
100
AcDbLine
  8
dimension
 62
256
370
-1
  6
ByLayer
 10
356.0413730262221748
 20
-169.4265593561402738
 30
0.0
 11
356.0413730262221748
 21
-10.426559356140217
 31
0.0
  0
LINE
  5
E8
100
AcDbEntity
100
AcDbLine
  8
dimension
 62
256
370
-1
  6
ByLayer
 10
356.0413730262221748
 20
-169.4265593561402738
 30
0.0
 11
355.2088037106764773
 21
-164.4265593561402738
 31
0.0
  0
LINE
  5
E9
100
AcDbEntity
100
AcDbLine
  8
dimension
 62
256
370
-1
  6
ByLayer
 10
355.2088037106764773
 20
-164.4265593561402738
 30
0.0
 11
356.8739423417678722
 21
-164.4265593561402738
 31
0.0
  0
LINE
  5
EA
100
AcDbEntity
100
AcDbLine
  8
dimension
 62
256
370
-1
  6
ByLayer
 10
356.8739423417678722
 20
-164.4265593561402738
 30
0.0
 11
356.0413730262221748
 21
-169.4265593561402738
 31
0.0
  0
LINE
  5
EB
100
AcDbEntity
100
AcDbLine
  8
dimension
 62
256
370
-1
  6
ByLayer
 10
356.0413730262221748
 20
-10.426559356140217
 30
0.0
 11
356.8739423417678722
 21
-15.426559356140217
 31
0.0
  0
LINE
  5
EC
100
AcDbEntity
100
AcDbLine
  8
dimension
 62
256
370
-1
  6
ByLayer
 10
356.8739423417678722
 20
-15.426559356140217
 30
0.0
 11
355.2088037106764773
 21
-15.426559356140217
 31
0.0
  0
LINE
  5
ED
100
AcDbEntity
100
AcDbLine
  8
dimension
 62
256
370
-1
  6
ByLayer
 10
355.2088037106764773
 20
-15.426559356140217
 30
0.0
 11
356.0413730262221748
 21
-10.426559356140217
 31
0.0
  0
MTEXT
  5
EE
100
AcDbEntity
100
AcDbMText
  8
dimension
 62
256
370
-1
  6
ByLayer
 10
345.2913730262221748
 20
-89.9265593561402454
 30
0.0
 40
9.0
 41
30.0
 71
5
 72
2
  1
159
  7
standard
 50
90.0
 73
1
 44
1.0
  0
LINE
  5
EF
100
AcDbEntity
100
AcDbLine
  8
dimension
 62
256
370
-1
  6
ByLayer
 10
344.1403420523139971
 20
-10.426559356140217
 30
0.0
 11
368.5413730262221748
 21
-10.426559356140217
 31
0.0
  0
LINE
  5
F0
100
AcDbEntity
100
AcDbLine
  8
0
 62
256
370
-1
  6
ByLayer
 10
763.240342052313963
 20
-169.4265593561401602
 30
0.0
 11
763.240342052313963
 21
-164.426559356140217
 31
0.0
  0
LINE
  5
F1
100
AcDbEntity
100
AcDbLine
  8
0
 62
256
370
-1
  6
ByLayer
 10
684.240342052313963
 20
-169.4265593561401317
 30
0.0
 11
684.240342052313963
 21
-102.426559356140217
 31
0.0
  0
LINE
  5
F2
100
AcDbEntity
100
AcDbLine
  8
0
 62
256
370
-1
  6
ByLayer
 10
674.240342052313963
 20
-169.4265593561401317
 30
0.0
 11
674.240342052313963
 21
-95.426559356140217
 31
0.0
  0
LINE
  5
F3
100
AcDbEntity
100
AcDbLine
  8
0
 62
256
370
-1
  6
ByLayer
 10
756.240342052313963
 20
60.5733999999999924
 30
0.0
 11
756.240342052313963
 21
65.5733999999999924
 31
0.0
  0
LINE
  5
F4
100
AcDbEntity
100
AcDbLine
  8
0
 62
256
370
-1
  6
ByLayer
 10
756.240342052313963
 20
-164.426559356140217
 30
0.0
 11
763.240342052313963
 21
-164.426559356140217
 31
0.0
  0
LINE
  5
F5
100
AcDbEntity
100
AcDbLine
  8
bugus
 62
256
370
-1
  6
ByLayer
 10
756.240342052313963
 20
-169.4265593561401886
 30
0.0
 11
756.240342052313963
 21
-164.426559356140217
 31
0.0
  0
LINE
  5
F6
100
AcDbEntity
100
AcDbLine
  8
0
 62
256
370
-1
  6
ByLayer
 10
756.240342052313963
 20
-107.426559356140217
 30
0.0
 11
763.240342052313963
 21
-107.426559356140217
 31
0.0
  0
LINE
  5
F7
100
AcDbEntity
100
AcDbLine
  8
0
 62
256
370
-1
  6
ByLayer
 10
763.240342052313963
 20
-107.426559356140217
 30
0.0
 11
763.240342052313963
 21
-19.4265999999999934
 31
0.0
  0
LINE
  5
F8
100
AcDbEntity
100
AcDbLine
  8
0
 62
256
370
-1
  6
ByLayer
 10
674.240342052313963
 20
-95.426559356140217
 30
0.0
 11
756.240342052313963
 21
-95.426559356140217
 31
0.0
  0
LINE
  5
F9
100
AcDbEntity
100
AcDbLine
  8
0
 62
256
370
-1
  6
ByLayer
 10
684.240342052313963
 20
-102.426559356140217
 30
0.0
 11
756.240342052313963
 21
-102.426559356140217
 31
0.0
  0
LINE
  5
FA
100
AcDbEntity
100
AcDbLine
  8
0
 62
256
370
-1
  6
ByLayer
 10
756.240342052313963
 20
-107.426559356140217
 30
0.0
 11
756.240342052313963
 21
-102.426559356140217
 31
0.0
  0
LINE
  5
FB
100
AcDbEntity
100
AcDbLine
  8
0
 62
256
370
-1
  6
ByLayer
 10
770.240342052313963
 20
60.5733999999999924
 30
0.0
 11
770.240342052313963
 21
65.5733999999999924
 31
0.0
  0
LINE
  5
FC
100
AcDbEntity
100
AcDbLine
  8
0
 62
256
370
-1
  6
ByLayer
 10
756.240342052313963
 20
60.5734000000000066
 30
0.0
 11
770.240342052313963
 21
60.5734000000000066
 31
0.0
  0
DIMENSION
  5
FD
100
AcDbEntity
  8
dimension
 62
256
370
-1
  6
ByLayer
100
AcDbDimension
 10
781.7274415385851398
 20
-26.426599999999997
 30
0.0
 11
770.9774415385851398
 21
-60.9265796780701052
 31
0.0
 70
0
 71
5
 72
1
 41
1.0
 42
0.0
  1

  3
Standard
100
AcDbAlignedDimension
 13
756.240342052313963
 23
-95.426559356140217
 33
0.0
 14
756.240342052313963
 24
-26.4265999999999934
 34
0.0
 50
90.0
100
AcDbRotatedDimension
  0
LINE
  5
FE
100
AcDbEntity
100
AcDbLine
  8
dimension
 62
256
370
-1
  6
ByLayer
 10
781.7274415385851398
 20
-169.4265593561401886
 30
0.0
 11
781.7274415385851398
 21
-102.426559356140217
 31
0.0
  0
LINE
  5
FF
100
AcDbEntity
100
AcDbLine
  8
dimension
 62
256
370
-1
  6
ByLayer
 10
781.7274415385851398
 20
-169.4265593561401886
 30
0.0
 11
780.8948722230394424
 21
-164.4265593561401886
 31
0.0
  0
LINE
  5
100
100
AcDbEntity
100
AcDbLine
  8
dimension
 62
256
370
-1
  6
ByLayer
 10
780.8948722230394424
 20
-164.4265593561401886
 30
0.0
 11
782.5600108541308373
 21
-164.4265593561401886
 31
0.0
  0
LINE
  5
101
100
AcDbEntity
100
AcDbLine
  8
dimension
 62
256
370
-1
  6
ByLayer
 10
782.5600108541308373
 20
-164.4265593561401886
 30
0.0
 11
781.7274415385851398
 21
-169.4265593561401886
 31
0.0
  0
LINE
  5
102
100
AcDbEntity
100
AcDbLine
  8
dimension
 62
256
370
-1
  6
ByLayer
 10
781.7274415385851398
 20
-102.426559356140217
 30
0.0
 11
782.5600108541308373
 21
-107.426559356140217
 31
0.0
  0
LINE
  5
103
100
AcDbEntity
100
AcDbLine
  8
dimension
 62
256
370
-1
  6
ByLayer
 10
782.5600108541308373
 20
-107.426559356140217
 30
0.0
 11
780.8948722230394424
 21
-107.426559356140217
 31
0.0
  0
LINE
  5
104
100
AcDbEntity
100
AcDbLine
  8
dimension
 62
256
370
-1
  6
ByLayer
 10
780.8948722230394424
 20
-107.426559356140217
 30
0.0
 11
781.7274415385851398
 21
-102.426559356140217
 31
0.0
  0
MTEXT
  5
105
100
AcDbEntity
100
AcDbMText
  8
dimension
 62
256
370
-1
  6
ByLayer
 10
770.9774415385851398
 20
-135.926559356140217
 30
0.0
 40
9.0
 41
30.0
 71
5
 72
2
  1
67
  7
standard
 50
90.0
 73
1
 44
1.0
  0
LINE
  5
106
100
AcDbEntity
100
AcDbLine
  8
dimension
 62
256
370
-1
  6
ByLayer
 10
768.740342052313963
 20
-102.426559356140217
 30
0.0
 11
794.2274415385851398
 21
-102.426559356140217
 31
0.0
  0
LINE
  5
107
100
AcDbEntity
100
AcDbLine
  8
dimension
 62
256
370
-1
  6
ByLayer
 10
820.1782969539665373
 20
-169.4265593561401602
 30
0.0
 11
820.1782969539665373
 21
-19.4265999999999934
 31
0.0
  0
LINE
  5
108
100
AcDbEntity
100
AcDbLine
  8
dimension
 62
256
370
-1
  6
ByLayer
 10
820.1782969539665373
 20
-169.4265593561401602
 30
0.0
 11
819.3457276384208399
 21
-164.4265593561401602
 31
0.0
  0
LINE
  5
109
100
AcDbEntity
100
AcDbLine
  8
dimension
 62
256
370
-1
  6
ByLayer
 10
819.3457276384208399
 20
-164.4265593561401602
 30
0.0
 11
821.0108662695122348
 21
-164.4265593561401602
 31
0.0
  0
LINE
  5
10A
100
AcDbEntity
100
AcDbLine
  8
dimension
 62
256
370
-1
  6
ByLayer
 10
821.0108662695122348
 20
-164.4265593561401602
 30
0.0
 11
820.1782969539665373
 21
-169.4265593561401602
 31
0.0
  0
LINE
  5
10B
100
AcDbEntity
100
AcDbLine
  8
dimension
 62
256
370
-1
  6
ByLayer
 10
820.1782969539665373
 20
-19.4265999999999934
 30
0.0
 11
821.0108662695122348
 21
-24.4265999999999934
 31
0.0
  0
LINE
  5
10C
100
AcDbEntity
100
AcDbLine
  8
dimension
 62
256
370
-1
  6
ByLayer
 10
821.0108662695122348
 20
-24.4265999999999934
 30
0.0
 11
819.3457276384208399
 21
-24.4265999999999934
 31
0.0
  0
LINE
  5
10D
100
AcDbEntity
100
AcDbLine
  8
dimension
 62
256
370
-1
  6
ByLayer
 10
819.3457276384208399
 20
-24.4265999999999934
 30
0.0
 11
820.1782969539665373
 21
-19.4265999999999934
 31
0.0
  0
MTEXT
  5
10E
100
AcDbEntity
100
AcDbMText
  8
dimension
 62
256
370
-1
  6
ByLayer
 10
809.4282969539665373
 20
-94.4265796780700839
 30
0.0
 40
9.0
 41
30.0
 71
5
 72
2
  1
150
  7
standard
 50
90.0
 73
1
 44
1.0
  0
LINE
  5
10F
100
AcDbEntity
100
AcDbLine
  8
dimension
 62
256
370
-1
  6
ByLayer
 10
775.740342052313963
 20
-19.4265999999999934
 30
0.0
 11
832.6782969539665373
 21
-19.4265999999999934
 31
0.0
  0
LINE
  5
110
100
AcDbEntity
100
AcDbLine
  8
0
 62
256
370
-1
  6
ByLayer
 10
756.240342052313963
 20
-169.4265593561401886
 30
0.0
 11
756.240342052313963
 21
-164.426559356140217
 31
0.0
  0
LINE
  5
111
100
AcDbEntity
100
AcDbLine
  8
0
 62
256
370
-1
  6
ByLayer
 10
434.6403420523139403
 20
-102.426559356140217
 30
0.0
 11
674.240342052313963
 21
-102.426559356140217
 31
0.0
  0
MTEXT
  5
112
100
AcDbEntity
100
AcDbMText
  8
text
 62
256
370
-1
  6
ByLayer
 10
764.9544602229303791
 20
-20.0627882422748804
 30
0.0
 40
10.0
 41
100.0
 71
1
 72
2
  1
sliding door
  7
iso
 50
90.0
 73
1
 44
1.0
  0
LINE
  5
113
100
AcDbEntity
100
AcDbLine
  8
0
 62
256
370
-1
  6
ByLayer
 10
763.3595368113834638
 20
315.573440643859783
 30
0.0
 11
768.3595368113834638
 21
315.573440643859783
 31
0.0
  0
LINE
  5
114
100
AcDbEntity
100
AcDbLine
  8
0
 62
256
370
-1
  6
ByLayer
 10
763.3595368113834638
 20
315.573440643859783
 30
0.0
 11
763.3595368113834638
 21
320.573440643859783
 31
0.0
  0
LINE
  5
115
100
AcDbEntity
100
AcDbLine
  8
0
 62
256
370
-1
  6
ByLayer
 10
768.3595368113834638
 20
315.573440643859783
 30
0.0
 11
768.3595368113834638
 21
320.573440643859783
 31
0.0
  0
LINE
  5
116
100
AcDbEntity
100
AcDbLine
  8
0
 62
256
370
-1
  6
ByLayer
 10
674.3595368113834638
 20
86.573440643859783
 30
0.0
 11
674.3595368113834638
 21
90.573440643859783
 31
0.0
  0
LINE
  5
117
100
AcDbEntity
100
AcDbLine
  8
0
 62
256
370
-1
  6
ByLayer
 10
674.3595368113834638
 20
90.573440643859783
 30
0.0
 11
684.3595368113834638
 21
90.573440643859783
 31
0.0
  0
LINE
  5
118
100
AcDbEntity
100
AcDbLine
  8
0
 62
256
370
-1
  6
ByLayer
 10
684.3595368113834638
 20
85.573440643859783
 30
0.0
 11
684.3595368113834638
 21
90.573440643859783
 31
0.0
  0
LINE
  5
119
100
AcDbEntity
100
AcDbLine
  8
0
 62
256
370
-1
  6
ByLayer
 10
674.3595368113834638
 20
170.573440643859783
 30
0.0
 11
684.3595368113834638
 21
170.573440643859783
 31
0.0
  0
LINE
  5
11A
100
AcDbEntity
100
AcDbLine
  8
0
 62
256
370
-1
  6
ByLayer
 10
674.3595368113834638
 20
170.573440643859783
 30
0.0
 11
674.3595368113834638
 21
320.573440643859783
 31
0.0
  0
LINE
  5
11B
100
AcDbEntity
100
AcDbLine
  8
0
 62
256
370
-1
  6
ByLayer
 10
684.3595368113834638
 20
175.573440643859783
 30
0.0
 11
768.3595368113834638
 21
175.573440643859783
 31
0.0
  0
LINE
  5
11C
100
AcDbEntity
100
AcDbLine
  8
0
 62
256
370
-1
  6
ByLayer
 10
768.3595368113834638
 20
175.573440643859783
 30
0.0
 11
768.3595368113834638
 21
180.573440643859783
 31
0.0
  0
LINE
  5
11D
100
AcDbEntity
100
AcDbLine
  8
0
 62
256
370
-1
  6
ByLayer
 10
768.3595368113834638
 20
180.573440643859783
 30
0.0
 11
768.3595368113834638
 21
185.573440643859783
 31
0.0
  0
LINE
  5
11E
100
AcDbEntity
100
AcDbLine
  8
0
 62
256
370
-1
  6
ByLayer
 10
763.3595368113834638
 20
185.573440643859783
 30
0.0
 11
768.3595368113834638
 21
185.573440643859783
 31
0.0
  0
LINE
  5
11F
100
AcDbEntity
100
AcDbLine
  8
0
 62
256
370
-1
  6
ByLayer
 10
684.3595368113834638
 20
180.573440643859783
 30
0.0
 11
763.3595368113834638
 21
180.573440643859783
 31
0.0
  0
LINE
  5
120
100
AcDbEntity
100
AcDbLine
  8
0
 62
256
370
-1
  6
ByLayer
 10
684.3595368113834638
 20
180.573440643859783
 30
0.0
 11
684.3595368113834638
 21
320.573440643859783
 31
0.0
  0
LINE
  5
121
100
AcDbEntity
100
AcDbLine
  8
0
 62
256
370
-1
  6
ByLayer
 10
763.3595368113834638
 20
180.573440643859783
 30
0.0
 11
763.3595368113834638
 21
185.573440643859783
 31
0.0
  0
LINE
  5
122
100
AcDbEntity
100
AcDbLine
  8
0
 62
256
370
-1
  6
ByLayer
 10
684.3595368113834638
 20
170.573440643859783
 30
0.0
 11
684.3595368113834638
 21
175.573440643859783
 31
0.0
  0
DIMENSION
  5
123
100
AcDbEntity
  8
dimension
 62
256
370
-1
  6
ByLayer
100
AcDbDimension
 10
650.4419669256053567
 20
90.573440643859783
 30
0.0
 11
639.6919669256053567
 21
130.573440643859783
 31
0.0
 70
0
 71
5
 72
1
 41
1.0
 42
0.0
  1

  3
Standard
100
AcDbAlignedDimension
 13
674.3595368113834638
 23
170.573440643859783
 33
0.0
 14
674.3595368113834638
 24
90.573440643859783
 34
0.0
 50
90.0
100
AcDbRotatedDimension
  0
INSERT
  5
124
100
AcDbEntity
100
AcDbBlockReference
  8
doors
 62
256
370
-1
  6
ByLayer
  2
door80verright
 10
684.3595368113834638
 20
170.573440643859783
 30
0.0
  0
LINE
  5
125
100
AcDbEntity
100
AcDbLine
  8
dimension
 62
256
370
-1
  6
ByLayer
 10
650.4419669256053567
 20
175.573440643859783
 30
0.0
 11
649.6093976100596592
 21
180.573440643859783
 31
0.0
  0
LINE
  5
126
100
AcDbEntity
100
AcDbLine
  8
dimension
 62
256
370
-1
  6
ByLayer
 10
649.6093976100596592
 20
180.573440643859783
 30
0.0
 11
651.2745362411510541
 21
180.573440643859783
 31
0.0
  0
LINE
  5
127
100
AcDbEntity
100
AcDbLine
  8
dimension
 62
256
370
-1
  6
ByLayer
 10
651.2745362411510541
 20
180.573440643859783
 30
0.0
 11
650.4419669256053567
 21
175.573440643859783
 31
0.0
  0
LINE
  5
128
100
AcDbEntity
100
AcDbLine
  8
dimension
 62
256
370
-1
  6
ByLayer
 10
650.4419669256053567
 20
320.573440643859783
 30
0.0
 11
651.2745362411510541
 21
315.573440643859783
 31
0.0
  0
LINE
  5
129
100
AcDbEntity
100
AcDbLine
  8
dimension
 62
256
370
-1
  6
ByLayer
 10
651.2745362411510541
 20
315.573440643859783
 30
0.0
 11
649.6093976100596592
 21
315.573440643859783
 31
0.0
  0
LINE
  5
12A
100
AcDbEntity
100
AcDbLine
  8
dimension
 62
256
370
-1
  6
ByLayer
 10
649.6093976100596592
 20
315.573440643859783
 30
0.0
 11
650.4419669256053567
 21
320.573440643859783
 31
0.0
  0
INSERT
  5
12B
100
AcDbEntity
100
AcDbBlockReference
  8
dimension
 62
256
370
-1
  6
ByLayer
  2
dim1
 10
650.4419669256053567
 20
175.573440643859783
 30
0.0
  0
LINE
  5
12C
100
AcDbEntity
100
AcDbLine
  8
0
 62
256
370
-1
  6
ByLayer
 10
664.3595368113834638
 20
75.5734406438597972
 30
0.0
 11
664.3595368113834638
 21
85.573440643859783
 31
0.0
  0
LINE
  5
12D
100
AcDbEntity
100
AcDbLine
  8
0
 62
256
370
-1
  6
ByLayer
 10
664.3595368113834638
 20
65.5734000000000066
 30
0.0
 11
664.3595368113834638
 21
75.573440643859783
 31
0.0
  0
LINE
  5
12E
100
AcDbEntity
100
AcDbLine
  8
0
 62
256
370
-1
  6
ByLayer
 10
756.240342052313963
 20
-95.426559356140217
 30
0.0
 11
756.240342052313963
 21
-19.4265999999999934
 31
0.0
  0
LINE
  5
12F
100
AcDbEntity
100
AcDbLine
  8
0
 62
256
370
-1
  6
ByLayer
 10
756.240342052313963
 20
-19.4265999999999934
 30
0.0
 11
763.240342052313963
 21
-19.4265999999999934
 31
0.0
  0
LINE
  5
130
100
AcDbEntity
100
AcDbLine
  8
0
 62
256
370
-1
  6
ByLayer
 10
1113.240342052313963
 20
85.5734406438597972
 30
0.0
 11
1113.240342052313963
 21
320.5729999999999791
 31
0.0
  0
DIMENSION
  5
131
100
AcDbEntity
  8
dimension
 62
256
370
-1
  6
ByLayer
100
AcDbDimension
 10
-50.8950593819929793
 20
-24.4265593561402099
 30
0.0
 11
-61.6450593819929793
 21
-96.926559356140217
 31
0.0
 70
0
 71
5
 72
0
 41
1.0
 42
0.0
  1

  3
Standard
100
AcDbAlignedDimension
 13
14.6403420523139722
 23
-169.426559356140217
 33
0.0
 14
14.6403420523139705
 24
-24.426559356140217
 34
0.0
 50
90.0
100
AcDbRotatedDimension
  0
DIMENSION
  5
132
100
AcDbEntity
  8
dimension
 62
256
370
-1
  6
ByLayer
100
AcDbDimension
 10
-50.8950593819929651
 20
65.5734406438597972
 30
0.0
 11
-61.6450593819929651
 21
25.5734406438597901
 31
0.0
 70
0
 71
5
 72
0
 41
1.0
 42
0.0
  1

  3
Standard
100
AcDbAlignedDimension
 13
14.6403420523139722
 23
-14.426559356140217
 33
0.0
 14
14.6403420523139864
 24
65.573440643859783
 34
0.0
 50
90.0
100
AcDbRotatedDimension
  0
DIMENSION
  5
133
100
AcDbEntity
  8
dimension
 62
256
370
-1
  6
ByLayer
100
AcDbDimension
 10
674.240342052313963
 20
-238.4963882622550102
 30
0.0
 11
554.4403420523140085
 21
-227.7463882622550102
 31
0.0
 70
0
 71
5
 72
0
 41
1.0
 42
0.0
  1

  3
Standard
100
AcDbAlignedDimension
 13
434.6403420523139403
 23
-169.4265593561403307
 33
0.0
 14
674.240342052313963
 24
-169.4265593561401317
 34
0.0
 50
0.0
100
AcDbRotatedDimension
  0
DIMENSION
  5
134
100
AcDbEntity
  8
dimension
 62
256
370
-1
  6
ByLayer
100
AcDbDimension
 10
756.240342052313963
 20
-238.4963882622550102
 30
0.0
 11
720.240342052313963
 21
-227.7463882622550102
 31
0.0
 70
0
 71
5
 72
0
 41
1.0
 42
0.0
  1

  3
Standard
100
AcDbAlignedDimension
 13
684.240342052313963
 23
-169.4265593561401317
 33
0.0
 14
756.240342052313963
 24
-169.4265593561401886
 34
0.0
 50
0.0
100
AcDbRotatedDimension
  0
DIMENSION
  5
135
100
AcDbEntity
  8
dimension
 62
256
370
-1
  6
ByLayer
100
AcDbDimension
 10
1113.240342052313963
 20
-238.4963882622550102
 30
0.0
 11
938.240342052313963
 21
-227.7463882622550102
 31
0.0
 70
0
 71
5
 72
0
 41
1.0
 42
0.0
  1

  3
Standard
100
AcDbAlignedDimension
 13
763.240342052313963
 23
-169.4265593561401602
 33
0.0
 14
1113.240342052313963
 24
-169.426559356140217
 34
0.0
 50
0.0
100
AcDbRotatedDimension
  0
DIMENSION
  5
136
100
AcDbEntity
  8
dimension
 62
256
370
-1
  6
ByLayer
100
AcDbDimension
 10
1218.240342052313963
 20
-294.5551561732845585
 30
0.0
 11
990.740342052313963
 21
-283.8051561732845585
 31
0.0
 70
0
 71
5
 72
0
 41
1.0
 42
0.0
  1

  3
Standard
100
AcDbAlignedDimension
 13
763.240342052313963
 23
-169.4265593561401602
 33
0.0
 14
1218.240342052313963
 24
-169.4265593561401317
 34
0.0
 50
0.0
100
AcDbRotatedDimension
  0
INSERT
  5
137
100
AcDbEntity
100
AcDbBlockReference
  8
eletrical
 62
256
370
-1
  6
ByLayer
  2
out110hor
 10
252.5046402106946175
 20
-169.426559356140217
 30
0.0
  0
INSERT
  5
138
100
AcDbEntity
100
AcDbBlockReference
  8
eletrical
 62
256
370
-1
  6
ByLayer
  2
out110hor
 10
264.3767882065659478
 20
-169.426559356140217
 30
0.0
  0
LINE
  5
139
100
AcDbEntity
100
AcDbLine
  8
0
 62
256
370
-1
  6
ByLayer
 10
14.6403420523139722
 20
-169.426559356140217
 30
0.0
 11
174.6403420523139403
 21
-169.426559356140217
 31
0.0
  0
LINE
  5
13A
100
AcDbEntity
100
AcDbLine
  8
0
 62
256
370
-1
  6
ByLayer
 10
184.6403420523139971
 20
-169.426559356140217
 30
0.0
 11
321.6403420523139403
 21
-169.426559356140217
 31
0.0
  0
LINE
  5
13B
100
AcDbEntity
100
AcDbLine
  8
0
 62
256
370
-1
  6
ByLayer
 10
684.240342052313963
 20
-169.4265593561401317
 30
0.0
 11
1218.240342052313963
 21
-169.4265593561401317
 31
0.0
  0
LINE
  5
13C
100
AcDbEntity
100
AcDbLine
  8
0
 62
256
370
-1
  6
ByLayer
 10
331.6403420523139403
 20
-169.4265593561402738
 30
0.0
 11
674.240342052313963
 21
-169.4265593561402738
 31
0.0
  0
INSERT
  5
13D
100
AcDbEntity
100
AcDbBlockReference
  8
eletrical
 62
256
370
-1
  6
ByLayer
  2
out110hor
 10
756.240342052313963
 20
-77.5354420272558968
 30
0.0
 50
90.0
  0
INSERT
  5
13E
100
AcDbEntity
100
AcDbBlockReference
  8
eletrical
 62
256
370
-1
  6
ByLayer
  2
out110hor
 10
408.3330972241104178
 20
-169.4265593561402738
 30
0.0
  0
INSERT
  5
13F
100
AcDbEntity
100
AcDbBlockReference
  8
eletrical
 62
256
370
-1
  6
ByLayer
  2
out110hor
 10
790.2170499885878598
 20
-169.4265593561401317
 30
0.0
  0
INSERT
  5
140
100
AcDbEntity
100
AcDbBlockReference
  8
eletrical
 62
256
370
-1
  6
ByLayer
  2
out110hor
 10
1089.483256438513763
 20
-169.4265593561401317
 30
0.0
  0
INSERT
  5
141
100
AcDbEntity
100
AcDbBlockReference
  8
eletrical
 62
256
370
-1
  6
ByLayer
  2
out110hor
 10
800.8064796238445524
 20
85.573440643859783
 30
0.0
  0
INSERT
  5
142
100
AcDbEntity
100
AcDbBlockReference
  8
eletrical
 62
256
370
-1
  6
ByLayer
  2
out110hor
 10
1097.4247179242443053
 20
320.5729999999999791
 30
0.0
 50
180.0
  0
INSERT
  5
143
100
AcDbEntity
100
AcDbBlockReference
  8
eletrical
 62
256
370
-1
  6
ByLayer
  2
out110hor
 10
800.2494840939756386
 20
320.5729999999999791
 30
0.0
 50
180.0
  0
INSERT
  5
144
100
AcDbEntity
100
AcDbBlockReference
  8
eletrical
 62
256
370
-1
  6
ByLayer
  2
out110hor
 10
640.7728692240590362
 20
320.5729999999999791
 30
0.0
 50
180.0
  0
INSERT
  5
145
100
AcDbEntity
100
AcDbBlockReference
  8
eletrical
 62
256
370
-1
  6
ByLayer
  2
out110hor
 10
321.8196394842258314
 20
320.5729999999999791
 30
0.0
 50
180.0
  0
INSERT
  5
146
100
AcDbEntity
100
AcDbBlockReference
  8
eletrical
 62
256
370
-1
  6
ByLayer
  2
out110hor
 10
470.2703486896282925
 20
320.5729999999999791
 30
0.0
 50
180.0
  0
INSERT
  5
147
100
AcDbEntity
100
AcDbBlockReference
  8
eletrical
 62
256
370
-1
  6
ByLayer
  2
out110hor
 10
43.9733313060432351
 20
320.5729999999999791
 30
0.0
 50
180.0
  0
INSERT
  5
148
100
AcDbEntity
100
AcDbBlockReference
  8
eletrical
 62
256
370
-1
  6
ByLayer
  2
out110hor
 10
314.9793435032879643
 20
85.573440643859783
 30
0.0
  0
INSERT
  5
149
100
AcDbEntity
100
AcDbBlockReference
  8
eletrical
 62
256
370
-1
  6
ByLayer
  2
out110hor
 10
46.8234546314351121
 20
85.573440643859783
 30
0.0
  0
MTEXT
  5
14A
100
AcDbEntity
100
AcDbMText
  8
text
 62
256
370
-1
  6
ByLayer
 10
758.8470530970910204
 20
215.5813366963610918
 30
0.0
 40
10.0
 41
100.0
 71
1
 72
2
  1
sliding door
  7
iso
 50
90.0
 73
1
 44
1.0
  0
MTEXT
  5
14B
100
AcDbEntity
100
AcDbMText
  8
text
 62
256
370
-1
  6
ByLayer
 10
336.3782984613917506
 20
216.5753808249156975
 30
0.0
 40
10.0
 41
100.0
 71
1
 72
2
  1
sliding door
  7
iso
 50
90.0
 73
1
 44
1.0
  0
INSERT
  5
14C
100
AcDbEntity
100
AcDbBlockReference
  8
eletrical
 62
256
370
-1
  6
ByLayer
  2
out110hor
 10
1097.4247179242690891
 20
65.5733999999999924
 30
0.0
 50
180.0
  0
LINE
  5
14D
100
AcDbEntity
100
AcDbLine
  8
0
 62
256
370
-1
  6
ByLayer
 10
4.6403420523139971
 20
283.073440643859783
 30
0.0
 11
14.6403420523140024
 21
283.073440643859783
 31
0.0
  0
LINE
  5
14E
100
AcDbEntity
100
AcDbLine
  8
0
 62
256
370
-1
  6
ByLayer
 10
4.6403420523139864
 20
123.073440643859783
 30
0.0
 11
14.6403420523139829
 21
123.073440643859783
 31
0.0
  0
LINE
  5
14F
100
AcDbEntity
100
AcDbLine
  8
0
 62
256
370
-1
  6
ByLayer
 10
4.64034205231399
 20
203.073440643859783
 30
0.0
 11
14.6403420523139971
 21
203.073440643859783
 31
0.0
  0
LINE
  5
150
100
AcDbEntity
100
AcDbLine
  8
0
 62
256
370
-1
  6
ByLayer
 10
9.6403420523139847
 20
123.073440643859783
 30
0.0
 11
9.6403420523139935
 21
283.0734406438598398
 31
0.0
  0
LINE
  5
151
100
AcDbEntity
100
AcDbLine
  8
0
 62
256
370
-1
  6
ByLayer
 10
554.240342052313963
 20
320.5729999999999791
 30
0.0
 11
554.240342052313963
 21
330.5734406438597262
 31
0.0
  0
LINE
  5
152
100
AcDbEntity
100
AcDbLine
  8
0
 62
256
370
-1
  6
ByLayer
 10
469.240342052313963
 20
320.5729999999999791
 30
0.0
 11
469.240342052313963
 21
330.5734406438597262
 31
0.0
  0
LINE
  5
153
100
AcDbEntity
100
AcDbLine
  8
0
 62
256
370
-1
  6
ByLayer
 10
639.240342052313963
 20
320.5729999999999791
 30
0.0
 11
639.240342052313963
 21
330.5734406438597262
 31
0.0
  0
LINE
  5
154
100
AcDbEntity
100
AcDbLine
  8
0
 62
256
370
-1
  6
ByLayer
 10
469.240342052313963
 20
325.5732203219298526
 30
0.0
 11
639.240342052313963
 21
325.5732203219298526
 31
0.0
  0
LINE
  5
155
100
AcDbEntity
100
AcDbLine
  8
0
 62
256
370
-1
  6
ByLayer
 10
4.6403420523139864
 20
55.573440643859783
 30
0.0
 11
14.6403420523139864
 21
55.573440643859783
 31
0.0
  0
LINE
  5
156
100
AcDbEntity
100
AcDbLine
  8
0
 62
256
370
-1
  6
ByLayer
 10
4.6403420523139793
 20
-4.426559356140217
 30
0.0
 11
14.6403420523139793
 21
-4.426559356140217
 31
0.0
  0
LINE
  5
157
100
AcDbEntity
100
AcDbLine
  8
0
 62
256
370
-1
  6
ByLayer
 10
9.6403420523139793
 20
-4.426559356140217
 30
0.0
 11
9.6403420523139829
 21
55.573440643859783
 31
0.0
  0
LINE
  5
158
100
AcDbEntity
100
AcDbLine
  8
0
 62
256
370
-1
  6
ByLayer
 10
4.6403420523139776
 20
-96.426559356140217
 30
0.0
 11
14.6403420523139758
 21
-96.426559356140217
 31
0.0
  0
LINE
  5
159
100
AcDbEntity
100
AcDbLine
  8
0
 62
256
370
-1
  6
ByLayer
 10
4.6403420523139811
 20
-36.426559356140217
 30
0.0
 11
14.6403420523139793
 21
-36.426559356140217
 31
0.0
  0
LINE
  5
15A
100
AcDbEntity
100
AcDbLine
  8
0
 62
256
370
-1
  6
ByLayer
 10
4.6403420523139669
 20
-156.426559356140217
 30
0.0
 11
14.6403420523139651
 21
-156.426559356140217
 31
0.0
  0
LINE
  5
15B
100
AcDbEntity
100
AcDbLine
  8
0
 62
256
370
-1
  6
ByLayer
 10
9.6403420523139651
 20
-156.426559356140217
 30
0.0
 11
9.6403420523139722
 21
-36.426559356140217
 31
0.0
  0
LINE
  5
15C
100
AcDbEntity
100
AcDbLine
  8
0
 62
256
370
-1
  6
ByLayer
 10
4.6403420523140193
 20
585.5734406438598398
 30
0.0
 11
1228.240342052313963
 21
585.5734406438598398
 31
0.0
  0
LINE
  5
15D
100
AcDbEntity
100
AcDbLine
  8
0
 62
256
370
-1
  6
ByLayer
 10
4.6403420523140033
 20
330.573440643859783
 30
0.0
 11
4.6403420523140193
 21
585.5734406438598398
 31
0.0
  0
LINE
  5
15E
100
AcDbEntity
100
AcDbLine
  8
0
 62
256
370
-1
  6
ByLayer
 10
14.6403420523140042
 20
340.573440643859783
 30
0.0
 11
14.6403420523140184
 21
575.5734406438598398
 31
0.0
  0
LINE
  5
15F
100
AcDbEntity
100
AcDbLine
  8
0
 62
256
370
-1
  6
ByLayer
 10
14.6403000000000159
 20
575.5729999999999791
 30
0.0
 11
1218.2400000000000091
 21
575.5729999999999791
 31
0.0
  0
MTEXT
  5
160
100
AcDbEntity
100
AcDbMText
  8
text
 62
256
370
-1
  6
ByLayer
 10
845.7366771160559438
 20
480.4231974921812593
 30
0.0
 40
15.0
 41
100.0
 71
1
 72
2
  1
Bd Room
  7
iso
 50
0.0
 73
0
 44
1.0
  0
LINE
  5
161
100
AcDbEntity
100
AcDbLine
  8
0
 62
256
370
-1
  6
ByLayer
 10
1228.240342052313963
 20
575.5729999999999791
 30
0.0
 11
1345.240342052313963
 21
575.5729999999999791
 31
0.0
  0
LINE
  5
162
100
AcDbEntity
100
AcDbLine
  8
0
 62
256
370
-1
  6
ByLayer
 10
1228.240342052313963
 20
340.573440643859783
 30
0.0
 11
1345.240342052313963
 21
340.573440643859783
 31
0.0
  0
LINE
  5
163
100
AcDbEntity
100
AcDbLine
  8
0
 62
256
370
-1
  6
ByLayer
 10
1218.240342052313963
 20
340.573440643859783
 30
0.0
 11
1218.240342052313963
 21
345.573440643859783
 31
0.0
  0
LINE
  5
164
100
AcDbEntity
100
AcDbLine
  8
0
 62
256
370
-1
  6
ByLayer
 10
1228.240342052313963
 20
330.5734406438594988
 30
0.0
 11
1228.240342052313963
 21
345.573440643859783
 31
0.0
  0
LINE
  5
165
100
AcDbEntity
100
AcDbLine
  8
0
 62
256
370
-1
  6
ByLayer
 10
1218.2400000000000091
 20
570.5729999999999791
 30
0.0
 11
1218.2400000000000091
 21
575.5729999999999791
 31
0.0
  0
LINE
  5
166
100
AcDbEntity
100
AcDbLine
  8
0
 62
256
370
-1
  6
ByLayer
 10
1228.240342052313963
 20
570.5729999999999791
 30
0.0
 11
1228.240342052313963
 21
585.5734406438598398
 31
0.0
  0
LINE
  5
167
100
AcDbEntity
100
AcDbLine
  8
0
 62
256
370
-1
  6
ByLayer
 10
1345.240342052313963
 20
570.5729999999999791
 30
0.0
 11
1345.240342052313963
 21
575.5729999999999791
 31
0.0
  0
LINE
  5
168
100
AcDbEntity
100
AcDbLine
  8
0
 62
256
370
-1
  6
ByLayer
 10
1345.240342052313963
 20
340.573440643859783
 30
0.0
 11
1345.240342052313963
 21
345.573440643859783
 31
0.0
  0
LINE
  5
169
100
AcDbEntity
100
AcDbLine
  8
0
 62
256
370
-1
  6
ByLayer
 10
1345.240342052313963
 20
345.573440643859783
 30
0.0
 11
1345.240342052313963
 21
570.5729999999999791
 31
0.0
  0
LINE
  5
16A
100
AcDbEntity
100
AcDbLine
  8
0
 62
256
370
-1
  6
ByLayer
 10
1223.240342052313963
 20
345.573440643859783
 30
0.0
 11
1223.240342052313963
 21
570.5729999999999791
 31
0.0
  0
LINE
  5
16B
100
AcDbEntity
100
AcDbLine
  8
0
 62
256
370
-1
  6
ByLayer
 10
1218.240342052313963
 20
345.573440643859783
 30
0.0
 11
1218.240342052313963
 21
570.5729999999999791
 31
0.0
  0
LINE
  5
16C
100
AcDbEntity
100
AcDbLine
  8
0
 62
256
370
-1
  6
ByLayer
 10
1213.240342052313963
 20
340.573440643859783
 30
0.0
 11
1213.240342052313963
 21
575.5729999999999791
 31
0.0
  0
LINE
  5
16D
100
AcDbEntity
100
AcDbLine
  8
0
 62
256
370
-1
  6
ByLayer
 10
1213.240342052313963
 20
570.5729999999999791
 30
0.0
 11
1345.240342052313963
 21
570.5729999999999791
 31
0.0
  0
LINE
  5
16E
100
AcDbEntity
100
AcDbLine
  8
0
 62
256
370
-1
  6
ByLayer
 10
1213.240342052313963
 20
345.573440643859783
 30
0.0
 11
1345.240342052313963
 21
345.573440643859783
 31
0.0
  0
LINE
  5
16F
100
AcDbEntity
100
AcDbLine
  8
0
 62
256
370
-1
  6
ByLayer
 10
1213.240342052313963
 20
458.0732203219298526
 30
0.0
 11
1223.240342052313963
 21
458.0732203219298526
 31
0.0
  0
LINE
  5
170
100
AcDbEntity
100
AcDbLine
  8
0
 62
256
370
-1
  6
ByLayer
 10
445.240342052313963
 20
330.573440643859783
 30
0.0
 11
445.240342052313963
 21
340.573440643859783
 31
0.0
  0
LINE
  5
171
100
AcDbEntity
100
AcDbLine
  8
0
 62
256
370
-1
  6
ByLayer
 10
4.6403420523140033
 20
330.573440643859783
 30
0.0
 11
445.2403420523140198
 21
330.573440643859783
 31
0.0
  0
LINE
  5
172
100
AcDbEntity
100
AcDbLine
  8
0
 62
256
370
-1
  6
ByLayer
 10
14.6403420523140042
 20
340.573440643859783
 30
0.0
 11
425.2403420523139062
 21
340.573440643859783
 31
0.0
  0
LINE
  5
173
100
AcDbEntity
100
AcDbLine
  8
0
 62
256
370
-1
  6
ByLayer
 10
435.240342052313963
 20
340.573440643859783
 30
0.0
 11
445.240342052313963
 21
340.573440643859783
 31
0.0
  0
MTEXT
  5
174
100
AcDbEntity
100
AcDbMText
  8
text
 62
256
370
-1
  6
ByLayer
 10
162.2387871159653798
 20
478.2253395862450134
 30
0.0
 40
15.0
 41
100.0
 71
1
 72
2
  1
Bd Room
  7
iso
 50
0.0
 73
0
 44
1.0
  0
LINE
  5
175
100
AcDbEntity
100
AcDbLine
  8
0
 62
256
370
-1
  6
ByLayer
 10
425.240342052313963
 20
424.7524053965863118
 30
0.0
 11
435.240342052313963
 21
424.7524053965863118
 31
0.0
  0
LINE
  5
176
100
AcDbEntity
100
AcDbLine
  8
0
 62
256
370
-1
  6
ByLayer
 10
425.240342052313963
 20
345.3774380583677157
 30
0.0
 11
435.240342052313963
 21
345.3774380583677157
 31
0.0
  0
LINE
  5
177
100
AcDbEntity
100
AcDbLine
  8
0
 62
256
370
-1
  6
ByLayer
 10
435.240342052313963
 20
340.573440643859783
 30
0.0
 11
435.240342052313963
 21
345.3774380583677157
 31
0.0
  0
LINE
  5
178
100
AcDbEntity
100
AcDbLine
  8
0
 62
256
370
-1
  6
ByLayer
 10
425.240342052313963
 20
340.573440643859783
 30
0.0
 11
425.240342052313963
 21
345.3774380583677157
 31
0.0
  0
LINE
  5
179
100
AcDbEntity
100
AcDbLine
  8
0
 62
256
370
-1
  6
ByLayer
 10
435.240342052313963
 20
424.7524053965863118
 30
0.0
 11
435.240342052313963
 21
575.5729999999999791
 31
0.0
  0
INSERT
  5
17A
100
AcDbEntity
100
AcDbBlockReference
  8
doors
 62
256
370
-1
  6
ByLayer
  2
door80verright
 10
425.240342052313963
 20
424.7524053965863118
 30
0.0
 41
1.0
 42
-1.0
 43
1.0
 50
180.0
  0
LINE
  5
17B
100
AcDbEntity
100
AcDbLine
  8
0
 62
256
370
-1
  6
ByLayer
 10
346.2403420523140198
 20
435.5729999999999791
 30
0.0
 11
425.240342052313963
 21
435.5729999999999791
 31
0.0
  0
LINE
  5
17C
100
AcDbEntity
100
AcDbLine
  8
0
 62
256
370
-1
  6
ByLayer
 10
341.240342052313963
 20
440.5729999999999791
 30
0.0
 11
346.240342052313963
 21
440.5729999999999791
 31
0.0
  0
LINE
  5
17D
100
AcDbEntity
100
AcDbLine
  8
0
 62
256
370
-1
  6
ByLayer
 10
341.240342052313963
 20
430.5729999999999791
 30
0.0
 11
425.240342052313963
 21
430.5729999999999791
 31
0.0
  0
LINE
  5
17E
100
AcDbEntity
100
AcDbLine
  8
0
 62
256
370
-1
  6
ByLayer
 10
341.240342052313963
 20
430.5729999999999791
 30
0.0
 11
341.240342052313963
 21
440.5729999999999791
 31
0.0
  0
LINE
  5
17F
100
AcDbEntity
100
AcDbLine
  8
0
 62
256
370
-1
  6
ByLayer
 10
346.240342052313963
 20
435.5729999999999791
 30
0.0
 11
346.240342052313963
 21
440.5729999999999791
 31
0.0
  0
LINE
  5
180
100
AcDbEntity
100
AcDbLine
  8
0
 62
256
370
-1
  6
ByLayer
 10
425.240342052313963
 20
435.5729999999999791
 30
0.0
 11
425.240342052313963
 21
575.5729999999999791
 31
0.0
  0
LINE
  5
181
100
AcDbEntity
100
AcDbLine
  8
0
 62
256
370
-1
  6
ByLayer
 10
425.240342052313963
 20
424.7524053965863118
 30
0.0
 11
425.240342052313963
 21
430.5729999999999791
 31
0.0
  0
LINE
  5
182
100
AcDbEntity
100
AcDbLine
  8
0
 62
256
370
-1
  6
ByLayer
 10
341.240342052313963
 20
570.5729999999999791
 30
0.0
 11
346.240342052313963
 21
570.5729999999999791
 31
0.0
  0
LINE
  5
183
100
AcDbEntity
100
AcDbLine
  8
0
 62
256
370
-1
  6
ByLayer
 10
341.240342052313963
 20
570.5729999999999791
 30
0.0
 11
341.240342052313963
 21
575.5729999999999791
 31
0.0
  0
LINE
  5
184
100
AcDbEntity
100
AcDbLine
  8
0
 62
256
370
-1
  6
ByLayer
 10
346.240342052313963
 20
570.5729999999999791
 30
0.0
 11
346.240342052313963
 21
575.5729999999999791
 31
0.0
  0
LINE
  5
185
100
AcDbEntity
100
AcDbLine
  8
0
 62
256
370
-1
  6
ByLayer
 10
763.3595368113834638
 20
570.5734406438598398
 30
0.0
 11
768.3595368113834638
 21
570.5734406438598398
 31
0.0
  0
LINE
  5
186
100
AcDbEntity
100
AcDbLine
  8
0
 62
256
370
-1
  6
ByLayer
 10
763.3595368113834638
 20
570.5734406438598398
 30
0.0
 11
763.3595368113834638
 21
575.5734406438598398
 31
0.0
  0
LINE
  5
187
100
AcDbEntity
100
AcDbLine
  8
0
 62
256
370
-1
  6
ByLayer
 10
768.3595368113834638
 20
570.5734406438598398
 30
0.0
 11
768.3595368113834638
 21
575.5734406438598398
 31
0.0
  0
LINE
  5
188
100
AcDbEntity
100
AcDbLine
  8
0
 62
256
370
-1
  6
ByLayer
 10
674.3595368113834638
 20
341.573440643859783
 30
0.0
 11
674.3595368113834638
 21
345.573440643859783
 31
0.0
  0
LINE
  5
189
100
AcDbEntity
100
AcDbLine
  8
0
 62
256
370
-1
  6
ByLayer
 10
674.3595368113834638
 20
345.573440643859783
 30
0.0
 11
684.3595368113834638
 21
345.573440643859783
 31
0.0
  0
LINE
  5
18A
100
AcDbEntity
100
AcDbLine
  8
0
 62
256
370
-1
  6
ByLayer
 10
684.3595368113834638
 20
340.573440643859783
 30
0.0
 11
684.3595368113834638
 21
345.573440643859783
 31
0.0
  0
LINE
  5
18B
100
AcDbEntity
100
AcDbLine
  8
0
 62
256
370
-1
  6
ByLayer
 10
674.3595368113834638
 20
425.573440643859783
 30
0.0
 11
684.3595368113834638
 21
425.573440643859783
 31
0.0
  0
LINE
  5
18C
100
AcDbEntity
100
AcDbLine
  8
0
 62
256
370
-1
  6
ByLayer
 10
674.3595368113834638
 20
425.573440643859783
 30
0.0
 11
674.3595368113834638
 21
575.5734406438598398
 31
0.0
  0
LINE
  5
18D
100
AcDbEntity
100
AcDbLine
  8
0
 62
256
370
-1
  6
ByLayer
 10
684.3595368113834638
 20
430.573440643859783
 30
0.0
 11
768.3595368113834638
 21
430.573440643859783
 31
0.0
  0
LINE
  5
18E
100
AcDbEntity
100
AcDbLine
  8
0
 62
256
370
-1
  6
ByLayer
 10
768.3595368113834638
 20
430.573440643859783
 30
0.0
 11
768.3595368113834638
 21
435.573440643859783
 31
0.0
  0
LINE
  5
18F
100
AcDbEntity
100
AcDbLine
  8
0
 62
256
370
-1
  6
ByLayer
 10
768.3595368113834638
 20
435.573440643859783
 30
0.0
 11
768.3595368113834638
 21
440.573440643859783
 31
0.0
  0
LINE
  5
190
100
AcDbEntity
100
AcDbLine
  8
0
 62
256
370
-1
  6
ByLayer
 10
763.3595368113834638
 20
440.573440643859783
 30
0.0
 11
768.3595368113834638
 21
440.573440643859783
 31
0.0
  0
LINE
  5
191
100
AcDbEntity
100
AcDbLine
  8
0
 62
256
370
-1
  6
ByLayer
 10
684.3595368113834638
 20
435.573440643859783
 30
0.0
 11
763.3595368113834638
 21
435.573440643859783
 31
0.0
  0
LINE
  5
192
100
AcDbEntity
100
AcDbLine
  8
0
 62
256
370
-1
  6
ByLayer
 10
684.3595368113834638
 20
435.573440643859783
 30
0.0
 11
684.3595368113834638
 21
575.5734406438598398
 31
0.0
  0
LINE
  5
193
100
AcDbEntity
100
AcDbLine
  8
0
 62
256
370
-1
  6
ByLayer
 10
763.3595368113834638
 20
435.573440643859783
 30
0.0
 11
763.3595368113834638
 21
440.573440643859783
 31
0.0
  0
LINE
  5
194
100
AcDbEntity
100
AcDbLine
  8
0
 62
256
370
-1
  6
ByLayer
 10
684.3595368113834638
 20
425.573440643859783
 30
0.0
 11
684.3595368113834638
 21
430.573440643859783
 31
0.0
  0
DIMENSION
  5
195
100
AcDbEntity
  8
dimension
 62
256
370
-1
  6
ByLayer
100
AcDbDimension
 10
650.4419669256053567
 20
345.573440643859783
 30
0.0
 11
639.6919669256053567
 21
385.573440643859783
 31
0.0
 70
0
 71
5
 72
1
 41
1.0
 42
0.0
  1

  3
Standard
100
AcDbAlignedDimension
 13
674.3595368113834638
 23
425.573440643859783
 33
0.0
 14
674.3595368113834638
 24
345.573440643859783
 34
0.0
 50
90.0
100
AcDbRotatedDimension
  0
INSERT
  5
196
100
AcDbEntity
100
AcDbBlockReference
  8
doors
 62
256
370
-1
  6
ByLayer
  2
door80verright
 10
684.3595368113834638
 20
425.573440643859783
 30
0.0
  0
LINE
  5
197
100
AcDbEntity
100
AcDbLine
  8
dimension
 62
256
370
-1
  6
ByLayer
 10
650.4419669256053567
 20
430.573440643859783
 30
0.0
 11
649.6093976100596592
 21
435.573440643859783
 31
0.0
  0
LINE
  5
198
100
AcDbEntity
100
AcDbLine
  8
dimension
 62
256
370
-1
  6
ByLayer
 10
649.6093976100596592
 20
435.573440643859783
 30
0.0
 11
651.2745362411510541
 21
435.573440643859783
 31
0.0
  0
LINE
  5
199
100
AcDbEntity
100
AcDbLine
  8
dimension
 62
256
370
-1
  6
ByLayer
 10
651.2745362411510541
 20
435.573440643859783
 30
0.0
 11
650.4419669256053567
 21
430.573440643859783
 31
0.0
  0
LINE
  5
19A
100
AcDbEntity
100
AcDbLine
  8
dimension
 62
256
370
-1
  6
ByLayer
 10
650.4419669256053567
 20
575.5734406438598398
 30
0.0
 11
651.2745362411510541
 21
570.5734406438598398
 31
0.0
  0
LINE
  5
19B
100
AcDbEntity
100
AcDbLine
  8
dimension
 62
256
370
-1
  6
ByLayer
 10
651.2745362411510541
 20
570.5734406438598398
 30
0.0
 11
649.6093976100596592
 21
570.5734406438598398
 31
0.0
  0
LINE
  5
19C
100
AcDbEntity
100
AcDbLine
  8
dimension
 62
256
370
-1
  6
ByLayer
 10
649.6093976100596592
 20
570.5734406438598398
 30
0.0
 11
650.4419669256053567
 21
575.5734406438598398
 31
0.0
  0
INSERT
  5
19D
100
AcDbEntity
100
AcDbBlockReference
  8
dimension
 62
256
370
-1
  6
ByLayer
  2
dim1
 10
650.4419669256053567
 20
430.573440643859783
 30
0.0
  0
LINE
  5
19E
100
AcDbEntity
100
AcDbLine
  8
0
 62
256
370
-1
  6
ByLayer
 10
664.3595368113834638
 20
330.573440643859783
 30
0.0
 11
664.3595368113834638
 21
340.573440643859783
 31
0.0
  0
LINE
  5
19F
100
AcDbEntity
100
AcDbLine
  8
0
 62
256
370
-1
  6
ByLayer
 10
664.3595368113834638
 20
340.573440643859783
 30
0.0
 11
1218.240342052313963
 21
340.573440643859783
 31
0.0
  0
LINE
  5
1A0
100
AcDbEntity
100
AcDbLine
  8
0
 62
256
370
-1
  6
ByLayer
 10
664.3595368113834638
 20
330.573440643859783
 30
0.0
 11
1228.240342052313963
 21
330.573440643859783
 31
0.0
  0
LINE
  5
1A1
100
AcDbEntity
100
AcDbLine
  8
0
 62
256
370
-1
  6
ByLayer
 10
1113.240342052313963
 20
340.573440643859783
 30
0.0
 11
1113.240342052313963
 21
575.5729999999999791
 31
0.0
  0
INSERT
  5
1A2
100
AcDbEntity
100
AcDbBlockReference
  8
eletrical
 62
256
370
-1
  6
ByLayer
  2
out110hor
 10
1095.590663564353008
 20
340.573440643859783
 30
0.0
  0
INSERT
  5
1A3
100
AcDbEntity
100
AcDbBlockReference
  8
eletrical
 62
256
370
-1
  6
ByLayer
  2
out110hor
 10
800.8064796238445524
 20
340.573440643859783
 30
0.0
  0
INSERT
  5
1A4
100
AcDbEntity
100
AcDbBlockReference
  8
eletrical
 62
256
370
-1
  6
ByLayer
  2
out110hor
 10
1097.4247179242443053
 20
575.5729999999999791
 30
0.0
 50
180.0
  0
INSERT
  5
1A5
100
AcDbEntity
100
AcDbBlockReference
  8
eletrical
 62
256
370
-1
  6
ByLayer
  2
out110hor
 10
800.2494840939756386
 20
575.5729999999999791
 30
0.0
 50
180.0
  0
INSERT
  5
1A6
100
AcDbEntity
100
AcDbBlockReference
  8
eletrical
 62
256
370
-1
  6
ByLayer
  2
out110hor
 10
640.7728692240590362
 20
575.5729999999999791
 30
0.0
 50
180.0
  0
INSERT
  5
1A7
100
AcDbEntity
100
AcDbBlockReference
  8
eletrical
 62
256
370
-1
  6
ByLayer
  2
out110hor
 10
321.8196394842258314
 20
575.5729999999999791
 30
0.0
 50
180.0
  0
INSERT
  5
1A8
100
AcDbEntity
100
AcDbBlockReference
  8
eletrical
 62
256
370
-1
  6
ByLayer
  2
out110hor
 10
470.2703486896282925
 20
575.5729999999999791
 30
0.0
 50
180.0
  0
INSERT
  5
1A9
100
AcDbEntity
100
AcDbBlockReference
  8
eletrical
 62
256
370
-1
  6
ByLayer
  2
out110hor
 10
43.9733313060432494
 20
575.5729999999999791
 30
0.0
 50
180.0
  0
INSERT
  5
1AA
100
AcDbEntity
100
AcDbBlockReference
  8
eletrical
 62
256
370
-1
  6
ByLayer
  2
out110hor
 10
314.9793435032879643
 20
340.573440643859783
 30
0.0
  0
INSERT
  5
1AB
100
AcDbEntity
100
AcDbBlockReference
  8
eletrical
 62
256
370
-1
  6
ByLayer
  2
out110hor
 10
46.8234546314351263
 20
340.573440643859783
 30
0.0
  0
MTEXT
  5
1AC
100
AcDbEntity
100
AcDbMText
  8
text
 62
256
370
-1
  6
ByLayer
 10
758.8470530970910204
 20
470.5813366963610633
 30
0.0
 40
10.0
 41
100.0
 71
1
 72
2
  1
sliding door
  7
iso
 50
90.0
 73
1
 44
1.0
  0
MTEXT
  5
1AD
100
AcDbEntity
100
AcDbMText
  8
text
 62
256
370
-1
  6
ByLayer
 10
336.3782984613917506
 20
471.5753808249156691
 30
0.0
 40
10.0
 41
100.0
 71
1
 72
2
  1
sliding door
  7
iso
 50
90.0
 73
1
 44
1.0
  0
LINE
  5
1AE
100
AcDbEntity
100
AcDbLine
  8
0
 62
256
370
-1
  6
ByLayer
 10
4.6403420523140131
 20
538.0734406438598398
 30
0.0
 11
14.6403420523140184
 21
538.0734406438598398
 31
0.0
  0
LINE
  5
1AF
100
AcDbEntity
100
AcDbLine
  8
0
 62
256
370
-1
  6
ByLayer
 10
4.6403420523140024
 20
378.073440643859783
 30
0.0
 11
14.6403420523139989
 21
378.073440643859783
 31
0.0
  0
LINE
  5
1B0
100
AcDbEntity
100
AcDbLine
  8
0
 62
256
370
-1
  6
ByLayer
 10
4.640342052314006
 20
458.073440643859783
 30
0.0
 11
14.6403420523140131
 21
458.073440643859783
 31
0.0
  0
LINE
  5
1B1
100
AcDbEntity
100
AcDbLine
  8
0
 62
256
370
-1
  6
ByLayer
 10
9.6403420523140007
 20
378.073440643859783
 30
0.0
 11
9.6403420523140095
 21
538.0734406438598398
 31
0.0
  0
LINE
  5
1B2
100
AcDbEntity
100
AcDbLine
  8
0
 62
256
370
-1
  6
ByLayer
 10
554.240342052313963
 20
575.5729999999999791
 30
0.0
 11
554.240342052313963
 21
585.5734406438597262
 31
0.0
  0
LINE
  5
1B3
100
AcDbEntity
100
AcDbLine
  8
0
 62
256
370
-1
  6
ByLayer
 10
469.240342052313963
 20
575.5729999999999791
 30
0.0
 11
469.240342052313963
 21
585.5734406438597262
 31
0.0
  0
LINE
  5
1B4
100
AcDbEntity
100
AcDbLine
  8
0
 62
256
370
-1
  6
ByLayer
 10
639.240342052313963
 20
575.5729999999999791
 30
0.0
 11
639.240342052313963
 21
585.5734406438597262
 31
0.0
  0
LINE
  5
1B5
100
AcDbEntity
100
AcDbLine
  8
0
 62
256
370
-1
  6
ByLayer
 10
469.240342052313963
 20
580.5732203219298526
 30
0.0
 11
639.240342052313963
 21
580.5732203219298526
 31
0.0
  0
INSERT
  5
1B6
100
AcDbEntity
100
AcDbBlockReference
  8
eletrical
 62
256
370
-1
  6
ByLayer
  2
out110hor
 10
804.2219216502318204
 20
65.5734000000000066
 30
0.0
 50
180.0
  0
INSERT
  5
1B7
100
AcDbEntity
100
AcDbBlockReference
  8
eletrical
 62
256
370
-1
  6
ByLayer
  2
out110hor
 10
1093.8993635981557873
 20
85.573440643859783
 30
0.0
  0
LINE
  5
1B8
100
AcDbEntity
100
AcDbLine
  8
eletrical
 62
256
370
-1
  6
ByLayer
 10
1088.240342052313963
 20
65.5734000000000066
 30
0.0
 11
1088.240342052313963
 21
75.573440643859783
 31
0.0
  0
LINE
  5
1B9
100
AcDbEntity
100
AcDbLine
  8
eletrical
 62
256
370
-1
  6
ByLayer
 10
1088.240342052313963
 20
75.573440643859783
 30
0.0
 11
1088.240342052313963
 21
85.573440643859783
 31
0.0
  0
LINE
  5
1BA
100
AcDbEntity
100
AcDbLine
  8
eletrical
 62
256
370
-1
  6
ByLayer
 10
813.240342052313963
 20
75.5734406438598114
 30
0.0
 11
813.240342052313963
 21
85.5734406438598114
 31
0.0
  0
LINE
  5
1BB
100
AcDbEntity
100
AcDbLine
  8
eletrical
 62
256
370
-1
  6
ByLayer
 10
813.240342052313963
 20
65.573400000000035
 30
0.0
 11
813.240342052313963
 21
75.5734406438598114
 31
0.0
  0
LINE
  5
1BC
100
AcDbEntity
100
AcDbLine
  8
0
 62
256
370
-1
  6
ByLayer
 10
664.3595368113834638
 20
85.573440643859783
 30
0.0
 11
813.240342052313963
 21
85.573440643859783
 31
0.0
  0
LINE
  5
1BD
100
AcDbEntity
100
AcDbLine
  8
0
 62
256
370
-1
  6
ByLayer
 10
664.3595368113834638
 20
75.573440643859783
 30
0.0
 11
813.240342052313963
 21
75.573440643859783
 31
0.0
  0
LINE
  5
1BE
100
AcDbEntity
100
AcDbLine
  8
0
 62
256
370
-1
  6
ByLayer
 10
664.3595368113834638
 20
65.5734000000000066
 30
0.0
 11
813.240342052313963
 21
65.5734000000000066
 31
0.0
  0
LINE
  5
1BF
100
AcDbEntity
100
AcDbLine
  8
eletrical
 62
256
370
-1
  6
ByLayer
 10
1088.240342052313963
 20
85.573440643859783
 30
0.0
 11
1228.240342052313963
 21
85.573440643859783
 31
0.0
  0
LINE
  5
1C0
100
AcDbEntity
100
AcDbLine
  8
eletrical
 62
256
370
-1
  6
ByLayer
 10
1088.240342052313963
 20
75.573440643859783
 30
0.0
 11
1228.240342052313963
 21
75.573440643859783
 31
0.0
  0
LINE
  5
1C1
100
AcDbEntity
100
AcDbLine
  8
eletrical
 62
256
370
-1
  6
ByLayer
 10
1088.240342052313963
 20
65.5734000000000066
 30
0.0
 11
1228.240342052313963
 21
65.5734000000000066
 31
0.0
  0
ENDSEC
  0
SECTION
  2
OBJECTS
  0
DICTIONARY
  5
C
100
AcDbDictionary
280
0
281
1
  3
ACAD_GROUP
350
D
  3
ACAD_LAYOUT
350
1A
  3
ACAD_MLINESTYLE
350
17
  3
ACAD_PLOTSETTINGS
350
19
  3
ACAD_PLOTSTYLENAME
350
E
  3
AcDbVariableDictionary
350
1C2
  0
DICTIONARY
  5
D
100
AcDbDictionary
280
0
281
1
  0
ACDBDICTIONARYWDFLT
  5
E
100
AcDbDictionary
281
1
  3
Normal
350
F
100
AcDbDictionaryWithDefault
340
F
  0
ACDBPLACEHOLDER
  5
F
  0
DICTIONARY
  5
17
100
AcDbDictionary
280
0
281
1
  3
Standard
350
18
  0
MLINESTYLE
  5
18
100
AcDbMlineStyle
  2
STANDARD
 70
0
  3

 62
256
 51
90.0
 52
90.0
 71
2
 49
0.5
 62
256
  6
BYLAYER
 49
-0.5
 62
256
  6
BYLAYER
  0
DICTIONARY
  5
19
100
AcDbDictionary
280
0
281
1
  0
DICTIONARY
  5
1A
100
AcDbDictionary
281
1
  3
Layout1
350
1E
  3
Layout2
350
26
  3
Model
350
22
  0
LAYOUT
  5
1E
100
AcDbPlotSettings
  1

  2
C:\Program Files\AutoCAD 2002\plotters\DWF ePlot (optimized for plotting).pc3
  4

  6

 40
0.0
 41
0.0
 42
0.0
 43
0.0
 44
0.0
 45
0.0
 46
0.0
 47
0.0
 48
0.0
 49
0.0
140
0.0
141
0.0
142
1.0
143
1.0
 70
688
 72
0
 73
0
 74
5
  7

 75
16
147
1.0
148
0.0
149
0.0
100
AcDbLayout
  1
Layout1
 70
1
 71
1
 10
0.0
 20
0.0
 11
420.0
 21
297.0
 12
0.0
 22
0.0
 32
0.0
 14
100000000000000000000.0
 24
100000000000000000000.0
 34
100000000000000000000.0
 15
-100000000000000000000.0
 25
-100000000000000000000.0
 35
-100000000000000000000.0
146
0.0
 13
0.0
 23
0.0
 33
0.0
 16
1.0
 26
0.0
 36
0.0
 17
0.0
 27
1.0
 37
0.0
 76
0
330
1B
  0
LAYOUT
  5
22
100
AcDbPlotSettings
  1

  2
C:\Program Files\AutoCAD 2002\plotters\DWF ePlot (optimized for plotting).pc3
  4

  6

 40
0.0
 41
0.0
 42
0.0
 43
0.0
 44
0.0
 45
0.0
 46
0.0
 47
0.0
 48
0.0
 49
0.0
140
0.0
141
0.0
142
1.0
143
1.0
 70
1712
 72
0
 73
0
 74
0
  7

 75
0
147
1.0
148
0.0
149
0.0
100
AcDbLayout
  1
Model
 70
1
 71
0
 10
0.0
 20
0.0
 11
12.0
 21
9.0
 12
0.0
 22
0.0
 32
0.0
 14
0.0
 24
0.0
 34
0.0
 15
0.0
 25
0.0
 35
0.0
146
0.0
 13
0.0
 23
0.0
 33
0.0
 16
1.0
 26
0.0
 36
0.0
 17
0.0
 27
1.0
 37
0.0
 76
0
330
1F
  0
LAYOUT
  5
26
100
AcDbPlotSettings
  1

  2
C:\Program Files\AutoCAD 2002\plotters\DWF ePlot (optimized for plotting).pc3
  4

  6

 40
0.0
 41
0.0
 42
0.0
 43
0.0
 44
0.0
 45
0.0
 46
0.0
 47
0.0
 48
0.0
 49
0.0
140
0.0
141
0.0
142
1.0
143
1.0
 70
688
 72
0
 73
0
 74
5
  7

 75
16
147
1.0
148
0.0
149
0.0
100
AcDbLayout
  1
Layout2
 70
1
 71
2
 10
0.0
 20
0.0
 11
12.0
 21
9.0
 12
0.0
 22
0.0
 32
0.0
 14
0.0
 24
0.0
 34
0.0
 15
0.0
 25
0.0
 35
0.0
146
0.0
 13
0.0
 23
0.0
 33
0.0
 16
1.0
 26
0.0
 36
0.0
 17
0.0
 27
1.0
 37
0.0
 76
0
330
23
  0
DICTIONARY
  5
1C2
100
AcDbDictionary
281
1
  3
DIMASSOC
350
1C4
  3
HIDETEXT
350
1C3
  0
DICTIONARYVAR
  5
1C3
100
DictionaryVariables
280
0
  1
2
  0
DICTIONARYVAR
  5
1C4
100
DictionaryVariables
280
0
  1
1
  0
ENDSEC
  0
EOF
