999
dxflib 2.2.0.0
  0
SECTION
  2
HEADER
  9
$ACADVER
  1
AC1015
  9
$HANDSEED
  5
FFFF
  9
$SPLINESEGS
 70
8
  9
$DIMEXE
 40
12.5
  9
$DIMLUNIT
 70
2
  9
$GRIDMODE
 70
0
  9
$INSUNITS
 70
5
  9
$DIMADEC
 70
2
  9
$DIMASZ
 40
5.0
  9
$DIMGAP
 40
6.25
  9
$DIMTXT
 40
9.0
  9
$GRIDUNIT
 10
0.0
 20
0.0
  9
$DIMEXO
 40
12.5
  9
$LUPREC
 70
4
  9
$DIMAUNIT
 70
0
  9
$AUPREC
 70
2
  9
$PLIMMIN
 10
0.0
 20
0.0
  9
$LUNITS
 70
2
  9
$PLIMMAX
 10
21.0
 20
29.6999999999999993
  9
$DIMSTYLE
  2
Standard
  9
$AUNITS
 70
0
  0
ENDSEC
  0
SECTION
  2
TABLES
  0
TABLE
  2
VPORT
  5
8
100
AcDbSymbolTable
 70
1
  0
VPORT
  5
30
100
AcDbSymbolTableRecord
100
AcDbViewportTableRecord
  2
*Active
 70
0
 10
0.0
 20
0.0
 11
1.0
 21
1.0
 12
286.3055555555554861
 22
148.5
 13
0.0
 23
0.0
 14
10.0
 24
10.0
 15
10.0
 25
10.0
 16
0.0
 26
0.0
 36
1.0
 17
0.0
 27
0.0
 37
0.0
 40
297.0
 41
1.92798353909465
 42
50.0
 43
0.0
 44
0.0
 50
0.0
 51
0.0
 71
0
 72
100
 73
1
 74
3
 75
1
 76
1
 77
0
 78
0
281
0
 65
1
110
0.0
120
0.0
130
0.0
111
1.0
121
0.0
131
0.0
112
0.0
122
1.0
132
0.0
 79
0
146
0.0
  0
ENDTAB
  0
TABLE
  2
LTYPE
  5
5
100
AcDbSymbolTable
 70
21
  0
LTYPE
  5
14
100
AcDbSymbolTableRecord
100
AcDbLinetypeTableRecord
  2
ByBlock
 70
0
  3

 72
65
 73
0
 40
0.0
  0
LTYPE
  5
15
100
AcDbSymbolTableRecord
100
AcDbLinetypeTableRecord
  2
ByLayer
 70
0
  3

 72
65
 73
0
 40
0.0
  0
LTYPE
  5
16
100
AcDbSymbolTableRecord
100
AcDbLinetypeTableRecord
  2
CONTINUOUS
 70
0
  3
Solid line
 72
65
 73
0
 40
0.0
  0
LTYPE
  5
31
100
AcDbSymbolTableRecord
100
AcDbLinetypeTableRecord
  2
DOT
 70
0
  3
Dot . . . . . . . . . . . . . . . . . . . . . .
 72
65
 73
2
 40
6.3499999999999996
 49
0.0
 74
0
 49
-6.3499999999999996
 74
0
  0
LTYPE
  5
32
100
AcDbSymbolTableRecord
100
AcDbLinetypeTableRecord
  2
DOT2
 70
0
  3
Dot (.5x) .....................................
 72
65
 73
2
 40
3.1749999999999998
 49
0.0
 74
0
 49
-3.1749999999999998
 74
0
  0
LTYPE
  5
33
100
AcDbSymbolTableRecord
100
AcDbLinetypeTableRecord
  2
DOTX2
 70
0
  3
Dot (2x) .  .  .  .  .  .  .  .  .  .  .  .  .
 72
65
 73
2
 40
12.6999999999999993
 49
0.0
 74
0
 49
-12.6999999999999993
 74
0
  0
LTYPE
  5
34
100
AcDbSymbolTableRecord
100
AcDbLinetypeTableRecord
  2
DASHED
 70
0
  3
Dashed __ __ __ __ __ __ __ __ __ __ __ __ __ _
 72
65
 73
2
 40
19.0500000000000007
 49
12.6999999999999993
 74
0
 49
-6.3499999999999996
 74
0
  0
LTYPE
  5
35
100
AcDbSymbolTableRecord
100
AcDbLinetypeTableRecord
  2
DASHED2
 70
0
  3
Dashed (.5x) _ _ _ _ _ _ _ _ _ _ _ _ _ _ _ _ _
 72
65
 73
2
 40
9.5250000000000004
 49
6.3499999999999996
 74
0
 49
-3.1749999999999998
 74
0
  0
LTYPE
  5
36
100
AcDbSymbolTableRecord
100
AcDbLinetypeTableRecord
  2
DASHEDX2
 70
0
  3
Dashed (2x) ____  ____  ____  ____  ____  ___
 72
65
 73
2
 40
38.1000000000000014
 49
25.3999999999999986
 74
0
 49
-12.6999999999999993
 74
0
  0
LTYPE
  5
37
100
AcDbSymbolTableRecord
100
AcDbLinetypeTableRecord
  2
DASHDOT
 70
0
  3
Dash dot __ . __ . __ . __ . __ . __ . __ . __
 72
65
 73
4
 40
25.3999999999999986
 49
12.6999999999999993
 74
0
 49
-6.3499999999999996
 74
0
 49
0.0
 74
0
 49
-6.3499999999999996
 74
0
  0
LTYPE
  5
38
100
AcDbSymbolTableRecord
100
AcDbLinetypeTableRecord
  2
DASHDOT2
 70
0
  3
Dash dot (.5x) _._._._._._._._._._._._._._._.
 72
65
 73
4
 40
12.6999999999999993
 49
6.3499999999999996
 74
0
 49
-3.1749999999999998
 74
0
 49
0.0
 74
0
 49
-3.1749999999999998
 74
0
  0
LTYPE
  5
39
100
AcDbSymbolTableRecord
100
AcDbLinetypeTableRecord
  2
DASHDOTX2
 70
0
  3
Dash dot (2x) ____  .  ____  .  ____  .  ___
 72
65
 73
4
 40
50.7999999999999972
 49
25.3999999999999986
 74
0
 49
-12.6999999999999993
 74
0
 49
0.0
 74
0
 49
-12.6999999999999993
 74
0
  0
LTYPE
  5
3A
100
AcDbSymbolTableRecord
100
AcDbLinetypeTableRecord
  2
DIVIDE
 70
0
  3
Divide ____ . . ____ . . ____ . . ____ . . ____
 72
65
 73
6
 40
31.75
 49
12.6999999999999993
 74
0
 49
-6.3499999999999996
 74
0
 49
0.0
 74
0
 49
-6.3499999999999996
 74
0
 49
0.0
 74
0
 49
-6.3499999999999996
 74
0
  0
LTYPE
  5
3B
100
AcDbSymbolTableRecord
100
AcDbLinetypeTableRecord
  2
DIVIDE2
 70
0
  3
Divide (.5x) __..__..__..__..__..__..__..__.._
 72
65
 73
6
 40
15.875
 49
6.3499999999999996
 74
0
 49
-3.1749999999999998
 74
0
 49
0.0
 74
0
 49
-3.1749999999999998
 74
0
 49
0.0
 74
0
 49
-3.1749999999999998
 74
0
  0
LTYPE
  5
3C
100
AcDbSymbolTableRecord
100
AcDbLinetypeTableRecord
  2
DIVIDEX2
 70
0
  3
Divide (2x) ________  .  .  ________  .  .  _
 72
65
 73
6
 40
63.5
 49
25.3999999999999986
 74
0
 49
-12.6999999999999993
 74
0
 49
0.0
 74
0
 49
-12.6999999999999993
 74
0
 49
0.0
 74
0
 49
-12.6999999999999993
 74
0
  0
LTYPE
  5
3D
100
AcDbSymbolTableRecord
100
AcDbLinetypeTableRecord
  2
CENTER
 70
0
  3
Center ____ _ ____ _ ____ _ ____ _ ____ _ ____
 72
65
 73
4
 40
50.7999999999999972
 49
31.75
 74
0
 49
-6.3499999999999996
 74
0
 49
6.3499999999999996
 74
0
 49
-6.3499999999999996
 74
0
  0
LTYPE
  5
3E
100
AcDbSymbolTableRecord
100
AcDbLinetypeTableRecord
  2
CENTER2
 70
0
  3
Center (.5x) ___ _ ___ _ ___ _ ___ _ ___ _ ___
 72
65
 73
4
 40
28.5749999999999993
 49
19.0500000000000007
 74
0
 49
-3.1749999999999998
 74
0
 49
3.1749999999999998
 74
0
 49
-3.1749999999999998
 74
0
  0
LTYPE
  5
3F
100
AcDbSymbolTableRecord
100
AcDbLinetypeTableRecord
  2
CENTERX2
 70
0
  3
Center (2x) ________  __  ________  __  _____
 72
65
 73
4
 40
101.5999999999999943
 49
63.5
 74
0
 49
-12.6999999999999993
 74
0
 49
12.6999999999999993
 74
0
 49
-12.6999999999999993
 74
0
  0
LTYPE
  5
40
100
AcDbSymbolTableRecord
100
AcDbLinetypeTableRecord
  2
BORDER
 70
0
  3
Border __ __ . __ __ . __ __ . __ __ . __ __ .
 72
65
 73
6
 40
44.4500000000000028
 49
12.6999999999999993
 74
0
 49
-6.3499999999999996
 74
0
 49
12.6999999999999993
 74
0
 49
-6.3499999999999996
 74
0
 49
0.0
 74
0
 49
-6.3499999999999996
 74
0
  0
LTYPE
  5
41
100
AcDbSymbolTableRecord
100
AcDbLinetypeTableRecord
  2
BORDER2
 70
0
  3
Border (.5x) __.__.__.__.__.__.__.__.__.__.__.
 72
65
 73
6
 40
22.2250000000000014
 49
6.3499999999999996
 74
0
 49
-3.1749999999999998
 74
0
 49
6.3499999999999996
 74
0
 49
-3.1749999999999998
 74
0
 49
0.0
 74
0
 49
-3.1749999999999998
 74
0
  0
LTYPE
  5
42
100
AcDbSymbolTableRecord
100
AcDbLinetypeTableRecord
  2
BORDERX2
 70
0
  3
Border (2x) ____  ____  .  ____  ____  .  ___
 72
65
 73
6
 40
88.9000000000000057
 49
25.3999999999999986
 74
0
 49
-12.6999999999999993
 74
0
 49
25.3999999999999986
 74
0
 49
-12.6999999999999993
 74
0
 49
0.0
 74
0
 49
-12.6999999999999993
 74
0
  0
ENDTAB
  0
TABLE
  2
LAYER
  5
2
100
AcDbSymbolTable
 70
9
  0
LAYER
  5
10
100
AcDbSymbolTableRecord
100
AcDbLayerTableRecord
  2
0
 70
0
 62
7
  6
CONTINUOUS
290
1
370
0
390
F
  0
LAYER
  5
43
100
AcDbSymbolTableRecord
100
AcDbLayerTableRecord
  2
dimesions
 70
0
 62
5
  6
CONTINUOUS
290
1
370
0
390
F
  0
LAYER
  5
44
100
AcDbSymbolTableRecord
100
AcDbLayerTableRecord
  2
bogus
 70
0
 62
3
  6
DOT
290
1
370
0
390
F
  0
LAYER
  5
45
100
AcDbSymbolTableRecord
100
AcDbLayerTableRecord
  2
fixtures
 70
0
 62
3
  6
CONTINUOUS
290
1
370
0
390
F
  0
LAYER
  5
46
100
AcDbSymbolTableRecord
100
AcDbLayerTableRecord
  2
doors
 70
0
 62
6
  6
CONTINUOUS
290
1
370
0
390
F
  0
LAYER
  5
47
100
AcDbSymbolTableRecord
100
AcDbLayerTableRecord
  2
eletrical
 70
0
 62
1
  6
CONTINUOUS
290
1
370
0
390
F
  0
LAYER
  5
48
100
AcDbSymbolTableRecord
100
AcDbLayerTableRecord
  2
text
 70
0
 62
7
  6
CONTINUOUS
290
1
370
0
390
F
  0
LAYER
  5
49
100
AcDbSymbolTableRecord
100
AcDbLayerTableRecord
  2
deck
 70
0
 62
222
  6
CONTINUOUS
290
1
370
0
390
F
  0
LAYER
  5
4A
100
AcDbSymbolTableRecord
100
AcDbLayerTableRecord
  2
tatami
 70
0
 62
30
  6
DOT2
290
1
370
0
390
F
  0
ENDTAB
  0
TABLE
  2
STYLE
  5
3
100
AcDbSymbolTable
 70
1
  0
STYLE
  5
11
100
AcDbSymbolTableRecord
100
AcDbTextStyleTableRecord
  2
Standard
 70
0
 40
0.0
 41
0.75
 50
0.0
 71
0
 42
2.5
  3
txt
  4

  0
ENDTAB
  0
TABLE
  2
VIEW
  5
6
100
AcDbSymbolTable
 70
0
  0
ENDTAB
  0
TABLE
  2
UCS
  5
7
100
AcDbSymbolTable
 70
0
  0
ENDTAB
  0
TABLE
  2
APPID
  5
9
100
AcDbSymbolTable
 70
1
  0
APPID
  5
12
100
AcDbSymbolTableRecord
100
AcDbRegAppTableRecord
  2
ACAD
 70
0
  0
ENDTAB
  0
TABLE
  2
DIMSTYLE
  5
A
100
AcDbSymbolTable
 70
1
100
AcDbDimStyleTable
 71
0
  0
DIMSTYLE
105
27
100
AcDbSymbolTableRecord
100
AcDbDimStyleTableRecord
  2
Standard
 41
5.0
 42
12.5
 43
3.75
 44
12.5
 70
0
 73
0
 74
0
 77
1
 78
8
140
9.0
141
2.5
143
0.03937007874016
147
6.25
171
3
172
1
271
2
272
2
274
3
278
44
283
0
284
8
340
11
  0
ENDTAB
  0
TABLE
  2
BLOCK_RECORD
  5
1
100
AcDbSymbolTable
 70
1
  0
BLOCK_RECORD
  5
1F
100
AcDbSymbolTableRecord
100
AcDbBlockTableRecord
  2
*Model_Space
340
22
  0
BLOCK_RECORD
  5
1B
100
AcDbSymbolTableRecord
100
AcDbBlockTableRecord
  2
*Paper_Space
340
1E
  0
BLOCK_RECORD
  5
23
100
AcDbSymbolTableRecord
100
AcDbBlockTableRecord
  2
*Paper_Space0
340
26
  0
BLOCK_RECORD
  5
4B
100
AcDbSymbolTableRecord
100
AcDbBlockTableRecord
  2
door60verleft
340
0
  0
BLOCK_RECORD
  5
4C
100
AcDbSymbolTableRecord
100
AcDbBlockTableRecord
  2
door71verleft
340
0
  0
BLOCK_RECORD
  5
4D
100
AcDbSymbolTableRecord
100
AcDbBlockTableRecord
  2
door80verright
340
0
  0
BLOCK_RECORD
  5
4E
100
AcDbSymbolTableRecord
100
AcDbBlockTableRecord
  2
out110hor
340
0
  0
BLOCK_RECORD
  5
4F
100
AcDbSymbolTableRecord
100
AcDbBlockTableRecord
  2
tub-ver
340
0
  0
BLOCK_RECORD
  5
50
100
AcDbSymbolTableRecord
100
AcDbBlockTableRecord
  2
WC-hor-left
340
0
  0
BLOCK_RECORD
  5
51
100
AcDbSymbolTableRecord
100
AcDbBlockTableRecord
  2
out110hor-dwn
340
0
  0
BLOCK_RECORD
  5
52
100
AcDbSymbolTableRecord
100
AcDbBlockTableRecord
  2
standard40
340
0
  0
BLOCK_RECORD
  5
53
100
AcDbSymbolTableRecord
100
AcDbBlockTableRecord
  2
standard40-interiorwall
340
0
  0
BLOCK_RECORD
  5
54
100
AcDbSymbolTableRecord
100
AcDbBlockTableRecord
  2
standard40-outline
340
0
  0
BLOCK_RECORD
  5
55
100
AcDbSymbolTableRecord
100
AcDbBlockTableRecord
  2
KyotoKyomaTatami
340
0
  0
BLOCK_RECORD
  5
56
100
AcDbSymbolTableRecord
100
AcDbBlockTableRecord
  2
KyotoKyomaTatamiHalf
340
0
  0
BLOCK_RECORD
  5
57
100
AcDbSymbolTableRecord
100
AcDbBlockTableRecord
  2
refridge50_60
340
0
  0
BLOCK_RECORD
  5
58
100
AcDbSymbolTableRecord
100
AcDbBlockTableRecord
  2
washer_hor
340
0
  0
BLOCK_RECORD
  5
59
100
AcDbSymbolTableRecord
100
AcDbBlockTableRecord
  2
switch-hor
340
0
  0
ENDTAB
  0
ENDSEC
  0
SECTION
  2
BLOCKS
  0
BLOCK
  5
20
100
AcDbEntity
  8
0
100
AcDbBlockBegin
  2
*Model_Space
 70
0
 10
0.0
 20
0.0
 30
0.0
  3
*Model_Space
  1

  0
ENDBLK
  5
21
100
AcDbEntity
  8
0
100
AcDbBlockEnd
  0
BLOCK
  5
1C
100
AcDbEntity
 67
1
  8
0
100
AcDbBlockBegin
  2
*Paper_Space
 70
0
 10
0.0
 20
0.0
 30
0.0
  3
*Paper_Space
  1

  0
ENDBLK
  5
1D
100
AcDbEntity
 67
1
  8
0
100
AcDbBlockEnd
  0
BLOCK
  5
24
100
AcDbEntity
  8
0
100
AcDbBlockBegin
  2
*Paper_Space0
 70
0
 10
0.0
 20
0.0
 30
0.0
  3
*Paper_Space0
  1

  0
ENDBLK
  5
25
100
AcDbEntity
  8
0
100
AcDbBlockEnd
  0
BLOCK
  5
5A
100
AcDbEntity
  8
0
100
AcDbBlockBegin
  2
door60verleft
 70
0
 10
0.0
 20
0.0
 30
0.0
  3
door60verleft
  1

  0
LINE
  5
5B
100
AcDbEntity
100
AcDbLine
  8
fixtures
 62
6
370
-1
  6
ByLayer
 10
0.0
 20
0.0
 30
0.0
 11
-51.5285115251740962
 21
-29.7500000000000071
 31
0.0
  0
ARC
  5
5C
100
AcDbEntity
  8
fixtures
 62
6
370
-1
  6
ByLayer
100
AcDbCircle
 10
0.0
 20
0.0
 30
0.0
 40
60.0
100
AcDbArc
 50
210.0
 51
270.0
  0
LINE
  5
5D
100
AcDbEntity
100
AcDbLine
  8
fixtures
 62
6
370
-1
  6
ByLayer
 10
2.5
 20
-4.3301270189221981
 30
0.0
 11
-49.0285115251740962
 21
-34.0801270189221981
 31
0.0
  0
LINE
  5
5E
100
AcDbEntity
100
AcDbLine
  8
fixtures
 62
6
370
-1
  6
ByLayer
 10
0.0
 20
0.0
 30
0.0
 11
2.5
 21
-4.3301270189221981
 31
0.0
  0
ENDBLK
  5
5F
100
AcDbEntity
  8
0
100
AcDbBlockEnd
  0
BLOCK
  5
60
100
AcDbEntity
  8
0
100
AcDbBlockBegin
  2
door71verleft
 70
0
 10
0.0
 20
0.0
 30
0.0
  3
door71verleft
  1

  0
LINE
  5
61
100
AcDbEntity
100
AcDbLine
  8
doors
 62
256
370
-1
  6
ByLayer
 10
0.0
 20
0.0
 30
0.0
 11
-61.4878036686951646
 21
-35.5000000000000071
 31
0.0
  0
ARC
  5
62
100
AcDbEntity
  8
doors
 62
256
370
-1
  6
ByLayer
100
AcDbCircle
 10
0.0
 20
0.0
 30
0.0
 40
71.0
100
AcDbArc
 50
210.0
 51
269.9999999999999432
  0
LINE
  5
63
100
AcDbEntity
100
AcDbLine
  8
doors
 62
256
370
-1
  6
ByLayer
 10
2.5
 20
-4.3301270189221981
 30
0.0
 11
-58.9878036686951646
 21
-39.8301270189221981
 31
0.0
  0
LINE
  5
64
100
AcDbEntity
100
AcDbLine
  8
doors
 62
256
370
-1
  6
ByLayer
 10
0.0
 20
0.0
 30
0.0
 11
2.5
 21
-4.3301270189221981
 31
0.0
  0
ENDBLK
  5
65
100
AcDbEntity
  8
0
100
AcDbBlockEnd
  0
BLOCK
  5
66
100
AcDbEntity
  8
0
100
AcDbBlockBegin
  2
door80verright
 70
0
 10
0.0
 20
0.0
 30
0.0
  3
door80verright
  1

  0
LINE
  5
67
100
AcDbEntity
100
AcDbLine
  8
doors
 62
256
370
-1
  6
ByLayer
 10
0.0
 20
0.0
 30
0.0
 11
51.4230087749231188
 21
-61.2835554495182464
 31
0.0
  0
ARC
  5
68
100
AcDbEntity
  8
doors
 62
256
370
-1
  6
ByLayer
100
AcDbCircle
 10
0.0
 20
0.0
 30
0.0
 40
80.0
100
AcDbArc
 50
270.0
 51
309.9999999999999432
  0
LINE
  5
69
100
AcDbEntity
100
AcDbLine
  8
doors
 62
256
370
-1
  6
ByLayer
 10
-3.8302222155948584
 20
-3.2139380484326807
 30
0.0
 11
47.5927865593282604
 21
-64.4974934979509413
 31
0.0
  0
LINE
  5
6A
100
AcDbEntity
100
AcDbLine
  8
doors
 62
256
370
-1
  6
ByLayer
 10
0.0
 20
0.0
 30
0.0
 11
-3.8302222155948584
 21
-3.2139380484326807
 31
0.0
  0
ENDBLK
  5
6B
100
AcDbEntity
  8
0
100
AcDbBlockEnd
  0
BLOCK
  5
6C
100
AcDbEntity
  8
0
100
AcDbBlockBegin
  2
out110hor
 70
0
 10
0.0
 20
0.0
 30
0.0
  3
out110hor
  1

  0
CIRCLE
  5
6D
100
AcDbEntity
100
AcDbCircle
  8
eletrical
 62
256
370
-1
  6
ByLayer
 10
1.923833067930623
 20
9.3156922990824143
 30
0.0
 40
5.0
  0
LINE
  5
6E
100
AcDbEntity
100
AcDbLine
  8
eletrical
 62
256
370
-1
  6
ByLayer
 10
3.628960766971737
 20
0.0
 30
0.0
 11
3.628960766971737
 21
16.1186024643239421
 31
0.0
  0
LINE
  5
6F
100
AcDbEntity
100
AcDbLine
  8
eletrical
 62
256
370
-1
  6
ByLayer
 10
0.0
 20
0.0
 30
0.0
 11
0.0
 21
16.1186024643239421
 31
0.0
  0
ENDBLK
  5
70
100
AcDbEntity
  8
0
100
AcDbBlockEnd
  0
BLOCK
  5
71
100
AcDbEntity
  8
0
100
AcDbBlockBegin
  2
tub-ver
 70
0
 10
0.0
 20
0.0
 30
0.0
  3
tub-ver
  1

  0
ARC
  5
72
100
AcDbEntity
  8
0
 62
3
370
-1
  6
ByLayer
100
AcDbCircle
 10
5.0
 20
0.0
 30
0.0
 40
5.0
100
AcDbArc
 50
90.0
 51
180.0
  0
LINE
  5
73
100
AcDbEntity
100
AcDbLine
  8
0
 62
3
370
-1
  6
ByLayer
 10
5.0
 20
5.0
 30
0.0
 11
53.0000000000000071
 21
5.0
 31
0.0
  0
ARC
  5
74
100
AcDbEntity
  8
0
 62
3
370
-1
  6
ByLayer
100
AcDbCircle
 10
53.0000000000000071
 20
0.0
 30
0.0
 40
5.0
100
AcDbArc
 50
0.0
 51
90.0
  0
LINE
  5
75
100
AcDbEntity
100
AcDbLine
  8
0
 62
3
370
-1
  6
ByLayer
 10
58.0000000000000071
 20
-86.9999999999999858
 30
0.0
 11
58.0000000000000071
 21
0.0
 31
0.0
  0
ARC
  5
76
100
AcDbEntity
  8
0
 62
3
370
-1
  6
ByLayer
100
AcDbCircle
 10
53.0000000000000071
 20
-86.9999999999999858
 30
0.0
 40
5.0
100
AcDbArc
 50
270.0
 51
0.0
  0
LINE
  5
77
100
AcDbEntity
100
AcDbLine
  8
0
 62
3
370
-1
  6
ByLayer
 10
4.9999999999999716
 20
-91.9999999999999858
 30
0.0
 11
53.0000000000000071
 21
-91.9999999999999858
 31
0.0
  0
LINE
  5
78
100
AcDbEntity
100
AcDbLine
  8
0
 62
3
370
-1
  6
ByLayer
 10
-0.0000000000000284
 20
-86.9999999999999858
 30
0.0
 11
0.0
 21
0.0
 31
0.0
  0
ARC
  5
79
100
AcDbEntity
  8
0
 62
3
370
-1
  6
ByLayer
100
AcDbCircle
 10
4.9999999999999716
 20
-86.9999999999999858
 30
0.0
 40
5.0
100
AcDbArc
 50
180.0
 51
270.0
  0
ENDBLK
  5
7A
100
AcDbEntity
  8
0
100
AcDbBlockEnd
  0
BLOCK
  5
7B
100
AcDbEntity
  8
0
100
AcDbBlockBegin
  2
WC-hor-left
 70
0
 10
0.0
 20
0.0
 30
0.0
  3
WC-hor-left
  1

  0
LINE
  5
7C
100
AcDbEntity
100
AcDbLine
  8
fixtures
 62
256
370
-1
  6
ByLayer
 10
0.0
 20
0.0
 30
0.0
 11
20.0
 21
0.0
 31
0.0
  0
LINE
  5
7D
100
AcDbEntity
100
AcDbLine
  8
fixtures
 62
256
370
-1
  6
ByLayer
 10
0.0
 20
0.0
 30
0.0
 11
0.0
 21
47.0
 31
0.0
  0
LINE
  5
7E
100
AcDbEntity
100
AcDbLine
  8
fixtures
 62
256
370
-1
  6
ByLayer
 10
20.0
 20
0.0
 30
0.0
 11
20.0
 21
47.0
 31
0.0
  0
LINE
  5
7F
100
AcDbEntity
100
AcDbLine
  8
fixtures
 62
256
370
-1
  6
ByLayer
 10
0.0
 20
47.0
 30
0.0
 11
20.0
 21
47.0
 31
0.0
  0
ELLIPSE
  5
80
100
AcDbEntity
100
AcDbEllipse
  8
fixtures
 62
256
370
-1
  6
ByLayer
 10
48.383983460600291
 20
22.8898383817995068
 30
0.0
 11
23.8828093948296072
 21
-0.663411372078599
 31
0.0
 40
0.6156515034695453
 41
0.0
 42
6.2831853071795862
  0
MTEXT
  5
81
100
AcDbEntity
100
AcDbMText
  8
text
 62
256
370
-1
  6
ByLayer
 10
80.8402745876098265
 20
8.7561304533611377
 30
0.0
 40
15.0
 41
100.0
 71
1
 72
2
  1
WC
  7
iso
 50
0.0
 73
0
 44
1.0
  0
ENDBLK
  5
82
100
AcDbEntity
  8
0
100
AcDbBlockEnd
  0
BLOCK
  5
83
100
AcDbEntity
  8
0
100
AcDbBlockBegin
  2
out110hor-dwn
 70
0
 10
0.0
 20
0.0
 30
0.0
  3
out110hor-dwn
  1

  0
INSERT
  5
84
100
AcDbEntity
100
AcDbBlockReference
  8
eletrical
 62
256
370
-1
  6
ByLayer
  2
out110hor
 10
0.0
 20
0.0
 30
0.0
 50
180.0
 44
1.0
 45
1.0
  0
ENDBLK
  5
85
100
AcDbEntity
  8
0
100
AcDbBlockEnd
  0
BLOCK
  5
86
100
AcDbEntity
  8
0
100
AcDbBlockBegin
  2
standard40
 70
0
 10
0.0
 20
0.0
 30
0.0
  3
standard40
  1

  0
LINE
  5
87
100
AcDbEntity
100
AcDbLine
  8
0
 62
256
370
-1
  6
ByLayer
 10
0.0
 20
0.0000000000001705
 30
0.0
 11
0.0
 21
244.0000000000001705
 31
0.0
  0
LINE
  5
88
100
AcDbEntity
100
AcDbLine
  8
0
 62
256
370
-1
  6
ByLayer
 10
0.0
 20
243.9999999999999432
 30
0.0
 11
1219.0
 21
243.9999999999999432
 31
0.0
  0
LINE
  5
89
100
AcDbEntity
100
AcDbLine
  8
0
 62
256
370
-1
  6
ByLayer
 10
0.0
 20
0.0
 30
0.0
 11
1219.0
 21
0.0
 31
0.0
  0
LINE
  5
8A
100
AcDbEntity
100
AcDbLine
  8
0
 62
256
370
-1
  6
ByLayer
 10
1219.0
 20
0.0
 30
0.0
 11
1219.0
 21
243.9999999999999432
 31
0.0
  0
LINE
  5
8B
100
AcDbEntity
100
AcDbLine
  8
0
 62
256
370
-1
  6
ByLayer
 10
4.5
 20
239.4999999999999432
 30
0.0
 11
1219.0
 21
239.4999999999999432
 31
0.0
  0
LINE
  5
8C
100
AcDbEntity
100
AcDbLine
  8
0
 62
256
370
-1
  6
ByLayer
 10
4.5
 20
4.5
 30
0.0
 11
1219.0
 21
4.5
 31
0.0
  0
LINE
  5
8D
100
AcDbEntity
100
AcDbLine
  8
0
 62
256
370
-1
  6
ByLayer
 10
4.5
 20
4.5
 30
0.0
 11
4.5
 21
239.4999999999999432
 31
0.0
  0
LINE
  5
8E
100
AcDbEntity
100
AcDbLine
  8
0
 62
256
370
-1
  6
ByLayer
 10
1205.5
 20
4.5
 30
0.0
 11
1205.5
 21
239.4999999999999432
 31
0.0
  0
ENDBLK
  5
8F
100
AcDbEntity
  8
0
100
AcDbBlockEnd
  0
BLOCK
  5
90
100
AcDbEntity
  8
0
100
AcDbBlockBegin
  2
standard40-interiorwall
 70
0
 10
0.0
 20
0.0
 30
0.0
  3
standard40-interiorwall
  1

  0
LINE
  5
91
100
AcDbEntity
100
AcDbLine
  8
0
 62
256
370
-1
  6
ByLayer
 10
0.0
 20
0.0000000000002274
 30
0.0
 11
0.0
 21
244.0000000000002274
 31
0.0
  0
LINE
  5
92
100
AcDbEntity
100
AcDbLine
  8
0
 62
256
370
-1
  6
ByLayer
 10
0.0
 20
244.0
 30
0.0
 11
1219.0
 21
244.0
 31
0.0
  0
LINE
  5
93
100
AcDbEntity
100
AcDbLine
  8
0
 62
256
370
-1
  6
ByLayer
 10
0.0
 20
0.0
 30
0.0
 11
1219.0
 21
0.0
 31
0.0
  0
LINE
  5
94
100
AcDbEntity
100
AcDbLine
  8
0
 62
256
370
-1
  6
ByLayer
 10
1219.0
 20
0.0
 30
0.0
 11
1219.0
 21
244.0
 31
0.0
  0
LINE
  5
95
100
AcDbEntity
100
AcDbLine
  8
0
 62
256
370
-1
  6
ByLayer
 10
9.0
 20
235.0
 30
0.0
 11
1219.0
 21
235.0
 31
0.0
  0
LINE
  5
96
100
AcDbEntity
100
AcDbLine
  8
0
 62
256
370
-1
  6
ByLayer
 10
9.0
 20
9.0
 30
0.0
 11
1219.0
 21
9.0
 31
0.0
  0
LINE
  5
97
100
AcDbEntity
100
AcDbLine
  8
0
 62
256
370
-1
  6
ByLayer
 10
9.0
 20
9.0
 30
0.0
 11
9.0
 21
235.0
 31
0.0
  0
LINE
  5
98
100
AcDbEntity
100
AcDbLine
  8
0
 62
256
370
-1
  6
DASHED
 10
4.5
 20
239.5
 30
0.0
 11
1219.0
 21
239.5
 31
0.0
  0
LINE
  5
99
100
AcDbEntity
100
AcDbLine
  8
0
 62
256
370
-1
  6
DASHED
 10
4.5
 20
4.5
 30
0.0
 11
1219.0
 21
4.5
 31
0.0
  0
LINE
  5
9A
100
AcDbEntity
100
AcDbLine
  8
0
 62
256
370
-1
  6
DASHED
 10
4.5
 20
4.5
 30
0.0
 11
4.5
 21
239.5
 31
0.0
  0
LINE
  5
9B
100
AcDbEntity
100
AcDbLine
  8
0
 62
256
370
-1
  6
ByLayer
 10
1205.5
 20
9.0
 30
0.0
 11
1205.5
 21
235.0
 31
0.0
  0
ENDBLK
  5
9C
100
AcDbEntity
  8
0
100
AcDbBlockEnd
  0
BLOCK
  5
9D
100
AcDbEntity
  8
0
100
AcDbBlockBegin
  2
standard40-outline
 70
0
 10
0.0
 20
0.0
 30
0.0
  3
standard40-outline
  1

  0
LINE
  5
9E
100
AcDbEntity
100
AcDbLine
  8
0
 62
256
370
-1
  6
DASHEDX2
 10
0.0
 20
0.0
 30
0.0
 11
0.0
 21
244.0
 31
0.0
  0
LINE
  5
9F
100
AcDbEntity
100
AcDbLine
  8
0
 62
256
370
-1
  6
DASHEDX2
 10
0.0
 20
243.9999999999997726
 30
0.0
 11
1219.0000000000002274
 21
243.9999999999997726
 31
0.0
  0
LINE
  5
A0
100
AcDbEntity
100
AcDbLine
  8
0
 62
256
370
-1
  6
DASHEDX2
 10
0.0
 20
-0.0000000000002274
 30
0.0
 11
1219.0000000000002274
 21
-0.0000000000002274
 31
0.0
  0
LINE
  5
A1
100
AcDbEntity
100
AcDbLine
  8
0
 62
256
370
-1
  6
DASHEDX2
 10
1219.0000000000002274
 20
-0.0000000000002274
 30
0.0
 11
1219.0000000000002274
 21
243.9999999999997726
 31
0.0
  0
ENDBLK
  5
A2
100
AcDbEntity
  8
0
100
AcDbBlockEnd
  0
BLOCK
  5
A3
100
AcDbEntity
  8
0
100
AcDbBlockBegin
  2
KyotoKyomaTatami
 70
0
 10
0.0
 20
0.0
 30
0.0
  3
KyotoKyomaTatami
  1

  0
LINE
  5
A4
100
AcDbEntity
100
AcDbLine
  8
tatami
 62
256
370
-1
  6
ByLayer
 10
0.0
 20
0.0
 30
0.0
 11
0.0
 21
95.5
 31
0.0
  0
LINE
  5
A5
100
AcDbEntity
100
AcDbLine
  8
tatami
 62
256
370
-1
  6
ByLayer
 10
191.0
 20
0.0
 30
0.0
 11
191.0
 21
95.5
 31
0.0
  0
LINE
  5
A6
100
AcDbEntity
100
AcDbLine
  8
tatami
 62
256
370
-1
  6
ByLayer
 10
0.0
 20
95.5
 30
0.0
 11
191.0
 21
95.5
 31
0.0
  0
LINE
  5
A7
100
AcDbEntity
100
AcDbLine
  8
tatami
 62
256
370
-1
  6
ByLayer
 10
0.0
 20
0.0
 30
0.0
 11
191.0
 21
0.0
 31
0.0
  0
LINE
  5
A8
100
AcDbEntity
100
AcDbLine
  8
tatami
 62
256
370
-1
  6
ByLayer
 10
0.0
 20
93.0
 30
0.0
 11
191.0
 21
93.0
 31
0.0
  0
LINE
  5
A9
100
AcDbEntity
100
AcDbLine
  8
tatami
 62
256
370
-1
  6
ByLayer
 10
188.5
 20
0.0
 30
0.0
 11
188.5
 21
95.5
 31
0.0
  0
LINE
  5
AA
100
AcDbEntity
100
AcDbLine
  8
tatami
 62
256
370
-1
  6
ByLayer
 10
2.5
 20
0.0
 30
0.0
 11
2.5
 21
95.5
 31
0.0
  0
LINE
  5
AB
100
AcDbEntity
100
AcDbLine
  8
tatami
 62
256
370
-1
  6
ByLayer
 10
0.0
 20
2.5
 30
0.0
 11
191.0
 21
2.5
 31
0.0
  0
LINE
  5
AC
100
AcDbEntity
100
AcDbLine
  8
tatami
 62
256
370
-1
  6
ByLayer
 10
95.5
 20
0.0
 30
0.0
 11
95.5
 21
2.5
 31
0.0
  0
LINE
  5
AD
100
AcDbEntity
100
AcDbLine
  8
tatami
 62
256
370
-1
  6
ByLayer
 10
95.5
 20
93.0
 30
0.0
 11
95.5
 21
95.5
 31
0.0
  0
ENDBLK
  5
AE
100
AcDbEntity
  8
0
100
AcDbBlockEnd
  0
BLOCK
  5
AF
100
AcDbEntity
  8
0
100
AcDbBlockBegin
  2
KyotoKyomaTatamiHalf
 70
0
 10
0.0
 20
0.0
 30
0.0
  3
KyotoKyomaTatamiHalf
  1

  0
LINE
  5
B0
100
AcDbEntity
100
AcDbLine
  8
tatami
 62
256
370
-1
  6
ByLayer
 10
0.0
 20
95.5
 30
0.0
 11
95.5
 21
95.5
 31
0.0
  0
LINE
  5
B1
100
AcDbEntity
100
AcDbLine
  8
tatami
 62
256
370
-1
  6
ByLayer
 10
0.0
 20
0.0
 30
0.0
 11
95.5
 21
0.0
 31
0.0
  0
LINE
  5
B2
100
AcDbEntity
100
AcDbLine
  8
tatami
 62
256
370
-1
  6
ByLayer
 10
0.0
 20
0.0
 30
0.0
 11
0.0
 21
95.5
 31
0.0
  0
LINE
  5
B3
100
AcDbEntity
100
AcDbLine
  8
tatami
 62
256
370
-1
  6
ByLayer
 10
95.5
 20
0.0
 30
0.0
 11
95.5
 21
95.5
 31
0.0
  0
LINE
  5
B4
100
AcDbEntity
100
AcDbLine
  8
tatami
 62
256
370
-1
  6
ByLayer
 10
2.5
 20
0.0
 30
0.0
 11
2.5
 21
95.5
 31
0.0
  0
LINE
  5
B5
100
AcDbEntity
100
AcDbLine
  8
tatami
 62
256
370
-1
  6
ByLayer
 10
0.0
 20
93.0
 30
0.0
 11
95.5
 21
93.0
 31
0.0
  0
LINE
  5
B6
100
AcDbEntity
100
AcDbLine
  8
tatami
 62
256
370
-1
  6
ByLayer
 10
93.0
 20
0.0
 30
0.0
 11
93.0
 21
95.5
 31
0.0
  0
LINE
  5
B7
100
AcDbEntity
100
AcDbLine
  8
tatami
 62
256
370
-1
  6
ByLayer
 10
0.0
 20
2.5
 30
0.0
 11
95.5
 21
2.5
 31
0.0
  0
ENDBLK
  5
B8
100
AcDbEntity
  8
0
100
AcDbBlockEnd
  0
BLOCK
  5
B9
100
AcDbEntity
  8
0
100
AcDbBlockBegin
  2
refridge50_60
 70
0
 10
0.0
 20
0.0
 30
0.0
  3
refridge50_60
  1

  0
LINE
  5
BA
100
AcDbEntity
100
AcDbLine
  8
fixtures
 62
256
370
-1
  6
ByLayer
 10
0.0
 20
0.0
 30
0.0
 11
0.0
 21
55.0
 31
0.0
  0
LINE
  5
BB
100
AcDbEntity
100
AcDbLine
  8
fixtures
 62
256
370
-1
  6
ByLayer
 10
60.0
 20
0.0
 30
0.0
 11
60.0
 21
55.0
 31
0.0
  0
LINE
  5
BC
100
AcDbEntity
100
AcDbLine
  8
fixtures
 62
256
370
-1
  6
ByLayer
 10
0.0
 20
50.0
 30
0.0
 11
60.0
 21
50.0
 31
0.0
  0
LINE
  5
BD
100
AcDbEntity
100
AcDbLine
  8
fixtures
 62
256
370
-1
  6
ByLayer
 10
0.0
 20
0.0
 30
0.0
 11
60.0
 21
0.0
 31
0.0
  0
ARC
  5
BE
100
AcDbEntity
  8
fixtures
 62
256
370
-1
  6
ByLayer
100
AcDbCircle
 10
29.9999999999998863
 20
-68.969221137215186
 30
0.0
 40
127.5475118901492664
100
AcDbArc
 50
76.3962062313950128
 51
103.6037937686048878
  0
LINE
  5
BF
100
AcDbEntity
100
AcDbLine
  8
fixtures
 62
256
370
-1
  6
ByLayer
 10
0.0
 20
51.0
 30
0.0
 11
60.0
 21
51.0
 31
0.0
  0
MTEXT
  5
C0
100
AcDbEntity
100
AcDbMText
  8
fixtures
 62
256
370
-1
  6
ByLayer
 10
2.4027917902074023
 20
26.6901409431941374
 30
0.0
 40
20.0
 41
100.0
 71
4
 72
2
  1
Refr
  7
iso
 50
0.0
 73
1
 44
1.0
  0
ENDBLK
  5
C1
100
AcDbEntity
  8
0
100
AcDbBlockEnd
  0
BLOCK
  5
C2
100
AcDbEntity
  8
0
100
AcDbBlockBegin
  2
washer_hor
 70
0
 10
0.0
 20
0.0
 30
0.0
  3
washer_hor
  1

  0
LINE
  5
C3
100
AcDbEntity
100
AcDbLine
  8
fixtures
 62
256
370
-1
  6
ByLayer
 10
52.0
 20
0.0
 30
0.0
 11
52.0
 21
55.0
 31
0.0
  0
LINE
  5
C4
100
AcDbEntity
100
AcDbLine
  8
fixtures
 62
256
370
-1
  6
ByLayer
 10
0.0
 20
0.0
 30
0.0
 11
0.0
 21
55.0
 31
0.0
  0
LINE
  5
C5
100
AcDbEntity
100
AcDbLine
  8
fixtures
 62
256
370
-1
  6
ByLayer
 10
0.0
 20
55.0
 30
0.0
 11
52.0
 21
55.0
 31
0.0
  0
LINE
  5
C6
100
AcDbEntity
100
AcDbLine
  8
fixtures
 62
256
370
-1
  6
ByLayer
 10
0.0
 20
0.0
 30
0.0
 11
52.0
 21
0.0
 31
0.0
  0
CIRCLE
  5
C7
100
AcDbEntity
100
AcDbCircle
  8
fixtures
 62
256
370
-1
  6
ByLayer
 10
26.0
 20
27.5
 30
0.0
 40
19.0247494489576567
  0
LINE
  5
C8
100
AcDbEntity
100
AcDbLine
  8
fixtures
 62
256
370
-1
  6
ByLayer
 10
0.0
 20
5.0
 30
0.0
 11
52.0
 21
5.0
 31
0.0
  0
ENDBLK
  5
C9
100
AcDbEntity
  8
0
100
AcDbBlockEnd
  0
BLOCK
  5
CA
100
AcDbEntity
  8
0
100
AcDbBlockBegin
  2
switch-hor
 70
0
 10
0.0
 20
0.0
 30
0.0
  3
switch-hor
  1

  0
MTEXT
  5
CB
100
AcDbEntity
100
AcDbMText
  8
eletrical
 62
256
370
-1
  6
ByLayer
 10
-4.1474881859601034
 20
12.4289303324727598
 30
0.0
 40
15.0
 41
100.0
 71
4
 72
2
  1
S
  7
iso
 50
0.0
 73
1
 44
1.0
  0
LINE
  5
CC
100
AcDbEntity
100
AcDbLine
  8
eletrical
 62
256
370
-1
  6
ByLayer
 10
0.0
 20
0.0
 30
0.0
 11
0.0
 21
24.709756538595343
 31
0.0
  0
ENDBLK
  5
CD
100
AcDbEntity
  8
0
100
AcDbBlockEnd
  0
ENDSEC
  0
SECTION
  2
ENTITIES
  0
LINE
  5
CE
100
AcDbEntity
100
AcDbLine
  8
0
 62
256
370
-1
  6
ByLayer
 10
1815.7371945601144034
 20
-230.1490923077745947
 30
0.0
 11
2059.7371945601144034
 21
-230.1490923077745947
 31
0.0
  0
LINE
  5
CF
100
AcDbEntity
100
AcDbLine
  8
0
 62
256
370
-1
  6
ByLayer
 10
2179.7371945601144034
 20
-230.1490923077745947
 30
0.0
 11
2423.7371945601134939
 21
-230.1490923077750494
 31
0.0
  0
LINE
  5
D0
100
AcDbEntity
100
AcDbLine
  8
0
 62
256
370
-1
  6
ByLayer
 10
1815.7371945601144034
 20
28.8509076922254053
 30
0.0
 11
2059.7371945601144034
 21
28.8509076922254053
 31
0.0
  0
LINE
  5
D1
100
AcDbEntity
100
AcDbLine
  8
0
 62
256
370
-1
  6
ByLayer
 10
1815.7371945601144034
 20
28.8509076922254053
 30
0.0
 11
2059.7371945601144034
 21
28.8509076922254053
 31
0.0
  0
LINE
  5
D2
100
AcDbEntity
100
AcDbLine
  8
0
 62
256
370
-1
  6
ByLayer
 10
2179.7371945601144034
 20
28.8509076922254053
 30
0.0
 11
2423.7371945601134939
 21
28.8509076922254053
 31
0.0
  0
LINE
  5
D3
100
AcDbEntity
100
AcDbLine
  8
0
 62
256
370
-1
  6
ByLayer
 10
1815.7371945601144034
 20
-230.1490923077745947
 30
0.0
 11
1815.7371945601144034
 21
28.8509076922254053
 31
0.0
  0
LINE
  5
D4
100
AcDbEntity
100
AcDbLine
  8
0
 62
256
370
-1
  6
ByLayer
 10
2059.7371945601144034
 20
-230.1490923077745947
 30
0.0
 11
2059.7371945601144034
 21
28.8509076922254053
 31
0.0
  0
LINE
  5
D5
100
AcDbEntity
100
AcDbLine
  8
0
 62
256
370
-1
  6
ByLayer
 10
2179.7371945601144034
 20
-230.1490923077745947
 30
0.0
 11
2179.7371945601144034
 21
28.8509076922254053
 31
0.0
  0
LINE
  5
D6
100
AcDbEntity
100
AcDbLine
  8
0
 62
256
370
-1
  6
ByLayer
 10
2423.7371945601134939
 20
-230.1490923077745947
 30
0.0
 11
2423.7371945601134939
 21
28.8509076922254053
 31
0.0
  0
LINE
  5
D7
100
AcDbEntity
100
AcDbLine
  8
deck
 62
256
370
-1
  6
ByLayer
 10
1695.7371945601153129
 20
-250.1490923077745947
 30
0.0
 11
2543.7371945601144034
 21
-250.1490923077745947
 31
0.0
  0
LINE
  5
D8
100
AcDbEntity
100
AcDbLine
  8
deck
 62
256
370
-1
  6
ByLayer
 10
1695.7371945601153129
 20
-270.1490923077745947
 30
0.0
 11
2543.7371945601144034
 21
-270.1490923077745947
 31
0.0
  0
LINE
  5
D9
100
AcDbEntity
100
AcDbLine
  8
deck
 62
256
370
-1
  6
ByLayer
 10
1695.7371945601153129
 20
-290.1490923077745947
 30
0.0
 11
2543.7371945601144034
 21
-290.1490923077745947
 31
0.0
  0
POINT
  5
DA
100
AcDbEntity
100
AcDbPoint
  8
bogus
 62
256
370
-1
  6
ByLayer
 10
1695.7371945601153129
 20
-19.425499710104873
 30
0.0
  0
LINE
  5
DB
100
AcDbEntity
100
AcDbLine
  8
deck
 62
256
370
-1
  6
ByLayer
 10
1746.72381339847243
 20
28.8509076922254053
 30
0.0
 11
2492.7505757217559221
 21
28.8509076922254053
 31
0.0
  0
LINE
  5
DC
100
AcDbEntity
100
AcDbLine
  8
deck
 62
256
370
-1
  6
ByLayer
 10
1778.7305039792931893
 20
48.8509076922254053
 30
0.0
 11
2460.7438851409351628
 21
48.8509076922254053
 31
0.0
  0
LINE
  5
DD
100
AcDbEntity
100
AcDbLine
  8
deck
 62
256
370
-1
  6
ByLayer
 10
1645.7371945601153129
 20
-10.6689673055710728
 30
0.0
 11
2119.7371945601144034
 21
285.519105499449438
 31
0.0
  0
LINE
  5
DE
100
AcDbEntity
100
AcDbLine
  8
deck
 62
256
370
-1
  6
ByLayer
 10
1645.7371945601153129
 20
-34.2525353728129858
 30
0.0
 11
2119.7371945601144034
 21
261.9355374322075249
 31
0.0
  0
LINE
  5
DF
100
AcDbEntity
100
AcDbLine
  8
deck
 62
256
370
-1
  6
ByLayer
 10
2119.7371945601144034
 20
261.9355374322072976
 30
0.0
 11
2593.7371945601144034
 21
-34.2525353728141226
 31
0.0
  0
LINE
  5
E0
100
AcDbEntity
100
AcDbLine
  8
deck
 62
256
370
-1
  6
ByLayer
 10
2119.7371945601144034
 20
285.5191054994492106
 30
0.0
 11
2593.7371945601144034
 21
-10.6689673055722096
 31
0.0
  0
LWPOLYLINE
  5
E1
  8
deck
 62
256
370
-1
  6
ByLayer
100
AcDbEntity
100
AcDbPolyline
 90
680
 70
0
 10
1622.7166157176698107
 20
-298.0366367536445296
 10
1624.7906310381681578
 20
-298.0366367536445296
 10
1625.8276386984175588
 20
-298.0366367536445296
 10
1626.8646463586669597
 20
-298.0366367536445296
 10
1628.9386616791657616
 20
-298.0366367536445296
 10
1631.0126769996641087
 20
-298.0366367536445296
 10
1632.0496846599135097
 20
-298.0366367536445296
 10
1633.0866923201629106
 20
-298.0366367536445296
 10
1635.1607076406617125
 20
-298.0366367536445296
 10
1637.2347229611600596
 20
-298.0366367536445296
 10
1638.2717306214094606
 20
-298.0366367536445296
 10
1640.3457459419082625
 20
-298.0366367536445296
 10
1642.4197612624066096
 20
-298.0366367536445296
 10
1643.4567689226560105
 20
-298.0366367536445296
 10
1644.4937765829054115
 20
-298.0366367536445296
 10
1645.5307842431548124
 20
-300.1106520741433314
 10
1647.6047995636536143
 20
-300.1106520741433314
 10
1648.6418072239025605
 20
-300.1106520741433314
 10
1649.6788148841519615
 20
-300.1106520741433314
 10
1650.7158225444013624
 20
-300.1106520741433314
 10
1651.7528302046507633
 20
-300.1106520741433314
 10
1652.7898378649001643
 20
-300.1106520741433314
 10
1653.8268455251491105
 20
-300.1106520741433314
 10
1654.8638531853985114
 20
-301.147659734392505
 10
1655.9008608456479124
 20
-301.147659734392505
 10
1656.9378685058973133
 20
-301.147659734392505
 10
1657.9748761661467142
 20
-301.147659734392505
 10
1659.0118838263961152
 20
-301.147659734392505
 10
1660.0488914866450614
 20
-301.147659734392505
 10
1661.0858991468944623
 20
-301.147659734392505
 10
1663.1599144673932642
 20
-301.147659734392505
 10
1663.1599144673932642
 20
-302.184667394641906
 10
1664.1969221276426651
 20
-302.184667394641906
 10
1665.2339297878920661
 20
-302.184667394641906
 10
1666.2709374481410123
 20
-302.184667394641906
 10
1667.3079451083904132
 20
-302.184667394641906
 10
1668.3449527686398142
 20
-303.2216750548913069
 10
1669.3819604288892151
 20
-303.2216750548913069
 10
1670.4189680891386161
 20
-303.2216750548913069
 10
1672.4929834096369632
 20
-303.2216750548913069
 10
1673.5299910698863641
 20
-304.2586827151404805
 10
1674.5669987301357651
 20
-304.2586827151404805
 10
1677.6780217108839679
 20
-305.2956903753898814
 10
1679.752037031382315
 20
-305.2956903753898814
 10
1681.8260523518811169
 20
-305.2956903753898814
 10
1684.937075332628865
 20
-305.2956903753898814
 10
1688.0480983133770678
 20
-305.2956903753898814
 10
1689.0851059736264688
 20
-306.3326980356392824
 10
1691.1591212941248159
 20
-306.3326980356392824
 10
1692.1961289543742168
 20
-306.3326980356392824
 10
1693.2331366146236178
 20
-306.3326980356392824
 10
1694.2701442748730187
 20
-306.3326980356392824
 10
1695.3071519351224197
 20
-306.3326980356392824
 10
1696.3441595953718206
 20
-306.3326980356392824
 10
1697.3811672556207668
 20
-306.3326980356392824
 10
1698.4181749158701678
 20
-306.3326980356392824
 10
1699.4551825761195687
 20
-306.3326980356392824
 10
1700.4921902363689696
 20
-306.3326980356392824
 10
1701.5291978966183706
 20
-306.3326980356392824
 10
1702.5662055568677715
 20
-306.3326980356392824
 10
1703.6032132171167177
 20
-306.3326980356392824
 10
1704.6402208773661187
 20
-306.3326980356392824
 10
1705.6772285376155196
 20
-306.3326980356392824
 10
1706.7142361978649205
 20
-306.3326980356392824
 10
1707.7512438581143215
 20
-306.3326980356392824
 10
1708.7882515183637224
 20
-306.3326980356392824
 10
1709.8252591786126686
 20
-306.3326980356392824
 10
1709.8252591786126686
 20
-304.2586827151404805
 10
1710.8622668388620696
 20
-304.2586827151404805
 10
1711.8992744991114705
 20
-304.2586827151404805
 10
1712.9362821593608714
 20
-303.2216750548913069
 10
1713.9732898196102724
 20
-303.2216750548913069
 10
1715.0102974798596733
 20
-303.2216750548913069
 10
1716.0473051401086195
 20
-302.184667394641906
 10
1717.0843128003580205
 20
-302.184667394641906
 10
1718.1213204606074214
 20
-302.184667394641906
 10
1719.1583281208568224
 20
-302.184667394641906
 10
1719.1583281208568224
 20
-301.147659734392505
 10
1721.2323434413556242
 20
-301.147659734392505
 10
1722.2693511016045704
 20
-301.147659734392505
 10
1723.3063587618539714
 20
-300.1106520741433314
 10
1724.3433664221033723
 20
-300.1106520741433314
 10
1725.3803740823527733
 20
-300.1106520741433314
 10
1726.4173817426021742
 20
-300.1106520741433314
 10
1727.4543894028515751
 20
-300.1106520741433314
 10
1729.5284047233499223
 20
-300.1106520741433314
 10
1730.5654123835993232
 20
-300.1106520741433314
 10
1731.6024200438487242
 20
-299.0736444138939305
 10
1732.6394277040981251
 20
-299.0736444138939305
 10
1733.676435364347526
 20
-299.0736444138939305
 10
1734.7134430245964722
 20
-299.0736444138939305
 10
1735.7504506848458732
 20
-299.0736444138939305
 10
1736.7874583450952741
 20
-299.0736444138939305
 10
1737.8244660053446751
 20
-299.0736444138939305
 10
1738.861473665594076
 20
-299.0736444138939305
 10
1739.898481325843477
 20
-299.0736444138939305
 10
1740.9354889860924231
 20
-299.0736444138939305
 10
1741.9724966463418241
 20
-299.0736444138939305
 10
1743.009504306591225
 20
-299.0736444138939305
 10
1744.046511966840626
 20
-299.0736444138939305
 10
1745.0835196270900269
 20
-299.0736444138939305
 10
1746.1205272873394279
 20
-299.0736444138939305
 10
1747.1575349475883741
 20
-299.0736444138939305
 10
1749.2315502680871759
 20
-299.0736444138939305
 10
1751.3055655885859778
 20
-299.0736444138939305
 10
1752.3425732488353788
 20
-301.147659734392505
 10
1753.379580909084325
 20
-301.147659734392505
 10
1754.4165885693337259
 20
-301.147659734392505
 10
1755.4535962295831268
 20
-302.184667394641906
 10
1756.4906038898325278
 20
-302.184667394641906
 10
1758.5646192103308749
 20
-302.184667394641906
 10
1759.6016268705802759
 20
-302.184667394641906
 10
1760.6386345308296768
 20
-302.184667394641906
 10
1761.6756421910790777
 20
-302.184667394641906
 10
1762.7126498513284787
 20
-302.184667394641906
 10
1763.7496575115778796
 20
-302.184667394641906
 10
1764.7866651718268258
 20
-302.184667394641906
 10
1765.8236728320762268
 20
-303.2216750548913069
 10
1766.8606804923256277
 20
-303.2216750548913069
 10
1767.8976881525750287
 20
-303.2216750548913069
 10
1768.9346958128244296
 20
-303.2216750548913069
 10
1769.9717034730738305
 20
-303.2216750548913069
 10
1771.0087111333227767
 20
-304.2586827151404805
 10
1772.0457187935721777
 20
-304.2586827151404805
 10
1773.0827264538215786
 20
-304.2586827151404805
 10
1775.1567417743203805
 20
-304.2586827151404805
 10
1776.1937494345697814
 20
-304.2586827151404805
 10
1777.2307570948187276
 20
-304.2586827151404805
 10
1778.2677647550681286
 20
-304.2586827151404805
 10
1779.3047724153175295
 20
-304.2586827151404805
 10
1780.3417800755669305
 20
-304.2586827151404805
 10
1782.4157953960657323
 20
-304.2586827151404805
 10
1783.4528030563146785
 20
-304.2586827151404805
 10
1784.4898107165640795
 20
-304.2586827151404805
 10
1785.5268183768134804
 20
-304.2586827151404805
 10
1787.6008336973122823
 20
-304.2586827151404805
 10
1788.6378413575616833
 20
-305.2956903753898814
 10
1789.6748490178106294
 20
-305.2956903753898814
 10
1790.7118566780600304
 20
-305.2956903753898814
 10
1791.7488643383094313
 20
-305.2956903753898814
 10
1792.7858719985588323
 20
-305.2956903753898814
 10
1793.8228796588082332
 20
-305.2956903753898814
 10
1794.8598873190576342
 20
-305.2956903753898814
 10
1795.8968949793065804
 20
-305.2956903753898814
 10
1796.9339026395559813
 20
-305.2956903753898814
 10
1797.9709102998053822
 20
-305.2956903753898814
 10
1799.0079179600547832
 20
-305.2956903753898814
 10
1800.0449256203041841
 20
-305.2956903753898814
 10
1801.0819332805535851
 20
-305.2956903753898814
 10
1802.1189409408025313
 20
-305.2956903753898814
 10
1803.1559486010519322
 20
-305.2956903753898814
 10
1804.1929562613013331
 20
-305.2956903753898814
 10
1804.1929562613013331
 20
-303.2216750548913069
 10
1805.2299639215507341
 20
-303.2216750548913069
 10
1806.266971581800135
 20
-303.2216750548913069
 10
1807.303979242049536
 20
-303.2216750548913069
 10
1809.3779945625478831
 20
-303.2216750548913069
 10
1811.452009883046685
 20
-303.2216750548913069
 10
1812.4890175432960859
 20
-302.184667394641906
 10
1813.5260252035454869
 20
-302.184667394641906
 10
1814.5630328637944331
 20
-302.184667394641906
 10
1815.600040524043834
 20
-302.184667394641906
 10
1816.637048184293235
 20
-302.184667394641906
 10
1818.7110635047920368
 20
-302.184667394641906
 10
1820.785078825290384
 20
-302.184667394641906
 10
1822.8590941457891859
 20
-304.2586827151404805
 10
1825.9701171265373887
 20
-304.2586827151404805
 10
1827.0071247867863349
 20
-304.2586827151404805
 10
1828.0441324470357358
 20
-304.2586827151404805
 10
1829.0811401072851368
 20
-304.2586827151404805
 10
1830.1181477675345377
 20
-304.2586827151404805
 10
1831.1551554277839386
 20
-304.2586827151404805
 10
1832.1921630880333396
 20
-304.2586827151404805
 10
1833.2291707482822858
 20
-304.2586827151404805
 10
1835.3031860687810877
 20
-304.2586827151404805
 10
1836.3401937290304886
 20
-304.2586827151404805
 10
1837.3772013892798896
 20
-304.2586827151404805
 10
1838.4142090495292905
 20
-304.2586827151404805
 10
1839.4512167097782367
 20
-304.2586827151404805
 10
1840.4882243700276376
 20
-304.2586827151404805
 10
1841.5252320302770386
 20
-304.2586827151404805
 10
1841.5252320302770386
 20
-302.184667394641906
 10
1842.5622396905264395
 20
-302.184667394641906
 10
1843.5992473507758405
 20
-302.184667394641906
 10
1844.6362550110252414
 20
-302.184667394641906
 10
1845.6732626712741876
 20
-302.184667394641906
 10
1845.6732626712741876
 20
-301.147659734392505
 10
1846.7102703315235885
 20
-301.147659734392505
 10
1847.7472779917729895
 20
-301.147659734392505
 10
1848.7842856520223904
 20
-300.1106520741433314
 10
1849.8212933122717914
 20
-300.1106520741433314
 10
1850.8583009725211923
 20
-300.1106520741433314
 10
1851.8953086327701385
 20
-300.1106520741433314
 10
1852.9323162930195394
 20
-300.1106520741433314
 10
1853.9693239532689404
 20
-300.1106520741433314
 10
1855.0063316135183413
 20
-300.1106520741433314
 10
1858.1173545942660894
 20
-300.1106520741433314
 10
1859.1543622545154903
 20
-300.1106520741433314
 10
1861.2283775750142922
 20
-300.1106520741433314
 10
1864.3394005557620403
 20
-299.0736444138939305
 10
1866.4134158762608422
 20
-299.0736444138939305
 10
1868.4874311967596441
 20
-299.0736444138939305
 10
1871.5984541775073922
 20
-299.0736444138939305
 10
1874.709477158255595
 20
-299.0736444138939305
 10
1876.7834924787539421
 20
-299.0736444138939305
 10
1879.8945154595021449
 20
-299.0736444138939305
 10
1881.9685307800004921
 20
-299.0736444138939305
 10
1885.0795537607486949
 20
-299.0736444138939305
 10
1888.190576741496443
 20
-301.147659734392505
 10
1891.3015997222446458
 20
-301.147659734392505
 10
1897.5236456837405967
 20
-302.184667394641906
 10
1899.5976610042393986
 20
-302.184667394641906
 10
1904.7826993054859486
 20
-302.184667394641906
 10
1905.8197069657353495
 20
-302.184667394641906
 10
1906.8567146259842957
 20
-303.2216750548913069
 10
1907.8937222862336967
 20
-303.2216750548913069
 10
1908.9307299464830976
 20
-303.2216750548913069
 10
1909.9677376067324985
 20
-303.2216750548913069
 10
1911.0047452669818995
 20
-303.2216750548913069
 10
1912.0417529272313004
 20
-303.2216750548913069
 10
1913.0787605874802466
 20
-303.2216750548913069
 10
1914.1157682477296476
 20
-303.2216750548913069
 10
1916.1897835682284494
 20
-303.2216750548913069
 10
1917.2267912284778504
 20
-303.2216750548913069
 10
1918.2637988887272513
 20
-304.2586827151404805
 10
1919.3008065489761975
 20
-304.2586827151404805
 10
1920.3378142092255985
 20
-304.2586827151404805
 10
1921.3748218694749994
 20
-305.2956903753898814
 10
1922.4118295297244003
 20
-305.2956903753898814
 10
1923.4488371899738013
 20
-305.2956903753898814
 10
1924.4858448502232022
 20
-306.3326980356392824
 10
1926.5598601707215494
 20
-306.3326980356392824
 10
1927.5968678309709503
 20
-306.3326980356392824
 10
1928.6338754912203513
 20
-306.3326980356392824
 10
1931.7448984719680993
 20
-306.3326980356392824
 10
1934.8559214527163022
 20
-306.3326980356392824
 10
1936.929936773215104
 20
-306.3326980356392824
 10
1939.0039520937134512
 20
-306.3326980356392824
 10
1942.114975074461654
 20
-306.3326980356392824
 10
1944.1889903949600011
 20
-307.3697056958884559
 10
1945.2259980552094021
 20
-307.3697056958884559
 10
1946.263005715458803
 20
-307.3697056958884559
 10
1947.300013375708204
 20
-307.3697056958884559
 10
1948.3370210359576049
 20
-307.3697056958884559
 10
1949.3740286962070059
 20
-307.3697056958884559
 10
1950.411036356455952
 20
-307.3697056958884559
 10
1951.448044016705353
 20
-307.3697056958884559
 10
1952.4850516769547539
 20
-307.3697056958884559
 10
1953.5220593372041549
 20
-307.3697056958884559
 10
1955.5960746577029568
 20
-307.3697056958884559
 10
1956.633082317951903
 20
-307.3697056958884559
 10
1957.6700899782013039
 20
-307.3697056958884559
 10
1958.7070976384507048
 20
-307.3697056958884559
 10
1959.7441052987001058
 20
-307.3697056958884559
 10
1961.8181206191984529
 20
-307.3697056958884559
 10
1962.8551282794478539
 20
-307.3697056958884559
 10
1963.8921359396972548
 20
-307.3697056958884559
 10
1964.9291435999466557
 20
-307.3697056958884559
 10
1965.9661512601960567
 20
-307.3697056958884559
 10
1967.0031589204454576
 20
-307.3697056958884559
 10
1968.0401665806944038
 20
-307.3697056958884559
 10
1969.0771742409438048
 20
-307.3697056958884559
 10
1970.1141819011932057
 20
-307.3697056958884559
 10
1971.1511895614426066
 20
-307.3697056958884559
 10
1972.1881972216920076
 20
-307.3697056958884559
 10
1973.2252048819414085
 20
-307.3697056958884559
 10
1975.2992202024397557
 20
-307.3697056958884559
 10
1977.3732355229385576
 20
-307.3697056958884559
 10
1980.4842585036863056
 20
-307.3697056958884559
 10
1982.5582738241851075
 20
-307.3697056958884559
 10
1985.6692968049333103
 20
-307.3697056958884559
 10
1987.7433121254316575
 20
-307.3697056958884559
 10
1989.8173274459304594
 20
-307.3697056958884559
 10
1991.8913427664292612
 20
-307.3697056958884559
 10
1995.0023657471770093
 20
-307.3697056958884559
 10
1998.1133887279252122
 20
-307.3697056958884559
 10
2000.1874040484235593
 20
-307.3697056958884559
 10
2003.2984270291717621
 20
-307.3697056958884559
 10
2005.3724423496701093
 20
-307.3697056958884559
 10
2007.4464576701689111
 20
-307.3697056958884559
 10
2009.520472990667713
 20
-307.3697056958884559
 10
2010.557480650917114
 20
-307.3697056958884559
 10
2011.5944883111660602
 20
-307.3697056958884559
 10
2013.668503631664862
 20
-307.3697056958884559
 10
2014.705511291914263
 20
-307.3697056958884559
 10
2015.7425189521636639
 20
-307.3697056958884559
 10
2016.7795266124130649
 20
-307.3697056958884559
 10
2017.8165342726620111
 20
-307.3697056958884559
 10
2019.8905495931608129
 20
-307.3697056958884559
 10
2021.9645649136596148
 20
-307.3697056958884559
 10
2023.0015725739090158
 20
-307.3697056958884559
 10
2025.0755878944073629
 20
-307.3697056958884559
 10
2026.1125955546567639
 20
-307.3697056958884559
 10
2028.1866108751555657
 20
-307.3697056958884559
 10
2029.2236185354049667
 20
-307.3697056958884559
 10
2030.2606261956539129
 20
-307.3697056958884559
 10
2031.2976338559033138
 20
-307.3697056958884559
 10
2032.3346415161527148
 20
-307.3697056958884559
 10
2033.3716491764021157
 20
-307.3697056958884559
 10
2034.4086568366515166
 20
-307.3697056958884559
 10
2035.4456644969009176
 20
-307.3697056958884559
 10
2036.4826721571498638
 20
-307.3697056958884559
 10
2037.5196798173992647
 20
-307.3697056958884559
 10
2039.5936951378980666
 20
-307.3697056958884559
 10
2042.7047181186458147
 20
-307.3697056958884559
 10
2044.7787334391446166
 20
-307.3697056958884559
 10
2047.8897564198928194
 20
-307.3697056958884559
 10
2051.0007794006405675
 20
-307.3697056958884559
 10
2054.1118023813887703
 20
-307.3697056958884559
 10
2056.1858177018871174
 20
-307.3697056958884559
 10
2059.2968406826353203
 20
-307.3697056958884559
 10
2061.3708560031336674
 20
-307.3697056958884559
 10
2065.5188866441312712
 20
-307.3697056958884559
 10
2068.6299096248790192
 20
-307.3697056958884559
 10
2070.7039249453778211
 20
-307.3697056958884559
 10
2072.7779402658761683
 20
-307.3697056958884559
 10
2074.8519555863749702
 20
-307.3697056958884559
 10
2076.925970906873772
 20
-307.3697056958884559
 10
2078.9999862273721192
 20
-307.3697056958884559
 10
2081.0740015478709211
 20
-307.3697056958884559
 10
2083.1480168683697229
 20
-307.3697056958884559
 10
2086.259039849117471
 20
-307.3697056958884559
 10
2088.3330551696162729
 20
-307.3697056958884559
 10
2091.444078150364021
 20
-307.3697056958884559
 10
2092.4810858106134219
 20
-307.3697056958884559
 10
2094.5551011311122238
 20
-307.3697056958884559
 10
2095.5921087913616248
 20
-307.3697056958884559
 10
2097.6661241118599719
 20
-307.3697056958884559
 10
2098.7031317721093728
 20
-307.3697056958884559
 10
2100.7771470926081747
 20
-308.4067133561378569
 10
2101.8141547528575757
 20
-308.4067133561378569
 10
2102.8511624131069766
 20
-308.4067133561378569
 10
2103.8881700733559228
 20
-308.4067133561378569
 10
2104.9251777336053237
 20
-308.4067133561378569
 10
2105.9621853938547247
 20
-308.4067133561378569
 10
2106.9991930541041256
 20
-308.4067133561378569
 10
2108.0362007143535266
 20
-308.4067133561378569
 10
2109.0732083746029275
 20
-308.4067133561378569
 10
2110.1102160348518737
 20
-308.4067133561378569
 10
2111.1472236951012746
 20
-308.4067133561378569
 10
2112.1842313553506756
 20
-308.4067133561378569
 10
2114.2582466758494775
 20
-308.4067133561378569
 10
2116.3322619963478246
 20
-308.4067133561378569
 10
2118.4062773168466265
 20
-308.4067133561378569
 10
2120.4802926373454284
 20
-308.4067133561378569
 10
2122.5543079578437755
 20
-308.4067133561378569
 10
2123.5913156180931765
 20
-308.4067133561378569
 10
2124.6283232783425774
 20
-308.4067133561378569
 10
2126.7023385988413793
 20
-308.4067133561378569
 10
2127.7393462590907802
 20
-308.4067133561378569
 10
2128.7763539193397264
 20
-308.4067133561378569
 10
2130.8503692398385283
 20
-308.4067133561378569
 10
2133.9613922205867311
 20
-308.4067133561378569
 10
2136.0354075410850783
 20
-308.4067133561378569
 10
2140.183438182082682
 20
-306.3326980356392824
 10
2144.3314688230798311
 20
-306.3326980356392824
 10
2147.4424918038275791
 20
-306.3326980356392824
 10
2149.516507124326381
 20
-306.3326980356392824
 10
2152.6275301050745838
 20
-306.3326980356392824
 10
2155.7385530858223319
 20
-305.2956903753898814
 10
2158.8495760665705347
 20
-305.2956903753898814
 10
2160.9235913870688819
 20
-305.2956903753898814
 10
2162.9976067075676838
 20
-305.2956903753898814
 10
2165.0716220280660309
 20
-305.2956903753898814
 10
2166.1086296883154318
 20
-305.2956903753898814
 10
2168.1826450088142337
 20
-304.2586827151404805
 10
2169.2196526690636347
 20
-304.2586827151404805
 10
2170.2566603293130356
 20
-304.2586827151404805
 10
2171.2936679895619818
 20
-304.2586827151404805
 10
2173.3676833100607837
 20
-304.2586827151404805
 10
2174.4046909703101846
 20
-303.2216750548913069
 10
2175.4416986305595856
 20
-303.2216750548913069
 10
2176.4787062908089865
 20
-303.2216750548913069
 10
2178.5527216113073337
 20
-303.2216750548913069
 10
2180.6267369318061355
 20
-303.2216750548913069
 10
2181.6637445920555365
 20
-303.2216750548913069
 10
2182.7007522523049374
 20
-303.2216750548913069
 10
2184.7747675728032846
 20
-303.2216750548913069
 10
2185.8117752330526855
 20
-303.2216750548913069
 10
2186.8487828933020864
 20
-303.2216750548913069
 10
2188.9227982138008883
 20
-303.2216750548913069
 10
2190.9968135342992355
 20
-303.2216750548913069
 10
2192.0338211945486364
 20
-303.2216750548913069
 10
2194.1078365150474383
 20
-303.2216750548913069
 10
2196.1818518355457854
 20
-303.2216750548913069
 10
2199.2928748162939883
 20
-303.2216750548913069
 10
2200.3298824765433892
 20
-303.2216750548913069
 10
2202.4038977970417363
 20
-303.2216750548913069
 10
2207.5889360982887411
 20
-303.2216750548913069
 10
2211.7369667392858901
 20
-303.2216750548913069
 10
2213.810982059784692
 20
-303.2216750548913069
 10
2215.8849973802830391
 20
-303.2216750548913069
 10
2217.959012700781841
 20
-303.2216750548913069
 10
2221.0700356815295891
 20
-303.2216750548913069
 10
2223.1440510020283909
 20
-303.2216750548913069
 10
2224.1810586622777919
 20
-303.2216750548913069
 10
2226.2550739827765938
 20
-303.2216750548913069
 10
2227.29208164302554
 20
-303.2216750548913069
 10
2230.4031046237737428
 20
-303.2216750548913069
 10
2231.4401122840231437
 20
-303.2216750548913069
 10
2232.4771199442725447
 20
-303.2216750548913069
 10
2233.5141276045214909
 20
-305.2956903753898814
 10
2235.5881429250202928
 20
-305.2956903753898814
 10
2236.6251505852696937
 20
-305.2956903753898814
 10
2237.6621582455190946
 20
-305.2956903753898814
 10
2239.7361735660174418
 20
-305.2956903753898814
 10
2241.8101888865162437
 20
-305.2956903753898814
 10
2243.8842042070150455
 20
-305.2956903753898814
 10
2245.9582195275133927
 20
-305.2956903753898814
 10
2248.0322348480121946
 20
-305.2956903753898814
 10
2250.1062501685109964
 20
-305.2956903753898814
 10
2252.1802654890093436
 20
-305.2956903753898814
 10
2256.3282961300069474
 20
-305.2956903753898814
 10
2259.4393191107546954
 20
-306.3326980356392824
 10
2260.4763267710040964
 20
-306.3326980356392824
 10
2262.5503420915028983
 20
-306.3326980356392824
 10
2265.6613650722506463
 20
-307.3697056958884559
 10
2267.7353803927494482
 20
-307.3697056958884559
 10
2270.8464033734971963
 20
-307.3697056958884559
 10
2273.9574263542453991
 20
-307.3697056958884559
 10
2274.9944340144948001
 20
-308.4067133561378569
 10
2276.0314416747437463
 20
-308.4067133561378569
 10
2277.0684493349931472
 20
-308.4067133561378569
 10
2278.1054569952425481
 20
-308.4067133561378569
 10
2279.1424646554919491
 20
-308.4067133561378569
 10
2280.17947231574135
 20
-308.4067133561378569
 10
2281.216479975990751
 20
-308.4067133561378569
 10
2282.2534876362396972
 20
-308.4067133561378569
 10
2283.2904952964890981
 20
-308.4067133561378569
 10
2284.3275029567384991
 20
-308.4067133561378569
 10
2285.3645106169879
 20
-308.4067133561378569
 10
2287.4385259374867019
 20
-308.4067133561378569
 10
2288.4755335977356481
 20
-308.4067133561378569
 10
2289.512541257985049
 20
-308.4067133561378569
 10
2291.5865565784838509
 20
-308.4067133561378569
 10
2294.697579559231599
 20
-308.4067133561378569
 10
2296.7715948797304009
 20
-308.4067133561378569
 10
2297.8086025399798018
 20
-308.4067133561378569
 10
2299.8826178604786037
 20
-308.4067133561378569
 10
2301.9566331809769508
 20
-308.4067133561378569
 10
2302.9936408412263518
 20
-308.4067133561378569
 10
2304.0306485014757527
 20
-308.4067133561378569
 10
2305.0676561617251537
 20
-308.4067133561378569
 10
2307.1416714822235008
 20
-308.4067133561378569
 10
2309.2156868027223027
 20
-308.4067133561378569
 10
2312.3267097834705055
 20
-308.4067133561378569
 10
2313.3637174437194517
 20
-308.4067133561378569
 10
2317.5117480847170555
 20
-308.4067133561378569
 10
2319.5857634052154026
 20
-308.4067133561378569
 10
2320.6227710654648035
 20
-308.4067133561378569
 10
2322.6967863859636054
 20
-308.4067133561378569
 10
2324.7708017064624073
 20
-308.4067133561378569
 10
2325.8078093667113535
 20
-308.4067133561378569
 10
2326.8448170269607544
 20
-308.4067133561378569
 10
2328.9188323474595563
 20
-308.4067133561378569
 10
2329.9558400077089573
 20
-308.4067133561378569
 10
2330.9928476679583582
 20
-308.4067133561378569
 10
2333.0668629884567054
 20
-308.4067133561378569
 10
2334.1038706487061063
 20
-308.4067133561378569
 10
2335.1408783089555072
 20
-308.4067133561378569
 10
2337.2148936294543091
 20
-308.4067133561378569
 10
2339.2889089499526563
 20
-308.4067133561378569
 10
2340.3259166102020572
 20
-308.4067133561378569
 10
2341.3629242704514581
 20
-308.4067133561378569
 10
2343.43693959095026
 20
-308.4067133561378569
 10
2344.4739472511992062
 20
-308.4067133561378569
 10
2345.5109549114486072
 20
-308.4067133561378569
 10
2346.5479625716980081
 20
-308.4067133561378569
 10
2347.584970231947409
 20
-308.4067133561378569
 10
2349.6589855524462109
 20
-308.4067133561378569
 10
2350.6959932126951571
 20
-308.4067133561378569
 10
2352.770008533193959
 20
-308.4067133561378569
 10
2353.80701619344336
 20
-308.4067133561378569
 10
2354.8440238536927609
 20
-308.4067133561378569
 10
2355.8810315139421618
 20
-308.4067133561378569
 10
2357.955046834440509
 20
-306.3326980356392824
 10
2360.0290621549393109
 20
-306.3326980356392824
 10
2361.0660698151887118
 20
-306.3326980356392824
 10
2362.1030774754381127
 20
-306.3326980356392824
 10
2363.1400851356870589
 20
-306.3326980356392824
 10
2365.2141004561858608
 20
-305.2956903753898814
 10
2366.2511081164352618
 20
-305.2956903753898814
 10
2367.2881157766846627
 20
-305.2956903753898814
 10
2368.3251234369336089
 20
-304.2586827151404805
 10
2369.3621310971830098
 20
-304.2586827151404805
 10
2370.3991387574324108
 20
-304.2586827151404805
 10
2371.4361464176818117
 20
-304.2586827151404805
 10
2373.5101617381806136
 20
-303.2216750548913069
 10
2374.5471693984295598
 20
-303.2216750548913069
 10
2375.5841770586789607
 20
-303.2216750548913069
 10
2377.6581923791777626
 20
-303.2216750548913069
 10
2380.7692153599255107
 20
-302.184667394641906
 10
2381.8062230201749117
 20
-301.147659734392505
 10
2383.8802383406737135
 20
-301.147659734392505
 10
2388.0282689816708626
 20
-301.147659734392505
 10
2390.1022843021696644
 20
-301.147659734392505
 10
2391.1392919624190654
 20
-301.147659734392505
 10
2393.2133072829174125
 20
-301.147659734392505
 10
2394.2503149431668135
 20
-301.147659734392505
 10
2398.3983455841644172
 20
-301.147659734392505
 10
2399.4353532444133634
 20
-301.147659734392505
 10
2401.5093685649121653
 20
-301.147659734392505
 10
2402.5463762251615663
 20
-301.147659734392505
 10
2403.5833838854109672
 20
-301.147659734392505
 10
2404.6203915456603681
 20
-301.147659734392505
 10
2405.6573992059093143
 20
-301.147659734392505
 10
2406.6944068661587153
 20
-301.147659734392505
 10
2407.7314145264081162
 20
-301.147659734392505
 10
2408.7684221866575172
 20
-301.147659734392505
 10
2410.842437507156319
 20
-301.147659734392505
 10
2411.8794451674052652
 20
-301.147659734392505
 10
2412.9164528276546662
 20
-301.147659734392505
 10
2414.9904681481534681
 20
-301.147659734392505
 10
2416.027475808402869
 20
-303.2216750548913069
 10
2417.0644834686522699
 20
-303.2216750548913069
 10
2419.1384987891506171
 20
-303.2216750548913069
 10
2420.175506449400018
 20
-303.2216750548913069
 10
2422.2495217698988199
 20
-304.2586827151404805
 10
2423.2865294301482209
 20
-304.2586827151404805
 10
2424.3235370903967123
 20
-304.2586827151404805
 10
2426.3975524108955142
 20
-304.2586827151404805
 10
2427.4345600711449151
 20
-304.2586827151404805
 10
2428.4715677313943161
 20
-304.2586827151404805
 10
2429.508575391643717
 20
-305.2956903753898814
 10
2430.545583051893118
 20
-305.2956903753898814
 10
2431.5825907121425189
 20
-305.2956903753898814
 10
2432.6195983723919198
 20
-305.2956903753898814
 10
2433.6566060326413208
 20
-305.2956903753898814
 10
2434.6936136928907217
 20
-305.2956903753898814
 10
2437.8046366736380151
 20
-305.2956903753898814
 10
2439.8786519941368169
 20
-305.2956903753898814
 10
2440.9156596543862179
 20
-305.2956903753898814
 10
2441.9526673146356188
 20
-306.3326980356392824
 10
2442.9896749748850198
 20
-306.3326980356392824
 10
2446.1006979556332226
 20
-306.3326980356392824
 10
2447.1377056158826235
 20
-307.3697056958884559
 10
2448.1747132761320245
 20
-307.3697056958884559
 10
2450.2487285966299169
 20
-307.3697056958884559
 10
2452.3227439171287187
 20
-307.3697056958884559
 10
2454.3967592376275206
 20
-308.4067133561378569
 10
2456.4707745581263225
 20
-308.4067133561378569
 10
2458.5447898786251244
 20
-308.4067133561378569
 10
2460.6188051991239263
 20
-308.4067133561378569
 10
2461.6558128593724177
 20
-308.4067133561378569
 10
2462.6928205196218187
 20
-308.4067133561378569
 10
2463.7298281798712196
 20
-308.4067133561378569
 10
2465.8038435003700215
 20
-308.4067133561378569
 10
2466.8408511606194224
 20
-308.4067133561378569
 10
2467.8778588208688234
 20
-308.4067133561378569
 10
2468.9148664811182243
 20
-308.4067133561378569
 10
2469.9518741413676253
 20
-308.4067133561378569
 10
2470.9888818016170262
 20
-308.4067133561378569
 10
2473.0628971221149186
 20
-308.4067133561378569
 10
2474.0999047823643195
 20
-308.4067133561378569
 10
2476.1739201028631214
 20
-308.4067133561378569
 10
2477.2109277631125224
 20
-309.4437210163872578
 10
2478.2479354233619233
 20
-309.4437210163872578
 10
2480.3219507438607252
 20
-309.4437210163872578
 10
2482.3959660643595271
 20
-309.4437210163872578
 10
2483.432973724608928
 20
-309.4437210163872578
 10
2485.5069890451068204
 20
-309.4437210163872578
 10
2486.5439967053562214
 20
-309.4437210163872578
 10
2488.6180120258550232
 20
-309.4437210163872578
 10
2490.6920273463538251
 20
-309.4437210163872578
 10
2491.7290350066032261
 20
-309.4437210163872578
 10
2493.8030503271020279
 20
-309.4437210163872578
 10
2494.8400579873514289
 20
-309.4437210163872578
 10
2497.9510809680987222
 20
-309.4437210163872578
 10
2498.9880886283481232
 20
-309.4437210163872578
 10
2501.0621039488469251
 20
-309.4437210163872578
 10
2502.099111609096326
 20
-309.4437210163872578
 10
2503.1361192693457269
 20
-309.4437210163872578
 10
2504.1731269295951279
 20
-309.4437210163872578
 10
2506.2471422500939298
 20
-309.4437210163872578
 10
2508.3211575705927316
 20
-309.4437210163872578
 10
2510.395172891090624
 20
-309.4437210163872578
 10
2511.432180551340025
 20
-309.4437210163872578
 10
2512.4691882115894259
 20
-309.4437210163872578
 10
2514.5432035320882278
 20
-309.4437210163872578
 10
2515.5802111923376287
 20
-309.4437210163872578
 10
2517.6542265128364306
 20
-309.4437210163872578
 10
2519.7282418333352325
 20
-309.4437210163872578
 10
2520.7652494935846335
 20
-309.4437210163872578
 10
2521.8022571538340344
 20
-309.4437210163872578
 10
2521.8022571538340344
 20
-307.3697056958884559
 10
2522.8392648140825258
 20
-307.3697056958884559
 10
2523.8762724743319268
 20
-307.3697056958884559
 10
2524.9132801345813277
 20
-307.3697056958884559
 10
2525.9502877948307287
 20
-307.3697056958884559
 10
2526.9872954550801296
 20
-306.3326980356392824
 10
2528.0243031153295306
 20
-306.3326980356392824
 10
2529.0613107755789315
 20
-306.3326980356392824
 10
2530.0983184358283324
 20
-306.3326980356392824
 10
2531.1353260960777334
 20
-306.3326980356392824
 10
2532.1723337563271343
 20
-306.3326980356392824
 10
2533.2093414165765353
 20
-305.2956903753898814
 10
2535.2833567370744277
 20
-305.2956903753898814
 10
2536.3203643973238286
 20
-305.2956903753898814
 10
2537.3573720575732295
 20
-305.2956903753898814
 10
2539.4313873780720314
 20
-305.2956903753898814
 10
2540.4683950383214324
 20
-305.2956903753898814
 10
2541.5054026985708333
 20
-305.2956903753898814
 10
2543.5794180190696352
 20
-305.2956903753898814
 10
2546.690440999817838
 20
-305.2956903753898814
 10
2548.7644563203157304
 20
-305.2956903753898814
 10
2550.8384716408145323
 20
-305.2956903753898814
 10
2552.9124869613133342
 20
-304.2586827151404805
 10
2553.9494946215627351
 20
-304.2586827151404805
 10
2554.9865022818121361
 20
-304.2586827151404805
 10
2556.023509942061537
 20
-304.2586827151404805
 10
2557.0605176023109379
 20
-304.2586827151404805
 10
2558.0975252625603389
 20
-304.2586827151404805
 10
2559.1345329228097398
 20
-304.2586827151404805
 10
2561.2085482433076322
 20
-304.2586827151404805
 10
2563.2825635638064341
 20
-304.2586827151404805
 10
2564.319571224055835
 20
-304.2586827151404805
 10
2565.356578884305236
 20
-304.2586827151404805
 10
2566.3935865445546369
 20
-304.2586827151404805
 10
2567.4305942048040379
 20
-304.2586827151404805
 10
2569.5046095253028398
 20
-304.2586827151404805
 10
2571.5786248458007321
 20
-304.2586827151404805
 10
2572.6156325060501331
 20
-304.2586827151404805
 10
2574.689647826548935
 20
-304.2586827151404805
 10
2575.7266554867983359
 20
-304.2586827151404805
 10
2576.7636631470477369
 20
-304.2586827151404805
 10
2577.8006708072971378
 20
-304.2586827151404805
 10
2579.8746861277959397
 20
-304.2586827151404805
 10
2580.9116937880453406
 20
-304.2586827151404805
 10
2581.9487014482947416
 20
-304.2586827151404805
 10
2582.9857091085441425
 20
-304.2586827151404805
 10
2584.022716768792634
 20
-304.2586827151404805
 10
2586.0967320892914358
 20
-304.2586827151404805
 10
2587.1337397495408368
 20
-304.2586827151404805
 10
2589.2077550700396387
 20
-303.2216750548913069
 10
2592.3187780507878415
 20
-303.2216750548913069
 10
2594.3927933712866434
 20
-303.2216750548913069
 10
2595.4298010315360443
 20
-303.2216750548913069
 10
2596.4668086917845358
 20
-303.2216750548913069
 10
2597.5038163520339367
 20
-303.2216750548913069
 10
2598.5408240122833377
 20
-303.2216750548913069
 10
2599.5778316725327386
 20
-303.2216750548913069
 10
2600.6148393327821395
 20
-303.2216750548913069
 10
2602.6888546532809414
 20
-303.2216750548913069
 10
2604.7628699737797433
 20
-303.2216750548913069
 10
2605.7998776340291442
 20
-303.2216750548913069
 10
2607.8738929545279461
 20
-303.2216750548913069
 10
2609.947908275026748
 20
-303.2216750548913069
 10
2610.9849159352752395
 20
-303.2216750548913069
 10
2612.0219235955255499
 20
-303.2216750548913069
 10
2614.0959389160243518
 20
-303.2216750548913069
 10
2617.2069618967716451
 20
-303.2216750548913069
 10
2619.280977217270447
 20
-303.2216750548913069
 10
2621.3549925377692489
 20
-303.2216750548913069
 10
2624.4660155185165422
 20
-303.2216750548913069
 10
2626.5400308390153441
 20
-303.2216750548913069
 10
2629.6510538197635469
 20
-303.2216750548913069
 10
2630.6880614800129479
 20
-303.2216750548913069
 10
2631.7250691402623488
 20
-303.2216750548913069
 10
2632.7620768005117498
 20
-303.2216750548913069
 10
2633.7990844607602412
 20
-303.2216750548913069
 10
2634.8360921210105516
 20
-303.2216750548913069
 10
2635.8730997812590431
 20
-303.2216750548913069
 10
2640.0211304222566469
 20
-303.2216750548913069
 10
2643.1321534030048497
 20
-303.2216750548913069
 10
2646.2431763837530525
 20
-305.2956903753898814
 10
2649.3541993645003458
 20
-305.2956903753898814
 10
2657.6502606464955534
 20
-305.2956903753898814
 10
2660.7612836272428467
 20
-306.3326980356392824
 10
2663.872306607991959
 20
-306.3326980356392824
 10
2664.9093142682404505
 20
-306.3326980356392824
 10
2665.9463219284898514
 20
-306.3326980356392824
 10
2665.9463219284898514
 20
-307.3697056958884559
 10
2666.9833295887392524
 20
-307.3697056958884559
 10
2666.9833295887392524
 20
-308.4067133561378569
 10
2668.0203372489886533
 20
-310.4807286766364314
 10
2668.0203372489886533
 20
-311.5177363368858323
 10
2669.0573449092380542
 20
-312.5547439971352333
 10
2669.0573449092380542
 20
-313.5917516573844068
 10
2669.0573449092380542
 20
-314.6287593176338078
 10
2670.0943525694874552
 20
-314.6287593176338078
  0
LINE
  5
E2
100
AcDbEntity
100
AcDbLine
  8
deck
 62
256
370
-1
  6
DASHED2
 10
2533.7371945601144034
 20
-230.1490923077745947
 30
0.0
 11
2533.7371945601144034
 21
-365.1490923077745947
 31
0.0
  0
LINE
  5
E3
100
AcDbEntity
100
AcDbLine
  8
deck
 62
256
370
-1
  6
DASHED2
 10
2433.7371945601134939
 20
-230.14909230777414
 30
0.0
 11
2433.7371945601134939
 21
-365.1490923077745947
 31
0.0
  0
LINE
  5
E4
100
AcDbEntity
100
AcDbLine
  8
deck
 62
256
370
-1
  6
DASHED2
 10
2413.7371945601139487
 20
-230.14909230777414
 30
0.0
 11
2413.7371945601139487
 21
-365.1490923077745947
 31
0.0
  0
LINE
  5
E5
100
AcDbEntity
100
AcDbLine
  8
deck
 62
256
370
-1
  6
DASHED2
 10
2311.7371945601144034
 20
-230.1490923077743673
 30
0.0
 11
2311.7371945601144034
 21
-365.1490923077743673
 31
0.0
  0
LINE
  5
E6
100
AcDbEntity
100
AcDbLine
  8
deck
 62
256
370
-1
  6
DASHED2
 10
2291.7371945601144034
 20
-230.1490923077743673
 30
0.0
 11
2291.7371945601144034
 21
-365.1490923077743673
 31
0.0
  0
LINE
  5
E7
100
AcDbEntity
100
AcDbLine
  8
deck
 62
256
370
-1
  6
DASHED2
 10
2191.7371945601148582
 20
-230.1490923077743673
 30
0.0
 11
2191.7371945601148582
 21
-365.1490923077739126
 31
0.0
  0
LINE
  5
E8
100
AcDbEntity
100
AcDbLine
  8
deck
 62
256
370
-1
  6
DASHED2
 10
2171.7371945601148582
 20
-230.1490923077743673
 30
0.0
 11
2171.7371945601148582
 21
-365.1490923077739126
 31
0.0
  0
LINE
  5
E9
100
AcDbEntity
100
AcDbLine
  8
deck
 62
256
370
-1
  6
DASHED2
 10
2071.7371945601144034
 20
-230.1490923077743673
 30
0.0
 11
2071.7371945601144034
 21
-365.1490923077739126
 31
0.0
  0
LINE
  5
EA
100
AcDbEntity
100
AcDbLine
  8
deck
 62
256
370
-1
  6
DASHED2
 10
2051.7371945601144034
 20
-230.1490923077743673
 30
0.0
 11
2051.7371945601144034
 21
-365.1490923077739126
 31
0.0
  0
LINE
  5
EB
100
AcDbEntity
100
AcDbLine
  8
deck
 62
256
370
-1
  6
DASHED2
 10
1947.7371945601148582
 20
-230.1490923077743673
 30
0.0
 11
1947.7371945601148582
 21
-365.1490923077743673
 31
0.0
  0
LINE
  5
EC
100
AcDbEntity
100
AcDbLine
  8
deck
 62
256
370
-1
  6
DASHED2
 10
1927.7371945601148582
 20
-230.1490923077743673
 30
0.0
 11
1927.7371945601148582
 21
-365.1490923077743673
 31
0.0
  0
LINE
  5
ED
100
AcDbEntity
100
AcDbLine
  8
deck
 62
256
370
-1
  6
DASHED2
 10
1827.7371945601148582
 20
-230.1490923077745947
 30
0.0
 11
1827.7371945601148582
 21
-365.1490923077745947
 31
0.0
  0
LINE
  5
EE
100
AcDbEntity
100
AcDbLine
  8
deck
 62
256
370
-1
  6
DASHED2
 10
1807.7371945601148582
 20
-230.1490923077745947
 30
0.0
 11
1807.7371945601148582
 21
-365.1490923077745947
 31
0.0
  0
LINE
  5
EF
100
AcDbEntity
100
AcDbLine
  8
deck
 62
256
370
-1
  6
DASHED2
 10
1705.7371945601153129
 20
-230.1490923077743673
 30
0.0
 11
1705.7371945601153129
 21
-365.1490923077739126
 31
0.0
  0
LINE
  5
F0
100
AcDbEntity
100
AcDbLine
  8
deck
 62
256
370
-1
  6
ByLayer
 10
1680.7371945601139487
 20
-210.1490923077745947
 30
0.0
 11
2558.7371945601144034
 21
-210.1490923077745947
 31
0.0
  0
LINE
  5
F1
100
AcDbEntity
100
AcDbLine
  8
deck
 62
256
370
-1
  6
ByLayer
 10
1680.7371945601139487
 20
-230.1490923077745947
 30
0.0
 11
2558.7371945601144034
 21
-230.1490923077745947
 31
0.0
  0
LINE
  5
F2
100
AcDbEntity
100
AcDbLine
  8
deck
 62
256
370
-1
  6
ByLayer
 10
2558.7371945601144034
 20
-230.1490923077745947
 30
0.0
 11
2558.7371945601144034
 21
-12.3821080559874872
 31
0.0
  0
LINE
  5
F3
100
AcDbEntity
100
AcDbLine
  8
deck
 62
256
370
-1
  6
ByLayer
 10
2543.7371945601144034
 20
-3.0090677773476955
 30
0.0
 11
2543.7371945601144034
 21
-210.1490923077745947
 31
0.0
  0
LINE
  5
F4
100
AcDbEntity
100
AcDbLine
  8
deck
 62
256
370
-1
  6
ByLayer
 10
1680.7371945601139487
 20
-230.1490923077745947
 30
0.0
 11
1680.7371945601139487
 21
-12.3821080559874872
 31
0.0
  0
LINE
  5
F5
100
AcDbEntity
100
AcDbLine
  8
deck
 62
256
370
-1
  6
ByLayer
 10
1695.7371945601153129
 20
-3.009067777346786
 30
0.0
 11
1695.7371945601153129
 21
-210.1490923077743673
 31
0.0
  0
LINE
  5
F6
100
AcDbEntity
100
AcDbLine
  8
deck
 62
256
370
-1
  6
ByLayer
 10
2593.7371945601144034
 20
-34.2525353728141226
 30
0.0
 11
2593.7371945601144034
 21
-10.6689673055722096
 31
0.0
  0
LINE
  5
F7
100
AcDbEntity
100
AcDbLine
  8
deck
 62
256
370
-1
  6
ByLayer
 10
1645.7371945601153129
 20
-34.2525353728129858
 30
0.0
 11
1645.7371945601153129
 21
-10.6689673055710728
 31
0.0
  0
LINE
  5
F8
100
AcDbEntity
100
AcDbLine
  8
deck
 62
256
370
-1
  6
ByLayer
 10
2124.7371945601144034
 20
57.8711464685824239
 30
0.0
 11
2285.5228400635251091
 21
158.3411685706215621
 31
0.0
  0
LINE
  5
F9
100
AcDbEntity
100
AcDbLine
  8
deck
 62
256
370
-1
  6
ByLayer
 10
1953.9515490567036977
 20
158.3411685706217895
 30
0.0
 11
2114.7371945601144034
 21
57.8711464685826513
 31
0.0
  0
LINE
  5
FA
100
AcDbEntity
100
AcDbLine
  8
deck
 62
256
370
-1
  6
ByLayer
 10
2129.1725941341137514
 20
48.8509076922254053
 30
0.0
 11
2294.9582396375244571
 21
152.4452765538111407
 31
0.0
  0
LINE
  5
FB
100
AcDbEntity
100
AcDbLine
  8
deck
 62
256
370
-1
  6
ByLayer
 10
1944.5161494827043498
 20
152.4452765538111407
 30
0.0
 11
2110.3017949861150555
 21
48.8509076922254053
 31
0.0
  0
LINE
  5
FC
100
AcDbEntity
100
AcDbLine
  8
deck
 62
256
370
-1
  6
ByLayer
 10
2124.7371945601144034
 20
48.8509076922254053
 30
0.0
 11
2124.7371945601144034
 21
258.8111906726607003
 31
0.0
  0
LINE
  5
FD
100
AcDbEntity
100
AcDbLine
  8
deck
 62
256
370
-1
  6
ByLayer
 10
2114.7371945601144034
 20
48.8509076922254053
 30
0.0
 11
2114.7371945601144034
 21
258.8111906726609277
 31
0.0
  0
LINE
  5
FE
100
AcDbEntity
100
AcDbLine
  8
deck
 62
256
370
-1
  6
ByLayer
 10
1695.7371945601153129
 20
-290.1490923077745947
 30
0.0
 11
1695.7371945601153129
 21
-230.1490923077745947
 31
0.0
  0
LINE
  5
FF
100
AcDbEntity
100
AcDbLine
  8
deck
 62
256
370
-1
  6
ByLayer
 10
2543.7371945601144034
 20
-290.1490923077745947
 30
0.0
 11
2543.7371945601144034
 21
-230.1490923077745947
 31
0.0
  0
LINE
  5
100
100
AcDbEntity
100
AcDbLine
  8
deck
 62
256
370
-1
  6
ByLayer
 10
1685.7371945601153129
 20
-230.1490923077743673
 30
0.0
 11
1685.7371945601153129
 21
-305.2956903753898814
 31
0.0
  0
LINE
  5
101
100
AcDbEntity
100
AcDbLine
  8
deck
 62
256
370
-1
  6
ByLayer
 10
2553.7371945601144034
 20
-230.1490923077745947
 30
0.0
 11
2553.7371945601144034
 21
-304.2586827151404805
 31
0.0
  0
LINE
  5
102
100
AcDbEntity
100
AcDbLine
  8
deck
 62
256
370
-1
  6
DASHED2
 10
1685.7371945601153129
 20
-305.2956903753898814
 30
0.0
 11
1685.7371945601153129
 21
-365.1490923077739126
 31
0.0
  0
LINE
  5
103
100
AcDbEntity
100
AcDbLine
  8
deck
 62
256
370
-1
  6
DASHED2
 10
2553.7371945601144034
 20
-304.2586827151404805
 30
0.0
 11
2553.7371945601144034
 21
-365.1490923077745947
 31
0.0
  0
LINE
  5
104
100
AcDbEntity
100
AcDbLine
  8
deck
 62
256
370
-1
  6
DASHDOT2
 10
1685.7371945601153129
 20
-365.1490923077739126
 30
0.0
 11
1705.7371945601153129
 21
-365.1490923077739126
 31
0.0
  0
LINE
  5
105
100
AcDbEntity
100
AcDbLine
  8
deck
 62
256
370
-1
  6
DASHDOT2
 10
1807.7371945601148582
 20
-365.1490923077745947
 30
0.0
 11
1827.7371945601148582
 21
-365.1490923077745947
 31
0.0
  0
LINE
  5
106
100
AcDbEntity
100
AcDbLine
  8
deck
 62
256
370
-1
  6
DASHDOT2
 10
1927.7371945601148582
 20
-365.1490923077743673
 30
0.0
 11
1947.7371945601148582
 21
-365.1490923077743673
 31
0.0
  0
LINE
  5
107
100
AcDbEntity
100
AcDbLine
  8
deck
 62
256
370
-1
  6
DASHDOT2
 10
2051.7371945601144034
 20
-365.1490923077739126
 30
0.0
 11
2071.7371945601144034
 21
-365.1490923077739126
 31
0.0
  0
LINE
  5
108
100
AcDbEntity
100
AcDbLine
  8
deck
 62
256
370
-1
  6
DASHDOT2
 10
2171.7371945601148582
 20
-365.1490923077739126
 30
0.0
 11
2191.7371945601148582
 21
-365.1490923077739126
 31
0.0
  0
LINE
  5
109
100
AcDbEntity
100
AcDbLine
  8
deck
 62
256
370
-1
  6
DASHDOT2
 10
2291.7371945601144034
 20
-365.1490923077743673
 30
0.0
 11
2311.7371945601144034
 21
-365.1490923077743673
 31
0.0
  0
LINE
  5
10A
100
AcDbEntity
100
AcDbLine
  8
deck
 62
256
370
-1
  6
DASHDOT2
 10
2413.7371945601139487
 20
-365.1490923077745947
 30
0.0
 11
2433.7371945601134939
 21
-365.1490923077745947
 31
0.0
  0
LINE
  5
10B
100
AcDbEntity
100
AcDbLine
  8
deck
 62
256
370
-1
  6
DASHDOT2
 10
2533.7371945601144034
 20
-365.1490923077745947
 30
0.0
 11
2553.7371945601144034
 21
-365.1490923077745947
 31
0.0
  0
MTEXT
  5
10C
100
AcDbEntity
100
AcDbMText
  8
text
 62
256
370
-1
  6
ByLayer
 10
2012.5383972439080935
 20
-439.3275087538676758
 30
0.0
 40
20.0
 41
100.0
 71
7
 72
2
  1
Entry end elevation
  7
iso
 50
0.0
 73
0
 44
1.0
  0
LINE
  5
10D
100
AcDbEntity
100
AcDbLine
  8
0
 62
256
370
-1
  6
ByLayer
 10
1837.7371945601144034
 20
-210.1490923077747084
 30
0.0
 11
1837.7371945601144034
 21
-7.1490923077745947
 31
0.0
  0
LINE
  5
10E
100
AcDbEntity
100
AcDbLine
  8
0
 62
256
370
-1
  6
ByLayer
 10
1837.7371945601144034
 20
-7.1490923077745947
 30
0.0
 11
2037.7371945601144034
 21
-7.1490923077745947
 31
0.0
  0
LINE
  5
10F
100
AcDbEntity
100
AcDbLine
  8
0
 62
256
370
-1
  6
ByLayer
 10
2037.7371945601144034
 20
-7.1490923077745947
 30
0.0
 11
2037.7371945601144034
 21
-210.1490923077745947
 31
0.0
  0
LINE
  5
110
100
AcDbEntity
100
AcDbLine
  8
0
 62
256
370
-1
  6
ByLayer
 10
1937.7371945601144034
 20
-210.1490923077745947
 30
0.0
 11
1937.7371945601144034
 21
-7.1490923077746231
 31
0.0
  0
LINE
  5
111
100
AcDbEntity
100
AcDbLine
  8
0
 62
256
370
-1
  6
ByLayer
 10
2201.7371945601144034
 20
-210.1490923077745947
 30
0.0
 11
2201.7371945601144034
 21
-7.1490923077745947
 31
0.0
  0
LINE
  5
112
100
AcDbEntity
100
AcDbLine
  8
0
 62
256
370
-1
  6
ByLayer
 10
2201.7371945601144034
 20
-7.1490923077745947
 30
0.0
 11
2401.7371945601144034
 21
-7.1490923077745947
 31
0.0
  0
LINE
  5
113
100
AcDbEntity
100
AcDbLine
  8
0
 62
256
370
-1
  6
ByLayer
 10
2401.7371945601144034
 20
-7.1490923077745947
 30
0.0
 11
2401.7371945601144034
 21
-210.1490923077745947
 31
0.0
  0
LINE
  5
114
100
AcDbEntity
100
AcDbLine
  8
0
 62
256
370
-1
  6
ByLayer
 10
2301.7371945601144034
 20
-210.1490923077745947
 30
0.0
 11
2301.7371945601144034
 21
-7.1490923077746231
 31
0.0
  0
LINE
  5
115
100
AcDbEntity
100
AcDbLine
  8
deck
 62
256
370
-1
  6
ByLayer
 10
2089.7371945601144034
 20
-210.1490923077745947
 30
0.0
 11
2089.7371945601144034
 21
-7.1490923077745947
 31
0.0
  0
LINE
  5
116
100
AcDbEntity
100
AcDbLine
  8
deck
 62
256
370
-1
  6
ByLayer
 10
2089.7371945601144034
 20
-7.1490923077745947
 30
0.0
 11
2169.7371945601144034
 21
-7.1490923077745947
 31
0.0
  0
LINE
  5
117
100
AcDbEntity
100
AcDbLine
  8
deck
 62
256
370
-1
  6
ByLayer
 10
2169.7371945601144034
 20
-7.1490923077745947
 30
0.0
 11
2169.7371945601144034
 21
-210.1490923077745947
 31
0.0
  0
DIMENSION
  5
118
100
AcDbEntity
  8
dimesions
 62
256
370
-1
  6
ByLayer
100
AcDbDimension
 10
2418.6970184899064407
 20
174.0887373579578252
 30
0.0
 11
2368.6970184899064407
 21
184.8387373579578252
 31
0.0
 70
0
 71
5
 72
0
 41
1.0
 42
0.0
  1

  3
Standard
100
AcDbAlignedDimension
 13
2318.6970184899064407
 23
161.1952092644460777
 33
0.0
 14
2418.6970184899064407
 24
98.7082740735132802
 34
0.0
 50
0.0
100
AcDbRotatedDimension
  0
DIMENSION
  5
119
100
AcDbEntity
  8
dimesions
 62
256
370
-1
  6
ByLayer
100
AcDbDimension
 10
2445.6659715932464678
 20
98.7082740735132802
 30
0.0
 11
2434.9159715932464678
 21
129.9517416689796789
 31
0.0
 70
0
 71
5
 72
0
 41
1.0
 42
0.0
  1

  3
Standard
100
AcDbAlignedDimension
 13
2318.6970184899064407
 23
161.1952092644460777
 33
0.0
 14
2418.6970184899064407
 24
98.7082740735132802
 34
0.0
 50
90.0
100
AcDbRotatedDimension
  0
MTEXT
  5
11A
100
AcDbEntity
100
AcDbMText
  8
dimesions
 62
256
370
-1
  6
ByLayer
 10
2456.8975030356950811
 20
126.9163052996724872
 30
0.0
 40
10.0
 41
100.0
 71
7
 72
2
  1
roof slope 32 degrees
  7
iso
 50
0.0
 73
0
 44
1.0
  0
DIMENSION
  5
11B
100
AcDbEntity
  8
dimesions
 62
256
370
-1
  6
ByLayer
100
AcDbDimension
 10
1815.7371945601144034
 20
326.4163825461717465
 30
0.0
 11
1967.7371945601144034
 21
337.1663825461717465
 31
0.0
 70
0
 71
5
 72
0
 41
1.0
 42
0.0
  1

  3
Standard
100
AcDbAlignedDimension
 13
2119.7371945601144034
 23
261.9355374322074113
 33
0.0
 14
1815.7371945601144034
 24
28.8509076922254053
 34
0.0
 50
0.0
100
AcDbRotatedDimension
  0
DIMENSION
  5
11C
100
AcDbEntity
  8
dimesions
 62
256
370
-1
  6
ByLayer
100
AcDbDimension
 10
1746.72381339847243
 20
325.5838132306260491
 30
0.0
 11
1696.2305039792938715
 21
336.3338132306260491
 31
0.0
 70
0
 71
5
 72
0
 41
1.0
 42
0.0
  1

  3
Standard
100
AcDbAlignedDimension
 13
1645.7371945601153129
 23
-34.2525353728129858
 33
0.0
 14
1746.72381339847243
 24
28.8509076922254053
 34
0.0
 50
0.0
100
AcDbRotatedDimension
  0
DIMENSION
  5
11D
100
AcDbEntity
  8
dimesions
 62
256
370
-1
  6
ByLayer
100
AcDbDimension
 10
1815.7371945601144034
 20
326.4163825461717465
 30
0.0
 11
1781.2305039792934167
 21
337.1663825461717465
 31
0.0
 70
0
 71
5
 72
0
 41
1.0
 42
0.0
  1

  3
Standard
100
AcDbAlignedDimension
 13
1746.72381339847243
 23
28.8509076922254053
 33
0.0
 14
1815.7371945601144034
 24
28.8509076922254053
 34
0.0
 50
0.0
100
AcDbRotatedDimension
  0
DIMENSION
  5
11E
100
AcDbEntity
  8
dimesions
 62
256
370
-1
  6
ByLayer
100
AcDbDimension
 10
2119.7371945601144034
 20
298.7587363691412747
 30
0.0
 11
2036.8443718084090506
 21
309.5087363691412747
 31
0.0
 70
0
 71
5
 72
0
 41
1.0
 42
0.0
  1

  3
Standard
100
AcDbAlignedDimension
 13
1953.9515490567036977
 23
158.3411685706217895
 33
0.0
 14
2119.7371945601144034
 24
261.9355374322075249
 34
0.0
 50
0.0
100
AcDbRotatedDimension
  0
ENDSEC
  0
SECTION
  2
OBJECTS
  0
DICTIONARY
  5
C
100
AcDbDictionary
280
0
281
1
  3
ACAD_GROUP
350
D
  3
ACAD_LAYOUT
350
1A
  3
ACAD_MLINESTYLE
350
17
  3
ACAD_PLOTSETTINGS
350
19
  3
ACAD_PLOTSTYLENAME
350
E
  3
AcDbVariableDictionary
350
11F
  0
DICTIONARY
  5
D
100
AcDbDictionary
280
0
281
1
  0
ACDBDICTIONARYWDFLT
  5
E
100
AcDbDictionary
281
1
  3
Normal
350
F
100
AcDbDictionaryWithDefault
340
F
  0
ACDBPLACEHOLDER
  5
F
  0
DICTIONARY
  5
17
100
AcDbDictionary
280
0
281
1
  3
Standard
350
18
  0
MLINESTYLE
  5
18
100
AcDbMlineStyle
  2
STANDARD
 70
0
  3

 62
256
 51
90.0
 52
90.0
 71
2
 49
0.5
 62
256
  6
BYLAYER
 49
-0.5
 62
256
  6
BYLAYER
  0
DICTIONARY
  5
19
100
AcDbDictionary
280
0
281
1
  0
DICTIONARY
  5
1A
100
AcDbDictionary
281
1
  3
Layout1
350
1E
  3
Layout2
350
26
  3
Model
350
22
  0
LAYOUT
  5
1E
100
AcDbPlotSettings
  1

  2
C:\Program Files\AutoCAD 2002\plotters\DWF ePlot (optimized for plotting).pc3
  4

  6

 40
0.0
 41
0.0
 42
0.0
 43
0.0
 44
0.0
 45
0.0
 46
0.0
 47
0.0
 48
0.0
 49
0.0
140
0.0
141
0.0
142
1.0
143
1.0
 70
688
 72
0
 73
0
 74
5
  7

 75
16
147
1.0
148
0.0
149
0.0
100
AcDbLayout
  1
Layout1
 70
1
 71
1
 10
0.0
 20
0.0
 11
420.0
 21
297.0
 12
0.0
 22
0.0
 32
0.0
 14
100000000000000000000.0
 24
100000000000000000000.0
 34
100000000000000000000.0
 15
-100000000000000000000.0
 25
-100000000000000000000.0
 35
-100000000000000000000.0
146
0.0
 13
0.0
 23
0.0
 33
0.0
 16
1.0
 26
0.0
 36
0.0
 17
0.0
 27
1.0
 37
0.0
 76
0
330
1B
  0
LAYOUT
  5
22
100
AcDbPlotSettings
  1

  2
C:\Program Files\AutoCAD 2002\plotters\DWF ePlot (optimized for plotting).pc3
  4

  6

 40
0.0
 41
0.0
 42
0.0
 43
0.0
 44
0.0
 45
0.0
 46
0.0
 47
0.0
 48
0.0
 49
0.0
140
0.0
141
0.0
142
1.0
143
1.0
 70
1712
 72
0
 73
0
 74
0
  7

 75
0
147
1.0
148
0.0
149
0.0
100
AcDbLayout
  1
Model
 70
1
 71
0
 10
0.0
 20
0.0
 11
12.0
 21
9.0
 12
0.0
 22
0.0
 32
0.0
 14
0.0
 24
0.0
 34
0.0
 15
0.0
 25
0.0
 35
0.0
146
0.0
 13
0.0
 23
0.0
 33
0.0
 16
1.0
 26
0.0
 36
0.0
 17
0.0
 27
1.0
 37
0.0
 76
0
330
1F
  0
LAYOUT
  5
26
100
AcDbPlotSettings
  1

  2
C:\Program Files\AutoCAD 2002\plotters\DWF ePlot (optimized for plotting).pc3
  4

  6

 40
0.0
 41
0.0
 42
0.0
 43
0.0
 44
0.0
 45
0.0
 46
0.0
 47
0.0
 48
0.0
 49
0.0
140
0.0
141
0.0
142
1.0
143
1.0
 70
688
 72
0
 73
0
 74
5
  7

 75
16
147
1.0
148
0.0
149
0.0
100
AcDbLayout
  1
Layout2
 70
1
 71
2
 10
0.0
 20
0.0
 11
12.0
 21
9.0
 12
0.0
 22
0.0
 32
0.0
 14
0.0
 24
0.0
 34
0.0
 15
0.0
 25
0.0
 35
0.0
146
0.0
 13
0.0
 23
0.0
 33
0.0
 16
1.0
 26
0.0
 36
0.0
 17
0.0
 27
1.0
 37
0.0
 76
0
330
23
  0
DICTIONARY
  5
11F
100
AcDbDictionary
281
1
  3
DIMASSOC
350
121
  3
HIDETEXT
350
120
  0
DICTIONARYVAR
  5
120
100
DictionaryVariables
280
0
  1
2
  0
DICTIONARYVAR
  5
121
100
DictionaryVariables
280
0
  1
1
  0
ENDSEC
  0
EOF
