999
dxflib 2.2.0.0
  0
SECTION
  2
HEADER
  9
$ACADVER
  1
AC1015
  9
$HANDSEED
  5
FFFF
  9
$SPLINESEGS
 70
8
  9
$DIMEXE
 40
12.5
  9
$DIMLUNIT
 70
2
  9
$GRIDMODE
 70
0
  9
$INSUNITS
 70
5
  9
$DIMADEC
 70
2
  9
$DIMASZ
 40
5.0
  9
$DIMGAP
 40
6.25
  9
$DIMTXT
 40
9.0
  9
$GRIDUNIT
 10
0.0
 20
0.0
  9
$DIMEXO
 40
12.5
  9
$LUPREC
 70
4
  9
$DIMAUNIT
 70
0
  9
$AUPREC
 70
2
  9
$PLIMMIN
 10
0.0
 20
0.0
  9
$LUNITS
 70
2
  9
$PLIMMAX
 10
21.0
 20
29.6999999999999993
  9
$DIMSTYLE
  2
Standard
  9
$AUNITS
 70
0
  0
ENDSEC
  0
SECTION
  2
TABLES
  0
TABLE
  2
VPORT
  5
8
100
AcDbSymbolTable
 70
1
  0
VPORT
  5
30
100
AcDbSymbolTableRecord
100
AcDbViewportTableRecord
  2
*Active
 70
0
 10
0.0
 20
0.0
 11
1.0
 21
1.0
 12
286.3055555555554861
 22
148.5
 13
0.0
 23
0.0
 14
10.0
 24
10.0
 15
10.0
 25
10.0
 16
0.0
 26
0.0
 36
1.0
 17
0.0
 27
0.0
 37
0.0
 40
297.0
 41
1.92798353909465
 42
50.0
 43
0.0
 44
0.0
 50
0.0
 51
0.0
 71
0
 72
100
 73
1
 74
3
 75
1
 76
1
 77
0
 78
0
281
0
 65
1
110
0.0
120
0.0
130
0.0
111
1.0
121
0.0
131
0.0
112
0.0
122
1.0
132
0.0
 79
0
146
0.0
  0
ENDTAB
  0
TABLE
  2
LTYPE
  5
5
100
AcDbSymbolTable
 70
21
  0
LTYPE
  5
14
100
AcDbSymbolTableRecord
100
AcDbLinetypeTableRecord
  2
ByBlock
 70
0
  3

 72
65
 73
0
 40
0.0
  0
LTYPE
  5
15
100
AcDbSymbolTableRecord
100
AcDbLinetypeTableRecord
  2
ByLayer
 70
0
  3

 72
65
 73
0
 40
0.0
  0
LTYPE
  5
16
100
AcDbSymbolTableRecord
100
AcDbLinetypeTableRecord
  2
CONTINUOUS
 70
0
  3
Solid line
 72
65
 73
0
 40
0.0
  0
LTYPE
  5
31
100
AcDbSymbolTableRecord
100
AcDbLinetypeTableRecord
  2
DOT
 70
0
  3
Dot . . . . . . . . . . . . . . . . . . . . . .
 72
65
 73
2
 40
6.3499999999999996
 49
0.0
 74
0
 49
-6.3499999999999996
 74
0
  0
LTYPE
  5
32
100
AcDbSymbolTableRecord
100
AcDbLinetypeTableRecord
  2
DOT2
 70
0
  3
Dot (.5x) .....................................
 72
65
 73
2
 40
3.1749999999999998
 49
0.0
 74
0
 49
-3.1749999999999998
 74
0
  0
LTYPE
  5
33
100
AcDbSymbolTableRecord
100
AcDbLinetypeTableRecord
  2
DOTX2
 70
0
  3
Dot (2x) .  .  .  .  .  .  .  .  .  .  .  .  .
 72
65
 73
2
 40
12.6999999999999993
 49
0.0
 74
0
 49
-12.6999999999999993
 74
0
  0
LTYPE
  5
34
100
AcDbSymbolTableRecord
100
AcDbLinetypeTableRecord
  2
DASHED
 70
0
  3
Dashed __ __ __ __ __ __ __ __ __ __ __ __ __ _
 72
65
 73
2
 40
19.0500000000000007
 49
12.6999999999999993
 74
0
 49
-6.3499999999999996
 74
0
  0
LTYPE
  5
35
100
AcDbSymbolTableRecord
100
AcDbLinetypeTableRecord
  2
DASHED2
 70
0
  3
Dashed (.5x) _ _ _ _ _ _ _ _ _ _ _ _ _ _ _ _ _
 72
65
 73
2
 40
9.5250000000000004
 49
6.3499999999999996
 74
0
 49
-3.1749999999999998
 74
0
  0
LTYPE
  5
36
100
AcDbSymbolTableRecord
100
AcDbLinetypeTableRecord
  2
DASHEDX2
 70
0
  3
Dashed (2x) ____  ____  ____  ____  ____  ___
 72
65
 73
2
 40
38.1000000000000014
 49
25.3999999999999986
 74
0
 49
-12.6999999999999993
 74
0
  0
LTYPE
  5
37
100
AcDbSymbolTableRecord
100
AcDbLinetypeTableRecord
  2
DASHDOT
 70
0
  3
Dash dot __ . __ . __ . __ . __ . __ . __ . __
 72
65
 73
4
 40
25.3999999999999986
 49
12.6999999999999993
 74
0
 49
-6.3499999999999996
 74
0
 49
0.0
 74
0
 49
-6.3499999999999996
 74
0
  0
LTYPE
  5
38
100
AcDbSymbolTableRecord
100
AcDbLinetypeTableRecord
  2
DASHDOT2
 70
0
  3
Dash dot (.5x) _._._._._._._._._._._._._._._.
 72
65
 73
4
 40
12.6999999999999993
 49
6.3499999999999996
 74
0
 49
-3.1749999999999998
 74
0
 49
0.0
 74
0
 49
-3.1749999999999998
 74
0
  0
LTYPE
  5
39
100
AcDbSymbolTableRecord
100
AcDbLinetypeTableRecord
  2
DASHDOTX2
 70
0
  3
Dash dot (2x) ____  .  ____  .  ____  .  ___
 72
65
 73
4
 40
50.7999999999999972
 49
25.3999999999999986
 74
0
 49
-12.6999999999999993
 74
0
 49
0.0
 74
0
 49
-12.6999999999999993
 74
0
  0
LTYPE
  5
3A
100
AcDbSymbolTableRecord
100
AcDbLinetypeTableRecord
  2
DIVIDE
 70
0
  3
Divide ____ . . ____ . . ____ . . ____ . . ____
 72
65
 73
6
 40
31.75
 49
12.6999999999999993
 74
0
 49
-6.3499999999999996
 74
0
 49
0.0
 74
0
 49
-6.3499999999999996
 74
0
 49
0.0
 74
0
 49
-6.3499999999999996
 74
0
  0
LTYPE
  5
3B
100
AcDbSymbolTableRecord
100
AcDbLinetypeTableRecord
  2
DIVIDE2
 70
0
  3
Divide (.5x) __..__..__..__..__..__..__..__.._
 72
65
 73
6
 40
15.875
 49
6.3499999999999996
 74
0
 49
-3.1749999999999998
 74
0
 49
0.0
 74
0
 49
-3.1749999999999998
 74
0
 49
0.0
 74
0
 49
-3.1749999999999998
 74
0
  0
LTYPE
  5
3C
100
AcDbSymbolTableRecord
100
AcDbLinetypeTableRecord
  2
DIVIDEX2
 70
0
  3
Divide (2x) ________  .  .  ________  .  .  _
 72
65
 73
6
 40
63.5
 49
25.3999999999999986
 74
0
 49
-12.6999999999999993
 74
0
 49
0.0
 74
0
 49
-12.6999999999999993
 74
0
 49
0.0
 74
0
 49
-12.6999999999999993
 74
0
  0
LTYPE
  5
3D
100
AcDbSymbolTableRecord
100
AcDbLinetypeTableRecord
  2
CENTER
 70
0
  3
Center ____ _ ____ _ ____ _ ____ _ ____ _ ____
 72
65
 73
4
 40
50.7999999999999972
 49
31.75
 74
0
 49
-6.3499999999999996
 74
0
 49
6.3499999999999996
 74
0
 49
-6.3499999999999996
 74
0
  0
LTYPE
  5
3E
100
AcDbSymbolTableRecord
100
AcDbLinetypeTableRecord
  2
CENTER2
 70
0
  3
Center (.5x) ___ _ ___ _ ___ _ ___ _ ___ _ ___
 72
65
 73
4
 40
28.5749999999999993
 49
19.0500000000000007
 74
0
 49
-3.1749999999999998
 74
0
 49
3.1749999999999998
 74
0
 49
-3.1749999999999998
 74
0
  0
LTYPE
  5
3F
100
AcDbSymbolTableRecord
100
AcDbLinetypeTableRecord
  2
CENTERX2
 70
0
  3
Center (2x) ________  __  ________  __  _____
 72
65
 73
4
 40
101.5999999999999943
 49
63.5
 74
0
 49
-12.6999999999999993
 74
0
 49
12.6999999999999993
 74
0
 49
-12.6999999999999993
 74
0
  0
LTYPE
  5
40
100
AcDbSymbolTableRecord
100
AcDbLinetypeTableRecord
  2
BORDER
 70
0
  3
Border __ __ . __ __ . __ __ . __ __ . __ __ .
 72
65
 73
6
 40
44.4500000000000028
 49
12.6999999999999993
 74
0
 49
-6.3499999999999996
 74
0
 49
12.6999999999999993
 74
0
 49
-6.3499999999999996
 74
0
 49
0.0
 74
0
 49
-6.3499999999999996
 74
0
  0
LTYPE
  5
41
100
AcDbSymbolTableRecord
100
AcDbLinetypeTableRecord
  2
BORDER2
 70
0
  3
Border (.5x) __.__.__.__.__.__.__.__.__.__.__.
 72
65
 73
6
 40
22.2250000000000014
 49
6.3499999999999996
 74
0
 49
-3.1749999999999998
 74
0
 49
6.3499999999999996
 74
0
 49
-3.1749999999999998
 74
0
 49
0.0
 74
0
 49
-3.1749999999999998
 74
0
  0
LTYPE
  5
42
100
AcDbSymbolTableRecord
100
AcDbLinetypeTableRecord
  2
BORDERX2
 70
0
  3
Border (2x) ____  ____  .  ____  ____  .  ___
 72
65
 73
6
 40
88.9000000000000057
 49
25.3999999999999986
 74
0
 49
-12.6999999999999993
 74
0
 49
25.3999999999999986
 74
0
 49
-12.6999999999999993
 74
0
 49
0.0
 74
0
 49
-12.6999999999999993
 74
0
  0
ENDTAB
  0
TABLE
  2
LAYER
  5
2
100
AcDbSymbolTable
 70
9
  0
LAYER
  5
10
100
AcDbSymbolTableRecord
100
AcDbLayerTableRecord
  2
0
 70
0
 62
7
  6
CONTINUOUS
290
1
370
0
390
F
  0
LAYER
  5
43
100
AcDbSymbolTableRecord
100
AcDbLayerTableRecord
  2
dimesions
 70
0
 62
5
  6
CONTINUOUS
290
1
370
0
390
F
  0
LAYER
  5
44
100
AcDbSymbolTableRecord
100
AcDbLayerTableRecord
  2
bogus
 70
0
 62
3
  6
DOT
290
1
370
0
390
F
  0
LAYER
  5
45
100
AcDbSymbolTableRecord
100
AcDbLayerTableRecord
  2
fixtures
 70
0
 62
3
  6
CONTINUOUS
290
1
370
0
390
F
  0
LAYER
  5
46
100
AcDbSymbolTableRecord
100
AcDbLayerTableRecord
  2
doors
 70
0
 62
6
  6
CONTINUOUS
290
1
370
0
390
F
  0
LAYER
  5
47
100
AcDbSymbolTableRecord
100
AcDbLayerTableRecord
  2
eletrical
 70
0
 62
1
  6
CONTINUOUS
290
1
370
0
390
F
  0
LAYER
  5
48
100
AcDbSymbolTableRecord
100
AcDbLayerTableRecord
  2
text
 70
0
 62
7
  6
CONTINUOUS
290
1
370
0
390
F
  0
LAYER
  5
49
100
AcDbSymbolTableRecord
100
AcDbLayerTableRecord
  2
deck
 70
0
 62
222
  6
CONTINUOUS
290
1
370
0
390
F
  0
LAYER
  5
4A
100
AcDbSymbolTableRecord
100
AcDbLayerTableRecord
  2
tatami
 70
0
 62
30
  6
DOT2
290
1
370
0
390
F
  0
ENDTAB
  0
TABLE
  2
STYLE
  5
3
100
AcDbSymbolTable
 70
1
  0
STYLE
  5
11
100
AcDbSymbolTableRecord
100
AcDbTextStyleTableRecord
  2
Standard
 70
0
 40
0.0
 41
0.75
 50
0.0
 71
0
 42
2.5
  3
txt
  4

  0
ENDTAB
  0
TABLE
  2
VIEW
  5
6
100
AcDbSymbolTable
 70
0
  0
ENDTAB
  0
TABLE
  2
UCS
  5
7
100
AcDbSymbolTable
 70
0
  0
ENDTAB
  0
TABLE
  2
APPID
  5
9
100
AcDbSymbolTable
 70
1
  0
APPID
  5
12
100
AcDbSymbolTableRecord
100
AcDbRegAppTableRecord
  2
ACAD
 70
0
  0
ENDTAB
  0
TABLE
  2
DIMSTYLE
  5
A
100
AcDbSymbolTable
 70
1
100
AcDbDimStyleTable
 71
0
  0
DIMSTYLE
105
27
100
AcDbSymbolTableRecord
100
AcDbDimStyleTableRecord
  2
Standard
 41
5.0
 42
12.5
 43
3.75
 44
12.5
 70
0
 73
0
 74
0
 77
1
 78
8
140
9.0
141
2.5
143
0.03937007874016
147
6.25
171
3
172
1
271
2
272
2
274
3
278
44
283
0
284
8
340
11
  0
ENDTAB
  0
TABLE
  2
BLOCK_RECORD
  5
1
100
AcDbSymbolTable
 70
1
  0
BLOCK_RECORD
  5
1F
100
AcDbSymbolTableRecord
100
AcDbBlockTableRecord
  2
*Model_Space
340
22
  0
BLOCK_RECORD
  5
1B
100
AcDbSymbolTableRecord
100
AcDbBlockTableRecord
  2
*Paper_Space
340
1E
  0
BLOCK_RECORD
  5
23
100
AcDbSymbolTableRecord
100
AcDbBlockTableRecord
  2
*Paper_Space0
340
26
  0
BLOCK_RECORD
  5
4B
100
AcDbSymbolTableRecord
100
AcDbBlockTableRecord
  2
door60verleft
340
0
  0
BLOCK_RECORD
  5
4C
100
AcDbSymbolTableRecord
100
AcDbBlockTableRecord
  2
door71verleft
340
0
  0
BLOCK_RECORD
  5
4D
100
AcDbSymbolTableRecord
100
AcDbBlockTableRecord
  2
door80verright
340
0
  0
BLOCK_RECORD
  5
4E
100
AcDbSymbolTableRecord
100
AcDbBlockTableRecord
  2
out110hor
340
0
  0
BLOCK_RECORD
  5
4F
100
AcDbSymbolTableRecord
100
AcDbBlockTableRecord
  2
tub-ver
340
0
  0
BLOCK_RECORD
  5
50
100
AcDbSymbolTableRecord
100
AcDbBlockTableRecord
  2
WC-hor-left
340
0
  0
BLOCK_RECORD
  5
51
100
AcDbSymbolTableRecord
100
AcDbBlockTableRecord
  2
out110hor-dwn
340
0
  0
BLOCK_RECORD
  5
52
100
AcDbSymbolTableRecord
100
AcDbBlockTableRecord
  2
standard40
340
0
  0
BLOCK_RECORD
  5
53
100
AcDbSymbolTableRecord
100
AcDbBlockTableRecord
  2
standard40-interiorwall
340
0
  0
BLOCK_RECORD
  5
54
100
AcDbSymbolTableRecord
100
AcDbBlockTableRecord
  2
standard40-outline
340
0
  0
BLOCK_RECORD
  5
55
100
AcDbSymbolTableRecord
100
AcDbBlockTableRecord
  2
KyotoKyomaTatami
340
0
  0
BLOCK_RECORD
  5
56
100
AcDbSymbolTableRecord
100
AcDbBlockTableRecord
  2
KyotoKyomaTatamiHalf
340
0
  0
BLOCK_RECORD
  5
57
100
AcDbSymbolTableRecord
100
AcDbBlockTableRecord
  2
refridge50_60
340
0
  0
BLOCK_RECORD
  5
58
100
AcDbSymbolTableRecord
100
AcDbBlockTableRecord
  2
washer_hor
340
0
  0
BLOCK_RECORD
  5
59
100
AcDbSymbolTableRecord
100
AcDbBlockTableRecord
  2
switch-hor
340
0
  0
ENDTAB
  0
ENDSEC
  0
SECTION
  2
BLOCKS
  0
BLOCK
  5
20
100
AcDbEntity
  8
0
100
AcDbBlockBegin
  2
*Model_Space
 70
0
 10
0.0
 20
0.0
 30
0.0
  3
*Model_Space
  1

  0
ENDBLK
  5
21
100
AcDbEntity
  8
0
100
AcDbBlockEnd
  0
BLOCK
  5
1C
100
AcDbEntity
 67
1
  8
0
100
AcDbBlockBegin
  2
*Paper_Space
 70
0
 10
0.0
 20
0.0
 30
0.0
  3
*Paper_Space
  1

  0
ENDBLK
  5
1D
100
AcDbEntity
 67
1
  8
0
100
AcDbBlockEnd
  0
BLOCK
  5
24
100
AcDbEntity
  8
0
100
AcDbBlockBegin
  2
*Paper_Space0
 70
0
 10
0.0
 20
0.0
 30
0.0
  3
*Paper_Space0
  1

  0
ENDBLK
  5
25
100
AcDbEntity
  8
0
100
AcDbBlockEnd
  0
BLOCK
  5
5A
100
AcDbEntity
  8
0
100
AcDbBlockBegin
  2
door60verleft
 70
0
 10
0.0
 20
0.0
 30
0.0
  3
door60verleft
  1

  0
LINE
  5
5B
100
AcDbEntity
100
AcDbLine
  8
fixtures
 62
6
370
-1
  6
ByLayer
 10
0.0
 20
0.0
 30
0.0
 11
-51.5285115251740962
 21
-29.7500000000000071
 31
0.0
  0
ARC
  5
5C
100
AcDbEntity
  8
fixtures
 62
6
370
-1
  6
ByLayer
100
AcDbCircle
 10
0.0
 20
0.0
 30
0.0
 40
60.0
100
AcDbArc
 50
210.0
 51
270.0
  0
LINE
  5
5D
100
AcDbEntity
100
AcDbLine
  8
fixtures
 62
6
370
-1
  6
ByLayer
 10
2.5
 20
-4.3301270189221981
 30
0.0
 11
-49.0285115251740962
 21
-34.0801270189221981
 31
0.0
  0
LINE
  5
5E
100
AcDbEntity
100
AcDbLine
  8
fixtures
 62
6
370
-1
  6
ByLayer
 10
0.0
 20
0.0
 30
0.0
 11
2.5
 21
-4.3301270189221981
 31
0.0
  0
ENDBLK
  5
5F
100
AcDbEntity
  8
0
100
AcDbBlockEnd
  0
BLOCK
  5
60
100
AcDbEntity
  8
0
100
AcDbBlockBegin
  2
door71verleft
 70
0
 10
0.0
 20
0.0
 30
0.0
  3
door71verleft
  1

  0
LINE
  5
61
100
AcDbEntity
100
AcDbLine
  8
doors
 62
256
370
-1
  6
ByLayer
 10
0.0
 20
0.0
 30
0.0
 11
-61.4878036686951646
 21
-35.5000000000000071
 31
0.0
  0
ARC
  5
62
100
AcDbEntity
  8
doors
 62
256
370
-1
  6
ByLayer
100
AcDbCircle
 10
0.0
 20
0.0
 30
0.0
 40
71.0
100
AcDbArc
 50
210.0
 51
269.9999999999999432
  0
LINE
  5
63
100
AcDbEntity
100
AcDbLine
  8
doors
 62
256
370
-1
  6
ByLayer
 10
2.5
 20
-4.3301270189221981
 30
0.0
 11
-58.9878036686951646
 21
-39.8301270189221981
 31
0.0
  0
LINE
  5
64
100
AcDbEntity
100
AcDbLine
  8
doors
 62
256
370
-1
  6
ByLayer
 10
0.0
 20
0.0
 30
0.0
 11
2.5
 21
-4.3301270189221981
 31
0.0
  0
ENDBLK
  5
65
100
AcDbEntity
  8
0
100
AcDbBlockEnd
  0
BLOCK
  5
66
100
AcDbEntity
  8
0
100
AcDbBlockBegin
  2
door80verright
 70
0
 10
0.0
 20
0.0
 30
0.0
  3
door80verright
  1

  0
LINE
  5
67
100
AcDbEntity
100
AcDbLine
  8
doors
 62
256
370
-1
  6
ByLayer
 10
0.0
 20
0.0
 30
0.0
 11
51.4230087749231188
 21
-61.2835554495182464
 31
0.0
  0
ARC
  5
68
100
AcDbEntity
  8
doors
 62
256
370
-1
  6
ByLayer
100
AcDbCircle
 10
0.0
 20
0.0
 30
0.0
 40
80.0
100
AcDbArc
 50
270.0
 51
309.9999999999999432
  0
LINE
  5
69
100
AcDbEntity
100
AcDbLine
  8
doors
 62
256
370
-1
  6
ByLayer
 10
-3.8302222155948584
 20
-3.2139380484326807
 30
0.0
 11
47.5927865593282604
 21
-64.4974934979509413
 31
0.0
  0
LINE
  5
6A
100
AcDbEntity
100
AcDbLine
  8
doors
 62
256
370
-1
  6
ByLayer
 10
0.0
 20
0.0
 30
0.0
 11
-3.8302222155948584
 21
-3.2139380484326807
 31
0.0
  0
ENDBLK
  5
6B
100
AcDbEntity
  8
0
100
AcDbBlockEnd
  0
BLOCK
  5
6C
100
AcDbEntity
  8
0
100
AcDbBlockBegin
  2
out110hor
 70
0
 10
0.0
 20
0.0
 30
0.0
  3
out110hor
  1

  0
CIRCLE
  5
6D
100
AcDbEntity
100
AcDbCircle
  8
eletrical
 62
256
370
-1
  6
ByLayer
 10
1.923833067930623
 20
9.3156922990824143
 30
0.0
 40
5.0
  0
LINE
  5
6E
100
AcDbEntity
100
AcDbLine
  8
eletrical
 62
256
370
-1
  6
ByLayer
 10
3.628960766971737
 20
0.0
 30
0.0
 11
3.628960766971737
 21
16.1186024643239421
 31
0.0
  0
LINE
  5
6F
100
AcDbEntity
100
AcDbLine
  8
eletrical
 62
256
370
-1
  6
ByLayer
 10
0.0
 20
0.0
 30
0.0
 11
0.0
 21
16.1186024643239421
 31
0.0
  0
ENDBLK
  5
70
100
AcDbEntity
  8
0
100
AcDbBlockEnd
  0
BLOCK
  5
71
100
AcDbEntity
  8
0
100
AcDbBlockBegin
  2
tub-ver
 70
0
 10
0.0
 20
0.0
 30
0.0
  3
tub-ver
  1

  0
ARC
  5
72
100
AcDbEntity
  8
0
 62
3
370
-1
  6
ByLayer
100
AcDbCircle
 10
5.0
 20
0.0
 30
0.0
 40
5.0
100
AcDbArc
 50
90.0
 51
180.0
  0
LINE
  5
73
100
AcDbEntity
100
AcDbLine
  8
0
 62
3
370
-1
  6
ByLayer
 10
5.0
 20
5.0
 30
0.0
 11
53.0000000000000071
 21
5.0
 31
0.0
  0
ARC
  5
74
100
AcDbEntity
  8
0
 62
3
370
-1
  6
ByLayer
100
AcDbCircle
 10
53.0000000000000071
 20
0.0
 30
0.0
 40
5.0
100
AcDbArc
 50
0.0
 51
90.0
  0
LINE
  5
75
100
AcDbEntity
100
AcDbLine
  8
0
 62
3
370
-1
  6
ByLayer
 10
58.0000000000000071
 20
-86.9999999999999858
 30
0.0
 11
58.0000000000000071
 21
0.0
 31
0.0
  0
ARC
  5
76
100
AcDbEntity
  8
0
 62
3
370
-1
  6
ByLayer
100
AcDbCircle
 10
53.0000000000000071
 20
-86.9999999999999858
 30
0.0
 40
5.0
100
AcDbArc
 50
270.0
 51
0.0
  0
LINE
  5
77
100
AcDbEntity
100
AcDbLine
  8
0
 62
3
370
-1
  6
ByLayer
 10
4.9999999999999716
 20
-91.9999999999999858
 30
0.0
 11
53.0000000000000071
 21
-91.9999999999999858
 31
0.0
  0
LINE
  5
78
100
AcDbEntity
100
AcDbLine
  8
0
 62
3
370
-1
  6
ByLayer
 10
-0.0000000000000284
 20
-86.9999999999999858
 30
0.0
 11
0.0
 21
0.0
 31
0.0
  0
ARC
  5
79
100
AcDbEntity
  8
0
 62
3
370
-1
  6
ByLayer
100
AcDbCircle
 10
4.9999999999999716
 20
-86.9999999999999858
 30
0.0
 40
5.0
100
AcDbArc
 50
180.0
 51
270.0
  0
ENDBLK
  5
7A
100
AcDbEntity
  8
0
100
AcDbBlockEnd
  0
BLOCK
  5
7B
100
AcDbEntity
  8
0
100
AcDbBlockBegin
  2
WC-hor-left
 70
0
 10
0.0
 20
0.0
 30
0.0
  3
WC-hor-left
  1

  0
LINE
  5
7C
100
AcDbEntity
100
AcDbLine
  8
fixtures
 62
256
370
-1
  6
ByLayer
 10
0.0
 20
0.0
 30
0.0
 11
20.0
 21
0.0
 31
0.0
  0
LINE
  5
7D
100
AcDbEntity
100
AcDbLine
  8
fixtures
 62
256
370
-1
  6
ByLayer
 10
0.0
 20
0.0
 30
0.0
 11
0.0
 21
47.0
 31
0.0
  0
LINE
  5
7E
100
AcDbEntity
100
AcDbLine
  8
fixtures
 62
256
370
-1
  6
ByLayer
 10
20.0
 20
0.0
 30
0.0
 11
20.0
 21
47.0
 31
0.0
  0
LINE
  5
7F
100
AcDbEntity
100
AcDbLine
  8
fixtures
 62
256
370
-1
  6
ByLayer
 10
0.0
 20
47.0
 30
0.0
 11
20.0
 21
47.0
 31
0.0
  0
ELLIPSE
  5
80
100
AcDbEntity
100
AcDbEllipse
  8
fixtures
 62
256
370
-1
  6
ByLayer
 10
48.383983460600291
 20
22.8898383817995068
 30
0.0
 11
23.8828093948296072
 21
-0.663411372078599
 31
0.0
 40
0.6156515034695453
 41
0.0
 42
6.2831853071795862
  0
MTEXT
  5
81
100
AcDbEntity
100
AcDbMText
  8
text
 62
256
370
-1
  6
ByLayer
 10
80.8402745876098265
 20
8.7561304533611377
 30
0.0
 40
15.0
 41
100.0
 71
1
 72
2
  1
WC
  7
iso
 50
0.0
 73
0
 44
1.0
  0
ENDBLK
  5
82
100
AcDbEntity
  8
0
100
AcDbBlockEnd
  0
BLOCK
  5
83
100
AcDbEntity
  8
0
100
AcDbBlockBegin
  2
out110hor-dwn
 70
0
 10
0.0
 20
0.0
 30
0.0
  3
out110hor-dwn
  1

  0
INSERT
  5
84
100
AcDbEntity
100
AcDbBlockReference
  8
eletrical
 62
256
370
-1
  6
ByLayer
  2
out110hor
 10
0.0
 20
0.0
 30
0.0
 50
180.0
 44
1.0
 45
1.0
  0
ENDBLK
  5
85
100
AcDbEntity
  8
0
100
AcDbBlockEnd
  0
BLOCK
  5
86
100
AcDbEntity
  8
0
100
AcDbBlockBegin
  2
standard40
 70
0
 10
0.0
 20
0.0
 30
0.0
  3
standard40
  1

  0
LINE
  5
87
100
AcDbEntity
100
AcDbLine
  8
0
 62
256
370
-1
  6
ByLayer
 10
0.0
 20
0.0000000000001705
 30
0.0
 11
0.0
 21
244.0000000000001705
 31
0.0
  0
LINE
  5
88
100
AcDbEntity
100
AcDbLine
  8
0
 62
256
370
-1
  6
ByLayer
 10
0.0
 20
243.9999999999999432
 30
0.0
 11
1219.0
 21
243.9999999999999432
 31
0.0
  0
LINE
  5
89
100
AcDbEntity
100
AcDbLine
  8
0
 62
256
370
-1
  6
ByLayer
 10
0.0
 20
0.0
 30
0.0
 11
1219.0
 21
0.0
 31
0.0
  0
LINE
  5
8A
100
AcDbEntity
100
AcDbLine
  8
0
 62
256
370
-1
  6
ByLayer
 10
1219.0
 20
0.0
 30
0.0
 11
1219.0
 21
243.9999999999999432
 31
0.0
  0
LINE
  5
8B
100
AcDbEntity
100
AcDbLine
  8
0
 62
256
370
-1
  6
ByLayer
 10
4.5
 20
239.4999999999999432
 30
0.0
 11
1219.0
 21
239.4999999999999432
 31
0.0
  0
LINE
  5
8C
100
AcDbEntity
100
AcDbLine
  8
0
 62
256
370
-1
  6
ByLayer
 10
4.5
 20
4.5
 30
0.0
 11
1219.0
 21
4.5
 31
0.0
  0
LINE
  5
8D
100
AcDbEntity
100
AcDbLine
  8
0
 62
256
370
-1
  6
ByLayer
 10
4.5
 20
4.5
 30
0.0
 11
4.5
 21
239.4999999999999432
 31
0.0
  0
LINE
  5
8E
100
AcDbEntity
100
AcDbLine
  8
0
 62
256
370
-1
  6
ByLayer
 10
1205.5
 20
4.5
 30
0.0
 11
1205.5
 21
239.4999999999999432
 31
0.0
  0
ENDBLK
  5
8F
100
AcDbEntity
  8
0
100
AcDbBlockEnd
  0
BLOCK
  5
90
100
AcDbEntity
  8
0
100
AcDbBlockBegin
  2
standard40-interiorwall
 70
0
 10
0.0
 20
0.0
 30
0.0
  3
standard40-interiorwall
  1

  0
LINE
  5
91
100
AcDbEntity
100
AcDbLine
  8
0
 62
256
370
-1
  6
ByLayer
 10
0.0
 20
0.0000000000002274
 30
0.0
 11
0.0
 21
244.0000000000002274
 31
0.0
  0
LINE
  5
92
100
AcDbEntity
100
AcDbLine
  8
0
 62
256
370
-1
  6
ByLayer
 10
0.0
 20
244.0
 30
0.0
 11
1219.0
 21
244.0
 31
0.0
  0
LINE
  5
93
100
AcDbEntity
100
AcDbLine
  8
0
 62
256
370
-1
  6
ByLayer
 10
0.0
 20
0.0
 30
0.0
 11
1219.0
 21
0.0
 31
0.0
  0
LINE
  5
94
100
AcDbEntity
100
AcDbLine
  8
0
 62
256
370
-1
  6
ByLayer
 10
1219.0
 20
0.0
 30
0.0
 11
1219.0
 21
244.0
 31
0.0
  0
LINE
  5
95
100
AcDbEntity
100
AcDbLine
  8
0
 62
256
370
-1
  6
ByLayer
 10
9.0
 20
235.0
 30
0.0
 11
1219.0
 21
235.0
 31
0.0
  0
LINE
  5
96
100
AcDbEntity
100
AcDbLine
  8
0
 62
256
370
-1
  6
ByLayer
 10
9.0
 20
9.0
 30
0.0
 11
1219.0
 21
9.0
 31
0.0
  0
LINE
  5
97
100
AcDbEntity
100
AcDbLine
  8
0
 62
256
370
-1
  6
ByLayer
 10
9.0
 20
9.0
 30
0.0
 11
9.0
 21
235.0
 31
0.0
  0
LINE
  5
98
100
AcDbEntity
100
AcDbLine
  8
0
 62
256
370
-1
  6
DASHED
 10
4.5
 20
239.5
 30
0.0
 11
1219.0
 21
239.5
 31
0.0
  0
LINE
  5
99
100
AcDbEntity
100
AcDbLine
  8
0
 62
256
370
-1
  6
DASHED
 10
4.5
 20
4.5
 30
0.0
 11
1219.0
 21
4.5
 31
0.0
  0
LINE
  5
9A
100
AcDbEntity
100
AcDbLine
  8
0
 62
256
370
-1
  6
DASHED
 10
4.5
 20
4.5
 30
0.0
 11
4.5
 21
239.5
 31
0.0
  0
LINE
  5
9B
100
AcDbEntity
100
AcDbLine
  8
0
 62
256
370
-1
  6
ByLayer
 10
1205.5
 20
9.0
 30
0.0
 11
1205.5
 21
235.0
 31
0.0
  0
ENDBLK
  5
9C
100
AcDbEntity
  8
0
100
AcDbBlockEnd
  0
BLOCK
  5
9D
100
AcDbEntity
  8
0
100
AcDbBlockBegin
  2
standard40-outline
 70
0
 10
0.0
 20
0.0
 30
0.0
  3
standard40-outline
  1

  0
LINE
  5
9E
100
AcDbEntity
100
AcDbLine
  8
0
 62
256
370
-1
  6
DASHEDX2
 10
0.0
 20
0.0
 30
0.0
 11
0.0
 21
244.0
 31
0.0
  0
LINE
  5
9F
100
AcDbEntity
100
AcDbLine
  8
0
 62
256
370
-1
  6
DASHEDX2
 10
0.0
 20
243.9999999999997726
 30
0.0
 11
1219.0000000000002274
 21
243.9999999999997726
 31
0.0
  0
LINE
  5
A0
100
AcDbEntity
100
AcDbLine
  8
0
 62
256
370
-1
  6
DASHEDX2
 10
0.0
 20
-0.0000000000002274
 30
0.0
 11
1219.0000000000002274
 21
-0.0000000000002274
 31
0.0
  0
LINE
  5
A1
100
AcDbEntity
100
AcDbLine
  8
0
 62
256
370
-1
  6
DASHEDX2
 10
1219.0000000000002274
 20
-0.0000000000002274
 30
0.0
 11
1219.0000000000002274
 21
243.9999999999997726
 31
0.0
  0
ENDBLK
  5
A2
100
AcDbEntity
  8
0
100
AcDbBlockEnd
  0
BLOCK
  5
A3
100
AcDbEntity
  8
0
100
AcDbBlockBegin
  2
KyotoKyomaTatami
 70
0
 10
0.0
 20
0.0
 30
0.0
  3
KyotoKyomaTatami
  1

  0
LINE
  5
A4
100
AcDbEntity
100
AcDbLine
  8
tatami
 62
256
370
-1
  6
ByLayer
 10
0.0
 20
0.0
 30
0.0
 11
0.0
 21
95.5
 31
0.0
  0
LINE
  5
A5
100
AcDbEntity
100
AcDbLine
  8
tatami
 62
256
370
-1
  6
ByLayer
 10
191.0
 20
0.0
 30
0.0
 11
191.0
 21
95.5
 31
0.0
  0
LINE
  5
A6
100
AcDbEntity
100
AcDbLine
  8
tatami
 62
256
370
-1
  6
ByLayer
 10
0.0
 20
95.5
 30
0.0
 11
191.0
 21
95.5
 31
0.0
  0
LINE
  5
A7
100
AcDbEntity
100
AcDbLine
  8
tatami
 62
256
370
-1
  6
ByLayer
 10
0.0
 20
0.0
 30
0.0
 11
191.0
 21
0.0
 31
0.0
  0
LINE
  5
A8
100
AcDbEntity
100
AcDbLine
  8
tatami
 62
256
370
-1
  6
ByLayer
 10
0.0
 20
93.0
 30
0.0
 11
191.0
 21
93.0
 31
0.0
  0
LINE
  5
A9
100
AcDbEntity
100
AcDbLine
  8
tatami
 62
256
370
-1
  6
ByLayer
 10
188.5
 20
0.0
 30
0.0
 11
188.5
 21
95.5
 31
0.0
  0
LINE
  5
AA
100
AcDbEntity
100
AcDbLine
  8
tatami
 62
256
370
-1
  6
ByLayer
 10
2.5
 20
0.0
 30
0.0
 11
2.5
 21
95.5
 31
0.0
  0
LINE
  5
AB
100
AcDbEntity
100
AcDbLine
  8
tatami
 62
256
370
-1
  6
ByLayer
 10
0.0
 20
2.5
 30
0.0
 11
191.0
 21
2.5
 31
0.0
  0
LINE
  5
AC
100
AcDbEntity
100
AcDbLine
  8
tatami
 62
256
370
-1
  6
ByLayer
 10
95.5
 20
0.0
 30
0.0
 11
95.5
 21
2.5
 31
0.0
  0
LINE
  5
AD
100
AcDbEntity
100
AcDbLine
  8
tatami
 62
256
370
-1
  6
ByLayer
 10
95.5
 20
93.0
 30
0.0
 11
95.5
 21
95.5
 31
0.0
  0
ENDBLK
  5
AE
100
AcDbEntity
  8
0
100
AcDbBlockEnd
  0
BLOCK
  5
AF
100
AcDbEntity
  8
0
100
AcDbBlockBegin
  2
KyotoKyomaTatamiHalf
 70
0
 10
0.0
 20
0.0
 30
0.0
  3
KyotoKyomaTatamiHalf
  1

  0
LINE
  5
B0
100
AcDbEntity
100
AcDbLine
  8
tatami
 62
256
370
-1
  6
ByLayer
 10
0.0
 20
95.5
 30
0.0
 11
95.5
 21
95.5
 31
0.0
  0
LINE
  5
B1
100
AcDbEntity
100
AcDbLine
  8
tatami
 62
256
370
-1
  6
ByLayer
 10
0.0
 20
0.0
 30
0.0
 11
95.5
 21
0.0
 31
0.0
  0
LINE
  5
B2
100
AcDbEntity
100
AcDbLine
  8
tatami
 62
256
370
-1
  6
ByLayer
 10
0.0
 20
0.0
 30
0.0
 11
0.0
 21
95.5
 31
0.0
  0
LINE
  5
B3
100
AcDbEntity
100
AcDbLine
  8
tatami
 62
256
370
-1
  6
ByLayer
 10
95.5
 20
0.0
 30
0.0
 11
95.5
 21
95.5
 31
0.0
  0
LINE
  5
B4
100
AcDbEntity
100
AcDbLine
  8
tatami
 62
256
370
-1
  6
ByLayer
 10
2.5
 20
0.0
 30
0.0
 11
2.5
 21
95.5
 31
0.0
  0
LINE
  5
B5
100
AcDbEntity
100
AcDbLine
  8
tatami
 62
256
370
-1
  6
ByLayer
 10
0.0
 20
93.0
 30
0.0
 11
95.5
 21
93.0
 31
0.0
  0
LINE
  5
B6
100
AcDbEntity
100
AcDbLine
  8
tatami
 62
256
370
-1
  6
ByLayer
 10
93.0
 20
0.0
 30
0.0
 11
93.0
 21
95.5
 31
0.0
  0
LINE
  5
B7
100
AcDbEntity
100
AcDbLine
  8
tatami
 62
256
370
-1
  6
ByLayer
 10
0.0
 20
2.5
 30
0.0
 11
95.5
 21
2.5
 31
0.0
  0
ENDBLK
  5
B8
100
AcDbEntity
  8
0
100
AcDbBlockEnd
  0
BLOCK
  5
B9
100
AcDbEntity
  8
0
100
AcDbBlockBegin
  2
refridge50_60
 70
0
 10
0.0
 20
0.0
 30
0.0
  3
refridge50_60
  1

  0
LINE
  5
BA
100
AcDbEntity
100
AcDbLine
  8
fixtures
 62
256
370
-1
  6
ByLayer
 10
0.0
 20
0.0
 30
0.0
 11
0.0
 21
55.0
 31
0.0
  0
LINE
  5
BB
100
AcDbEntity
100
AcDbLine
  8
fixtures
 62
256
370
-1
  6
ByLayer
 10
60.0
 20
0.0
 30
0.0
 11
60.0
 21
55.0
 31
0.0
  0
LINE
  5
BC
100
AcDbEntity
100
AcDbLine
  8
fixtures
 62
256
370
-1
  6
ByLayer
 10
0.0
 20
50.0
 30
0.0
 11
60.0
 21
50.0
 31
0.0
  0
LINE
  5
BD
100
AcDbEntity
100
AcDbLine
  8
fixtures
 62
256
370
-1
  6
ByLayer
 10
0.0
 20
0.0
 30
0.0
 11
60.0
 21
0.0
 31
0.0
  0
ARC
  5
BE
100
AcDbEntity
  8
fixtures
 62
256
370
-1
  6
ByLayer
100
AcDbCircle
 10
29.9999999999998863
 20
-68.969221137215186
 30
0.0
 40
127.5475118901492664
100
AcDbArc
 50
76.3962062313950128
 51
103.6037937686048878
  0
LINE
  5
BF
100
AcDbEntity
100
AcDbLine
  8
fixtures
 62
256
370
-1
  6
ByLayer
 10
0.0
 20
51.0
 30
0.0
 11
60.0
 21
51.0
 31
0.0
  0
MTEXT
  5
C0
100
AcDbEntity
100
AcDbMText
  8
fixtures
 62
256
370
-1
  6
ByLayer
 10
2.4027917902074023
 20
26.6901409431941374
 30
0.0
 40
20.0
 41
100.0
 71
4
 72
2
  1
Refr
  7
iso
 50
0.0
 73
1
 44
1.0
  0
ENDBLK
  5
C1
100
AcDbEntity
  8
0
100
AcDbBlockEnd
  0
BLOCK
  5
C2
100
AcDbEntity
  8
0
100
AcDbBlockBegin
  2
washer_hor
 70
0
 10
0.0
 20
0.0
 30
0.0
  3
washer_hor
  1

  0
LINE
  5
C3
100
AcDbEntity
100
AcDbLine
  8
fixtures
 62
256
370
-1
  6
ByLayer
 10
52.0
 20
0.0
 30
0.0
 11
52.0
 21
55.0
 31
0.0
  0
LINE
  5
C4
100
AcDbEntity
100
AcDbLine
  8
fixtures
 62
256
370
-1
  6
ByLayer
 10
0.0
 20
0.0
 30
0.0
 11
0.0
 21
55.0
 31
0.0
  0
LINE
  5
C5
100
AcDbEntity
100
AcDbLine
  8
fixtures
 62
256
370
-1
  6
ByLayer
 10
0.0
 20
55.0
 30
0.0
 11
52.0
 21
55.0
 31
0.0
  0
LINE
  5
C6
100
AcDbEntity
100
AcDbLine
  8
fixtures
 62
256
370
-1
  6
ByLayer
 10
0.0
 20
0.0
 30
0.0
 11
52.0
 21
0.0
 31
0.0
  0
CIRCLE
  5
C7
100
AcDbEntity
100
AcDbCircle
  8
fixtures
 62
256
370
-1
  6
ByLayer
 10
26.0
 20
27.5
 30
0.0
 40
19.0247494489576567
  0
LINE
  5
C8
100
AcDbEntity
100
AcDbLine
  8
fixtures
 62
256
370
-1
  6
ByLayer
 10
0.0
 20
5.0
 30
0.0
 11
52.0
 21
5.0
 31
0.0
  0
ENDBLK
  5
C9
100
AcDbEntity
  8
0
100
AcDbBlockEnd
  0
BLOCK
  5
CA
100
AcDbEntity
  8
0
100
AcDbBlockBegin
  2
switch-hor
 70
0
 10
0.0
 20
0.0
 30
0.0
  3
switch-hor
  1

  0
MTEXT
  5
CB
100
AcDbEntity
100
AcDbMText
  8
eletrical
 62
256
370
-1
  6
ByLayer
 10
-4.1474881859601034
 20
12.4289303324727598
 30
0.0
 40
15.0
 41
100.0
 71
4
 72
2
  1
S
  7
iso
 50
0.0
 73
1
 44
1.0
  0
LINE
  5
CC
100
AcDbEntity
100
AcDbLine
  8
eletrical
 62
256
370
-1
  6
ByLayer
 10
0.0
 20
0.0
 30
0.0
 11
0.0
 21
24.709756538595343
 31
0.0
  0
ENDBLK
  5
CD
100
AcDbEntity
  8
0
100
AcDbBlockEnd
  0
ENDSEC
  0
SECTION
  2
ENTITIES
  0
LINE
  5
CE
100
AcDbEntity
100
AcDbLine
  8
0
 62
256
370
-1
  6
ByLayer
 10
4829.2739274669020233
 20
-230.1490923077745947
 30
0.0
 11
5073.2739274669020233
 21
-230.1490923077745947
 31
0.0
  0
LINE
  5
CF
100
AcDbEntity
100
AcDbLine
  8
0
 62
256
370
-1
  6
ByLayer
 10
5193.2739274669020233
 20
-230.1490923077745947
 30
0.0
 11
5437.2739274669020233
 21
-230.1490923077750494
 31
0.0
  0
LINE
  5
D0
100
AcDbEntity
100
AcDbLine
  8
0
 62
256
370
-1
  6
ByLayer
 10
4829.2739274669020233
 20
28.8509076922254053
 30
0.0
 11
5073.2739274669020233
 21
28.8509076922254053
 31
0.0
  0
LINE
  5
D1
100
AcDbEntity
100
AcDbLine
  8
0
 62
256
370
-1
  6
ByLayer
 10
4829.2739274669020233
 20
28.8509076922254053
 30
0.0
 11
5073.2739274669020233
 21
28.8509076922254053
 31
0.0
  0
LINE
  5
D2
100
AcDbEntity
100
AcDbLine
  8
0
 62
256
370
-1
  6
ByLayer
 10
5193.2739274669020233
 20
28.8509076922254053
 30
0.0
 11
5437.2739274669020233
 21
28.8509076922254053
 31
0.0
  0
LINE
  5
D3
100
AcDbEntity
100
AcDbLine
  8
0
 62
256
370
-1
  6
ByLayer
 10
4829.2739274669020233
 20
-230.1490923077745947
 30
0.0
 11
4829.2739274669020233
 21
28.8509076922254053
 31
0.0
  0
LINE
  5
D4
100
AcDbEntity
100
AcDbLine
  8
0
 62
256
370
-1
  6
ByLayer
 10
5073.2739274669020233
 20
-230.1490923077745947
 30
0.0
 11
5073.2739274669020233
 21
28.8509076922254053
 31
0.0
  0
LINE
  5
D5
100
AcDbEntity
100
AcDbLine
  8
0
 62
256
370
-1
  6
ByLayer
 10
5193.2739274669020233
 20
-230.1490923077745947
 30
0.0
 11
5193.2739274669020233
 21
28.8509076922254053
 31
0.0
  0
LINE
  5
D6
100
AcDbEntity
100
AcDbLine
  8
0
 62
256
370
-1
  6
ByLayer
 10
5437.2739274669020233
 20
-230.1490923077745947
 30
0.0
 11
5437.2739274669020233
 21
28.8509076922254053
 31
0.0
  0
LINE
  5
D7
100
AcDbEntity
100
AcDbLine
  8
deck
 62
256
370
-1
  6
ByLayer
 10
4709.2739274669029328
 20
-250.1490923077745947
 30
0.0
 11
5557.2739274669020233
 21
-250.1490923077745947
 31
0.0
  0
LINE
  5
D8
100
AcDbEntity
100
AcDbLine
  8
deck
 62
256
370
-1
  6
ByLayer
 10
4709.2739274669029328
 20
-270.1490923077745947
 30
0.0
 11
5557.2739274669020233
 21
-270.1490923077745947
 31
0.0
  0
LINE
  5
D9
100
AcDbEntity
100
AcDbLine
  8
deck
 62
256
370
-1
  6
ByLayer
 10
4709.2739274669029328
 20
-290.1490923077745947
 30
0.0
 11
5557.2739274669020233
 21
-290.1490923077745947
 31
0.0
  0
POINT
  5
DA
100
AcDbEntity
100
AcDbPoint
  8
bogus
 62
256
370
-1
  6
ByLayer
 10
4709.2739274669029328
 20
-19.425499710104873
 30
0.0
  0
LINE
  5
DB
100
AcDbEntity
100
AcDbLine
  8
deck
 62
256
370
-1
  6
ByLayer
 10
4760.2605463052605046
 20
28.8509076922254053
 30
0.0
 11
5506.287308628543542
 21
28.8509076922254053
 31
0.0
  0
LINE
  5
DC
100
AcDbEntity
100
AcDbLine
  8
deck
 62
256
370
-1
  6
ByLayer
 10
4792.2672368860803545
 20
48.8509076922254053
 30
0.0
 11
5474.2806180477227826
 21
48.8509076922254053
 31
0.0
  0
LINE
  5
DD
100
AcDbEntity
100
AcDbLine
  8
deck
 62
256
370
-1
  6
ByLayer
 10
4659.2739274669029328
 20
-10.6689673055710728
 30
0.0
 11
5133.2739274669020233
 21
285.519105499449438
 31
0.0
  0
LINE
  5
DE
100
AcDbEntity
100
AcDbLine
  8
deck
 62
256
370
-1
  6
ByLayer
 10
4659.2739274669029328
 20
-34.2525353728129858
 30
0.0
 11
5133.2739274669020233
 21
261.9355374322075249
 31
0.0
  0
LINE
  5
DF
100
AcDbEntity
100
AcDbLine
  8
deck
 62
256
370
-1
  6
ByLayer
 10
5133.2739274669020233
 20
261.9355374322072976
 30
0.0
 11
5607.2739274669020233
 21
-34.2525353728141226
 31
0.0
  0
LINE
  5
E0
100
AcDbEntity
100
AcDbLine
  8
deck
 62
256
370
-1
  6
ByLayer
 10
5133.2739274669020233
 20
285.5191054994492106
 30
0.0
 11
5607.2739274669020233
 21
-10.6689673055722096
 31
0.0
  0
LWPOLYLINE
  5
E1
  8
deck
 62
256
370
-1
  6
ByLayer
100
AcDbEntity
100
AcDbPolyline
 90
680
 70
0
 10
4636.2533486244574306
 20
-298.0366367536445296
 10
4638.3273639449562324
 20
-298.0366367536445296
 10
4639.3643716052047239
 20
-298.0366367536445296
 10
4640.4013792654550343
 20
-298.0366367536445296
 10
4642.4753945859538362
 20
-298.0366367536445296
 10
4644.5494099064517286
 20
-298.0366367536445296
 10
4645.5864175667011295
 20
-298.0366367536445296
 10
4646.6234252269505305
 20
-298.0366367536445296
 10
4648.6974405474493324
 20
-298.0366367536445296
 10
4650.7714558679472248
 20
-298.0366367536445296
 10
4651.8084635281975352
 20
-298.0366367536445296
 10
4653.8824788486963371
 20
-298.0366367536445296
 10
4655.9564941691942295
 20
-298.0366367536445296
 10
4656.9935018294436304
 20
-298.0366367536445296
 10
4658.0305094896930314
 20
-298.0366367536445296
 10
4659.0675171499424323
 20
-300.1106520741433314
 10
4661.1415324704412342
 20
-300.1106520741433314
 10
4662.1785401306897256
 20
-300.1106520741433314
 10
4663.2155477909400361
 20
-300.1106520741433314
 10
4664.2525554511885275
 20
-300.1106520741433314
 10
4665.289563111438838
 20
-300.1106520741433314
 10
4666.3265707716873294
 20
-300.1106520741433314
 10
4667.3635784319367303
 20
-300.1106520741433314
 10
4668.4005860921861313
 20
-301.147659734392505
 10
4669.4375937524355322
 20
-301.147659734392505
 10
4670.4746014126849332
 20
-301.147659734392505
 10
4671.5116090729343341
 20
-301.147659734392505
 10
4672.5486167331837351
 20
-301.147659734392505
 10
4673.5856243934322265
 20
-301.147659734392505
 10
4674.6226320536825369
 20
-301.147659734392505
 10
4676.6966473741813388
 20
-301.147659734392505
 10
4676.6966473741813388
 20
-302.184667394641906
 10
4677.7336550344298303
 20
-302.184667394641906
 10
4678.7706626946801407
 20
-302.184667394641906
 10
4679.8076703549286322
 20
-302.184667394641906
 10
4680.8446780151780331
 20
-302.184667394641906
 10
4681.881685675427434
 20
-303.2216750548913069
 10
4682.918693335676835
 20
-303.2216750548913069
 10
4683.9557009959262359
 20
-303.2216750548913069
 10
4686.0297163164250378
 20
-303.2216750548913069
 10
4687.0667239766735293
 20
-304.2586827151404805
 10
4688.1037316369238397
 20
-304.2586827151404805
 10
4691.214754617671133
 20
-305.2956903753898814
 10
4693.2887699381699349
 20
-305.2956903753898814
 10
4695.3627852586687368
 20
-305.2956903753898814
 10
4698.4738082394160301
 20
-305.2956903753898814
 10
4701.5848312201651424
 20
-305.2956903753898814
 10
4702.6218388804136339
 20
-306.3326980356392824
 10
4704.6958542009124358
 20
-306.3326980356392824
 10
4705.7328618611618367
 20
-306.3326980356392824
 10
4706.7698695214112377
 20
-306.3326980356392824
 10
4707.8068771816606386
 20
-306.3326980356392824
 10
4708.8438848419100395
 20
-306.3326980356392824
 10
4709.8808925021594405
 20
-306.3326980356392824
 10
4710.9179001624088414
 20
-306.3326980356392824
 10
4711.9549078226573329
 20
-306.3326980356392824
 10
4712.9919154829076433
 20
-306.3326980356392824
 10
4714.0289231431561348
 20
-306.3326980356392824
 10
4715.0659308034064452
 20
-306.3326980356392824
 10
4716.1029384636549366
 20
-306.3326980356392824
 10
4717.1399461239043376
 20
-306.3326980356392824
 10
4718.1769537841537385
 20
-306.3326980356392824
 10
4719.2139614444031395
 20
-306.3326980356392824
 10
4720.2509691046525404
 20
-306.3326980356392824
 10
4721.2879767649019414
 20
-306.3326980356392824
 10
4722.3249844251513423
 20
-306.3326980356392824
 10
4723.3619920853998337
 20
-306.3326980356392824
 10
4723.3619920853998337
 20
-304.2586827151404805
 10
4724.3989997456501442
 20
-304.2586827151404805
 10
4725.4360074058986356
 20
-304.2586827151404805
 10
4726.4730150661489461
 20
-303.2216750548913069
 10
4727.5100227263974375
 20
-303.2216750548913069
 10
4728.5470303866477479
 20
-303.2216750548913069
 10
4729.5840380468962394
 20
-302.184667394641906
 10
4730.6210457071456403
 20
-302.184667394641906
 10
4731.6580533673950413
 20
-302.184667394641906
 10
4732.6950610276444422
 20
-302.184667394641906
 10
4732.6950610276444422
 20
-301.147659734392505
 10
4734.7690763481432441
 20
-301.147659734392505
 10
4735.806084008392645
 20
-301.147659734392505
 10
4736.8430916686411365
 20
-300.1106520741433314
 10
4737.8800993288914469
 20
-300.1106520741433314
 10
4738.9171069891399384
 20
-300.1106520741433314
 10
4739.9541146493902488
 20
-300.1106520741433314
 10
4740.9911223096387403
 20
-300.1106520741433314
 10
4743.0651376301375421
 20
-300.1106520741433314
 10
4744.1021452903869431
 20
-300.1106520741433314
 10
4745.139152950636344
 20
-299.0736444138939305
 10
4746.176160610885745
 20
-299.0736444138939305
 10
4747.2131682711351459
 20
-299.0736444138939305
 10
4748.2501759313836374
 20
-299.0736444138939305
 10
4749.2871835916339478
 20
-299.0736444138939305
 10
4750.3241912518824392
 20
-299.0736444138939305
 10
4751.3611989121327497
 20
-299.0736444138939305
 10
4752.3982065723812411
 20
-299.0736444138939305
 10
4753.4352142326315516
 20
-299.0736444138939305
 10
4754.472221892880043
 20
-299.0736444138939305
 10
4755.509229553129444
 20
-299.0736444138939305
 10
4756.5462372133788449
 20
-299.0736444138939305
 10
4757.5832448736282458
 20
-299.0736444138939305
 10
4758.6202525338776468
 20
-299.0736444138939305
 10
4759.6572601941270477
 20
-299.0736444138939305
 10
4760.6942678543764487
 20
-299.0736444138939305
 10
4762.7682831748752506
 20
-299.0736444138939305
 10
4764.8422984953740524
 20
-299.0736444138939305
 10
4765.8793061556225439
 20
-301.147659734392505
 10
4766.9163138158719448
 20
-301.147659734392505
 10
4767.9533214761213458
 20
-301.147659734392505
 10
4768.9903291363707467
 20
-302.184667394641906
 10
4770.0273367966201477
 20
-302.184667394641906
 10
4772.1013521171189495
 20
-302.184667394641906
 10
4773.138359777367441
 20
-302.184667394641906
 10
4774.1753674376177514
 20
-302.184667394641906
 10
4775.2123750978662429
 20
-302.184667394641906
 10
4776.2493827581165533
 20
-302.184667394641906
 10
4777.2863904183650448
 20
-302.184667394641906
 10
4778.3233980786144457
 20
-302.184667394641906
 10
4779.3604057388638466
 20
-303.2216750548913069
 10
4780.3974133991132476
 20
-303.2216750548913069
 10
4781.4344210593626485
 20
-303.2216750548913069
 10
4782.4714287196120495
 20
-303.2216750548913069
 10
4783.5084363798614504
 20
-303.2216750548913069
 10
4784.5454440401099419
 20
-304.2586827151404805
 10
4785.5824517003602523
 20
-304.2586827151404805
 10
4786.6194593606087437
 20
-304.2586827151404805
 10
4788.6934746811075456
 20
-304.2586827151404805
 10
4789.7304823413578561
 20
-304.2586827151404805
 10
4790.7674900016063475
 20
-304.2586827151404805
 10
4791.8044976618557484
 20
-304.2586827151404805
 10
4792.8415053221051494
 20
-304.2586827151404805
 10
4793.8785129823545503
 20
-304.2586827151404805
 10
4795.9525283028533522
 20
-304.2586827151404805
 10
4796.9895359631027532
 20
-304.2586827151404805
 10
4798.0265436233512446
 20
-304.2586827151404805
 10
4799.063551283601555
 20
-304.2586827151404805
 10
4801.1375666041003569
 20
-304.2586827151404805
 10
4802.1745742643488484
 20
-305.2956903753898814
 10
4803.2115819245982493
 20
-305.2956903753898814
 10
4804.2485895848476503
 20
-305.2956903753898814
 10
4805.2855972450970512
 20
-305.2956903753898814
 10
4806.3226049053464521
 20
-305.2956903753898814
 10
4807.3596125655958531
 20
-305.2956903753898814
 10
4808.396620225845254
 20
-305.2956903753898814
 10
4809.4336278860937455
 20
-305.2956903753898814
 10
4810.4706355463440559
 20
-305.2956903753898814
 10
4811.5076432065925474
 20
-305.2956903753898814
 10
4812.5446508668428578
 20
-305.2956903753898814
 10
4813.5816585270913492
 20
-305.2956903753898814
 10
4814.6186661873416597
 20
-305.2956903753898814
 10
4815.6556738475901511
 20
-305.2956903753898814
 10
4816.6926815078395521
 20
-305.2956903753898814
 10
4817.729689168088953
 20
-305.2956903753898814
 10
4817.729689168088953
 20
-303.2216750548913069
 10
4818.766696828338354
 20
-303.2216750548913069
 10
4819.8037044885877549
 20
-303.2216750548913069
 10
4820.8407121488371558
 20
-303.2216750548913069
 10
4822.9147274693350482
 20
-303.2216750548913069
 10
4824.9887427898338501
 20
-303.2216750548913069
 10
4826.0257504500841605
 20
-302.184667394641906
 10
4827.062758110332652
 20
-302.184667394641906
 10
4828.0997657705820529
 20
-302.184667394641906
 10
4829.1367734308314539
 20
-302.184667394641906
 10
4830.1737810910808548
 20
-302.184667394641906
 10
4832.2477964115796567
 20
-302.184667394641906
 10
4834.3218117320775491
 20
-302.184667394641906
 10
4836.395827052576351
 20
-304.2586827151404805
 10
4839.5068500333254633
 20
-304.2586827151404805
 10
4840.5438576935739547
 20
-304.2586827151404805
 10
4841.5808653538233557
 20
-304.2586827151404805
 10
4842.6178730140727566
 20
-304.2586827151404805
 10
4843.6548806743221576
 20
-304.2586827151404805
 10
4844.6918883345715585
 20
-304.2586827151404805
 10
4845.7288959948209595
 20
-304.2586827151404805
 10
4846.7659036550703604
 20
-304.2586827151404805
 10
4848.8399189755691623
 20
-304.2586827151404805
 10
4849.8769266358176537
 20
-304.2586827151404805
 10
4850.9139342960679642
 20
-304.2586827151404805
 10
4851.9509419563164556
 20
-304.2586827151404805
 10
4852.9879496165658566
 20
-304.2586827151404805
 10
4854.0249572768152575
 20
-304.2586827151404805
 10
4855.0619649370646584
 20
-304.2586827151404805
 10
4855.0619649370646584
 20
-302.184667394641906
 10
4856.0989725973140594
 20
-302.184667394641906
 10
4857.1359802575634603
 20
-302.184667394641906
 10
4858.1729879178128613
 20
-302.184667394641906
 10
4859.2099955780613527
 20
-302.184667394641906
 10
4859.2099955780613527
 20
-301.147659734392505
 10
4860.2470032383116632
 20
-301.147659734392505
 10
4861.2840108985601546
 20
-301.147659734392505
 10
4862.321018558810465
 20
-300.1106520741433314
 10
4863.3580262190589565
 20
-300.1106520741433314
 10
4864.3950338793092669
 20
-300.1106520741433314
 10
4865.4320415395577584
 20
-300.1106520741433314
 10
4866.4690491998071593
 20
-300.1106520741433314
 10
4867.5060568600565603
 20
-300.1106520741433314
 10
4868.5430645203059612
 20
-300.1106520741433314
 10
4871.654087501054164
 20
-300.1106520741433314
 10
4872.6910951613026555
 20
-300.1106520741433314
 10
4874.7651104818014574
 20
-300.1106520741433314
 10
4877.8761334625496602
 20
-299.0736444138939305
 10
4879.9501487830484621
 20
-299.0736444138939305
 10
4882.0241641035472639
 20
-299.0736444138939305
 10
4885.1351870842954668
 20
-299.0736444138939305
 10
4888.2462100650427601
 20
-299.0736444138939305
 10
4890.320225385541562
 20
-299.0736444138939305
 10
4893.4312483662897648
 20
-299.0736444138939305
 10
4895.5052636867876572
 20
-299.0736444138939305
 10
4898.6162866675367695
 20
-299.0736444138939305
 10
4901.7273096482840629
 20
-301.147659734392505
 10
4904.8383326290322657
 20
-301.147659734392505
 10
4911.0603785905277618
 20
-302.184667394641906
 10
4913.1343939110265637
 20
-302.184667394641906
 10
4918.3194322122735684
 20
-302.184667394641906
 10
4919.3564398725229694
 20
-302.184667394641906
 10
4920.3934475327714608
 20
-303.2216750548913069
 10
4921.4304551930217713
 20
-303.2216750548913069
 10
4922.4674628532702627
 20
-303.2216750548913069
 10
4923.5044705135205731
 20
-303.2216750548913069
 10
4924.5414781737690646
 20
-303.2216750548913069
 10
4925.578485834019375
 20
-303.2216750548913069
 10
4926.6154934942678665
 20
-303.2216750548913069
 10
4927.6525011545172674
 20
-303.2216750548913069
 10
4929.7265164750160693
 20
-303.2216750548913069
 10
4930.7635241352654702
 20
-303.2216750548913069
 10
4931.8005317955148712
 20
-304.2586827151404805
 10
4932.8375394557642721
 20
-304.2586827151404805
 10
4933.8745471160127636
 20
-304.2586827151404805
 10
4934.911554776263074
 20
-305.2956903753898814
 10
4935.9485624365115655
 20
-305.2956903753898814
 10
4936.9855700967618759
 20
-305.2956903753898814
 10
4938.0225777570103673
 20
-306.3326980356392824
 10
4940.0965930775091692
 20
-306.3326980356392824
 10
4941.1336007377585702
 20
-306.3326980356392824
 10
4942.1706083980079711
 20
-306.3326980356392824
 10
4945.2816313787552644
 20
-306.3326980356392824
 10
4948.3926543595043768
 20
-306.3326980356392824
 10
4950.4666696800031787
 20
-306.3326980356392824
 10
4952.540685000501071
 20
-306.3326980356392824
 10
4955.6517079812492739
 20
-306.3326980356392824
 10
4957.7257233017480758
 20
-307.3697056958884559
 10
4958.7627309619965672
 20
-307.3697056958884559
 10
4959.7997386222468776
 20
-307.3697056958884559
 10
4960.8367462824953691
 20
-307.3697056958884559
 10
4961.8737539427456795
 20
-307.3697056958884559
 10
4962.910761602994171
 20
-307.3697056958884559
 10
4963.9477692632435719
 20
-307.3697056958884559
 10
4964.9847769234929729
 20
-307.3697056958884559
 10
4966.0217845837423738
 20
-307.3697056958884559
 10
4967.0587922439917747
 20
-307.3697056958884559
 10
4969.1328075644905766
 20
-307.3697056958884559
 10
4970.1698152247390681
 20
-307.3697056958884559
 10
4971.2068228849893785
 20
-307.3697056958884559
 10
4972.24383054523787
 20
-307.3697056958884559
 10
4973.2808382054881804
 20
-307.3697056958884559
 10
4975.3548535259860728
 20
-307.3697056958884559
 10
4976.3918611862354737
 20
-307.3697056958884559
 10
4977.4288688464848747
 20
-307.3697056958884559
 10
4978.4658765067342756
 20
-307.3697056958884559
 10
4979.5028841669836766
 20
-307.3697056958884559
 10
4980.5398918272330775
 20
-307.3697056958884559
 10
4981.5768994874815689
 20
-307.3697056958884559
 10
4982.6139071477318794
 20
-307.3697056958884559
 10
4983.6509148079803708
 20
-307.3697056958884559
 10
4984.6879224682306813
 20
-307.3697056958884559
 10
4985.7249301284791727
 20
-307.3697056958884559
 10
4986.7619377887294831
 20
-307.3697056958884559
 10
4988.8359531092273755
 20
-307.3697056958884559
 10
4990.9099684297261774
 20
-307.3697056958884559
 10
4994.0209914104743802
 20
-307.3697056958884559
 10
4996.0950067309731821
 20
-307.3697056958884559
 10
4999.2060297117204755
 20
-307.3697056958884559
 10
5001.2800450322192773
 20
-307.3697056958884559
 10
5003.3540603527180792
 20
-307.3697056958884559
 10
5005.4280756732168811
 20
-307.3697056958884559
 10
5008.5390986539641744
 20
-307.3697056958884559
 10
5011.6501216347132868
 20
-307.3697056958884559
 10
5013.7241369552111792
 20
-307.3697056958884559
 10
5016.835159935959382
 20
-307.3697056958884559
 10
5018.9091752564581839
 20
-307.3697056958884559
 10
5020.9831905769569858
 20
-307.3697056958884559
 10
5023.0572058974557876
 20
-307.3697056958884559
 10
5024.0942135577042791
 20
-307.3697056958884559
 10
5025.13122121795368
 20
-307.3697056958884559
 10
5027.2052365384524819
 20
-307.3697056958884559
 10
5028.2422441987018829
 20
-307.3697056958884559
 10
5029.2792518589512838
 20
-307.3697056958884559
 10
5030.3162595192006847
 20
-307.3697056958884559
 10
5031.3532671794491762
 20
-307.3697056958884559
 10
5033.4272824999479781
 20
-307.3697056958884559
 10
5035.50129782044678
 20
-307.3697056958884559
 10
5036.5383054806970904
 20
-307.3697056958884559
 10
5038.6123208011949828
 20
-307.3697056958884559
 10
5039.6493284614443837
 20
-307.3697056958884559
 10
5041.7233437819431856
 20
-307.3697056958884559
 10
5042.7603514421925865
 20
-307.3697056958884559
 10
5043.7973591024419875
 20
-307.3697056958884559
 10
5044.8343667626904789
 20
-307.3697056958884559
 10
5045.8713744229407894
 20
-307.3697056958884559
 10
5046.9083820831892808
 20
-307.3697056958884559
 10
5047.9453897434395913
 20
-307.3697056958884559
 10
5048.9823974036880827
 20
-307.3697056958884559
 10
5050.0194050639374836
 20
-307.3697056958884559
 10
5051.0564127241868846
 20
-307.3697056958884559
 10
5053.1304280446856865
 20
-307.3697056958884559
 10
5056.2414510254329798
 20
-307.3697056958884559
 10
5058.3154663459317817
 20
-307.3697056958884559
 10
5061.426489326680894
 20
-307.3697056958884559
 10
5064.5375123074281873
 20
-307.3697056958884559
 10
5067.6485352881763902
 20
-307.3697056958884559
 10
5069.7225506086742826
 20
-307.3697056958884559
 10
5072.8335735894233949
 20
-307.3697056958884559
 10
5074.9075889099212873
 20
-307.3697056958884559
 10
5079.055619550918891
 20
-307.3697056958884559
 10
5082.1666425316670939
 20
-307.3697056958884559
 10
5084.2406578521658957
 20
-307.3697056958884559
 10
5086.3146731726637881
 20
-307.3697056958884559
 10
5088.38868849316259
 20
-307.3697056958884559
 10
5090.4627038136613919
 20
-307.3697056958884559
 10
5092.5367191341592843
 20
-307.3697056958884559
 10
5094.6107344546580862
 20
-307.3697056958884559
 10
5096.6847497751568881
 20
-307.3697056958884559
 10
5099.7957727559050909
 20
-307.3697056958884559
 10
5101.8697880764038928
 20
-307.3697056958884559
 10
5104.9808110571520956
 20
-307.3697056958884559
 10
5106.017818717400587
 20
-307.3697056958884559
 10
5108.0918340378993889
 20
-307.3697056958884559
 10
5109.1288416981496994
 20
-307.3697056958884559
 10
5111.2028570186475918
 20
-307.3697056958884559
 10
5112.2398646788969927
 20
-307.3697056958884559
 10
5114.3138799993957946
 20
-308.4067133561378569
 10
5115.3508876596451955
 20
-308.4067133561378569
 10
5116.3878953198945965
 20
-308.4067133561378569
 10
5117.4249029801430879
 20
-308.4067133561378569
 10
5118.4619106403933984
 20
-308.4067133561378569
 10
5119.4989183006418898
 20
-308.4067133561378569
 10
5120.5359259608922002
 20
-308.4067133561378569
 10
5121.5729336211406917
 20
-308.4067133561378569
 10
5122.6099412813910021
 20
-308.4067133561378569
 10
5123.6469489416394936
 20
-308.4067133561378569
 10
5124.6839566018888945
 20
-308.4067133561378569
 10
5125.7209642621382955
 20
-308.4067133561378569
 10
5127.7949795826370973
 20
-308.4067133561378569
 10
5129.8689949031358992
 20
-308.4067133561378569
 10
5131.9430102236347011
 20
-308.4067133561378569
 10
5134.017025544133503
 20
-308.4067133561378569
 10
5136.0910408646313954
 20
-308.4067133561378569
 10
5137.1280485248807963
 20
-308.4067133561378569
 10
5138.1650561851301973
 20
-308.4067133561378569
 10
5140.2390715056289991
 20
-308.4067133561378569
 10
5141.2760791658784001
 20
-308.4067133561378569
 10
5142.3130868261268915
 20
-308.4067133561378569
 10
5144.3871021466256934
 20
-308.4067133561378569
 10
5147.4981251273748057
 20
-308.4067133561378569
 10
5149.5721404478726981
 20
-308.4067133561378569
 10
5153.7201710888703019
 20
-306.3326980356392824
 10
5157.8682017298669962
 20
-306.3326980356392824
 10
5160.979224710615199
 20
-306.3326980356392824
 10
5163.0532400311140009
 20
-306.3326980356392824
 10
5166.1642630118622037
 20
-306.3326980356392824
 10
5169.275285992609497
 20
-305.2956903753898814
 10
5172.3863089733586094
 20
-305.2956903753898814
 10
5174.4603242938565018
 20
-305.2956903753898814
 10
5176.5343396143553036
 20
-305.2956903753898814
 10
5178.608354934853196
 20
-305.2956903753898814
 10
5179.6453625951035065
 20
-305.2956903753898814
 10
5181.7193779156023083
 20
-304.2586827151404805
 10
5182.7563855758507998
 20
-304.2586827151404805
 10
5183.7933932361011102
 20
-304.2586827151404805
 10
5184.8304008963496017
 20
-304.2586827151404805
 10
5186.9044162168484036
 20
-304.2586827151404805
 10
5187.9414238770978045
 20
-303.2216750548913069
 10
5188.9784315373472054
 20
-303.2216750548913069
 10
5190.0154391975966064
 20
-303.2216750548913069
 10
5192.0894545180944988
 20
-303.2216750548913069
 10
5194.1634698385933007
 20
-303.2216750548913069
 10
5195.2004774988436111
 20
-303.2216750548913069
 10
5196.2374851590921025
 20
-303.2216750548913069
 10
5198.3115004795909044
 20
-303.2216750548913069
 10
5199.3485081398403054
 20
-303.2216750548913069
 10
5200.3855158000897063
 20
-303.2216750548913069
 10
5202.4595311205885082
 20
-303.2216750548913069
 10
5204.5335464410873101
 20
-303.2216750548913069
 10
5205.5705541013358015
 20
-303.2216750548913069
 10
5207.6445694218346034
 20
-303.2216750548913069
 10
5209.7185847423334053
 20
-303.2216750548913069
 10
5212.8296077230816081
 20
-303.2216750548913069
 10
5213.8666153833310091
 20
-303.2216750548913069
 10
5215.940630703829811
 20
-303.2216750548913069
 10
5221.1256690050759062
 20
-303.2216750548913069
 10
5225.2736996460735099
 20
-303.2216750548913069
 10
5227.3477149665723118
 20
-303.2216750548913069
 10
5229.4217302870711137
 20
-303.2216750548913069
 10
5231.4957456075699156
 20
-303.2216750548913069
 10
5234.6067685883172089
 20
-303.2216750548913069
 10
5236.6807839088160108
 20
-303.2216750548913069
 10
5237.7177915690654117
 20
-303.2216750548913069
 10
5239.7918068895642136
 20
-303.2216750548913069
 10
5240.8288145498136146
 20
-303.2216750548913069
 10
5243.9398375305609079
 20
-303.2216750548913069
 10
5244.9768451908112183
 20
-303.2216750548913069
 10
5246.0138528510597098
 20
-303.2216750548913069
 10
5247.0508605113091107
 20
-305.2956903753898814
 10
5249.1248758318079126
 20
-305.2956903753898814
 10
5250.1618834920573136
 20
-305.2956903753898814
 10
5251.1988911523067145
 20
-305.2956903753898814
 10
5253.2729064728046069
 20
-305.2956903753898814
 10
5255.3469217933034088
 20
-305.2956903753898814
 10
5257.4209371138022107
 20
-305.2956903753898814
 10
5259.4949524343010125
 20
-305.2956903753898814
 10
5261.5689677547998144
 20
-305.2956903753898814
 10
5263.6429830752986163
 20
-305.2956903753898814
 10
5265.7169983957974182
 20
-305.2956903753898814
 10
5269.865029036795022
 20
-305.2956903753898814
 10
5272.9760520175423153
 20
-306.3326980356392824
 10
5274.0130596777917162
 20
-306.3326980356392824
 10
5276.0870749982905181
 20
-306.3326980356392824
 10
5279.198097979038721
 20
-307.3697056958884559
 10
5281.2721132995375228
 20
-307.3697056958884559
 10
5284.3831362802848162
 20
-307.3697056958884559
 10
5287.494159261033019
 20
-307.3697056958884559
 10
5288.5311669212824199
 20
-308.4067133561378569
 10
5289.5681745815309114
 20
-308.4067133561378569
 10
5290.6051822417812218
 20
-308.4067133561378569
 10
5291.6421899020297133
 20
-308.4067133561378569
 10
5292.6791975622800237
 20
-308.4067133561378569
 10
5293.7162052225285152
 20
-308.4067133561378569
 10
5294.7532128827788256
 20
-308.4067133561378569
 10
5295.790220543027317
 20
-308.4067133561378569
 10
5296.827228203276718
 20
-308.4067133561378569
 10
5297.8642358635261189
 20
-308.4067133561378569
 10
5298.9012435237755199
 20
-308.4067133561378569
 10
5300.9752588442743217
 20
-308.4067133561378569
 10
5302.0122665045237227
 20
-308.4067133561378569
 10
5303.0492741647722141
 20
-308.4067133561378569
 10
5305.123289485271016
 20
-308.4067133561378569
 10
5308.2343124660192188
 20
-308.4067133561378569
 10
5310.3083277865180207
 20
-308.4067133561378569
 10
5311.3453354467674217
 20
-308.4067133561378569
 10
5313.4193507672662236
 20
-308.4067133561378569
 10
5315.4933660877650254
 20
-308.4067133561378569
 10
5316.5303737480135169
 20
-308.4067133561378569
 10
5317.5673814082638273
 20
-308.4067133561378569
 10
5318.6043890685123188
 20
-308.4067133561378569
 10
5320.6784043890111207
 20
-308.4067133561378569
 10
5322.7524197095099225
 20
-308.4067133561378569
 10
5325.8634426902581254
 20
-308.4067133561378569
 10
5326.9004503505075263
 20
-308.4067133561378569
 10
5331.0484809915051301
 20
-308.4067133561378569
 10
5333.1224963120030225
 20
-308.4067133561378569
 10
5334.1595039722524234
 20
-308.4067133561378569
 10
5336.2335192927512253
 20
-308.4067133561378569
 10
5338.3075346132500272
 20
-308.4067133561378569
 10
5339.3445422734985186
 20
-308.4067133561378569
 10
5340.3815499337488291
 20
-308.4067133561378569
 10
5342.4555652542476309
 20
-308.4067133561378569
 10
5343.4925729144961224
 20
-308.4067133561378569
 10
5344.5295805747464328
 20
-308.4067133561378569
 10
5346.6035958952443252
 20
-308.4067133561378569
 10
5347.6406035554937262
 20
-308.4067133561378569
 10
5348.6776112157431271
 20
-308.4067133561378569
 10
5350.751626536241929
 20
-308.4067133561378569
 10
5352.8256418567398214
 20
-308.4067133561378569
 10
5353.8626495169901318
 20
-308.4067133561378569
 10
5354.8996571772386233
 20
-308.4067133561378569
 10
5356.9736724977374251
 20
-308.4067133561378569
 10
5358.0106801579868261
 20
-308.4067133561378569
 10
5359.047687818236227
 20
-308.4067133561378569
 10
5360.084695478485628
 20
-308.4067133561378569
 10
5361.1217031387350289
 20
-308.4067133561378569
 10
5363.1957184592338308
 20
-308.4067133561378569
 10
5364.2327261194823222
 20
-308.4067133561378569
 10
5366.3067414399811241
 20
-308.4067133561378569
 10
5367.3437491002314346
 20
-308.4067133561378569
 10
5368.380756760479926
 20
-308.4067133561378569
 10
5369.4177644207302365
 20
-308.4067133561378569
 10
5371.4917797412281288
 20
-306.3326980356392824
 10
5373.5657950617269307
 20
-306.3326980356392824
 10
5374.6028027219763317
 20
-306.3326980356392824
 10
5375.6398103822257326
 20
-306.3326980356392824
 10
5376.6768180424751336
 20
-306.3326980356392824
 10
5378.7508333629739354
 20
-305.2956903753898814
 10
5379.7878410232224269
 20
-305.2956903753898814
 10
5380.8248486834727373
 20
-305.2956903753898814
 10
5381.8618563437212288
 20
-304.2586827151404805
 10
5382.8988640039706297
 20
-304.2586827151404805
 10
5383.9358716642200307
 20
-304.2586827151404805
 10
5384.9728793244694316
 20
-304.2586827151404805
 10
5387.0468946449682335
 20
-303.2216750548913069
 10
5388.0839023052176344
 20
-303.2216750548913069
 10
5389.1209099654661259
 20
-303.2216750548913069
 10
5391.1949252859649278
 20
-303.2216750548913069
 10
5394.3059482667131306
 20
-302.184667394641906
 10
5395.3429559269625315
 20
-301.147659734392505
 10
5397.4169712474613334
 20
-301.147659734392505
 10
5401.5650018884589372
 20
-301.147659734392505
 10
5403.6390172089577391
 20
-301.147659734392505
 10
5404.6760248692062305
 20
-301.147659734392505
 10
5406.7500401897050324
 20
-301.147659734392505
 10
5407.7870478499544333
 20
-301.147659734392505
 10
5411.9350784909520371
 20
-301.147659734392505
 10
5412.972086151201438
 20
-301.147659734392505
 10
5415.0461014717002399
 20
-301.147659734392505
 10
5416.0831091319487314
 20
-301.147659734392505
 10
5417.1201167921990418
 20
-301.147659734392505
 10
5418.1571244524475333
 20
-301.147659734392505
 10
5419.1941321126969342
 20
-301.147659734392505
 10
5420.2311397729463351
 20
-301.147659734392505
 10
5421.2681474331957361
 20
-301.147659734392505
 10
5422.305155093445137
 20
-301.147659734392505
 10
5424.3791704139439389
 20
-301.147659734392505
 10
5425.4161780741924304
 20
-301.147659734392505
 10
5426.4531857344427408
 20
-301.147659734392505
 10
5428.5272010549415427
 20
-301.147659734392505
 10
5429.5642087151900341
 20
-303.2216750548913069
 10
5430.6012163754403446
 20
-303.2216750548913069
 10
5432.675231695938237
 20
-303.2216750548913069
 10
5433.7122393561876379
 20
-303.2216750548913069
 10
5435.7862546766864398
 20
-304.2586827151404805
 10
5436.8232623369358407
 20
-304.2586827151404805
 10
5437.8602699971852417
 20
-304.2586827151404805
 10
5439.9342853176840435
 20
-304.2586827151404805
 10
5440.971292977932535
 20
-304.2586827151404805
 10
5442.0083006381828454
 20
-304.2586827151404805
 10
5443.0453082984313369
 20
-305.2956903753898814
 10
5444.0823159586807378
 20
-305.2956903753898814
 10
5445.1193236189301388
 20
-305.2956903753898814
 10
5446.1563312791795397
 20
-305.2956903753898814
 10
5447.1933389394289406
 20
-305.2956903753898814
 10
5448.2303465996783416
 20
-305.2956903753898814
 10
5451.3413695804265444
 20
-305.2956903753898814
 10
5453.4153849009253463
 20
-305.2956903753898814
 10
5454.4523925611738377
 20
-305.2956903753898814
 10
5455.4894002214241482
 20
-306.3326980356392824
 10
5456.5264078816726396
 20
-306.3326980356392824
 10
5459.6374308624208425
 20
-306.3326980356392824
 10
5460.6744385226702434
 20
-307.3697056958884559
 10
5461.7114461829196443
 20
-307.3697056958884559
 10
5463.7854615034175367
 20
-307.3697056958884559
 10
5465.8594768239163386
 20
-307.3697056958884559
 10
5467.9334921444151405
 20
-308.4067133561378569
 10
5470.0075074649139424
 20
-308.4067133561378569
 10
5472.0815227854127443
 20
-308.4067133561378569
 10
5474.1555381059115462
 20
-308.4067133561378569
 10
5475.1925457661600376
 20
-308.4067133561378569
 10
5476.229553426410348
 20
-308.4067133561378569
 10
5477.2665610866588395
 20
-308.4067133561378569
 10
5479.3405764071576414
 20
-308.4067133561378569
 10
5480.3775840674079518
 20
-308.4067133561378569
 10
5481.4145917276564433
 20
-308.4067133561378569
 10
5482.4515993879058442
 20
-308.4067133561378569
 10
5483.4886070481552451
 20
-308.4067133561378569
 10
5484.5256147084046461
 20
-308.4067133561378569
 10
5486.5996300289025385
 20
-308.4067133561378569
 10
5487.6366376891528489
 20
-308.4067133561378569
 10
5489.7106530096516508
 20
-308.4067133561378569
 10
5490.7476606699001422
 20
-309.4437210163872578
 10
5491.7846683301504527
 20
-309.4437210163872578
 10
5493.8586836506483451
 20
-309.4437210163872578
 10
5495.9326989711471469
 20
-309.4437210163872578
 10
5496.9697066313965479
 20
-309.4437210163872578
 10
5499.0437219518953498
 20
-309.4437210163872578
 10
5500.0807296121438412
 20
-309.4437210163872578
 10
5502.1547449326426431
 20
-309.4437210163872578
 10
5504.228760253141445
 20
-309.4437210163872578
 10
5505.2657679133908459
 20
-309.4437210163872578
 10
5507.3397832338896478
 20
-309.4437210163872578
 10
5508.3767908941390488
 20
-309.4437210163872578
 10
5511.4878138748863421
 20
-309.4437210163872578
 10
5512.5248215351366525
 20
-309.4437210163872578
 10
5514.5988368556354544
 20
-309.4437210163872578
 10
5515.6358445158839459
 20
-309.4437210163872578
 10
5516.6728521761342563
 20
-309.4437210163872578
 10
5517.7098598363827477
 20
-309.4437210163872578
 10
5519.7838751568815496
 20
-309.4437210163872578
 10
5521.8578904773803515
 20
-309.4437210163872578
 10
5523.9319057978791534
 20
-309.4437210163872578
 10
5524.9689134581276448
 20
-309.4437210163872578
 10
5526.0059211183779553
 20
-309.4437210163872578
 10
5528.0799364388767572
 20
-309.4437210163872578
 10
5529.1169440991252486
 20
-309.4437210163872578
 10
5531.1909594196240505
 20
-309.4437210163872578
 10
5533.2649747401228524
 20
-309.4437210163872578
 10
5534.3019824003722533
 20
-309.4437210163872578
 10
5535.3389900606216543
 20
-309.4437210163872578
 10
5535.3389900606216543
 20
-307.3697056958884559
 10
5536.3759977208701457
 20
-307.3697056958884559
 10
5537.4130053811204561
 20
-307.3697056958884559
 10
5538.4500130413689476
 20
-307.3697056958884559
 10
5539.487020701619258
 20
-307.3697056958884559
 10
5540.5240283618677495
 20
-306.3326980356392824
 10
5541.5610360221180599
 20
-306.3326980356392824
 10
5542.5980436823665514
 20
-306.3326980356392824
 10
5543.6350513426159523
 20
-306.3326980356392824
 10
5544.6720590028653532
 20
-306.3326980356392824
 10
5545.7090666631147542
 20
-306.3326980356392824
 10
5546.7460743233641551
 20
-305.2956903753898814
 10
5548.820089643862957
 20
-305.2956903753898814
 10
5549.8570973041114485
 20
-305.2956903753898814
 10
5550.8941049643617589
 20
-305.2956903753898814
 10
5552.9681202848605608
 20
-305.2956903753898814
 10
5554.0051279451090522
 20
-305.2956903753898814
 10
5555.0421356053584532
 20
-305.2956903753898814
 10
5557.1161509258572551
 20
-305.2956903753898814
 10
5560.2271739066054579
 20
-305.2956903753898814
 10
5562.3011892271042598
 20
-305.2956903753898814
 10
5564.3752045476030617
 20
-305.2956903753898814
 10
5566.4492198681018635
 20
-304.2586827151404805
 10
5567.486227528350355
 20
-304.2586827151404805
 10
5568.5232351885997559
 20
-304.2586827151404805
 10
5569.5602428488491569
 20
-304.2586827151404805
 10
5570.5972505090985578
 20
-304.2586827151404805
 10
5571.6342581693479588
 20
-304.2586827151404805
 10
5572.6712658295973597
 20
-304.2586827151404805
 10
5574.7452811500952521
 20
-304.2586827151404805
 10
5576.819296470594054
 20
-304.2586827151404805
 10
5577.8563041308443644
 20
-304.2586827151404805
 10
5578.8933117910928559
 20
-304.2586827151404805
 10
5579.9303194513422568
 20
-304.2586827151404805
 10
5580.9673271115916577
 20
-304.2586827151404805
 10
5583.0413424320904596
 20
-304.2586827151404805
 10
5585.1153577525892615
 20
-304.2586827151404805
 10
5586.152365412837753
 20
-304.2586827151404805
 10
5588.2263807333365548
 20
-304.2586827151404805
 10
5589.2633883935868653
 20
-304.2586827151404805
 10
5590.3003960538353567
 20
-304.2586827151404805
 10
5591.3374037140847577
 20
-304.2586827151404805
 10
5593.4114190345835596
 20
-304.2586827151404805
 10
5594.4484266948329605
 20
-304.2586827151404805
 10
5595.4854343550823614
 20
-304.2586827151404805
 10
5596.5224420153317624
 20
-304.2586827151404805
 10
5597.5594496755802538
 20
-304.2586827151404805
 10
5599.6334649960790557
 20
-304.2586827151404805
 10
5600.6704726563293661
 20
-304.2586827151404805
 10
5602.744487976828168
 20
-303.2216750548913069
 10
5605.8555109575754614
 20
-303.2216750548913069
 10
5607.9295262780742632
 20
-303.2216750548913069
 10
5608.9665339383236642
 20
-303.2216750548913069
 10
5610.0035415985730651
 20
-303.2216750548913069
 10
5611.0405492588215566
 20
-303.2216750548913069
 10
5612.077556919071867
 20
-303.2216750548913069
 10
5613.1145645793203585
 20
-303.2216750548913069
 10
5614.1515722395706689
 20
-303.2216750548913069
 10
5616.2255875600685613
 20
-303.2216750548913069
 10
5618.2996028805673632
 20
-303.2216750548913069
 10
5619.3366105408167641
 20
-303.2216750548913069
 10
5621.410625861315566
 20
-303.2216750548913069
 10
5623.4846411818143679
 20
-303.2216750548913069
 10
5624.5216488420628593
 20
-303.2216750548913069
 10
5625.5586565023131698
 20
-303.2216750548913069
 10
5627.6326718228119717
 20
-303.2216750548913069
 10
5630.743694803559265
 20
-303.2216750548913069
 10
5632.8177101240580669
 20
-303.2216750548913069
 10
5634.8917254445568688
 20
-303.2216750548913069
 10
5638.0027484253041621
 20
-303.2216750548913069
 10
5640.076763745802964
 20
-303.2216750548913069
 10
5643.1877867265511668
 20
-303.2216750548913069
 10
5644.2247943868005677
 20
-303.2216750548913069
 10
5645.2618020470499687
 20
-303.2216750548913069
 10
5646.2988097072993696
 20
-303.2216750548913069
 10
5647.3358173675478611
 20
-303.2216750548913069
 10
5648.3728250277981715
 20
-303.2216750548913069
 10
5649.409832688046663
 20
-303.2216750548913069
 10
5653.5578633290442667
 20
-303.2216750548913069
 10
5656.6688863097924695
 20
-303.2216750548913069
 10
5659.7799092905406724
 20
-305.2956903753898814
 10
5662.8909322712879657
 20
-305.2956903753898814
 10
5671.1869935532831732
 20
-305.2956903753898814
 10
5674.2980165340304666
 20
-306.3326980356392824
 10
5677.4090395147795789
 20
-306.3326980356392824
 10
5678.4460471750280703
 20
-306.3326980356392824
 10
5679.4830548352774713
 20
-306.3326980356392824
 10
5679.4830548352774713
 20
-307.3697056958884559
 10
5680.5200624955268722
 20
-307.3697056958884559
 10
5680.5200624955268722
 20
-308.4067133561378569
 10
5681.5570701557762732
 20
-310.4807286766364314
 10
5681.5570701557762732
 20
-311.5177363368858323
 10
5682.5940778160256741
 20
-312.5547439971352333
 10
5682.5940778160256741
 20
-313.5917516573844068
 10
5682.5940778160256741
 20
-314.6287593176338078
 10
5683.6310854762750751
 20
-314.6287593176338078
  0
LINE
  5
E2
100
AcDbEntity
100
AcDbLine
  8
deck
 62
256
370
-1
  6
DASHED2
 10
5547.2739274669020233
 20
-230.1490923077745947
 30
0.0
 11
5547.2739274669020233
 21
-365.1490923077745947
 31
0.0
  0
LINE
  5
E3
100
AcDbEntity
100
AcDbLine
  8
deck
 62
256
370
-1
  6
DASHED2
 10
5447.2739274669020233
 20
-230.14909230777414
 30
0.0
 11
5447.2739274669020233
 21
-365.1490923077745947
 31
0.0
  0
LINE
  5
E4
100
AcDbEntity
100
AcDbLine
  8
deck
 62
256
370
-1
  6
DASHED2
 10
5427.2739274669020233
 20
-230.14909230777414
 30
0.0
 11
5427.2739274669020233
 21
-365.1490923077745947
 31
0.0
  0
LINE
  5
E5
100
AcDbEntity
100
AcDbLine
  8
deck
 62
256
370
-1
  6
DASHED2
 10
5325.2739274669020233
 20
-230.1490923077743673
 30
0.0
 11
5325.2739274669020233
 21
-365.1490923077743673
 31
0.0
  0
LINE
  5
E6
100
AcDbEntity
100
AcDbLine
  8
deck
 62
256
370
-1
  6
DASHED2
 10
5305.2739274669020233
 20
-230.1490923077743673
 30
0.0
 11
5305.2739274669020233
 21
-365.1490923077743673
 31
0.0
  0
LINE
  5
E7
100
AcDbEntity
100
AcDbLine
  8
deck
 62
256
370
-1
  6
DASHED2
 10
5205.2739274669020233
 20
-230.1490923077743673
 30
0.0
 11
5205.2739274669020233
 21
-365.1490923077739126
 31
0.0
  0
LINE
  5
E8
100
AcDbEntity
100
AcDbLine
  8
deck
 62
256
370
-1
  6
DASHED2
 10
5185.2739274669020233
 20
-230.1490923077743673
 30
0.0
 11
5185.2739274669020233
 21
-365.1490923077739126
 31
0.0
  0
LINE
  5
E9
100
AcDbEntity
100
AcDbLine
  8
deck
 62
256
370
-1
  6
DASHED2
 10
5085.2739274669020233
 20
-230.1490923077743673
 30
0.0
 11
5085.2739274669020233
 21
-365.1490923077739126
 31
0.0
  0
LINE
  5
EA
100
AcDbEntity
100
AcDbLine
  8
deck
 62
256
370
-1
  6
DASHED2
 10
5065.2739274669020233
 20
-230.1490923077743673
 30
0.0
 11
5065.2739274669020233
 21
-365.1490923077739126
 31
0.0
  0
LINE
  5
EB
100
AcDbEntity
100
AcDbLine
  8
deck
 62
256
370
-1
  6
DASHED2
 10
4961.2739274669020233
 20
-230.1490923077743673
 30
0.0
 11
4961.2739274669020233
 21
-365.1490923077743673
 31
0.0
  0
LINE
  5
EC
100
AcDbEntity
100
AcDbLine
  8
deck
 62
256
370
-1
  6
DASHED2
 10
4941.2739274669020233
 20
-230.1490923077743673
 30
0.0
 11
4941.2739274669020233
 21
-365.1490923077743673
 31
0.0
  0
LINE
  5
ED
100
AcDbEntity
100
AcDbLine
  8
deck
 62
256
370
-1
  6
DASHED2
 10
4841.2739274669020233
 20
-230.1490923077745947
 30
0.0
 11
4841.2739274669020233
 21
-365.1490923077745947
 31
0.0
  0
LINE
  5
EE
100
AcDbEntity
100
AcDbLine
  8
deck
 62
256
370
-1
  6
DASHED2
 10
4821.2739274669020233
 20
-230.1490923077745947
 30
0.0
 11
4821.2739274669020233
 21
-365.1490923077745947
 31
0.0
  0
LINE
  5
EF
100
AcDbEntity
100
AcDbLine
  8
deck
 62
256
370
-1
  6
DASHED2
 10
4719.2739274669029328
 20
-230.1490923077743673
 30
0.0
 11
4719.2739274669029328
 21
-365.1490923077739126
 31
0.0
  0
LINE
  5
F0
100
AcDbEntity
100
AcDbLine
  8
deck
 62
256
370
-1
  6
ByLayer
 10
4694.2739274669020233
 20
-210.1490923077745947
 30
0.0
 11
5572.2739274669020233
 21
-210.1490923077745947
 31
0.0
  0
LINE
  5
F1
100
AcDbEntity
100
AcDbLine
  8
deck
 62
256
370
-1
  6
ByLayer
 10
4694.2739274669020233
 20
-230.1490923077745947
 30
0.0
 11
5572.2739274669020233
 21
-230.1490923077745947
 31
0.0
  0
LINE
  5
F2
100
AcDbEntity
100
AcDbLine
  8
deck
 62
256
370
-1
  6
ByLayer
 10
5572.2739274669020233
 20
-230.1490923077745947
 30
0.0
 11
5572.2739274669020233
 21
-12.3821080559874872
 31
0.0
  0
LINE
  5
F3
100
AcDbEntity
100
AcDbLine
  8
deck
 62
256
370
-1
  6
ByLayer
 10
5557.2739274669020233
 20
-3.0090677773476955
 30
0.0
 11
5557.2739274669020233
 21
-210.1490923077745947
 31
0.0
  0
LINE
  5
F4
100
AcDbEntity
100
AcDbLine
  8
deck
 62
256
370
-1
  6
ByLayer
 10
4694.2739274669020233
 20
-230.1490923077745947
 30
0.0
 11
4694.2739274669020233
 21
-12.3821080559874872
 31
0.0
  0
LINE
  5
F5
100
AcDbEntity
100
AcDbLine
  8
deck
 62
256
370
-1
  6
ByLayer
 10
4709.2739274669029328
 20
-3.009067777346786
 30
0.0
 11
4709.2739274669029328
 21
-210.1490923077743673
 31
0.0
  0
LINE
  5
F6
100
AcDbEntity
100
AcDbLine
  8
deck
 62
256
370
-1
  6
ByLayer
 10
5607.2739274669020233
 20
-34.2525353728141226
 30
0.0
 11
5607.2739274669020233
 21
-10.6689673055722096
 31
0.0
  0
LINE
  5
F7
100
AcDbEntity
100
AcDbLine
  8
deck
 62
256
370
-1
  6
ByLayer
 10
4659.2739274669029328
 20
-34.2525353728129858
 30
0.0
 11
4659.2739274669029328
 21
-10.6689673055710728
 31
0.0
  0
LINE
  5
F8
100
AcDbEntity
100
AcDbLine
  8
deck
 62
256
370
-1
  6
ByLayer
 10
5138.2739274669020233
 20
57.8711464685824239
 30
0.0
 11
5299.059572970312729
 21
158.3411685706215621
 31
0.0
  0
LINE
  5
F9
100
AcDbEntity
100
AcDbLine
  8
deck
 62
256
370
-1
  6
ByLayer
 10
4967.4882819634913176
 20
158.3411685706217895
 30
0.0
 11
5128.2739274669020233
 21
57.8711464685826513
 31
0.0
  0
LINE
  5
FA
100
AcDbEntity
100
AcDbLine
  8
deck
 62
256
370
-1
  6
ByLayer
 10
5142.7093270409013712
 20
48.8509076922254053
 30
0.0
 11
5308.4949725443120769
 21
152.4452765538111407
 31
0.0
  0
LINE
  5
FB
100
AcDbEntity
100
AcDbLine
  8
deck
 62
256
370
-1
  6
ByLayer
 10
4958.0528823894919697
 20
152.4452765538111407
 30
0.0
 11
5123.8385278929026754
 21
48.8509076922254053
 31
0.0
  0
LINE
  5
FC
100
AcDbEntity
100
AcDbLine
  8
deck
 62
256
370
-1
  6
ByLayer
 10
5138.2739274669020233
 20
48.8509076922254053
 30
0.0
 11
5138.2739274669020233
 21
258.8111906726607003
 31
0.0
  0
LINE
  5
FD
100
AcDbEntity
100
AcDbLine
  8
deck
 62
256
370
-1
  6
ByLayer
 10
5128.2739274669020233
 20
48.8509076922254053
 30
0.0
 11
5128.2739274669020233
 21
258.8111906726609277
 31
0.0
  0
LINE
  5
FE
100
AcDbEntity
100
AcDbLine
  8
deck
 62
256
370
-1
  6
ByLayer
 10
4709.2739274669029328
 20
-290.1490923077745947
 30
0.0
 11
4709.2739274669029328
 21
-230.1490923077745947
 31
0.0
  0
LINE
  5
FF
100
AcDbEntity
100
AcDbLine
  8
deck
 62
256
370
-1
  6
ByLayer
 10
5557.2739274669020233
 20
-290.1490923077745947
 30
0.0
 11
5557.2739274669020233
 21
-230.1490923077745947
 31
0.0
  0
LINE
  5
100
100
AcDbEntity
100
AcDbLine
  8
deck
 62
256
370
-1
  6
ByLayer
 10
4699.2739274669029328
 20
-230.1490923077743673
 30
0.0
 11
4699.2739274669029328
 21
-305.2956903753898814
 31
0.0
  0
LINE
  5
101
100
AcDbEntity
100
AcDbLine
  8
deck
 62
256
370
-1
  6
ByLayer
 10
5567.2739274669020233
 20
-230.1490923077745947
 30
0.0
 11
5567.2739274669020233
 21
-304.2586827151404805
 31
0.0
  0
LINE
  5
102
100
AcDbEntity
100
AcDbLine
  8
deck
 62
256
370
-1
  6
DASHED2
 10
4699.2739274669029328
 20
-305.2956903753898814
 30
0.0
 11
4699.2739274669029328
 21
-365.1490923077739126
 31
0.0
  0
LINE
  5
103
100
AcDbEntity
100
AcDbLine
  8
deck
 62
256
370
-1
  6
DASHED2
 10
5567.2739274669020233
 20
-304.2586827151404805
 30
0.0
 11
5567.2739274669020233
 21
-365.1490923077745947
 31
0.0
  0
LINE
  5
104
100
AcDbEntity
100
AcDbLine
  8
deck
 62
256
370
-1
  6
DASHDOT2
 10
4699.2739274669029328
 20
-365.1490923077739126
 30
0.0
 11
4719.2739274669029328
 21
-365.1490923077739126
 31
0.0
  0
LINE
  5
105
100
AcDbEntity
100
AcDbLine
  8
deck
 62
256
370
-1
  6
DASHDOT2
 10
4821.2739274669020233
 20
-365.1490923077745947
 30
0.0
 11
4841.2739274669020233
 21
-365.1490923077745947
 31
0.0
  0
LINE
  5
106
100
AcDbEntity
100
AcDbLine
  8
deck
 62
256
370
-1
  6
DASHDOT2
 10
4941.2739274669020233
 20
-365.1490923077743673
 30
0.0
 11
4961.2739274669020233
 21
-365.1490923077743673
 31
0.0
  0
LINE
  5
107
100
AcDbEntity
100
AcDbLine
  8
deck
 62
256
370
-1
  6
DASHDOT2
 10
5065.2739274669020233
 20
-365.1490923077739126
 30
0.0
 11
5085.2739274669020233
 21
-365.1490923077739126
 31
0.0
  0
LINE
  5
108
100
AcDbEntity
100
AcDbLine
  8
deck
 62
256
370
-1
  6
DASHDOT2
 10
5185.2739274669020233
 20
-365.1490923077739126
 30
0.0
 11
5205.2739274669020233
 21
-365.1490923077739126
 31
0.0
  0
LINE
  5
109
100
AcDbEntity
100
AcDbLine
  8
deck
 62
256
370
-1
  6
DASHDOT2
 10
5305.2739274669020233
 20
-365.1490923077743673
 30
0.0
 11
5325.2739274669020233
 21
-365.1490923077743673
 31
0.0
  0
LINE
  5
10A
100
AcDbEntity
100
AcDbLine
  8
deck
 62
256
370
-1
  6
DASHDOT2
 10
5427.2739274669020233
 20
-365.1490923077745947
 30
0.0
 11
5447.2739274669020233
 21
-365.1490923077745947
 31
0.0
  0
LINE
  5
10B
100
AcDbEntity
100
AcDbLine
  8
deck
 62
256
370
-1
  6
DASHDOT2
 10
5547.2739274669020233
 20
-365.1490923077745947
 30
0.0
 11
5567.2739274669020233
 21
-365.1490923077745947
 31
0.0
  0
MTEXT
  5
10C
100
AcDbEntity
100
AcDbMText
  8
text
 62
256
370
-1
  6
ByLayer
 10
5050.6418358708742744
 20
-435.0025508198540365
 30
0.0
 40
20.0
 41
100.0
 71
7
 72
2
  1
Back  end elevation
  7
iso
 50
0.0
 73
0
 44
1.0
  0
LINE
  5
10D
100
AcDbEntity
100
AcDbLine
  8
0
 62
256
370
-1
  6
ByLayer
 10
5420.2739274669020233
 20
-7.1490923077745947
 30
0.0
 11
5420.2739274669020233
 21
-77.1490923077745947
 31
0.0
  0
LINE
  5
10E
100
AcDbEntity
100
AcDbLine
  8
0
 62
256
370
-1
  6
ByLayer
 10
5420.2739274669020233
 20
-77.1490923077745947
 30
0.0
 11
5300.2739274669020233
 21
-77.1490923077745947
 31
0.0
  0
LINE
  5
10F
100
AcDbEntity
100
AcDbLine
  8
0
 62
256
370
-1
  6
ByLayer
 10
5300.2739274669020233
 20
-77.1490923077745947
 30
0.0
 11
5300.2739274669020233
 21
-7.1490923077745947
 31
0.0
  0
LINE
  5
110
100
AcDbEntity
100
AcDbLine
  8
0
 62
256
370
-1
  6
ByLayer
 10
5300.2739274669020233
 20
-7.1490923077745947
 30
0.0
 11
5420.2739274669020233
 21
-7.1490923077745947
 31
0.0
  0
LINE
  5
111
100
AcDbEntity
100
AcDbLine
  8
0
 62
256
370
-1
  6
ByLayer
 10
5360.2739274669011138
 20
-7.1490923077745947
 30
0.0
 11
5360.2739274669011138
 21
-77.1490923077745947
 31
0.0
  0
LINE
  5
112
100
AcDbEntity
100
AcDbLine
  8
0
 62
256
370
-1
  6
ByLayer
 10
5272.2739274669029328
 20
-7.1490923077745947
 30
0.0
 11
5272.2739274669029328
 21
-37.1490923077745947
 31
0.0
  0
LINE
  5
113
100
AcDbEntity
100
AcDbLine
  8
0
 62
256
370
-1
  6
ByLayer
 10
5272.2739274669029328
 20
-37.1490923077745947
 30
0.0
 11
5212.2739274669029328
 21
-37.1490923077745947
 31
0.0
  0
LINE
  5
114
100
AcDbEntity
100
AcDbLine
  8
0
 62
256
370
-1
  6
ByLayer
 10
5212.2739274669029328
 20
-37.1490923077745947
 30
0.0
 11
5212.2739274669029328
 21
-7.1490923077745947
 31
0.0
  0
LINE
  5
115
100
AcDbEntity
100
AcDbLine
  8
0
 62
256
370
-1
  6
ByLayer
 10
5212.2739274669029328
 20
-7.1490923077745947
 30
0.0
 11
5272.2739274669029328
 21
-7.1490923077745947
 31
0.0
  0
LINE
  5
116
100
AcDbEntity
100
AcDbLine
  8
0
 62
256
370
-1
  6
ByLayer
 10
5242.2739274669020233
 20
-7.1490923077745947
 30
0.0
 11
5242.2739274669020233
 21
-37.1490923077745947
 31
0.0
  0
LINE
  5
117
100
AcDbEntity
100
AcDbLine
  8
0
 62
256
370
-1
  6
ByLayer
 10
5163.2739274669020233
 20
-210.1490923077745947
 30
0.0
 11
5163.2739274669020233
 21
-7.1490923077745947
 31
0.0
  0
LINE
  5
118
100
AcDbEntity
100
AcDbLine
  8
0
 62
256
370
-1
  6
ByLayer
 10
5163.2739274669020233
 20
-7.1490923077745947
 30
0.0
 11
5083.2739274669029328
 21
-7.1490923077745947
 31
0.0
  0
LINE
  5
119
100
AcDbEntity
100
AcDbLine
  8
0
 62
256
370
-1
  6
ByLayer
 10
5083.2739274669029328
 20
-7.1490923077745947
 30
0.0
 11
5083.2739274669029328
 21
-210.1490923077745947
 31
0.0
  0
DIMENSION
  5
11A
100
AcDbEntity
  8
dimesions
 62
256
370
-1
  6
ByLayer
100
AcDbDimension
 10
4659.2739274669029328
 20
-10.6689673055710728
 30
0.0
 11
0.0
 21
0.0
 31
0.0
 70
2
 71
5
 72
0
 41
1.0
 42
0.0
  1

  3
Standard
100
AcDb2LineAngularDimension
 13
5133.2739274669020233
 23
285.5191054994492106
 33
0.0
 14
5607.2739274669020233
 24
-10.6689673055722096
 34
0.0
 15
5133.2739274669020233
 25
285.519105499449438
 35
0.0
 16
5150.3591370781869045
 26
336.9459432734809639
 36
0.0
  0
DIMENSION
  5
11B
100
AcDbEntity
  8
dimesions
 62
256
370
-1
  6
ByLayer
100
AcDbDimension
 10
5146.1120478950060715
 20
306.0643929085309765
 30
0.0
 11
5388.8086799855127538
 21
167.0868735397018554
 31
0.0
 70
1
 71
5
 72
0
 41
1.0
 42
0.0
  1

  3
Standard
100
AcDbAlignedDimension
 13
5607.2739274669020233
 23
-10.6689673055722096
 33
0.0
 14
5133.2739274669020233
 24
285.5191054994492106
 34
0.0
  0
DIMENSION
  5
11C
100
AcDbEntity
  8
dimesions
 62
256
370
-1
  6
ByLayer
100
AcDbDimension
 10
5128.2739274669020233
 20
57.8711464685826513
 30
0.0
 11
0.0
 21
0.0
 31
0.0
 70
2
 71
5
 72
0
 41
1.0
 42
0.0
  1

  3
Standard
100
AcDb2LineAngularDimension
 13
5133.2739274669020233
 23
261.9355374322075249
 33
0.0
 14
4659.2739274669029328
 24
-34.2525353728129858
 34
0.0
 15
4967.4882819634913176
 25
158.3411685706217895
 35
0.0
 16
5031.0241155021694794
 26
157.9434109094444239
 36
0.0
  0
ENDSEC
  0
SECTION
  2
OBJECTS
  0
DICTIONARY
  5
C
100
AcDbDictionary
280
0
281
1
  3
ACAD_GROUP
350
D
  3
ACAD_LAYOUT
350
1A
  3
ACAD_MLINESTYLE
350
17
  3
ACAD_PLOTSETTINGS
350
19
  3
ACAD_PLOTSTYLENAME
350
E
  3
AcDbVariableDictionary
350
11D
  0
DICTIONARY
  5
D
100
AcDbDictionary
280
0
281
1
  0
ACDBDICTIONARYWDFLT
  5
E
100
AcDbDictionary
281
1
  3
Normal
350
F
100
AcDbDictionaryWithDefault
340
F
  0
ACDBPLACEHOLDER
  5
F
  0
DICTIONARY
  5
17
100
AcDbDictionary
280
0
281
1
  3
Standard
350
18
  0
MLINESTYLE
  5
18
100
AcDbMlineStyle
  2
STANDARD
 70
0
  3

 62
256
 51
90.0
 52
90.0
 71
2
 49
0.5
 62
256
  6
BYLAYER
 49
-0.5
 62
256
  6
BYLAYER
  0
DICTIONARY
  5
19
100
AcDbDictionary
280
0
281
1
  0
DICTIONARY
  5
1A
100
AcDbDictionary
281
1
  3
Layout1
350
1E
  3
Layout2
350
26
  3
Model
350
22
  0
LAYOUT
  5
1E
100
AcDbPlotSettings
  1

  2
C:\Program Files\AutoCAD 2002\plotters\DWF ePlot (optimized for plotting).pc3
  4

  6

 40
0.0
 41
0.0
 42
0.0
 43
0.0
 44
0.0
 45
0.0
 46
0.0
 47
0.0
 48
0.0
 49
0.0
140
0.0
141
0.0
142
1.0
143
1.0
 70
688
 72
0
 73
0
 74
5
  7

 75
16
147
1.0
148
0.0
149
0.0
100
AcDbLayout
  1
Layout1
 70
1
 71
1
 10
0.0
 20
0.0
 11
420.0
 21
297.0
 12
0.0
 22
0.0
 32
0.0
 14
100000000000000000000.0
 24
100000000000000000000.0
 34
100000000000000000000.0
 15
-100000000000000000000.0
 25
-100000000000000000000.0
 35
-100000000000000000000.0
146
0.0
 13
0.0
 23
0.0
 33
0.0
 16
1.0
 26
0.0
 36
0.0
 17
0.0
 27
1.0
 37
0.0
 76
0
330
1B
  0
LAYOUT
  5
22
100
AcDbPlotSettings
  1

  2
C:\Program Files\AutoCAD 2002\plotters\DWF ePlot (optimized for plotting).pc3
  4

  6

 40
0.0
 41
0.0
 42
0.0
 43
0.0
 44
0.0
 45
0.0
 46
0.0
 47
0.0
 48
0.0
 49
0.0
140
0.0
141
0.0
142
1.0
143
1.0
 70
1712
 72
0
 73
0
 74
0
  7

 75
0
147
1.0
148
0.0
149
0.0
100
AcDbLayout
  1
Model
 70
1
 71
0
 10
0.0
 20
0.0
 11
12.0
 21
9.0
 12
0.0
 22
0.0
 32
0.0
 14
0.0
 24
0.0
 34
0.0
 15
0.0
 25
0.0
 35
0.0
146
0.0
 13
0.0
 23
0.0
 33
0.0
 16
1.0
 26
0.0
 36
0.0
 17
0.0
 27
1.0
 37
0.0
 76
0
330
1F
  0
LAYOUT
  5
26
100
AcDbPlotSettings
  1

  2
C:\Program Files\AutoCAD 2002\plotters\DWF ePlot (optimized for plotting).pc3
  4

  6

 40
0.0
 41
0.0
 42
0.0
 43
0.0
 44
0.0
 45
0.0
 46
0.0
 47
0.0
 48
0.0
 49
0.0
140
0.0
141
0.0
142
1.0
143
1.0
 70
688
 72
0
 73
0
 74
5
  7

 75
16
147
1.0
148
0.0
149
0.0
100
AcDbLayout
  1
Layout2
 70
1
 71
2
 10
0.0
 20
0.0
 11
12.0
 21
9.0
 12
0.0
 22
0.0
 32
0.0
 14
0.0
 24
0.0
 34
0.0
 15
0.0
 25
0.0
 35
0.0
146
0.0
 13
0.0
 23
0.0
 33
0.0
 16
1.0
 26
0.0
 36
0.0
 17
0.0
 27
1.0
 37
0.0
 76
0
330
23
  0
DICTIONARY
  5
11D
100
AcDbDictionary
281
1
  3
DIMASSOC
350
11F
  3
HIDETEXT
350
11E
  0
DICTIONARYVAR
  5
11E
100
DictionaryVariables
280
0
  1
2
  0
DICTIONARYVAR
  5
11F
100
DictionaryVariables
280
0
  1
1
  0
ENDSEC
  0
EOF
