999
dxfrw 0.5.11
0
SECTION
2
HEADER
9
$ACADVER
1
AC1021
9
$HANDSEED
5
20000
9
$DWGCODEPAGE
3
ANSI_1252
9
$INSBASE
10
0
20
0
30
0
9
$EXTMIN
10
-3858.99664713
20
-2287.65534407
30
0
9
$EXTMAX
10
11509.1840184
20
7971.71076878
30
0
9
$LIMMIN
10
0
20
0
9
$LIMMAX
10
420
20
297
9
$ORTHOMODE
70
0
9
$LTSCALE
40
1
9
$TEXTSTYLE
7
STANDARD
9
$CLAYER
8
dimension
9
$DIMASZ
40
100.5
9
$DIMLFAC
40
1
9
$DIMSCALE
40
1
9
$DIMEXO
40
60.25
9
$DIMEXE
40
120.5
9
$DIMTXT
40
150
9
$DIMTSZ
40
0
9
$DIMAUNIT
70
0
9
$DIMADEC
70
2
9
$DIMLUNIT
70
2
9
$DIMSTYLE
2
STANDARD
9
$DIMGAP
40
60.25
9
$DIMTIH
70
0
9
$LUNITS
70
2
9
$LUPREC
70
4
9
$AUNITS
70
0
9
$AUPREC
70
2
9
$SPLINESEGS
70
8
9
$GRIDMODE
70
1
9
$SNAPSTYLE
70
0
9
$GRIDUNIT
10
0
20
0
9
$PINSBASE
10
0
20
0
30
0
9
$PLIMMIN
10
0
20
0
9
$PLIMMAX
10
210
20
297
9
$INSUNITS
70
4
9
$PSVPSCALE
40
1
0
ENDSEC
0
SECTION
2
CLASSES
0
ENDSEC
0
SECTION
2
TABLES
0
TABLE
2
VPORT
5
8
330
0
100
AcDbSymbolTable
70
1
0
VPORT
5
31
330
2
100
AcDbSymbolTableRecord
100
AcDbViewportTableRecord
2
*ACTIVE
70
0
10
0
20
0
11
1
21
1
12
8795.53520883
22
6850.14203262
13
0
23
0
14
10
24
10
15
10
25
10
16
0
26
0
36
1
17
0
27
0
37
0
40
17308.1041375
41
2.10626702997
42
50
43
0
44
0
50
0
51
0
71
0
72
100
73
1
74
3
75
0
76
1
77
0
78
0
281
0
65
1
110
0
120
0
130
0
111
1
121
0
131
0
112
0
122
1
132
0
79
0
146
0
348
10020
60
7
61
5
292
1
282
1
141
0
142
0
63
250
421
3358443
0
ENDTAB
0
TABLE
2
LTYPE
5
5
330
0
100
AcDbSymbolTable
70
4
0
LTYPE
5
14
330
5
100
AcDbSymbolTableRecord
100
AcDbLinetypeTableRecord
2
ByBlock
70
0
3

72
65
73
0
40
0
0
LTYPE
5
15
330
5
100
AcDbSymbolTableRecord
100
AcDbLinetypeTableRecord
2
ByLayer
70
0
3

72
65
73
0
40
0
0
LTYPE
5
16
330
5
100
AcDbSymbolTableRecord
100
AcDbLinetypeTableRecord
2
Continuous
70
0
3
Solid line
72
65
73
0
40
0
0
LTYPE
5
32
330
5
100
AcDbSymbolTableRecord
100
AcDbLinetypeTableRecord
2
DOT
70
0
3
Dot . . . . . . . . . . . . . . . . . . . . . .
72
65
73
2
40
6.35
49
0
74
0
49
-6.35
74
0
0
LTYPE
5
33
330
5
100
AcDbSymbolTableRecord
100
AcDbLinetypeTableRecord
2
DOT2
70
0
3
Dot (.5x) .....................................
72
65
73
2
40
3.175
49
0
74
0
49
-3.175
74
0
0
LTYPE
5
34
330
5
100
AcDbSymbolTableRecord
100
AcDbLinetypeTableRecord
2
DOTX2
70
0
3
Dot (2x) .  .  .  .  .  .  .  .  .  .  .  .  .
72
65
73
2
40
12.7
49
0
74
0
49
-12.7
74
0
0
LTYPE
5
35
330
5
100
AcDbSymbolTableRecord
100
AcDbLinetypeTableRecord
2
DASHED
70
0
3
Dot . . . . . . . . . . . . . . . . . . . . . .
72
65
73
2
40
19.05
49
12.7
74
0
49
-6.35
74
0
0
LTYPE
5
36
330
5
100
AcDbSymbolTableRecord
100
AcDbLinetypeTableRecord
2
DASHED2
70
0
3
Dashed (.5x) _ _ _ _ _ _ _ _ _ _ _ _ _ _ _ _ _
72
65
73
2
40
9.525
49
6.35
74
0
49
-3.175
74
0
0
LTYPE
5
37
330
5
100
AcDbSymbolTableRecord
100
AcDbLinetypeTableRecord
2
DASHEDX2
70
0
3
Dashed (2x) ____  ____  ____  ____  ____  ___
72
65
73
2
40
38.1
49
25.4
74
0
49
-12.7
74
0
0
LTYPE
5
38
330
5
100
AcDbSymbolTableRecord
100
AcDbLinetypeTableRecord
2
DASHDOT
70
0
3
Dash dot __ . __ . __ . __ . __ . __ . __ . __
72
65
73
4
40
25.4
49
12.7
74
0
49
-6.35
74
0
49
0
74
0
49
-6.35
74
0
0
LTYPE
5
39
330
5
100
AcDbSymbolTableRecord
100
AcDbLinetypeTableRecord
2
DASHDOT2
70
0
3
Dash dot (.5x) _._._._._._._._._._._._._._._.
72
65
73
4
40
12.7
49
6.35
74
0
49
-3.175
74
0
49
0
74
0
49
-3.175
74
0
0
LTYPE
5
3A
330
5
100
AcDbSymbolTableRecord
100
AcDbLinetypeTableRecord
2
DASHDOTX2
70
0
3
Dash dot (2x) ____  .  ____  .  ____  .  ___
72
65
73
4
40
50.8
49
25.4
74
0
49
-12.7
74
0
49
0
74
0
49
-12.7
74
0
0
LTYPE
5
3B
330
5
100
AcDbSymbolTableRecord
100
AcDbLinetypeTableRecord
2
DIVIDE
70
0
3
Divide ____ . . ____ . . ____ . . ____ . . ____
72
65
73
6
40
31.75
49
12.7
74
0
49
-6.35
74
0
49
0
74
0
49
-6.35
74
0
49
0
74
0
49
-6.35
74
0
0
LTYPE
5
3C
330
5
100
AcDbSymbolTableRecord
100
AcDbLinetypeTableRecord
2
DIVIDE2
70
0
3
Divide (.5x) __..__..__..__..__..__..__..__.._
72
65
73
6
40
15.875
49
6.35
74
0
49
-3.175
74
0
49
0
74
0
49
-3.175
74
0
49
0
74
0
49
-3.175
74
0
0
LTYPE
5
3D
330
5
100
AcDbSymbolTableRecord
100
AcDbLinetypeTableRecord
2
DIVIDEX2
70
0
3
Divide (2x) ________  .  .  ________  .  .  _
72
65
73
6
40
63.5
49
25.4
74
0
49
-12.7
74
0
49
0
74
0
49
-12.7
74
0
49
0
74
0
49
-12.7
74
0
0
LTYPE
5
3E
330
5
100
AcDbSymbolTableRecord
100
AcDbLinetypeTableRecord
2
BORDER
70
0
3
Border __ __ . __ __ . __ __ . __ __ . __ __ .
72
65
73
6
40
44.45
49
12.7
74
0
49
-6.35
74
0
49
12.7
74
0
49
-6.35
74
0
49
0
74
0
49
-6.35
74
0
0
LTYPE
5
3F
330
5
100
AcDbSymbolTableRecord
100
AcDbLinetypeTableRecord
2
BORDER2
70
0
3
Border (.5x) __.__.__.__.__.__.__.__.__.__.__.
72
65
73
6
40
22.225
49
6.35
74
0
49
-3.175
74
0
49
6.35
74
0
49
-3.175
74
0
49
0
74
0
49
-3.175
74
0
0
LTYPE
5
40
330
5
100
AcDbSymbolTableRecord
100
AcDbLinetypeTableRecord
2
BORDERX2
70
0
3
Border (2x) ____  ____  .  ____  ____  .  ___
72
65
73
6
40
88.9
49
25.4
74
0
49
-12.7
74
0
49
25.4
74
0
49
-12.7
74
0
49
0
74
0
49
-12.7
74
0
0
LTYPE
5
41
330
5
100
AcDbSymbolTableRecord
100
AcDbLinetypeTableRecord
2
CENTER
70
0
3
Center ____ _ ____ _ ____ _ ____ _ ____ _ ____
72
65
73
4
40
50.8
49
31.75
74
0
49
-6.35
74
0
49
6.35
74
0
49
-6.35
74
0
0
LTYPE
5
42
330
5
100
AcDbSymbolTableRecord
100
AcDbLinetypeTableRecord
2
CENTER2
70
0
3
Center (.5x) ___ _ ___ _ ___ _ ___ _ ___ _ ___
72
65
73
4
40
28.575
49
19.05
74
0
49
-3.175
74
0
49
3.175
74
0
49
-3.175
74
0
0
LTYPE
5
43
330
5
100
AcDbSymbolTableRecord
100
AcDbLinetypeTableRecord
2
CENTERX2
70
0
3
Center (2x) ________  __  ________  __  _____
72
65
73
4
40
101.6
49
63.5
74
0
49
-12.7
74
0
49
12.7
74
0
49
-12.7
74
0
0
ENDTAB
0
TABLE
2
LAYER
5
2
330
0
100
AcDbSymbolTable
70
1
0
LAYER
5
10
330
2
100
AcDbSymbolTableRecord
100
AcDbLayerTableRecord
2
0
70
0
62
7
6
CONTINUOUS
370
0
390
F
0
LAYER
5
44
330
2
100
AcDbSymbolTableRecord
100
AcDbLayerTableRecord
2
bogus
70
0
62
3
6
CONTINUOUS
370
0
390
F
0
LAYER
5
45
330
2
100
AcDbSymbolTableRecord
100
AcDbLayerTableRecord
2
cabinates
70
0
62
253
6
CONTINUOUS
370
0
390
F
0
LAYER
5
46
330
2
100
AcDbSymbolTableRecord
100
AcDbLayerTableRecord
2
container
70
0
62
7
6
CONTINUOUS
370
50
390
F
0
LAYER
5
47
330
2
100
AcDbSymbolTableRecord
100
AcDbLayerTableRecord
2
dimension
70
0
62
5
6
CONTINUOUS
370
100
390
F
0
LAYER
5
48
330
2
100
AcDbSymbolTableRecord
100
AcDbLayerTableRecord
2
doors
70
0
62
7
6
CONTINUOUS
370
-3
390
F
0
LAYER
5
49
330
2
100
AcDbSymbolTableRecord
100
AcDbLayerTableRecord
2
eletrical
70
0
62
136
6
CONTINUOUS
370
-3
390
F
0
LAYER
5
4A
330
2
100
AcDbSymbolTableRecord
100
AcDbLayerTableRecord
2
fixtures
70
0
62
96
6
CONTINUOUS
370
-3
390
F
0
LAYER
5
4B
330
2
100
AcDbSymbolTableRecord
100
AcDbLayerTableRecord
2
tatami
70
0
62
30
6
DOT2
370
0
390
F
0
LAYER
5
4C
330
2
100
AcDbSymbolTableRecord
100
AcDbLayerTableRecord
2
text
70
0
62
8
6
CONTINUOUS
370
-3
390
F
0
LAYER
5
4D
330
2
100
AcDbSymbolTableRecord
100
AcDbLayerTableRecord
2
wall
70
0
62
7
6
CONTINUOUS
370
0
390
F
0
ENDTAB
0
TABLE
2
STYLE
5
3
330
0
100
AcDbSymbolTable
70
3
0
STYLE
5
4E
330
2
100
AcDbSymbolTableRecord
100
AcDbTextStyleTableRecord
2
standard
70
0
40
0
41
1
50
0
71
0
42
1
3
standard
4

0
STYLE
5
4F
330
2
100
AcDbSymbolTableRecord
100
AcDbTextStyleTableRecord
2
iso
70
0
40
0
41
1
50
0
71
0
42
1
3
iso
4

0
ENDTAB
0
TABLE
2
VIEW
5
6
330
0
100
AcDbSymbolTable
70
0
0
ENDTAB
0
TABLE
2
UCS
5
7
330
0
100
AcDbSymbolTable
70
0
0
ENDTAB
0
TABLE
2
APPID
5
9
330
0
100
AcDbSymbolTable
70
1
0
APPID
5
12
330
9
100
AcDbSymbolTableRecord
100
AcDbRegAppTableRecord
2
ACAD
70
0
0
ENDTAB
0
TABLE
2
DIMSTYLE
5
A
330
0
100
AcDbSymbolTable
70
1
100
AcDbDimStyleTable
71
1
0
DIMSTYLE
105
50
330
A
100
AcDbSymbolTableRecord
100
AcDbDimStyleTableRecord
2
Standard
70
0
40
1
41
100.5
42
60.25
43
0.38
44
120.5
45
0
46
0
47
0
48
0
140
150
141
0.09
142
0
143
25.4
144
1
145
0
146
1
147
60.25
148
0
71
0
72
0
73
0
74
1
75
0
76
0
77
0
78
0
79
0
170
0
171
2
172
0
173
0
174
0
175
0
176
0
177
0
178
0
179
0
271
4
272
4
273
2
274
2
275
0
276
0
277
2
278
46
279
0
280
0
281
0
282
0
283
1
284
0
285
0
286
0
288
0
289
3
340
Standard
341

371
-2
372
-2
0
ENDTAB
0
TABLE
2
BLOCK_RECORD
5
1
330
0
100
AcDbSymbolTable
70
2
0
BLOCK_RECORD
5
1F
330
1
100
AcDbSymbolTableRecord
100
AcDbBlockTableRecord
2
*Model_Space
70
0
280
1
281
0
0
BLOCK_RECORD
5
1E
330
1
100
AcDbSymbolTableRecord
100
AcDbBlockTableRecord
2
*Paper_Space
70
0
280
1
281
0
0
BLOCK_RECORD
5
51
330
1
100
AcDbSymbolTableRecord
100
AcDbBlockTableRecord
2
*D5
70
0
280
1
281
0
0
BLOCK_RECORD
5
54
330
1
100
AcDbSymbolTableRecord
100
AcDbBlockTableRecord
2
*D3
70
0
280
1
281
0
0
BLOCK_RECORD
5
57
330
1
100
AcDbSymbolTableRecord
100
AcDbBlockTableRecord
2
*D1
70
0
280
1
281
0
0
BLOCK_RECORD
5
5A
330
1
100
AcDbSymbolTableRecord
100
AcDbBlockTableRecord
2
*D4
70
0
280
1
281
0
0
BLOCK_RECORD
5
5D
330
1
100
AcDbSymbolTableRecord
100
AcDbBlockTableRecord
2
*D6
70
0
280
1
281
0
0
BLOCK_RECORD
5
60
330
1
100
AcDbSymbolTableRecord
100
AcDbBlockTableRecord
2
*D2
70
0
280
1
281
0
0
BLOCK_RECORD
5
63
330
1
100
AcDbSymbolTableRecord
100
AcDbBlockTableRecord
2
door800VerRight
70
0
280
1
281
0
0
BLOCK_RECORD
5
66
330
1
100
AcDbSymbolTableRecord
100
AcDbBlockTableRecord
2
door800VerRight-0
70
0
280
1
281
0
0
BLOCK_RECORD
5
69
330
1
100
AcDbSymbolTableRecord
100
AcDbBlockTableRecord
2
outlet110HorUp-0
70
0
280
1
281
0
0
BLOCK_RECORD
5
6C
330
1
100
AcDbSymbolTableRecord
100
AcDbBlockTableRecord
2
door700VerLeft-1
70
0
280
1
281
0
0
BLOCK_RECORD
5
6F
330
1
100
AcDbSymbolTableRecord
100
AcDbBlockTableRecord
2
WCVerRight-2
70
0
280
1
281
0
0
BLOCK_RECORD
5
72
330
1
100
AcDbSymbolTableRecord
100
AcDbBlockTableRecord
2
tub_ver-0
70
0
280
1
281
0
0
BLOCK_RECORD
5
75
330
1
100
AcDbSymbolTableRecord
100
AcDbBlockTableRecord
2
door800VerLeft-0
70
0
280
1
281
0
0
BLOCK_RECORD
5
78
330
1
100
AcDbSymbolTableRecord
100
AcDbBlockTableRecord
2
washer_Hor-0
70
0
280
1
281
0
0
BLOCK_RECORD
5
7B
330
1
100
AcDbSymbolTableRecord
100
AcDbBlockTableRecord
2
washer_Hor-1
70
0
280
1
281
0
0
BLOCK_RECORD
5
7E
330
1
100
AcDbSymbolTableRecord
100
AcDbBlockTableRecord
2
refridge500_600_verRight-0
70
0
280
1
281
0
0
BLOCK_RECORD
5
81
330
1
100
AcDbSymbolTableRecord
100
AcDbBlockTableRecord
2
jtub
70
0
280
1
281
0
0
BLOCK_RECORD
5
84
330
1
100
AcDbSymbolTableRecord
100
AcDbBlockTableRecord
2
bathroom-0
70
0
280
1
281
0
0
BLOCK_RECORD
5
87
330
1
100
AcDbSymbolTableRecord
100
AcDbBlockTableRecord
2
outlet110HorUp-0-0
70
0
280
1
281
0
0
BLOCK_RECORD
5
8A
330
1
100
AcDbSymbolTableRecord
100
AcDbBlockTableRecord
2
door700VerLeft-1-0
70
0
280
1
281
0
0
BLOCK_RECORD
5
8D
330
1
100
AcDbSymbolTableRecord
100
AcDbBlockTableRecord
2
WCVerRight-2-0
70
0
280
1
281
0
0
BLOCK_RECORD
5
90
330
1
100
AcDbSymbolTableRecord
100
AcDbBlockTableRecord
2
tub_ver-0-0
70
0
280
1
281
0
0
BLOCK_RECORD
5
93
330
1
100
AcDbSymbolTableRecord
100
AcDbBlockTableRecord
2
door800VerLeft-0-0
70
0
280
1
281
0
0
BLOCK_RECORD
5
96
330
1
100
AcDbSymbolTableRecord
100
AcDbBlockTableRecord
2
KyotoKyomaTatamiVertical-0
70
0
280
1
281
0
0
BLOCK_RECORD
5
99
330
1
100
AcDbSymbolTableRecord
100
AcDbBlockTableRecord
2
KyotoKyomaTatamiVertical-1
70
0
280
1
281
0
0
BLOCK_RECORD
5
9C
330
1
100
AcDbSymbolTableRecord
100
AcDbBlockTableRecord
2
KyotoKyomaTatamiVertical-2
70
0
280
1
281
0
0
BLOCK_RECORD
5
9F
330
1
100
AcDbSymbolTableRecord
100
AcDbBlockTableRecord
2
KyotoKyomaTatamiVertical-3
70
0
280
1
281
0
0
BLOCK_RECORD
5
A2
330
1
100
AcDbSymbolTableRecord
100
AcDbBlockTableRecord
2
KyotoKyomaTatamiVertical-4
70
0
280
1
281
0
0
BLOCK_RECORD
5
A5
330
1
100
AcDbSymbolTableRecord
100
AcDbBlockTableRecord
2
KyotoKyomaTatamiVertical-5
70
0
280
1
281
0
0
BLOCK_RECORD
5
A8
330
1
100
AcDbSymbolTableRecord
100
AcDbBlockTableRecord
2
KyotoKyomaTatamiVertical-6
70
0
280
1
281
0
0
BLOCK_RECORD
5
AB
330
1
100
AcDbSymbolTableRecord
100
AcDbBlockTableRecord
2
KyotoKyomaTatamiVertical-7
70
0
280
1
281
0
0
BLOCK_RECORD
5
AE
330
1
100
AcDbSymbolTableRecord
100
AcDbBlockTableRecord
2
KyotoKyomaTatamiVertical-8
70
0
280
1
281
0
0
BLOCK_RECORD
5
B1
330
1
100
AcDbSymbolTableRecord
100
AcDbBlockTableRecord
2
KyotoKyomaTatamiHalf-0
70
0
280
1
281
0
0
BLOCK_RECORD
5
B4
330
1
100
AcDbSymbolTableRecord
100
AcDbBlockTableRecord
2
KyotoKyomaTatamiHalf-1
70
0
280
1
281
0
0
BLOCK_RECORD
5
B7
330
1
100
AcDbSymbolTableRecord
100
AcDbBlockTableRecord
2
KyotoKyomaTatamiHalf-2
70
0
280
1
281
0
0
BLOCK_RECORD
5
BA
330
1
100
AcDbSymbolTableRecord
100
AcDbBlockTableRecord
2
KyotoKyomaTatamiHalf-3
70
0
280
1
281
0
0
BLOCK_RECORD
5
BD
330
1
100
AcDbSymbolTableRecord
100
AcDbBlockTableRecord
2
KyotoKyomaTatamiVertical-9
70
0
280
1
281
0
0
BLOCK_RECORD
5
C0
330
1
100
AcDbSymbolTableRecord
100
AcDbBlockTableRecord
2
KyotoKyomaTatami-0
70
0
280
1
281
0
0
BLOCK_RECORD
5
C3
330
1
100
AcDbSymbolTableRecord
100
AcDbBlockTableRecord
2
KyotoKyomaTatami-1
70
0
280
1
281
0
0
BLOCK_RECORD
5
C6
330
1
100
AcDbSymbolTableRecord
100
AcDbBlockTableRecord
2
washer_Hor-0-0
70
0
280
1
281
0
0
BLOCK_RECORD
5
C9
330
1
100
AcDbSymbolTableRecord
100
AcDbBlockTableRecord
2
washer_Hor-1-0
70
0
280
1
281
0
0
BLOCK_RECORD
5
CC
330
1
100
AcDbSymbolTableRecord
100
AcDbBlockTableRecord
2
refridge500_600_verRight-0-0
70
0
280
1
281
0
0
BLOCK_RECORD
5
CF
330
1
100
AcDbSymbolTableRecord
100
AcDbBlockTableRecord
2
Standard40ft12m_withIntwall-0
70
0
280
1
281
0
0
BLOCK_RECORD
5
D2
330
1
100
AcDbSymbolTableRecord
100
AcDbBlockTableRecord
2
jtub-0
70
0
280
1
281
0
0
BLOCK_RECORD
5
D5
330
1
100
AcDbSymbolTableRecord
100
AcDbBlockTableRecord
2
kitchen-0
70
0
280
1
281
0
0
BLOCK_RECORD
5
D8
330
1
100
AcDbSymbolTableRecord
100
AcDbBlockTableRecord
2
referVerDn
70
0
280
1
281
0
0
BLOCK_RECORD
5
DB
330
1
100
AcDbSymbolTableRecord
100
AcDbBlockTableRecord
2
door800VerRight-1
70
0
280
1
281
0
0
BLOCK_RECORD
5
DE
330
1
100
AcDbSymbolTableRecord
100
AcDbBlockTableRecord
2
door800VerRight-0-0
70
0
280
1
281
0
0
BLOCK_RECORD
5
E1
330
1
100
AcDbSymbolTableRecord
100
AcDbBlockTableRecord
2
outlet110HorUp-0-1
70
0
280
1
281
0
0
BLOCK_RECORD
5
E4
330
1
100
AcDbSymbolTableRecord
100
AcDbBlockTableRecord
2
door700VerLeft-1-1
70
0
280
1
281
0
0
BLOCK_RECORD
5
E7
330
1
100
AcDbSymbolTableRecord
100
AcDbBlockTableRecord
2
WCVerRight-2-1
70
0
280
1
281
0
0
BLOCK_RECORD
5
EA
330
1
100
AcDbSymbolTableRecord
100
AcDbBlockTableRecord
2
tub_ver-0-1
70
0
280
1
281
0
0
BLOCK_RECORD
5
ED
330
1
100
AcDbSymbolTableRecord
100
AcDbBlockTableRecord
2
door800VerLeft-0-1
70
0
280
1
281
0
0
BLOCK_RECORD
5
F0
330
1
100
AcDbSymbolTableRecord
100
AcDbBlockTableRecord
2
washer_Hor-0-1
70
0
280
1
281
0
0
BLOCK_RECORD
5
F3
330
1
100
AcDbSymbolTableRecord
100
AcDbBlockTableRecord
2
washer_Hor-1-1
70
0
280
1
281
0
0
BLOCK_RECORD
5
F6
330
1
100
AcDbSymbolTableRecord
100
AcDbBlockTableRecord
2
refridge500_600_verRight-0-1
70
0
280
1
281
0
0
BLOCK_RECORD
5
F9
330
1
100
AcDbSymbolTableRecord
100
AcDbBlockTableRecord
2
jtub-1
70
0
280
1
281
0
0
BLOCK_RECORD
5
FC
330
1
100
AcDbSymbolTableRecord
100
AcDbBlockTableRecord
2
bathroom-0-0
70
0
280
1
281
0
0
BLOCK_RECORD
5
FF
330
1
100
AcDbSymbolTableRecord
100
AcDbBlockTableRecord
2
outlet110HorUp-0-0-0
70
0
280
1
281
0
0
BLOCK_RECORD
5
102
330
1
100
AcDbSymbolTableRecord
100
AcDbBlockTableRecord
2
door700VerLeft-1-0-0
70
0
280
1
281
0
0
BLOCK_RECORD
5
105
330
1
100
AcDbSymbolTableRecord
100
AcDbBlockTableRecord
2
WCVerRight-2-0-0
70
0
280
1
281
0
0
BLOCK_RECORD
5
108
330
1
100
AcDbSymbolTableRecord
100
AcDbBlockTableRecord
2
tub_ver-0-0-0
70
0
280
1
281
0
0
BLOCK_RECORD
5
10B
330
1
100
AcDbSymbolTableRecord
100
AcDbBlockTableRecord
2
door800VerLeft-0-0-0
70
0
280
1
281
0
0
BLOCK_RECORD
5
10E
330
1
100
AcDbSymbolTableRecord
100
AcDbBlockTableRecord
2
KyotoKyomaTatamiVertical-0-0
70
0
280
1
281
0
0
BLOCK_RECORD
5
111
330
1
100
AcDbSymbolTableRecord
100
AcDbBlockTableRecord
2
KyotoKyomaTatamiVertical-1-0
70
0
280
1
281
0
0
BLOCK_RECORD
5
114
330
1
100
AcDbSymbolTableRecord
100
AcDbBlockTableRecord
2
KyotoKyomaTatamiVertical-2-0
70
0
280
1
281
0
0
BLOCK_RECORD
5
117
330
1
100
AcDbSymbolTableRecord
100
AcDbBlockTableRecord
2
KyotoKyomaTatamiVertical-3-0
70
0
280
1
281
0
0
BLOCK_RECORD
5
11A
330
1
100
AcDbSymbolTableRecord
100
AcDbBlockTableRecord
2
KyotoKyomaTatamiVertical-4-0
70
0
280
1
281
0
0
BLOCK_RECORD
5
11D
330
1
100
AcDbSymbolTableRecord
100
AcDbBlockTableRecord
2
KyotoKyomaTatamiVertical-5-0
70
0
280
1
281
0
0
BLOCK_RECORD
5
120
330
1
100
AcDbSymbolTableRecord
100
AcDbBlockTableRecord
2
KyotoKyomaTatamiVertical-6-0
70
0
280
1
281
0
0
BLOCK_RECORD
5
123
330
1
100
AcDbSymbolTableRecord
100
AcDbBlockTableRecord
2
KyotoKyomaTatamiVertical-7-0
70
0
280
1
281
0
0
BLOCK_RECORD
5
126
330
1
100
AcDbSymbolTableRecord
100
AcDbBlockTableRecord
2
KyotoKyomaTatamiVertical-8-0
70
0
280
1
281
0
0
BLOCK_RECORD
5
129
330
1
100
AcDbSymbolTableRecord
100
AcDbBlockTableRecord
2
KyotoKyomaTatamiHalf-0-0
70
0
280
1
281
0
0
BLOCK_RECORD
5
12C
330
1
100
AcDbSymbolTableRecord
100
AcDbBlockTableRecord
2
KyotoKyomaTatamiHalf-1-0
70
0
280
1
281
0
0
BLOCK_RECORD
5
12F
330
1
100
AcDbSymbolTableRecord
100
AcDbBlockTableRecord
2
KyotoKyomaTatamiHalf-2-0
70
0
280
1
281
0
0
BLOCK_RECORD
5
132
330
1
100
AcDbSymbolTableRecord
100
AcDbBlockTableRecord
2
KyotoKyomaTatamiHalf-3-0
70
0
280
1
281
0
0
BLOCK_RECORD
5
135
330
1
100
AcDbSymbolTableRecord
100
AcDbBlockTableRecord
2
KyotoKyomaTatamiVertical-9-0
70
0
280
1
281
0
0
BLOCK_RECORD
5
138
330
1
100
AcDbSymbolTableRecord
100
AcDbBlockTableRecord
2
KyotoKyomaTatami-0-0
70
0
280
1
281
0
0
BLOCK_RECORD
5
13B
330
1
100
AcDbSymbolTableRecord
100
AcDbBlockTableRecord
2
KyotoKyomaTatami-1-0
70
0
280
1
281
0
0
BLOCK_RECORD
5
13E
330
1
100
AcDbSymbolTableRecord
100
AcDbBlockTableRecord
2
washer_Hor-0-0-0
70
0
280
1
281
0
0
BLOCK_RECORD
5
141
330
1
100
AcDbSymbolTableRecord
100
AcDbBlockTableRecord
2
washer_Hor-1-0-0
70
0
280
1
281
0
0
BLOCK_RECORD
5
144
330
1
100
AcDbSymbolTableRecord
100
AcDbBlockTableRecord
2
refridge500_600_verRight-0-0-0
70
0
280
1
281
0
0
BLOCK_RECORD
5
147
330
1
100
AcDbSymbolTableRecord
100
AcDbBlockTableRecord
2
Standard40ft12m_withIntwall-0-0
70
0
280
1
281
0
0
BLOCK_RECORD
5
14A
330
1
100
AcDbSymbolTableRecord
100
AcDbBlockTableRecord
2
jtub-0-0
70
0
280
1
281
0
0
BLOCK_RECORD
5
14D
330
1
100
AcDbSymbolTableRecord
100
AcDbBlockTableRecord
2
kitchen-0-0
70
0
280
1
281
0
0
BLOCK_RECORD
5
150
330
1
100
AcDbSymbolTableRecord
100
AcDbBlockTableRecord
2
referVerDn-0
70
0
280
1
281
0
0
BLOCK_RECORD
5
153
330
1
100
AcDbSymbolTableRecord
100
AcDbBlockTableRecord
2
slider1810-ver
70
0
280
1
281
0
0
BLOCK_RECORD
5
156
330
1
100
AcDbSymbolTableRecord
100
AcDbBlockTableRecord
2
upArrow
70
0
280
1
281
0
0
BLOCK_RECORD
5
159
330
1
100
AcDbSymbolTableRecord
100
AcDbBlockTableRecord
2
container-6m-wdoors
70
0
280
1
281
0
0
ENDTAB
0
ENDSEC
0
SECTION
2
BLOCKS
0
BLOCK
5
20
330
1F
100
AcDbEntity
8
0
100
AcDbBlockBegin
2
*Model_Space
70
0
10
0
20
0
30
0
3
*Model_Space
1

0
ENDBLK
5
21
330
1F
100
AcDbEntity
8
0
100
AcDbBlockEnd
0
BLOCK
5
1C
330
1B
100
AcDbEntity
8
0
100
AcDbBlockBegin
2
*Paper_Space
70
0
10
0
20
0
30
0
3
*Paper_Space
1

0
ENDBLK
5
1D
330
1F
100
AcDbEntity
8
0
100
AcDbBlockEnd
0
BLOCK
5
52
330
51
100
AcDbEntity
8
0
100
AcDbBlockBegin
2
*D5
70
1
10
0
20
0
3
*D5
1

0
LINE
5
15C
100
AcDbEntity
8
dimension
6
CONTINUOUS
62
7
370
0
100
AcDbLine
10
-2988.22902907
20
7310
11
-2988.22902907
21
5058
0
SOLID
5
15D
100
AcDbEntity
8
dimension
6
CONTINUOUS
62
7
370
0
100
AcDbTrace
10
-2988.22902907
20
7310
30
0
11
-2971.49438583
21
7209.5
31
0
12
-3004.96367231
22
7209.5
32
0
13
-3004.96367231
23
7209.5
33
0
0
SOLID
5
15E
100
AcDbEntity
8
dimension
6
CONTINUOUS
62
7
370
0
100
AcDbTrace
10
-2988.22902907
20
5058
30
0
11
-3004.96367231
21
5158.5
31
0
12
-2971.49438583
22
5158.5
32
0
13
-2971.49438583
23
5158.5
33
0
0
MTEXT
5
15F
100
AcDbEntity
8
dimension
6
CONTINUOUS
62
7
370
0
100
AcDbMText
10
-3123.47902907
20
6184
30
0
40
150
41
416.666666667
71
5
72
1
1
2252
7
standard
210
0
220
0
230
1
50
90
73
2
44
1
0
LINE
5
160
100
AcDbEntity
8
dimension
6
CONTINUOUS
62
7
370
0
100
AcDbLine
10
-2010.25
20
7310
11
-3108.72902907
21
7310
0
LINE
5
161
100
AcDbEntity
8
dimension
6
CONTINUOUS
62
7
370
0
100
AcDbLine
10
-2010.25
20
5058
11
-3108.72902907
21
5058
0
ENDBLK
5
53
330
51
100
AcDbEntity
8
0
100
AcDbBlockEnd
0
BLOCK
5
55
330
54
100
AcDbEntity
8
0
100
AcDbBlockBegin
2
*D3
70
1
10
0
20
0
3
*D3
1

0
LINE
5
162
100
AcDbEntity
8
dimension
6
CONTINUOUS
62
7
370
0
100
AcDbLine
10
-2044
20
-2167.15534407
11
4014
21
-2167.15534407
0
SOLID
5
163
100
AcDbEntity
8
dimension
6
CONTINUOUS
62
7
370
0
100
AcDbTrace
10
-2044
20
-2167.15534407
30
0
11
-1943.5
21
-2150.42070083
31
0
12
-1943.5
22
-2183.88998731
32
0
13
-1943.5
23
-2183.88998731
33
0
0
SOLID
5
164
100
AcDbEntity
8
dimension
6
CONTINUOUS
62
7
370
0
100
AcDbTrace
10
4014
20
-2167.15534407
30
0
11
3913.5
21
-2183.88998731
31
0
12
3913.5
22
-2150.42070083
32
0
13
3913.5
23
-2150.42070083
33
0
0
MTEXT
5
165
100
AcDbEntity
8
dimension
6
CONTINUOUS
62
7
370
0
100
AcDbMText
10
985
20
-2031.90534407
30
0
40
150
41
416.666666667
71
5
72
1
1
6058
7
standard
210
0
220
0
230
1
50
0
73
2
44
1
0
LINE
5
166
100
AcDbEntity
8
dimension
6
CONTINUOUS
62
7
370
0
100
AcDbLine
10
-2044
20
-1104.25
11
-2044
21
-2287.65534407
0
LINE
5
167
100
AcDbEntity
8
dimension
6
CONTINUOUS
62
7
370
0
100
AcDbLine
10
4014
20
-1104.25
11
4014
21
-2287.65534407
0
ENDBLK
5
56
330
54
100
AcDbEntity
8
0
100
AcDbBlockEnd
0
BLOCK
5
58
330
57
100
AcDbEntity
8
0
100
AcDbBlockBegin
2
*D1
70
1
10
0
20
0
3
*D1
1

0
LINE
5
168
100
AcDbEntity
8
dimension
6
CONTINUOUS
62
7
370
0
100
AcDbLine
10
-2984.27949019
20
1352
11
-2984.27949019
21
-1000
0
SOLID
5
169
100
AcDbEntity
8
dimension
6
CONTINUOUS
62
7
370
0
100
AcDbTrace
10
-2984.27949019
20
1352
30
0
11
-2967.54484695
21
1251.5
31
0
12
-3001.01413343
22
1251.5
32
0
13
-3001.01413343
23
1251.5
33
0
0
SOLID
5
16A
100
AcDbEntity
8
dimension
6
CONTINUOUS
62
7
370
0
100
AcDbTrace
10
-2984.27949019
20
-1000
30
0
11
-3001.01413343
21
-899.5
31
0
12
-2967.54484695
22
-899.5
32
0
13
-2967.54484695
23
-899.5
33
0
0
MTEXT
5
16B
100
AcDbEntity
8
dimension
6
CONTINUOUS
62
7
370
0
100
AcDbMText
10
-3119.52949019
20
176
30
0
40
150
41
416.666666667
71
5
72
1
1
2352
7
standard
210
0
220
0
230
1
50
90
73
2
44
1
0
LINE
5
16C
100
AcDbEntity
8
dimension
6
CONTINUOUS
62
7
370
0
100
AcDbLine
10
-2060.25
20
1352
11
-3104.77949019
21
1352
0
LINE
5
16D
100
AcDbEntity
8
dimension
6
CONTINUOUS
62
7
370
0
100
AcDbLine
10
-2060.25
20
-1000
11
-3104.77949019
21
-1000
0
ENDBLK
5
59
330
57
100
AcDbEntity
8
0
100
AcDbBlockEnd
0
BLOCK
5
5B
330
5A
100
AcDbEntity
8
0
100
AcDbBlockBegin
2
*D4
70
1
10
0
20
0
3
*D4
1

0
LINE
5
16E
100
AcDbEntity
8
dimension
6
CONTINUOUS
62
7
370
0
100
AcDbLine
10
-2989.12069897
20
1396
11
-2989.12069897
21
4964
0
SOLID
5
16F
100
AcDbEntity
8
dimension
6
CONTINUOUS
62
7
370
0
100
AcDbTrace
10
-2989.12069897
20
1396
30
0
11
-3005.85534221
21
1496.5
31
0
12
-2972.38605573
22
1496.5
32
0
13
-2972.38605573
23
1496.5
33
0
0
SOLID
5
170
100
AcDbEntity
8
dimension
6
CONTINUOUS
62
7
370
0
100
AcDbTrace
10
-2989.12069897
20
4964
30
0
11
-2972.38605573
21
4863.5
31
0
12
-3005.85534221
22
4863.5
32
0
13
-3005.85534221
23
4863.5
33
0
0
MTEXT
5
171
100
AcDbEntity
8
dimension
6
CONTINUOUS
62
7
370
0
100
AcDbMText
10
-3124.37069897
20
3180
30
0
40
150
41
416.666666667
71
5
72
1
1
3568
7
standard
210
0
220
0
230
1
50
90
73
2
44
1
0
LINE
5
172
100
AcDbEntity
8
dimension
6
CONTINUOUS
62
7
370
0
100
AcDbLine
10
-2104.25
20
1396
11
-3109.62069897
21
1396
0
LINE
5
173
100
AcDbEntity
8
dimension
6
CONTINUOUS
62
7
370
0
100
AcDbLine
10
-2104.25
20
4964
11
-3109.62069897
21
4964
0
ENDBLK
5
5C
330
5A
100
AcDbEntity
8
0
100
AcDbBlockEnd
0
BLOCK
5
5E
330
5D
100
AcDbEntity
8
0
100
AcDbBlockBegin
2
*D6
70
1
10
0
20
0
3
*D6
1

0
LINE
5
174
100
AcDbEntity
8
dimension
6
CONTINUOUS
62
7
370
0
100
AcDbLine
10
-1950
20
7761.46076878
11
-1150
21
7761.46076878
0
SOLID
5
175
100
AcDbEntity
8
dimension
6
CONTINUOUS
62
7
370
0
100
AcDbTrace
10
-1950
20
7761.46076878
30
0
11
-1849.5
21
7778.19541202
31
0
12
-1849.5
22
7744.72612554
32
0
13
-1849.5
23
7744.72612554
33
0
0
SOLID
5
176
100
AcDbEntity
8
dimension
6
CONTINUOUS
62
7
370
0
100
AcDbTrace
10
-1150
20
7761.46076878
30
0
11
-1250.5
21
7744.72612554
31
0
12
-1250.5
22
7778.19541202
32
0
13
-1250.5
23
7778.19541202
33
0
0
MTEXT
5
177
100
AcDbEntity
8
dimension
6
CONTINUOUS
62
7
370
0
100
AcDbMText
10
-1550
20
7896.71076878
30
0
40
150
41
300
71
5
72
1
1
800
7
standard
210
0
220
0
230
1
50
0
73
2
44
1
0
LINE
5
178
100
AcDbEntity
8
dimension
6
CONTINUOUS
62
7
370
0
100
AcDbLine
10
-1950
20
7370.25
11
-1950
21
7881.96076878
0
LINE
5
179
100
AcDbEntity
8
dimension
6
CONTINUOUS
62
7
370
0
100
AcDbLine
10
-1150
20
7370.25
11
-1150
21
7881.96076878
0
ENDBLK
5
5F
330
5D
100
AcDbEntity
8
0
100
AcDbBlockEnd
0
BLOCK
5
61
330
60
100
AcDbEntity
8
0
100
AcDbBlockBegin
2
*D2
70
1
10
0
20
0
3
*D2
1

0
LINE
5
17A
100
AcDbEntity
8
dimension
6
CONTINUOUS
62
7
370
0
100
AcDbLine
10
-3439.02684108
20
-1044
11
-3439.02684108
21
1396
0
SOLID
5
17B
100
AcDbEntity
8
dimension
6
CONTINUOUS
62
7
370
0
100
AcDbTrace
10
-3439.02684108
20
-1044
30
0
11
-3455.76148432
21
-943.5
31
0
12
-3422.29219784
22
-943.5
32
0
13
-3422.29219784
23
-943.5
33
0
0
SOLID
5
17C
100
AcDbEntity
8
dimension
6
CONTINUOUS
62
7
370
0
100
AcDbTrace
10
-3439.02684108
20
1396
30
0
11
-3422.29219784
21
1295.5
31
0
12
-3455.76148432
22
1295.5
32
0
13
-3455.76148432
23
1295.5
33
0
0
MTEXT
5
17D
100
AcDbEntity
8
dimension
6
CONTINUOUS
62
7
370
0
100
AcDbMText
10
-3574.27684108
20
176
30
0
40
150
41
450
71
5
72
1
1
2440
7
standard
210
0
220
0
230
1
50
90
73
2
44
1
0
LINE
5
17E
100
AcDbEntity
8
dimension
6
CONTINUOUS
62
7
370
0
100
AcDbLine
10
-2104.25
20
-1044
11
-3559.52684108
21
-1044
0
LINE
5
17F
100
AcDbEntity
8
dimension
6
CONTINUOUS
62
7
370
0
100
AcDbLine
10
-2104.25
20
1396
11
-3559.52684108
21
1396
0
ENDBLK
5
62
330
60
100
AcDbEntity
8
0
100
AcDbBlockEnd
0
BLOCK
5
64
330
63
100
AcDbEntity
8
0
100
AcDbBlockBegin
2
door800VerRight
70
0
10
0
20
0
3
door800VerRight
1

0
LINE
5
180
100
AcDbEntity
8
0
6
ByLayer
62
256
370
-1
100
AcDbLine
10
0
20
0
11
514.230087749
21
-612.835554495
0
ARC
5
181
100
AcDbEntity
8
0
6
ByLayer
62
256
370
-1
100
AcDbCircle
10
0
20
0
40
800
100
AcDbArc
50
270
51
310
0
LINE
5
182
100
AcDbEntity
8
0
6
ByLayer
62
256
370
-1
100
AcDbLine
10
-38.3022221559
20
-32.1393804843
11
475.927865593
21
-644.97493498
0
LINE
5
183
100
AcDbEntity
8
0
6
ByLayer
62
256
370
-1
100
AcDbLine
10
0
20
0
11
-38.3022221559
21
-32.1393804843
0
ENDBLK
5
65
330
63
100
AcDbEntity
8
0
100
AcDbBlockEnd
0
BLOCK
5
67
330
66
100
AcDbEntity
8
0
100
AcDbBlockBegin
2
door800VerRight-0
70
0
10
0
20
0
3
door800VerRight-0
1

0
INSERT
5
184
100
AcDbEntity
8
0
6
ByLayer
62
256
370
-1
100
AcDbBlockReference
2
door800VerRight
10
0
20
0
30
0
41
1
42
1
43
0
50
0
70
1
71
1
44
0
45
0
0
ENDBLK
5
68
330
66
100
AcDbEntity
8
0
100
AcDbBlockEnd
0
BLOCK
5
6A
330
69
100
AcDbEntity
8
0
100
AcDbBlockBegin
2
outlet110HorUp-0
70
0
10
0
20
0
3
outlet110HorUp-0
1

0
CIRCLE
5
185
100
AcDbEntity
8
0
6
ByLayer
62
256
370
-1
100
AcDbCircle
10
19.2383306793
20
93.1569229908
40
50
0
LINE
5
186
100
AcDbEntity
8
0
6
ByLayer
62
256
370
-1
100
AcDbLine
10
36.2896076697
20
0
11
36.2896076697
21
161.186024643
0
LINE
5
187
100
AcDbEntity
8
0
6
ByLayer
62
256
370
-1
100
AcDbLine
10
0
20
0
11
0
21
161.186024643
0
ENDBLK
5
6B
330
69
100
AcDbEntity
8
0
100
AcDbBlockEnd
0
BLOCK
5
6D
330
6C
100
AcDbEntity
8
0
100
AcDbBlockBegin
2
door700VerLeft-1
70
0
10
0
20
0
3
door700VerLeft-1
1

0
LINE
5
188
100
AcDbEntity
8
0
6
ByLayer
62
256
370
-1
100
AcDbLine
10
0
20
0
11
-614.878036687
21
-355
0
ARC
5
189
100
AcDbEntity
8
0
6
ByLayer
62
256
370
-1
100
AcDbCircle
10
0
20
0
40
710
100
AcDbArc
50
210
51
270
0
LINE
5
18A
100
AcDbEntity
8
0
6
ByLayer
62
256
370
-1
100
AcDbLine
10
25
20
-43.3012701892
11
-589.878036687
21
-398.301270189
0
LINE
5
18B
100
AcDbEntity
8
0
6
ByLayer
62
256
370
-1
100
AcDbLine
10
0
20
0
11
25
21
-43.3012701892
0
ENDBLK
5
6E
330
6C
100
AcDbEntity
8
0
100
AcDbBlockEnd
0
BLOCK
5
70
330
6F
100
AcDbEntity
8
0
100
AcDbBlockBegin
2
WCVerRight-2
70
0
10
0
20
0
3
WCVerRight-2
1

0
LINE
5
18C
100
AcDbEntity
8
0
6
ByLayer
62
256
370
-1
100
AcDbLine
10
0
20
0
11
200
21
0
0
LINE
5
18D
100
AcDbEntity
8
0
6
ByLayer
62
256
370
-1
100
AcDbLine
10
0
20
0
11
0
21
470
0
LINE
5
18E
100
AcDbEntity
8
0
6
ByLayer
62
256
370
-1
100
AcDbLine
10
200
20
0
11
200
21
470
0
LINE
5
18F
100
AcDbEntity
8
0
6
ByLayer
62
256
370
-1
100
AcDbLine
10
0
20
470
11
200
21
470
0
ELLIPSE
5
190
100
AcDbEntity
8
0
6
ByLayer
62
256
370
-1
100
AcDbEllipse
10
483.839834606
20
228.898383818
30
0
11
238.828093948
21
-6.63411372079
31
0
40
0.61565150347
41
0
42
6.28318530718
0
ENDBLK
5
71
330
6F
100
AcDbEntity
8
0
100
AcDbBlockEnd
0
BLOCK
5
73
330
72
100
AcDbEntity
8
0
100
AcDbBlockBegin
2
tub_ver-0
70
0
10
0
20
0
3
tub_ver-0
1

0
ARC
5
191
100
AcDbEntity
8
0
6
ByLayer
62
256
370
-1
100
AcDbCircle
10
50
20
0
40
50
100
AcDbArc
50
90
51
180
0
LINE
5
192
100
AcDbEntity
8
0
6
ByLayer
62
256
370
-1
100
AcDbLine
10
50
20
50
11
530
21
50
0
ARC
5
193
100
AcDbEntity
8
0
6
ByLayer
62
256
370
-1
100
AcDbCircle
10
530
20
0
40
50
100
AcDbArc
50
0
51
90
0
LINE
5
194
100
AcDbEntity
8
0
6
ByLayer
62
256
370
-1
100
AcDbLine
10
580
20
-870
11
580
21
0
0
ARC
5
195
100
AcDbEntity
8
0
6
ByLayer
62
256
370
-1
100
AcDbCircle
10
530
20
-870
40
50
100
AcDbArc
50
270
51
0
0
LINE
5
196
100
AcDbEntity
8
0
6
ByLayer
62
256
370
-1
100
AcDbLine
10
50
20
-920
11
530
21
-920
0
LINE
5
197
100
AcDbEntity
8
0
6
ByLayer
62
256
370
-1
100
AcDbLine
10
-2.84217094304e-13
20
-870
11
0
21
0
0
ARC
5
198
100
AcDbEntity
8
0
6
ByLayer
62
256
370
-1
100
AcDbCircle
10
50
20
-870
40
50
100
AcDbArc
50
180
51
270
0
ENDBLK
5
74
330
72
100
AcDbEntity
8
0
100
AcDbBlockEnd
0
BLOCK
5
76
330
75
100
AcDbEntity
8
0
100
AcDbBlockBegin
2
door800VerLeft-0
70
0
10
0
20
0
3
door800VerLeft-0
1

0
LINE
5
199
100
AcDbEntity
8
0
6
ByLayer
62
256
370
-1
100
AcDbLine
10
0
20
0
11
-514.230087749
21
-612.835554495
0
ARC
5
19A
100
AcDbEntity
8
0
6
ByLayer
62
256
370
-1
100
AcDbCircle
10
0
20
0
40
800
100
AcDbArc
50
230
51
270
0
LINE
5
19B
100
AcDbEntity
8
0
6
ByLayer
62
256
370
-1
100
AcDbLine
10
38.3022221559
20
-32.1393804843
11
-475.927865593
21
-644.97493498
0
LINE
5
19C
100
AcDbEntity
8
0
6
ByLayer
62
256
370
-1
100
AcDbLine
10
0
20
0
11
38.3022221559
21
-32.1393804843
0
ENDBLK
5
77
330
75
100
AcDbEntity
8
0
100
AcDbBlockEnd
0
BLOCK
5
79
330
78
100
AcDbEntity
8
0
100
AcDbBlockBegin
2
washer_Hor-0
70
0
10
0
20
0
3
washer_Hor-0
1

0
LINE
5
19D
100
AcDbEntity
8
0
6
ByLayer
62
256
370
-1
100
AcDbLine
10
520
20
0
11
520
21
550
0
LINE
5
19E
100
AcDbEntity
8
0
6
ByLayer
62
256
370
-1
100
AcDbLine
10
0
20
0
11
0
21
550
0
LINE
5
19F
100
AcDbEntity
8
0
6
ByLayer
62
256
370
-1
100
AcDbLine
10
0
20
550
11
520
21
550
0
LINE
5
1A0
100
AcDbEntity
8
0
6
ByLayer
62
256
370
-1
100
AcDbLine
10
0
20
0
11
520
21
0
0
CIRCLE
5
1A1
100
AcDbEntity
8
0
6
ByLayer
62
256
370
-1
100
AcDbCircle
10
260
20
275
40
190.24749449
0
LINE
5
1A2
100
AcDbEntity
8
0
6
ByLayer
62
256
370
-1
100
AcDbLine
10
0
20
50
11
520
21
50
0
ENDBLK
5
7A
330
78
100
AcDbEntity
8
0
100
AcDbBlockEnd
0
BLOCK
5
7C
330
7B
100
AcDbEntity
8
0
100
AcDbBlockBegin
2
washer_Hor-1
70
0
10
0
20
0
3
washer_Hor-1
1

0
LINE
5
1A3
100
AcDbEntity
8
0
6
ByLayer
62
256
370
-1
100
AcDbLine
10
520
20
0
11
520
21
550
0
LINE
5
1A4
100
AcDbEntity
8
0
6
ByLayer
62
256
370
-1
100
AcDbLine
10
0
20
0
11
0
21
550
0
LINE
5
1A5
100
AcDbEntity
8
0
6
ByLayer
62
256
370
-1
100
AcDbLine
10
0
20
550
11
520
21
550
0
LINE
5
1A6
100
AcDbEntity
8
0
6
ByLayer
62
256
370
-1
100
AcDbLine
10
0
20
0
11
520
21
0
0
CIRCLE
5
1A7
100
AcDbEntity
8
0
6
ByLayer
62
256
370
-1
100
AcDbCircle
10
260
20
275
40
190.24749449
0
LINE
5
1A8
100
AcDbEntity
8
0
6
ByLayer
62
256
370
-1
100
AcDbLine
10
0
20
50
11
520
21
50
0
ENDBLK
5
7D
330
7B
100
AcDbEntity
8
0
100
AcDbBlockEnd
0
BLOCK
5
7F
330
7E
100
AcDbEntity
8
0
100
AcDbBlockBegin
2
refridge500_600_verRight-0
70
0
10
0
20
0
3
refridge500_600_verRight-0
1

0
LINE
5
1A9
100
AcDbEntity
8
0
6
ByLayer
62
256
370
-1
100
AcDbLine
10
0
20
0
11
550
21
0
0
LINE
5
1AA
100
AcDbEntity
8
0
6
ByLayer
62
256
370
-1
100
AcDbLine
10
0
20
-600
11
550
21
-600
0
LINE
5
1AB
100
AcDbEntity
8
0
6
ByLayer
62
256
370
-1
100
AcDbLine
10
500
20
0
11
500
21
-600
0
LINE
5
1AC
100
AcDbEntity
8
0
6
ByLayer
62
256
370
-1
100
AcDbLine
10
0
20
0
11
0
21
-600
0
ARC
5
1AD
100
AcDbEntity
8
0
6
ByLayer
62
256
370
-1
100
AcDbCircle
10
-689.692211372
20
-300
40
1275.4751189
100
AcDbArc
50
346.396206231
51
13.603793769
0
LINE
5
1AE
100
AcDbEntity
8
0
6
ByLayer
62
256
370
-1
100
AcDbLine
10
510
20
0
11
510
21
-600
0
MTEXT
5
1AF
100
AcDbEntity
8
0
6
ByLayer
62
256
370
-1
100
AcDbMText
10
266.901409432
20
-24.0279179021
30
0
40
200
41
533.333333333
71
4
72
5
1
Refr
7
iso
210
0
220
0
230
1
50
270
73
1
44
0.96
0
ENDBLK
5
80
330
7E
100
AcDbEntity
8
0
100
AcDbBlockEnd
0
BLOCK
5
82
330
81
100
AcDbEntity
8
0
100
AcDbBlockBegin
2
jtub
70
0
10
0
20
0
3
jtub
1

0
INSERT
5
1B0
100
AcDbEntity
8
fixtures
6
ByLayer
62
256
370
-1
100
AcDbBlockReference
2
tub_ver-0
10
89.9985784502
20
870.630897716
30
0
41
1
42
1
43
0
50
0
70
1
71
1
44
0
45
0
0
LINE
5
1B1
100
AcDbEntity
8
fixtures
6
ByLayer
62
256
370
-1
100
AcDbLine
10
759.99857845
20
0.630897714578
11
759.99857845
21
870.630897716
0
ARC
5
1B2
100
AcDbEntity
8
fixtures
6
ByLayer
62
256
370
-1
100
AcDbCircle
10
619.99857845
20
870.630897716
40
140
100
AcDbArc
50
0
51
90
0
ARC
5
1B3
100
AcDbEntity
8
fixtures
6
ByLayer
62
256
370
-1
100
AcDbCircle
10
619.99857845
20
0.630897714578
40
140
100
AcDbArc
50
270
51
0
0
LINE
5
1B4
100
AcDbEntity
8
fixtures
6
ByLayer
62
256
370
-1
100
AcDbLine
10
139.99857845
20
-139.369102285
11
619.99857845
21
-139.369102285
0
ARC
5
1B5
100
AcDbEntity
8
fixtures
6
ByLayer
62
256
370
-1
100
AcDbCircle
10
139.99857845
20
0.630897714578
40
140
100
AcDbArc
50
180
51
270
0
ARC
5
1B6
100
AcDbEntity
8
fixtures
6
ByLayer
62
256
370
-1
100
AcDbCircle
10
139.99857845
20
870.630897716
40
140
100
AcDbArc
50
90
51
180
0
LINE
5
1B7
100
AcDbEntity
8
fixtures
6
ByLayer
62
256
370
-1
100
AcDbLine
10
139.99857845
20
1010.63089772
11
619.99857845
21
1010.63089772
0
LINE
5
1B8
100
AcDbEntity
8
fixtures
6
ByLayer
62
256
370
-1
100
AcDbLine
10
-0.00142154981094
20
870.630897716
11
0
21
0
0
ENDBLK
5
83
330
81
100
AcDbEntity
8
0
100
AcDbBlockEnd
0
BLOCK
5
85
330
84
100
AcDbEntity
8
0
100
AcDbBlockBegin
2
bathroom-0
70
0
10
0
20
0
3
bathroom-0
1

0
LINE
5
1B9
100
AcDbEntity
8
0
6
ByLayer
62
256
370
-1
100
AcDbLine
10
0
20
9.09494701773e-13
11
0
21
2252.00000001
0
LINE
5
1BA
100
AcDbEntity
8
0
6
ByLayer
62
256
370
-1
100
AcDbLine
10
0
20
1452.00000001
11
1700
21
1452.00000001
0
LINE
5
1BB
100
AcDbEntity
8
0
6
ByLayer
62
256
370
-1
100
AcDbLine
10
0
20
1402.00000001
11
1700
21
1402.00000001
0
LINE
5
1BC
100
AcDbEntity
8
0
6
ByLayer
62
256
370
-1
100
AcDbLine
10
2990
20
9.09494701773e-13
11
2990
21
2252.00000001
0
LINE
5
1BD
100
AcDbEntity
8
0
6
ByLayer
62
256
370
-1
100
AcDbLine
10
3040
20
9.09494701773e-13
11
3040
21
2252.00000001
0
LINE
5
1BE
100
AcDbEntity
8
0
6
ByLayer
62
256
370
-1
100
AcDbLine
10
1700
20
2227.00000001
11
1750
21
2227.00000001
0
LINE
5
1BF
100
AcDbEntity
8
0
6
ByLayer
62
256
370
-1
100
AcDbLine
10
1700
20
1517.00000001
11
1750
21
1517.00000001
0
LINE
5
1C0
100
AcDbEntity
8
0
6
ByLayer
62
256
370
-1
100
AcDbLine
10
1700
20
2227.00000001
11
1700
21
2252.00000001
0
LINE
5
1C1
100
AcDbEntity
8
0
6
ByLayer
62
256
370
-1
100
AcDbLine
10
1750
20
2227.00000001
11
1750
21
2252.00000001
0
LINE
5
1C2
100
AcDbEntity
8
0
6
ByLayer
62
256
370
-1
100
AcDbLine
10
1700
20
1377.00000001
11
1750
21
1377.00000001
0
LINE
5
1C3
100
AcDbEntity
8
0
6
ByLayer
62
256
370
-1
100
AcDbLine
10
1700
20
577
11
1750
21
577
0
LINE
5
1C4
100
AcDbEntity
8
0
6
ByLayer
62
256
370
-1
100
AcDbLine
10
1750
20
1377.00000001
11
1750
21
1517.00000001
0
LINE
5
1C5
100
AcDbEntity
8
0
6
ByLayer
62
256
370
-1
100
AcDbLine
10
1700
20
1377.00000001
11
1700
21
1517.00000001
0
LINE
5
1C6
100
AcDbEntity
8
0
6
ByLayer
62
256
370
-1
100
AcDbLine
10
1750
20
9.09494701773e-13
11
1750
21
577
0
LINE
5
1C7
100
AcDbEntity
8
0
6
ByLayer
62
256
370
-1
100
AcDbLine
10
1700
20
9.09494701773e-13
11
1700
21
577
0
LINE
5
1C8
100
AcDbEntity
8
0
6
ByLayer
62
256
370
-1
100
AcDbLine
10
0
20
2252.00000001
11
2040
21
2252.00000001
0
LINE
5
1C9
100
AcDbEntity
8
0
6
ByLayer
62
256
370
-1
100
AcDbLine
10
2040
20
2252.00000001
11
2040
21
2302.00000001
0
LINE
5
1CA
100
AcDbEntity
8
0
6
ByLayer
62
256
370
-1
100
AcDbLine
10
2940
20
2252.00000001
11
2940
21
2302.00000001
0
INSERT
5
1CB
100
AcDbEntity
8
eletrical
6
ByLayer
62
256
370
-1
100
AcDbBlockReference
2
outlet110HorUp-0
10
377.774224368
20
1452.00000001
30
0
41
1
42
1
43
0
50
0
70
1
71
1
44
0
45
0
0
INSERT
5
1CC
100
AcDbEntity
8
doors
6
ByLayer
62
256
370
-1
100
AcDbBlockReference
2
door700VerLeft-1
10
1700
20
2227.00000001
30
0
41
1
42
1
43
0
50
0
70
1
71
1
44
0
45
0
0
INSERT
5
1CD
100
AcDbEntity
8
doors
6
ByLayer
62
256
370
-1
100
AcDbBlockReference
2
door800VerLeft-0
10
1700
20
1377.00000001
30
0
41
1
42
1
43
0
50
0
70
1
71
1
44
0
45
0
0
INSERT
5
1CE
100
AcDbEntity
8
fixtures
6
ByLayer
62
256
370
-1
100
AcDbBlockReference
2
washer_Hor-1
10
2453.68526873
20
10
30
0
41
1
42
1
43
0
50
0
70
1
71
1
44
0
45
0
0
LINE
5
1CF
100
AcDbEntity
8
0
6
ByLayer
62
256
370
-1
100
AcDbLine
10
2940
20
2252.00000001
11
2990
21
2252.00000001
0
LINE
5
1D0
100
AcDbEntity
8
0
6
ByLayer
62
256
370
-1
100
AcDbLine
10
0
20
9.09494701773e-13
11
2990
21
9.09494701773e-13
0
LINE
5
1D1
100
AcDbEntity
8
bogus
6
ByLayer
62
256
370
-1
100
AcDbLine
10
-100
20
-50
11
50
21
-50
0
LINE
5
1D2
100
AcDbEntity
8
bogus
6
ByLayer
62
256
370
-1
100
AcDbLine
10
-50
20
-100
11
-50
21
50
0
INSERT
5
1D3
100
AcDbEntity
8
fixtures
6
ByLayer
62
256
370
-1
100
AcDbBlockReference
2
WCVerRight-2
10
10
20
1640.77186831
30
0
41
1
42
1
43
0
50
0
70
1
71
1
44
0
45
0
0
INSERT
5
1D4
100
AcDbEntity
8
fixtures
6
ByLayer
62
256
370
-1
100
AcDbBlockReference
2
jtub
10
10.00142155
20
382.67165141
30
0
41
1
42
1
43
0
50
0
70
1
71
1
44
0
45
0
0
ENDBLK
5
86
330
84
100
AcDbEntity
8
0
100
AcDbBlockEnd
0
BLOCK
5
88
330
87
100
AcDbEntity
8
0
100
AcDbBlockBegin
2
outlet110HorUp-0-0
70
0
10
0
20
0
3
outlet110HorUp-0-0
1

0
CIRCLE
5
1D5
100
AcDbEntity
8
0
6
ByLayer
62
256
370
-1
100
AcDbCircle
10
19.2383306793
20
93.1569229908
40
50
0
LINE
5
1D6
100
AcDbEntity
8
0
6
ByLayer
62
256
370
-1
100
AcDbLine
10
36.2896076697
20
0
11
36.2896076697
21
161.186024643
0
LINE
5
1D7
100
AcDbEntity
8
0
6
ByLayer
62
256
370
-1
100
AcDbLine
10
0
20
0
11
0
21
161.186024643
0
ENDBLK
5
89
330
87
100
AcDbEntity
8
0
100
AcDbBlockEnd
0
BLOCK
5
8B
330
8A
100
AcDbEntity
8
0
100
AcDbBlockBegin
2
door700VerLeft-1-0
70
0
10
0
20
0
3
door700VerLeft-1-0
1

0
LINE
5
1D8
100
AcDbEntity
8
0
6
ByLayer
62
256
370
-1
100
AcDbLine
10
0
20
0
11
-614.878036687
21
-355
0
ARC
5
1D9
100
AcDbEntity
8
0
6
ByLayer
62
256
370
-1
100
AcDbCircle
10
0
20
0
40
710
100
AcDbArc
50
210
51
270
0
LINE
5
1DA
100
AcDbEntity
8
0
6
ByLayer
62
256
370
-1
100
AcDbLine
10
25
20
-43.3012701892
11
-589.878036687
21
-398.301270189
0
LINE
5
1DB
100
AcDbEntity
8
0
6
ByLayer
62
256
370
-1
100
AcDbLine
10
0
20
0
11
25
21
-43.3012701892
0
ENDBLK
5
8C
330
8A
100
AcDbEntity
8
0
100
AcDbBlockEnd
0
BLOCK
5
8E
330
8D
100
AcDbEntity
8
0
100
AcDbBlockBegin
2
WCVerRight-2-0
70
0
10
0
20
0
3
WCVerRight-2-0
1

0
LINE
5
1DC
100
AcDbEntity
8
0
6
ByLayer
62
256
370
-1
100
AcDbLine
10
0
20
0
11
200
21
0
0
LINE
5
1DD
100
AcDbEntity
8
0
6
ByLayer
62
256
370
-1
100
AcDbLine
10
0
20
0
11
0
21
470
0
LINE
5
1DE
100
AcDbEntity
8
0
6
ByLayer
62
256
370
-1
100
AcDbLine
10
200
20
0
11
200
21
470
0
LINE
5
1DF
100
AcDbEntity
8
0
6
ByLayer
62
256
370
-1
100
AcDbLine
10
0
20
470
11
200
21
470
0
ELLIPSE
5
1E0
100
AcDbEntity
8
0
6
ByLayer
62
256
370
-1
100
AcDbEllipse
10
483.839834606
20
228.898383818
30
0
11
238.828093948
21
-6.63411372079
31
0
40
0.61565150347
41
0
42
6.28318530718
0
ENDBLK
5
8F
330
8D
100
AcDbEntity
8
0
100
AcDbBlockEnd
0
BLOCK
5
91
330
90
100
AcDbEntity
8
0
100
AcDbBlockBegin
2
tub_ver-0-0
70
0
10
0
20
0
3
tub_ver-0-0
1

0
ARC
5
1E1
100
AcDbEntity
8
0
6
ByLayer
62
256
370
-1
100
AcDbCircle
10
50
20
0
40
50
100
AcDbArc
50
90
51
180
0
LINE
5
1E2
100
AcDbEntity
8
0
6
ByLayer
62
256
370
-1
100
AcDbLine
10
50
20
50
11
530
21
50
0
ARC
5
1E3
100
AcDbEntity
8
0
6
ByLayer
62
256
370
-1
100
AcDbCircle
10
530
20
0
40
50
100
AcDbArc
50
0
51
90
0
LINE
5
1E4
100
AcDbEntity
8
0
6
ByLayer
62
256
370
-1
100
AcDbLine
10
580
20
-870
11
580
21
0
0
ARC
5
1E5
100
AcDbEntity
8
0
6
ByLayer
62
256
370
-1
100
AcDbCircle
10
530
20
-870
40
50
100
AcDbArc
50
270
51
0
0
LINE
5
1E6
100
AcDbEntity
8
0
6
ByLayer
62
256
370
-1
100
AcDbLine
10
50
20
-920
11
530
21
-920
0
LINE
5
1E7
100
AcDbEntity
8
0
6
ByLayer
62
256
370
-1
100
AcDbLine
10
-2.84217094304e-13
20
-870
11
0
21
0
0
ARC
5
1E8
100
AcDbEntity
8
0
6
ByLayer
62
256
370
-1
100
AcDbCircle
10
50
20
-870
40
50
100
AcDbArc
50
180
51
270
0
ENDBLK
5
92
330
90
100
AcDbEntity
8
0
100
AcDbBlockEnd
0
BLOCK
5
94
330
93
100
AcDbEntity
8
0
100
AcDbBlockBegin
2
door800VerLeft-0-0
70
0
10
0
20
0
3
door800VerLeft-0-0
1

0
LINE
5
1E9
100
AcDbEntity
8
0
6
ByLayer
62
256
370
-1
100
AcDbLine
10
0
20
0
11
-514.230087749
21
-612.835554495
0
ARC
5
1EA
100
AcDbEntity
8
0
6
ByLayer
62
256
370
-1
100
AcDbCircle
10
0
20
0
40
800
100
AcDbArc
50
230
51
270
0
LINE
5
1EB
100
AcDbEntity
8
0
6
ByLayer
62
256
370
-1
100
AcDbLine
10
38.3022221559
20
-32.1393804843
11
-475.927865593
21
-644.97493498
0
LINE
5
1EC
100
AcDbEntity
8
0
6
ByLayer
62
256
370
-1
100
AcDbLine
10
0
20
0
11
38.3022221559
21
-32.1393804843
0
ENDBLK
5
95
330
93
100
AcDbEntity
8
0
100
AcDbBlockEnd
0
BLOCK
5
97
330
96
100
AcDbEntity
8
0
100
AcDbBlockBegin
2
KyotoKyomaTatamiVertical-0
70
0
10
0
20
0
3
KyotoKyomaTatamiVertical-0
1

0
LINE
5
1ED
100
AcDbEntity
8
0
6
ByLayer
62
256
370
-1
100
AcDbLine
10
0
20
0
11
-955
21
0
0
LINE
5
1EE
100
AcDbEntity
8
0
6
ByLayer
62
256
370
-1
100
AcDbLine
10
0
20
1910
11
-955
21
1910
0
LINE
5
1EF
100
AcDbEntity
8
0
6
ByLayer
62
256
370
-1
100
AcDbLine
10
-955
20
0
11
-955
21
1910
0
LINE
5
1F0
100
AcDbEntity
8
0
6
ByLayer
62
256
370
-1
100
AcDbLine
10
0
20
0
11
0
21
1910
0
LINE
5
1F1
100
AcDbEntity
8
0
6
ByLayer
62
256
370
-1
100
AcDbLine
10
-930
20
0
11
-930
21
1910
0
LINE
5
1F2
100
AcDbEntity
8
0
6
ByLayer
62
256
370
-1
100
AcDbLine
10
0
20
1885
11
-955
21
1885
0
LINE
5
1F3
100
AcDbEntity
8
0
6
ByLayer
62
256
370
-1
100
AcDbLine
10
0
20
25
11
-955
21
25
0
LINE
5
1F4
100
AcDbEntity
8
0
6
ByLayer
62
256
370
-1
100
AcDbLine
10
-25
20
0
11
-25
21
1910
0
LINE
5
1F5
100
AcDbEntity
8
0
6
ByLayer
62
256
370
-1
100
AcDbLine
10
0
20
955
11
-25
21
955
0
LINE
5
1F6
100
AcDbEntity
8
0
6
ByLayer
62
256
370
-1
100
AcDbLine
10
-930
20
955
11
-955
21
955
0
ENDBLK
5
98
330
96
100
AcDbEntity
8
0
100
AcDbBlockEnd
0
BLOCK
5
9A
330
99
100
AcDbEntity
8
0
100
AcDbBlockBegin
2
KyotoKyomaTatamiVertical-1
70
0
10
0
20
0
3
KyotoKyomaTatamiVertical-1
1

0
LINE
5
1F7
100
AcDbEntity
8
0
6
ByLayer
62
256
370
-1
100
AcDbLine
10
0
20
0
11
-955
21
0
0
LINE
5
1F8
100
AcDbEntity
8
0
6
ByLayer
62
256
370
-1
100
AcDbLine
10
0
20
1910
11
-955
21
1910
0
LINE
5
1F9
100
AcDbEntity
8
0
6
ByLayer
62
256
370
-1
100
AcDbLine
10
-955
20
0
11
-955
21
1910
0
LINE
5
1FA
100
AcDbEntity
8
0
6
ByLayer
62
256
370
-1
100
AcDbLine
10
0
20
0
11
0
21
1910
0
LINE
5
1FB
100
AcDbEntity
8
0
6
ByLayer
62
256
370
-1
100
AcDbLine
10
-930
20
0
11
-930
21
1910
0
LINE
5
1FC
100
AcDbEntity
8
0
6
ByLayer
62
256
370
-1
100
AcDbLine
10
0
20
1885
11
-955
21
1885
0
LINE
5
1FD
100
AcDbEntity
8
0
6
ByLayer
62
256
370
-1
100
AcDbLine
10
0
20
25
11
-955
21
25
0
LINE
5
1FE
100
AcDbEntity
8
0
6
ByLayer
62
256
370
-1
100
AcDbLine
10
-25
20
0
11
-25
21
1910
0
LINE
5
1FF
100
AcDbEntity
8
0
6
ByLayer
62
256
370
-1
100
AcDbLine
10
0
20
955
11
-25
21
955
0
LINE
5
200
100
AcDbEntity
8
0
6
ByLayer
62
256
370
-1
100
AcDbLine
10
-930
20
955
11
-955
21
955
0
ENDBLK
5
9B
330
99
100
AcDbEntity
8
0
100
AcDbBlockEnd
0
BLOCK
5
9D
330
9C
100
AcDbEntity
8
0
100
AcDbBlockBegin
2
KyotoKyomaTatamiVertical-2
70
0
10
0
20
0
3
KyotoKyomaTatamiVertical-2
1

0
LINE
5
201
100
AcDbEntity
8
0
6
ByLayer
62
256
370
-1
100
AcDbLine
10
0
20
0
11
-955
21
0
0
LINE
5
202
100
AcDbEntity
8
0
6
ByLayer
62
256
370
-1
100
AcDbLine
10
0
20
1910
11
-955
21
1910
0
LINE
5
203
100
AcDbEntity
8
0
6
ByLayer
62
256
370
-1
100
AcDbLine
10
-955
20
0
11
-955
21
1910
0
LINE
5
204
100
AcDbEntity
8
0
6
ByLayer
62
256
370
-1
100
AcDbLine
10
0
20
0
11
0
21
1910
0
LINE
5
205
100
AcDbEntity
8
0
6
ByLayer
62
256
370
-1
100
AcDbLine
10
-930
20
0
11
-930
21
1910
0
LINE
5
206
100
AcDbEntity
8
0
6
ByLayer
62
256
370
-1
100
AcDbLine
10
0
20
1885
11
-955
21
1885
0
LINE
5
207
100
AcDbEntity
8
0
6
ByLayer
62
256
370
-1
100
AcDbLine
10
0
20
25
11
-955
21
25
0
LINE
5
208
100
AcDbEntity
8
0
6
ByLayer
62
256
370
-1
100
AcDbLine
10
-25
20
0
11
-25
21
1910
0
LINE
5
209
100
AcDbEntity
8
0
6
ByLayer
62
256
370
-1
100
AcDbLine
10
0
20
955
11
-25
21
955
0
LINE
5
20A
100
AcDbEntity
8
0
6
ByLayer
62
256
370
-1
100
AcDbLine
10
-930
20
955
11
-955
21
955
0
ENDBLK
5
9E
330
9C
100
AcDbEntity
8
0
100
AcDbBlockEnd
0
BLOCK
5
A0
330
9F
100
AcDbEntity
8
0
100
AcDbBlockBegin
2
KyotoKyomaTatamiVertical-3
70
0
10
0
20
0
3
KyotoKyomaTatamiVertical-3
1

0
LINE
5
20B
100
AcDbEntity
8
0
6
ByLayer
62
256
370
-1
100
AcDbLine
10
0
20
0
11
-955
21
0
0
LINE
5
20C
100
AcDbEntity
8
0
6
ByLayer
62
256
370
-1
100
AcDbLine
10
0
20
1910
11
-955
21
1910
0
LINE
5
20D
100
AcDbEntity
8
0
6
ByLayer
62
256
370
-1
100
AcDbLine
10
-955
20
0
11
-955
21
1910
0
LINE
5
20E
100
AcDbEntity
8
0
6
ByLayer
62
256
370
-1
100
AcDbLine
10
0
20
0
11
0
21
1910
0
LINE
5
20F
100
AcDbEntity
8
0
6
ByLayer
62
256
370
-1
100
AcDbLine
10
-930
20
0
11
-930
21
1910
0
LINE
5
210
100
AcDbEntity
8
0
6
ByLayer
62
256
370
-1
100
AcDbLine
10
0
20
1885
11
-955
21
1885
0
LINE
5
211
100
AcDbEntity
8
0
6
ByLayer
62
256
370
-1
100
AcDbLine
10
0
20
25
11
-955
21
25
0
LINE
5
212
100
AcDbEntity
8
0
6
ByLayer
62
256
370
-1
100
AcDbLine
10
-25
20
0
11
-25
21
1910
0
LINE
5
213
100
AcDbEntity
8
0
6
ByLayer
62
256
370
-1
100
AcDbLine
10
0
20
955
11
-25
21
955
0
LINE
5
214
100
AcDbEntity
8
0
6
ByLayer
62
256
370
-1
100
AcDbLine
10
-930
20
955
11
-955
21
955
0
ENDBLK
5
A1
330
9F
100
AcDbEntity
8
0
100
AcDbBlockEnd
0
BLOCK
5
A3
330
A2
100
AcDbEntity
8
0
100
AcDbBlockBegin
2
KyotoKyomaTatamiVertical-4
70
0
10
0
20
0
3
KyotoKyomaTatamiVertical-4
1

0
LINE
5
215
100
AcDbEntity
8
0
6
ByLayer
62
256
370
-1
100
AcDbLine
10
0
20
0
11
-955
21
0
0
LINE
5
216
100
AcDbEntity
8
0
6
ByLayer
62
256
370
-1
100
AcDbLine
10
0
20
1910
11
-955
21
1910
0
LINE
5
217
100
AcDbEntity
8
0
6
ByLayer
62
256
370
-1
100
AcDbLine
10
-955
20
0
11
-955
21
1910
0
LINE
5
218
100
AcDbEntity
8
0
6
ByLayer
62
256
370
-1
100
AcDbLine
10
0
20
0
11
0
21
1910
0
LINE
5
219
100
AcDbEntity
8
0
6
ByLayer
62
256
370
-1
100
AcDbLine
10
-930
20
0
11
-930
21
1910
0
LINE
5
21A
100
AcDbEntity
8
0
6
ByLayer
62
256
370
-1
100
AcDbLine
10
0
20
1885
11
-955
21
1885
0
LINE
5
21B
100
AcDbEntity
8
0
6
ByLayer
62
256
370
-1
100
AcDbLine
10
0
20
25
11
-955
21
25
0
LINE
5
21C
100
AcDbEntity
8
0
6
ByLayer
62
256
370
-1
100
AcDbLine
10
-25
20
0
11
-25
21
1910
0
LINE
5
21D
100
AcDbEntity
8
0
6
ByLayer
62
256
370
-1
100
AcDbLine
10
0
20
955
11
-25
21
955
0
LINE
5
21E
100
AcDbEntity
8
0
6
ByLayer
62
256
370
-1
100
AcDbLine
10
-930
20
955
11
-955
21
955
0
ENDBLK
5
A4
330
A2
100
AcDbEntity
8
0
100
AcDbBlockEnd
0
BLOCK
5
A6
330
A5
100
AcDbEntity
8
0
100
AcDbBlockBegin
2
KyotoKyomaTatamiVertical-5
70
0
10
0
20
0
3
KyotoKyomaTatamiVertical-5
1

0
LINE
5
21F
100
AcDbEntity
8
0
6
ByLayer
62
256
370
-1
100
AcDbLine
10
0
20
0
11
-955
21
0
0
LINE
5
220
100
AcDbEntity
8
0
6
ByLayer
62
256
370
-1
100
AcDbLine
10
0
20
1910
11
-955
21
1910
0
LINE
5
221
100
AcDbEntity
8
0
6
ByLayer
62
256
370
-1
100
AcDbLine
10
-955
20
0
11
-955
21
1910
0
LINE
5
222
100
AcDbEntity
8
0
6
ByLayer
62
256
370
-1
100
AcDbLine
10
0
20
0
11
0
21
1910
0
LINE
5
223
100
AcDbEntity
8
0
6
ByLayer
62
256
370
-1
100
AcDbLine
10
-930
20
0
11
-930
21
1910
0
LINE
5
224
100
AcDbEntity
8
0
6
ByLayer
62
256
370
-1
100
AcDbLine
10
0
20
1885
11
-955
21
1885
0
LINE
5
225
100
AcDbEntity
8
0
6
ByLayer
62
256
370
-1
100
AcDbLine
10
0
20
25
11
-955
21
25
0
LINE
5
226
100
AcDbEntity
8
0
6
ByLayer
62
256
370
-1
100
AcDbLine
10
-25
20
0
11
-25
21
1910
0
LINE
5
227
100
AcDbEntity
8
0
6
ByLayer
62
256
370
-1
100
AcDbLine
10
0
20
955
11
-25
21
955
0
LINE
5
228
100
AcDbEntity
8
0
6
ByLayer
62
256
370
-1
100
AcDbLine
10
-930
20
955
11
-955
21
955
0
ENDBLK
5
A7
330
A5
100
AcDbEntity
8
0
100
AcDbBlockEnd
0
BLOCK
5
A9
330
A8
100
AcDbEntity
8
0
100
AcDbBlockBegin
2
KyotoKyomaTatamiVertical-6
70
0
10
0
20
0
3
KyotoKyomaTatamiVertical-6
1

0
LINE
5
229
100
AcDbEntity
8
0
6
ByLayer
62
256
370
-1
100
AcDbLine
10
0
20
0
11
-955
21
0
0
LINE
5
22A
100
AcDbEntity
8
0
6
ByLayer
62
256
370
-1
100
AcDbLine
10
0
20
1910
11
-955
21
1910
0
LINE
5
22B
100
AcDbEntity
8
0
6
ByLayer
62
256
370
-1
100
AcDbLine
10
-955
20
0
11
-955
21
1910
0
LINE
5
22C
100
AcDbEntity
8
0
6
ByLayer
62
256
370
-1
100
AcDbLine
10
0
20
0
11
0
21
1910
0
LINE
5
22D
100
AcDbEntity
8
0
6
ByLayer
62
256
370
-1
100
AcDbLine
10
-930
20
0
11
-930
21
1910
0
LINE
5
22E
100
AcDbEntity
8
0
6
ByLayer
62
256
370
-1
100
AcDbLine
10
0
20
1885
11
-955
21
1885
0
LINE
5
22F
100
AcDbEntity
8
0
6
ByLayer
62
256
370
-1
100
AcDbLine
10
0
20
25
11
-955
21
25
0
LINE
5
230
100
AcDbEntity
8
0
6
ByLayer
62
256
370
-1
100
AcDbLine
10
-25
20
0
11
-25
21
1910
0
LINE
5
231
100
AcDbEntity
8
0
6
ByLayer
62
256
370
-1
100
AcDbLine
10
0
20
955
11
-25
21
955
0
LINE
5
232
100
AcDbEntity
8
0
6
ByLayer
62
256
370
-1
100
AcDbLine
10
-930
20
955
11
-955
21
955
0
ENDBLK
5
AA
330
A8
100
AcDbEntity
8
0
100
AcDbBlockEnd
0
BLOCK
5
AC
330
AB
100
AcDbEntity
8
0
100
AcDbBlockBegin
2
KyotoKyomaTatamiVertical-7
70
0
10
0
20
0
3
KyotoKyomaTatamiVertical-7
1

0
LINE
5
233
100
AcDbEntity
8
0
6
ByLayer
62
256
370
-1
100
AcDbLine
10
0
20
0
11
-955
21
0
0
LINE
5
234
100
AcDbEntity
8
0
6
ByLayer
62
256
370
-1
100
AcDbLine
10
0
20
1910
11
-955
21
1910
0
LINE
5
235
100
AcDbEntity
8
0
6
ByLayer
62
256
370
-1
100
AcDbLine
10
-955
20
0
11
-955
21
1910
0
LINE
5
236
100
AcDbEntity
8
0
6
ByLayer
62
256
370
-1
100
AcDbLine
10
0
20
0
11
0
21
1910
0
LINE
5
237
100
AcDbEntity
8
0
6
ByLayer
62
256
370
-1
100
AcDbLine
10
-930
20
0
11
-930
21
1910
0
LINE
5
238
100
AcDbEntity
8
0
6
ByLayer
62
256
370
-1
100
AcDbLine
10
0
20
1885
11
-955
21
1885
0
LINE
5
239
100
AcDbEntity
8
0
6
ByLayer
62
256
370
-1
100
AcDbLine
10
0
20
25
11
-955
21
25
0
LINE
5
23A
100
AcDbEntity
8
0
6
ByLayer
62
256
370
-1
100
AcDbLine
10
-25
20
0
11
-25
21
1910
0
LINE
5
23B
100
AcDbEntity
8
0
6
ByLayer
62
256
370
-1
100
AcDbLine
10
0
20
955
11
-25
21
955
0
LINE
5
23C
100
AcDbEntity
8
0
6
ByLayer
62
256
370
-1
100
AcDbLine
10
-930
20
955
11
-955
21
955
0
ENDBLK
5
AD
330
AB
100
AcDbEntity
8
0
100
AcDbBlockEnd
0
BLOCK
5
AF
330
AE
100
AcDbEntity
8
0
100
AcDbBlockBegin
2
KyotoKyomaTatamiVertical-8
70
0
10
0
20
0
3
KyotoKyomaTatamiVertical-8
1

0
LINE
5
23D
100
AcDbEntity
8
0
6
ByLayer
62
256
370
-1
100
AcDbLine
10
0
20
0
11
-955
21
0
0
LINE
5
23E
100
AcDbEntity
8
0
6
ByLayer
62
256
370
-1
100
AcDbLine
10
0
20
1910
11
-955
21
1910
0
LINE
5
23F
100
AcDbEntity
8
0
6
ByLayer
62
256
370
-1
100
AcDbLine
10
-955
20
0
11
-955
21
1910
0
LINE
5
240
100
AcDbEntity
8
0
6
ByLayer
62
256
370
-1
100
AcDbLine
10
0
20
0
11
0
21
1910
0
LINE
5
241
100
AcDbEntity
8
0
6
ByLayer
62
256
370
-1
100
AcDbLine
10
-930
20
0
11
-930
21
1910
0
LINE
5
242
100
AcDbEntity
8
0
6
ByLayer
62
256
370
-1
100
AcDbLine
10
0
20
1885
11
-955
21
1885
0
LINE
5
243
100
AcDbEntity
8
0
6
ByLayer
62
256
370
-1
100
AcDbLine
10
0
20
25
11
-955
21
25
0
LINE
5
244
100
AcDbEntity
8
0
6
ByLayer
62
256
370
-1
100
AcDbLine
10
-25
20
0
11
-25
21
1910
0
LINE
5
245
100
AcDbEntity
8
0
6
ByLayer
62
256
370
-1
100
AcDbLine
10
0
20
955
11
-25
21
955
0
LINE
5
246
100
AcDbEntity
8
0
6
ByLayer
62
256
370
-1
100
AcDbLine
10
-930
20
955
11
-955
21
955
0
ENDBLK
5
B0
330
AE
100
AcDbEntity
8
0
100
AcDbBlockEnd
0
BLOCK
5
B2
330
B1
100
AcDbEntity
8
0
100
AcDbBlockBegin
2
KyotoKyomaTatamiHalf-0
70
0
10
0
20
0
3
KyotoKyomaTatamiHalf-0
1

0
LINE
5
247
100
AcDbEntity
8
0
6
ByLayer
62
256
370
-1
100
AcDbLine
10
0
20
955
11
955
21
955
0
LINE
5
248
100
AcDbEntity
8
0
6
ByLayer
62
256
370
-1
100
AcDbLine
10
0
20
0
11
955
21
0
0
LINE
5
249
100
AcDbEntity
8
0
6
ByLayer
62
256
370
-1
100
AcDbLine
10
0
20
0
11
0
21
955
0
LINE
5
24A
100
AcDbEntity
8
0
6
ByLayer
62
256
370
-1
100
AcDbLine
10
955
20
0
11
955
21
955
0
LINE
5
24B
100
AcDbEntity
8
0
6
ByLayer
62
256
370
-1
100
AcDbLine
10
25
20
0
11
25
21
955
0
LINE
5
24C
100
AcDbEntity
8
0
6
ByLayer
62
256
370
-1
100
AcDbLine
10
0
20
930
11
955
21
930
0
LINE
5
24D
100
AcDbEntity
8
0
6
ByLayer
62
256
370
-1
100
AcDbLine
10
930
20
0
11
930
21
955
0
LINE
5
24E
100
AcDbEntity
8
0
6
ByLayer
62
256
370
-1
100
AcDbLine
10
0
20
25
11
955
21
25
0
ENDBLK
5
B3
330
B1
100
AcDbEntity
8
0
100
AcDbBlockEnd
0
BLOCK
5
B5
330
B4
100
AcDbEntity
8
0
100
AcDbBlockBegin
2
KyotoKyomaTatamiHalf-1
70
0
10
0
20
0
3
KyotoKyomaTatamiHalf-1
1

0
LINE
5
24F
100
AcDbEntity
8
0
6
ByLayer
62
256
370
-1
100
AcDbLine
10
0
20
955
11
955
21
955
0
LINE
5
250
100
AcDbEntity
8
0
6
ByLayer
62
256
370
-1
100
AcDbLine
10
0
20
0
11
955
21
0
0
LINE
5
251
100
AcDbEntity
8
0
6
ByLayer
62
256
370
-1
100
AcDbLine
10
0
20
0
11
0
21
955
0
LINE
5
252
100
AcDbEntity
8
0
6
ByLayer
62
256
370
-1
100
AcDbLine
10
955
20
0
11
955
21
955
0
LINE
5
253
100
AcDbEntity
8
0
6
ByLayer
62
256
370
-1
100
AcDbLine
10
25
20
0
11
25
21
955
0
LINE
5
254
100
AcDbEntity
8
0
6
ByLayer
62
256
370
-1
100
AcDbLine
10
0
20
930
11
955
21
930
0
LINE
5
255
100
AcDbEntity
8
0
6
ByLayer
62
256
370
-1
100
AcDbLine
10
930
20
0
11
930
21
955
0
LINE
5
256
100
AcDbEntity
8
0
6
ByLayer
62
256
370
-1
100
AcDbLine
10
0
20
25
11
955
21
25
0
ENDBLK
5
B6
330
B4
100
AcDbEntity
8
0
100
AcDbBlockEnd
0
BLOCK
5
B8
330
B7
100
AcDbEntity
8
0
100
AcDbBlockBegin
2
KyotoKyomaTatamiHalf-2
70
0
10
0
20
0
3
KyotoKyomaTatamiHalf-2
1

0
LINE
5
257
100
AcDbEntity
8
0
6
ByLayer
62
256
370
-1
100
AcDbLine
10
0
20
955
11
955
21
955
0
LINE
5
258
100
AcDbEntity
8
0
6
ByLayer
62
256
370
-1
100
AcDbLine
10
0
20
0
11
955
21
0
0
LINE
5
259
100
AcDbEntity
8
0
6
ByLayer
62
256
370
-1
100
AcDbLine
10
0
20
0
11
0
21
955
0
LINE
5
25A
100
AcDbEntity
8
0
6
ByLayer
62
256
370
-1
100
AcDbLine
10
955
20
0
11
955
21
955
0
LINE
5
25B
100
AcDbEntity
8
0
6
ByLayer
62
256
370
-1
100
AcDbLine
10
25
20
0
11
25
21
955
0
LINE
5
25C
100
AcDbEntity
8
0
6
ByLayer
62
256
370
-1
100
AcDbLine
10
0
20
930
11
955
21
930
0
LINE
5
25D
100
AcDbEntity
8
0
6
ByLayer
62
256
370
-1
100
AcDbLine
10
930
20
0
11
930
21
955
0
LINE
5
25E
100
AcDbEntity
8
0
6
ByLayer
62
256
370
-1
100
AcDbLine
10
0
20
25
11
955
21
25
0
ENDBLK
5
B9
330
B7
100
AcDbEntity
8
0
100
AcDbBlockEnd
0
BLOCK
5
BB
330
BA
100
AcDbEntity
8
0
100
AcDbBlockBegin
2
KyotoKyomaTatamiHalf-3
70
0
10
0
20
0
3
KyotoKyomaTatamiHalf-3
1

0
LINE
5
25F
100
AcDbEntity
8
0
6
ByLayer
62
256
370
-1
100
AcDbLine
10
0
20
955
11
955
21
955
0
LINE
5
260
100
AcDbEntity
8
0
6
ByLayer
62
256
370
-1
100
AcDbLine
10
0
20
0
11
955
21
0
0
LINE
5
261
100
AcDbEntity
8
0
6
ByLayer
62
256
370
-1
100
AcDbLine
10
0
20
0
11
0
21
955
0
LINE
5
262
100
AcDbEntity
8
0
6
ByLayer
62
256
370
-1
100
AcDbLine
10
955
20
0
11
955
21
955
0
LINE
5
263
100
AcDbEntity
8
0
6
ByLayer
62
256
370
-1
100
AcDbLine
10
25
20
0
11
25
21
955
0
LINE
5
264
100
AcDbEntity
8
0
6
ByLayer
62
256
370
-1
100
AcDbLine
10
0
20
930
11
955
21
930
0
LINE
5
265
100
AcDbEntity
8
0
6
ByLayer
62
256
370
-1
100
AcDbLine
10
930
20
0
11
930
21
955
0
LINE
5
266
100
AcDbEntity
8
0
6
ByLayer
62
256
370
-1
100
AcDbLine
10
0
20
25
11
955
21
25
0
ENDBLK
5
BC
330
BA
100
AcDbEntity
8
0
100
AcDbBlockEnd
0
BLOCK
5
BE
330
BD
100
AcDbEntity
8
0
100
AcDbBlockBegin
2
KyotoKyomaTatamiVertical-9
70
0
10
0
20
0
3
KyotoKyomaTatamiVertical-9
1

0
LINE
5
267
100
AcDbEntity
8
0
6
ByLayer
62
256
370
-1
100
AcDbLine
10
0
20
0
11
-955
21
0
0
LINE
5
268
100
AcDbEntity
8
0
6
ByLayer
62
256
370
-1
100
AcDbLine
10
0
20
1910
11
-955
21
1910
0
LINE
5
269
100
AcDbEntity
8
0
6
ByLayer
62
256
370
-1
100
AcDbLine
10
-955
20
0
11
-955
21
1910
0
LINE
5
26A
100
AcDbEntity
8
0
6
ByLayer
62
256
370
-1
100
AcDbLine
10
0
20
0
11
0
21
1910
0
LINE
5
26B
100
AcDbEntity
8
0
6
ByLayer
62
256
370
-1
100
AcDbLine
10
-930
20
0
11
-930
21
1910
0
LINE
5
26C
100
AcDbEntity
8
0
6
ByLayer
62
256
370
-1
100
AcDbLine
10
0
20
1885
11
-955
21
1885
0
LINE
5
26D
100
AcDbEntity
8
0
6
ByLayer
62
256
370
-1
100
AcDbLine
10
0
20
25
11
-955
21
25
0
LINE
5
26E
100
AcDbEntity
8
0
6
ByLayer
62
256
370
-1
100
AcDbLine
10
-25
20
0
11
-25
21
1910
0
LINE
5
26F
100
AcDbEntity
8
0
6
ByLayer
62
256
370
-1
100
AcDbLine
10
0
20
955
11
-25
21
955
0
LINE
5
270
100
AcDbEntity
8
0
6
ByLayer
62
256
370
-1
100
AcDbLine
10
-930
20
955
11
-955
21
955
0
ENDBLK
5
BF
330
BD
100
AcDbEntity
8
0
100
AcDbBlockEnd
0
BLOCK
5
C1
330
C0
100
AcDbEntity
8
0
100
AcDbBlockBegin
2
KyotoKyomaTatami-0
70
0
10
0
20
0
3
KyotoKyomaTatami-0
1

0
LINE
5
271
100
AcDbEntity
8
0
6
ByLayer
62
256
370
-1
100
AcDbLine
10
0
20
0
11
0
21
955
0
LINE
5
272
100
AcDbEntity
8
0
6
ByLayer
62
256
370
-1
100
AcDbLine
10
1910
20
0
11
1910
21
955
0
LINE
5
273
100
AcDbEntity
8
0
6
ByLayer
62
256
370
-1
100
AcDbLine
10
0
20
955
11
1910
21
955
0
LINE
5
274
100
AcDbEntity
8
0
6
ByLayer
62
256
370
-1
100
AcDbLine
10
0
20
0
11
1910
21
0
0
LINE
5
275
100
AcDbEntity
8
0
6
ByLayer
62
256
370
-1
100
AcDbLine
10
0
20
930
11
1910
21
930
0
LINE
5
276
100
AcDbEntity
8
0
6
ByLayer
62
256
370
-1
100
AcDbLine
10
1885
20
0
11
1885
21
955
0
LINE
5
277
100
AcDbEntity
8
0
6
ByLayer
62
256
370
-1
100
AcDbLine
10
25
20
0
11
25
21
955
0
LINE
5
278
100
AcDbEntity
8
0
6
ByLayer
62
256
370
-1
100
AcDbLine
10
0
20
25
11
1910
21
25
0
LINE
5
279
100
AcDbEntity
8
0
6
ByLayer
62
256
370
-1
100
AcDbLine
10
955
20
0
11
955
21
25
0
LINE
5
27A
100
AcDbEntity
8
0
6
ByLayer
62
256
370
-1
100
AcDbLine
10
955
20
930
11
955
21
955
0
ENDBLK
5
C2
330
C0
100
AcDbEntity
8
0
100
AcDbBlockEnd
0
BLOCK
5
C4
330
C3
100
AcDbEntity
8
0
100
AcDbBlockBegin
2
KyotoKyomaTatami-1
70
0
10
0
20
0
3
KyotoKyomaTatami-1
1

0
LINE
5
27B
100
AcDbEntity
8
0
6
ByLayer
62
256
370
-1
100
AcDbLine
10
0
20
0
11
0
21
955
0
LINE
5
27C
100
AcDbEntity
8
0
6
ByLayer
62
256
370
-1
100
AcDbLine
10
1910
20
0
11
1910
21
955
0
LINE
5
27D
100
AcDbEntity
8
0
6
ByLayer
62
256
370
-1
100
AcDbLine
10
0
20
955
11
1910
21
955
0
LINE
5
27E
100
AcDbEntity
8
0
6
ByLayer
62
256
370
-1
100
AcDbLine
10
0
20
0
11
1910
21
0
0
LINE
5
27F
100
AcDbEntity
8
0
6
ByLayer
62
256
370
-1
100
AcDbLine
10
0
20
930
11
1910
21
930
0
LINE
5
280
100
AcDbEntity
8
0
6
ByLayer
62
256
370
-1
100
AcDbLine
10
1885
20
0
11
1885
21
955
0
LINE
5
281
100
AcDbEntity
8
0
6
ByLayer
62
256
370
-1
100
AcDbLine
10
25
20
0
11
25
21
955
0
LINE
5
282
100
AcDbEntity
8
0
6
ByLayer
62
256
370
-1
100
AcDbLine
10
0
20
25
11
1910
21
25
0
LINE
5
283
100
AcDbEntity
8
0
6
ByLayer
62
256
370
-1
100
AcDbLine
10
955
20
0
11
955
21
25
0
LINE
5
284
100
AcDbEntity
8
0
6
ByLayer
62
256
370
-1
100
AcDbLine
10
955
20
930
11
955
21
955
0
ENDBLK
5
C5
330
C3
100
AcDbEntity
8
0
100
AcDbBlockEnd
0
BLOCK
5
C7
330
C6
100
AcDbEntity
8
0
100
AcDbBlockBegin
2
washer_Hor-0-0
70
0
10
0
20
0
3
washer_Hor-0-0
1

0
LINE
5
285
100
AcDbEntity
8
0
6
ByLayer
62
256
370
-1
100
AcDbLine
10
520
20
0
11
520
21
550
0
LINE
5
286
100
AcDbEntity
8
0
6
ByLayer
62
256
370
-1
100
AcDbLine
10
0
20
0
11
0
21
550
0
LINE
5
287
100
AcDbEntity
8
0
6
ByLayer
62
256
370
-1
100
AcDbLine
10
0
20
550
11
520
21
550
0
LINE
5
288
100
AcDbEntity
8
0
6
ByLayer
62
256
370
-1
100
AcDbLine
10
0
20
0
11
520
21
0
0
CIRCLE
5
289
100
AcDbEntity
8
0
6
ByLayer
62
256
370
-1
100
AcDbCircle
10
260
20
275
40
190.24749449
0
LINE
5
28A
100
AcDbEntity
8
0
6
ByLayer
62
256
370
-1
100
AcDbLine
10
0
20
50
11
520
21
50
0
ENDBLK
5
C8
330
C6
100
AcDbEntity
8
0
100
AcDbBlockEnd
0
BLOCK
5
CA
330
C9
100
AcDbEntity
8
0
100
AcDbBlockBegin
2
washer_Hor-1-0
70
0
10
0
20
0
3
washer_Hor-1-0
1

0
LINE
5
28B
100
AcDbEntity
8
0
6
ByLayer
62
256
370
-1
100
AcDbLine
10
520
20
0
11
520
21
550
0
LINE
5
28C
100
AcDbEntity
8
0
6
ByLayer
62
256
370
-1
100
AcDbLine
10
0
20
0
11
0
21
550
0
LINE
5
28D
100
AcDbEntity
8
0
6
ByLayer
62
256
370
-1
100
AcDbLine
10
0
20
550
11
520
21
550
0
LINE
5
28E
100
AcDbEntity
8
0
6
ByLayer
62
256
370
-1
100
AcDbLine
10
0
20
0
11
520
21
0
0
CIRCLE
5
28F
100
AcDbEntity
8
0
6
ByLayer
62
256
370
-1
100
AcDbCircle
10
260
20
275
40
190.24749449
0
LINE
5
290
100
AcDbEntity
8
0
6
ByLayer
62
256
370
-1
100
AcDbLine
10
0
20
50
11
520
21
50
0
ENDBLK
5
CB
330
C9
100
AcDbEntity
8
0
100
AcDbBlockEnd
0
BLOCK
5
CD
330
CC
100
AcDbEntity
8
0
100
AcDbBlockBegin
2
refridge500_600_verRight-0-0
70
0
10
0
20
0
3
refridge500_600_verRight-0-0
1

0
LINE
5
291
100
AcDbEntity
8
0
6
ByLayer
62
256
370
-1
100
AcDbLine
10
0
20
0
11
550
21
0
0
LINE
5
292
100
AcDbEntity
8
0
6
ByLayer
62
256
370
-1
100
AcDbLine
10
0
20
-600
11
550
21
-600
0
LINE
5
293
100
AcDbEntity
8
0
6
ByLayer
62
256
370
-1
100
AcDbLine
10
500
20
0
11
500
21
-600
0
LINE
5
294
100
AcDbEntity
8
0
6
ByLayer
62
256
370
-1
100
AcDbLine
10
0
20
0
11
0
21
-600
0
ARC
5
295
100
AcDbEntity
8
0
6
ByLayer
62
256
370
-1
100
AcDbCircle
10
-689.692211372
20
-300
40
1275.4751189
100
AcDbArc
50
346.396206231
51
13.603793769
0
LINE
5
296
100
AcDbEntity
8
0
6
ByLayer
62
256
370
-1
100
AcDbLine
10
510
20
0
11
510
21
-600
0
MTEXT
5
297
100
AcDbEntity
8
0
6
ByLayer
62
256
370
-1
100
AcDbMText
10
266.901409432
20
-24.0279179021
30
0
40
200
41
533.333333333
71
4
72
5
1
Refr
7
iso
210
0
220
0
230
1
50
270
73
1
44
0.96
0
ENDBLK
5
CE
330
CC
100
AcDbEntity
8
0
100
AcDbBlockEnd
0
BLOCK
5
D0
330
CF
100
AcDbEntity
8
0
100
AcDbBlockBegin
2
Standard40ft12m_withIntwall-0
70
0
10
0
20
0
3
Standard40ft12m_withIntwall-0
1

0
LINE
5
298
100
AcDbEntity
8
0
6
ByLayer
62
256
370
-1
100
AcDbLine
10
94
20
94
11
94
21
2346
0
LINE
5
299
100
AcDbEntity
8
0
6
ByLayer
62
256
370
-1
100
AcDbLine
10
94
20
94
11
12076
21
94
0
LINE
5
29A
100
AcDbEntity
8
0
6
ByLayer
62
256
370
-1
100
AcDbLine
10
44
20
44
11
44
21
2396
0
LINE
5
29B
100
AcDbEntity
8
0
6
ByLayer
62
256
370
-1
100
AcDbLine
10
0
20
0
11
0
21
2440
0
LINE
5
29C
100
AcDbEntity
8
0
6
ByLayer
62
256
370
-1
100
AcDbLine
10
0
20
0
11
12200
21
0
0
LINE
5
29D
100
AcDbEntity
8
0
6
ByLayer
62
256
370
-1
100
AcDbLine
10
44
20
44
11
12200
21
44
0
LINE
5
29E
100
AcDbEntity
8
0
6
ByLayer
62
256
370
-1
100
AcDbLine
10
12200
20
2390
11
13370
21
2390
0
LINE
5
29F
100
AcDbEntity
8
0
6
ByLayer
62
256
370
-1
100
AcDbLine
10
12200
20
50
11
13370
21
50
0
LINE
5
2A0
100
AcDbEntity
8
0
6
ByLayer
62
256
370
-1
100
AcDbLine
10
12200
20
2434
11
13370
21
2434
0
LINE
5
2A1
100
AcDbEntity
8
0
6
ByLayer
62
256
370
-1
100
AcDbLine
10
12200
20
6
11
13370
21
6
0
LINE
5
2A2
100
AcDbEntity
8
0
6
ByLayer
62
256
370
-1
100
AcDbLine
10
13370
20
50
11
13370
21
2390
0
LINE
5
2A3
100
AcDbEntity
8
0
6
ByLayer
62
256
370
-1
100
AcDbLine
10
12076
20
44
11
12076
21
2396
0
LINE
5
2A4
100
AcDbEntity
8
0
6
ByLayer
62
256
370
-1
100
AcDbLine
10
12200
20
0
11
12200
21
2440
0
LINE
5
2A5
100
AcDbEntity
8
0
6
ByLayer
62
256
370
-1
100
AcDbLine
10
94
20
2346
11
12076
21
2346
0
LINE
5
2A6
100
AcDbEntity
8
0
6
ByLayer
62
256
370
-1
100
AcDbLine
10
0
20
2440
11
12200
21
2440
0
LINE
5
2A7
100
AcDbEntity
8
0
6
ByLayer
62
256
370
-1
100
AcDbLine
10
44
20
2396
11
12200
21
2396
0
ENDBLK
5
D1
330
CF
100
AcDbEntity
8
0
100
AcDbBlockEnd
0
BLOCK
5
D3
330
D2
100
AcDbEntity
8
0
100
AcDbBlockBegin
2
jtub-0
70
0
10
0
20
0
3
jtub-0
1

0
INSERT
5
2A8
100
AcDbEntity
8
fixtures
6
ByLayer
62
256
370
-1
100
AcDbBlockReference
2
tub_ver-0-0
10
89.9985784502
20
870.630897716
30
0
41
1
42
1
43
0
50
0
70
1
71
1
44
0
45
0
0
LINE
5
2A9
100
AcDbEntity
8
fixtures
6
ByLayer
62
256
370
-1
100
AcDbLine
10
759.99857845
20
0.630897714578
11
759.99857845
21
870.630897716
0
ARC
5
2AA
100
AcDbEntity
8
fixtures
6
ByLayer
62
256
370
-1
100
AcDbCircle
10
619.99857845
20
870.630897716
40
140
100
AcDbArc
50
0
51
90
0
ARC
5
2AB
100
AcDbEntity
8
fixtures
6
ByLayer
62
256
370
-1
100
AcDbCircle
10
619.99857845
20
0.630897714578
40
140
100
AcDbArc
50
270
51
0
0
LINE
5
2AC
100
AcDbEntity
8
fixtures
6
ByLayer
62
256
370
-1
100
AcDbLine
10
139.99857845
20
-139.369102285
11
619.99857845
21
-139.369102285
0
ARC
5
2AD
100
AcDbEntity
8
fixtures
6
ByLayer
62
256
370
-1
100
AcDbCircle
10
139.99857845
20
0.630897714578
40
140
100
AcDbArc
50
180
51
270
0
ARC
5
2AE
100
AcDbEntity
8
fixtures
6
ByLayer
62
256
370
-1
100
AcDbCircle
10
139.99857845
20
870.630897716
40
140
100
AcDbArc
50
90
51
180
0
LINE
5
2AF
100
AcDbEntity
8
fixtures
6
ByLayer
62
256
370
-1
100
AcDbLine
10
139.99857845
20
1010.63089772
11
619.99857845
21
1010.63089772
0
LINE
5
2B0
100
AcDbEntity
8
fixtures
6
ByLayer
62
256
370
-1
100
AcDbLine
10
-0.00142154981094
20
870.630897716
11
0
21
0
0
ENDBLK
5
D4
330
D2
100
AcDbEntity
8
0
100
AcDbBlockEnd
0
BLOCK
5
D6
330
D5
100
AcDbEntity
8
0
100
AcDbBlockBegin
2
kitchen-0
70
0
10
0
20
0
3
kitchen-0
1

0
MTEXT
5
2B1
100
AcDbEntity
8
text
6
ByLayer
62
256
370
-1
100
AcDbMText
10
2882.46379649
20
-4057.98087285
30
0
40
400
41
577.777777778
71
1
72
1
1
kit
7
standard
210
0
220
0
230
1
50
0
73
2
44
1
0
LINE
5
2B2
100
AcDbEntity
8
0
6
ByLayer
62
256
370
-1
100
AcDbLine
10
0
20
50
11
0
21
2302
0
LINE
5
2B3
100
AcDbEntity
8
0
6
ByLayer
62
256
370
-1
100
AcDbLine
10
50
20
50
11
50
21
2302
0
INSERT
5
2B4
100
AcDbEntity
8
fixtures
6
ByLayer
62
256
370
-1
100
AcDbBlockReference
2
refridge500_600_verRight-0-0
10
80
20
2272
30
0
41
1
42
1
43
0
50
0
70
1
71
1
44
0
45
0
0
LINE
5
2B5
100
AcDbEntity
8
cabinates
6
ByLayer
62
256
370
-1
100
AcDbLine
10
50
20
1622
11
700
21
1622
0
LINE
5
2B6
100
AcDbEntity
8
cabinates
6
ByLayer
62
256
370
-1
100
AcDbLine
10
700
20
50
11
700
21
1622
0
LINE
5
2B7
100
AcDbEntity
8
cabinates
6
ByLayer
62
256
370
-1
100
AcDbLine
10
1600
20
50
11
1600
21
1622
0
LINE
5
2B8
100
AcDbEntity
8
cabinates
6
ByLayer
62
256
370
-1
100
AcDbLine
10
2250.00000003
20
50
11
2250.00000003
21
1622
0
LINE
5
2B9
100
AcDbEntity
8
cabinates
6
ByLayer
62
256
370
-1
100
AcDbLine
10
1600
20
1622
11
2250.00000003
21
1622
0
LINE
5
2BA
100
AcDbEntity
8
0
6
ByLayer
62
256
370
-1
100
AcDbLine
10
1722.00000003
20
2302
11
1722.00000003
21
2352
0
LINE
5
2BB
100
AcDbEntity
8
0
6
ByLayer
62
256
370
-1
100
AcDbLine
10
50
20
50
11
3742.00000003
21
50
0
LINE
5
2BC
100
AcDbEntity
8
0
6
ByLayer
62
256
370
-1
100
AcDbLine
10
50
20
2302
11
1722.00000003
21
2302
0
LINE
5
2BD
100
AcDbEntity
8
container
6
ByLayer
62
256
370
-1
100
AcDbLine
10
0
20
0
11
50
21
0
0
ENDBLK
5
D7
330
D5
100
AcDbEntity
8
0
100
AcDbBlockEnd
0
BLOCK
5
D9
330
D8
100
AcDbEntity
8
0
100
AcDbBlockBegin
2
referVerDn
70
0
10
0
20
0
3
referVerDn
1

0
LINE
5
2BE
100
AcDbEntity
8
fixtures
6
ByLayer
62
256
370
-1
100
AcDbLine
10
30
20
-30
11
30
21
-580
0
LINE
5
2BF
100
AcDbEntity
8
fixtures
6
ByLayer
62
256
370
-1
100
AcDbLine
10
630
20
-30
11
630
21
-580
0
LINE
5
2C0
100
AcDbEntity
8
fixtures
6
ByLayer
62
256
370
-1
100
AcDbLine
10
30
20
-530
11
630
21
-530
0
LINE
5
2C1
100
AcDbEntity
8
fixtures
6
ByLayer
62
256
370
-1
100
AcDbLine
10
30
20
-30
11
630
21
-30
0
ARC
5
2C2
100
AcDbEntity
8
fixtures
6
ByLayer
62
256
370
-1
100
AcDbCircle
10
330
20
659.692211372
40
1275.4751189
100
AcDbArc
50
256.396206231
51
283.603793769
0
LINE
5
2C3
100
AcDbEntity
8
fixtures
6
ByLayer
62
256
370
-1
100
AcDbLine
10
30
20
-540
11
630
21
-540
0
ENDBLK
5
DA
330
D8
100
AcDbEntity
8
0
100
AcDbBlockEnd
0
BLOCK
5
DC
330
DB
100
AcDbEntity
8
0
100
AcDbBlockBegin
2
door800VerRight-1
70
0
10
0
20
0
3
door800VerRight-1
1

0
LINE
5
2C4
100
AcDbEntity
8
0
6
ByLayer
62
256
370
-1
100
AcDbLine
10
0
20
0
11
514.230087749
21
-612.835554495
0
ARC
5
2C5
100
AcDbEntity
8
0
6
ByLayer
62
256
370
-1
100
AcDbCircle
10
0
20
0
40
800
100
AcDbArc
50
270
51
310
0
LINE
5
2C6
100
AcDbEntity
8
0
6
ByLayer
62
256
370
-1
100
AcDbLine
10
-38.3022221559
20
-32.1393804843
11
475.927865593
21
-644.97493498
0
LINE
5
2C7
100
AcDbEntity
8
0
6
ByLayer
62
256
370
-1
100
AcDbLine
10
0
20
0
11
-38.3022221559
21
-32.1393804843
0
ENDBLK
5
DD
330
DB
100
AcDbEntity
8
0
100
AcDbBlockEnd
0
BLOCK
5
DF
330
DE
100
AcDbEntity
8
0
100
AcDbBlockBegin
2
door800VerRight-0-0
70
0
10
0
20
0
3
door800VerRight-0-0
1

0
INSERT
5
2C8
100
AcDbEntity
8
0
6
ByLayer
62
256
370
-1
100
AcDbBlockReference
2
door800VerRight-1
10
0
20
0
30
0
41
1
42
1
43
0
50
0
70
1
71
1
44
0
45
0
0
ENDBLK
5
E0
330
DE
100
AcDbEntity
8
0
100
AcDbBlockEnd
0
BLOCK
5
E2
330
E1
100
AcDbEntity
8
0
100
AcDbBlockBegin
2
outlet110HorUp-0-1
70
0
10
0
20
0
3
outlet110HorUp-0-1
1

0
CIRCLE
5
2C9
100
AcDbEntity
8
0
6
ByLayer
62
256
370
-1
100
AcDbCircle
10
19.2383306793
20
93.1569229908
40
50
0
LINE
5
2CA
100
AcDbEntity
8
0
6
ByLayer
62
256
370
-1
100
AcDbLine
10
36.2896076697
20
0
11
36.2896076697
21
161.186024643
0
LINE
5
2CB
100
AcDbEntity
8
0
6
ByLayer
62
256
370
-1
100
AcDbLine
10
0
20
0
11
0
21
161.186024643
0
ENDBLK
5
E3
330
E1
100
AcDbEntity
8
0
100
AcDbBlockEnd
0
BLOCK
5
E5
330
E4
100
AcDbEntity
8
0
100
AcDbBlockBegin
2
door700VerLeft-1-1
70
0
10
0
20
0
3
door700VerLeft-1-1
1

0
LINE
5
2CC
100
AcDbEntity
8
0
6
ByLayer
62
256
370
-1
100
AcDbLine
10
0
20
0
11
-614.878036687
21
-355
0
ARC
5
2CD
100
AcDbEntity
8
0
6
ByLayer
62
256
370
-1
100
AcDbCircle
10
0
20
0
40
710
100
AcDbArc
50
210
51
270
0
LINE
5
2CE
100
AcDbEntity
8
0
6
ByLayer
62
256
370
-1
100
AcDbLine
10
25
20
-43.3012701892
11
-589.878036687
21
-398.301270189
0
LINE
5
2CF
100
AcDbEntity
8
0
6
ByLayer
62
256
370
-1
100
AcDbLine
10
0
20
0
11
25
21
-43.3012701892
0
ENDBLK
5
E6
330
E4
100
AcDbEntity
8
0
100
AcDbBlockEnd
0
BLOCK
5
E8
330
E7
100
AcDbEntity
8
0
100
AcDbBlockBegin
2
WCVerRight-2-1
70
0
10
0
20
0
3
WCVerRight-2-1
1

0
LINE
5
2D0
100
AcDbEntity
8
0
6
ByLayer
62
256
370
-1
100
AcDbLine
10
0
20
0
11
200
21
0
0
LINE
5
2D1
100
AcDbEntity
8
0
6
ByLayer
62
256
370
-1
100
AcDbLine
10
0
20
0
11
0
21
470
0
LINE
5
2D2
100
AcDbEntity
8
0
6
ByLayer
62
256
370
-1
100
AcDbLine
10
200
20
0
11
200
21
470
0
LINE
5
2D3
100
AcDbEntity
8
0
6
ByLayer
62
256
370
-1
100
AcDbLine
10
0
20
470
11
200
21
470
0
ELLIPSE
5
2D4
100
AcDbEntity
8
0
6
ByLayer
62
256
370
-1
100
AcDbEllipse
10
483.839834606
20
228.898383818
30
0
11
238.828093948
21
-6.63411372079
31
0
40
0.61565150347
41
0
42
6.28318530718
0
ENDBLK
5
E9
330
E7
100
AcDbEntity
8
0
100
AcDbBlockEnd
0
BLOCK
5
EB
330
EA
100
AcDbEntity
8
0
100
AcDbBlockBegin
2
tub_ver-0-1
70
0
10
0
20
0
3
tub_ver-0-1
1

0
ARC
5
2D5
100
AcDbEntity
8
0
6
ByLayer
62
256
370
-1
100
AcDbCircle
10
50
20
0
40
50
100
AcDbArc
50
90
51
180
0
LINE
5
2D6
100
AcDbEntity
8
0
6
ByLayer
62
256
370
-1
100
AcDbLine
10
50
20
50
11
530
21
50
0
ARC
5
2D7
100
AcDbEntity
8
0
6
ByLayer
62
256
370
-1
100
AcDbCircle
10
530
20
0
40
50
100
AcDbArc
50
0
51
90
0
LINE
5
2D8
100
AcDbEntity
8
0
6
ByLayer
62
256
370
-1
100
AcDbLine
10
580
20
-870
11
580
21
0
0
ARC
5
2D9
100
AcDbEntity
8
0
6
ByLayer
62
256
370
-1
100
AcDbCircle
10
530
20
-870
40
50
100
AcDbArc
50
270
51
0
0
LINE
5
2DA
100
AcDbEntity
8
0
6
ByLayer
62
256
370
-1
100
AcDbLine
10
50
20
-920
11
530
21
-920
0
LINE
5
2DB
100
AcDbEntity
8
0
6
ByLayer
62
256
370
-1
100
AcDbLine
10
-2.84217094304e-13
20
-870
11
0
21
0
0
ARC
5
2DC
100
AcDbEntity
8
0
6
ByLayer
62
256
370
-1
100
AcDbCircle
10
50
20
-870
40
50
100
AcDbArc
50
180
51
270
0
ENDBLK
5
EC
330
EA
100
AcDbEntity
8
0
100
AcDbBlockEnd
0
BLOCK
5
EE
330
ED
100
AcDbEntity
8
0
100
AcDbBlockBegin
2
door800VerLeft-0-1
70
0
10
0
20
0
3
door800VerLeft-0-1
1

0
LINE
5
2DD
100
AcDbEntity
8
0
6
ByLayer
62
256
370
-1
100
AcDbLine
10
0
20
0
11
-514.230087749
21
-612.835554495
0
ARC
5
2DE
100
AcDbEntity
8
0
6
ByLayer
62
256
370
-1
100
AcDbCircle
10
0
20
0
40
800
100
AcDbArc
50
230
51
270
0
LINE
5
2DF
100
AcDbEntity
8
0
6
ByLayer
62
256
370
-1
100
AcDbLine
10
38.3022221559
20
-32.1393804843
11
-475.927865593
21
-644.97493498
0
LINE
5
2E0
100
AcDbEntity
8
0
6
ByLayer
62
256
370
-1
100
AcDbLine
10
0
20
0
11
38.3022221559
21
-32.1393804843
0
ENDBLK
5
EF
330
ED
100
AcDbEntity
8
0
100
AcDbBlockEnd
0
BLOCK
5
F1
330
F0
100
AcDbEntity
8
0
100
AcDbBlockBegin
2
washer_Hor-0-1
70
0
10
0
20
0
3
washer_Hor-0-1
1

0
LINE
5
2E1
100
AcDbEntity
8
0
6
ByLayer
62
256
370
-1
100
AcDbLine
10
520
20
0
11
520
21
550
0
LINE
5
2E2
100
AcDbEntity
8
0
6
ByLayer
62
256
370
-1
100
AcDbLine
10
0
20
0
11
0
21
550
0
LINE
5
2E3
100
AcDbEntity
8
0
6
ByLayer
62
256
370
-1
100
AcDbLine
10
0
20
550
11
520
21
550
0
LINE
5
2E4
100
AcDbEntity
8
0
6
ByLayer
62
256
370
-1
100
AcDbLine
10
0
20
0
11
520
21
0
0
CIRCLE
5
2E5
100
AcDbEntity
8
0
6
ByLayer
62
256
370
-1
100
AcDbCircle
10
260
20
275
40
190.24749449
0
LINE
5
2E6
100
AcDbEntity
8
0
6
ByLayer
62
256
370
-1
100
AcDbLine
10
0
20
50
11
520
21
50
0
ENDBLK
5
F2
330
F0
100
AcDbEntity
8
0
100
AcDbBlockEnd
0
BLOCK
5
F4
330
F3
100
AcDbEntity
8
0
100
AcDbBlockBegin
2
washer_Hor-1-1
70
0
10
0
20
0
3
washer_Hor-1-1
1

0
LINE
5
2E7
100
AcDbEntity
8
0
6
ByLayer
62
256
370
-1
100
AcDbLine
10
520
20
0
11
520
21
550
0
LINE
5
2E8
100
AcDbEntity
8
0
6
ByLayer
62
256
370
-1
100
AcDbLine
10
0
20
0
11
0
21
550
0
LINE
5
2E9
100
AcDbEntity
8
0
6
ByLayer
62
256
370
-1
100
AcDbLine
10
0
20
550
11
520
21
550
0
LINE
5
2EA
100
AcDbEntity
8
0
6
ByLayer
62
256
370
-1
100
AcDbLine
10
0
20
0
11
520
21
0
0
CIRCLE
5
2EB
100
AcDbEntity
8
0
6
ByLayer
62
256
370
-1
100
AcDbCircle
10
260
20
275
40
190.24749449
0
LINE
5
2EC
100
AcDbEntity
8
0
6
ByLayer
62
256
370
-1
100
AcDbLine
10
0
20
50
11
520
21
50
0
ENDBLK
5
F5
330
F3
100
AcDbEntity
8
0
100
AcDbBlockEnd
0
BLOCK
5
F7
330
F6
100
AcDbEntity
8
0
100
AcDbBlockBegin
2
refridge500_600_verRight-0-1
70
0
10
0
20
0
3
refridge500_600_verRight-0-1
1

0
LINE
5
2ED
100
AcDbEntity
8
0
6
ByLayer
62
256
370
-1
100
AcDbLine
10
0
20
0
11
550
21
0
0
LINE
5
2EE
100
AcDbEntity
8
0
6
ByLayer
62
256
370
-1
100
AcDbLine
10
0
20
-600
11
550
21
-600
0
LINE
5
2EF
100
AcDbEntity
8
0
6
ByLayer
62
256
370
-1
100
AcDbLine
10
500
20
0
11
500
21
-600
0
LINE
5
2F0
100
AcDbEntity
8
0
6
ByLayer
62
256
370
-1
100
AcDbLine
10
0
20
0
11
0
21
-600
0
ARC
5
2F1
100
AcDbEntity
8
0
6
ByLayer
62
256
370
-1
100
AcDbCircle
10
-689.692211372
20
-300
40
1275.4751189
100
AcDbArc
50
346.396206231
51
13.603793769
0
LINE
5
2F2
100
AcDbEntity
8
0
6
ByLayer
62
256
370
-1
100
AcDbLine
10
510
20
0
11
510
21
-600
0
MTEXT
5
2F3
100
AcDbEntity
8
0
6
ByLayer
62
256
370
-1
100
AcDbMText
10
266.901409432
20
-24.0279179021
30
0
40
200
41
533.333333333
71
4
72
5
1
Refr
7
iso
210
0
220
0
230
1
50
270
73
1
44
0.96
0
ENDBLK
5
F8
330
F6
100
AcDbEntity
8
0
100
AcDbBlockEnd
0
BLOCK
5
FA
330
F9
100
AcDbEntity
8
0
100
AcDbBlockBegin
2
jtub-1
70
0
10
0
20
0
3
jtub-1
1

0
INSERT
5
2F4
100
AcDbEntity
8
fixtures
6
ByLayer
62
256
370
-1
100
AcDbBlockReference
2
tub_ver-0-1
10
89.9985784502
20
870.630897716
30
0
41
1
42
1
43
0
50
0
70
1
71
1
44
0
45
0
0
LINE
5
2F5
100
AcDbEntity
8
fixtures
6
ByLayer
62
256
370
-1
100
AcDbLine
10
759.99857845
20
0.630897714578
11
759.99857845
21
870.630897716
0
ARC
5
2F6
100
AcDbEntity
8
fixtures
6
ByLayer
62
256
370
-1
100
AcDbCircle
10
619.99857845
20
870.630897716
40
140
100
AcDbArc
50
0
51
90
0
ARC
5
2F7
100
AcDbEntity
8
fixtures
6
ByLayer
62
256
370
-1
100
AcDbCircle
10
619.99857845
20
0.630897714578
40
140
100
AcDbArc
50
270
51
0
0
LINE
5
2F8
100
AcDbEntity
8
fixtures
6
ByLayer
62
256
370
-1
100
AcDbLine
10
139.99857845
20
-139.369102285
11
619.99857845
21
-139.369102285
0
ARC
5
2F9
100
AcDbEntity
8
fixtures
6
ByLayer
62
256
370
-1
100
AcDbCircle
10
139.99857845
20
0.630897714578
40
140
100
AcDbArc
50
180
51
270
0
ARC
5
2FA
100
AcDbEntity
8
fixtures
6
ByLayer
62
256
370
-1
100
AcDbCircle
10
139.99857845
20
870.630897716
40
140
100
AcDbArc
50
90
51
180
0
LINE
5
2FB
100
AcDbEntity
8
fixtures
6
ByLayer
62
256
370
-1
100
AcDbLine
10
139.99857845
20
1010.63089772
11
619.99857845
21
1010.63089772
0
LINE
5
2FC
100
AcDbEntity
8
fixtures
6
ByLayer
62
256
370
-1
100
AcDbLine
10
-0.00142154981094
20
870.630897716
11
0
21
0
0
ENDBLK
5
FB
330
F9
100
AcDbEntity
8
0
100
AcDbBlockEnd
0
BLOCK
5
FD
330
FC
100
AcDbEntity
8
0
100
AcDbBlockBegin
2
bathroom-0-0
70
0
10
0
20
0
3
bathroom-0-0
1

0
LINE
5
2FD
100
AcDbEntity
8
0
6
ByLayer
62
256
370
-1
100
AcDbLine
10
0
20
9.09494701773e-13
11
0
21
2252.00000001
0
LINE
5
2FE
100
AcDbEntity
8
0
6
ByLayer
62
256
370
-1
100
AcDbLine
10
0
20
1452.00000001
11
1700
21
1452.00000001
0
LINE
5
2FF
100
AcDbEntity
8
0
6
ByLayer
62
256
370
-1
100
AcDbLine
10
0
20
1402.00000001
11
1700
21
1402.00000001
0
LINE
5
300
100
AcDbEntity
8
0
6
ByLayer
62
256
370
-1
100
AcDbLine
10
2990
20
9.09494701773e-13
11
2990
21
2252.00000001
0
LINE
5
301
100
AcDbEntity
8
0
6
ByLayer
62
256
370
-1
100
AcDbLine
10
3040
20
9.09494701773e-13
11
3040
21
2252.00000001
0
LINE
5
302
100
AcDbEntity
8
0
6
ByLayer
62
256
370
-1
100
AcDbLine
10
1700
20
2227.00000001
11
1750
21
2227.00000001
0
LINE
5
303
100
AcDbEntity
8
0
6
ByLayer
62
256
370
-1
100
AcDbLine
10
1700
20
1517.00000001
11
1750
21
1517.00000001
0
LINE
5
304
100
AcDbEntity
8
0
6
ByLayer
62
256
370
-1
100
AcDbLine
10
1700
20
2227.00000001
11
1700
21
2252.00000001
0
LINE
5
305
100
AcDbEntity
8
0
6
ByLayer
62
256
370
-1
100
AcDbLine
10
1750
20
2227.00000001
11
1750
21
2252.00000001
0
LINE
5
306
100
AcDbEntity
8
0
6
ByLayer
62
256
370
-1
100
AcDbLine
10
1700
20
1377.00000001
11
1750
21
1377.00000001
0
LINE
5
307
100
AcDbEntity
8
0
6
ByLayer
62
256
370
-1
100
AcDbLine
10
1700
20
577
11
1750
21
577
0
LINE
5
308
100
AcDbEntity
8
0
6
ByLayer
62
256
370
-1
100
AcDbLine
10
1750
20
1377.00000001
11
1750
21
1517.00000001
0
LINE
5
309
100
AcDbEntity
8
0
6
ByLayer
62
256
370
-1
100
AcDbLine
10
1700
20
1377.00000001
11
1700
21
1517.00000001
0
LINE
5
30A
100
AcDbEntity
8
0
6
ByLayer
62
256
370
-1
100
AcDbLine
10
1750
20
9.09494701773e-13
11
1750
21
577
0
LINE
5
30B
100
AcDbEntity
8
0
6
ByLayer
62
256
370
-1
100
AcDbLine
10
1700
20
9.09494701773e-13
11
1700
21
577
0
LINE
5
30C
100
AcDbEntity
8
0
6
ByLayer
62
256
370
-1
100
AcDbLine
10
0
20
2252.00000001
11
2040
21
2252.00000001
0
LINE
5
30D
100
AcDbEntity
8
0
6
ByLayer
62
256
370
-1
100
AcDbLine
10
2040
20
2252.00000001
11
2040
21
2302.00000001
0
LINE
5
30E
100
AcDbEntity
8
0
6
ByLayer
62
256
370
-1
100
AcDbLine
10
2940
20
2252.00000001
11
2940
21
2302.00000001
0
INSERT
5
30F
100
AcDbEntity
8
eletrical
6
ByLayer
62
256
370
-1
100
AcDbBlockReference
2
outlet110HorUp-0-1
10
377.774224368
20
1452.00000001
30
0
41
1
42
1
43
0
50
0
70
1
71
1
44
0
45
0
0
INSERT
5
310
100
AcDbEntity
8
doors
6
ByLayer
62
256
370
-1
100
AcDbBlockReference
2
door700VerLeft-1-1
10
1700
20
2227.00000001
30
0
41
1
42
1
43
0
50
0
70
1
71
1
44
0
45
0
0
INSERT
5
311
100
AcDbEntity
8
doors
6
ByLayer
62
256
370
-1
100
AcDbBlockReference
2
door800VerLeft-0-1
10
1700
20
1377.00000001
30
0
41
1
42
1
43
0
50
0
70
1
71
1
44
0
45
0
0
INSERT
5
312
100
AcDbEntity
8
fixtures
6
ByLayer
62
256
370
-1
100
AcDbBlockReference
2
washer_Hor-1-1
10
2453.68526873
20
10
30
0
41
1
42
1
43
0
50
0
70
1
71
1
44
0
45
0
0
LINE
5
313
100
AcDbEntity
8
0
6
ByLayer
62
256
370
-1
100
AcDbLine
10
2940
20
2252.00000001
11
2990
21
2252.00000001
0
LINE
5
314
100
AcDbEntity
8
0
6
ByLayer
62
256
370
-1
100
AcDbLine
10
0
20
9.09494701773e-13
11
2990
21
9.09494701773e-13
0
LINE
5
315
100
AcDbEntity
8
bogus
6
ByLayer
62
256
370
-1
100
AcDbLine
10
-100
20
-50
11
50
21
-50
0
LINE
5
316
100
AcDbEntity
8
bogus
6
ByLayer
62
256
370
-1
100
AcDbLine
10
-50
20
-100
11
-50
21
50
0
INSERT
5
317
100
AcDbEntity
8
fixtures
6
ByLayer
62
256
370
-1
100
AcDbBlockReference
2
WCVerRight-2-1
10
10
20
1640.77186831
30
0
41
1
42
1
43
0
50
0
70
1
71
1
44
0
45
0
0
INSERT
5
318
100
AcDbEntity
8
fixtures
6
ByLayer
62
256
370
-1
100
AcDbBlockReference
2
jtub-1
10
10.00142155
20
382.67165141
30
0
41
1
42
1
43
0
50
0
70
1
71
1
44
0
45
0
0
ENDBLK
5
FE
330
FC
100
AcDbEntity
8
0
100
AcDbBlockEnd
0
BLOCK
5
100
330
FF
100
AcDbEntity
8
0
100
AcDbBlockBegin
2
outlet110HorUp-0-0-0
70
0
10
0
20
0
3
outlet110HorUp-0-0-0
1

0
CIRCLE
5
319
100
AcDbEntity
8
0
6
ByLayer
62
256
370
-1
100
AcDbCircle
10
19.2383306793
20
93.1569229908
40
50
0
LINE
5
31A
100
AcDbEntity
8
0
6
ByLayer
62
256
370
-1
100
AcDbLine
10
36.2896076697
20
0
11
36.2896076697
21
161.186024643
0
LINE
5
31B
100
AcDbEntity
8
0
6
ByLayer
62
256
370
-1
100
AcDbLine
10
0
20
0
11
0
21
161.186024643
0
ENDBLK
5
101
330
FF
100
AcDbEntity
8
0
100
AcDbBlockEnd
0
BLOCK
5
103
330
102
100
AcDbEntity
8
0
100
AcDbBlockBegin
2
door700VerLeft-1-0-0
70
0
10
0
20
0
3
door700VerLeft-1-0-0
1

0
LINE
5
31C
100
AcDbEntity
8
0
6
ByLayer
62
256
370
-1
100
AcDbLine
10
0
20
0
11
-614.878036687
21
-355
0
ARC
5
31D
100
AcDbEntity
8
0
6
ByLayer
62
256
370
-1
100
AcDbCircle
10
0
20
0
40
710
100
AcDbArc
50
210
51
270
0
LINE
5
31E
100
AcDbEntity
8
0
6
ByLayer
62
256
370
-1
100
AcDbLine
10
25
20
-43.3012701892
11
-589.878036687
21
-398.301270189
0
LINE
5
31F
100
AcDbEntity
8
0
6
ByLayer
62
256
370
-1
100
AcDbLine
10
0
20
0
11
25
21
-43.3012701892
0
ENDBLK
5
104
330
102
100
AcDbEntity
8
0
100
AcDbBlockEnd
0
BLOCK
5
106
330
105
100
AcDbEntity
8
0
100
AcDbBlockBegin
2
WCVerRight-2-0-0
70
0
10
0
20
0
3
WCVerRight-2-0-0
1

0
LINE
5
320
100
AcDbEntity
8
0
6
ByLayer
62
256
370
-1
100
AcDbLine
10
0
20
0
11
200
21
0
0
LINE
5
321
100
AcDbEntity
8
0
6
ByLayer
62
256
370
-1
100
AcDbLine
10
0
20
0
11
0
21
470
0
LINE
5
322
100
AcDbEntity
8
0
6
ByLayer
62
256
370
-1
100
AcDbLine
10
200
20
0
11
200
21
470
0
LINE
5
323
100
AcDbEntity
8
0
6
ByLayer
62
256
370
-1
100
AcDbLine
10
0
20
470
11
200
21
470
0
ELLIPSE
5
324
100
AcDbEntity
8
0
6
ByLayer
62
256
370
-1
100
AcDbEllipse
10
483.839834606
20
228.898383818
30
0
11
238.828093948
21
-6.63411372079
31
0
40
0.61565150347
41
0
42
6.28318530718
0
ENDBLK
5
107
330
105
100
AcDbEntity
8
0
100
AcDbBlockEnd
0
BLOCK
5
109
330
108
100
AcDbEntity
8
0
100
AcDbBlockBegin
2
tub_ver-0-0-0
70
0
10
0
20
0
3
tub_ver-0-0-0
1

0
ARC
5
325
100
AcDbEntity
8
0
6
ByLayer
62
256
370
-1
100
AcDbCircle
10
50
20
0
40
50
100
AcDbArc
50
90
51
180
0
LINE
5
326
100
AcDbEntity
8
0
6
ByLayer
62
256
370
-1
100
AcDbLine
10
50
20
50
11
530
21
50
0
ARC
5
327
100
AcDbEntity
8
0
6
ByLayer
62
256
370
-1
100
AcDbCircle
10
530
20
0
40
50
100
AcDbArc
50
0
51
90
0
LINE
5
328
100
AcDbEntity
8
0
6
ByLayer
62
256
370
-1
100
AcDbLine
10
580
20
-870
11
580
21
0
0
ARC
5
329
100
AcDbEntity
8
0
6
ByLayer
62
256
370
-1
100
AcDbCircle
10
530
20
-870
40
50
100
AcDbArc
50
270
51
0
0
LINE
5
32A
100
AcDbEntity
8
0
6
ByLayer
62
256
370
-1
100
AcDbLine
10
50
20
-920
11
530
21
-920
0
LINE
5
32B
100
AcDbEntity
8
0
6
ByLayer
62
256
370
-1
100
AcDbLine
10
-2.84217094304e-13
20
-870
11
0
21
0
0
ARC
5
32C
100
AcDbEntity
8
0
6
ByLayer
62
256
370
-1
100
AcDbCircle
10
50
20
-870
40
50
100
AcDbArc
50
180
51
270
0
ENDBLK
5
10A
330
108
100
AcDbEntity
8
0
100
AcDbBlockEnd
0
BLOCK
5
10C
330
10B
100
AcDbEntity
8
0
100
AcDbBlockBegin
2
door800VerLeft-0-0-0
70
0
10
0
20
0
3
door800VerLeft-0-0-0
1

0
LINE
5
32D
100
AcDbEntity
8
0
6
ByLayer
62
256
370
-1
100
AcDbLine
10
0
20
0
11
-514.230087749
21
-612.835554495
0
ARC
5
32E
100
AcDbEntity
8
0
6
ByLayer
62
256
370
-1
100
AcDbCircle
10
0
20
0
40
800
100
AcDbArc
50
230
51
270
0
LINE
5
32F
100
AcDbEntity
8
0
6
ByLayer
62
256
370
-1
100
AcDbLine
10
38.3022221559
20
-32.1393804843
11
-475.927865593
21
-644.97493498
0
LINE
5
330
100
AcDbEntity
8
0
6
ByLayer
62
256
370
-1
100
AcDbLine
10
0
20
0
11
38.3022221559
21
-32.1393804843
0
ENDBLK
5
10D
330
10B
100
AcDbEntity
8
0
100
AcDbBlockEnd
0
BLOCK
5
10F
330
10E
100
AcDbEntity
8
0
100
AcDbBlockBegin
2
KyotoKyomaTatamiVertical-0-0
70
0
10
0
20
0
3
KyotoKyomaTatamiVertical-0-0
1

0
LINE
5
331
100
AcDbEntity
8
0
6
ByLayer
62
256
370
-1
100
AcDbLine
10
0
20
0
11
-955
21
0
0
LINE
5
332
100
AcDbEntity
8
0
6
ByLayer
62
256
370
-1
100
AcDbLine
10
0
20
1910
11
-955
21
1910
0
LINE
5
333
100
AcDbEntity
8
0
6
ByLayer
62
256
370
-1
100
AcDbLine
10
-955
20
0
11
-955
21
1910
0
LINE
5
334
100
AcDbEntity
8
0
6
ByLayer
62
256
370
-1
100
AcDbLine
10
0
20
0
11
0
21
1910
0
LINE
5
335
100
AcDbEntity
8
0
6
ByLayer
62
256
370
-1
100
AcDbLine
10
-930
20
0
11
-930
21
1910
0
LINE
5
336
100
AcDbEntity
8
0
6
ByLayer
62
256
370
-1
100
AcDbLine
10
0
20
1885
11
-955
21
1885
0
LINE
5
337
100
AcDbEntity
8
0
6
ByLayer
62
256
370
-1
100
AcDbLine
10
0
20
25
11
-955
21
25
0
LINE
5
338
100
AcDbEntity
8
0
6
ByLayer
62
256
370
-1
100
AcDbLine
10
-25
20
0
11
-25
21
1910
0
LINE
5
339
100
AcDbEntity
8
0
6
ByLayer
62
256
370
-1
100
AcDbLine
10
0
20
955
11
-25
21
955
0
LINE
5
33A
100
AcDbEntity
8
0
6
ByLayer
62
256
370
-1
100
AcDbLine
10
-930
20
955
11
-955
21
955
0
ENDBLK
5
110
330
10E
100
AcDbEntity
8
0
100
AcDbBlockEnd
0
BLOCK
5
112
330
111
100
AcDbEntity
8
0
100
AcDbBlockBegin
2
KyotoKyomaTatamiVertical-1-0
70
0
10
0
20
0
3
KyotoKyomaTatamiVertical-1-0
1

0
LINE
5
33B
100
AcDbEntity
8
0
6
ByLayer
62
256
370
-1
100
AcDbLine
10
0
20
0
11
-955
21
0
0
LINE
5
33C
100
AcDbEntity
8
0
6
ByLayer
62
256
370
-1
100
AcDbLine
10
0
20
1910
11
-955
21
1910
0
LINE
5
33D
100
AcDbEntity
8
0
6
ByLayer
62
256
370
-1
100
AcDbLine
10
-955
20
0
11
-955
21
1910
0
LINE
5
33E
100
AcDbEntity
8
0
6
ByLayer
62
256
370
-1
100
AcDbLine
10
0
20
0
11
0
21
1910
0
LINE
5
33F
100
AcDbEntity
8
0
6
ByLayer
62
256
370
-1
100
AcDbLine
10
-930
20
0
11
-930
21
1910
0
LINE
5
340
100
AcDbEntity
8
0
6
ByLayer
62
256
370
-1
100
AcDbLine
10
0
20
1885
11
-955
21
1885
0
LINE
5
341
100
AcDbEntity
8
0
6
ByLayer
62
256
370
-1
100
AcDbLine
10
0
20
25
11
-955
21
25
0
LINE
5
342
100
AcDbEntity
8
0
6
ByLayer
62
256
370
-1
100
AcDbLine
10
-25
20
0
11
-25
21
1910
0
LINE
5
343
100
AcDbEntity
8
0
6
ByLayer
62
256
370
-1
100
AcDbLine
10
0
20
955
11
-25
21
955
0
LINE
5
344
100
AcDbEntity
8
0
6
ByLayer
62
256
370
-1
100
AcDbLine
10
-930
20
955
11
-955
21
955
0
ENDBLK
5
113
330
111
100
AcDbEntity
8
0
100
AcDbBlockEnd
0
BLOCK
5
115
330
114
100
AcDbEntity
8
0
100
AcDbBlockBegin
2
KyotoKyomaTatamiVertical-2-0
70
0
10
0
20
0
3
KyotoKyomaTatamiVertical-2-0
1

0
LINE
5
345
100
AcDbEntity
8
0
6
ByLayer
62
256
370
-1
100
AcDbLine
10
0
20
0
11
-955
21
0
0
LINE
5
346
100
AcDbEntity
8
0
6
ByLayer
62
256
370
-1
100
AcDbLine
10
0
20
1910
11
-955
21
1910
0
LINE
5
347
100
AcDbEntity
8
0
6
ByLayer
62
256
370
-1
100
AcDbLine
10
-955
20
0
11
-955
21
1910
0
LINE
5
348
100
AcDbEntity
8
0
6
ByLayer
62
256
370
-1
100
AcDbLine
10
0
20
0
11
0
21
1910
0
LINE
5
349
100
AcDbEntity
8
0
6
ByLayer
62
256
370
-1
100
AcDbLine
10
-930
20
0
11
-930
21
1910
0
LINE
5
34A
100
AcDbEntity
8
0
6
ByLayer
62
256
370
-1
100
AcDbLine
10
0
20
1885
11
-955
21
1885
0
LINE
5
34B
100
AcDbEntity
8
0
6
ByLayer
62
256
370
-1
100
AcDbLine
10
0
20
25
11
-955
21
25
0
LINE
5
34C
100
AcDbEntity
8
0
6
ByLayer
62
256
370
-1
100
AcDbLine
10
-25
20
0
11
-25
21
1910
0
LINE
5
34D
100
AcDbEntity
8
0
6
ByLayer
62
256
370
-1
100
AcDbLine
10
0
20
955
11
-25
21
955
0
LINE
5
34E
100
AcDbEntity
8
0
6
ByLayer
62
256
370
-1
100
AcDbLine
10
-930
20
955
11
-955
21
955
0
ENDBLK
5
116
330
114
100
AcDbEntity
8
0
100
AcDbBlockEnd
0
BLOCK
5
118
330
117
100
AcDbEntity
8
0
100
AcDbBlockBegin
2
KyotoKyomaTatamiVertical-3-0
70
0
10
0
20
0
3
KyotoKyomaTatamiVertical-3-0
1

0
LINE
5
34F
100
AcDbEntity
8
0
6
ByLayer
62
256
370
-1
100
AcDbLine
10
0
20
0
11
-955
21
0
0
LINE
5
350
100
AcDbEntity
8
0
6
ByLayer
62
256
370
-1
100
AcDbLine
10
0
20
1910
11
-955
21
1910
0
LINE
5
351
100
AcDbEntity
8
0
6
ByLayer
62
256
370
-1
100
AcDbLine
10
-955
20
0
11
-955
21
1910
0
LINE
5
352
100
AcDbEntity
8
0
6
ByLayer
62
256
370
-1
100
AcDbLine
10
0
20
0
11
0
21
1910
0
LINE
5
353
100
AcDbEntity
8
0
6
ByLayer
62
256
370
-1
100
AcDbLine
10
-930
20
0
11
-930
21
1910
0
LINE
5
354
100
AcDbEntity
8
0
6
ByLayer
62
256
370
-1
100
AcDbLine
10
0
20
1885
11
-955
21
1885
0
LINE
5
355
100
AcDbEntity
8
0
6
ByLayer
62
256
370
-1
100
AcDbLine
10
0
20
25
11
-955
21
25
0
LINE
5
356
100
AcDbEntity
8
0
6
ByLayer
62
256
370
-1
100
AcDbLine
10
-25
20
0
11
-25
21
1910
0
LINE
5
357
100
AcDbEntity
8
0
6
ByLayer
62
256
370
-1
100
AcDbLine
10
0
20
955
11
-25
21
955
0
LINE
5
358
100
AcDbEntity
8
0
6
ByLayer
62
256
370
-1
100
AcDbLine
10
-930
20
955
11
-955
21
955
0
ENDBLK
5
119
330
117
100
AcDbEntity
8
0
100
AcDbBlockEnd
0
BLOCK
5
11B
330
11A
100
AcDbEntity
8
0
100
AcDbBlockBegin
2
KyotoKyomaTatamiVertical-4-0
70
0
10
0
20
0
3
KyotoKyomaTatamiVertical-4-0
1

0
LINE
5
359
100
AcDbEntity
8
0
6
ByLayer
62
256
370
-1
100
AcDbLine
10
0
20
0
11
-955
21
0
0
LINE
5
35A
100
AcDbEntity
8
0
6
ByLayer
62
256
370
-1
100
AcDbLine
10
0
20
1910
11
-955
21
1910
0
LINE
5
35B
100
AcDbEntity
8
0
6
ByLayer
62
256
370
-1
100
AcDbLine
10
-955
20
0
11
-955
21
1910
0
LINE
5
35C
100
AcDbEntity
8
0
6
ByLayer
62
256
370
-1
100
AcDbLine
10
0
20
0
11
0
21
1910
0
LINE
5
35D
100
AcDbEntity
8
0
6
ByLayer
62
256
370
-1
100
AcDbLine
10
-930
20
0
11
-930
21
1910
0
LINE
5
35E
100
AcDbEntity
8
0
6
ByLayer
62
256
370
-1
100
AcDbLine
10
0
20
1885
11
-955
21
1885
0
LINE
5
35F
100
AcDbEntity
8
0
6
ByLayer
62
256
370
-1
100
AcDbLine
10
0
20
25
11
-955
21
25
0
LINE
5
360
100
AcDbEntity
8
0
6
ByLayer
62
256
370
-1
100
AcDbLine
10
-25
20
0
11
-25
21
1910
0
LINE
5
361
100
AcDbEntity
8
0
6
ByLayer
62
256
370
-1
100
AcDbLine
10
0
20
955
11
-25
21
955
0
LINE
5
362
100
AcDbEntity
8
0
6
ByLayer
62
256
370
-1
100
AcDbLine
10
-930
20
955
11
-955
21
955
0
ENDBLK
5
11C
330
11A
100
AcDbEntity
8
0
100
AcDbBlockEnd
0
BLOCK
5
11E
330
11D
100
AcDbEntity
8
0
100
AcDbBlockBegin
2
KyotoKyomaTatamiVertical-5-0
70
0
10
0
20
0
3
KyotoKyomaTatamiVertical-5-0
1

0
LINE
5
363
100
AcDbEntity
8
0
6
ByLayer
62
256
370
-1
100
AcDbLine
10
0
20
0
11
-955
21
0
0
LINE
5
364
100
AcDbEntity
8
0
6
ByLayer
62
256
370
-1
100
AcDbLine
10
0
20
1910
11
-955
21
1910
0
LINE
5
365
100
AcDbEntity
8
0
6
ByLayer
62
256
370
-1
100
AcDbLine
10
-955
20
0
11
-955
21
1910
0
LINE
5
366
100
AcDbEntity
8
0
6
ByLayer
62
256
370
-1
100
AcDbLine
10
0
20
0
11
0
21
1910
0
LINE
5
367
100
AcDbEntity
8
0
6
ByLayer
62
256
370
-1
100
AcDbLine
10
-930
20
0
11
-930
21
1910
0
LINE
5
368
100
AcDbEntity
8
0
6
ByLayer
62
256
370
-1
100
AcDbLine
10
0
20
1885
11
-955
21
1885
0
LINE
5
369
100
AcDbEntity
8
0
6
ByLayer
62
256
370
-1
100
AcDbLine
10
0
20
25
11
-955
21
25
0
LINE
5
36A
100
AcDbEntity
8
0
6
ByLayer
62
256
370
-1
100
AcDbLine
10
-25
20
0
11
-25
21
1910
0
LINE
5
36B
100
AcDbEntity
8
0
6
ByLayer
62
256
370
-1
100
AcDbLine
10
0
20
955
11
-25
21
955
0
LINE
5
36C
100
AcDbEntity
8
0
6
ByLayer
62
256
370
-1
100
AcDbLine
10
-930
20
955
11
-955
21
955
0
ENDBLK
5
11F
330
11D
100
AcDbEntity
8
0
100
AcDbBlockEnd
0
BLOCK
5
121
330
120
100
AcDbEntity
8
0
100
AcDbBlockBegin
2
KyotoKyomaTatamiVertical-6-0
70
0
10
0
20
0
3
KyotoKyomaTatamiVertical-6-0
1

0
LINE
5
36D
100
AcDbEntity
8
0
6
ByLayer
62
256
370
-1
100
AcDbLine
10
0
20
0
11
-955
21
0
0
LINE
5
36E
100
AcDbEntity
8
0
6
ByLayer
62
256
370
-1
100
AcDbLine
10
0
20
1910
11
-955
21
1910
0
LINE
5
36F
100
AcDbEntity
8
0
6
ByLayer
62
256
370
-1
100
AcDbLine
10
-955
20
0
11
-955
21
1910
0
LINE
5
370
100
AcDbEntity
8
0
6
ByLayer
62
256
370
-1
100
AcDbLine
10
0
20
0
11
0
21
1910
0
LINE
5
371
100
AcDbEntity
8
0
6
ByLayer
62
256
370
-1
100
AcDbLine
10
-930
20
0
11
-930
21
1910
0
LINE
5
372
100
AcDbEntity
8
0
6
ByLayer
62
256
370
-1
100
AcDbLine
10
0
20
1885
11
-955
21
1885
0
LINE
5
373
100
AcDbEntity
8
0
6
ByLayer
62
256
370
-1
100
AcDbLine
10
0
20
25
11
-955
21
25
0
LINE
5
374
100
AcDbEntity
8
0
6
ByLayer
62
256
370
-1
100
AcDbLine
10
-25
20
0
11
-25
21
1910
0
LINE
5
375
100
AcDbEntity
8
0
6
ByLayer
62
256
370
-1
100
AcDbLine
10
0
20
955
11
-25
21
955
0
LINE
5
376
100
AcDbEntity
8
0
6
ByLayer
62
256
370
-1
100
AcDbLine
10
-930
20
955
11
-955
21
955
0
ENDBLK
5
122
330
120
100
AcDbEntity
8
0
100
AcDbBlockEnd
0
BLOCK
5
124
330
123
100
AcDbEntity
8
0
100
AcDbBlockBegin
2
KyotoKyomaTatamiVertical-7-0
70
0
10
0
20
0
3
KyotoKyomaTatamiVertical-7-0
1

0
LINE
5
377
100
AcDbEntity
8
0
6
ByLayer
62
256
370
-1
100
AcDbLine
10
0
20
0
11
-955
21
0
0
LINE
5
378
100
AcDbEntity
8
0
6
ByLayer
62
256
370
-1
100
AcDbLine
10
0
20
1910
11
-955
21
1910
0
LINE
5
379
100
AcDbEntity
8
0
6
ByLayer
62
256
370
-1
100
AcDbLine
10
-955
20
0
11
-955
21
1910
0
LINE
5
37A
100
AcDbEntity
8
0
6
ByLayer
62
256
370
-1
100
AcDbLine
10
0
20
0
11
0
21
1910
0
LINE
5
37B
100
AcDbEntity
8
0
6
ByLayer
62
256
370
-1
100
AcDbLine
10
-930
20
0
11
-930
21
1910
0
LINE
5
37C
100
AcDbEntity
8
0
6
ByLayer
62
256
370
-1
100
AcDbLine
10
0
20
1885
11
-955
21
1885
0
LINE
5
37D
100
AcDbEntity
8
0
6
ByLayer
62
256
370
-1
100
AcDbLine
10
0
20
25
11
-955
21
25
0
LINE
5
37E
100
AcDbEntity
8
0
6
ByLayer
62
256
370
-1
100
AcDbLine
10
-25
20
0
11
-25
21
1910
0
LINE
5
37F
100
AcDbEntity
8
0
6
ByLayer
62
256
370
-1
100
AcDbLine
10
0
20
955
11
-25
21
955
0
LINE
5
380
100
AcDbEntity
8
0
6
ByLayer
62
256
370
-1
100
AcDbLine
10
-930
20
955
11
-955
21
955
0
ENDBLK
5
125
330
123
100
AcDbEntity
8
0
100
AcDbBlockEnd
0
BLOCK
5
127
330
126
100
AcDbEntity
8
0
100
AcDbBlockBegin
2
KyotoKyomaTatamiVertical-8-0
70
0
10
0
20
0
3
KyotoKyomaTatamiVertical-8-0
1

0
LINE
5
381
100
AcDbEntity
8
0
6
ByLayer
62
256
370
-1
100
AcDbLine
10
0
20
0
11
-955
21
0
0
LINE
5
382
100
AcDbEntity
8
0
6
ByLayer
62
256
370
-1
100
AcDbLine
10
0
20
1910
11
-955
21
1910
0
LINE
5
383
100
AcDbEntity
8
0
6
ByLayer
62
256
370
-1
100
AcDbLine
10
-955
20
0
11
-955
21
1910
0
LINE
5
384
100
AcDbEntity
8
0
6
ByLayer
62
256
370
-1
100
AcDbLine
10
0
20
0
11
0
21
1910
0
LINE
5
385
100
AcDbEntity
8
0
6
ByLayer
62
256
370
-1
100
AcDbLine
10
-930
20
0
11
-930
21
1910
0
LINE
5
386
100
AcDbEntity
8
0
6
ByLayer
62
256
370
-1
100
AcDbLine
10
0
20
1885
11
-955
21
1885
0
LINE
5
387
100
AcDbEntity
8
0
6
ByLayer
62
256
370
-1
100
AcDbLine
10
0
20
25
11
-955
21
25
0
LINE
5
388
100
AcDbEntity
8
0
6
ByLayer
62
256
370
-1
100
AcDbLine
10
-25
20
0
11
-25
21
1910
0
LINE
5
389
100
AcDbEntity
8
0
6
ByLayer
62
256
370
-1
100
AcDbLine
10
0
20
955
11
-25
21
955
0
LINE
5
38A
100
AcDbEntity
8
0
6
ByLayer
62
256
370
-1
100
AcDbLine
10
-930
20
955
11
-955
21
955
0
ENDBLK
5
128
330
126
100
AcDbEntity
8
0
100
AcDbBlockEnd
0
BLOCK
5
12A
330
129
100
AcDbEntity
8
0
100
AcDbBlockBegin
2
KyotoKyomaTatamiHalf-0-0
70
0
10
0
20
0
3
KyotoKyomaTatamiHalf-0-0
1

0
LINE
5
38B
100
AcDbEntity
8
0
6
ByLayer
62
256
370
-1
100
AcDbLine
10
0
20
955
11
955
21
955
0
LINE
5
38C
100
AcDbEntity
8
0
6
ByLayer
62
256
370
-1
100
AcDbLine
10
0
20
0
11
955
21
0
0
LINE
5
38D
100
AcDbEntity
8
0
6
ByLayer
62
256
370
-1
100
AcDbLine
10
0
20
0
11
0
21
955
0
LINE
5
38E
100
AcDbEntity
8
0
6
ByLayer
62
256
370
-1
100
AcDbLine
10
955
20
0
11
955
21
955
0
LINE
5
38F
100
AcDbEntity
8
0
6
ByLayer
62
256
370
-1
100
AcDbLine
10
25
20
0
11
25
21
955
0
LINE
5
390
100
AcDbEntity
8
0
6
ByLayer
62
256
370
-1
100
AcDbLine
10
0
20
930
11
955
21
930
0
LINE
5
391
100
AcDbEntity
8
0
6
ByLayer
62
256
370
-1
100
AcDbLine
10
930
20
0
11
930
21
955
0
LINE
5
392
100
AcDbEntity
8
0
6
ByLayer
62
256
370
-1
100
AcDbLine
10
0
20
25
11
955
21
25
0
ENDBLK
5
12B
330
129
100
AcDbEntity
8
0
100
AcDbBlockEnd
0
BLOCK
5
12D
330
12C
100
AcDbEntity
8
0
100
AcDbBlockBegin
2
KyotoKyomaTatamiHalf-1-0
70
0
10
0
20
0
3
KyotoKyomaTatamiHalf-1-0
1

0
LINE
5
393
100
AcDbEntity
8
0
6
ByLayer
62
256
370
-1
100
AcDbLine
10
0
20
955
11
955
21
955
0
LINE
5
394
100
AcDbEntity
8
0
6
ByLayer
62
256
370
-1
100
AcDbLine
10
0
20
0
11
955
21
0
0
LINE
5
395
100
AcDbEntity
8
0
6
ByLayer
62
256
370
-1
100
AcDbLine
10
0
20
0
11
0
21
955
0
LINE
5
396
100
AcDbEntity
8
0
6
ByLayer
62
256
370
-1
100
AcDbLine
10
955
20
0
11
955
21
955
0
LINE
5
397
100
AcDbEntity
8
0
6
ByLayer
62
256
370
-1
100
AcDbLine
10
25
20
0
11
25
21
955
0
LINE
5
398
100
AcDbEntity
8
0
6
ByLayer
62
256
370
-1
100
AcDbLine
10
0
20
930
11
955
21
930
0
LINE
5
399
100
AcDbEntity
8
0
6
ByLayer
62
256
370
-1
100
AcDbLine
10
930
20
0
11
930
21
955
0
LINE
5
39A
100
AcDbEntity
8
0
6
ByLayer
62
256
370
-1
100
AcDbLine
10
0
20
25
11
955
21
25
0
ENDBLK
5
12E
330
12C
100
AcDbEntity
8
0
100
AcDbBlockEnd
0
BLOCK
5
130
330
12F
100
AcDbEntity
8
0
100
AcDbBlockBegin
2
KyotoKyomaTatamiHalf-2-0
70
0
10
0
20
0
3
KyotoKyomaTatamiHalf-2-0
1

0
LINE
5
39B
100
AcDbEntity
8
0
6
ByLayer
62
256
370
-1
100
AcDbLine
10
0
20
955
11
955
21
955
0
LINE
5
39C
100
AcDbEntity
8
0
6
ByLayer
62
256
370
-1
100
AcDbLine
10
0
20
0
11
955
21
0
0
LINE
5
39D
100
AcDbEntity
8
0
6
ByLayer
62
256
370
-1
100
AcDbLine
10
0
20
0
11
0
21
955
0
LINE
5
39E
100
AcDbEntity
8
0
6
ByLayer
62
256
370
-1
100
AcDbLine
10
955
20
0
11
955
21
955
0
LINE
5
39F
100
AcDbEntity
8
0
6
ByLayer
62
256
370
-1
100
AcDbLine
10
25
20
0
11
25
21
955
0
LINE
5
3A0
100
AcDbEntity
8
0
6
ByLayer
62
256
370
-1
100
AcDbLine
10
0
20
930
11
955
21
930
0
LINE
5
3A1
100
AcDbEntity
8
0
6
ByLayer
62
256
370
-1
100
AcDbLine
10
930
20
0
11
930
21
955
0
LINE
5
3A2
100
AcDbEntity
8
0
6
ByLayer
62
256
370
-1
100
AcDbLine
10
0
20
25
11
955
21
25
0
ENDBLK
5
131
330
12F
100
AcDbEntity
8
0
100
AcDbBlockEnd
0
BLOCK
5
133
330
132
100
AcDbEntity
8
0
100
AcDbBlockBegin
2
KyotoKyomaTatamiHalf-3-0
70
0
10
0
20
0
3
KyotoKyomaTatamiHalf-3-0
1

0
LINE
5
3A3
100
AcDbEntity
8
0
6
ByLayer
62
256
370
-1
100
AcDbLine
10
0
20
955
11
955
21
955
0
LINE
5
3A4
100
AcDbEntity
8
0
6
ByLayer
62
256
370
-1
100
AcDbLine
10
0
20
0
11
955
21
0
0
LINE
5
3A5
100
AcDbEntity
8
0
6
ByLayer
62
256
370
-1
100
AcDbLine
10
0
20
0
11
0
21
955
0
LINE
5
3A6
100
AcDbEntity
8
0
6
ByLayer
62
256
370
-1
100
AcDbLine
10
955
20
0
11
955
21
955
0
LINE
5
3A7
100
AcDbEntity
8
0
6
ByLayer
62
256
370
-1
100
AcDbLine
10
25
20
0
11
25
21
955
0
LINE
5
3A8
100
AcDbEntity
8
0
6
ByLayer
62
256
370
-1
100
AcDbLine
10
0
20
930
11
955
21
930
0
LINE
5
3A9
100
AcDbEntity
8
0
6
ByLayer
62
256
370
-1
100
AcDbLine
10
930
20
0
11
930
21
955
0
LINE
5
3AA
100
AcDbEntity
8
0
6
ByLayer
62
256
370
-1
100
AcDbLine
10
0
20
25
11
955
21
25
0
ENDBLK
5
134
330
132
100
AcDbEntity
8
0
100
AcDbBlockEnd
0
BLOCK
5
136
330
135
100
AcDbEntity
8
0
100
AcDbBlockBegin
2
KyotoKyomaTatamiVertical-9-0
70
0
10
0
20
0
3
KyotoKyomaTatamiVertical-9-0
1

0
LINE
5
3AB
100
AcDbEntity
8
0
6
ByLayer
62
256
370
-1
100
AcDbLine
10
0
20
0
11
-955
21
0
0
LINE
5
3AC
100
AcDbEntity
8
0
6
ByLayer
62
256
370
-1
100
AcDbLine
10
0
20
1910
11
-955
21
1910
0
LINE
5
3AD
100
AcDbEntity
8
0
6
ByLayer
62
256
370
-1
100
AcDbLine
10
-955
20
0
11
-955
21
1910
0
LINE
5
3AE
100
AcDbEntity
8
0
6
ByLayer
62
256
370
-1
100
AcDbLine
10
0
20
0
11
0
21
1910
0
LINE
5
3AF
100
AcDbEntity
8
0
6
ByLayer
62
256
370
-1
100
AcDbLine
10
-930
20
0
11
-930
21
1910
0
LINE
5
3B0
100
AcDbEntity
8
0
6
ByLayer
62
256
370
-1
100
AcDbLine
10
0
20
1885
11
-955
21
1885
0
LINE
5
3B1
100
AcDbEntity
8
0
6
ByLayer
62
256
370
-1
100
AcDbLine
10
0
20
25
11
-955
21
25
0
LINE
5
3B2
100
AcDbEntity
8
0
6
ByLayer
62
256
370
-1
100
AcDbLine
10
-25
20
0
11
-25
21
1910
0
LINE
5
3B3
100
AcDbEntity
8
0
6
ByLayer
62
256
370
-1
100
AcDbLine
10
0
20
955
11
-25
21
955
0
LINE
5
3B4
100
AcDbEntity
8
0
6
ByLayer
62
256
370
-1
100
AcDbLine
10
-930
20
955
11
-955
21
955
0
ENDBLK
5
137
330
135
100
AcDbEntity
8
0
100
AcDbBlockEnd
0
BLOCK
5
139
330
138
100
AcDbEntity
8
0
100
AcDbBlockBegin
2
KyotoKyomaTatami-0-0
70
0
10
0
20
0
3
KyotoKyomaTatami-0-0
1

0
LINE
5
3B5
100
AcDbEntity
8
0
6
ByLayer
62
256
370
-1
100
AcDbLine
10
0
20
0
11
0
21
955
0
LINE
5
3B6
100
AcDbEntity
8
0
6
ByLayer
62
256
370
-1
100
AcDbLine
10
1910
20
0
11
1910
21
955
0
LINE
5
3B7
100
AcDbEntity
8
0
6
ByLayer
62
256
370
-1
100
AcDbLine
10
0
20
955
11
1910
21
955
0
LINE
5
3B8
100
AcDbEntity
8
0
6
ByLayer
62
256
370
-1
100
AcDbLine
10
0
20
0
11
1910
21
0
0
LINE
5
3B9
100
AcDbEntity
8
0
6
ByLayer
62
256
370
-1
100
AcDbLine
10
0
20
930
11
1910
21
930
0
LINE
5
3BA
100
AcDbEntity
8
0
6
ByLayer
62
256
370
-1
100
AcDbLine
10
1885
20
0
11
1885
21
955
0
LINE
5
3BB
100
AcDbEntity
8
0
6
ByLayer
62
256
370
-1
100
AcDbLine
10
25
20
0
11
25
21
955
0
LINE
5
3BC
100
AcDbEntity
8
0
6
ByLayer
62
256
370
-1
100
AcDbLine
10
0
20
25
11
1910
21
25
0
LINE
5
3BD
100
AcDbEntity
8
0
6
ByLayer
62
256
370
-1
100
AcDbLine
10
955
20
0
11
955
21
25
0
LINE
5
3BE
100
AcDbEntity
8
0
6
ByLayer
62
256
370
-1
100
AcDbLine
10
955
20
930
11
955
21
955
0
ENDBLK
5
13A
330
138
100
AcDbEntity
8
0
100
AcDbBlockEnd
0
BLOCK
5
13C
330
13B
100
AcDbEntity
8
0
100
AcDbBlockBegin
2
KyotoKyomaTatami-1-0
70
0
10
0
20
0
3
KyotoKyomaTatami-1-0
1

0
LINE
5
3BF
100
AcDbEntity
8
0
6
ByLayer
62
256
370
-1
100
AcDbLine
10
0
20
0
11
0
21
955
0
LINE
5
3C0
100
AcDbEntity
8
0
6
ByLayer
62
256
370
-1
100
AcDbLine
10
1910
20
0
11
1910
21
955
0
LINE
5
3C1
100
AcDbEntity
8
0
6
ByLayer
62
256
370
-1
100
AcDbLine
10
0
20
955
11
1910
21
955
0
LINE
5
3C2
100
AcDbEntity
8
0
6
ByLayer
62
256
370
-1
100
AcDbLine
10
0
20
0
11
1910
21
0
0
LINE
5
3C3
100
AcDbEntity
8
0
6
ByLayer
62
256
370
-1
100
AcDbLine
10
0
20
930
11
1910
21
930
0
LINE
5
3C4
100
AcDbEntity
8
0
6
ByLayer
62
256
370
-1
100
AcDbLine
10
1885
20
0
11
1885
21
955
0
LINE
5
3C5
100
AcDbEntity
8
0
6
ByLayer
62
256
370
-1
100
AcDbLine
10
25
20
0
11
25
21
955
0
LINE
5
3C6
100
AcDbEntity
8
0
6
ByLayer
62
256
370
-1
100
AcDbLine
10
0
20
25
11
1910
21
25
0
LINE
5
3C7
100
AcDbEntity
8
0
6
ByLayer
62
256
370
-1
100
AcDbLine
10
955
20
0
11
955
21
25
0
LINE
5
3C8
100
AcDbEntity
8
0
6
ByLayer
62
256
370
-1
100
AcDbLine
10
955
20
930
11
955
21
955
0
ENDBLK
5
13D
330
13B
100
AcDbEntity
8
0
100
AcDbBlockEnd
0
BLOCK
5
13F
330
13E
100
AcDbEntity
8
0
100
AcDbBlockBegin
2
washer_Hor-0-0-0
70
0
10
0
20
0
3
washer_Hor-0-0-0
1

0
LINE
5
3C9
100
AcDbEntity
8
0
6
ByLayer
62
256
370
-1
100
AcDbLine
10
520
20
0
11
520
21
550
0
LINE
5
3CA
100
AcDbEntity
8
0
6
ByLayer
62
256
370
-1
100
AcDbLine
10
0
20
0
11
0
21
550
0
LINE
5
3CB
100
AcDbEntity
8
0
6
ByLayer
62
256
370
-1
100
AcDbLine
10
0
20
550
11
520
21
550
0
LINE
5
3CC
100
AcDbEntity
8
0
6
ByLayer
62
256
370
-1
100
AcDbLine
10
0
20
0
11
520
21
0
0
CIRCLE
5
3CD
100
AcDbEntity
8
0
6
ByLayer
62
256
370
-1
100
AcDbCircle
10
260
20
275
40
190.24749449
0
LINE
5
3CE
100
AcDbEntity
8
0
6
ByLayer
62
256
370
-1
100
AcDbLine
10
0
20
50
11
520
21
50
0
ENDBLK
5
140
330
13E
100
AcDbEntity
8
0
100
AcDbBlockEnd
0
BLOCK
5
142
330
141
100
AcDbEntity
8
0
100
AcDbBlockBegin
2
washer_Hor-1-0-0
70
0
10
0
20
0
3
washer_Hor-1-0-0
1

0
LINE
5
3CF
100
AcDbEntity
8
0
6
ByLayer
62
256
370
-1
100
AcDbLine
10
520
20
0
11
520
21
550
0
LINE
5
3D0
100
AcDbEntity
8
0
6
ByLayer
62
256
370
-1
100
AcDbLine
10
0
20
0
11
0
21
550
0
LINE
5
3D1
100
AcDbEntity
8
0
6
ByLayer
62
256
370
-1
100
AcDbLine
10
0
20
550
11
520
21
550
0
LINE
5
3D2
100
AcDbEntity
8
0
6
ByLayer
62
256
370
-1
100
AcDbLine
10
0
20
0
11
520
21
0
0
CIRCLE
5
3D3
100
AcDbEntity
8
0
6
ByLayer
62
256
370
-1
100
AcDbCircle
10
260
20
275
40
190.24749449
0
LINE
5
3D4
100
AcDbEntity
8
0
6
ByLayer
62
256
370
-1
100
AcDbLine
10
0
20
50
11
520
21
50
0
ENDBLK
5
143
330
141
100
AcDbEntity
8
0
100
AcDbBlockEnd
0
BLOCK
5
145
330
144
100
AcDbEntity
8
0
100
AcDbBlockBegin
2
refridge500_600_verRight-0-0-0
70
0
10
0
20
0
3
refridge500_600_verRight-0-0-0
1

0
LINE
5
3D5
100
AcDbEntity
8
0
6
ByLayer
62
256
370
-1
100
AcDbLine
10
0
20
0
11
550
21
0
0
LINE
5
3D6
100
AcDbEntity
8
0
6
ByLayer
62
256
370
-1
100
AcDbLine
10
0
20
-600
11
550
21
-600
0
LINE
5
3D7
100
AcDbEntity
8
0
6
ByLayer
62
256
370
-1
100
AcDbLine
10
500
20
0
11
500
21
-600
0
LINE
5
3D8
100
AcDbEntity
8
0
6
ByLayer
62
256
370
-1
100
AcDbLine
10
0
20
0
11
0
21
-600
0
ARC
5
3D9
100
AcDbEntity
8
0
6
ByLayer
62
256
370
-1
100
AcDbCircle
10
-689.692211372
20
-300
40
1275.4751189
100
AcDbArc
50
346.396206231
51
13.603793769
0
LINE
5
3DA
100
AcDbEntity
8
0
6
ByLayer
62
256
370
-1
100
AcDbLine
10
510
20
0
11
510
21
-600
0
MTEXT
5
3DB
100
AcDbEntity
8
0
6
ByLayer
62
256
370
-1
100
AcDbMText
10
266.901409432
20
-24.0279179021
30
0
40
200
41
533.333333333
71
4
72
5
1
Refr
7
iso
210
0
220
0
230
1
50
270
73
1
44
0.96
0
ENDBLK
5
146
330
144
100
AcDbEntity
8
0
100
AcDbBlockEnd
0
BLOCK
5
148
330
147
100
AcDbEntity
8
0
100
AcDbBlockBegin
2
Standard40ft12m_withIntwall-0-0
70
0
10
0
20
0
3
Standard40ft12m_withIntwall-0-0
1

0
LINE
5
3DC
100
AcDbEntity
8
0
6
ByLayer
62
256
370
-1
100
AcDbLine
10
94
20
94
11
94
21
2346
0
LINE
5
3DD
100
AcDbEntity
8
0
6
ByLayer
62
256
370
-1
100
AcDbLine
10
94
20
94
11
12076
21
94
0
LINE
5
3DE
100
AcDbEntity
8
0
6
ByLayer
62
256
370
-1
100
AcDbLine
10
44
20
44
11
44
21
2396
0
LINE
5
3DF
100
AcDbEntity
8
0
6
ByLayer
62
256
370
-1
100
AcDbLine
10
0
20
0
11
0
21
2440
0
LINE
5
3E0
100
AcDbEntity
8
0
6
ByLayer
62
256
370
-1
100
AcDbLine
10
0
20
0
11
12200
21
0
0
LINE
5
3E1
100
AcDbEntity
8
0
6
ByLayer
62
256
370
-1
100
AcDbLine
10
44
20
44
11
12200
21
44
0
LINE
5
3E2
100
AcDbEntity
8
0
6
ByLayer
62
256
370
-1
100
AcDbLine
10
12200
20
2390
11
13370
21
2390
0
LINE
5
3E3
100
AcDbEntity
8
0
6
ByLayer
62
256
370
-1
100
AcDbLine
10
12200
20
50
11
13370
21
50
0
LINE
5
3E4
100
AcDbEntity
8
0
6
ByLayer
62
256
370
-1
100
AcDbLine
10
12200
20
2434
11
13370
21
2434
0
LINE
5
3E5
100
AcDbEntity
8
0
6
ByLayer
62
256
370
-1
100
AcDbLine
10
12200
20
6
11
13370
21
6
0
LINE
5
3E6
100
AcDbEntity
8
0
6
ByLayer
62
256
370
-1
100
AcDbLine
10
13370
20
50
11
13370
21
2390
0
LINE
5
3E7
100
AcDbEntity
8
0
6
ByLayer
62
256
370
-1
100
AcDbLine
10
12076
20
44
11
12076
21
2396
0
LINE
5
3E8
100
AcDbEntity
8
0
6
ByLayer
62
256
370
-1
100
AcDbLine
10
12200
20
0
11
12200
21
2440
0
LINE
5
3E9
100
AcDbEntity
8
0
6
ByLayer
62
256
370
-1
100
AcDbLine
10
94
20
2346
11
12076
21
2346
0
LINE
5
3EA
100
AcDbEntity
8
0
6
ByLayer
62
256
370
-1
100
AcDbLine
10
0
20
2440
11
12200
21
2440
0
LINE
5
3EB
100
AcDbEntity
8
0
6
ByLayer
62
256
370
-1
100
AcDbLine
10
44
20
2396
11
12200
21
2396
0
ENDBLK
5
149
330
147
100
AcDbEntity
8
0
100
AcDbBlockEnd
0
BLOCK
5
14B
330
14A
100
AcDbEntity
8
0
100
AcDbBlockBegin
2
jtub-0-0
70
0
10
0
20
0
3
jtub-0-0
1

0
INSERT
5
3EC
100
AcDbEntity
8
fixtures
6
ByLayer
62
256
370
-1
100
AcDbBlockReference
2
tub_ver-0-0-0
10
89.9985784502
20
870.630897716
30
0
41
1
42
1
43
0
50
0
70
1
71
1
44
0
45
0
0
LINE
5
3ED
100
AcDbEntity
8
fixtures
6
ByLayer
62
256
370
-1
100
AcDbLine
10
759.99857845
20
0.630897714578
11
759.99857845
21
870.630897716
0
ARC
5
3EE
100
AcDbEntity
8
fixtures
6
ByLayer
62
256
370
-1
100
AcDbCircle
10
619.99857845
20
870.630897716
40
140
100
AcDbArc
50
0
51
90
0
ARC
5
3EF
100
AcDbEntity
8
fixtures
6
ByLayer
62
256
370
-1
100
AcDbCircle
10
619.99857845
20
0.630897714578
40
140
100
AcDbArc
50
270
51
0
0
LINE
5
3F0
100
AcDbEntity
8
fixtures
6
ByLayer
62
256
370
-1
100
AcDbLine
10
139.99857845
20
-139.369102285
11
619.99857845
21
-139.369102285
0
ARC
5
3F1
100
AcDbEntity
8
fixtures
6
ByLayer
62
256
370
-1
100
AcDbCircle
10
139.99857845
20
0.630897714578
40
140
100
AcDbArc
50
180
51
270
0
ARC
5
3F2
100
AcDbEntity
8
fixtures
6
ByLayer
62
256
370
-1
100
AcDbCircle
10
139.99857845
20
870.630897716
40
140
100
AcDbArc
50
90
51
180
0
LINE
5
3F3
100
AcDbEntity
8
fixtures
6
ByLayer
62
256
370
-1
100
AcDbLine
10
139.99857845
20
1010.63089772
11
619.99857845
21
1010.63089772
0
LINE
5
3F4
100
AcDbEntity
8
fixtures
6
ByLayer
62
256
370
-1
100
AcDbLine
10
-0.00142154981094
20
870.630897716
11
0
21
0
0
ENDBLK
5
14C
330
14A
100
AcDbEntity
8
0
100
AcDbBlockEnd
0
BLOCK
5
14E
330
14D
100
AcDbEntity
8
0
100
AcDbBlockBegin
2
kitchen-0-0
70
0
10
0
20
0
3
kitchen-0-0
1

0
MTEXT
5
3F5
100
AcDbEntity
8
text
6
ByLayer
62
256
370
-1
100
AcDbMText
10
2882.46379649
20
-4057.98087285
30
0
40
400
41
577.777777778
71
1
72
1
1
kit
7
standard
210
0
220
0
230
1
50
0
73
2
44
1
0
LINE
5
3F6
100
AcDbEntity
8
0
6
ByLayer
62
256
370
-1
100
AcDbLine
10
0
20
50
11
0
21
2302
0
LINE
5
3F7
100
AcDbEntity
8
0
6
ByLayer
62
256
370
-1
100
AcDbLine
10
50
20
50
11
50
21
2302
0
INSERT
5
3F8
100
AcDbEntity
8
fixtures
6
ByLayer
62
256
370
-1
100
AcDbBlockReference
2
refridge500_600_verRight-0-0-0
10
80
20
2272
30
0
41
1
42
1
43
0
50
0
70
1
71
1
44
0
45
0
0
LINE
5
3F9
100
AcDbEntity
8
cabinates
6
ByLayer
62
256
370
-1
100
AcDbLine
10
50
20
1622
11
700
21
1622
0
LINE
5
3FA
100
AcDbEntity
8
cabinates
6
ByLayer
62
256
370
-1
100
AcDbLine
10
700
20
50
11
700
21
1622
0
LINE
5
3FB
100
AcDbEntity
8
cabinates
6
ByLayer
62
256
370
-1
100
AcDbLine
10
1600
20
50
11
1600
21
1622
0
LINE
5
3FC
100
AcDbEntity
8
cabinates
6
ByLayer
62
256
370
-1
100
AcDbLine
10
2250.00000003
20
50
11
2250.00000003
21
1622
0
LINE
5
3FD
100
AcDbEntity
8
cabinates
6
ByLayer
62
256
370
-1
100
AcDbLine
10
1600
20
1622
11
2250.00000003
21
1622
0
LINE
5
3FE
100
AcDbEntity
8
0
6
ByLayer
62
256
370
-1
100
AcDbLine
10
1722.00000003
20
2302
11
1722.00000003
21
2352
0
LINE
5
3FF
100
AcDbEntity
8
0
6
ByLayer
62
256
370
-1
100
AcDbLine
10
50
20
50
11
3742.00000003
21
50
0
LINE
5
400
100
AcDbEntity
8
0
6
ByLayer
62
256
370
-1
100
AcDbLine
10
50
20
2302
11
1722.00000003
21
2302
0
LINE
5
401
100
AcDbEntity
8
container
6
ByLayer
62
256
370
-1
100
AcDbLine
10
0
20
0
11
50
21
0
0
ENDBLK
5
14F
330
14D
100
AcDbEntity
8
0
100
AcDbBlockEnd
0
BLOCK
5
151
330
150
100
AcDbEntity
8
0
100
AcDbBlockBegin
2
referVerDn-0
70
0
10
0
20
0
3
referVerDn-0
1

0
LINE
5
402
100
AcDbEntity
8
fixtures
6
ByLayer
62
256
370
-1
100
AcDbLine
10
30
20
-30
11
30
21
-580
0
LINE
5
403
100
AcDbEntity
8
fixtures
6
ByLayer
62
256
370
-1
100
AcDbLine
10
630
20
-30
11
630
21
-580
0
LINE
5
404
100
AcDbEntity
8
fixtures
6
ByLayer
62
256
370
-1
100
AcDbLine
10
30
20
-530
11
630
21
-530
0
LINE
5
405
100
AcDbEntity
8
fixtures
6
ByLayer
62
256
370
-1
100
AcDbLine
10
30
20
-30
11
630
21
-30
0
ARC
5
406
100
AcDbEntity
8
fixtures
6
ByLayer
62
256
370
-1
100
AcDbCircle
10
330
20
659.692211372
40
1275.4751189
100
AcDbArc
50
256.396206231
51
283.603793769
0
LINE
5
407
100
AcDbEntity
8
fixtures
6
ByLayer
62
256
370
-1
100
AcDbLine
10
30
20
-540
11
630
21
-540
0
ENDBLK
5
152
330
150
100
AcDbEntity
8
0
100
AcDbBlockEnd
0
BLOCK
5
154
330
153
100
AcDbEntity
8
0
100
AcDbBlockBegin
2
slider1810-ver
70
0
10
0
20
0
3
slider1810-ver
1

0
LINE
5
408
100
AcDbEntity
8
container
6
ByLayer
62
256
370
-1
100
AcDbLine
10
16
20
2081
11
16
21
271
0
LINE
5
409
100
AcDbEntity
8
container
6
ByLayer
62
256
370
-1
100
AcDbLine
10
-34
20
2081
11
66
21
2081
0
LINE
5
40A
100
AcDbEntity
8
container
6
ByLayer
62
256
370
-1
100
AcDbLine
10
-34
20
271
11
66
21
271
0
LINE
5
40B
100
AcDbEntity
8
container
6
DOT
62
256
370
-1
100
AcDbLine
10
0
20
0
11
0
21
2352
0
LINE
5
40C
100
AcDbEntity
8
container
6
ByLayer
62
256
370
-1
100
AcDbLine
10
-34
20
1181
11
66
21
1181
0
LINE
5
40D
100
AcDbEntity
8
container
6
ByLayer
62
256
370
-1
100
AcDbLine
10
66
20
1181
11
66
21
7
0
LINE
5
40E
100
AcDbEntity
8
container
6
ByLayer
62
256
370
-1
100
AcDbLine
10
-34
20
2302
11
-34
21
1181
0
LINE
5
40F
100
AcDbEntity
8
container
6
ByLayer
62
256
370
-1
100
AcDbLine
10
-34
20
271
11
-34
21
50
0
ENDBLK
5
155
330
153
100
AcDbEntity
8
0
100
AcDbBlockEnd
0
BLOCK
5
157
330
156
100
AcDbEntity
8
0
100
AcDbBlockBegin
2
upArrow
70
0
10
0
20
0
3
upArrow
1

0
ENDBLK
5
158
330
156
100
AcDbEntity
8
0
100
AcDbBlockEnd
0
BLOCK
5
15A
330
159
100
AcDbEntity
8
0
100
AcDbBlockBegin
2
container-6m-wdoors
70
0
10
0
20
0
3
container-6m-wdoors
1

0
LINE
5
410
100
AcDbEntity
8
container
6
ByLayer
62
256
370
-1
100
AcDbLine
10
44
20
44
11
44
21
2396
0
LINE
5
411
100
AcDbEntity
8
container
6
ByLayer
62
256
370
-1
100
AcDbLine
10
44
20
2396
11
5942
21
2396
0
LINE
5
412
100
AcDbEntity
8
container
6
ByLayer
62
256
370
-1
100
AcDbLine
10
0
20
2440
11
6058
21
2440
0
LINE
5
413
100
AcDbEntity
8
container
6
ByLayer
62
256
370
-1
100
AcDbLine
10
0
20
0
11
0
21
2440
0
LINE
5
414
100
AcDbEntity
8
container
6
ByLayer
62
256
370
-1
100
AcDbLine
10
5942
20
2389
11
6058
21
2389
0
LINE
5
415
100
AcDbEntity
8
container
6
ByLayer
62
256
370
-1
100
AcDbLine
10
5942
20
51
11
6058
21
51
0
LINE
5
416
100
AcDbEntity
8
container
6
ByLayer
62
256
370
-1
100
AcDbLine
10
7227
20
2439
11
7227
21
2389
0
LINE
5
417
100
AcDbEntity
8
container
6
ByLayer
62
256
370
-1
100
AcDbLine
10
7227
20
1
11
7227
21
51
0
LINE
5
418
100
AcDbEntity
8
container
6
ByLayer
62
256
370
-1
100
AcDbLine
10
6078
20
2439
11
7227
21
2439
0
LINE
5
419
100
AcDbEntity
8
container
6
ByLayer
62
256
370
-1
100
AcDbLine
10
6078
20
2389
11
7227
21
2389
0
LINE
5
41A
100
AcDbEntity
8
container
6
ByLayer
62
256
370
-1
100
AcDbLine
10
6078
20
51
11
7227
21
51
0
LINE
5
41B
100
AcDbEntity
8
container
6
ByLayer
62
256
370
-1
100
AcDbLine
10
6078
20
1
11
7227
21
1
0
LINE
5
41C
100
AcDbEntity
8
container
6
ByLayer
62
256
370
-1
100
AcDbLine
10
6078
20
2440
11
6078
21
2389
0
LINE
5
41D
100
AcDbEntity
8
container
6
ByLayer
62
256
370
-1
100
AcDbLine
10
6078
20
1
11
6078
21
51
0
LINE
5
41E
100
AcDbEntity
8
container
6
ByLayer
62
256
370
-1
100
AcDbLine
10
5942
20
2396
11
5942
21
2389
0
LINE
5
41F
100
AcDbEntity
8
container
6
ByLayer
62
256
370
-1
100
AcDbLine
10
5942
20
44
11
5942
21
51
0
LINE
5
420
100
AcDbEntity
8
container
6
DASHED2
62
256
370
-1
100
AcDbLine
10
6058
20
2440
11
6058
21
0
0
LINE
5
421
100
AcDbEntity
8
container
6
DASHED2
62
256
370
-1
100
AcDbLine
10
5942
20
44
11
5942
21
2396
0
LINE
5
422
100
AcDbEntity
8
container
6
ByLayer
62
256
370
-1
100
AcDbLine
10
44
20
44
11
5942
21
44
0
LINE
5
423
100
AcDbEntity
8
container
6
ByLayer
62
256
370
-1
100
AcDbLine
10
0
20
0
11
6058
21
0
0
ENDBLK
5
15B
330
159
100
AcDbEntity
8
0
100
AcDbBlockEnd
0
ENDSEC
0
SECTION
2
ENTITIES
0
LINE
5
424
100
AcDbEntity
8
container
6
ByLayer
62
256
370
-1
100
AcDbLine
10
-2000
20
-1000
11
-2000
21
1352
0
LINE
5
425
100
AcDbEntity
8
container
6
ByLayer
62
256
370
-1
100
AcDbLine
10
-2000
20
-1000
11
3898
21
-1000
0
DIMENSION
5
426
100
AcDbEntity
8
dimension
6
ByLayer
62
256
370
-1
100
AcDbDimension
2
*D1
10
-2984.27949019
20
-1000
30
0
11
-3119.52949019
21
176
31
0
70
32
71
5
72
0
3
Standard
53
0
210
0
220
0
230
1
100
AcDbAlignedDimension
13
-2000
23
1352
33
0
14
-2000
24
-1000
34
0
50
90
100
AcDbRotatedDimension
0
LINE
5
427
100
AcDbEntity
8
container
6
ByLayer
62
256
370
-1
100
AcDbLine
10
-2044
20
-1044
11
4014
21
-1044
0
LINE
5
428
100
AcDbEntity
8
container
6
ByLayer
62
256
370
-1
100
AcDbLine
10
-2044
20
-1044
11
-2044
21
1396
0
LINE
5
429
100
AcDbEntity
8
container
6
ByLayer
62
256
370
-1
100
AcDbLine
10
3898
20
1345
11
4014
21
1345
0
LINE
5
42A
100
AcDbEntity
8
container
6
ByLayer
62
256
370
-1
100
AcDbLine
10
3898
20
-993
11
4014
21
-993
0
DIMENSION
5
42B
100
AcDbEntity
8
dimension
6
ByLayer
62
256
370
-1
100
AcDbDimension
2
*D2
10
-3439.02684108
20
1396
30
0
11
-3574.27684108
21
176
31
0
70
32
71
5
72
0
3
Standard
53
0
210
0
220
0
230
1
100
AcDbAlignedDimension
13
-2044
23
-1044
33
0
14
-2044
24
1396
34
0
50
90
100
AcDbRotatedDimension
0
DIMENSION
5
42C
100
AcDbEntity
8
dimension
6
ByLayer
62
256
370
-1
100
AcDbDimension
2
*D3
10
4014
20
-2167.15534407
30
0
11
985
21
-2031.90534407
31
0
70
32
71
5
72
0
3
Standard
53
0
210
0
220
0
230
1
100
AcDbAlignedDimension
13
-2044
23
-1044
33
0
14
4014
24
-1044
34
0
100
AcDbRotatedDimension
0
LINE
5
42D
100
AcDbEntity
8
dimension
6
ByLayer
62
256
370
-1
100
AcDbLine
10
1090
20
-1320.60598693
11
3898
21
-1320.60598693
0
SOLID
5
42E
100
AcDbEntity
8
dimension
6
ByLayer
62
256
370
-1
100
AcDbTrace
10
1090
20
-1320.60598693
30
0
11
1190.5
21
-1303.87134368
31
0
12
1190.5
22
-1337.34063017
32
0
13
1190.5
23
-1337.34063017
33
0
0
SOLID
5
42F
100
AcDbEntity
8
dimension
6
ByLayer
62
256
370
-1
100
AcDbTrace
10
3898
20
-1320.60598693
30
0
11
3797.5
21
-1337.34063017
31
0
12
3797.5
22
-1303.87134368
32
0
13
3797.5
23
-1303.87134368
33
0
0
MTEXT
5
430
100
AcDbEntity
8
dimension
6
ByLayer
62
256
370
-1
100
AcDbMText
10
2494
20
-1185.35598693
30
0
40
150
41
416.666666667
71
5
72
1
1
2808
7
standard
210
0
220
0
230
1
50
0
73
2
44
1
0
LINE
5
431
100
AcDbEntity
8
dimension
6
ByBlock
62
256
370
-1
100
AcDbLine
10
1090
20
-1094
11
1090
21
-1320.60598693
0
LINE
5
432
100
AcDbEntity
8
dimension
6
ByLayer
62
256
370
53
100
AcDbLine
10
-2000
20
-1643.13007645
11
3898
21
-1643.13007645
0
SOLID
5
433
100
AcDbEntity
8
dimension
6
ByLayer
62
256
370
53
100
AcDbTrace
10
-2000
20
-1643.13007645
30
0
11
-1899.5
21
-1626.39543321
31
0
12
-1899.5
22
-1659.86471969
32
0
13
-1899.5
23
-1659.86471969
33
0
0
SOLID
5
434
100
AcDbEntity
8
dimension
6
ByLayer
62
256
370
53
100
AcDbTrace
10
3898
20
-1643.13007645
30
0
11
3797.5
21
-1659.86471969
31
0
12
3797.5
22
-1626.39543321
32
0
13
3797.5
23
-1626.39543321
33
0
0
MTEXT
5
435
100
AcDbEntity
8
dimension
6
ByLayer
62
256
370
53
100
AcDbMText
10
949
20
-1507.88007645
30
0
40
150
41
416.666666667
71
5
72
1
1
5898
7
standard
210
0
220
0
230
1
50
0
73
2
44
1
0
LINE
5
436
100
AcDbEntity
8
dimension
6
ByLayer
62
256
370
53
100
AcDbLine
10
3898
20
-1094
11
3898
21
-1763.63007645
0
LINE
5
437
100
AcDbEntity
8
dimension
6
ByLayer
62
256
370
53
100
AcDbLine
10
-2000
20
-1094
11
-2000
21
-1763.63007645
0
LINE
5
438
100
AcDbEntity
8
cabinates
6
ByLayer
62
256
370
-1
100
AcDbLine
10
1630
20
-410
11
1630
21
762
0
SOLID
5
439
100
AcDbEntity
8
dimension
6
ByLayer
62
256
370
-1
100
AcDbTrace
10
-3858.99664713
20
2917.89658106
30
0
11
-3758.49664713
21
2934.6312243
31
0
12
-3758.49664713
22
2901.16193782
32
0
13
-1858.99664713
23
4561.02665751
33
0
0
SOLID
5
43A
100
AcDbEntity
8
dimension
6
ByLayer
62
256
370
-1
100
AcDbTrace
10
2039.00335287
20
5307.89658106
30
0
11
1938.50335287
21
5291.16193782
31
0
12
1938.50335287
22
5324.6312243
32
0
13
-1858.99664713
23
6951.02665751
33
0
0
LINE
5
43B
100
AcDbEntity
8
container
6
ByLayer
62
256
370
-1
100
AcDbLine
10
-2000
20
5008
11
-2000
21
7360
0
LINE
5
43C
100
AcDbEntity
8
container
6
ByLayer
62
256
370
-1
100
AcDbLine
10
-2000
20
7360
11
3898
21
7360
0
LINE
5
43D
100
AcDbEntity
8
container
6
ByLayer
62
256
370
-1
100
AcDbLine
10
-2044
20
7404
11
4014
21
7404
0
LINE
5
43E
100
AcDbEntity
8
container
6
ByLayer
62
256
370
-1
100
AcDbLine
10
-2044
20
4964
11
-2044
21
7404
0
LINE
5
43F
100
AcDbEntity
8
container
6
ByLayer
62
256
370
-1
100
AcDbLine
10
3898
20
7353
11
4014
21
7353
0
LINE
5
440
100
AcDbEntity
8
container
6
ByLayer
62
256
370
-1
100
AcDbLine
10
3898
20
5015
11
4014
21
5015
0
DIMENSION
5
441
100
AcDbEntity
8
dimension
6
ByLayer
62
256
370
-1
100
AcDbDimension
2
*D4
10
-2989.12069897
20
4964
30
0
11
-3124.37069897
21
3180
31
0
70
32
71
5
3
Standard
53
0
210
0
220
0
230
1
100
AcDbAlignedDimension
13
-2044
23
1396
33
0
14
-2044
24
4964
34
0
50
90
100
AcDbRotatedDimension
0
INSERT
5
442
100
AcDbEntity
8
eletrical
6
ByLayer
62
256
370
-1
100
AcDbBlockReference
2
outlet110HorUp-0
10
-1572.22577563
20
502.00000001
30
0
41
1
42
1
43
0
50
0
70
1
71
1
44
0
45
0
0
INSERT
5
443
100
AcDbEntity
8
doors
6
ByLayer
62
256
370
-1
100
AcDbBlockReference
2
door700VerLeft-1
10
-250
20
1277.00000001
30
0
41
1
42
1
43
0
50
0
70
1
71
1
44
0
45
0
0
INSERT
5
444
100
AcDbEntity
8
doors
6
ByLayer
62
256
370
-1
100
AcDbBlockReference
2
door800VerLeft-0
10
-250
20
427.00000001
30
0
41
1
42
1
43
0
50
0
70
1
71
1
44
0
45
0
0
INSERT
5
445
100
AcDbEntity
8
fixtures
6
ByLayer
62
256
370
-1
100
AcDbBlockReference
2
washer_Hor-1
10
503.68526873
20
-940
30
0
41
1
42
1
43
0
50
0
70
1
71
1
44
0
45
0
0
LINE
5
446
100
AcDbEntity
8
bogus
6
ByLayer
62
256
370
-1
100
AcDbLine
10
-2050
20
-1000
11
-1900
21
-1000
0
LINE
5
447
100
AcDbEntity
8
bogus
6
ByLayer
62
256
370
-1
100
AcDbLine
10
-2000
20
-1050
11
-2000
21
-900
0
INSERT
5
448
100
AcDbEntity
8
fixtures
6
ByLayer
62
256
370
-1
100
AcDbBlockReference
2
WCVerRight-2
10
-1940
20
690.77186831
30
0
41
1
42
1
43
0
50
0
70
1
71
1
44
0
45
0
0
INSERT
5
449
100
AcDbEntity
8
fixtures
6
ByLayer
62
256
370
-1
100
AcDbBlockReference
2
jtub
10
-1939.99857845
20
-567.32834859
30
0
41
1
42
1
43
0
50
0
70
1
71
1
44
0
45
0
0
LINE
5
44A
100
AcDbEntity
8
container
6
ByLayer
62
256
370
-1
100
AcDbLine
10
90
20
1352
11
-2000
21
1352
0
LINE
5
44B
100
AcDbEntity
8
container
6
ByLayer
62
256
370
-1
100
AcDbLine
10
90
20
1396
11
-2044
21
1396
0
LINE
5
44C
100
AcDbEntity
8
container
6
ByLayer
62
256
370
-1
100
AcDbLine
10
3888
20
1352
11
3898
21
1352
0
LINE
5
44D
100
AcDbEntity
8
container
6
ByLayer
62
256
370
-1
100
AcDbLine
10
3888
20
1396
11
4014
21
1396
0
DIMENSION
5
44E
100
AcDbEntity
8
dimension
6
ByLayer
62
256
370
-1
100
AcDbDimension
2
*D5
10
-2988.22902907
20
5058
30
0
11
-3123.47902907
21
6184
31
0
70
32
71
5
3
Standard
53
0
210
0
220
0
230
1
100
AcDbAlignedDimension
13
-1950
23
7310
33
0
14
-1950
24
5058
34
0
50
90
100
AcDbRotatedDimension
0
INSERT
5
44F
100
AcDbEntity
8
tatami
6
ByLayer
62
256
370
-1
100
AcDbBlockReference
2
KyotoKyomaTatamiVertical-5
10
3762
20
5229
30
0
41
1
42
1
43
0
50
0
70
1
71
1
44
1
45
1
0
INSERT
5
450
100
AcDbEntity
8
tatami
6
ByLayer
62
256
370
-1
100
AcDbBlockReference
2
KyotoKyomaTatamiVertical-5
10
1852
20
5229
30
0
41
1
42
1
43
0
50
0
70
1
71
1
44
1
45
1
0
INSERT
5
451
100
AcDbEntity
8
tatami
6
ByLayer
62
256
370
-1
100
AcDbBlockReference
2
KyotoKyomaTatamiVertical-5
10
-58
20
5229
30
0
41
1
42
1
43
0
50
0
70
1
71
1
44
1
45
1
0
INSERT
5
452
100
AcDbEntity
8
tatami
6
ByLayer
62
256
370
-1
100
AcDbBlockReference
2
KyotoKyomaTatamiHalf-2
10
-58
20
5229
30
0
41
1
42
1
43
0
50
0
70
1
71
1
44
1
45
1
0
INSERT
5
453
100
AcDbEntity
8
tatami
6
ByLayer
62
256
370
-1
100
AcDbBlockReference
2
KyotoKyomaTatamiHalf-2
10
1852
20
5229
30
0
41
1
42
1
43
0
50
0
70
1
71
1
44
1
45
1
0
INSERT
5
454
100
AcDbEntity
8
tatami
6
ByLayer
62
256
370
-1
100
AcDbBlockReference
2
KyotoKyomaTatamiHalf-2
10
-58
20
6184
30
0
41
1
42
1
43
0
50
0
70
1
71
1
44
1
45
1
0
INSERT
5
455
100
AcDbEntity
8
tatami
6
ByLayer
62
256
370
-1
100
AcDbBlockReference
2
KyotoKyomaTatamiHalf-2
10
1852
20
6184
30
0
41
1
42
1
43
0
50
0
70
1
71
1
44
1
45
1
0
LINE
5
456
100
AcDbEntity
8
container
6
ByLayer
62
256
370
-1
100
AcDbLine
10
3898
20
7360
11
3898
21
7353
0
LINE
5
457
100
AcDbEntity
8
container
6
ByLayer
62
256
370
-1
100
AcDbLine
10
3898
20
5008
11
3898
21
5015
0
LINE
5
458
100
AcDbEntity
8
container
6
ByLayer
62
256
370
-1
100
AcDbLine
10
3898
20
1345
11
3898
21
1352
0
LINE
5
459
100
AcDbEntity
8
container
6
ByLayer
62
256
370
-1
100
AcDbLine
10
3898
20
-1000
11
3898
21
-993
0
LINE
5
45A
100
AcDbEntity
8
cabinates
6
ByLayer
62
256
370
-1
100
AcDbLine
10
2864
20
1302
11
2864
21
762
0
LINE
5
45B
100
AcDbEntity
8
cabinates
6
ByLayer
62
256
370
-1
100
AcDbLine
10
2864
20
762
11
1630
21
762
0
LINE
5
45C
100
AcDbEntity
8
cabinates
6
ByLayer
62
256
370
-1
100
AcDbLine
10
2864
20
-410
11
2864
21
-950
0
LINE
5
45D
100
AcDbEntity
8
cabinates
6
ByLayer
62
256
370
-1
100
AcDbLine
10
1630
20
-410
11
2864
21
-410
0
INSERT
5
45E
100
AcDbEntity
8
container
6
ByLayer
62
256
370
-1
100
AcDbBlockReference
2
referVerDn
10
2864
20
-950
30
0
41
-1
42
1
43
0
50
180
70
1
71
1
44
1
45
1
0
INSERT
5
45F
100
AcDbEntity
8
eletrical
6
ByLayer
62
256
370
-1
100
AcDbBlockReference
2
outlet110HorUp-0
10
2947.70315395
20
-950
30
0
41
1
42
1
43
0
50
0
70
1
71
1
44
1
45
1
0
INSERT
5
460
100
AcDbEntity
8
eletrical
6
ByLayer
62
256
370
-1
100
AcDbBlockReference
2
outlet110HorUp-0
10
1245.73823005
20
-950
30
0
41
1
42
1
43
0
50
0
70
1
71
1
44
1
45
1
0
INSERT
5
461
100
AcDbEntity
8
eletrical
6
ByLayer
62
256
370
-1
100
AcDbBlockReference
2
outlet110HorUp-0
10
1361.78953532
20
-950
30
0
41
1
42
1
43
0
50
0
70
1
71
1
44
1
45
1
0
INSERT
5
462
100
AcDbEntity
8
eletrical
6
ByLayer
62
256
370
-1
100
AcDbBlockReference
2
outlet110HorUp-0
10
-1584.8681369
20
-950
30
0
41
1
42
1
43
0
50
0
70
1
71
1
44
1
45
1
0
INSERT
5
463
100
AcDbEntity
8
eletrical
6
ByLayer
62
256
370
-1
100
AcDbBlockReference
2
outlet110HorUp-0
10
557.046265313
20
-950
30
0
41
1
42
1
43
0
50
0
70
1
71
1
44
1
45
1
0
INSERT
5
464
100
AcDbEntity
8
eletrical
6
ByLayer
62
256
370
-1
100
AcDbBlockReference
2
outlet110HorUp-0
10
670.776544481
20
-950
30
0
41
1
42
1
43
0
50
0
70
1
71
1
44
1
45
1
0
INSERT
5
465
100
AcDbEntity
8
eletrical
6
ByLayer
62
256
370
-1
100
AcDbBlockReference
2
outlet110HorUp-0
10
-874.776379473
20
5058
30
0
41
1
42
1
43
0
50
0
70
1
71
1
44
1
45
1
0
INSERT
5
466
100
AcDbEntity
8
eletrical
6
ByLayer
62
256
370
-1
100
AcDbBlockReference
2
outlet110HorUp-0
10
1735.38633985
20
5058
30
0
41
1
42
1
43
0
50
0
70
1
71
1
44
1
45
1
0
LINE
5
467
100
AcDbEntity
8
container
6
DASHED2
62
256
370
-1
100
AcDbLine
10
4014
20
7404
11
4014
21
4964
0
LINE
5
468
100
AcDbEntity
8
container
6
DASHED2
62
256
370
-1
100
AcDbLine
10
3898
20
5008
11
3898
21
7360
0
LINE
5
469
100
AcDbEntity
8
wall
6
ByLayer
62
256
370
-1
100
AcDbLine
10
-1950
20
-950
11
-1950
21
1302.00000001
0
LINE
5
46A
100
AcDbEntity
8
wall
6
ByLayer
62
256
370
-1
100
AcDbLine
10
-1950
20
502.00000001
11
-250
21
502.00000001
0
LINE
5
46B
100
AcDbEntity
8
wall
6
ByLayer
62
256
370
-1
100
AcDbLine
10
-1950
20
452.00000001
11
-250
21
452.00000001
0
LINE
5
46C
100
AcDbEntity
8
wall
6
ByLayer
62
256
370
-1
100
AcDbLine
10
1040
20
-950
11
1040
21
1302.00000001
0
LINE
5
46D
100
AcDbEntity
8
wall
6
ByLayer
62
256
370
-1
100
AcDbLine
10
1090
20
-950
11
1090
21
1302.00000001
0
LINE
5
46E
100
AcDbEntity
8
wall
6
ByLayer
62
256
370
-1
100
AcDbLine
10
-250
20
1277.00000001
11
-200
21
1277.00000001
0
LINE
5
46F
100
AcDbEntity
8
wall
6
ByLayer
62
256
370
-1
100
AcDbLine
10
-250
20
567.00000001
11
-200
21
567.00000001
0
LINE
5
470
100
AcDbEntity
8
wall
6
ByLayer
62
256
370
-1
100
AcDbLine
10
-250
20
1277.00000001
11
-250
21
1302.00000001
0
LINE
5
471
100
AcDbEntity
8
wall
6
ByLayer
62
256
370
-1
100
AcDbLine
10
-200
20
1277.00000001
11
-200
21
1302.00000001
0
LINE
5
472
100
AcDbEntity
8
wall
6
ByLayer
62
256
370
-1
100
AcDbLine
10
-250
20
427.00000001
11
-200
21
427.00000001
0
LINE
5
473
100
AcDbEntity
8
wall
6
ByLayer
62
256
370
-1
100
AcDbLine
10
-250
20
-373
11
-200
21
-373
0
LINE
5
474
100
AcDbEntity
8
wall
6
ByLayer
62
256
370
-1
100
AcDbLine
10
-200
20
427.00000001
11
-200
21
567.00000001
0
LINE
5
475
100
AcDbEntity
8
wall
6
ByLayer
62
256
370
-1
100
AcDbLine
10
-200
20
-950
11
-200
21
-373
0
LINE
5
476
100
AcDbEntity
8
wall
6
ByLayer
62
256
370
-1
100
AcDbLine
10
-250
20
-950
11
-250
21
-373
0
LINE
5
477
100
AcDbEntity
8
wall
6
ByLayer
62
256
370
-1
100
AcDbLine
10
990
20
1302.00000001
11
1040
21
1302.00000001
0
LINE
5
478
100
AcDbEntity
8
wall
6
ByLayer
62
256
370
-1
100
AcDbLine
10
-1950
20
-950
11
1040
21
-950
0
LINE
5
479
100
AcDbEntity
8
wall
6
ByLayer
62
256
370
-1
100
AcDbLine
10
990
20
1302.00000001
11
990
21
1396
0
LINE
5
47A
100
AcDbEntity
8
wall
6
ByLayer
62
256
370
-1
100
AcDbLine
10
-1950
20
5058
11
-1950
21
7310
0
LINE
5
47B
100
AcDbEntity
8
wall
6
ByLayer
62
256
370
-1
100
AcDbLine
10
-1950
20
7310
11
3864
21
7310
0
LINE
5
47C
100
AcDbEntity
8
wall
6
ByLayer
62
256
370
-1
100
AcDbLine
10
1090
20
-950
11
3864
21
-950
0
LINE
5
47D
100
AcDbEntity
8
wall
6
ByLayer
62
256
370
-1
100
AcDbLine
10
90
20
1446
11
-1994
21
1446
0
LINE
5
47E
100
AcDbEntity
8
wall
6
ByLayer
62
256
370
-1
100
AcDbLine
10
90
20
1446
11
90
21
1396
0
LINE
5
47F
100
AcDbEntity
8
wall
6
ByLayer
62
256
370
-1
100
AcDbLine
10
990
20
1396
11
990
21
1446
0
LINE
5
480
100
AcDbEntity
8
wall
6
ByLayer
62
256
370
-1
100
AcDbLine
10
3914
20
7089
11
3914
21
5279
0
LINE
5
481
100
AcDbEntity
8
wall
6
ByLayer
62
256
370
-1
100
AcDbLine
10
3864
20
7089
11
3964
21
7089
0
LINE
5
482
100
AcDbEntity
8
wall
6
ByLayer
62
256
370
-1
100
AcDbLine
10
3864
20
5279
11
3964
21
5279
0
LINE
5
483
100
AcDbEntity
8
wall
6
ByLayer
62
256
370
-1
100
AcDbLine
10
3864
20
6189
11
3964
21
6189
0
LINE
5
484
100
AcDbEntity
8
wall
6
ByLayer
62
256
370
-1
100
AcDbLine
10
3964
20
6189
11
3964
21
5015
0
LINE
5
485
100
AcDbEntity
8
wall
6
ByLayer
62
256
370
-1
100
AcDbLine
10
3864
20
7310
11
3864
21
6189
0
LINE
5
486
100
AcDbEntity
8
wall
6
ByLayer
62
256
370
-1
100
AcDbLine
10
3864
20
5279
11
3864
21
5058
0
LINE
5
487
100
AcDbEntity
8
container
6
ByLayer
62
256
370
-1
100
AcDbLine
10
90
20
1352
11
90
21
1396
0
LINE
5
488
100
AcDbEntity
8
container
6
ByLayer
62
256
370
-1
100
AcDbLine
10
990
20
1396
11
990
21
1352
0
LINE
5
489
100
AcDbEntity
8
container
6
DASHED2
62
256
370
-1
100
AcDbLine
10
4014
20
1396
11
4014
21
-1044
0
LINE
5
48A
100
AcDbEntity
8
container
6
DASHED2
62
256
370
-1
100
AcDbLine
10
3898
20
-1000
11
3898
21
1352
0
LINE
5
48B
100
AcDbEntity
8
wall
6
ByLayer
62
256
370
-1
100
AcDbLine
10
3914
20
1081
11
3914
21
-729
0
LINE
5
48C
100
AcDbEntity
8
wall
6
ByLayer
62
256
370
-1
100
AcDbLine
10
3864
20
1081
11
3964
21
1081
0
LINE
5
48D
100
AcDbEntity
8
wall
6
ByLayer
62
256
370
-1
100
AcDbLine
10
3864
20
-729
11
3964
21
-729
0
LINE
5
48E
100
AcDbEntity
8
wall
6
ByLayer
62
256
370
-1
100
AcDbLine
10
3864
20
181
11
3964
21
181
0
LINE
5
48F
100
AcDbEntity
8
wall
6
ByLayer
62
256
370
-1
100
AcDbLine
10
3964
20
181
11
3964
21
-993
0
LINE
5
490
100
AcDbEntity
8
wall
6
ByLayer
62
256
370
-1
100
AcDbLine
10
3864
20
1302
11
3864
21
181
0
LINE
5
491
100
AcDbEntity
8
wall
6
ByLayer
62
256
370
-1
100
AcDbLine
10
3864
20
-729
11
3864
21
-950
0
LINE
5
492
100
AcDbEntity
8
wall
6
ByLayer
62
256
370
-1
100
AcDbLine
10
90
20
1302.00000001
11
90
21
1352
0
LINE
5
493
100
AcDbEntity
8
wall
6
ByLayer
62
256
370
-1
100
AcDbLine
10
-200
20
1302.00000001
11
90
21
1302.00000001
0
LINE
5
494
100
AcDbEntity
8
wall
6
ByLayer
62
256
370
-1
100
AcDbLine
10
-250
20
1302.00000001
11
-1950
21
1302.00000001
0
LINE
5
495
100
AcDbEntity
8
wall
6
ByLayer
62
256
370
-1
100
AcDbLine
10
-250
20
502.00000001
11
-250
21
567.00000001
0
LINE
5
496
100
AcDbEntity
8
wall
6
ByLayer
62
256
370
-1
100
AcDbLine
10
-250
20
427.00000001
11
-250
21
452.00000001
0
LINE
5
497
100
AcDbEntity
8
wall
6
ByLayer
62
256
370
-1
100
AcDbLine
10
3314
20
5058
11
3314
21
5008
0
LINE
5
498
100
AcDbEntity
8
wall
6
ByLayer
62
256
370
-1
100
AcDbLine
10
3314
20
4914
11
3314
21
4964
0
LINE
5
499
100
AcDbEntity
8
wall
6
ByLayer
62
256
370
-1
100
AcDbLine
10
1814
20
5058
11
1814
21
5008
0
LINE
5
49A
100
AcDbEntity
8
wall
6
ByLayer
62
256
370
-1
100
AcDbLine
10
1814
20
4914
11
1814
21
4964
0
LINE
5
49B
100
AcDbEntity
8
wall
6
ByLayer
62
256
370
-1
100
AcDbLine
10
3314
20
5058
11
3864
21
5058
0
LINE
5
49C
100
AcDbEntity
8
container
6
ByLayer
62
256
370
-1
100
AcDbLine
10
3314
20
5008
11
3898
21
5008
0
LINE
5
49D
100
AcDbEntity
8
container
6
ByLayer
62
256
370
-1
100
AcDbLine
10
3314
20
4964
11
4014
21
4964
0
LINE
5
49E
100
AcDbEntity
8
wall
6
ByLayer
62
256
370
-1
100
AcDbLine
10
1814
20
5058
11
-1950
21
5058
0
LINE
5
49F
100
AcDbEntity
8
container
6
ByLayer
62
256
370
-1
100
AcDbLine
10
1814
20
5008
11
-2000
21
5008
0
LINE
5
4A0
100
AcDbEntity
8
container
6
ByLayer
62
256
370
-1
100
AcDbLine
10
1814
20
4964
11
-2044
21
4964
0
LINE
5
4A1
100
AcDbEntity
8
wall
6
ByLayer
62
256
370
-1
100
AcDbLine
10
1814
20
4914
11
-1994
21
4914
0
LINE
5
4A2
100
AcDbEntity
8
container
6
ByLayer
62
256
370
-1
100
AcDbLine
10
3314
20
4964
11
3314
21
5008
0
LINE
5
4A3
100
AcDbEntity
8
container
6
ByLayer
62
256
370
-1
100
AcDbLine
10
1814
20
4964
11
1814
21
5008
0
INSERT
5
4A4
100
AcDbEntity
8
text
6
ByLayer
62
256
370
-1
100
AcDbBlockReference
2
upArrow
10
3923.43404002
20
2739.20994332
30
0
41
1
42
1
43
0
50
0
70
1
71
1
44
0
45
0
0
LINE
5
4A5
100
AcDbEntity
8
wall
6
ByLayer
62
256
370
-1
100
AcDbLine
10
-1994
20
1796
11
-2094
21
1796
0
LINE
5
4A6
100
AcDbEntity
8
cabinates
6
ByLayer
62
256
370
-1
100
AcDbLine
10
-1494
20
1446
11
-1494
21
1746
0
LINE
5
4A7
100
AcDbEntity
8
cabinates
6
ByLayer
62
256
370
-1
100
AcDbLine
10
-1494
20
1746
11
-1994
21
1746
0
LINE
5
4A8
100
AcDbEntity
8
wall
6
ByLayer
62
256
370
-1
100
AcDbLine
10
-1994
20
2596
11
-2094
21
2596
0
LINE
5
4A9
100
AcDbEntity
8
wall
6
ByLayer
62
256
370
-1
100
AcDbLine
10
-2094
20
-1094
11
-2094
21
1796
0
LINE
5
4AA
100
AcDbEntity
8
wall
6
ByLayer
62
256
370
-1
100
AcDbLine
10
-1994
20
1446
11
-1994
21
1796
0
LINE
5
4AB
100
AcDbEntity
8
wall
6
ByLayer
62
256
370
-1
100
AcDbLine
10
-1994
20
2596
11
-1994
21
4914
0
LINE
5
4AC
100
AcDbEntity
8
wall
6
ByLayer
62
256
370
-1
100
AcDbLine
10
-2094
20
2596
11
-2094
21
7454
0
TEXT
5
4AD
100
AcDbEntity
8
text
6
ByLayer
62
256
370
-1
100
AcDbText
10
-1729.29920664
20
2127.03802417
30
0
40
200
1
Entry
50
0
41
1
51
0
7
standard
71
0
210
0
220
0
230
1
100
AcDbText
0
TEXT
5
4AE
100
AcDbEntity
8
text
6
ByLayer
62
256
370
-1
100
AcDbText
10
-1424.94254627
20
1653.21004155
30
0
40
100
1
Ikebana
50
0
41
1
51
0
7
standard
71
0
210
0
220
0
230
1
100
AcDbText
0
TEXT
5
4AF
100
AcDbEntity
8
text
6
ByLayer
62
256
370
-1
100
AcDbText
10
2448.7146969
20
135.101500519
30
0
40
200
1
Kit
50
0
41
1
51
0
7
standard
71
0
210
0
220
0
230
1
100
AcDbText
0
TEXT
5
4B0
100
AcDbEntity
8
text
6
ByLayer
62
256
370
-1
100
AcDbText
10
337.753751297
20
472.855251815
30
0
40
200
1
Bath
50
0
41
1
51
0
7
standard
71
0
210
0
220
0
230
1
100
AcDbText
0
LINE
5
4B1
100
AcDbEntity
8
wall
6
ByLayer
62
256
370
-1
100
AcDbLine
10
-1150
20
5058
11
-1150
21
7310
0
LINE
5
4B2
100
AcDbEntity
8
wall
6
ByLayer
62
256
370
-1
100
AcDbLine
10
-2094
20
-1094
11
11412
21
-1094
0
LINE
5
4B3
100
AcDbEntity
8
wall
6
ByLayer
62
256
370
-1
100
AcDbLine
10
3314
20
4914
11
6433
21
4914
0
SOLID
5
4B4
100
AcDbEntity
8
dimension
6
ByLayer
62
256
370
-1
100
AcDbTrace
10
11509.1840184
20
2917.89658106
30
0
11
11408.6840184
21
2934.6312243
31
0
12
11408.6840184
22
2901.16193782
32
0
13
9509.18401841
23
4561.02665751
33
0
0
LINE
5
4B5
100
AcDbEntity
8
container
6
ByLayer
62
256
370
-1
100
AcDbLine
10
11318
20
4898
11
11311
21
4898
0
LINE
5
4B6
100
AcDbEntity
8
wall
6
ByLayer
62
256
370
-1
100
AcDbLine
10
11412
20
7454
11
11268
21
7454
0
LINE
5
4B7
100
AcDbEntity
8
container
6
ByLayer
62
256
370
-1
100
AcDbLine
10
8966
20
221
11
11318
21
221
0
LINE
5
4B8
100
AcDbEntity
8
container
6
ByLayer
62
256
370
-1
100
AcDbLine
10
11318
20
221
11
11318
21
6119
0
LINE
5
4B9
100
AcDbEntity
8
container
6
ByLayer
62
256
370
-1
100
AcDbLine
10
11362
20
177
11
11362
21
6235
0
LINE
5
4BA
100
AcDbEntity
8
container
6
ByLayer
62
256
370
-1
100
AcDbLine
10
8922
20
177
11
11362
21
177
0
LINE
5
4BB
100
AcDbEntity
8
container
6
ByLayer
62
256
370
-1
100
AcDbLine
10
11311
20
6119
11
11311
21
6235
0
LINE
5
4BC
100
AcDbEntity
8
container
6
ByLayer
62
256
370
-1
100
AcDbLine
10
8973
20
6119
11
8973
21
6235
0
LINE
5
4BD
100
AcDbEntity
8
container
6
ByLayer
62
256
370
-1
100
AcDbLine
10
11361
20
7404
11
11311
21
7404
0
LINE
5
4BE
100
AcDbEntity
8
container
6
ByLayer
62
256
370
-1
100
AcDbLine
10
11361
20
6255
11
11361
21
7404
0
LINE
5
4BF
100
AcDbEntity
8
container
6
ByLayer
62
256
370
-1
100
AcDbLine
10
11311
20
6255
11
11311
21
7404
0
LINE
5
4C0
100
AcDbEntity
8
container
6
ByLayer
62
256
370
-1
100
AcDbLine
10
11362
20
6255
11
11311
21
6255
0
LINE
5
4C1
100
AcDbEntity
8
container
6
ByLayer
62
256
370
-1
100
AcDbLine
10
8966
20
6119
11
8973
21
6119
0
LINE
5
4C2
100
AcDbEntity
8
wall
6
ByLayer
62
256
370
-1
100
AcDbLine
10
11047
20
6185
11
11311
21
6185
0
LINE
5
4C3
100
AcDbEntity
8
wall
6
ByLayer
62
256
370
-1
100
AcDbLine
10
11047
20
6135
11
9237
21
6135
0
LINE
5
4C4
100
AcDbEntity
8
wall
6
ByLayer
62
256
370
-1
100
AcDbLine
10
11047
20
6085
11
11047
21
6185
0
LINE
5
4C5
100
AcDbEntity
8
wall
6
ByLayer
62
256
370
-1
100
AcDbLine
10
9237
20
6085
11
9237
21
6185
0
LINE
5
4C6
100
AcDbEntity
8
wall
6
ByLayer
62
256
370
-1
100
AcDbLine
10
10147
20
6085
11
10147
21
6185
0
LINE
5
4C7
100
AcDbEntity
8
wall
6
ByLayer
62
256
370
-1
100
AcDbLine
10
11268
20
6085
11
10147
21
6085
0
LINE
5
4C8
100
AcDbEntity
8
wall
6
ByLayer
62
256
370
-1
100
AcDbLine
10
9237
20
6085
11
9016
21
6085
0
LINE
5
4C9
100
AcDbEntity
8
container
6
DASHED2
62
256
370
-1
100
AcDbLine
10
11362
20
6235
11
8922
21
6235
0
LINE
5
4CA
100
AcDbEntity
8
container
6
DASHED2
62
256
370
-1
100
AcDbLine
10
8966
20
6119
11
11318
21
6119
0
INSERT
5
4CB
100
AcDbEntity
8
eletrical
6
ByLayer
62
256
370
-1
100
AcDbBlockReference
2
outlet110HorUp-0
10
9816.00000003
20
648.774224368
30
0
41
1
42
1
43
0
50
90
70
1
71
1
44
0
45
0
0
INSERT
5
4CC
100
AcDbEntity
8
doors
6
ByLayer
62
256
370
-1
100
AcDbBlockReference
2
door800VerLeft-0
10
9891.00000003
20
1971
30
0
41
1
42
1
43
0
50
90
70
1
71
1
44
0
45
0
0
INSERT
5
4CD
100
AcDbEntity
8
fixtures
6
ByLayer
62
256
370
-1
100
AcDbBlockReference
2
WCVerRight-2
10
9627.22813173
20
281
30
0
41
1
42
1
43
0
50
90
70
1
71
1
44
0
45
0
0
LINE
5
4CE
100
AcDbEntity
8
wall
6
ByLayer
62
256
370
-1
100
AcDbLine
10
9816.00000003
20
271
11
9816.00000003
21
1971
0
LINE
5
4CF
100
AcDbEntity
8
wall
6
ByLayer
62
256
370
-1
100
AcDbLine
10
9866.00000003
20
271
11
9866.00000003
21
1971
0
LINE
5
4D0
100
AcDbEntity
8
wall
6
ByLayer
62
256
370
-1
100
AcDbLine
10
9891.00000003
20
1971
11
9891.00000003
21
2021
0
LINE
5
4D1
100
AcDbEntity
8
wall
6
ByLayer
62
256
370
-1
100
AcDbLine
10
10691
20
1971
11
10691
21
2021
0
LINE
5
4D2
100
AcDbEntity
8
wall
6
ByLayer
62
256
370
-1
100
AcDbLine
10
11268
20
2021
11
10691
21
2021
0
LINE
5
4D3
100
AcDbEntity
8
wall
6
ByLayer
62
256
370
-1
100
AcDbLine
10
11268
20
1971
11
10691
21
1971
0
LINE
5
4D4
100
AcDbEntity
8
wall
6
ByLayer
62
256
370
-1
100
AcDbLine
10
9866.00000003
20
271
11
11268
21
271
0
LINE
5
4D5
100
AcDbEntity
8
wall
6
ByLayer
62
256
370
-1
100
AcDbLine
10
11268
20
1971
11
11268
21
271
0
LINE
5
4D6
100
AcDbEntity
8
wall
6
ByLayer
62
256
370
-1
100
AcDbLine
10
9891.00000003
20
1971
11
9866.00000003
21
1971
0
LINE
5
4D7
100
AcDbEntity
8
container
6
ByLayer
62
256
370
-1
100
AcDbLine
10
8922
20
2121
11
8966
21
2121
0
LINE
5
4D8
100
AcDbEntity
8
container
6
ByLayer
62
256
370
-1
100
AcDbLine
10
8922
20
2121
11
8922
21
177
0
LINE
5
4D9
100
AcDbEntity
8
container
6
ByLayer
62
256
370
-1
100
AcDbLine
10
8966
20
2121
11
8966
21
227
0
LINE
5
4DA
100
AcDbEntity
8
wall
6
ByLayer
62
256
370
-1
100
AcDbLine
10
10147
20
6185
11
9023
21
6185
0
LINE
5
4DB
100
AcDbEntity
8
wall
6
ByLayer
62
256
370
-1
100
AcDbLine
10
9016
20
271
11
9816.00000003
21
271
0
LINE
5
4DC
100
AcDbEntity
8
wall
6
ByLayer
62
256
370
-1
100
AcDbLine
10
9016
20
2121
11
8966
21
2121
0
LINE
5
4DD
100
AcDbEntity
8
wall
6
ByLayer
62
256
370
-1
100
AcDbLine
10
9041
20
2021
11
9041
21
1971
0
LINE
5
4DE
100
AcDbEntity
8
wall
6
ByLayer
62
256
370
-1
100
AcDbLine
10
9041
20
2021
11
9016
21
2021
0
LINE
5
4DF
100
AcDbEntity
8
wall
6
ByLayer
62
256
370
-1
100
AcDbLine
10
9041
20
1971
11
9016
21
1971
0
INSERT
5
4E0
100
AcDbEntity
8
doors
6
ByLayer
62
256
370
-1
100
AcDbBlockReference
2
door700VerLeft-1
10
9041
20
1971
30
0
41
1
42
1
43
0
50
90
70
1
71
1
44
0
45
0
0
LINE
5
4E1
100
AcDbEntity
8
wall
6
ByLayer
62
256
370
-1
100
AcDbLine
10
9891.00000003
20
2021
11
9751.00000004
21
2021
0
LINE
5
4E2
100
AcDbEntity
8
wall
6
ByLayer
62
256
370
-1
100
AcDbLine
10
9816.00000003
20
1971
11
9751.00000004
21
1971
0
LINE
5
4E3
100
AcDbEntity
8
wall
6
ByLayer
62
256
370
-1
100
AcDbLine
10
9751.00000004
20
1971
11
9751.00000004
21
2021
0
LINE
5
4E4
100
AcDbEntity
8
wall
6
ByLayer
62
256
370
-1
100
AcDbLine
10
9016
20
1971
11
9016
21
271
0
LINE
5
4E5
100
AcDbEntity
8
wall
6
ByLayer
62
256
370
-1
100
AcDbLine
10
9016
20
2021
11
9016
21
2121
0
LINE
5
4E6
100
AcDbEntity
8
wall
6
ByLayer
62
256
370
-1
100
AcDbLine
10
11268
20
3071
11
11268
21
7454
0
LINE
5
4E7
100
AcDbEntity
8
wall
6
ByLayer
62
256
370
-1
100
AcDbLine
10
11268
20
3021
11
11268
21
2021
0
LINE
5
4E8
100
AcDbEntity
8
wall
6
ByLayer
62
256
370
-1
100
AcDbLine
10
9016
20
5771
11
9016
21
6119
0
LINE
5
4E9
100
AcDbEntity
8
container
6
ByLayer
62
256
370
-1
100
AcDbLine
10
8966
20
5771
11
8966
21
6119
0
LINE
5
4EA
100
AcDbEntity
8
container
6
ByLayer
62
256
370
-1
100
AcDbLine
10
8922
20
5771
11
8922
21
6235
0
LINE
5
4EB
100
AcDbEntity
8
wall
6
ByLayer
62
256
370
-1
100
AcDbLine
10
9016
20
5771
11
8966
21
5771
0
LINE
5
4EC
100
AcDbEntity
8
wall
6
ByLayer
62
256
370
-1
100
AcDbLine
10
9016
20
5771
11
8966
21
5771
0
LINE
5
4ED
100
AcDbEntity
8
container
6
ByLayer
62
256
370
-1
100
AcDbLine
10
8966
20
5771
11
8922
21
5771
0
LINE
5
4EE
100
AcDbEntity
8
wall
6
ByLayer
62
256
370
-1
100
AcDbLine
10
6583
20
7454
11
6433
21
7454
0
LINE
5
4EF
100
AcDbEntity
8
container
6
ByLayer
62
256
370
-1
100
AcDbLine
10
8871
20
6119
11
8871
21
6235
0
LINE
5
4F0
100
AcDbEntity
8
container
6
ByLayer
62
256
370
-1
100
AcDbLine
10
6533
20
6119
11
6533
21
6235
0
LINE
5
4F1
100
AcDbEntity
8
container
6
ByLayer
62
256
370
-1
100
AcDbLine
10
6483
20
7404
11
6533
21
7404
0
LINE
5
4F2
100
AcDbEntity
8
container
6
ByLayer
62
256
370
-1
100
AcDbLine
10
6533
20
6255
11
6533
21
7404
0
LINE
5
4F3
100
AcDbEntity
8
container
6
ByLayer
62
256
370
-1
100
AcDbLine
10
6483
20
6255
11
6483
21
7404
0
LINE
5
4F4
100
AcDbEntity
8
container
6
ByLayer
62
256
370
-1
100
AcDbLine
10
6483
20
6255
11
6533
21
6255
0
LINE
5
4F5
100
AcDbEntity
8
container
6
ByLayer
62
256
370
-1
100
AcDbLine
10
8878
20
6119
11
8871
21
6119
0
LINE
5
4F6
100
AcDbEntity
8
container
6
ByLayer
62
256
370
-1
100
AcDbLine
10
6526
20
6119
11
6533
21
6119
0
LINE
5
4F7
100
AcDbEntity
8
wall
6
ByLayer
62
256
370
-1
100
AcDbLine
10
8607
20
6135
11
6797
21
6135
0
LINE
5
4F8
100
AcDbEntity
8
wall
6
ByLayer
62
256
370
-1
100
AcDbLine
10
8607
20
6085
11
8607
21
6185
0
LINE
5
4F9
100
AcDbEntity
8
wall
6
ByLayer
62
256
370
-1
100
AcDbLine
10
6797
20
6085
11
6797
21
6185
0
LINE
5
4FA
100
AcDbEntity
8
wall
6
ByLayer
62
256
370
-1
100
AcDbLine
10
7707
20
6085
11
7707
21
6185
0
LINE
5
4FB
100
AcDbEntity
8
wall
6
ByLayer
62
256
370
-1
100
AcDbLine
10
8828
20
6085
11
7707
21
6085
0
LINE
5
4FC
100
AcDbEntity
8
wall
6
ByLayer
62
256
370
-1
100
AcDbLine
10
6797
20
6085
11
6576
21
6085
0
LINE
5
4FD
100
AcDbEntity
8
container
6
DASHED2
62
256
370
-1
100
AcDbLine
10
8922
20
6235
11
6482
21
6235
0
LINE
5
4FE
100
AcDbEntity
8
container
6
DASHED2
62
256
370
-1
100
AcDbLine
10
6526
20
6119
11
8878
21
6119
0
LINE
5
4FF
100
AcDbEntity
8
container
6
ByLayer
62
256
370
-1
100
AcDbLine
10
8922
20
5771
11
8922
21
6235
0
LINE
5
500
100
AcDbEntity
8
container
6
ByLayer
62
256
370
-1
100
AcDbLine
10
8878
20
5771
11
8878
21
6119
0
LINE
5
501
100
AcDbEntity
8
container
6
ByLayer
62
256
370
-1
100
AcDbLine
10
8922
20
2121
11
8922
21
177
0
LINE
5
502
100
AcDbEntity
8
container
6
ByLayer
62
256
370
-1
100
AcDbLine
10
8878
20
2121
11
8878
21
221
0
LINE
5
503
100
AcDbEntity
8
wall
6
ByLayer
62
256
370
-1
100
AcDbLine
10
8878
20
2121
11
8821
21
2121
0
LINE
5
504
100
AcDbEntity
8
container
6
ByLayer
62
256
370
-1
100
AcDbLine
10
8922
20
2121
11
8878
21
2121
0
LINE
5
505
100
AcDbEntity
8
wall
6
ByLayer
62
256
370
-1
100
AcDbLine
10
8878
20
5771
11
8821
21
5771
0
LINE
5
506
100
AcDbEntity
8
container
6
ByLayer
62
256
370
-1
100
AcDbLine
10
8922
20
5771
11
8878
21
5771
0
LINE
5
507
100
AcDbEntity
8
wall
6
ByLayer
62
256
370
-1
100
AcDbLine
10
8607
20
6185
11
8821
21
6185
0
LINE
5
508
100
AcDbEntity
8
wall
6
ByLayer
62
256
370
-1
100
AcDbLine
10
8828
20
5771
11
8828
21
6085
0
LINE
5
509
100
AcDbEntity
8
wall
6
ByLayer
62
256
370
-1
100
AcDbLine
10
6583
20
6185
11
6583
21
7454
0
LINE
5
50A
100
AcDbEntity
8
wall
6
ByLayer
62
256
370
-1
100
AcDbLine
10
7707
20
6185
11
6583
21
6185
0
LINE
5
50B
100
AcDbEntity
8
wall
6
ByLayer
62
256
370
-1
100
AcDbLine
10
6576
20
271
11
6576
21
6085
0
LINE
5
50C
100
AcDbEntity
8
container
6
ByLayer
62
256
370
-1
100
AcDbLine
10
6526
20
221
11
6526
21
6119
0
LINE
5
50D
100
AcDbEntity
8
container
6
ByLayer
62
256
370
-1
100
AcDbLine
10
6482
20
177
11
6482
21
6235
0
LINE
5
50E
100
AcDbEntity
8
wall
6
ByLayer
62
256
370
-1
100
AcDbLine
10
11312
20
-994
11
11312
21
127
0
LINE
5
50F
100
AcDbEntity
8
wall
6
ByLayer
62
256
370
-1
100
AcDbLine
10
11412
20
-1094
11
11412
21
7454
0
LINE
5
510
100
AcDbEntity
8
wall
6
ByLayer
62
256
370
-1
100
AcDbLine
10
6676
20
221
11
6676
21
271
0
LINE
5
511
100
AcDbEntity
8
wall
6
ByLayer
62
256
370
-1
100
AcDbLine
10
7476
20
221
11
7476
21
271
0
LINE
5
512
100
AcDbEntity
8
wall
6
ByLayer
62
256
370
-1
100
AcDbLine
10
8021
20
2121
11
8021
21
271
0
LINE
5
513
100
AcDbEntity
8
wall
6
ByLayer
62
256
370
-1
100
AcDbLine
10
8821
20
2121
11
8021
21
2121
0
LINE
5
514
100
AcDbEntity
8
wall
6
ByLayer
62
256
370
-1
100
AcDbLine
10
8821
20
2071
11
8021
21
2071
0
LINE
5
515
100
AcDbEntity
8
wall
6
ByLayer
62
256
370
-1
100
AcDbLine
10
8821
20
2071
11
8821
21
271
0
LINE
5
516
100
AcDbEntity
8
wall
6
ByLayer
62
256
370
-1
100
AcDbLine
10
7476
20
271
11
8821
21
271
0
LINE
5
517
100
AcDbEntity
8
container
6
ByLayer
62
256
370
-1
100
AcDbLine
10
7476
20
221
11
8878
21
221
0
LINE
5
518
100
AcDbEntity
8
container
6
ByLayer
62
256
370
-1
100
AcDbLine
10
7476
20
177
11
8922
21
177
0
LINE
5
519
100
AcDbEntity
8
wall
6
ByLayer
62
256
370
-1
100
AcDbLine
10
7476
20
127
11
7476
21
177
0
LINE
5
51A
100
AcDbEntity
8
wall
6
ByLayer
62
256
370
-1
100
AcDbLine
10
6676
20
271
11
6576
21
271
0
LINE
5
51B
100
AcDbEntity
8
container
6
ByLayer
62
256
370
-1
100
AcDbLine
10
6676
20
221
11
6526
21
221
0
LINE
5
51C
100
AcDbEntity
8
container
6
ByLayer
62
256
370
-1
100
AcDbLine
10
6676
20
177
11
6482
21
177
0
LINE
5
51D
100
AcDbEntity
8
wall
6
ByLayer
62
256
370
-1
100
AcDbLine
10
6676
20
127
11
6533
21
127
0
LINE
5
51E
100
AcDbEntity
8
wall
6
ByLayer
62
256
370
-1
100
AcDbLine
10
6676
20
177
11
6676
21
127
0
LINE
5
51F
100
AcDbEntity
8
container
6
ByLayer
62
256
370
-1
100
AcDbLine
10
6676
20
177
11
6676
21
221
0
LINE
5
520
100
AcDbEntity
8
container
6
ByLayer
62
256
370
-1
100
AcDbLine
10
7476
20
177
11
7476
21
221
0
LINE
5
521
100
AcDbEntity
8
wall
6
ByLayer
62
256
370
-1
100
AcDbLine
10
7476
20
127
11
7576
21
127
0
LINE
5
522
100
AcDbEntity
8
wall
6
ByLayer
62
256
370
-1
100
AcDbLine
10
6533
20
-994
11
7576
21
-994
0
LINE
5
523
100
AcDbEntity
8
wall
6
ByLayer
62
256
370
-1
100
AcDbLine
10
7626
20
127
11
11312
21
127
0
LINE
5
524
100
AcDbEntity
8
wall
6
ByLayer
62
256
370
-1
100
AcDbLine
10
7626
20
-994
11
11312
21
-994
0
LINE
5
525
100
AcDbEntity
8
wall
6
ByLayer
62
256
370
-1
100
AcDbLine
10
6433
20
-969
11
6533
21
-969
0
LINE
5
526
100
AcDbEntity
8
wall
6
ByLayer
62
256
370
-1
100
AcDbLine
10
6433
20
-969
11
6433
21
-994
0
LINE
5
527
100
AcDbEntity
8
wall
6
ByLayer
62
256
370
-1
100
AcDbLine
10
6533
20
-969
11
6533
21
-994
0
LINE
5
528
100
AcDbEntity
8
wall
6
ByLayer
62
256
370
-1
100
AcDbLine
10
6433
20
-169
11
6533
21
-169
0
LINE
5
529
100
AcDbEntity
8
wall
6
ByLayer
62
256
370
-1
100
AcDbLine
10
6433
20
-169
11
6433
21
7454
0
LINE
5
52A
100
AcDbEntity
8
wall
6
ByLayer
62
256
370
-1
100
AcDbLine
10
6533
20
-169
11
6533
21
127
0
LINE
5
52B
100
AcDbEntity
8
wall
6
ByLayer
62
256
370
-1
100
AcDbLine
10
7576
20
-169
11
7626
21
-169
0
LINE
5
52C
100
AcDbEntity
8
wall
6
ByLayer
62
256
370
-1
100
AcDbLine
10
7576
20
-969
11
7626
21
-969
0
LINE
5
52D
100
AcDbEntity
8
wall
6
ByLayer
62
256
370
-1
100
AcDbLine
10
7626
20
-169
11
7626
21
127
0
LINE
5
52E
100
AcDbEntity
8
wall
6
ByLayer
62
256
370
-1
100
AcDbLine
10
7576
20
-169
11
7576
21
127
0
LINE
5
52F
100
AcDbEntity
8
wall
6
ByLayer
62
256
370
-1
100
AcDbLine
10
7576
20
-994
11
7576
21
-969
0
LINE
5
530
100
AcDbEntity
8
wall
6
ByLayer
62
256
370
-1
100
AcDbLine
10
7626
20
-994
11
7626
21
-969
0
LINE
5
531
100
AcDbEntity
8
wall
6
ByLayer
62
256
370
-1
100
AcDbLine
10
6
20
1446
11
6
21
2696
0
LINE
5
532
100
AcDbEntity
8
wall
6
ByLayer
62
256
370
-1
100
AcDbLine
10
6
20
2696
11
-1994
21
2696
0
TEXT
5
533
100
AcDbEntity
8
text
6
ByLayer
62
256
370
-1
100
AcDbText
10
-518.789761995
20
2310.34374008
30
0
40
200
1
UP
50
0
41
1
51
0
7
standard
71
0
210
0
220
0
230
1
100
AcDbText
0
INSERT
5
534
100
AcDbEntity
8
text
6
ByLayer
62
256
370
-1
100
AcDbBlockReference
2
upArrow
10
-712.47127314
20
2497.1080544
30
0
41
1
42
1
43
0
50
0
70
1
71
1
44
1
45
1
0
INSERT
5
535
100
AcDbEntity
8
text
6
ByLayer
62
256
370
-1
100
AcDbBlockReference
2
upArrow
10
830.063619192
20
2808.3819116
30
0
41
1
42
1
43
0
50
0
70
1
71
1
44
1
45
1
0
LINE
5
536
100
AcDbEntity
8
wall
6
ByLayer
62
256
370
-1
100
AcDbLine
10
-121.050944465
20
2412.37239328
11
228.949055535
21
2412.37239328
0
LINE
5
537
100
AcDbEntity
8
wall
6
ByLayer
62
256
370
-1
100
AcDbLine
10
228.949055535
20
2412.37239328
11
160.545026869
21
2224.43386912
0
LINE
5
538
100
AcDbEntity
8
wall
6
ByLayer
62
256
370
-1
100
AcDbLine
10
228.949055535
20
2412.37239328
11
160.545026869
21
2600.31091743
0
LINE
5
539
100
AcDbEntity
8
wall
6
ByLayer
62
256
370
-1
100
AcDbLine
10
-2094
20
7454
11
4064
21
7454
0
LINE
5
53A
100
AcDbEntity
8
wall
6
ByLayer
62
256
370
-1
100
AcDbLine
10
3964
20
7310
11
4064
21
7310
0
LINE
5
53B
100
AcDbEntity
8
wall
6
ByLayer
62
256
370
-1
100
AcDbLine
10
3964
20
7089
11
3964
21
7310
0
LINE
5
53C
100
AcDbEntity
8
wall
6
ByLayer
62
256
370
-1
100
AcDbLine
10
8821
20
6119
11
8821
21
6285
0
LINE
5
53D
100
AcDbEntity
8
wall
6
ByLayer
62
256
370
-1
100
AcDbLine
10
9023
20
6119
11
9023
21
6285
0
LINE
5
53E
100
AcDbEntity
8
wall
6
ByLayer
62
256
370
-1
100
AcDbLine
10
9023
20
6285
11
8821
21
6285
0
LINE
5
53F
100
AcDbEntity
8
wall
6
ByLayer
62
256
370
-1
100
AcDbLine
10
4064
20
7454
11
4064
21
7310
0
LINE
5
540
100
AcDbEntity
8
wall
6
ByLayer
62
256
370
-1
100
AcDbLine
10
4064
20
5014
11
6433
21
5014
0
LINE
5
541
100
AcDbEntity
8
wall
6
ByLayer
62
256
370
-1
100
AcDbLine
10
3964
20
5065
11
4064
21
5065
0
LINE
5
542
100
AcDbEntity
8
wall
6
ByLayer
62
256
370
-1
100
AcDbLine
10
4064
20
5065
11
4064
21
5014
0
TEXT
5
543
100
AcDbEntity
8
text
6
ByLayer
62
256
370
-1
100
AcDbText
10
7942.49055788
20
4485.79200944
30
0
40
200
1
Master Brd
50
0
41
1
51
0
7
standard
71
0
210
0
220
0
230
1
100
AcDbText
0
LINE
5
544
100
AcDbEntity
8
wall
6
ByLayer
62
256
370
-1
100
AcDbLine
10
1690
20
1302
11
1690
21
1352
0
LINE
5
545
100
AcDbEntity
8
container
6
ByLayer
62
256
370
-1
100
AcDbLine
10
1690
20
1352
11
1690
21
1396
0
LINE
5
546
100
AcDbEntity
8
wall
6
ByLayer
62
256
370
-1
100
AcDbLine
10
1690
20
1396
11
1690
21
1446
0
LINE
5
547
100
AcDbEntity
8
wall
6
ByLayer
62
256
370
-1
100
AcDbLine
10
3664
20
1352
11
3664
21
1302
0
LINE
5
548
100
AcDbEntity
8
container
6
ByLayer
62
256
370
-1
100
AcDbLine
10
3664
20
1352
11
3664
21
1396
0
LINE
5
549
100
AcDbEntity
8
wall
6
ByLayer
62
256
370
-1
100
AcDbLine
10
3664
20
1396
11
3664
21
1446
0
LINE
5
54A
100
AcDbEntity
8
wall
6
ByLayer
62
256
370
-1
100
AcDbLine
10
990
20
1446
11
1690
21
1446
0
LINE
5
54B
100
AcDbEntity
8
container
6
ByLayer
62
256
370
-1
100
AcDbLine
10
990
20
1396
11
1690
21
1396
0
LINE
5
54C
100
AcDbEntity
8
container
6
ByLayer
62
256
370
-1
100
AcDbLine
10
1690
20
1352
11
990
21
1352
0
LINE
5
54D
100
AcDbEntity
8
wall
6
ByLayer
62
256
370
-1
100
AcDbLine
10
1690
20
1302
11
1090
21
1302
0
LINE
5
54E
100
AcDbEntity
8
cabinates
6
ByLayer
62
256
370
-1
100
AcDbLine
10
2864
20
1302
11
1690
21
1302
0
LINE
5
54F
100
AcDbEntity
8
wall
6
ByLayer
62
256
370
-1
100
AcDbLine
10
4064
20
1446
11
4064
21
1302
0
LINE
5
550
100
AcDbEntity
8
wall
6
ByLayer
62
256
370
-1
100
AcDbLine
10
3664
20
1446
11
4064
21
1446
0
LINE
5
551
100
AcDbEntity
8
container
6
ByLayer
62
256
370
-1
100
AcDbLine
10
3814
20
1396
11
4014
21
1396
0
LINE
5
552
100
AcDbEntity
8
container
6
ByLayer
62
256
370
-1
100
AcDbLine
10
3664
20
1396
11
4014
21
1396
0
LINE
5
553
100
AcDbEntity
8
container
6
ByLayer
62
256
370
-1
100
AcDbLine
10
3664
20
1352
11
3898
21
1352
0
LINE
5
554
100
AcDbEntity
8
wall
6
ByLayer
62
256
370
-1
100
AcDbLine
10
3964
20
1081
11
3964
21
1302
0
LINE
5
555
100
AcDbEntity
8
wall
6
ByLayer
62
256
370
-1
100
AcDbLine
10
3964
20
1302
11
4064
21
1302
0
LINE
5
556
100
AcDbEntity
8
wall
6
ByLayer
62
256
370
-1
100
AcDbLine
10
3664
20
1302
11
3864
21
1302
0
LINE
5
557
100
AcDbEntity
8
wall
6
ByLayer
62
256
370
-1
100
AcDbLine
10
6433
20
-994
11
4014
21
-994
0
LINE
5
558
100
AcDbEntity
8
bogus
6
ByLayer
62
256
370
-1
100
AcDbLine
10
10728
20
2021
11
10728
21
1721
0
LINE
5
559
100
AcDbEntity
8
cabinates
6
ByLayer
62
256
370
-1
100
AcDbLine
10
10728
20
1971
11
10728
21
971
0
ELLIPSE
5
55A
100
AcDbEntity
8
fixtures
6
ByLayer
62
256
370
-1
100
AcDbEllipse
10
10998
20
1471
30
0
11
0
21
270
31
0
40
0.534855728175
41
0
42
6.28318530718
0
DIMENSION
5
55B
100
AcDbEntity
8
dimension
6
ByLayer
62
256
370
-1
100
AcDbDimension
2
*D6
10
-1150
20
7761.46076878
30
0
11
-1550
21
7896.71076878
31
0
70
32
71
5
72
0
3
Standard
53
0
210
0
220
0
230
1
100
AcDbAlignedDimension
13
-1950
23
7310
33
0
14
-1150
24
7310
34
0
100
AcDbRotatedDimension
0
ENDSEC
0
SECTION
2
OBJECTS
0
DICTIONARY
5
C
330
0
100
AcDbDictionary
281
1
3
ACAD_GROUP
350
D
0
DICTIONARY
5
D
330
C
100
AcDbDictionary
281
1
0
ENDSEC
0
EOF
