999
dxfrw 0.5.10
0
SECTION
2
HEADER
9
$ACADVER
1
AC1021
9
$HANDSEED
5
20000
9
$DWGCODEPAGE
3
ANSI_1252
9
$INSBASE
10
0
20
0
30
0
9
$EXTMIN
10
-940.928660583
20
-320.676769257
30
0
9
$EXTMAX
10
529.571339417
20
850.923230743
30
0
9
$LIMMIN
10
0
20
0
9
$LIMMAX
10
420
20
297
9
$ORTHOMODE
70
0
9
$LTSCALE
40
1
9
$TEXTSTYLE
7
STANDARD
9
$CLAYER
8
text
9
$DIMASZ
40
7.5
9
$DIMLFAC
40
1
9
$DIMSCALE
40
1
9
$DIMEXO
40
2.625
9
$DIMEXE
40
2.25
9
$DIMTXT
40
6.5
9
$DIMTSZ
40
0
9
$DIMAUNIT
70
0
9
$DIMADEC
70
2
9
$DIMLUNIT
70
2
9
$DIMSTYLE
2
STANDARD
9
$DIMGAP
40
1.625
9
$DIMTIH
70
0
9
$LUNITS
70
2
9
$LUPREC
70
4
9
$AUNITS
70
0
9
$AUPREC
70
2
9
$SPLINESEGS
70
8
9
$GRIDMODE
70
1
9
$SNAPSTYLE
70
0
9
$GRIDUNIT
10
0
20
0
9
$PINSBASE
10
0
20
0
30
0
9
$PLIMMIN
10
0
20
0
9
$PLIMMAX
10
29.7
20
21
9
$INSUNITS
70
5
9
$PSVPSCALE
40
1
0
ENDSEC
0
SECTION
2
CLASSES
0
ENDSEC
0
SECTION
2
TABLES
0
TABLE
2
VPORT
5
8
330
0
100
AcDbSymbolTable
70
1
0
VPORT
5
31
330
2
100
AcDbSymbolTableRecord
100
AcDbViewportTableRecord
2
*ACTIVE
70
0
10
0
20
0
11
1
21
1
12
361.978891306
22
733.052729629
13
0
23
0
14
10
24
10
15
10
25
10
16
0
26
0
36
1
17
0
27
0
37
0
40
1618.90056916
41
2.35280898876
42
50
43
0
44
0
50
0
51
0
71
0
72
100
73
1
74
3
75
0
76
1
77
0
78
0
281
0
65
1
110
0
120
0
130
0
111
1
121
0
131
0
112
0
122
1
132
0
79
0
146
0
348
10020
60
7
61
5
292
1
282
1
141
0
142
0
63
250
421
3358443
0
ENDTAB
0
TABLE
2
LTYPE
5
5
330
0
100
AcDbSymbolTable
70
4
0
LTYPE
5
14
330
5
100
AcDbSymbolTableRecord
100
AcDbLinetypeTableRecord
2
ByBlock
70
0
3

72
65
73
0
40
0
0
LTYPE
5
15
330
5
100
AcDbSymbolTableRecord
100
AcDbLinetypeTableRecord
2
ByLayer
70
0
3

72
65
73
0
40
0
0
LTYPE
5
16
330
5
100
AcDbSymbolTableRecord
100
AcDbLinetypeTableRecord
2
Continuous
70
0
3
Solid line
72
65
73
0
40
0
0
LTYPE
5
32
330
5
100
AcDbSymbolTableRecord
100
AcDbLinetypeTableRecord
2
DOT
70
0
3
Dot . . . . . . . . . . . . . . . . . . . . . .
72
65
73
2
40
6.35
49
0
74
0
49
-6.35
74
0
0
LTYPE
5
33
330
5
100
AcDbSymbolTableRecord
100
AcDbLinetypeTableRecord
2
DOT2
70
0
3
Dot (.5x) .....................................
72
65
73
2
40
3.175
49
0
74
0
49
-3.175
74
0
0
LTYPE
5
34
330
5
100
AcDbSymbolTableRecord
100
AcDbLinetypeTableRecord
2
DOTX2
70
0
3
Dot (2x) .  .  .  .  .  .  .  .  .  .  .  .  .
72
65
73
2
40
12.7
49
0
74
0
49
-12.7
74
0
0
LTYPE
5
35
330
5
100
AcDbSymbolTableRecord
100
AcDbLinetypeTableRecord
2
DASHED
70
0
3
Dot . . . . . . . . . . . . . . . . . . . . . .
72
65
73
2
40
19.05
49
12.7
74
0
49
-6.35
74
0
0
LTYPE
5
36
330
5
100
AcDbSymbolTableRecord
100
AcDbLinetypeTableRecord
2
DASHED2
70
0
3
Dashed (.5x) _ _ _ _ _ _ _ _ _ _ _ _ _ _ _ _ _
72
65
73
2
40
9.525
49
6.35
74
0
49
-3.175
74
0
0
LTYPE
5
37
330
5
100
AcDbSymbolTableRecord
100
AcDbLinetypeTableRecord
2
DASHEDX2
70
0
3
Dashed (2x) ____  ____  ____  ____  ____  ___
72
65
73
2
40
38.1
49
25.4
74
0
49
-12.7
74
0
0
LTYPE
5
38
330
5
100
AcDbSymbolTableRecord
100
AcDbLinetypeTableRecord
2
DASHDOT
70
0
3
Dash dot __ . __ . __ . __ . __ . __ . __ . __
72
65
73
4
40
25.4
49
12.7
74
0
49
-6.35
74
0
49
0
74
0
49
-6.35
74
0
0
LTYPE
5
39
330
5
100
AcDbSymbolTableRecord
100
AcDbLinetypeTableRecord
2
DASHDOT2
70
0
3
Dash dot (.5x) _._._._._._._._._._._._._._._.
72
65
73
4
40
12.7
49
6.35
74
0
49
-3.175
74
0
49
0
74
0
49
-3.175
74
0
0
LTYPE
5
3A
330
5
100
AcDbSymbolTableRecord
100
AcDbLinetypeTableRecord
2
DASHDOTX2
70
0
3
Dash dot (2x) ____  .  ____  .  ____  .  ___
72
65
73
4
40
50.8
49
25.4
74
0
49
-12.7
74
0
49
0
74
0
49
-12.7
74
0
0
LTYPE
5
3B
330
5
100
AcDbSymbolTableRecord
100
AcDbLinetypeTableRecord
2
DIVIDE
70
0
3
Divide ____ . . ____ . . ____ . . ____ . . ____
72
65
73
6
40
31.75
49
12.7
74
0
49
-6.35
74
0
49
0
74
0
49
-6.35
74
0
49
0
74
0
49
-6.35
74
0
0
LTYPE
5
3C
330
5
100
AcDbSymbolTableRecord
100
AcDbLinetypeTableRecord
2
DIVIDE2
70
0
3
Divide (.5x) __..__..__..__..__..__..__..__.._
72
65
73
6
40
15.875
49
6.35
74
0
49
-3.175
74
0
49
0
74
0
49
-3.175
74
0
49
0
74
0
49
-3.175
74
0
0
LTYPE
5
3D
330
5
100
AcDbSymbolTableRecord
100
AcDbLinetypeTableRecord
2
DIVIDEX2
70
0
3
Divide (2x) ________  .  .  ________  .  .  _
72
65
73
6
40
63.5
49
25.4
74
0
49
-12.7
74
0
49
0
74
0
49
-12.7
74
0
49
0
74
0
49
-12.7
74
0
0
LTYPE
5
3E
330
5
100
AcDbSymbolTableRecord
100
AcDbLinetypeTableRecord
2
BORDER
70
0
3
Border __ __ . __ __ . __ __ . __ __ . __ __ .
72
65
73
6
40
44.45
49
12.7
74
0
49
-6.35
74
0
49
12.7
74
0
49
-6.35
74
0
49
0
74
0
49
-6.35
74
0
0
LTYPE
5
3F
330
5
100
AcDbSymbolTableRecord
100
AcDbLinetypeTableRecord
2
BORDER2
70
0
3
Border (.5x) __.__.__.__.__.__.__.__.__.__.__.
72
65
73
6
40
22.225
49
6.35
74
0
49
-3.175
74
0
49
6.35
74
0
49
-3.175
74
0
49
0
74
0
49
-3.175
74
0
0
LTYPE
5
40
330
5
100
AcDbSymbolTableRecord
100
AcDbLinetypeTableRecord
2
BORDERX2
70
0
3
Border (2x) ____  ____  .  ____  ____  .  ___
72
65
73
6
40
88.9
49
25.4
74
0
49
-12.7
74
0
49
25.4
74
0
49
-12.7
74
0
49
0
74
0
49
-12.7
74
0
0
LTYPE
5
41
330
5
100
AcDbSymbolTableRecord
100
AcDbLinetypeTableRecord
2
CENTER
70
0
3
Center ____ _ ____ _ ____ _ ____ _ ____ _ ____
72
65
73
4
40
50.8
49
31.75
74
0
49
-6.35
74
0
49
6.35
74
0
49
-6.35
74
0
0
LTYPE
5
42
330
5
100
AcDbSymbolTableRecord
100
AcDbLinetypeTableRecord
2
CENTER2
70
0
3
Center (.5x) ___ _ ___ _ ___ _ ___ _ ___ _ ___
72
65
73
4
40
28.575
49
19.05
74
0
49
-3.175
74
0
49
3.175
74
0
49
-3.175
74
0
0
LTYPE
5
43
330
5
100
AcDbSymbolTableRecord
100
AcDbLinetypeTableRecord
2
CENTERX2
70
0
3
Center (2x) ________  __  ________  __  _____
72
65
73
4
40
101.6
49
63.5
74
0
49
-12.7
74
0
49
12.7
74
0
49
-12.7
74
0
0
ENDTAB
0
TABLE
2
LAYER
5
2
330
0
100
AcDbSymbolTable
70
1
0
LAYER
5
10
330
2
100
AcDbSymbolTableRecord
100
AcDbLayerTableRecord
2
0
70
0
62
7
6
CONTINUOUS
370
0
390
F
0
LAYER
5
44
330
2
100
AcDbSymbolTableRecord
100
AcDbLayerTableRecord
2
bogus
70
0
62
3
6
CONTINUOUS
370
0
390
F
0
LAYER
5
45
330
2
100
AcDbSymbolTableRecord
100
AcDbLayerTableRecord
2
dimension
70
0
62
5
6
CONTINUOUS
370
0
390
F
0
LAYER
5
46
330
2
100
AcDbSymbolTableRecord
100
AcDbLayerTableRecord
2
walls
70
0
62
7
6
CONTINUOUS
370
0
390
F
0
LAYER
5
47
330
2
100
AcDbSymbolTableRecord
100
AcDbLayerTableRecord
2
doors
70
0
62
96
420
32768
6
CONTINUOUS
370
0
390
F
0
LAYER
5
48
330
2
100
AcDbSymbolTableRecord
100
AcDbLayerTableRecord
2
text
70
0
62
2
6
CONTINUOUS
370
0
390
F
0
LAYER
5
49
330
2
100
AcDbSymbolTableRecord
100
AcDbLayerTableRecord
2
cabinates
70
0
62
96
420
32768
6
CONTINUOUS
370
0
390
F
0
LAYER
5
4A
330
2
100
AcDbSymbolTableRecord
100
AcDbLayerTableRecord
2
fixtures
70
0
62
7
6
CONTINUOUS
370
-3
390
F
0
LAYER
5
4B
330
2
100
AcDbSymbolTableRecord
100
AcDbLayerTableRecord
2
tatami182
70
0
62
6
6
CONTINUOUS
370
0
390
F
0
LAYER
5
4C
330
2
100
AcDbSymbolTableRecord
100
AcDbLayerTableRecord
2
deck
70
0
62
4
6
CONTINUOUS
370
0
390
F
0
ENDTAB
0
TABLE
2
STYLE
5
3
330
0
100
AcDbSymbolTable
70
3
0
STYLE
5
4D
330
2
100
AcDbSymbolTableRecord
100
AcDbTextStyleTableRecord
2
STANDARD
70
0
40
0
41
1
50
0
71
0
42
1
3
STANDARD
4

0
STYLE
5
4E
330
2
100
AcDbSymbolTableRecord
100
AcDbTextStyleTableRecord
2
standard
70
0
40
0
41
1
50
0
71
0
42
1
3
standard
4

0
STYLE
5
4F
330
2
100
AcDbSymbolTableRecord
100
AcDbTextStyleTableRecord
2
iso
70
0
40
0
41
1
50
0
71
0
42
1
3
iso
4

0
ENDTAB
0
TABLE
2
VIEW
5
6
330
0
100
AcDbSymbolTable
70
0
0
ENDTAB
0
TABLE
2
UCS
5
7
330
0
100
AcDbSymbolTable
70
0
0
ENDTAB
0
TABLE
2
APPID
5
9
330
0
100
AcDbSymbolTable
70
1
0
APPID
5
12
330
9
100
AcDbSymbolTableRecord
100
AcDbRegAppTableRecord
2
ACAD
70
0
0
ENDTAB
0
TABLE
2
DIMSTYLE
5
A
330
0
100
AcDbSymbolTable
70
1
100
AcDbDimStyleTable
71
1
0
DIMSTYLE
105
50
330
A
100
AcDbSymbolTableRecord
100
AcDbDimStyleTableRecord
2
Standard
70
0
40
1
41
7.5
42
2.625
43
0.38
44
2.25
45
0
46
0
47
0
48
0
140
6.5
141
0.09
142
0
143
25.4
144
1
145
0
146
1
147
1.625
148
0
71
0
72
0
73
0
74
1
75
0
76
0
77
0
78
0
79
0
170
0
171
2
172
0
173
0
174
0
175
0
176
0
177
0
178
0
179
0
271
4
272
4
273
2
274
2
275
0
276
0
277
2
278
46
279
0
280
0
281
0
282
0
283
1
284
0
285
0
286
0
288
0
289
3
340
Standard
341

371
-2
372
-2
0
ENDTAB
0
TABLE
2
BLOCK_RECORD
5
1
330
0
100
AcDbSymbolTable
70
2
0
BLOCK_RECORD
5
1F
330
1
100
AcDbSymbolTableRecord
100
AcDbBlockTableRecord
2
*Model_Space
70
0
280
1
281
0
0
BLOCK_RECORD
5
1E
330
1
100
AcDbSymbolTableRecord
100
AcDbBlockTableRecord
2
*Paper_Space
70
0
280
1
281
0
0
BLOCK_RECORD
5
51
330
1
100
AcDbSymbolTableRecord
100
AcDbBlockTableRecord
2
tatami182vert-0
70
0
280
1
281
0
0
BLOCK_RECORD
5
54
330
1
100
AcDbSymbolTableRecord
100
AcDbBlockTableRecord
2
tatami182Half-0
70
0
280
1
281
0
0
BLOCK_RECORD
5
57
330
1
100
AcDbSymbolTableRecord
100
AcDbBlockTableRecord
2
bedroomVert
70
0
280
1
281
0
0
BLOCK_RECORD
5
5A
330
1
100
AcDbSymbolTableRecord
100
AcDbBlockTableRecord
2
refer-2
70
0
280
1
281
0
0
BLOCK_RECORD
5
5D
330
1
100
AcDbSymbolTableRecord
100
AcDbBlockTableRecord
2
sink-2
70
0
280
1
281
0
0
BLOCK_RECORD
5
60
330
1
100
AcDbSymbolTableRecord
100
AcDbBlockTableRecord
2
stove-2
70
0
280
1
281
0
0
ENDTAB
0
ENDSEC
0
SECTION
2
BLOCKS
0
BLOCK
5
20
330
1F
100
AcDbEntity
8
0
100
AcDbBlockBegin
2
*Model_Space
70
0
10
0
20
0
30
0
3
*Model_Space
1

0
ENDBLK
5
21
330
1F
100
AcDbEntity
8
0
100
AcDbBlockEnd
0
BLOCK
5
1C
330
1B
100
AcDbEntity
8
0
100
AcDbBlockBegin
2
*Paper_Space
70
0
10
0
20
0
30
0
3
*Paper_Space
1

0
ENDBLK
5
1D
330
1F
100
AcDbEntity
8
0
100
AcDbBlockEnd
0
BLOCK
5
52
330
51
100
AcDbEntity
8
0
100
AcDbBlockBegin
2
tatami182vert-0
70
0
10
0
20
0
3
tatami182vert-0
1

0
LINE
5
63
100
AcDbEntity
8
tatami182
6
ByLayer
62
256
370
-1
100
AcDbLine
10
91
20
91
11
91
21
182
0
LINE
5
64
100
AcDbEntity
8
tatami182
6
ByLayer
62
256
370
-1
100
AcDbLine
10
91
20
0
11
91
21
91
0
LINE
5
65
100
AcDbEntity
8
tatami182
6
ByLayer
62
256
370
-1
100
AcDbLine
10
91
20
0
11
0
21
0
0
LINE
5
66
100
AcDbEntity
8
tatami182
6
ByLayer
62
256
370
-1
100
AcDbLine
10
0
20
0
11
0
21
182
0
LINE
5
67
100
AcDbEntity
8
tatami182
6
ByLayer
62
256
370
-1
100
AcDbLine
10
0
20
182
11
91
21
182
0
LINE
5
68
100
AcDbEntity
8
tatami182
6
ByLayer
62
256
370
-1
100
AcDbLine
10
88.5
20
91
11
88.5
21
179.5
0
LINE
5
69
100
AcDbEntity
8
tatami182
6
ByLayer
62
256
370
-1
100
AcDbLine
10
2.5
20
2.5
11
2.5
21
179.5
0
LINE
5
6A
100
AcDbEntity
8
tatami182
6
ByLayer
62
256
370
-1
100
AcDbLine
10
88.5
20
2.5
11
88.5
21
91
0
LINE
5
6B
100
AcDbEntity
8
tatami182
6
ByLayer
62
256
370
-1
100
AcDbLine
10
2.5
20
179.5
11
88.5
21
179.5
0
LINE
5
6C
100
AcDbEntity
8
tatami182
6
ByLayer
62
256
370
-1
100
AcDbLine
10
88.5
20
2.5
11
2.5
21
2.5
0
ENDBLK
5
53
330
51
100
AcDbEntity
8
0
100
AcDbBlockEnd
0
BLOCK
5
55
330
54
100
AcDbEntity
8
0
100
AcDbBlockBegin
2
tatami182Half-0
70
0
10
0
20
0
3
tatami182Half-0
1

0
LINE
5
6D
100
AcDbEntity
8
tatami182
6
ByLayer
62
256
370
-1
100
AcDbLine
10
91
20
0
11
91
21
182
0
LINE
5
6E
100
AcDbEntity
8
tatami182
6
ByLayer
62
256
370
-1
100
AcDbLine
10
91
20
91
11
0
21
91
0
LINE
5
6F
100
AcDbEntity
8
tatami182
6
ByLayer
62
256
370
-1
100
AcDbLine
10
91
20
0
11
0
21
0
0
LINE
5
70
100
AcDbEntity
8
tatami182
6
ByLayer
62
256
370
-1
100
AcDbLine
10
0
20
0
11
0
21
91
0
LINE
5
71
100
AcDbEntity
8
tatami182
6
ByLayer
62
256
370
-1
100
AcDbLine
10
88.5
20
88.5
11
88.5
21
2.5
0
LINE
5
72
100
AcDbEntity
8
tatami182
6
ByLayer
62
256
370
-1
100
AcDbLine
10
2.5
20
2.5
11
2.5
21
88.5
0
LINE
5
73
100
AcDbEntity
8
tatami182
6
ByLayer
62
256
370
-1
100
AcDbLine
10
88.5
20
88.5
11
2.5
21
88.5
0
LINE
5
74
100
AcDbEntity
8
tatami182
6
ByLayer
62
256
370
-1
100
AcDbLine
10
88.5
20
2.5
11
2.5
21
2.5
0
ENDBLK
5
56
330
54
100
AcDbEntity
8
0
100
AcDbBlockEnd
0
BLOCK
5
58
330
57
100
AcDbEntity
8
0
100
AcDbBlockBegin
2
bedroomVert
70
0
10
0
20
0
3
bedroomVert
1

0
LINE
5
75
100
AcDbEntity
8
0
6
ByLayer
62
256
370
-1
100
AcDbLine
10
0
20
0
11
1.13686837722e-13
21
609.6
0
LINE
5
76
100
AcDbEntity
8
0
6
ByLayer
62
256
370
-1
100
AcDbLine
10
0
20
0
11
-243.8
21
0
0
LINE
5
77
100
AcDbEntity
8
0
6
ByLayer
62
256
370
-1
100
AcDbLine
10
1.13686837722e-13
20
609.6
11
-243.8
21
609.6
0
LINE
5
78
100
AcDbEntity
8
0
6
ByLayer
62
256
370
-1
100
AcDbLine
10
-243.8
20
0
11
-243.8
21
609.6
0
LINE
5
79
100
AcDbEntity
8
0
6
ByLayer
62
256
370
-1
100
AcDbLine
10
-239.4
20
4.4
11
-239.4
21
609.6
0
LINE
5
7A
100
AcDbEntity
8
0
6
ByLayer
62
256
370
-1
100
AcDbLine
10
-4.4
20
4.4
11
-4.4
21
609.6
0
LINE
5
7B
100
AcDbEntity
8
0
6
ByLayer
62
256
370
-1
100
AcDbLine
10
-4.4
20
4.4
11
-239.4
21
4.4
0
LINE
5
7C
100
AcDbEntity
8
0
6
ByLayer
62
256
370
-1
100
AcDbLine
10
-243.8
20
611.6
11
-243.8
21
728.6
0
LINE
5
7D
100
AcDbEntity
8
0
6
ByLayer
62
256
370
-1
100
AcDbLine
10
-239.8
20
611.6
11
-239.8
21
728.6
0
LINE
5
7E
100
AcDbEntity
8
0
6
ByLayer
62
256
370
-1
100
AcDbLine
10
1.13686837722e-13
20
611.6
11
1.13686837722e-13
21
728.6
0
LINE
5
7F
100
AcDbEntity
8
0
6
ByLayer
62
256
370
-1
100
AcDbLine
10
-4
20
611.6
11
-4
21
728.6
0
LINE
5
80
100
AcDbEntity
8
0
6
ByLayer
62
256
370
-1
100
AcDbLine
10
-243.8
20
728.6
11
-239.8
21
728.6
0
LINE
5
81
100
AcDbEntity
8
0
6
ByLayer
62
256
370
-1
100
AcDbLine
10
-243.8
20
611.6
11
-239.8
21
611.6
0
LINE
5
82
100
AcDbEntity
8
0
6
ByLayer
62
256
370
-1
100
AcDbLine
10
1.13686837722e-13
20
728.6
11
-4
21
728.6
0
LINE
5
83
100
AcDbEntity
8
0
6
ByLayer
62
256
370
-1
100
AcDbLine
10
-4.4
20
593.6
11
-239.4
21
593.6
0
LINE
5
84
100
AcDbEntity
8
walls
6
ByLayer
62
256
370
-1
100
AcDbLine
10
-234.4
20
9.4
11
-234.4
21
609.6
0
LINE
5
85
100
AcDbEntity
8
walls
6
ByLayer
62
256
370
-1
100
AcDbLine
10
-9.4
20
9.4
11
-9.4
21
609.6
0
LINE
5
86
100
AcDbEntity
8
walls
6
ByLayer
62
256
370
-1
100
AcDbLine
10
-9.4
20
9.4
11
-234.4
21
9.4
0
LINE
5
87
100
AcDbEntity
8
doors
6
ByLayer
62
256
370
-1
100
AcDbLine
10
-234.4
20
599.6
11
-234.4
21
604.6
0
LINE
5
88
100
AcDbEntity
8
doors
6
ByLayer
62
256
370
-1
100
AcDbLine
10
-234.4
20
604.6
11
-121.9
21
604.6
0
LINE
5
89
100
AcDbEntity
8
doors
6
ByLayer
62
256
370
-1
100
AcDbLine
10
-121.9
20
604.6
11
-121.9
21
599.6
0
LINE
5
8A
100
AcDbEntity
8
doors
6
ByLayer
62
256
370
-1
100
AcDbLine
10
-121.9
20
599.6
11
-234.4
21
599.6
0
LINE
5
8B
100
AcDbEntity
8
doors
6
ByLayer
62
256
370
-1
100
AcDbLine
10
-121.9
20
599.6
11
-121.9
21
594.6
0
LINE
5
8C
100
AcDbEntity
8
doors
6
ByLayer
62
256
370
-1
100
AcDbLine
10
-121.9
20
594.6
11
-9.4
21
594.6
0
LINE
5
8D
100
AcDbEntity
8
doors
6
ByLayer
62
256
370
-1
100
AcDbLine
10
-9.4
20
594.6
11
-9.4
21
599.6
0
LINE
5
8E
100
AcDbEntity
8
doors
6
ByLayer
62
256
370
-1
100
AcDbLine
10
-9.4
20
599.6
11
-121.9
21
599.6
0
LINE
5
8F
100
AcDbEntity
8
cabinates
6
ByLayer
62
256
370
-1
100
AcDbLine
10
-9.4
20
89.4
11
-234.4
21
89.4
0
LINE
5
90
100
AcDbEntity
8
doors
6
ByLayer
62
256
370
-1
100
AcDbLine
10
-234.4
20
92.9
11
-234.4
21
95.4
0
LINE
5
91
100
AcDbEntity
8
doors
6
ByLayer
62
256
370
-1
100
AcDbLine
10
-234.4
20
95.4
11
-121.9
21
95.4
0
LINE
5
92
100
AcDbEntity
8
doors
6
ByLayer
62
256
370
-1
100
AcDbLine
10
-121.9
20
95.4
11
-121.9
21
92.9
0
LINE
5
93
100
AcDbEntity
8
doors
6
ByLayer
62
256
370
-1
100
AcDbLine
10
-121.9
20
92.9
11
-234.4
21
92.9
0
LINE
5
94
100
AcDbEntity
8
doors
6
ByLayer
62
256
370
-1
100
AcDbLine
10
-121.9
20
92.4
11
-121.9
21
89.9
0
LINE
5
95
100
AcDbEntity
8
doors
6
ByLayer
62
256
370
-1
100
AcDbLine
10
-121.9
20
89.9
11
-9.4
21
89.9
0
LINE
5
96
100
AcDbEntity
8
doors
6
ByLayer
62
256
370
-1
100
AcDbLine
10
-9.4
20
89.9
11
-9.4
21
92.4
0
LINE
5
97
100
AcDbEntity
8
doors
6
ByLayer
62
256
370
-1
100
AcDbLine
10
-9.4
20
92.4
11
-121.9
21
92.4
0
LINE
5
98
100
AcDbEntity
8
cabinates
6
ByLayer
62
256
370
-1
100
AcDbLine
10
-9.4
20
79.4
11
-234.4
21
79.4
0
MTEXT
5
99
100
AcDbEntity
8
text
6
ByLayer
62
256
370
-1
100
AcDbMText
10
-186.079101563
20
18.125
30
0
40
5
41
59.1666718095
71
1
72
1
1
closet for futons
7
standard
210
0
220
0
230
1
50
90
73
2
44
1
0
LINE
5
9A
100
AcDbEntity
8
tatami182
6
ByLayer
62
256
370
-1
100
AcDbLine
10
-212.9
20
571.9
11
-30.9
21
571.9
0
LINE
5
9B
100
AcDbEntity
8
tatami182
6
ByLayer
62
256
370
-1
100
AcDbLine
10
-30.9
20
571.9
11
-30.9
21
480.9
0
LINE
5
9C
100
AcDbEntity
8
tatami182
6
ByLayer
62
256
370
-1
100
AcDbLine
10
-212.9
20
480.9
11
-212.9
21
571.9
0
LINE
5
9D
100
AcDbEntity
8
tatami182
6
ByLayer
62
256
370
-1
100
AcDbLine
10
-212.9
20
480.9
11
-121.9
21
480.9
0
LINE
5
9E
100
AcDbEntity
8
tatami182
6
ByLayer
62
256
370
-1
100
AcDbLine
10
-121.9
20
389.9
11
-212.9
21
389.9
0
LINE
5
9F
100
AcDbEntity
8
tatami182
6
ByLayer
62
256
370
-1
100
AcDbLine
10
-212.9
20
389.9
11
-212.9
21
480.9
0
LINE
5
A0
100
AcDbEntity
8
tatami182
6
ByLayer
62
256
370
-1
100
AcDbLine
10
-121.9
20
480.9
11
-30.9
21
480.9
0
LINE
5
A1
100
AcDbEntity
8
tatami182
6
ByLayer
62
256
370
-1
100
AcDbLine
10
-121.9
20
389.9
11
-121.9
21
480.9
0
LINE
5
A2
100
AcDbEntity
8
tatami182
6
ByLayer
62
256
370
-1
100
AcDbLine
10
-212.9
20
389.9
11
-30.9
21
389.9
0
LINE
5
A3
100
AcDbEntity
8
tatami182
6
ByLayer
62
256
370
-1
100
AcDbLine
10
-30.9
20
389.9
11
-30.9
21
298.9
0
LINE
5
A4
100
AcDbEntity
8
tatami182
6
ByLayer
62
256
370
-1
100
AcDbLine
10
-30.9
20
298.9
11
-212.9
21
298.9
0
LINE
5
A5
100
AcDbEntity
8
tatami182
6
ByLayer
62
256
370
-1
100
AcDbLine
10
-212.9
20
298.9
11
-212.9
21
389.9
0
LINE
5
A6
100
AcDbEntity
8
tatami182
6
ByLayer
62
256
370
-1
100
AcDbLine
10
-212.9
20
298.9
11
-121.9
21
298.9
0
LINE
5
A7
100
AcDbEntity
8
tatami182
6
ByLayer
62
256
370
-1
100
AcDbLine
10
-121.9
20
298.9
11
-121.9
21
207.9
0
LINE
5
A8
100
AcDbEntity
8
tatami182
6
ByLayer
62
256
370
-1
100
AcDbLine
10
-212.9
20
207.9
11
-212.9
21
298.9
0
LINE
5
A9
100
AcDbEntity
8
tatami182
6
ByLayer
62
256
370
-1
100
AcDbLine
10
-121.9
20
207.9
11
-121.9
21
298.9
0
LINE
5
AA
100
AcDbEntity
8
tatami182
6
ByLayer
62
256
370
-1
100
AcDbLine
10
-121.9
20
298.9
11
-30.9
21
298.9
0
LINE
5
AB
100
AcDbEntity
8
tatami182
6
ByLayer
62
256
370
-1
100
AcDbLine
10
-30.9
20
298.9
11
-30.9
21
207.9
0
LINE
5
AC
100
AcDbEntity
8
tatami182
6
ByLayer
62
256
370
-1
100
AcDbLine
10
-212.9
20
207.9
11
-30.9
21
207.9
0
LINE
5
AD
100
AcDbEntity
8
tatami182
6
ByLayer
62
256
370
-1
100
AcDbLine
10
-121.9
20
387.4
11
-210.4
21
387.4
0
LINE
5
AE
100
AcDbEntity
8
tatami182
6
ByLayer
62
256
370
-1
100
AcDbLine
10
-33.4
20
301.4
11
-210.4
21
301.4
0
LINE
5
AF
100
AcDbEntity
8
tatami182
6
ByLayer
62
256
370
-1
100
AcDbLine
10
-33.4
20
387.4
11
-121.9
21
387.4
0
LINE
5
B0
100
AcDbEntity
8
tatami182
6
ByLayer
62
256
370
-1
100
AcDbLine
10
-33.4
20
483.4
11
-210.4
21
483.4
0
LINE
5
B1
100
AcDbEntity
8
tatami182
6
ByLayer
62
256
370
-1
100
AcDbLine
10
-210.4
20
569.4
11
-33.4
21
569.4
0
LINE
5
B2
100
AcDbEntity
8
tatami182
6
ByLayer
62
256
370
-1
100
AcDbLine
10
-33.4
20
569.4
11
-33.4
21
483.4
0
LINE
5
B3
100
AcDbEntity
8
tatami182
6
ByLayer
62
256
370
-1
100
AcDbLine
10
-210.4
20
483.4
11
-210.4
21
569.4
0
LINE
5
B4
100
AcDbEntity
8
tatami182
6
ByLayer
62
256
370
-1
100
AcDbLine
10
-124.4
20
392.4
11
-210.4
21
392.4
0
LINE
5
B5
100
AcDbEntity
8
tatami182
6
ByLayer
62
256
370
-1
100
AcDbLine
10
-124.4
20
478.4
11
-210.4
21
478.4
0
LINE
5
B6
100
AcDbEntity
8
tatami182
6
ByLayer
62
256
370
-1
100
AcDbLine
10
-124.4
20
478.4
11
-124.4
21
392.4
0
LINE
5
B7
100
AcDbEntity
8
tatami182
6
ByLayer
62
256
370
-1
100
AcDbLine
10
-33.4
20
387.4
11
-33.4
21
301.4
0
LINE
5
B8
100
AcDbEntity
8
tatami182
6
ByLayer
62
256
370
-1
100
AcDbLine
10
-210.4
20
392.4
11
-210.4
21
478.4
0
LINE
5
B9
100
AcDbEntity
8
tatami182
6
ByLayer
62
256
370
-1
100
AcDbLine
10
-210.4
20
301.4
11
-210.4
21
387.4
0
LINE
5
BA
100
AcDbEntity
8
tatami182
6
ByLayer
62
256
370
-1
100
AcDbLine
10
-124.4
20
296.4
11
-210.4
21
296.4
0
LINE
5
BB
100
AcDbEntity
8
tatami182
6
ByLayer
62
256
370
-1
100
AcDbLine
10
-119.4
20
296.4
11
-33.4
21
296.4
0
LINE
5
BC
100
AcDbEntity
8
tatami182
6
ByLayer
62
256
370
-1
100
AcDbLine
10
-33.4
20
296.4
11
-33.4
21
210.4
0
LINE
5
BD
100
AcDbEntity
8
tatami182
6
ByLayer
62
256
370
-1
100
AcDbLine
10
-119.4
20
296.4
11
-119.4
21
210.4
0
LINE
5
BE
100
AcDbEntity
8
tatami182
6
ByLayer
62
256
370
-1
100
AcDbLine
10
-124.4
20
296.4
11
-124.4
21
210.4
0
LINE
5
BF
100
AcDbEntity
8
tatami182
6
ByLayer
62
256
370
-1
100
AcDbLine
10
-124.4
20
210.4
11
-210.4
21
210.4
0
LINE
5
C0
100
AcDbEntity
8
tatami182
6
ByLayer
62
256
370
-1
100
AcDbLine
10
-33.4
20
210.4
11
-119.4
21
210.4
0
LINE
5
C1
100
AcDbEntity
8
tatami182
6
ByLayer
62
256
370
-1
100
AcDbLine
10
-210.4
20
210.4
11
-210.4
21
296.4
0
INSERT
5
C2
100
AcDbEntity
8
tatami182
6
ByLayer
62
256
370
-1
100
AcDbBlockReference
2
tatami182vert-0
10
-30.9
20
116.9
30
0
41
1
42
1
43
0
50
90
70
1
71
1
44
0
45
0
0
INSERT
5
C3
100
AcDbEntity
8
tatami182
6
ByLayer
62
256
370
-1
100
AcDbBlockReference
2
tatami182Half-0
10
-30.9
20
389.9
30
0
41
1
42
1
43
0
50
90
70
1
71
1
44
0
45
0
0
ENDBLK
5
59
330
57
100
AcDbEntity
8
0
100
AcDbBlockEnd
0
BLOCK
5
5B
330
5A
100
AcDbEntity
8
0
100
AcDbBlockBegin
2
refer-2
70
0
10
0
20
0
3
refer-2
1

0
LINE
5
C4
100
AcDbEntity
8
fixtures
6
ByLayer
62
256
370
-1
100
AcDbLine
10
0
20
0
11
0
21
-55
0
LINE
5
C5
100
AcDbEntity
8
fixtures
6
ByLayer
62
256
370
-1
100
AcDbLine
10
-60
20
0
11
-60
21
-55
0
LINE
5
C6
100
AcDbEntity
8
fixtures
6
ByLayer
62
256
370
-1
100
AcDbLine
10
0
20
-50
11
-60
21
-50
0
LINE
5
C7
100
AcDbEntity
8
fixtures
6
ByLayer
62
256
370
-1
100
AcDbLine
10
0
20
0
11
-60
21
0
0
ARC
5
C8
100
AcDbEntity
8
fixtures
6
ByLayer
62
256
370
-1
100
AcDbCircle
10
-30
20
68.9692211372
40
127.54751189
100
AcDbArc
50
256.396206231
51
283.603793769
0
LINE
5
C9
100
AcDbEntity
8
fixtures
6
ByLayer
62
256
370
-1
100
AcDbLine
10
0
20
-51
11
-60
21
-51
0
MTEXT
5
CA
100
AcDbEntity
8
fixtures
6
ByLayer
62
256
370
-1
100
AcDbMText
10
-57.2722082099
20
-19.3598590569
30
0
40
20
41
53.3333333333
71
4
72
5
1
Refr
7
iso
210
0
220
0
230
1
50
360
73
1
44
0.96
0
ENDBLK
5
5C
330
5A
100
AcDbEntity
8
0
100
AcDbBlockEnd
0
BLOCK
5
5E
330
5D
100
AcDbEntity
8
0
100
AcDbBlockBegin
2
sink-2
70
0
10
0
20
0
3
sink-2
1

0
ARC
5
CB
100
AcDbEntity
8
fixtures
6
ByLayer
62
256
370
-1
100
AcDbCircle
10
4.00260191002
20
0.99739808998
40
4.125
100
AcDbArc
50
76.0075830069
51
193.992416993
0
ARC
5
CC
100
AcDbEntity
8
fixtures
6
ByLayer
62
256
370
-1
100
AcDbCircle
10
30.99739809
20
0.99739808998
40
4.125
100
AcDbArc
50
346.007583007
51
103.992416993
0
ARC
5
CD
100
AcDbEntity
8
fixtures
6
ByLayer
62
256
370
-1
100
AcDbCircle
10
30.99739809
20
-20.99739809
40
4.125
100
AcDbArc
50
256.007583007
51
13.9924169931
0
ARC
5
CE
100
AcDbEntity
8
fixtures
6
ByLayer
62
256
370
-1
100
AcDbCircle
10
30.99739809
20
-35.00260191
40
4.125
100
AcDbArc
50
346.007583007
51
103.992416993
0
ARC
5
CF
100
AcDbEntity
8
fixtures
6
ByLayer
62
256
370
-1
100
AcDbCircle
10
4.00260191002
20
-20.99739809
40
4.125
100
AcDbArc
50
166.007583007
51
283.992416993
0
ARC
5
D0
100
AcDbEntity
8
fixtures
6
ByLayer
62
256
370
-1
100
AcDbCircle
10
4.00260191002
20
-35.00260191
40
4.125
100
AcDbArc
50
76.0075830069
51
193.992416993
0
ARC
5
D1
100
AcDbEntity
8
fixtures
6
ByLayer
62
256
370
-1
100
AcDbCircle
10
30.99739809
20
-56.99739809
40
4.125
100
AcDbArc
50
256.007583007
51
13.9924169931
0
ARC
5
D2
100
AcDbEntity
8
fixtures
6
ByLayer
62
256
370
-1
100
AcDbCircle
10
4.00260191002
20
-56.99739809
40
4.125
100
AcDbArc
50
166.007583007
51
283.992416993
0
LINE
5
D3
100
AcDbEntity
8
fixtures
6
ByLayer
62
256
370
-1
100
AcDbLine
10
30
20
-25
11
5
21
-25
0
LINE
5
D4
100
AcDbEntity
8
fixtures
6
ByLayer
62
256
370
-1
100
AcDbLine
10
5
20
5
11
30
21
5
0
LINE
5
D5
100
AcDbEntity
8
fixtures
6
ByLayer
62
256
370
-1
100
AcDbLine
10
5
20
-31
11
30
21
-31
0
LINE
5
D6
100
AcDbEntity
8
fixtures
6
ByLayer
62
256
370
-1
100
AcDbLine
10
30
20
-61
11
5
21
-61
0
LINE
5
D7
100
AcDbEntity
8
fixtures
6
ByLayer
62
256
370
-1
100
AcDbLine
10
35
20
-36
11
35
21
-56
0
LINE
5
D8
100
AcDbEntity
8
fixtures
6
ByLayer
62
256
370
-1
100
AcDbLine
10
0
20
-56
11
0
21
-36
0
LINE
5
D9
100
AcDbEntity
8
fixtures
6
ByLayer
62
256
370
-1
100
AcDbLine
10
0
20
-20
11
0
21
1.3073986338e-12
0
LINE
5
DA
100
AcDbEntity
8
fixtures
6
ByLayer
62
256
370
-1
100
AcDbLine
10
35
20
1.3073986338e-12
11
35
21
-20
0
ENDBLK
5
5F
330
5D
100
AcDbEntity
8
0
100
AcDbBlockEnd
0
BLOCK
5
61
330
60
100
AcDbEntity
8
0
100
AcDbBlockBegin
2
stove-2
70
0
10
0
20
0
3
stove-2
1

0
LINE
5
DB
100
AcDbEntity
8
fixtures
6
ByLayer
62
256
370
-1
100
AcDbLine
10
0
20
62
11
64
21
62
0
LINE
5
DC
100
AcDbEntity
8
fixtures
6
ByLayer
62
256
370
-1
100
AcDbLine
10
64
20
62
11
64
21
0
0
LINE
5
DD
100
AcDbEntity
8
fixtures
6
ByLayer
62
256
370
-1
100
AcDbLine
10
64
20
0
11
0
21
0
0
LINE
5
DE
100
AcDbEntity
8
fixtures
6
ByLayer
62
256
370
-1
100
AcDbLine
10
0
20
0
11
0
21
62
0
CIRCLE
5
DF
100
AcDbEntity
8
fixtures
6
ByLayer
62
256
370
-1
100
AcDbCircle
10
17
20
21.954456
40
10
0
CIRCLE
5
E0
100
AcDbEntity
8
fixtures
6
ByLayer
62
256
370
-1
100
AcDbCircle
10
47
20
21.954456
40
7
0
CIRCLE
5
E1
100
AcDbEntity
8
fixtures
6
ByLayer
62
256
370
-1
100
AcDbCircle
10
47
20
46.954456
40
10
0
CIRCLE
5
E2
100
AcDbEntity
8
fixtures
6
ByLayer
62
256
370
-1
100
AcDbCircle
10
17
20
46.954456
40
7
0
LINE
5
E3
100
AcDbEntity
8
fixtures
6
ByLayer
62
256
370
-1
100
AcDbLine
10
0
20
6
11
64
21
6
0
ENDBLK
5
62
330
60
100
AcDbEntity
8
0
100
AcDbBlockEnd
0
ENDSEC
0
SECTION
2
ENTITIES
0
INSERT
5
E4
100
AcDbEntity
8
0
6
ByLayer
62
256
370
-1
100
AcDbBlockReference
2
bedroomVert
10
-840.928660583
20
507.123230743
30
0
41
1
42
1
43
0
50
270
70
1
71
1
44
0
45
0
0
LINE
5
E5
100
AcDbEntity
8
0
6
ByLayer
62
256
370
-1
100
AcDbLine
10
429.571339417
20
387.123230743
11
126.671339417
21
387.123230743
0
LINE
5
E6
100
AcDbEntity
8
0
6
ByLayer
62
256
370
-1
100
AcDbLine
10
429.571339417
20
387.123230743
11
429.571339417
21
143.123230743
0
LINE
5
E7
100
AcDbEntity
8
0
6
ByLayer
62
256
370
-1
100
AcDbLine
10
429.571339417
20
143.123230743
11
126.671339417
21
143.123230743
0
LINE
5
E8
100
AcDbEntity
8
0
6
ByLayer
62
256
370
-1
100
AcDbLine
10
126.671339417
20
387.123230743
11
126.671339417
21
143.123230743
0
LINE
5
E9
100
AcDbEntity
8
0
6
ByLayer
62
256
370
-1
100
AcDbLine
10
425.171339417
20
382.723230743
11
425.171339417
21
147.523230743
0
LINE
5
EA
100
AcDbEntity
8
0
6
ByLayer
62
256
370
-1
100
AcDbLine
10
425.171339417
20
382.723230743
11
126.671339417
21
382.723230743
0
LINE
5
EB
100
AcDbEntity
8
0
6
ByLayer
62
256
370
-1
100
AcDbLine
10
425.171339417
20
147.523230743
11
126.671339417
21
147.523230743
0
LINE
5
EC
100
AcDbEntity
8
0
6
ByLayer
62
256
370
-1
100
AcDbLine
10
124.671339417
20
143.123230743
11
7.6713394165
21
143.123230743
0
LINE
5
ED
100
AcDbEntity
8
0
6
ByLayer
62
256
370
-1
100
AcDbLine
10
124.671339417
20
387.123230743
11
7.6713394165
21
387.123230743
0
LINE
5
EE
100
AcDbEntity
8
0
6
ByLayer
62
256
370
-1
100
AcDbLine
10
124.671339417
20
147.123230743
11
7.6713394165
21
147.123230743
0
LINE
5
EF
100
AcDbEntity
8
0
6
ByLayer
62
256
370
-1
100
AcDbLine
10
124.671339417
20
383.123230743
11
7.6713394165
21
383.123230743
0
LINE
5
F0
100
AcDbEntity
8
0
6
ByLayer
62
256
370
-1
100
AcDbLine
10
7.6713394165
20
143.123230743
11
7.6713394165
21
147.123230743
0
LINE
5
F1
100
AcDbEntity
8
0
6
ByLayer
62
256
370
-1
100
AcDbLine
10
124.671339417
20
143.123230743
11
124.671339417
21
147.123230743
0
LINE
5
F2
100
AcDbEntity
8
0
6
ByLayer
62
256
370
-1
100
AcDbLine
10
7.6713394165
20
387.123230743
11
7.6713394165
21
383.123230743
0
LINE
5
F3
100
AcDbEntity
8
0
6
ByLayer
62
256
370
-1
100
AcDbLine
10
124.671339417
20
387.123230743
11
124.671339417
21
383.123230743
0
LINE
5
F4
100
AcDbEntity
8
walls
6
ByLayer
62
256
370
-1
100
AcDbLine
10
420.171339417
20
152.523230743
11
126.671339417
21
152.523230743
0
LINE
5
F5
100
AcDbEntity
8
walls
6
ByLayer
62
256
370
-1
100
AcDbLine
10
420.171339417
20
377.723230743
11
126.671339417
21
377.723230743
0
LINE
5
F6
100
AcDbEntity
8
walls
6
ByLayer
62
256
370
-1
100
AcDbLine
10
420.171339417
20
377.723230743
11
420.171339417
21
152.523230743
0
LINE
5
F7
100
AcDbEntity
8
walls
6
ByLayer
62
256
370
-1
100
AcDbLine
10
260.171339417
20
341.523230743
11
255.171339417
21
341.523230743
0
LINE
5
F8
100
AcDbEntity
8
walls
6
ByLayer
62
256
370
-1
100
AcDbLine
10
255.171339417
20
341.523230743
11
255.171339417
21
377.723230743
0
LINE
5
F9
100
AcDbEntity
8
walls
6
ByLayer
62
256
370
-1
100
AcDbLine
10
260.171339417
20
341.523230743
11
260.171339417
21
377.723230743
0
LINE
5
FA
100
AcDbEntity
8
0
6
ByLayer
62
256
370
-1
100
AcDbLine
10
146.271339417
20
147.523230743
11
146.271339417
21
382.723230743
0
LINE
5
FB
100
AcDbEntity
8
walls
6
ByLayer
62
256
370
-1
100
AcDbLine
10
142.671339417
20
273.523230743
11
142.671339417
21
152.523230743
0
LINE
5
FC
100
AcDbEntity
8
walls
6
ByLayer
62
256
370
-1
100
AcDbLine
10
137.671339417
20
152.523230743
11
137.671339417
21
278.523230743
0
LINE
5
FD
100
AcDbEntity
8
walls
6
ByLayer
62
256
370
-1
100
AcDbLine
10
145.671339417
20
273.523230743
11
145.671339417
21
278.523230743
0
LINE
5
FE
100
AcDbEntity
8
walls
6
ByLayer
62
256
370
-1
100
AcDbLine
10
145.671339417
20
278.523230743
11
142.671339417
21
278.523230743
0
LINE
5
FF
100
AcDbEntity
8
walls
6
ByLayer
62
256
370
-1
100
AcDbLine
10
420.171339417
20
283.523230743
11
260.171339417
21
283.523230743
0
LINE
5
100
100
AcDbEntity
8
walls
6
ByLayer
62
256
370
-1
100
AcDbLine
10
260.171339417
20
286.523230743
11
255.171339417
21
286.523230743
0
LINE
5
101
100
AcDbEntity
8
walls
6
ByLayer
62
256
370
-1
100
AcDbLine
10
255.171339417
20
286.523230743
11
255.171339417
21
283.523230743
0
LINE
5
102
100
AcDbEntity
8
walls
6
ByLayer
62
256
370
-1
100
AcDbLine
10
260.171339417
20
286.523230743
11
260.171339417
21
283.523230743
0
LINE
5
103
100
AcDbEntity
8
doors
6
ByLayer
62
256
370
-1
100
AcDbLine
10
260.171339417
20
286.523230743
11
318.878159768
21
298.9131155
0
LINE
5
104
100
AcDbEntity
8
doors
6
ByLayer
62
256
370
-1
100
AcDbLine
10
259.655094219
20
288.969348258
11
318.36191457
21
301.359233015
0
ARC
5
105
100
AcDbEntity
8
doors
6
ByLayer
62
256
370
-1
100
AcDbCircle
10
260.171339417
20
286.523230743
40
60
100
AcDbArc
50
11.917209257
51
90
0
LINE
5
106
100
AcDbEntity
8
doors
6
ByLayer
62
256
370
-1
100
AcDbLine
10
318.878159768
20
298.9131155
11
318.31093165
21
301.348473234
0
LINE
5
107
100
AcDbEntity
8
doors
6
ByLayer
62
256
370
-1
100
AcDbLine
10
260.171339417
20
286.523230743
11
259.655094219
21
288.969348258
0
LINE
5
108
100
AcDbEntity
8
walls
6
ByLayer
62
256
370
-1
100
AcDbLine
10
137.671339417
20
278.523230743
11
142.671339417
21
278.523230743
0
LINE
5
109
100
AcDbEntity
8
walls
6
ByLayer
62
256
370
-1
100
AcDbLine
10
420.171339417
20
278.523230743
11
255.171339417
21
278.523230743
0
LINE
5
10A
100
AcDbEntity
8
walls
6
ByLayer
62
256
370
-1
100
AcDbLine
10
255.171339417
20
278.523230743
11
226.271339417
21
278.523230743
0
LINE
5
10B
100
AcDbEntity
8
walls
6
ByLayer
62
256
370
-1
100
AcDbLine
10
255.171339417
20
283.523230743
11
226.271339417
21
283.523230743
0
LINE
5
10C
100
AcDbEntity
8
walls
6
ByLayer
62
256
370
-1
100
AcDbLine
10
226.271339417
20
278.523230743
11
226.271339417
21
283.523230743
0
LINE
5
10D
100
AcDbEntity
8
doors
6
ByLayer
62
256
370
-1
100
AcDbLine
10
226.271339417
20
273.523230743
11
306.271339417
21
273.523230743
0
LINE
5
10E
100
AcDbEntity
8
doors
6
ByLayer
62
256
370
-1
100
AcDbLine
10
306.271339417
20
273.523230743
11
306.271339417
21
277.523230743
0
LINE
5
10F
100
AcDbEntity
8
doors
6
ByLayer
62
256
370
-1
100
AcDbLine
10
306.271339417
20
277.523230743
11
226.271339417
21
277.523230743
0
LINE
5
110
100
AcDbEntity
8
doors
6
ByLayer
62
256
370
-1
100
AcDbLine
10
226.271339417
20
277.523230743
11
226.271339417
21
273.523230743
0
LINE
5
111
100
AcDbEntity
8
walls
6
ByLayer
62
256
370
-1
100
AcDbLine
10
145.671339417
20
273.523230743
11
142.671339417
21
273.523230743
0
LINE
5
112
100
AcDbEntity
8
walls
6
ByLayer
62
256
370
-1
100
AcDbLine
10
137.671339417
20
278.523230743
11
137.671339417
21
283.523230743
0
LINE
5
113
100
AcDbEntity
8
walls
6
ByLayer
62
256
370
-1
100
AcDbLine
10
137.671339417
20
283.523230743
11
145.671339417
21
283.523230743
0
LINE
5
114
100
AcDbEntity
8
walls
6
ByLayer
62
256
370
-1
100
AcDbLine
10
145.671339417
20
283.523230743
11
145.671339417
21
278.523230743
0
LINE
5
115
100
AcDbEntity
8
walls
6
ByLayer
62
256
370
-1
100
AcDbLine
10
226.271339417
20
278.523230743
11
145.671339417
21
278.523230743
0
LINE
5
116
100
AcDbEntity
8
doors
6
ByLayer
62
256
370
-1
100
AcDbLine
10
131.671339417
20
286.523230743
11
131.671339417
21
186.523230743
0
LINE
5
117
100
AcDbEntity
8
doors
6
ByLayer
62
256
370
-1
100
AcDbLine
10
131.671339417
20
186.523230743
11
136.671339417
21
186.523230743
0
LINE
5
118
100
AcDbEntity
8
doors
6
ByLayer
62
256
370
-1
100
AcDbLine
10
136.671339417
20
186.523230743
11
136.671339417
21
286.523230743
0
LINE
5
119
100
AcDbEntity
8
doors
6
ByLayer
62
256
370
-1
100
AcDbLine
10
136.671339417
20
286.523230743
11
131.671339417
21
286.523230743
0
LINE
5
11A
100
AcDbEntity
8
walls
6
ByLayer
62
256
370
-1
100
AcDbLine
10
226.271339417
20
273.523230743
11
145.671339417
21
273.523230743
0
LINE
5
11B
100
AcDbEntity
8
walls
6
ByLayer
62
256
370
-1
100
AcDbLine
10
226.271339417
20
283.523230743
11
145.671339417
21
283.523230743
0
LINE
5
11C
100
AcDbEntity
8
0
6
ByLayer
62
256
370
-1
100
AcDbLine
10
-840.928660583
20
-220.676769257
11
-231.328660583
21
-220.676769257
0
LINE
5
11D
100
AcDbEntity
8
0
6
ByLayer
62
256
370
-1
100
AcDbLine
10
-840.928660583
20
-220.676769257
11
-840.928660583
21
23.1232307434
0
LINE
5
11E
100
AcDbEntity
8
0
6
ByLayer
62
256
370
-1
100
AcDbLine
10
-231.328660583
20
-220.676769257
11
-231.328660583
21
23.1232307434
0
LINE
5
11F
100
AcDbEntity
8
0
6
ByLayer
62
256
370
-1
100
AcDbLine
10
-840.928660583
20
23.1232307434
11
-231.328660583
21
23.1232307434
0
LINE
5
120
100
AcDbEntity
8
0
6
ByLayer
62
256
370
-1
100
AcDbLine
10
-836.528660583
20
18.7232307434
11
-231.328660583
21
18.7232307434
0
LINE
5
121
100
AcDbEntity
8
0
6
ByLayer
62
256
370
-1
100
AcDbLine
10
-836.528660583
20
-216.276769257
11
-231.328660583
21
-216.276769257
0
LINE
5
122
100
AcDbEntity
8
0
6
ByLayer
62
256
370
-1
100
AcDbLine
10
-836.528660583
20
-216.276769257
11
-836.528660583
21
18.7232307434
0
LINE
5
123
100
AcDbEntity
8
0
6
ByLayer
62
256
370
-1
100
AcDbLine
10
-229.328660583
20
23.1232307434
11
-112.328660583
21
23.1232307434
0
LINE
5
124
100
AcDbEntity
8
0
6
ByLayer
62
256
370
-1
100
AcDbLine
10
-229.328660583
20
19.1232307434
11
-112.328660583
21
19.1232307434
0
LINE
5
125
100
AcDbEntity
8
0
6
ByLayer
62
256
370
-1
100
AcDbLine
10
-229.328660583
20
-220.676769257
11
-112.328660583
21
-220.676769257
0
LINE
5
126
100
AcDbEntity
8
0
6
ByLayer
62
256
370
-1
100
AcDbLine
10
-229.328660583
20
-216.676769257
11
-112.328660583
21
-216.676769257
0
LINE
5
127
100
AcDbEntity
8
0
6
ByLayer
62
256
370
-1
100
AcDbLine
10
-112.328660583
20
23.1232307434
11
-112.328660583
21
19.1232307434
0
LINE
5
128
100
AcDbEntity
8
0
6
ByLayer
62
256
370
-1
100
AcDbLine
10
-229.328660583
20
23.1232307434
11
-229.328660583
21
19.1232307434
0
LINE
5
129
100
AcDbEntity
8
0
6
ByLayer
62
256
370
-1
100
AcDbLine
10
-112.328660583
20
-220.676769257
11
-112.328660583
21
-216.676769257
0
LINE
5
12A
100
AcDbEntity
8
0
6
ByLayer
62
256
370
-1
100
AcDbLine
10
-247.328660583
20
-216.276769257
11
-247.328660583
21
18.7232307434
0
LINE
5
12B
100
AcDbEntity
8
walls
6
ByLayer
62
256
370
-1
100
AcDbLine
10
-831.528660583
20
13.7232307434
11
-231.328660583
21
13.7232307434
0
LINE
5
12C
100
AcDbEntity
8
walls
6
ByLayer
62
256
370
-1
100
AcDbLine
10
-831.528660583
20
-211.276769257
11
-231.328660583
21
-211.276769257
0
LINE
5
12D
100
AcDbEntity
8
walls
6
ByLayer
62
256
370
-1
100
AcDbLine
10
-831.528660583
20
-211.276769257
11
-831.528660583
21
13.7232307434
0
LINE
5
12E
100
AcDbEntity
8
cabinates
6
ByLayer
62
256
370
-1
100
AcDbLine
10
-691.528660583
20
-211.276769257
11
-761.528660583
21
-211.276769257
0
LINE
5
12F
100
AcDbEntity
8
cabinates
6
ByLayer
62
256
370
-1
100
AcDbLine
10
-621.528660583
20
-46.2767692566
11
-621.528660583
21
13.7232307434
0
LINE
5
130
100
AcDbEntity
8
cabinates
6
ByLayer
62
256
370
-1
100
AcDbLine
10
-621.528660583
20
-151.276769257
11
-621.528660583
21
-211.276769257
0
LINE
5
131
100
AcDbEntity
8
cabinates
6
ByLayer
62
256
370
-1
100
AcDbLine
10
-771.528660583
20
-151.276769257
11
-771.528660583
21
-46.2767692566
0
INSERT
5
132
100
AcDbEntity
8
fixtures
6
ByLayer
62
256
370
-1
100
AcDbBlockReference
2
sink-2
10
-816.528660583
20
-70.7767692566
30
0
41
1
42
1
43
0
50
0
70
1
71
1
44
0
45
0
0
LINE
5
133
100
AcDbEntity
8
cabinates
6
ByLayer
62
256
370
-1
100
AcDbLine
10
-771.528660583
20
-46.2767692566
11
-751.528660583
21
-46.2767692566
0
LINE
5
134
100
AcDbEntity
8
cabinates
6
ByLayer
62
256
370
-1
100
AcDbLine
10
-681.528660583
20
-46.2767692566
11
-621.528660583
21
-46.2767692566
0
INSERT
5
135
100
AcDbEntity
8
fixtures
6
ByLayer
62
256
370
-1
100
AcDbBlockReference
2
refer-2
10
-686.528660583
20
8.72323074341
30
0
41
1
42
1
43
0
50
0
70
1
71
1
44
0
45
0
0
LINE
5
136
100
AcDbEntity
8
cabinates
6
ByLayer
62
256
370
-1
100
AcDbLine
10
-681.528660583
20
-46.2767692566
11
-681.528660583
21
13.7232307434
0
LINE
5
137
100
AcDbEntity
8
cabinates
6
ByLayer
62
256
370
-1
100
AcDbLine
10
-751.528660583
20
-46.2767692566
11
-751.528660583
21
13.7232307434
0
LINE
5
138
100
AcDbEntity
8
cabinates
6
ByLayer
62
256
370
-1
100
AcDbLine
10
-681.528660583
20
-151.276769257
11
-681.528660583
21
-211.276769257
0
LINE
5
139
100
AcDbEntity
8
cabinates
6
ByLayer
62
256
370
-1
100
AcDbLine
10
-751.528660583
20
-151.276769257
11
-751.528660583
21
-211.276769257
0
LINE
5
13A
100
AcDbEntity
8
cabinates
6
ByLayer
62
256
370
-1
100
AcDbLine
10
-761.528660583
20
-151.276769257
11
-751.528660583
21
-151.276769257
0
LINE
5
13B
100
AcDbEntity
8
cabinates
6
ByLayer
62
256
370
-1
100
AcDbLine
10
-771.528660583
20
-151.276769257
11
-751.528660583
21
-151.276769257
0
LINE
5
13C
100
AcDbEntity
8
cabinates
6
ByLayer
62
256
370
-1
100
AcDbLine
10
-681.528660583
20
-151.276769257
11
-621.528660583
21
-151.276769257
0
INSERT
5
13D
100
AcDbEntity
8
fixtures
6
ByLayer
62
256
370
-1
100
AcDbBlockReference
2
stove-2
10
-748.528660583
20
-208.276769257
30
0
41
1
42
1
43
0
50
0
70
1
71
1
44
0
45
0
0
LINE
5
13E
100
AcDbEntity
8
cabinates
6
ByLayer
62
256
370
-1
100
AcDbLine
10
-541.528660583
20
-46.2767692566
11
-541.528660583
21
13.7232307434
0
LINE
5
13F
100
AcDbEntity
8
cabinates
6
ByLayer
62
256
370
-1
100
AcDbLine
10
-621.528660583
20
-46.2767692566
11
-541.528660583
21
-46.2767692566
0
LINE
5
140
100
AcDbEntity
8
cabinates
6
ByLayer
62
256
370
-1
100
AcDbLine
10
-541.528660583
20
-151.276769257
11
-541.528660583
21
-211.276769257
0
LINE
5
141
100
AcDbEntity
8
cabinates
6
ByLayer
62
256
370
-1
100
AcDbLine
10
-621.528660583
20
-151.276769257
11
-541.528660583
21
-151.276769257
0
LINE
5
142
100
AcDbEntity
8
doors
6
ByLayer
62
256
370
-1
100
AcDbLine
10
-241.328660583
20
13.7232307434
11
-236.328660583
21
13.7232307434
0
LINE
5
143
100
AcDbEntity
8
doors
6
ByLayer
62
256
370
-1
100
AcDbLine
10
-236.328660583
20
13.7232307434
11
-236.328660583
21
-98.7767692566
0
LINE
5
144
100
AcDbEntity
8
doors
6
ByLayer
62
256
370
-1
100
AcDbLine
10
-236.328660583
20
-98.7767692566
11
-241.328660583
21
-98.7767692566
0
LINE
5
145
100
AcDbEntity
8
doors
6
ByLayer
62
256
370
-1
100
AcDbLine
10
-241.328660583
20
-98.7767692566
11
-241.328660583
21
13.7232307434
0
LINE
5
146
100
AcDbEntity
8
doors
6
ByLayer
62
256
370
-1
100
AcDbLine
10
-241.328660583
20
-98.7767692566
11
-246.328660583
21
-98.7767692566
0
LINE
5
147
100
AcDbEntity
8
doors
6
ByLayer
62
256
370
-1
100
AcDbLine
10
-246.328660583
20
-98.7767692566
11
-246.328660583
21
-211.276769257
0
LINE
5
148
100
AcDbEntity
8
doors
6
ByLayer
62
256
370
-1
100
AcDbLine
10
-246.328660583
20
-211.276769257
11
-241.328660583
21
-211.276769257
0
LINE
5
149
100
AcDbEntity
8
doors
6
ByLayer
62
256
370
-1
100
AcDbLine
10
-241.328660583
20
-211.276769257
11
-241.328660583
21
-98.7767692566
0
LINE
5
14A
100
AcDbEntity
8
deck
6
ByLayer
62
256
370
-1
100
AcDbLine
10
7.6713394165
20
850.923230743
11
-940.928660583
21
850.923230743
0
LINE
5
14B
100
AcDbEntity
8
deck
6
ByLayer
62
256
370
-1
100
AcDbLine
10
-940.928660583
20
850.923230743
11
-940.928660583
21
407.123230743
0
LINE
5
14C
100
AcDbEntity
8
deck
6
ByLayer
62
256
370
-1
100
AcDbLine
10
-940.928660583
20
407.123230743
11
-112.328660583
21
407.123230743
0
LINE
5
14D
100
AcDbEntity
8
deck
6
ByLayer
62
256
370
-1
100
AcDbLine
10
-112.328660583
20
407.123230743
11
-112.328660583
21
123.123230743
0
LINE
5
14E
100
AcDbEntity
8
deck
6
ByLayer
62
256
370
-1
100
AcDbLine
10
-112.328660583
20
123.123230743
11
-940.928660583
21
123.123230743
0
LINE
5
14F
100
AcDbEntity
8
deck
6
ByLayer
62
256
370
-1
100
AcDbLine
10
-940.928660583
20
123.123230743
11
-940.928660583
21
-320.676769257
0
LINE
5
150
100
AcDbEntity
8
deck
6
ByLayer
62
256
370
-1
100
AcDbLine
10
-940.928660583
20
-320.676769257
11
7.6713394165
21
-320.676769257
0
LINE
5
151
100
AcDbEntity
8
deck
6
ByLayer
62
256
370
-1
100
AcDbLine
10
7.6713394165
20
-320.676769257
11
7.6713394165
21
43.1232307434
0
LINE
5
152
100
AcDbEntity
8
deck
6
ByLayer
62
256
370
-1
100
AcDbLine
10
7.6713394165
20
43.1232307434
11
529.571339417
21
43.1232307434
0
LINE
5
153
100
AcDbEntity
8
deck
6
ByLayer
62
256
370
-1
100
AcDbLine
10
529.571339417
20
43.1232307434
11
529.571339417
21
487.123230743
0
LINE
5
154
100
AcDbEntity
8
deck
6
ByLayer
62
256
370
-1
100
AcDbLine
10
529.571339417
20
487.123230743
11
7.6713394165
21
487.123230743
0
LINE
5
155
100
AcDbEntity
8
deck
6
ByLayer
62
256
370
-1
100
AcDbLine
10
7.6713394165
20
487.123230743
11
7.6713394165
21
850.923230743
0
ELLIPSE
5
156
100
AcDbEntity
8
fixtures
6
ByLayer
62
256
370
-1
100
AcDbEllipse
10
361.956860549
20
328.447483072
30
0
11
27.1415755389
21
-0.542831510779
31
0
40
0.817719891892
41
6.28318530718
42
12.5663706144
0
LINE
5
157
100
AcDbEntity
8
fixtures
6
ByLayer
62
256
370
-1
100
AcDbLine
10
417.171339417
20
304.623230743
11
396.171339417
21
304.623230743
0
LINE
5
158
100
AcDbEntity
8
fixtures
6
ByLayer
62
256
370
-1
100
AcDbLine
10
396.171339417
20
304.623230743
11
396.171339417
21
351.623230743
0
LINE
5
159
100
AcDbEntity
8
fixtures
6
ByLayer
62
256
370
-1
100
AcDbLine
10
396.171339417
20
351.623230743
11
417.171339417
21
351.623230743
0
LINE
5
15A
100
AcDbEntity
8
fixtures
6
ByLayer
62
256
370
-1
100
AcDbLine
10
417.171339417
20
351.623230743
11
417.171339417
21
304.623230743
0
LINE
5
15B
100
AcDbEntity
8
fixtures
6
ByLayer
62
256
370
-1
100
AcDbLine
10
419.171339417
20
272.523230743
11
300.171339417
21
272.523230743
0
LINE
5
15C
100
AcDbEntity
8
fixtures
6
ByLayer
62
256
370
-1
100
AcDbLine
10
419.171339417
20
272.523230743
11
419.171339417
21
153.523230743
0
LINE
5
15D
100
AcDbEntity
8
fixtures
6
ByLayer
62
256
370
-1
100
AcDbLine
10
419.171339417
20
153.523230743
11
300.171339417
21
153.523230743
0
LINE
5
15E
100
AcDbEntity
8
fixtures
6
ByLayer
62
256
370
-1
100
AcDbLine
10
300.171339417
20
272.523230743
11
300.171339417
21
153.523230743
0
ARC
5
15F
100
AcDbEntity
8
fixtures
6
ByLayer
62
256
370
-1
100
AcDbCircle
10
323.303067401
20
176.654958727
40
13.5
100
AcDbArc
50
193.413661903
51
256.586338097
0
ARC
5
160
100
AcDbEntity
8
fixtures
6
ByLayer
62
256
370
-1
100
AcDbCircle
10
396.039611433
20
176.654958727
40
13.5
100
AcDbArc
50
283.413661903
51
346.586338097
0
ARC
5
161
100
AcDbEntity
8
fixtures
6
ByLayer
62
256
370
-1
100
AcDbCircle
10
323.303067401
20
249.391502759
40
13.5
100
AcDbArc
50
103.413661903
51
166.586338097
0
ARC
5
162
100
AcDbEntity
8
fixtures
6
ByLayer
62
256
370
-1
100
AcDbCircle
10
396.039611433
20
249.391502759
40
13.5
100
AcDbArc
50
13.413661903
51
76.586338097
0
LINE
5
163
100
AcDbEntity
8
fixtures
6
ByLayer
62
256
370
-1
100
AcDbLine
10
399.171339417
20
163.523230743
11
320.171339417
21
163.523230743
0
LINE
5
164
100
AcDbEntity
8
fixtures
6
ByLayer
62
256
370
-1
100
AcDbLine
10
399.171339417
20
262.523230743
11
320.171339417
21
262.523230743
0
LINE
5
165
100
AcDbEntity
8
fixtures
6
ByLayer
62
256
370
-1
100
AcDbLine
10
409.171339417
20
252.523230743
11
409.171339417
21
173.523230743
0
LINE
5
166
100
AcDbEntity
8
fixtures
6
ByLayer
62
256
370
-1
100
AcDbLine
10
310.171339417
20
252.523230743
11
310.171339417
21
173.523230743
0
CIRCLE
5
167
100
AcDbEntity
8
fixtures
6
ByLayer
62
256
370
-1
100
AcDbCircle
10
226.348052645
20
213.148750084
40
5
0
CIRCLE
5
168
100
AcDbEntity
8
fixtures
6
ByLayer
62
256
370
-1
100
AcDbCircle
10
360.082084402
20
212.523824702
40
5
0
MTEXT
5
169
100
AcDbEntity
8
text
6
ByLayer
62
256
370
-1
100
AcDbMText
10
-623.003870715
20
281.94335755
30
0
40
6
41
43.8333333333
71
1
72
1
1
zen garden
7

210
0
220
0
230
1
50
0
73
2
44
1
0
MTEXT
5
16A
100
AcDbEntity
8
text
6
ByLayer
62
256
370
-1
100
AcDbMText
10
-768.341124058
20
811.996869743
30
0
40
6
41
144.666669752
71
1
72
1
1
enclosed perimiter deck 100cm wide\Proof over
7

210
0
220
0
230
1
50
0
73
2
44
1
0
MTEXT
5
16B
100
AcDbEntity
8
text
6
ByLayer
62
256
370
-1
100
AcDbMText
10
94.5874489844
20
-80.035533756
30
0
40
6
41
90.3333333333
71
1
72
1
1
general entrence area
7

210
0
220
0
230
1
50
0
73
2
44
1
0
ENDSEC
0
SECTION
2
OBJECTS
0
DICTIONARY
5
C
330
0
100
AcDbDictionary
281
1
3
ACAD_GROUP
350
D
0
DICTIONARY
5
D
330
C
100
AcDbDictionary
281
1
0
ENDSEC
0
EOF
