999
dxfrw 0.6.3
  0
SECTION
  2
HEADER
  9
$ACADVER
  1
AC1021
  9
$DWGCODEPAGE
  3
ANSI_1252
  9
$INSBASE
 10
0
 20
0
 30
0
  9
$EXTMIN
 10
-1332.491324587017
 20
-536.676769257
 30
0
  9
$EXTMAX
 10
2000.678609508001
 20
1074.541938431762
 30
0
  9
$LIMMIN
 10
0
 20
0
  9
$LIMMAX
 10
420
 20
297
  9
$ORTHOMODE
 70
    0
  9
$REGENMODE
 70
    1
  9
$FILLMODE
 70
    1
  9
$QTEXTMODE
 70
    0
  9
$MIRRTEXT
 70
    0
  9
$LTSCALE
 40
1
  9
$ATTMODE
 70
    0
  9
$TEXTSIZE
 40
2.5
  9
$TRACEWID
 40
15.68
  9
$TEXTSTYLE
  7
STANDARD
  9
$CLAYER
  8
text
  9
$CELTYPE
  6
BYLAYER
  9
$CECOLOR
 62
  256
  9
$CELTSCALE
 40
1
  9
$DISPSILH
 70
    0
  9
$DIMSCALE
 40
1
  9
$DIMASZ
 40
7.5
  9
$DIMEXO
 40
2.625
  9
$DIMDLI
 40
3.75
  9
$DIMRND
 40
0
  9
$DIMDLE
 40
0
  9
$DIMEXE
 40
2.25
  9
$DIMTP
 40
0
  9
$DIMTM
 40
0
  9
$DIMTXT
 40
6.5
  9
$DIMCEN
 40
2.5
  9
$DIMTSZ
 40
0
  9
$DIMTOL
 70
    0
  9
$DIMLIM
 70
    0
  9
$DIMTIH
 70
    0
  9
$DIMTOH
 70
    0
  9
$DIMSE1
 70
    0
  9
$DIMSE2
 70
    0
  9
$DIMTAD
 70
    1
  9
$DIMZIN
 70
    8
  9
$DIMBLK
  1

  9
$DIMASO
 70
    1
  9
$DIMSHO
 70
    1
  9
$DIMPOST
  1

  9
$DIMAPOST
  1

  9
$DIMALT
 70
    0
  9
$DIMALTD
 70
    3
  9
$DIMALTF
 40
0.03937
  9
$DIMLFAC
 40
1
  9
$DIMTOFL
 70
    1
  9
$DIMTVP
 40
0
  9
$DIMTIX
 70
    0
  9
$DIMSOXD
 70
    0
  9
$DIMSAH
 70
    0
  9
$DIMBLK1
  1

  9
$DIMBLK2
  1

  9
$DIMSTYLE
  2
STANDARD
  9
$DIMCLRD
 70
    0
  9
$DIMCLRE
 70
    0
  9
$DIMCLRT
 70
    0
  9
$DIMTFAC
 40
1
  9
$DIMGAP
 40
1.625
  9
$DIMJUST
 70
    0
  9
$DIMSD1
 70
    0
  9
$DIMSD2
 70
    0
  9
$DIMTOLJ
 70
    0
  9
$DIMTZIN
 70
    8
  9
$DIMALTZ
 70
    0
  9
$DIMALTTZ
 70
    0
  9
$DIMUPT
 70
    0
  9
$DIMDEC
 70
    4
  9
$DIMTDEC
 70
    2
  9
$DIMALTU
 70
    2
  9
$DIMALTTD
 70
    3
  9
$DIMTXSTY
  7
STANDARD
  9
$DIMAUNIT
 70
    0
  9
$DIMADEC
 70
    2
  9
$DIMALTRND
 40
0
  9
$DIMAZIN
 70
    0
  9
$DIMDSEP
 70
   44
  9
$DIMATFIT
 70
    3
  9
$DIMFRAC
 70
    0
  9
$DIMLDRBLK
  1
STANDARD
  9
$DIMLUNIT
 70
    2
  9
$DIMLWD
 70
   -2
  9
$DIMLWE
 70
   -2
  9
$DIMTMOVE
 70
    0
  9
$DIMFXL
 40
1
  9
$DIMFXLON
 70
    0
  9
$DIMJOGANG
 40
0.7854
  9
$DIMTFILL
 70
    0
  9
$DIMTFILLCLR
 70
    0
  9
$DIMARCSYM
 70
    0
  9
$DIMLTYPE
  6

  9
$DIMLTEX1
  6

  9
$DIMLTEX2
  6

  9
$LUNITS
 70
    2
  9
$LUPREC
 70
    4
  9
$SKETCHINC
 40
1
  9
$FILLETRAD
 40
0
  9
$AUNITS
 70
    0
  9
$AUPREC
 70
    2
  9
$MENU
  1
.
  9
$ELEVATION
 40
0
  9
$PELEVATION
 40
0
  9
$THICKNESS
 40
0
  9
$LIMCHECK
 70
    0
  9
$CHAMFERA
 40
0
  9
$CHAMFERB
 40
0
  9
$CHAMFERC
 40
0
  9
$CHAMFERD
 40
0
  9
$SKPOLY
 70
    0
  9
$USRTIMER
 70
    1
  9
$ANGBASE
 50
0
  9
$ANGDIR
 70
    0
  9
$PDMODE
 70
   34
  9
$PDSIZE
 40
0
  9
$PLINEWID
 40
0
  9
$SPLFRAME
 70
    0
  9
$SPLINETYPE
 70
    2
  9
$SPLINESEGS
 70
    8
  9
$HANDSEED
  5
20000
  9
$SURFTAB1
 70
    6
  9
$SURFTAB2
 70
    6
  9
$SURFTYPE
 70
    6
  9
$SURFU
 70
    6
  9
$SURFV
 70
    6
  9
$UCSBASE
  2

  9
$UCSNAME
  2

  9
$UCSORG
 10
0
 20
0
 30
0
  9
$UCSXDIR
 10
1
 20
0
 30
0
  9
$UCSYDIR
 10
0
 20
1
 30
0
  9
$UCSORTHOREF
  2

  9
$UCSORTHOVIEW
 70
    0
  9
$UCSORGTOP
 10
0
 20
0
 30
0
  9
$UCSORGBOTTOM
 10
0
 20
0
 30
0
  9
$UCSORGLEFT
 10
0
 20
0
 30
0
  9
$UCSORGRIGHT
 10
0
 20
0
 30
0
  9
$UCSORGFRONT
 10
0
 20
0
 30
0
  9
$UCSORGBACK
 10
0
 20
0
 30
0
  9
$PUCSBASE
  2

  9
$PUCSNAME
  2

  9
$PUCSORG
 10
0
 20
0
 30
0
  9
$PUCSXDIR
 10
1
 20
0
 30
0
  9
$PUCSYDIR
 10
0
 20
1
 30
0
  9
$PUCSORTHOREF
  2

  9
$PUCSORTHOVIEW
 70
    0
  9
$PUCSORGTOP
 10
0
 20
0
 30
0
  9
$PUCSORGBOTTOM
 10
0
 20
0
 30
0
  9
$PUCSORGLEFT
 10
0
 20
0
 30
0
  9
$PUCSORGRIGHT
 10
0
 20
0
 30
0
  9
$PUCSORGFRONT
 10
0
 20
0
 30
0
  9
$PUCSORGBACK
 10
0
 20
0
 30
0
  9
$USERI1
 70
    0
  9
$USERI2
 70
    0
  9
$USERI3
 70
    0
  9
$USERI4
 70
    0
  9
$USERI5
 70
    0
  9
$USERR1
 40
0
  9
$USERR2
 40
0
  9
$USERR3
 40
0
  9
$USERR4
 40
0
  9
$USERR5
 40
0
  9
$WORLDVIEW
 70
    1
  9
$SHADEDGE
 70
    3
  9
$SHADEDIF
 70
   70
  9
$TILEMODE
 70
    1
  9
$MAXACTVP
 70
   64
  9
$PINSBASE
 10
0
 20
0
 30
0
  9
$PLIMCHECK
 70
    0
  9
$PEXTMIN
 10
0
 20
0
 30
0
  9
$PEXTMAX
 10
0
 20
0
 30
0
  9
$GRIDMODE
 70
    1
  9
$SNAPSTYLE
 70
    0
  9
$GRIDUNIT
 10
0
 20
0
  9
$PLIMMIN
 10
0
 20
0
  9
$PLIMMAX
 10
29.7
 20
21
  9
$UNITMODE
 70
    0
  9
$VISRETAIN
 70
    1
  9
$PLINEGEN
 70
    0
  9
$PSLTSCALE
 70
    1
  9
$TREEDEPTH
 70
 3020
  9
$CMLSTYLE
  2
Standard
  9
$CMLJUST
 70
    0
  9
$CMLSCALE
 40
20
  9
$PROXYGRAPHICS
 70
    1
  9
$MEASUREMENT
 70
    1
  9
$CELWEIGHT
370
   -1
  9
$ENDCAPS
280
    0
  9
$JOINSTYLE
280
    0
  9
$LWDISPLAY
290
    0
  9
$INSUNITS
 70
    5
  9
$HYPERLINKBASE
  1

  9
$STYLESHEET
  1

  9
$XEDIT
290
    1
  9
$CEPSNTYPE
380
    0
  9
$PSTYLEMODE
290
    1
  9
$EXTNAMES
290
    1
  9
$PSVPSCALE
 40
1
  9
$OLESTARTUP
290
    0
  9
$SORTENTS
280
  127
  9
$INDEXCTL
280
    0
  9
$HIDETEXT
280
    1
  9
$XCLIPFRAME
290
    0
  9
$HALOGAP
280
    0
  9
$OBSCOLOR
 70
  257
  9
$OBSLTYPE
280
    0
  9
$INTERSECTIONDISPLAY
280
    0
  9
$INTERSECTIONCOLOR
 70
  257
  9
$DIMASSOC
280
    1
  9
$PROJECTNAME
  1

  9
$CAMERADISPLAY
290
    0
  9
$LENSLENGTH
 40
50
  9
$CAMERAHEIGHT
 40
0
  9
$STEPSPERSEC
 40
2
  9
$STEPSIZE
 40
50
  9
$3DDWFPREC
 40
2
  9
$PSOLWIDTH
 40
5
  9
$PSOLHEIGHT
 40
80
  9
$LOFTANG1
 40
1.570796326794897
  9
$LOFTANG2
 40
1.570796326794897
  9
$LOFTMAG1
 40
0
  9
$LOFTMAG2
 40
0
  9
$LOFTPARAM
 70
    7
  9
$LOFTNORMALS
280
    1
  9
$LATITUDE
 40
1
  9
$LONGITUDE
 40
1
  9
$NORTHDIRECTION
 40
0
  9
$TIMEZONE
 70
-8000
  9
$LIGHTGLYPHDISPLAY
280
    1
  9
$TILEMODELIGHTSYNCH
280
    1
  9
$SOLIDHIST
280
    1
  9
$SHOWHIST
280
    1
  9
$DWFFRAME
280
    2
  9
$DGNFRAME
280
    0
  9
$REALWORLDSCALE
290
    1
  9
$INTERFERECOLOR
 62
    1
  9
$CSHADOW
280
    0
  9
$SHADOWPLANELOCATION
 40
0
  0
ENDSEC
  0
SECTION
  2
CLASSES
  0
ENDSEC
  0
SECTION
  2
TABLES
  0
TABLE
  2
VPORT
  5
8
330
0
100
AcDbSymbolTable
 70
    1
  0
VPORT
  5
31
330
2
100
AcDbSymbolTableRecord
100
AcDbViewportTableRecord
  2
*ACTIVE
 70
    0
 10
0
 20
0
 11
1
 21
1
 12
1402.125768376679
 22
559.5268535577624
 13
0
 23
0
 14
10
 24
10
 15
10
 25
10
 16
0
 26
0
 36
1
 17
0
 27
0
 37
0
 40
1961.652621934441
 41
2.219640179910045
 42
50
 43
0
 44
0
 50
0
 51
0
 71
    0
 72
  100
 73
    1
 74
    3
 75
    0
 76
    1
 77
    0
 78
    0
281
    0
 65
    1
110
0
120
0
130
0
111
1
121
0
131
0
112
0
122
1
132
0
 79
    0
146
0
348
10020
 60
    7
 61
    5
292
1
282
    1
141
0
142
0
 63
  250
421
3358443
  0
ENDTAB
  0
TABLE
  2
LTYPE
  5
5
330
0
100
AcDbSymbolTable
 70
    4
  0
LTYPE
  5
14
330
5
100
AcDbSymbolTableRecord
100
AcDbLinetypeTableRecord
  2
ByBlock
 70
    0
  3

 72
   65
 73
    0
 40
0
  0
LTYPE
  5
15
330
5
100
AcDbSymbolTableRecord
100
AcDbLinetypeTableRecord
  2
ByLayer
 70
    0
  3

 72
   65
 73
    0
 40
0
  0
LTYPE
  5
16
330
5
100
AcDbSymbolTableRecord
100
AcDbLinetypeTableRecord
  2
Continuous
 70
    0
  3
Solid line
 72
   65
 73
    0
 40
0
  0
LTYPE
  5
32
330
5
100
AcDbSymbolTableRecord
100
AcDbLinetypeTableRecord
  2
DOT
 70
    0
  3
Dot . . . . . . . . . . . . . . . . . . . . . .
 72
   65
 73
    2
 40
6.35
 49
0
 74
    0
 49
-6.35
 74
    0
  0
LTYPE
  5
33
330
5
100
AcDbSymbolTableRecord
100
AcDbLinetypeTableRecord
  2
DOTTINY
 70
    0
  3
Dot (.15x) .....................................
 72
   65
 73
    2
 40
0.9525
 49
0
 74
    0
 49
-0.9525
 74
    0
  0
LTYPE
  5
34
330
5
100
AcDbSymbolTableRecord
100
AcDbLinetypeTableRecord
  2
DOT2
 70
    0
  3
Dot (.5x) .....................................
 72
   65
 73
    2
 40
3.175
 49
0
 74
    0
 49
-3.175
 74
    0
  0
LTYPE
  5
35
330
5
100
AcDbSymbolTableRecord
100
AcDbLinetypeTableRecord
  2
DOTX2
 70
    0
  3
Dot (2x) .  .  .  .  .  .  .  .  .  .  .  .  .
 72
   65
 73
    2
 40
12.7
 49
0
 74
    0
 49
-12.7
 74
    0
  0
LTYPE
  5
36
330
5
100
AcDbSymbolTableRecord
100
AcDbLinetypeTableRecord
  2
DASHED
 70
    0
  3
Dashed _ _ _ _ _ _ _ _ _ _ _ _ _ _ _ _ _
 72
   65
 73
    2
 40
19.05
 49
12.7
 74
    0
 49
-6.35
 74
    0
  0
LTYPE
  5
37
330
5
100
AcDbSymbolTableRecord
100
AcDbLinetypeTableRecord
  2
DASHEDTINY
 70
    0
  3
Dashed (.15x) _ _ _ _ _ _ _ _ _ _ _ _ _ _ _ _ _
 72
   65
 73
    2
 40
2.8575
 49
1.905
 74
    0
 49
-0.9525
 74
    0
  0
LTYPE
  5
38
330
5
100
AcDbSymbolTableRecord
100
AcDbLinetypeTableRecord
  2
DASHED2
 70
    0
  3
Dashed (.5x) _ _ _ _ _ _ _ _ _ _ _ _ _ _ _ _ _
 72
   65
 73
    2
 40
9.524999999999999
 49
6.35
 74
    0
 49
-3.175
 74
    0
  0
LTYPE
  5
39
330
5
100
AcDbSymbolTableRecord
100
AcDbLinetypeTableRecord
  2
DASHEDX2
 70
    0
  3
Dashed (2x) ____  ____  ____  ____  ____  ___
 72
   65
 73
    2
 40
38.09999999999999
 49
25.4
 74
    0
 49
-12.7
 74
    0
  0
LTYPE
  5
3A
330
5
100
AcDbSymbolTableRecord
100
AcDbLinetypeTableRecord
  2
DASHDOT
 70
    0
  3
Dash dot __ . __ . __ . __ . __ . __ . __ . __
 72
   65
 73
    4
 40
25.4
 49
12.7
 74
    0
 49
-6.35
 74
    0
 49
0
 74
    0
 49
-6.35
 74
    0
  0
LTYPE
  5
3B
330
5
100
AcDbSymbolTableRecord
100
AcDbLinetypeTableRecord
  2
DASHDOTTINY
 70
    0
  3
Dash dot (.15x) _._._._._._._._._._._._._._._.
 72
   65
 73
    4
 40
3.81
 49
1.905
 74
    0
 49
-0.9525
 74
    0
 49
0
 74
    0
 49
-0.9525
 74
    0
  0
LTYPE
  5
3C
330
5
100
AcDbSymbolTableRecord
100
AcDbLinetypeTableRecord
  2
DASHDOT2
 70
    0
  3
Dash dot (.5x) _._._._._._._._._._._._._._._.
 72
   65
 73
    4
 40
12.7
 49
6.35
 74
    0
 49
-3.175
 74
    0
 49
0
 74
    0
 49
-3.175
 74
    0
  0
LTYPE
  5
3D
330
5
100
AcDbSymbolTableRecord
100
AcDbLinetypeTableRecord
  2
DASHDOTX2
 70
    0
  3
Dash dot (2x) ____  .  ____  .  ____  .  ___
 72
   65
 73
    4
 40
50.8
 49
25.4
 74
    0
 49
-12.7
 74
    0
 49
0
 74
    0
 49
-12.7
 74
    0
  0
LTYPE
  5
3E
330
5
100
AcDbSymbolTableRecord
100
AcDbLinetypeTableRecord
  2
DIVIDE
 70
    0
  3
Divide ____ . . ____ . . ____ . . ____ . . ____
 72
   65
 73
    6
 40
31.75
 49
12.7
 74
    0
 49
-6.35
 74
    0
 49
0
 74
    0
 49
-6.35
 74
    0
 49
0
 74
    0
 49
-6.35
 74
    0
  0
LTYPE
  5
3F
330
5
100
AcDbSymbolTableRecord
100
AcDbLinetypeTableRecord
  2
DIVIDETINY
 70
    0
  3
Divide (.15x) __..__..__..__..__..__..__..__.._
 72
   65
 73
    6
 40
4.7625
 49
1.905
 74
    0
 49
-0.9525
 74
    0
 49
0
 74
    0
 49
-0.9525
 74
    0
 49
0
 74
    0
 49
-0.9525
 74
    0
  0
LTYPE
  5
40
330
5
100
AcDbSymbolTableRecord
100
AcDbLinetypeTableRecord
  2
DIVIDE2
 70
    0
  3
Divide (.5x) __..__..__..__..__..__..__..__.._
 72
   65
 73
    6
 40
15.875
 49
6.35
 74
    0
 49
-3.175
 74
    0
 49
0
 74
    0
 49
-3.175
 74
    0
 49
0
 74
    0
 49
-3.175
 74
    0
  0
LTYPE
  5
41
330
5
100
AcDbSymbolTableRecord
100
AcDbLinetypeTableRecord
  2
DIVIDEX2
 70
    0
  3
Divide (2x) ________  .  .  ________  .  .  _
 72
   65
 73
    6
 40
63.5
 49
25.4
 74
    0
 49
-12.7
 74
    0
 49
0
 74
    0
 49
-12.7
 74
    0
 49
0
 74
    0
 49
-12.7
 74
    0
  0
LTYPE
  5
42
330
5
100
AcDbSymbolTableRecord
100
AcDbLinetypeTableRecord
  2
BORDER
 70
    0
  3
Border __ __ . __ __ . __ __ . __ __ . __ __ .
 72
   65
 73
    6
 40
44.45
 49
12.7
 74
    0
 49
-6.35
 74
    0
 49
12.7
 74
    0
 49
-6.35
 74
    0
 49
0
 74
    0
 49
-6.35
 74
    0
  0
LTYPE
  5
43
330
5
100
AcDbSymbolTableRecord
100
AcDbLinetypeTableRecord
  2
BORDERTINY
 70
    0
  3
Border (.15x) __.__.__.__.__.__.__.__.__.__.__.
 72
   65
 73
    6
 40
6.6675
 49
1.905
 74
    0
 49
-0.9525
 74
    0
 49
1.905
 74
    0
 49
-0.9525
 74
    0
 49
0
 74
    0
 49
-0.9525
 74
    0
  0
LTYPE
  5
44
330
5
100
AcDbSymbolTableRecord
100
AcDbLinetypeTableRecord
  2
BORDER2
 70
    0
  3
Border (.5x) __.__.__.__.__.__.__.__.__.__.__.
 72
   65
 73
    6
 40
22.225
 49
6.35
 74
    0
 49
-3.175
 74
    0
 49
6.35
 74
    0
 49
-3.175
 74
    0
 49
0
 74
    0
 49
-3.175
 74
    0
  0
LTYPE
  5
45
330
5
100
AcDbSymbolTableRecord
100
AcDbLinetypeTableRecord
  2
BORDERX2
 70
    0
  3
Border (2x) ____  ____  .  ____  ____  .  ___
 72
   65
 73
    6
 40
88.89999999999999
 49
25.4
 74
    0
 49
-12.7
 74
    0
 49
25.4
 74
    0
 49
-12.7
 74
    0
 49
0
 74
    0
 49
-12.7
 74
    0
  0
LTYPE
  5
46
330
5
100
AcDbSymbolTableRecord
100
AcDbLinetypeTableRecord
  2
CENTER
 70
    0
  3
Center ____ _ ____ _ ____ _ ____ _ ____ _ ____
 72
   65
 73
    4
 40
50.8
 49
31.75
 74
    0
 49
-6.35
 74
    0
 49
6.35
 74
    0
 49
-6.35
 74
    0
  0
LTYPE
  5
47
330
5
100
AcDbSymbolTableRecord
100
AcDbLinetypeTableRecord
  2
CENTERTINY
 70
    0
  3
Center (.15x) ___ _ ___ _ ___ _ ___ _ ___ _ ___
 72
   65
 73
    4
 40
7.619999999999999
 49
4.7625
 74
    0
 49
-0.9525
 74
    0
 49
0.9525
 74
    0
 49
-0.9525
 74
    0
  0
LTYPE
  5
48
330
5
100
AcDbSymbolTableRecord
100
AcDbLinetypeTableRecord
  2
CENTER2
 70
    0
  3
Center (.5x) ___ _ ___ _ ___ _ ___ _ ___ _ ___
 72
   65
 73
    4
 40
28.575
 49
19.05
 74
    0
 49
-3.175
 74
    0
 49
3.175
 74
    0
 49
-3.175
 74
    0
  0
LTYPE
  5
49
330
5
100
AcDbSymbolTableRecord
100
AcDbLinetypeTableRecord
  2
CENTERX2
 70
    0
  3
Center (2x) ________  __  ________  __  _____
 72
   65
 73
    4
 40
101.6
 49
63.5
 74
    0
 49
-12.7
 74
    0
 49
12.7
 74
    0
 49
-12.7
 74
    0
  0
ENDTAB
  0
TABLE
  2
LAYER
  5
2
330
0
100
AcDbSymbolTable
 70
    1
  0
LAYER
  5
10
330
2
100
AcDbSymbolTableRecord
100
AcDbLayerTableRecord
  2
0
 70
    0
 62
    7
  6
CONTINUOUS
370
    0
390
F
  0
LAYER
  5
4A
330
2
100
AcDbSymbolTableRecord
100
AcDbLayerTableRecord
  2
bogus
 70
    0
 62
    3
  6
CONTINUOUS
370
    0
390
F
  0
LAYER
  5
4B
330
2
100
AcDbSymbolTableRecord
100
AcDbLayerTableRecord
  2
cabinates
 70
    0
 62
   96
420
32768
  6
CONTINUOUS
370
    0
390
F
  0
LAYER
  5
4C
330
2
100
AcDbSymbolTableRecord
100
AcDbLayerTableRecord
  2
container
 70
    0
 62
    7
  6
CONTINUOUS
370
    0
390
F
  0
LAYER
  5
4D
330
2
100
AcDbSymbolTableRecord
100
AcDbLayerTableRecord
  2
deck
 70
    0
 62
    4
  6
CONTINUOUS
370
    0
390
F
  0
LAYER
  5
4E
330
2
100
AcDbSymbolTableRecord
100
AcDbLayerTableRecord
  2
dimension
 70
    0
 62
    5
  6
CONTINUOUS
370
    0
390
F
  0
LAYER
  5
4F
330
2
100
AcDbSymbolTableRecord
100
AcDbLayerTableRecord
  2
doors
 70
    0
 62
   96
420
32768
  6
CONTINUOUS
370
    0
390
F
  0
LAYER
  5
50
330
2
100
AcDbSymbolTableRecord
100
AcDbLayerTableRecord
  2
eletrical
 70
    0
 62
  136
  6
CONTINUOUS
370
   -3
390
F
  0
LAYER
  5
51
330
2
100
AcDbSymbolTableRecord
100
AcDbLayerTableRecord
  2
fixtures
 70
    0
 62
    7
  6
CONTINUOUS
370
   -3
390
F
  0
LAYER
  5
52
330
2
100
AcDbSymbolTableRecord
100
AcDbLayerTableRecord
  2
tatami
 70
    0
 62
   30
  6
DOT2
370
    0
390
F
  0
LAYER
  5
53
330
2
100
AcDbSymbolTableRecord
100
AcDbLayerTableRecord
  2
tatami182
 70
    0
 62
    6
  6
CONTINUOUS
370
    0
390
F
  0
LAYER
  5
54
330
2
100
AcDbSymbolTableRecord
100
AcDbLayerTableRecord
  2
text
 70
    0
 62
    2
  6
CONTINUOUS
370
    0
390
F
  0
LAYER
  5
55
330
2
100
AcDbSymbolTableRecord
100
AcDbLayerTableRecord
  2
wall
 70
    0
 62
  253
420
10526884
  6
CONTINUOUS
370
    0
390
F
  0
LAYER
  5
56
330
2
100
AcDbSymbolTableRecord
100
AcDbLayerTableRecord
  2
walls
 70
    0
 62
    7
  6
CONTINUOUS
370
    0
390
F
  0
ENDTAB
  0
TABLE
  2
STYLE
  5
3
330
0
100
AcDbSymbolTable
 70
    3
  0
STYLE
  5
57
330
2
100
AcDbSymbolTableRecord
100
AcDbTextStyleTableRecord
  2
standard
 70
    0
 40
0
 41
1
 50
0
 71
    0
 42
1
  3
standard
  4

  0
STYLE
  5
58
330
2
100
AcDbSymbolTableRecord
100
AcDbTextStyleTableRecord
  2
iso
 70
    0
 40
0
 41
1
 50
0
 71
    0
 42
1
  3
iso
  4

  0
ENDTAB
  0
TABLE
  2
VIEW
  5
6
330
0
100
AcDbSymbolTable
 70
    0
  0
ENDTAB
  0
TABLE
  2
UCS
  5
7
330
0
100
AcDbSymbolTable
 70
    0
  0
ENDTAB
  0
TABLE
  2
APPID
  5
9
330
0
100
AcDbSymbolTable
 70
    1
  0
APPID
  5
12
330
9
100
AcDbSymbolTableRecord
100
AcDbRegAppTableRecord
  2
ACAD
 70
    0
  0
APPID
  5
59
330
9
100
AcDbSymbolTableRecord
100
AcDbRegAppTableRecord
  2
LibreCad
 70
    0
  0
ENDTAB
  0
TABLE
  2
DIMSTYLE
  5
A
330
0
100
AcDbSymbolTable
 70
    1
100
AcDbDimStyleTable
 71
    1
  0
DIMSTYLE
105
5A
330
A
100
AcDbSymbolTableRecord
100
AcDbDimStyleTableRecord
  2
Standard
 70
    0
 40
1
 41
7.5
 42
2.625
 43
0.38
 44
2.25
 45
0
 46
0
 47
0
 48
0
 49
1
140
6.5
141
0.09
142
0
143
25.4
144
1
145
0
146
1
147
1.625
148
0
 71
    0
 72
    0
 73
    0
 74
    1
 75
    0
 76
    0
 77
    0
 78
    1
 79
    0
170
    0
171
    2
172
    0
173
    0
174
    0
175
    0
176
    0
177
    0
178
    0
179
    2
271
    4
272
    4
273
    2
274
    2
275
    0
276
    0
277
    2
278
    0
279
    0
280
    0
281
    0
282
    0
283
    1
284
    0
285
    0
286
    0
288
    0
289
    3
340
standard
341

371
   -2
372
   -2
  0
ENDTAB
  0
TABLE
  2
BLOCK_RECORD
  5
1
330
0
100
AcDbSymbolTable
 70
    2
  0
BLOCK_RECORD
  5
1F
330
1
100
AcDbSymbolTableRecord
100
AcDbBlockTableRecord
  2
*Model_Space
 70
    0
280
    1
281
    0
  0
BLOCK_RECORD
  5
1E
330
1
100
AcDbSymbolTableRecord
100
AcDbBlockTableRecord
  2
*Paper_Space
 70
    0
280
    1
281
    0
  0
BLOCK_RECORD
  5
5B
330
1
100
AcDbSymbolTableRecord
100
AcDbBlockTableRecord
  2
*D2
 70
    0
280
    1
281
    0
  0
BLOCK_RECORD
  5
5E
330
1
100
AcDbSymbolTableRecord
100
AcDbBlockTableRecord
  2
*D1
 70
    0
280
    1
281
    0
  0
BLOCK_RECORD
  5
61
330
1
100
AcDbSymbolTableRecord
100
AcDbBlockTableRecord
  2
tatami182vert-0
 70
    0
280
    1
281
    0
  0
BLOCK_RECORD
  5
64
330
1
100
AcDbSymbolTableRecord
100
AcDbBlockTableRecord
  2
tatami182Half-0
 70
    0
280
    1
281
    0
  0
BLOCK_RECORD
  5
67
330
1
100
AcDbSymbolTableRecord
100
AcDbBlockTableRecord
  2
bedroomVert
 70
    0
280
    1
281
    0
  0
BLOCK_RECORD
  5
6A
330
1
100
AcDbSymbolTableRecord
100
AcDbBlockTableRecord
  2
refer-2
 70
    0
280
    1
281
    0
  0
BLOCK_RECORD
  5
6D
330
1
100
AcDbSymbolTableRecord
100
AcDbBlockTableRecord
  2
sink-2
 70
    0
280
    1
281
    0
  0
BLOCK_RECORD
  5
70
330
1
100
AcDbSymbolTableRecord
100
AcDbBlockTableRecord
  2
stove-2
 70
    0
280
    1
281
    0
  0
BLOCK_RECORD
  5
73
330
1
100
AcDbSymbolTableRecord
100
AcDbBlockTableRecord
  2
refer
 70
    0
280
    1
281
    0
  0
BLOCK_RECORD
  5
76
330
1
100
AcDbSymbolTableRecord
100
AcDbBlockTableRecord
  2
sink
 70
    0
280
    1
281
    0
  0
BLOCK_RECORD
  5
79
330
1
100
AcDbSymbolTableRecord
100
AcDbBlockTableRecord
  2
stove
 70
    0
280
    1
281
    0
  0
BLOCK_RECORD
  5
7C
330
1
100
AcDbSymbolTableRecord
100
AcDbBlockTableRecord
  2
tatami182vert
 70
    0
280
    1
281
    0
  0
BLOCK_RECORD
  5
7F
330
1
100
AcDbSymbolTableRecord
100
AcDbBlockTableRecord
  2
tatami182Half
 70
    0
280
    1
281
    0
  0
BLOCK_RECORD
  5
82
330
1
100
AcDbSymbolTableRecord
100
AcDbBlockTableRecord
  2
slider3000
 70
    0
280
    1
281
    0
  0
BLOCK_RECORD
  5
85
330
1
100
AcDbSymbolTableRecord
100
AcDbBlockTableRecord
  2
6m-container-bedroomUnit-0
 70
    0
280
    1
281
    0
  0
BLOCK_RECORD
  5
88
330
1
100
AcDbSymbolTableRecord
100
AcDbBlockTableRecord
  2
outlet110HorUp-0
 70
    0
280
    1
281
    0
  0
BLOCK_RECORD
  5
8B
330
1
100
AcDbSymbolTableRecord
100
AcDbBlockTableRecord
  2
door700VerLeft-1
 70
    0
280
    1
281
    0
  0
BLOCK_RECORD
  5
8E
330
1
100
AcDbSymbolTableRecord
100
AcDbBlockTableRecord
  2
WCVerRight-2
 70
    0
280
    1
281
    0
  0
BLOCK_RECORD
  5
91
330
1
100
AcDbSymbolTableRecord
100
AcDbBlockTableRecord
  2
tub_ver-0
 70
    0
280
    1
281
    0
  0
BLOCK_RECORD
  5
94
330
1
100
AcDbSymbolTableRecord
100
AcDbBlockTableRecord
  2
door800VerLeft-0
 70
    0
280
    1
281
    0
  0
BLOCK_RECORD
  5
97
330
1
100
AcDbSymbolTableRecord
100
AcDbBlockTableRecord
  2
KyotoKyomaTatamiVertical-0
 70
    0
280
    1
281
    0
  0
BLOCK_RECORD
  5
9A
330
1
100
AcDbSymbolTableRecord
100
AcDbBlockTableRecord
  2
KyotoKyomaTatamiVertical-1
 70
    0
280
    1
281
    0
  0
BLOCK_RECORD
  5
9D
330
1
100
AcDbSymbolTableRecord
100
AcDbBlockTableRecord
  2
KyotoKyomaTatamiVertical-2
 70
    0
280
    1
281
    0
  0
BLOCK_RECORD
  5
A0
330
1
100
AcDbSymbolTableRecord
100
AcDbBlockTableRecord
  2
KyotoKyomaTatamiVertical-3
 70
    0
280
    1
281
    0
  0
BLOCK_RECORD
  5
A3
330
1
100
AcDbSymbolTableRecord
100
AcDbBlockTableRecord
  2
KyotoKyomaTatamiVertical-4
 70
    0
280
    1
281
    0
  0
BLOCK_RECORD
  5
A6
330
1
100
AcDbSymbolTableRecord
100
AcDbBlockTableRecord
  2
KyotoKyomaTatamiVertical-5
 70
    0
280
    1
281
    0
  0
BLOCK_RECORD
  5
A9
330
1
100
AcDbSymbolTableRecord
100
AcDbBlockTableRecord
  2
KyotoKyomaTatamiVertical-6
 70
    0
280
    1
281
    0
  0
BLOCK_RECORD
  5
AC
330
1
100
AcDbSymbolTableRecord
100
AcDbBlockTableRecord
  2
KyotoKyomaTatamiVertical-7
 70
    0
280
    1
281
    0
  0
BLOCK_RECORD
  5
AF
330
1
100
AcDbSymbolTableRecord
100
AcDbBlockTableRecord
  2
KyotoKyomaTatamiVertical-8
 70
    0
280
    1
281
    0
  0
BLOCK_RECORD
  5
B2
330
1
100
AcDbSymbolTableRecord
100
AcDbBlockTableRecord
  2
KyotoKyomaTatamiHalf-0
 70
    0
280
    1
281
    0
  0
BLOCK_RECORD
  5
B5
330
1
100
AcDbSymbolTableRecord
100
AcDbBlockTableRecord
  2
KyotoKyomaTatamiHalf-1
 70
    0
280
    1
281
    0
  0
BLOCK_RECORD
  5
B8
330
1
100
AcDbSymbolTableRecord
100
AcDbBlockTableRecord
  2
KyotoKyomaTatamiHalf-2
 70
    0
280
    1
281
    0
  0
BLOCK_RECORD
  5
BB
330
1
100
AcDbSymbolTableRecord
100
AcDbBlockTableRecord
  2
KyotoKyomaTatamiHalf-3
 70
    0
280
    1
281
    0
  0
BLOCK_RECORD
  5
BE
330
1
100
AcDbSymbolTableRecord
100
AcDbBlockTableRecord
  2
KyotoKyomaTatamiVertical-9
 70
    0
280
    1
281
    0
  0
BLOCK_RECORD
  5
C1
330
1
100
AcDbSymbolTableRecord
100
AcDbBlockTableRecord
  2
KyotoKyomaTatami-0
 70
    0
280
    1
281
    0
  0
BLOCK_RECORD
  5
C4
330
1
100
AcDbSymbolTableRecord
100
AcDbBlockTableRecord
  2
KyotoKyomaTatami-1
 70
    0
280
    1
281
    0
  0
BLOCK_RECORD
  5
C7
330
1
100
AcDbSymbolTableRecord
100
AcDbBlockTableRecord
  2
washer_Hor-0
 70
    0
280
    1
281
    0
  0
BLOCK_RECORD
  5
CA
330
1
100
AcDbSymbolTableRecord
100
AcDbBlockTableRecord
  2
washer_Hor-1
 70
    0
280
    1
281
    0
  0
BLOCK_RECORD
  5
CD
330
1
100
AcDbSymbolTableRecord
100
AcDbBlockTableRecord
  2
refridge500_600_verRight-0
 70
    0
280
    1
281
    0
  0
BLOCK_RECORD
  5
D0
330
1
100
AcDbSymbolTableRecord
100
AcDbBlockTableRecord
  2
Standard40ft12m_withIntwall-0
 70
    0
280
    1
281
    0
  0
BLOCK_RECORD
  5
D3
330
1
100
AcDbSymbolTableRecord
100
AcDbBlockTableRecord
  2
jtub
 70
    0
280
    1
281
    0
  0
BLOCK_RECORD
  5
D6
330
1
100
AcDbSymbolTableRecord
100
AcDbBlockTableRecord
  2
12m-2bedrooms-0
 70
    0
280
    1
281
    0
  0
ENDTAB
  0
ENDSEC
  0
SECTION
  2
BLOCKS
  0
BLOCK
  5
20
330
1F
100
AcDbEntity
  8
0
100
AcDbBlockBegin
  2
*Model_Space
 70
    0
 10
0
 20
0
 30
0
  3
*Model_Space
  1

  0
ENDBLK
  5
21
330
1F
100
AcDbEntity
  8
0
100
AcDbBlockEnd
  0
BLOCK
  5
1C
330
1B
100
AcDbEntity
  8
0
100
AcDbBlockBegin
  2
*Paper_Space
 70
    0
 10
0
 20
0
 30
0
  3
*Paper_Space
  1

  0
ENDBLK
  5
1D
330
1F
100
AcDbEntity
  8
0
100
AcDbBlockEnd
  0
BLOCK
  5
5C
330
5B
100
AcDbEntity
  8
0
100
AcDbBlockBegin
  2
*D2
 70
    1
 10
0
 20
0
  3
*D2
  1

  0
LINE
  5
D9
100
AcDbEntity
  8
dimension
  6
ByBlock
 62
    0
370
   -2
100
AcDbLine
 10
-1324.366324587017
 20
900.323230746
 11
-1324.366324587017
 21
1000.32323075
  0
SOLID
  5
DA
100
AcDbEntity
  8
dimension
  6
ByBlock
 62
    0
370
   -2
100
AcDbTrace
 10
-1324.366324587017
 20
900.323230746
 30
0
 11
-1325.615178560335
 21
907.823230746
 31
0
 12
-1323.117470613698
 22
907.823230746
 32
0
 13
-1323.117470613698
 23
907.823230746
 33
0
  0
SOLID
  5
DB
100
AcDbEntity
  8
dimension
  6
ByBlock
 62
    0
370
   -2
100
AcDbTrace
 10
-1324.366324587017
 20
1000.32323075
 30
0
 11
-1323.117470613698
 21
992.82323075
 31
0
 12
-1325.615178560335
 22
992.82323075
 32
0
 13
-1325.615178560335
 23
992.82323075
 33
0
  0
MTEXT
  5
DC
100
AcDbEntity
  8
dimension
  6
CONTINUOUS
 62
    0
370
   -2
100
AcDbMText
 10
-1329.241324587017
 20
950.323230748
 30
0
 40
6.5
 41
33.94444444444444
 71
    5
 72
    1
  1
100.0000
  7
standard
210
0
220
0
230
1
 50
90
 73
    2
 44
1
  0
LINE
  5
DD
100
AcDbEntity
  8
dimension
  6
ByBlock
 62
    0
370
   -2
100
AcDbLine
 10
-1186.95366058
 20
900.323230746
 11
-1326.616324587017
 21
900.323230746
  0
LINE
  5
DE
100
AcDbEntity
  8
dimension
  6
ByBlock
 62
    0
370
   -2
100
AcDbLine
 10
-1286.95366058
 20
1000.32323075
 11
-1326.616324587017
 21
1000.32323075
  0
ENDBLK
  5
5D
330
5B
100
AcDbEntity
  8
0
100
AcDbBlockEnd
  0
BLOCK
  5
5F
330
5E
100
AcDbEntity
  8
0
100
AcDbBlockBegin
  2
*D1
 70
    1
 10
0
 20
0
  3
*D1
  1

  0
LINE
  5
DF
100
AcDbEntity
  8
dimension
  6
ByBlock
 62
    0
370
   -2
100
AcDbLine
 10
-1184.32866058
 20
1066.416938431762
 11
-1284.32866058
 21
1066.416938431762
  0
SOLID
  5
E0
100
AcDbEntity
  8
dimension
  6
ByBlock
 62
    0
370
   -2
100
AcDbTrace
 10
-1184.32866058
 20
1066.416938431762
 30
0
 11
-1191.82866058
 21
1065.168084458443
 31
0
 12
-1191.82866058
 22
1067.66579240508
 32
0
 13
-1191.82866058
 23
1067.66579240508
 33
0
  0
SOLID
  5
E1
100
AcDbEntity
  8
dimension
  6
ByBlock
 62
    0
370
   -2
100
AcDbTrace
 10
-1284.32866058
 20
1066.416938431762
 30
0
 11
-1276.82866058
 21
1067.66579240508
 31
0
 12
-1276.82866058
 22
1065.168084458443
 32
0
 13
-1276.82866058
 23
1065.168084458443
 33
0
  0
MTEXT
  5
E2
100
AcDbEntity
  8
dimension
  6
CONTINUOUS
 62
    0
370
   -2
100
AcDbMText
 10
-1234.32866058
 20
1071.291938431762
 30
0
 40
6.5
 41
33.94444444444444
 71
    5
 72
    1
  1
100.0000
  7
standard
210
0
220
0
230
1
 50
360
 73
    2
 44
1
  0
LINE
  5
E3
100
AcDbEntity
  8
dimension
  6
ByBlock
 62
    0
370
   -2
100
AcDbLine
 10
-1184.32866058
 20
902.948230746
 11
-1184.32866058
 21
1068.666938431762
  0
LINE
  5
E4
100
AcDbEntity
  8
dimension
  6
ByBlock
 62
    0
370
   -2
100
AcDbLine
 10
-1284.32866058
 20
1002.94823075
 11
-1284.32866058
 21
1068.666938431762
  0
ENDBLK
  5
60
330
5E
100
AcDbEntity
  8
0
100
AcDbBlockEnd
  0
BLOCK
  5
62
330
61
100
AcDbEntity
  8
0
100
AcDbBlockBegin
  2
tatami182vert-0
 70
    0
 10
0
 20
0
  3
tatami182vert-0
  1

  0
LINE
  5
E5
100
AcDbEntity
  8
tatami182
  6
ByLayer
 62
  256
370
   -1
100
AcDbLine
 10
91
 20
91
 11
91
 21
182
  0
LINE
  5
E6
100
AcDbEntity
  8
tatami182
  6
ByLayer
 62
  256
370
   -1
100
AcDbLine
 10
91
 20
0
 11
91
 21
91
  0
LINE
  5
E7
100
AcDbEntity
  8
tatami182
  6
ByLayer
 62
  256
370
   -1
100
AcDbLine
 10
91
 20
0
 11
0
 21
0
  0
LINE
  5
E8
100
AcDbEntity
  8
tatami182
  6
ByLayer
 62
  256
370
   -1
100
AcDbLine
 10
0
 20
0
 11
0
 21
182
  0
LINE
  5
E9
100
AcDbEntity
  8
tatami182
  6
ByLayer
 62
  256
370
   -1
100
AcDbLine
 10
0
 20
182
 11
91
 21
182
  0
LINE
  5
EA
100
AcDbEntity
  8
tatami182
  6
ByLayer
 62
  256
370
   -1
100
AcDbLine
 10
88.5
 20
91
 11
88.5
 21
179.5
  0
LINE
  5
EB
100
AcDbEntity
  8
tatami182
  6
ByLayer
 62
  256
370
   -1
100
AcDbLine
 10
2.5
 20
2.5
 11
2.5
 21
179.5
  0
LINE
  5
EC
100
AcDbEntity
  8
tatami182
  6
ByLayer
 62
  256
370
   -1
100
AcDbLine
 10
88.5
 20
2.5
 11
88.5
 21
91
  0
LINE
  5
ED
100
AcDbEntity
  8
tatami182
  6
ByLayer
 62
  256
370
   -1
100
AcDbLine
 10
2.5
 20
179.5
 11
88.5
 21
179.5
  0
LINE
  5
EE
100
AcDbEntity
  8
tatami182
  6
ByLayer
 62
  256
370
   -1
100
AcDbLine
 10
88.5
 20
2.5
 11
2.5
 21
2.5
  0
ENDBLK
  5
63
330
61
100
AcDbEntity
  8
0
100
AcDbBlockEnd
  0
BLOCK
  5
65
330
64
100
AcDbEntity
  8
0
100
AcDbBlockBegin
  2
tatami182Half-0
 70
    0
 10
0
 20
0
  3
tatami182Half-0
  1

  0
LINE
  5
EF
100
AcDbEntity
  8
tatami182
  6
ByLayer
 62
  256
370
   -1
100
AcDbLine
 10
91
 20
0
 11
91
 21
182
  0
LINE
  5
F0
100
AcDbEntity
  8
tatami182
  6
ByLayer
 62
  256
370
   -1
100
AcDbLine
 10
91
 20
91
 11
0
 21
91
  0
LINE
  5
F1
100
AcDbEntity
  8
tatami182
  6
ByLayer
 62
  256
370
   -1
100
AcDbLine
 10
91
 20
0
 11
0
 21
0
  0
LINE
  5
F2
100
AcDbEntity
  8
tatami182
  6
ByLayer
 62
  256
370
   -1
100
AcDbLine
 10
0
 20
0
 11
0
 21
91
  0
LINE
  5
F3
100
AcDbEntity
  8
tatami182
  6
ByLayer
 62
  256
370
   -1
100
AcDbLine
 10
88.5
 20
88.5
 11
88.5
 21
2.5
  0
LINE
  5
F4
100
AcDbEntity
  8
tatami182
  6
ByLayer
 62
  256
370
   -1
100
AcDbLine
 10
2.5
 20
2.5
 11
2.5
 21
88.5
  0
LINE
  5
F5
100
AcDbEntity
  8
tatami182
  6
ByLayer
 62
  256
370
   -1
100
AcDbLine
 10
88.5
 20
88.5
 11
2.5
 21
88.5
  0
LINE
  5
F6
100
AcDbEntity
  8
tatami182
  6
ByLayer
 62
  256
370
   -1
100
AcDbLine
 10
88.5
 20
2.5
 11
2.5
 21
2.5
  0
ENDBLK
  5
66
330
64
100
AcDbEntity
  8
0
100
AcDbBlockEnd
  0
BLOCK
  5
68
330
67
100
AcDbEntity
  8
0
100
AcDbBlockBegin
  2
bedroomVert
 70
    0
 10
0
 20
0
  3
bedroomVert
  1

  0
LINE
  5
F7
100
AcDbEntity
  8
0
  6
ByLayer
 62
  256
370
   -1
100
AcDbLine
 10
0
 20
0
 11
1.13686837722e-13
 21
609.6
  0
LINE
  5
F8
100
AcDbEntity
  8
0
  6
ByLayer
 62
  256
370
   -1
100
AcDbLine
 10
0
 20
0
 11
-243.8
 21
0
  0
LINE
  5
F9
100
AcDbEntity
  8
0
  6
ByLayer
 62
  256
370
   -1
100
AcDbLine
 10
1.13686837722e-13
 20
609.6
 11
-243.8
 21
609.6
  0
LINE
  5
FA
100
AcDbEntity
  8
0
  6
ByLayer
 62
  256
370
   -1
100
AcDbLine
 10
-243.8
 20
0
 11
-243.8
 21
609.6
  0
LINE
  5
FB
100
AcDbEntity
  8
0
  6
ByLayer
 62
  256
370
   -1
100
AcDbLine
 10
-239.4
 20
4.4
 11
-239.4
 21
609.6
  0
LINE
  5
FC
100
AcDbEntity
  8
0
  6
ByLayer
 62
  256
370
   -1
100
AcDbLine
 10
-4.4
 20
4.4
 11
-4.4
 21
609.6
  0
LINE
  5
FD
100
AcDbEntity
  8
0
  6
ByLayer
 62
  256
370
   -1
100
AcDbLine
 10
-4.4
 20
4.4
 11
-239.4
 21
4.4
  0
LINE
  5
FE
100
AcDbEntity
  8
0
  6
ByLayer
 62
  256
370
   -1
100
AcDbLine
 10
-243.8
 20
611.6
 11
-243.8
 21
728.6
  0
LINE
  5
FF
100
AcDbEntity
  8
0
  6
ByLayer
 62
  256
370
   -1
100
AcDbLine
 10
-239.8
 20
611.6
 11
-239.8
 21
728.6
  0
LINE
  5
100
100
AcDbEntity
  8
0
  6
ByLayer
 62
  256
370
   -1
100
AcDbLine
 10
1.13686837722e-13
 20
611.6
 11
1.13686837722e-13
 21
728.6
  0
LINE
  5
101
100
AcDbEntity
  8
0
  6
ByLayer
 62
  256
370
   -1
100
AcDbLine
 10
-4
 20
611.6
 11
-4
 21
728.6
  0
LINE
  5
102
100
AcDbEntity
  8
0
  6
ByLayer
 62
  256
370
   -1
100
AcDbLine
 10
-243.8
 20
728.6
 11
-239.8
 21
728.6
  0
LINE
  5
103
100
AcDbEntity
  8
0
  6
ByLayer
 62
  256
370
   -1
100
AcDbLine
 10
-243.8
 20
611.6
 11
-239.8
 21
611.6
  0
LINE
  5
104
100
AcDbEntity
  8
0
  6
ByLayer
 62
  256
370
   -1
100
AcDbLine
 10
1.13686837722e-13
 20
728.6
 11
-4
 21
728.6
  0
LINE
  5
105
100
AcDbEntity
  8
0
  6
ByLayer
 62
  256
370
   -1
100
AcDbLine
 10
-4.4
 20
593.6
 11
-239.4
 21
593.6
  0
LINE
  5
106
100
AcDbEntity
  8
walls
  6
ByLayer
 62
  256
370
   -1
100
AcDbLine
 10
-234.4
 20
9.4
 11
-234.4
 21
609.6
  0
LINE
  5
107
100
AcDbEntity
  8
walls
  6
ByLayer
 62
  256
370
   -1
100
AcDbLine
 10
-9.4
 20
9.4
 11
-9.4
 21
609.6
  0
LINE
  5
108
100
AcDbEntity
  8
walls
  6
ByLayer
 62
  256
370
   -1
100
AcDbLine
 10
-9.4
 20
9.4
 11
-234.4
 21
9.4
  0
LINE
  5
109
100
AcDbEntity
  8
doors
  6
ByLayer
 62
  256
370
   -1
100
AcDbLine
 10
-234.4
 20
599.6
 11
-234.4
 21
604.6
  0
LINE
  5
10A
100
AcDbEntity
  8
doors
  6
ByLayer
 62
  256
370
   -1
100
AcDbLine
 10
-234.4
 20
604.6
 11
-121.9
 21
604.6
  0
LINE
  5
10B
100
AcDbEntity
  8
doors
  6
ByLayer
 62
  256
370
   -1
100
AcDbLine
 10
-121.9
 20
604.6
 11
-121.9
 21
599.6
  0
LINE
  5
10C
100
AcDbEntity
  8
doors
  6
ByLayer
 62
  256
370
   -1
100
AcDbLine
 10
-121.9
 20
599.6
 11
-234.4
 21
599.6
  0
LINE
  5
10D
100
AcDbEntity
  8
doors
  6
ByLayer
 62
  256
370
   -1
100
AcDbLine
 10
-121.9
 20
599.6
 11
-121.9
 21
594.6
  0
LINE
  5
10E
100
AcDbEntity
  8
doors
  6
ByLayer
 62
  256
370
   -1
100
AcDbLine
 10
-121.9
 20
594.6
 11
-9.4
 21
594.6
  0
LINE
  5
10F
100
AcDbEntity
  8
doors
  6
ByLayer
 62
  256
370
   -1
100
AcDbLine
 10
-9.4
 20
594.6
 11
-9.4
 21
599.6
  0
LINE
  5
110
100
AcDbEntity
  8
doors
  6
ByLayer
 62
  256
370
   -1
100
AcDbLine
 10
-9.4
 20
599.6
 11
-121.9
 21
599.6
  0
LINE
  5
111
100
AcDbEntity
  8
cabinates
  6
ByLayer
 62
  256
370
   -1
100
AcDbLine
 10
-9.4
 20
89.40000000000001
 11
-234.4
 21
89.40000000000001
  0
LINE
  5
112
100
AcDbEntity
  8
doors
  6
ByLayer
 62
  256
370
   -1
100
AcDbLine
 10
-234.4
 20
92.90000000000001
 11
-234.4
 21
95.40000000000001
  0
LINE
  5
113
100
AcDbEntity
  8
doors
  6
ByLayer
 62
  256
370
   -1
100
AcDbLine
 10
-234.4
 20
95.40000000000001
 11
-121.9
 21
95.40000000000001
  0
LINE
  5
114
100
AcDbEntity
  8
doors
  6
ByLayer
 62
  256
370
   -1
100
AcDbLine
 10
-121.9
 20
95.40000000000001
 11
-121.9
 21
92.90000000000001
  0
LINE
  5
115
100
AcDbEntity
  8
doors
  6
ByLayer
 62
  256
370
   -1
100
AcDbLine
 10
-121.9
 20
92.90000000000001
 11
-234.4
 21
92.90000000000001
  0
LINE
  5
116
100
AcDbEntity
  8
doors
  6
ByLayer
 62
  256
370
   -1
100
AcDbLine
 10
-121.9
 20
92.40000000000001
 11
-121.9
 21
89.90000000000001
  0
LINE
  5
117
100
AcDbEntity
  8
doors
  6
ByLayer
 62
  256
370
   -1
100
AcDbLine
 10
-121.9
 20
89.90000000000001
 11
-9.4
 21
89.90000000000001
  0
LINE
  5
118
100
AcDbEntity
  8
doors
  6
ByLayer
 62
  256
370
   -1
100
AcDbLine
 10
-9.4
 20
89.90000000000001
 11
-9.4
 21
92.40000000000001
  0
LINE
  5
119
100
AcDbEntity
  8
doors
  6
ByLayer
 62
  256
370
   -1
100
AcDbLine
 10
-9.4
 20
92.40000000000001
 11
-121.9
 21
92.40000000000001
  0
LINE
  5
11A
100
AcDbEntity
  8
cabinates
  6
ByLayer
 62
  256
370
   -1
100
AcDbLine
 10
-9.4
 20
79.40000000000001
 11
-234.4
 21
79.40000000000001
  0
MTEXT
  5
11B
100
AcDbEntity
  8
text
  6
ByLayer
 62
  256
370
   -1
100
AcDbMText
 10
-186.079101563
 20
18.125
 30
0
 40
5
 41
59.16667180953912
 71
    1
 72
    1
  1
closet for futons
  7
standard
210
0
220
0
230
1
 50
90
 73
    2
 44
1
  0
LINE
  5
11C
100
AcDbEntity
  8
tatami182
  6
ByLayer
 62
  256
370
   -1
100
AcDbLine
 10
-212.9
 20
571.9
 11
-30.9
 21
571.9
  0
LINE
  5
11D
100
AcDbEntity
  8
tatami182
  6
ByLayer
 62
  256
370
   -1
100
AcDbLine
 10
-30.9
 20
571.9
 11
-30.9
 21
480.9
  0
LINE
  5
11E
100
AcDbEntity
  8
tatami182
  6
ByLayer
 62
  256
370
   -1
100
AcDbLine
 10
-212.9
 20
480.9
 11
-212.9
 21
571.9
  0
LINE
  5
11F
100
AcDbEntity
  8
tatami182
  6
ByLayer
 62
  256
370
   -1
100
AcDbLine
 10
-212.9
 20
480.9
 11
-121.9
 21
480.9
  0
LINE
  5
120
100
AcDbEntity
  8
tatami182
  6
ByLayer
 62
  256
370
   -1
100
AcDbLine
 10
-121.9
 20
389.9
 11
-212.9
 21
389.9
  0
LINE
  5
121
100
AcDbEntity
  8
tatami182
  6
ByLayer
 62
  256
370
   -1
100
AcDbLine
 10
-212.9
 20
389.9
 11
-212.9
 21
480.9
  0
LINE
  5
122
100
AcDbEntity
  8
tatami182
  6
ByLayer
 62
  256
370
   -1
100
AcDbLine
 10
-121.9
 20
480.9
 11
-30.9
 21
480.9
  0
LINE
  5
123
100
AcDbEntity
  8
tatami182
  6
ByLayer
 62
  256
370
   -1
100
AcDbLine
 10
-121.9
 20
389.9
 11
-121.9
 21
480.9
  0
LINE
  5
124
100
AcDbEntity
  8
tatami182
  6
ByLayer
 62
  256
370
   -1
100
AcDbLine
 10
-212.9
 20
389.9
 11
-30.9
 21
389.9
  0
LINE
  5
125
100
AcDbEntity
  8
tatami182
  6
ByLayer
 62
  256
370
   -1
100
AcDbLine
 10
-30.9
 20
389.9
 11
-30.9
 21
298.9
  0
LINE
  5
126
100
AcDbEntity
  8
tatami182
  6
ByLayer
 62
  256
370
   -1
100
AcDbLine
 10
-30.9
 20
298.9
 11
-212.9
 21
298.9
  0
LINE
  5
127
100
AcDbEntity
  8
tatami182
  6
ByLayer
 62
  256
370
   -1
100
AcDbLine
 10
-212.9
 20
298.9
 11
-212.9
 21
389.9
  0
LINE
  5
128
100
AcDbEntity
  8
tatami182
  6
ByLayer
 62
  256
370
   -1
100
AcDbLine
 10
-212.9
 20
298.9
 11
-121.9
 21
298.9
  0
LINE
  5
129
100
AcDbEntity
  8
tatami182
  6
ByLayer
 62
  256
370
   -1
100
AcDbLine
 10
-121.9
 20
298.9
 11
-121.9
 21
207.9
  0
LINE
  5
12A
100
AcDbEntity
  8
tatami182
  6
ByLayer
 62
  256
370
   -1
100
AcDbLine
 10
-212.9
 20
207.9
 11
-212.9
 21
298.9
  0
LINE
  5
12B
100
AcDbEntity
  8
tatami182
  6
ByLayer
 62
  256
370
   -1
100
AcDbLine
 10
-121.9
 20
207.9
 11
-121.9
 21
298.9
  0
LINE
  5
12C
100
AcDbEntity
  8
tatami182
  6
ByLayer
 62
  256
370
   -1
100
AcDbLine
 10
-121.9
 20
298.9
 11
-30.9
 21
298.9
  0
LINE
  5
12D
100
AcDbEntity
  8
tatami182
  6
ByLayer
 62
  256
370
   -1
100
AcDbLine
 10
-30.9
 20
298.9
 11
-30.9
 21
207.9
  0
LINE
  5
12E
100
AcDbEntity
  8
tatami182
  6
ByLayer
 62
  256
370
   -1
100
AcDbLine
 10
-212.9
 20
207.9
 11
-30.9
 21
207.9
  0
LINE
  5
12F
100
AcDbEntity
  8
tatami182
  6
ByLayer
 62
  256
370
   -1
100
AcDbLine
 10
-121.9
 20
387.4
 11
-210.4
 21
387.4
  0
LINE
  5
130
100
AcDbEntity
  8
tatami182
  6
ByLayer
 62
  256
370
   -1
100
AcDbLine
 10
-33.4
 20
301.4
 11
-210.4
 21
301.4
  0
LINE
  5
131
100
AcDbEntity
  8
tatami182
  6
ByLayer
 62
  256
370
   -1
100
AcDbLine
 10
-33.4
 20
387.4
 11
-121.9
 21
387.4
  0
LINE
  5
132
100
AcDbEntity
  8
tatami182
  6
ByLayer
 62
  256
370
   -1
100
AcDbLine
 10
-33.4
 20
483.4
 11
-210.4
 21
483.4
  0
LINE
  5
133
100
AcDbEntity
  8
tatami182
  6
ByLayer
 62
  256
370
   -1
100
AcDbLine
 10
-210.4
 20
569.4
 11
-33.4
 21
569.4
  0
LINE
  5
134
100
AcDbEntity
  8
tatami182
  6
ByLayer
 62
  256
370
   -1
100
AcDbLine
 10
-33.4
 20
569.4
 11
-33.4
 21
483.4
  0
LINE
  5
135
100
AcDbEntity
  8
tatami182
  6
ByLayer
 62
  256
370
   -1
100
AcDbLine
 10
-210.4
 20
483.4
 11
-210.4
 21
569.4
  0
LINE
  5
136
100
AcDbEntity
  8
tatami182
  6
ByLayer
 62
  256
370
   -1
100
AcDbLine
 10
-124.4
 20
392.4
 11
-210.4
 21
392.4
  0
LINE
  5
137
100
AcDbEntity
  8
tatami182
  6
ByLayer
 62
  256
370
   -1
100
AcDbLine
 10
-124.4
 20
478.4
 11
-210.4
 21
478.4
  0
LINE
  5
138
100
AcDbEntity
  8
tatami182
  6
ByLayer
 62
  256
370
   -1
100
AcDbLine
 10
-124.4
 20
478.4
 11
-124.4
 21
392.4
  0
LINE
  5
139
100
AcDbEntity
  8
tatami182
  6
ByLayer
 62
  256
370
   -1
100
AcDbLine
 10
-33.4
 20
387.4
 11
-33.4
 21
301.4
  0
LINE
  5
13A
100
AcDbEntity
  8
tatami182
  6
ByLayer
 62
  256
370
   -1
100
AcDbLine
 10
-210.4
 20
392.4
 11
-210.4
 21
478.4
  0
LINE
  5
13B
100
AcDbEntity
  8
tatami182
  6
ByLayer
 62
  256
370
   -1
100
AcDbLine
 10
-210.4
 20
301.4
 11
-210.4
 21
387.4
  0
LINE
  5
13C
100
AcDbEntity
  8
tatami182
  6
ByLayer
 62
  256
370
   -1
100
AcDbLine
 10
-124.4
 20
296.4
 11
-210.4
 21
296.4
  0
LINE
  5
13D
100
AcDbEntity
  8
tatami182
  6
ByLayer
 62
  256
370
   -1
100
AcDbLine
 10
-119.4
 20
296.4
 11
-33.4
 21
296.4
  0
LINE
  5
13E
100
AcDbEntity
  8
tatami182
  6
ByLayer
 62
  256
370
   -1
100
AcDbLine
 10
-33.4
 20
296.4
 11
-33.4
 21
210.4
  0
LINE
  5
13F
100
AcDbEntity
  8
tatami182
  6
ByLayer
 62
  256
370
   -1
100
AcDbLine
 10
-119.4
 20
296.4
 11
-119.4
 21
210.4
  0
LINE
  5
140
100
AcDbEntity
  8
tatami182
  6
ByLayer
 62
  256
370
   -1
100
AcDbLine
 10
-124.4
 20
296.4
 11
-124.4
 21
210.4
  0
LINE
  5
141
100
AcDbEntity
  8
tatami182
  6
ByLayer
 62
  256
370
   -1
100
AcDbLine
 10
-124.4
 20
210.4
 11
-210.4
 21
210.4
  0
LINE
  5
142
100
AcDbEntity
  8
tatami182
  6
ByLayer
 62
  256
370
   -1
100
AcDbLine
 10
-33.4
 20
210.4
 11
-119.4
 21
210.4
  0
LINE
  5
143
100
AcDbEntity
  8
tatami182
  6
ByLayer
 62
  256
370
   -1
100
AcDbLine
 10
-210.4
 20
210.4
 11
-210.4
 21
296.4
  0
INSERT
  5
144
100
AcDbEntity
  8
tatami182
  6
ByLayer
 62
  256
370
   -1
100
AcDbBlockReference
  2
tatami182vert-0
 10
-30.9
 20
116.9
 30
0
 41
1
 42
1
 43
0
 50
90
 70
    1
 71
    1
 44
0
 45
0
  0
INSERT
  5
145
100
AcDbEntity
  8
tatami182
  6
ByLayer
 62
  256
370
   -1
100
AcDbBlockReference
  2
tatami182Half-0
 10
-30.9
 20
389.9
 30
0
 41
1
 42
1
 43
0
 50
90
 70
    1
 71
    1
 44
0
 45
0
  0
ENDBLK
  5
69
330
67
100
AcDbEntity
  8
0
100
AcDbBlockEnd
  0
BLOCK
  5
6B
330
6A
100
AcDbEntity
  8
0
100
AcDbBlockBegin
  2
refer-2
 70
    0
 10
0
 20
0
  3
refer-2
  1

  0
LINE
  5
146
100
AcDbEntity
  8
fixtures
  6
ByLayer
 62
  256
370
   -1
100
AcDbLine
 10
0
 20
0
 11
0
 21
-55
  0
LINE
  5
147
100
AcDbEntity
  8
fixtures
  6
ByLayer
 62
  256
370
   -1
100
AcDbLine
 10
-60
 20
0
 11
-60
 21
-55
  0
LINE
  5
148
100
AcDbEntity
  8
fixtures
  6
ByLayer
 62
  256
370
   -1
100
AcDbLine
 10
0
 20
-50
 11
-60
 21
-50
  0
LINE
  5
149
100
AcDbEntity
  8
fixtures
  6
ByLayer
 62
  256
370
   -1
100
AcDbLine
 10
0
 20
0
 11
-60
 21
0
  0
ARC
  5
14A
100
AcDbEntity
  8
fixtures
  6
ByLayer
 62
  256
370
   -1
100
AcDbCircle
 10
-30
 20
68.96922113719999
 40
127.54751189
100
AcDbArc
 50
256.396206231
 51
283.603793769
  0
LINE
  5
14B
100
AcDbEntity
  8
fixtures
  6
ByLayer
 62
  256
370
   -1
100
AcDbLine
 10
0
 20
-51
 11
-60
 21
-51
  0
MTEXT
  5
14C
100
AcDbEntity
  8
fixtures
  6
ByLayer
 62
  256
370
   -1
100
AcDbMText
 10
-57.2722082099
 20
-19.3598590569
 30
0
 40
20
 41
53.33333333333334
 71
    4
 72
    5
  1
Refr
  7
iso
210
0
220
0
230
1
 50
360
 73
    1
 44
0.96
  0
ENDBLK
  5
6C
330
6A
100
AcDbEntity
  8
0
100
AcDbBlockEnd
  0
BLOCK
  5
6E
330
6D
100
AcDbEntity
  8
0
100
AcDbBlockBegin
  2
sink-2
 70
    0
 10
0
 20
0
  3
sink-2
  1

  0
ARC
  5
14D
100
AcDbEntity
  8
fixtures
  6
ByLayer
 62
  256
370
   -1
100
AcDbCircle
 10
4.00260191002
 20
0.99739808998
 40
4.125
100
AcDbArc
 50
76.00758300690001
 51
193.992416993
  0
ARC
  5
14E
100
AcDbEntity
  8
fixtures
  6
ByLayer
 62
  256
370
   -1
100
AcDbCircle
 10
30.99739809
 20
0.99739808998
 40
4.125
100
AcDbArc
 50
346.007583007
 51
103.992416993
  0
ARC
  5
14F
100
AcDbEntity
  8
fixtures
  6
ByLayer
 62
  256
370
   -1
100
AcDbCircle
 10
30.99739809
 20
-20.99739809
 40
4.125
100
AcDbArc
 50
256.007583007
 51
13.9924169931
  0
ARC
  5
150
100
AcDbEntity
  8
fixtures
  6
ByLayer
 62
  256
370
   -1
100
AcDbCircle
 10
30.99739809
 20
-35.00260191
 40
4.125
100
AcDbArc
 50
346.007583007
 51
103.992416993
  0
ARC
  5
151
100
AcDbEntity
  8
fixtures
  6
ByLayer
 62
  256
370
   -1
100
AcDbCircle
 10
4.00260191002
 20
-20.99739809
 40
4.125
100
AcDbArc
 50
166.007583007
 51
283.992416993
  0
ARC
  5
152
100
AcDbEntity
  8
fixtures
  6
ByLayer
 62
  256
370
   -1
100
AcDbCircle
 10
4.00260191002
 20
-35.00260191
 40
4.125
100
AcDbArc
 50
76.00758300690001
 51
193.992416993
  0
ARC
  5
153
100
AcDbEntity
  8
fixtures
  6
ByLayer
 62
  256
370
   -1
100
AcDbCircle
 10
30.99739809
 20
-56.99739809
 40
4.125
100
AcDbArc
 50
256.007583007
 51
13.9924169931
  0
ARC
  5
154
100
AcDbEntity
  8
fixtures
  6
ByLayer
 62
  256
370
   -1
100
AcDbCircle
 10
4.00260191002
 20
-56.99739809
 40
4.125
100
AcDbArc
 50
166.007583007
 51
283.992416993
  0
LINE
  5
155
100
AcDbEntity
  8
fixtures
  6
ByLayer
 62
  256
370
   -1
100
AcDbLine
 10
30
 20
-25
 11
5
 21
-25
  0
LINE
  5
156
100
AcDbEntity
  8
fixtures
  6
ByLayer
 62
  256
370
   -1
100
AcDbLine
 10
5
 20
5
 11
30
 21
5
  0
LINE
  5
157
100
AcDbEntity
  8
fixtures
  6
ByLayer
 62
  256
370
   -1
100
AcDbLine
 10
5
 20
-31
 11
30
 21
-31
  0
LINE
  5
158
100
AcDbEntity
  8
fixtures
  6
ByLayer
 62
  256
370
   -1
100
AcDbLine
 10
30
 20
-61
 11
5
 21
-61
  0
LINE
  5
159
100
AcDbEntity
  8
fixtures
  6
ByLayer
 62
  256
370
   -1
100
AcDbLine
 10
35
 20
-36
 11
35
 21
-56
  0
LINE
  5
15A
100
AcDbEntity
  8
fixtures
  6
ByLayer
 62
  256
370
   -1
100
AcDbLine
 10
0
 20
-56
 11
0
 21
-36
  0
LINE
  5
15B
100
AcDbEntity
  8
fixtures
  6
ByLayer
 62
  256
370
   -1
100
AcDbLine
 10
0
 20
-20
 11
0
 21
1.3073986338e-12
  0
LINE
  5
15C
100
AcDbEntity
  8
fixtures
  6
ByLayer
 62
  256
370
   -1
100
AcDbLine
 10
35
 20
1.3073986338e-12
 11
35
 21
-20
  0
ENDBLK
  5
6F
330
6D
100
AcDbEntity
  8
0
100
AcDbBlockEnd
  0
BLOCK
  5
71
330
70
100
AcDbEntity
  8
0
100
AcDbBlockBegin
  2
stove-2
 70
    0
 10
0
 20
0
  3
stove-2
  1

  0
LINE
  5
15D
100
AcDbEntity
  8
fixtures
  6
ByLayer
 62
  256
370
   -1
100
AcDbLine
 10
0
 20
62
 11
64
 21
62
  0
LINE
  5
15E
100
AcDbEntity
  8
fixtures
  6
ByLayer
 62
  256
370
   -1
100
AcDbLine
 10
64
 20
62
 11
64
 21
0
  0
LINE
  5
15F
100
AcDbEntity
  8
fixtures
  6
ByLayer
 62
  256
370
   -1
100
AcDbLine
 10
64
 20
0
 11
0
 21
0
  0
LINE
  5
160
100
AcDbEntity
  8
fixtures
  6
ByLayer
 62
  256
370
   -1
100
AcDbLine
 10
0
 20
0
 11
0
 21
62
  0
CIRCLE
  5
161
100
AcDbEntity
  8
fixtures
  6
ByLayer
 62
  256
370
   -1
100
AcDbCircle
 10
17
 20
21.954456
 40
10
  0
CIRCLE
  5
162
100
AcDbEntity
  8
fixtures
  6
ByLayer
 62
  256
370
   -1
100
AcDbCircle
 10
47
 20
21.954456
 40
7
  0
CIRCLE
  5
163
100
AcDbEntity
  8
fixtures
  6
ByLayer
 62
  256
370
   -1
100
AcDbCircle
 10
47
 20
46.954456
 40
10
  0
CIRCLE
  5
164
100
AcDbEntity
  8
fixtures
  6
ByLayer
 62
  256
370
   -1
100
AcDbCircle
 10
17
 20
46.954456
 40
7
  0
LINE
  5
165
100
AcDbEntity
  8
fixtures
  6
ByLayer
 62
  256
370
   -1
100
AcDbLine
 10
0
 20
6
 11
64
 21
6
  0
ENDBLK
  5
72
330
70
100
AcDbEntity
  8
0
100
AcDbBlockEnd
  0
BLOCK
  5
74
330
73
100
AcDbEntity
  8
0
100
AcDbBlockBegin
  2
refer
 70
    0
 10
0
 20
0
  3
refer
  1

  0
LINE
  5
166
100
AcDbEntity
  8
fixtures
  6
ByLayer
 62
  256
370
   -1
100
AcDbLine
 10
0
 20
0
 11
0
 21
-55
  0
LINE
  5
167
100
AcDbEntity
  8
fixtures
  6
ByLayer
 62
  256
370
   -1
100
AcDbLine
 10
-60
 20
0
 11
-60
 21
-55
  0
LINE
  5
168
100
AcDbEntity
  8
fixtures
  6
ByLayer
 62
  256
370
   -1
100
AcDbLine
 10
0
 20
-50
 11
-60
 21
-50
  0
LINE
  5
169
100
AcDbEntity
  8
fixtures
  6
ByLayer
 62
  256
370
   -1
100
AcDbLine
 10
0
 20
0
 11
-60
 21
0
  0
ARC
  5
16A
100
AcDbEntity
  8
fixtures
  6
ByLayer
 62
  256
370
   -1
100
AcDbCircle
 10
-30
 20
68.96922113719999
 40
127.54751189
100
AcDbArc
 50
256.396206231
 51
283.603793769
  0
LINE
  5
16B
100
AcDbEntity
  8
fixtures
  6
ByLayer
 62
  256
370
   -1
100
AcDbLine
 10
0
 20
-51
 11
-60
 21
-51
  0
MTEXT
  5
16C
100
AcDbEntity
  8
fixtures
  6
ByLayer
 62
  256
370
   -1
100
AcDbMText
 10
-57.2722082099
 20
-19.3598590569
 30
0
 40
20
 41
53.33333333333334
 71
    4
 72
    5
  1
Refr
  7
iso
210
0
220
0
230
1
 50
360
 73
    1
 44
0.96
  0
ENDBLK
  5
75
330
73
100
AcDbEntity
  8
0
100
AcDbBlockEnd
  0
BLOCK
  5
77
330
76
100
AcDbEntity
  8
0
100
AcDbBlockBegin
  2
sink
 70
    0
 10
0
 20
0
  3
sink
  1

  0
ARC
  5
16D
100
AcDbEntity
  8
fixtures
  6
ByLayer
 62
  256
370
   -1
100
AcDbCircle
 10
4.00260191002
 20
0.99739808998
 40
4.125
100
AcDbArc
 50
76.00758300690001
 51
193.992416993
  0
ARC
  5
16E
100
AcDbEntity
  8
fixtures
  6
ByLayer
 62
  256
370
   -1
100
AcDbCircle
 10
30.99739809
 20
0.99739808998
 40
4.125
100
AcDbArc
 50
346.007583007
 51
103.992416993
  0
ARC
  5
16F
100
AcDbEntity
  8
fixtures
  6
ByLayer
 62
  256
370
   -1
100
AcDbCircle
 10
30.99739809
 20
-20.99739809
 40
4.125
100
AcDbArc
 50
256.007583007
 51
13.9924169931
  0
ARC
  5
170
100
AcDbEntity
  8
fixtures
  6
ByLayer
 62
  256
370
   -1
100
AcDbCircle
 10
30.99739809
 20
-35.00260191
 40
4.125
100
AcDbArc
 50
346.007583007
 51
103.992416993
  0
ARC
  5
171
100
AcDbEntity
  8
fixtures
  6
ByLayer
 62
  256
370
   -1
100
AcDbCircle
 10
4.00260191002
 20
-20.99739809
 40
4.125
100
AcDbArc
 50
166.007583007
 51
283.992416993
  0
ARC
  5
172
100
AcDbEntity
  8
fixtures
  6
ByLayer
 62
  256
370
   -1
100
AcDbCircle
 10
4.00260191002
 20
-35.00260191
 40
4.125
100
AcDbArc
 50
76.00758300690001
 51
193.992416993
  0
ARC
  5
173
100
AcDbEntity
  8
fixtures
  6
ByLayer
 62
  256
370
   -1
100
AcDbCircle
 10
30.99739809
 20
-56.99739809
 40
4.125
100
AcDbArc
 50
256.007583007
 51
13.9924169931
  0
ARC
  5
174
100
AcDbEntity
  8
fixtures
  6
ByLayer
 62
  256
370
   -1
100
AcDbCircle
 10
4.00260191002
 20
-56.99739809
 40
4.125
100
AcDbArc
 50
166.007583007
 51
283.992416993
  0
LINE
  5
175
100
AcDbEntity
  8
fixtures
  6
ByLayer
 62
  256
370
   -1
100
AcDbLine
 10
30
 20
-25
 11
5
 21
-25
  0
LINE
  5
176
100
AcDbEntity
  8
fixtures
  6
ByLayer
 62
  256
370
   -1
100
AcDbLine
 10
5
 20
5
 11
30
 21
5
  0
LINE
  5
177
100
AcDbEntity
  8
fixtures
  6
ByLayer
 62
  256
370
   -1
100
AcDbLine
 10
5
 20
-31
 11
30
 21
-31
  0
LINE
  5
178
100
AcDbEntity
  8
fixtures
  6
ByLayer
 62
  256
370
   -1
100
AcDbLine
 10
30
 20
-61
 11
5
 21
-61
  0
LINE
  5
179
100
AcDbEntity
  8
fixtures
  6
ByLayer
 62
  256
370
   -1
100
AcDbLine
 10
35
 20
-36
 11
35
 21
-56
  0
LINE
  5
17A
100
AcDbEntity
  8
fixtures
  6
ByLayer
 62
  256
370
   -1
100
AcDbLine
 10
0
 20
-56
 11
0
 21
-36
  0
LINE
  5
17B
100
AcDbEntity
  8
fixtures
  6
ByLayer
 62
  256
370
   -1
100
AcDbLine
 10
0
 20
-20
 11
0
 21
1.3073986338e-12
  0
LINE
  5
17C
100
AcDbEntity
  8
fixtures
  6
ByLayer
 62
  256
370
   -1
100
AcDbLine
 10
35
 20
1.3073986338e-12
 11
35
 21
-20
  0
ENDBLK
  5
78
330
76
100
AcDbEntity
  8
0
100
AcDbBlockEnd
  0
BLOCK
  5
7A
330
79
100
AcDbEntity
  8
0
100
AcDbBlockBegin
  2
stove
 70
    0
 10
0
 20
0
  3
stove
  1

  0
LINE
  5
17D
100
AcDbEntity
  8
fixtures
  6
ByLayer
 62
  256
370
   -1
100
AcDbLine
 10
0
 20
62
 11
64
 21
62
  0
LINE
  5
17E
100
AcDbEntity
  8
fixtures
  6
ByLayer
 62
  256
370
   -1
100
AcDbLine
 10
64
 20
62
 11
64
 21
0
  0
LINE
  5
17F
100
AcDbEntity
  8
fixtures
  6
ByLayer
 62
  256
370
   -1
100
AcDbLine
 10
64
 20
0
 11
0
 21
0
  0
LINE
  5
180
100
AcDbEntity
  8
fixtures
  6
ByLayer
 62
  256
370
   -1
100
AcDbLine
 10
0
 20
0
 11
0
 21
62
  0
CIRCLE
  5
181
100
AcDbEntity
  8
fixtures
  6
ByLayer
 62
  256
370
   -1
100
AcDbCircle
 10
17
 20
21.954456
 40
10
  0
CIRCLE
  5
182
100
AcDbEntity
  8
fixtures
  6
ByLayer
 62
  256
370
   -1
100
AcDbCircle
 10
47
 20
21.954456
 40
7
  0
CIRCLE
  5
183
100
AcDbEntity
  8
fixtures
  6
ByLayer
 62
  256
370
   -1
100
AcDbCircle
 10
47
 20
46.954456
 40
10
  0
CIRCLE
  5
184
100
AcDbEntity
  8
fixtures
  6
ByLayer
 62
  256
370
   -1
100
AcDbCircle
 10
17
 20
46.954456
 40
7
  0
LINE
  5
185
100
AcDbEntity
  8
fixtures
  6
ByLayer
 62
  256
370
   -1
100
AcDbLine
 10
0
 20
6
 11
64
 21
6
  0
ENDBLK
  5
7B
330
79
100
AcDbEntity
  8
0
100
AcDbBlockEnd
  0
BLOCK
  5
7D
330
7C
100
AcDbEntity
  8
0
100
AcDbBlockBegin
  2
tatami182vert
 70
    0
 10
0
 20
0
  3
tatami182vert
  1

  0
LINE
  5
186
100
AcDbEntity
  8
tatami182
  6
ByLayer
 62
  256
370
   -1
100
AcDbLine
 10
91
 20
91
 11
91
 21
182
  0
LINE
  5
187
100
AcDbEntity
  8
tatami182
  6
ByLayer
 62
  256
370
   -1
100
AcDbLine
 10
91
 20
0
 11
91
 21
91
  0
LINE
  5
188
100
AcDbEntity
  8
tatami182
  6
ByLayer
 62
  256
370
   -1
100
AcDbLine
 10
91
 20
0
 11
0
 21
0
  0
LINE
  5
189
100
AcDbEntity
  8
tatami182
  6
ByLayer
 62
  256
370
   -1
100
AcDbLine
 10
0
 20
0
 11
0
 21
182
  0
LINE
  5
18A
100
AcDbEntity
  8
tatami182
  6
ByLayer
 62
  256
370
   -1
100
AcDbLine
 10
0
 20
182
 11
91
 21
182
  0
LINE
  5
18B
100
AcDbEntity
  8
tatami182
  6
ByLayer
 62
  256
370
   -1
100
AcDbLine
 10
88.5
 20
91
 11
88.5
 21
179.5
  0
LINE
  5
18C
100
AcDbEntity
  8
tatami182
  6
ByLayer
 62
  256
370
   -1
100
AcDbLine
 10
2.5
 20
2.5
 11
2.5
 21
179.5
  0
LINE
  5
18D
100
AcDbEntity
  8
tatami182
  6
ByLayer
 62
  256
370
   -1
100
AcDbLine
 10
88.5
 20
2.5
 11
88.5
 21
91
  0
LINE
  5
18E
100
AcDbEntity
  8
tatami182
  6
ByLayer
 62
  256
370
   -1
100
AcDbLine
 10
2.5
 20
179.5
 11
88.5
 21
179.5
  0
LINE
  5
18F
100
AcDbEntity
  8
tatami182
  6
ByLayer
 62
  256
370
   -1
100
AcDbLine
 10
88.5
 20
2.5
 11
2.5
 21
2.5
  0
ENDBLK
  5
7E
330
7C
100
AcDbEntity
  8
0
100
AcDbBlockEnd
  0
BLOCK
  5
80
330
7F
100
AcDbEntity
  8
0
100
AcDbBlockBegin
  2
tatami182Half
 70
    0
 10
0
 20
0
  3
tatami182Half
  1

  0
LINE
  5
190
100
AcDbEntity
  8
tatami182
  6
ByLayer
 62
  256
370
   -1
100
AcDbLine
 10
91
 20
0
 11
91
 21
182
  0
LINE
  5
191
100
AcDbEntity
  8
tatami182
  6
ByLayer
 62
  256
370
   -1
100
AcDbLine
 10
91
 20
91
 11
0
 21
91
  0
LINE
  5
192
100
AcDbEntity
  8
tatami182
  6
ByLayer
 62
  256
370
   -1
100
AcDbLine
 10
91
 20
0
 11
0
 21
0
  0
LINE
  5
193
100
AcDbEntity
  8
tatami182
  6
ByLayer
 62
  256
370
   -1
100
AcDbLine
 10
0
 20
0
 11
0
 21
91
  0
LINE
  5
194
100
AcDbEntity
  8
tatami182
  6
ByLayer
 62
  256
370
   -1
100
AcDbLine
 10
88.5
 20
88.5
 11
88.5
 21
2.5
  0
LINE
  5
195
100
AcDbEntity
  8
tatami182
  6
ByLayer
 62
  256
370
   -1
100
AcDbLine
 10
2.5
 20
2.5
 11
2.5
 21
88.5
  0
LINE
  5
196
100
AcDbEntity
  8
tatami182
  6
ByLayer
 62
  256
370
   -1
100
AcDbLine
 10
88.5
 20
88.5
 11
2.5
 21
88.5
  0
LINE
  5
197
100
AcDbEntity
  8
tatami182
  6
ByLayer
 62
  256
370
   -1
100
AcDbLine
 10
88.5
 20
2.5
 11
2.5
 21
2.5
  0
ENDBLK
  5
81
330
7F
100
AcDbEntity
  8
0
100
AcDbBlockEnd
  0
BLOCK
  5
83
330
82
100
AcDbEntity
  8
0
100
AcDbBlockBegin
  2
slider3000
 70
    0
 10
0
 20
0
  3
slider3000
  1

  0
LINE
  5
198
100
AcDbEntity
  8
doors
  6
ByLayer
 62
  256
370
   -1
100
AcDbLine
 10
-10
 20
-49
 11
-10
 21
-14
  0
LINE
  5
199
100
AcDbEntity
  8
doors
  6
ByLayer
 62
  256
370
   -1
100
AcDbLine
 10
-2988
 20
-49
 11
-10
 21
-49
  0
LINE
  5
19A
100
AcDbEntity
  8
doors
  6
ByLayer
 62
  256
370
   -1
100
AcDbLine
 10
-2988
 20
-49
 11
-2988
 21
-84
  0
LINE
  5
19B
100
AcDbEntity
  8
doors
  6
ByLayer
 62
  256
370
   -1
100
AcDbLine
 10
-1525
 20
-14
 11
-10
 21
-14
  0
LINE
  5
19C
100
AcDbEntity
  8
doors
  6
ByLayer
 62
  256
370
   -1
100
AcDbLine
 10
-2988
 20
-84
 11
-1475
 21
-84
  0
LINE
  5
19D
100
AcDbEntity
  8
doors
  6
ByLayer
 62
  256
370
   -1
100
AcDbLine
 10
-1525
 20
-14
 11
-1525
 21
-49
  0
LINE
  5
19E
100
AcDbEntity
  8
doors
  6
ByLayer
 62
  256
370
   -1
100
AcDbLine
 10
-1475
 20
-49
 11
-1475
 21
-84
  0
ENDBLK
  5
84
330
82
100
AcDbEntity
  8
0
100
AcDbBlockEnd
  0
BLOCK
  5
86
330
85
100
AcDbEntity
  8
0
100
AcDbBlockBegin
  2
6m-container-bedroomUnit-0
 70
    0
 10
0
 20
0
  3
6m-container-bedroomUnit-0
  1

  0
DIMENSION
  5
19F
100
AcDbEntity
  8
dimension
  6
ByLayer
 62
  256
370
   -1
100
AcDbDimension
 10
730.69375
 20
273.2425
 30
0
 11
672.19375
 21
278.6175
 31
0
 70
   32
 71
    5
 72
    0
  3
Standard
 53
0
210
0
220
0
230
1
100
AcDbAlignedDimension
 13
613.69375
 23
246.7375
 33
0
 14
730.69375
 24
246.7375
 34
0
100
AcDbRotatedDimension
  0
DIMENSION
  5
1A0
100
AcDbEntity
  8
dimension
  6
ByLayer
 62
  256
370
   -1
100
AcDbDimension
 10
-50.1242675781
 20
246.7375
 30
0
 11
-55.4992675781
 21
124.8375
 31
0
 70
   32
 71
    5
 72
    0
  3
Standard
 53
0
210
0
220
0
230
1
100
AcDbAlignedDimension
 13
2.09375
 23
2.9375
 33
0
 14
2.09375
 24
246.7375
 34
0
 50
90
100
AcDbRotatedDimension
  0
DIMENSION
  5
1A1
100
AcDbEntity
  8
dimension
  6
ByLayer
 62
  256
370
   -1
100
AcDbDimension
 10
-24.703125
 20
242.3375
 30
0
 11
-30.078125
 21
124.8375
 31
0
 70
   32
 71
    5
 72
    0
  3
Standard
 53
0
210
0
220
0
230
1
100
AcDbAlignedDimension
 13
6.49375
 23
7.3375
 33
0
 14
6.49375
 24
242.3375
 34
0
 50
90
100
AcDbRotatedDimension
  0
LINE
  5
1A2
100
AcDbEntity
  8
0
  6
DOT2
 62
  256
370
   -1
100
AcDbLine
 10
595.69375
 20
7.3375
 11
595.69375
 21
242.3375
  0
LINE
  5
1A3
100
AcDbEntity
  8
wall
  6
ByLayer
 62
  256
370
   -1
100
AcDbLine
 10
11.49375
 20
12.3375
 11
11.49375
 21
237.3375
  0
LINE
  5
1A4
100
AcDbEntity
  8
cabinates
  6
ByLayer
 62
  256
370
   -1
100
AcDbLine
 10
91.49375000000001
 20
12.3375
 11
91.49375000000001
 21
237.3375
  0
LINE
  5
1A5
100
AcDbEntity
  8
cabinates
  6
DOT2
 62
  256
370
   -1
100
AcDbLine
 10
81.49375000000001
 20
12.3375
 11
81.49375000000001
 21
237.3375
  0
MTEXT
  5
1A6
100
AcDbEntity
  8
text
  6
ByLayer
 62
  256
370
   -1
100
AcDbMText
 10
20.21875
 20
189.016601563
 30
0
 40
5
 41
59.16667180953912
 71
    1
 72
    1
  1
closet for futons
  7
standard
210
0
220
0
230
1
 50
0
 73
    2
 44
1
  0
DIMENSION
  5
1A7
100
AcDbEntity
  8
dimension
  6
ByLayer
 62
  256
370
   -1
100
AcDbDimension
 10
91.49375000000001
 20
260.671875
 30
0
 11
51.49375
 21
266.046875
 31
0
 70
   32
 71
    5
 72
    0
  3
Standard
 53
0
210
0
220
0
230
1
100
AcDbAlignedDimension
 13
11.49375
 23
237.3375
 33
0
 14
91.49375000000001
 24
237.3375
 34
0
100
AcDbRotatedDimension
  0
DIMENSION
  5
1A8
100
AcDbEntity
  8
dimension
  6
ByLayer
 62
  256
370
   -1
100
AcDbDimension
 10
611.69375
 20
294.5625
 30
0
 11
306.89375
 21
299.9375
 31
0
 70
   32
 71
    5
 72
    0
  3
Standard
 53
0
210
0
220
0
230
1
100
AcDbAlignedDimension
 13
2.09375
 23
246.7375
 33
0
 14
611.69375
 24
246.7375
 34
0
100
AcDbRotatedDimension
  0
LINE
  5
1A9
100
AcDbEntity
  8
tatami182
  6
ByLayer
 62
  256
370
   -1
100
AcDbLine
 10
573.99375
 20
215.8375
 11
573.99375
 21
33.8375
  0
LINE
  5
1AA
100
AcDbEntity
  8
tatami182
  6
ByLayer
 62
  256
370
   -1
100
AcDbLine
 10
573.99375
 20
33.8375
 11
482.99375
 21
33.8375
  0
LINE
  5
1AB
100
AcDbEntity
  8
tatami182
  6
ByLayer
 62
  256
370
   -1
100
AcDbLine
 10
482.99375
 20
215.8375
 11
573.99375
 21
215.8375
  0
LINE
  5
1AC
100
AcDbEntity
  8
tatami182
  6
ByLayer
 62
  256
370
   -1
100
AcDbLine
 10
482.99375
 20
215.8375
 11
482.99375
 21
124.8375
  0
LINE
  5
1AD
100
AcDbEntity
  8
tatami182
  6
ByLayer
 62
  256
370
   -1
100
AcDbLine
 10
391.99375
 20
124.8375
 11
391.99375
 21
215.8375
  0
LINE
  5
1AE
100
AcDbEntity
  8
tatami182
  6
ByLayer
 62
  256
370
   -1
100
AcDbLine
 10
391.99375
 20
215.8375
 11
482.99375
 21
215.8375
  0
LINE
  5
1AF
100
AcDbEntity
  8
tatami182
  6
ByLayer
 62
  256
370
   -1
100
AcDbLine
 10
482.99375
 20
124.8375
 11
482.99375
 21
33.8375
  0
LINE
  5
1B0
100
AcDbEntity
  8
tatami182
  6
ByLayer
 62
  256
370
   -1
100
AcDbLine
 10
391.99375
 20
124.8375
 11
482.99375
 21
124.8375
  0
LINE
  5
1B1
100
AcDbEntity
  8
tatami182
  6
ByLayer
 62
  256
370
   -1
100
AcDbLine
 10
391.99375
 20
215.8375
 11
391.99375
 21
33.8375
  0
LINE
  5
1B2
100
AcDbEntity
  8
tatami182
  6
ByLayer
 62
  256
370
   -1
100
AcDbLine
 10
391.99375
 20
33.8375
 11
300.99375
 21
33.8375
  0
LINE
  5
1B3
100
AcDbEntity
  8
tatami182
  6
ByLayer
 62
  256
370
   -1
100
AcDbLine
 10
300.99375
 20
33.8375
 11
300.99375
 21
215.8375
  0
LINE
  5
1B4
100
AcDbEntity
  8
tatami182
  6
ByLayer
 62
  256
370
   -1
100
AcDbLine
 10
300.99375
 20
215.8375
 11
391.99375
 21
215.8375
  0
LINE
  5
1B5
100
AcDbEntity
  8
tatami182
  6
ByLayer
 62
  256
370
   -1
100
AcDbLine
 10
300.99375
 20
215.8375
 11
300.99375
 21
124.8375
  0
LINE
  5
1B6
100
AcDbEntity
  8
tatami182
  6
ByLayer
 62
  256
370
   -1
100
AcDbLine
 10
300.99375
 20
124.8375
 11
209.99375
 21
124.8375
  0
LINE
  5
1B7
100
AcDbEntity
  8
tatami182
  6
ByLayer
 62
  256
370
   -1
100
AcDbLine
 10
209.99375
 20
215.8375
 11
300.99375
 21
215.8375
  0
LINE
  5
1B8
100
AcDbEntity
  8
tatami182
  6
ByLayer
 62
  256
370
   -1
100
AcDbLine
 10
209.99375
 20
124.8375
 11
300.99375
 21
124.8375
  0
LINE
  5
1B9
100
AcDbEntity
  8
tatami182
  6
ByLayer
 62
  256
370
   -1
100
AcDbLine
 10
300.99375
 20
124.8375
 11
300.99375
 21
33.8375
  0
LINE
  5
1BA
100
AcDbEntity
  8
tatami182
  6
ByLayer
 62
  256
370
   -1
100
AcDbLine
 10
300.99375
 20
33.8375
 11
209.99375
 21
33.8375
  0
LINE
  5
1BB
100
AcDbEntity
  8
tatami182
  6
ByLayer
 62
  256
370
   -1
100
AcDbLine
 10
209.99375
 20
215.8375
 11
209.99375
 21
33.8375
  0
LINE
  5
1BC
100
AcDbEntity
  8
tatami182
  6
ByLayer
 62
  256
370
   -1
100
AcDbLine
 10
389.49375
 20
124.8375
 11
389.49375
 21
213.3375
  0
LINE
  5
1BD
100
AcDbEntity
  8
tatami182
  6
ByLayer
 62
  256
370
   -1
100
AcDbLine
 10
303.49375
 20
36.3375
 11
303.49375
 21
213.3375
  0
LINE
  5
1BE
100
AcDbEntity
  8
tatami182
  6
ByLayer
 62
  256
370
   -1
100
AcDbLine
 10
389.49375
 20
36.3375
 11
389.49375
 21
124.8375
  0
LINE
  5
1BF
100
AcDbEntity
  8
tatami182
  6
ByLayer
 62
  256
370
   -1
100
AcDbLine
 10
485.49375
 20
36.3375
 11
485.49375
 21
213.3375
  0
LINE
  5
1C0
100
AcDbEntity
  8
tatami182
  6
ByLayer
 62
  256
370
   -1
100
AcDbLine
 10
571.49375
 20
213.3375
 11
571.49375
 21
36.3375
  0
LINE
  5
1C1
100
AcDbEntity
  8
tatami182
  6
ByLayer
 62
  256
370
   -1
100
AcDbLine
 10
571.49375
 20
36.3375
 11
485.49375
 21
36.3375
  0
LINE
  5
1C2
100
AcDbEntity
  8
tatami182
  6
ByLayer
 62
  256
370
   -1
100
AcDbLine
 10
485.49375
 20
213.3375
 11
571.49375
 21
213.3375
  0
LINE
  5
1C3
100
AcDbEntity
  8
tatami182
  6
ByLayer
 62
  256
370
   -1
100
AcDbLine
 10
394.49375
 20
127.3375
 11
394.49375
 21
213.3375
  0
LINE
  5
1C4
100
AcDbEntity
  8
tatami182
  6
ByLayer
 62
  256
370
   -1
100
AcDbLine
 10
480.49375
 20
127.3375
 11
480.49375
 21
213.3375
  0
LINE
  5
1C5
100
AcDbEntity
  8
tatami182
  6
ByLayer
 62
  256
370
   -1
100
AcDbLine
 10
480.49375
 20
127.3375
 11
394.49375
 21
127.3375
  0
LINE
  5
1C6
100
AcDbEntity
  8
tatami182
  6
ByLayer
 62
  256
370
   -1
100
AcDbLine
 10
389.49375
 20
36.3375
 11
303.49375
 21
36.3375
  0
LINE
  5
1C7
100
AcDbEntity
  8
tatami182
  6
ByLayer
 62
  256
370
   -1
100
AcDbLine
 10
394.49375
 20
213.3375
 11
480.49375
 21
213.3375
  0
LINE
  5
1C8
100
AcDbEntity
  8
tatami182
  6
ByLayer
 62
  256
370
   -1
100
AcDbLine
 10
303.49375
 20
213.3375
 11
389.49375
 21
213.3375
  0
LINE
  5
1C9
100
AcDbEntity
  8
tatami182
  6
ByLayer
 62
  256
370
   -1
100
AcDbLine
 10
298.49375
 20
127.3375
 11
298.49375
 21
213.3375
  0
LINE
  5
1CA
100
AcDbEntity
  8
tatami182
  6
ByLayer
 62
  256
370
   -1
100
AcDbLine
 10
298.49375
 20
122.3375
 11
298.49375
 21
36.3375
  0
LINE
  5
1CB
100
AcDbEntity
  8
tatami182
  6
ByLayer
 62
  256
370
   -1
100
AcDbLine
 10
298.49375
 20
36.3375
 11
212.49375
 21
36.3375
  0
LINE
  5
1CC
100
AcDbEntity
  8
tatami182
  6
ByLayer
 62
  256
370
   -1
100
AcDbLine
 10
298.49375
 20
122.3375
 11
212.49375
 21
122.3375
  0
LINE
  5
1CD
100
AcDbEntity
  8
tatami182
  6
ByLayer
 62
  256
370
   -1
100
AcDbLine
 10
298.49375
 20
127.3375
 11
212.49375
 21
127.3375
  0
LINE
  5
1CE
100
AcDbEntity
  8
tatami182
  6
ByLayer
 62
  256
370
   -1
100
AcDbLine
 10
212.49375
 20
127.3375
 11
212.49375
 21
213.3375
  0
LINE
  5
1CF
100
AcDbEntity
  8
tatami182
  6
ByLayer
 62
  256
370
   -1
100
AcDbLine
 10
212.49375
 20
36.3375
 11
212.49375
 21
122.3375
  0
LINE
  5
1D0
100
AcDbEntity
  8
tatami182
  6
ByLayer
 62
  256
370
   -1
100
AcDbLine
 10
212.49375
 20
213.3375
 11
298.49375
 21
213.3375
  0
INSERT
  5
1D1
100
AcDbEntity
  8
tatami182
  6
ByLayer
 62
  256
370
   -1
100
AcDbBlockReference
  2
tatami182vert
 10
118.99375
 20
33.8375
 30
0
 41
1
 42
1
 43
0
 50
0
 70
    1
 71
    1
 44
0
 45
0
  0
INSERT
  5
1D2
100
AcDbEntity
  8
tatami182
  6
ByLayer
 62
  256
370
   -1
100
AcDbBlockReference
  2
tatami182Half
 10
391.99375
 20
33.8375
 30
0
 41
1
 42
1
 43
0
 50
0
 70
    1
 71
    1
 44
0
 45
0
  0
DIMENSION
  5
1D3
100
AcDbEntity
  8
dimension
  6
ByLayer
 62
  256
370
   -1
100
AcDbDimension
 10
601.69375
 20
276.308601616
 30
0
 11
304.09375
 21
281.683601616
 31
0
 70
   32
 71
    5
  3
Standard
 53
0
210
0
220
0
230
1
100
AcDbAlignedDimension
 13
6.49375
 23
242.3375
 33
0
 14
601.69375
 24
237.3375
 34
0
100
AcDbRotatedDimension
  0
LINE
  5
1D4
100
AcDbEntity
  8
doors
  6
ByLayer
 62
  256
370
   -1
100
AcDbLine
 10
601.69375
 20
236.3375
 11
606.69375
 21
236.3375
  0
LINE
  5
1D5
100
AcDbEntity
  8
doors
  6
ByLayer
 62
  256
370
   -1
100
AcDbLine
 10
601.69375
 20
124.8375
 11
601.69375
 21
236.3375
  0
LINE
  5
1D6
100
AcDbEntity
  8
doors
  6
ByLayer
 62
  256
370
   -1
100
AcDbLine
 10
596.69375
 20
13.3375
 11
601.69375
 21
13.3375
  0
LINE
  5
1D7
100
AcDbEntity
  8
doors
  6
ByLayer
 62
  256
370
   -1
100
AcDbLine
 10
601.69375
 20
13.3375
 11
601.69375
 21
124.8375
  0
LINE
  5
1D8
100
AcDbEntity
  8
doors
  6
ByLayer
 62
  256
370
   -1
100
AcDbLine
 10
601.69375
 20
126.3375
 11
596.69375
 21
126.3375
  0
LINE
  5
1D9
100
AcDbEntity
  8
doors
  6
ByLayer
 62
  256
370
   -1
100
AcDbLine
 10
606.69375
 20
123.3375
 11
601.69375
 21
123.3375
  0
LINE
  5
1DA
100
AcDbEntity
  8
doors
  6
ByLayer
 62
  256
370
   -1
100
AcDbLine
 10
606.69375
 20
236.3375
 11
606.69375
 21
123.3375
  0
LINE
  5
1DB
100
AcDbEntity
  8
doors
  6
ByLayer
 62
  256
370
   -1
100
AcDbLine
 10
596.69375
 20
126.3375
 11
596.69375
 21
13.3375
  0
LINE
  5
1DC
100
AcDbEntity
  8
doors
  6
ByLayer
 62
  256
370
   -1
100
AcDbLine
 10
97.49375000000001
 20
123.8375
 11
94.99375000000001
 21
123.8375
  0
LINE
  5
1DD
100
AcDbEntity
  8
doors
  6
ByLayer
 62
  256
370
   -1
100
AcDbLine
 10
94.49375000000001
 20
125.8375
 11
91.99375000000001
 21
125.8375
  0
LINE
  5
1DE
100
AcDbEntity
  8
doors
  6
ByLayer
 62
  256
370
   -1
100
AcDbLine
 10
94.99375000000001
 20
236.3375
 11
97.49375000000001
 21
236.3375
  0
LINE
  5
1DF
100
AcDbEntity
  8
doors
  6
ByLayer
 62
  256
370
   -1
100
AcDbLine
 10
94.99375000000001
 20
123.8375
 11
94.99375000000001
 21
236.3375
  0
LINE
  5
1E0
100
AcDbEntity
  8
doors
  6
ByLayer
 62
  256
370
   -1
100
AcDbLine
 10
97.49375000000001
 20
236.3375
 11
97.49375000000001
 21
123.8375
  0
LINE
  5
1E1
100
AcDbEntity
  8
doors
  6
ByLayer
 62
  256
370
   -1
100
AcDbLine
 10
91.99375000000001
 20
125.8375
 11
91.99375000000001
 21
13.3375
  0
LINE
  5
1E2
100
AcDbEntity
  8
doors
  6
ByLayer
 62
  256
370
   -1
100
AcDbLine
 10
94.49375000000001
 20
13.3375
 11
94.49375000000001
 21
125.8375
  0
LINE
  5
1E3
100
AcDbEntity
  8
doors
  6
ByLayer
 62
  256
370
   -1
100
AcDbLine
 10
91.99375000000001
 20
13.3375
 11
94.49375000000001
 21
13.3375
  0
MTEXT
  5
1E4
100
AcDbEntity
  8
text
  6
ByLayer
 62
  256
370
   -1
100
AcDbMText
 10
587.95308742
 20
117.738751289
 30
0
 40
6
 41
20.66895249881435
 71
    1
 72
    1
  1
slider
  7
standard
210
0
220
0
230
1
 50
90
 73
    2
 44
1
  0
MTEXT
  5
1E5
100
AcDbEntity
  8
text
  6
ByLayer
 62
  256
370
   -1
100
AcDbMText
 10
248.581973235
 20
-64.7853395583
 30
0
 40
10
 41
65.2777777777787
 71
    1
 72
    1
  1
floor plan
  7
standard
210
0
220
0
230
1
 50
0
 73
    2
 44
1
  0
MTEXT
  5
1E6
100
AcDbEntity
  8
text
  6
ByLayer
 62
  256
370
   -1
100
AcDbMText
 10
304.80878658
 20
358.804088879
 30
0
 40
10
 41
91.94825416469152
 71
    1
 72
    1
  1
side elevation
  7
standard
210
0
220
0
230
1
 50
0
 73
    2
 44
1
  0
MTEXT
  5
1E7
100
AcDbEntity
  8
text
  6
ByLayer
 62
  256
370
   -1
100
AcDbMText
 10
60.596827106
 20
395.953861198
 30
0
 40
6
 41
102.1666666666678
 71
    1
 72
    1
  1
container ruff foor level
  7
standard
210
0
220
0
230
1
 50
0
 73
    2
 44
1
  0
MTEXT
  5
1E8
100
AcDbEntity
  8
text
  6
ByLayer
 62
  256
370
   -1
100
AcDbMText
 10
201.151750624
 20
-128.362020931
 30
0
 40
15
 41
273.7500000000051
 71
    1
 72
    1
  1
6m Container Bedroom unit
  7
standard
210
0
220
0
230
1
 50
0
 73
    2
 44
1
  0
MTEXT
  5
1E9
100
AcDbEntity
  8
text
  6
ByLayer
 62
  256
370
   -1
100
AcDbMText
 10
310.798714599
 20
155.399175387
 30
0
 40
10
 41
71.66666666666775
 71
    1
 72
    1
  1
Bed Rm 5T
  7
standard
210
0
220
0
230
1
 50
0
 73
    2
 44
1
  0
LINE
  5
1EA
100
AcDbEntity
  8
doors
  6
ByLayer
 62
  256
370
   -1
100
AcDbLine
 10
534.19375
 20
7.8375
 11
534.19375
 21
11.3375
  0
LINE
  5
1EB
100
AcDbEntity
  8
doors
  6
ByLayer
 62
  256
370
   -1
100
AcDbLine
 10
236.39375
 20
7.8375
 11
534.19375
 21
7.8375
  0
LINE
  5
1EC
100
AcDbEntity
  8
doors
  6
ByLayer
 62
  256
370
   -1
100
AcDbLine
 10
236.39375
 20
7.8375
 11
236.39375
 21
4.3375
  0
LINE
  5
1ED
100
AcDbEntity
  8
doors
  6
ByLayer
 62
  256
370
   -1
100
AcDbLine
 10
382.69375
 20
11.3375
 11
534.19375
 21
11.3375
  0
LINE
  5
1EE
100
AcDbEntity
  8
doors
  6
ByLayer
 62
  256
370
   -1
100
AcDbLine
 10
236.39375
 20
4.3375
 11
387.69375
 21
4.3375
  0
LINE
  5
1EF
100
AcDbEntity
  8
doors
  6
ByLayer
 62
  256
370
   -1
100
AcDbLine
 10
382.69375
 20
11.3375
 11
382.69375
 21
7.8375
  0
LINE
  5
1F0
100
AcDbEntity
  8
doors
  6
ByLayer
 62
  256
370
   -1
100
AcDbLine
 10
387.69375
 20
7.8375
 11
387.69375
 21
4.3375
  0
INSERT
  5
1F1
100
AcDbEntity
  8
doors
  6
ByLayer
 62
  256
370
   -1
100
AcDbBlockReference
  2
slider3000
 10
535.19375
 20
246.7375
 30
0
 41
0.1
 42
0.1
 43
0
 50
0
 70
    1
 71
    1
 44
0
 45
0
  0
LINE
  5
1F2
100
AcDbEntity
  8
wall
  6
ByLayer
 62
  256
370
   -1
100
AcDbLine
 10
535.19375
 20
237.3375
 11
611.69375
 21
237.3375
  0
LINE
  5
1F3
100
AcDbEntity
  8
wall
  6
ByLayer
 62
  256
370
   -1
100
AcDbLine
 10
11.49375
 20
237.3375
 11
235.19375
 21
237.3375
  0
LINE
  5
1F4
100
AcDbEntity
  8
wall
  6
ByLayer
 62
  256
370
   -1
100
AcDbLine
 10
11.49375
 20
12.3375
 11
235.19375
 21
12.3375
  0
LINE
  5
1F5
100
AcDbEntity
  8
wall
  6
ByLayer
 62
  256
370
   -1
100
AcDbLine
 10
535.19375
 20
12.3375
 11
611.69375
 21
12.3375
  0
LINE
  5
1F6
100
AcDbEntity
  8
0
  6
ByLayer
 62
  256
370
   -1
100
AcDbLine
 10
535.19375
 20
7.3375
 11
535.19375
 21
12.3375
  0
LINE
  5
1F7
100
AcDbEntity
  8
0
  6
ByLayer
 62
  256
370
   -1
100
AcDbLine
 10
235.19375
 20
7.3375
 11
235.19375
 21
12.3375
  0
LINE
  5
1F8
100
AcDbEntity
  8
0
  6
ByLayer
 62
  256
370
   -1
100
AcDbLine
 10
235.19375
 20
237.3375
 11
235.19375
 21
242.3375
  0
LINE
  5
1F9
100
AcDbEntity
  8
0
  6
ByLayer
 62
  256
370
   -1
100
AcDbLine
 10
535.19375
 20
237.3375
 11
535.19375
 21
242.3375
  0
LINE
  5
1FA
100
AcDbEntity
  8
container
  6
ByLayer
 62
  256
370
   -1
100
AcDbLine
 10
2.09375
 20
2.9375
 11
2.09375
 21
246.7375
  0
LINE
  5
1FB
100
AcDbEntity
  8
container
  6
ByLayer
 62
  256
370
   -1
100
AcDbLine
 10
611.69375
 20
2.9375
 11
611.69375
 21
246.7375
  0
LINE
  5
1FC
100
AcDbEntity
  8
container
  6
ByLayer
 62
  256
370
   -1
100
AcDbLine
 10
6.49375
 20
7.3375
 11
6.49375
 21
242.3375
  0
LINE
  5
1FD
100
AcDbEntity
  8
container
  6
ByLayer
 62
  256
370
   -1
100
AcDbLine
 10
613.69375
 20
246.7375
 11
730.69375
 21
246.7375
  0
LINE
  5
1FE
100
AcDbEntity
  8
container
  6
ByLayer
 62
  256
370
   -1
100
AcDbLine
 10
613.69375
 20
242.7375
 11
730.69375
 21
242.7375
  0
LINE
  5
1FF
100
AcDbEntity
  8
container
  6
ByLayer
 62
  256
370
   -1
100
AcDbLine
 10
613.69375
 20
2.9375
 11
730.69375
 21
2.9375
  0
LINE
  5
200
100
AcDbEntity
  8
container
  6
ByLayer
 62
  256
370
   -1
100
AcDbLine
 10
613.69375
 20
6.9375
 11
730.69375
 21
6.9375
  0
LINE
  5
201
100
AcDbEntity
  8
container
  6
ByLayer
 62
  256
370
   -1
100
AcDbLine
 10
730.69375
 20
246.7375
 11
730.69375
 21
242.7375
  0
LINE
  5
202
100
AcDbEntity
  8
container
  6
ByLayer
 62
  256
370
   -1
100
AcDbLine
 10
613.69375
 20
246.7375
 11
613.69375
 21
242.7375
  0
LINE
  5
203
100
AcDbEntity
  8
container
  6
ByLayer
 62
  256
370
   -1
100
AcDbLine
 10
730.69375
 20
2.9375
 11
730.69375
 21
6.9375
  0
LINE
  5
204
100
AcDbEntity
  8
container
  6
DASHED2
 62
  256
370
   -1
100
AcDbLine
 10
2.09375
 20
627.629123755
 11
611.69375
 21
627.629123755
  0
LINE
  5
205
100
AcDbEntity
  8
container
  6
CONTINUOUS
 62
  256
370
   -1
100
AcDbLine
 10
613.69375
 20
627.629123755
 11
730.69375
 21
627.629123755
  0
LINE
  5
206
100
AcDbEntity
  8
container
  6
CONTINUOUS
 62
  256
370
   -1
100
AcDbLine
 10
613.69375
 20
388.129123755
 11
730.69375
 21
388.129123755
  0
LINE
  5
207
100
AcDbEntity
  8
container
  6
ByLayer
 62
  256
370
   -1
100
AcDbLine
 10
611.69375
 20
373.129123755
 11
611.69375
 21
633.129123755
  0
LINE
  5
208
100
AcDbEntity
  8
container
  6
ByLayer
 62
  256
370
   -1
100
AcDbLine
 10
2.09375
 20
373.129123755
 11
2.09375
 21
633.129123755
  0
LINE
  5
209
100
AcDbEntity
  8
container
  6
ByLayer
 62
  256
370
   -1
100
AcDbLine
 10
2.09375
 20
633.129123755
 11
611.69375
 21
633.129123755
  0
LINE
  5
20A
100
AcDbEntity
  8
container
  6
ByLayer
 62
  256
370
   -1
100
AcDbLine
 10
2.09375
 20
373.129123755
 11
611.69375
 21
373.129123755
  0
LINE
  5
20B
100
AcDbEntity
  8
container
  6
ByLayer
 62
  256
370
   -1
100
AcDbLine
 10
613.69375
 20
388.129123755
 11
613.69375
 21
627.629123755
  0
LINE
  5
20C
100
AcDbEntity
  8
container
  6
ByLayer
 62
  256
370
   -1
100
AcDbLine
 10
730.69375
 20
388.129123755
 11
730.69375
 21
627.629123755
  0
LINE
  5
20D
100
AcDbEntity
  8
container
  6
ByLayer
 62
  256
370
   -1
100
AcDbLine
 10
6.49375
 20
242.3375
 11
235.19375
 21
242.3375
  0
LINE
  5
20E
100
AcDbEntity
  8
container
  6
ByLayer
 62
  256
370
   -1
100
AcDbLine
 10
6.49375
 20
7.3375
 11
235.19375
 21
7.3375
  0
LINE
  5
20F
100
AcDbEntity
  8
container
  6
ByLayer
 62
  256
370
   -1
100
AcDbLine
 10
535.19375
 20
7.3375
 11
611.69375
 21
7.3375
  0
LINE
  5
210
100
AcDbEntity
  8
container
  6
ByLayer
 62
  256
370
   -1
100
AcDbLine
 10
535.19375
 20
242.3375
 11
611.69375
 21
242.3375
  0
LINE
  5
211
100
AcDbEntity
  8
container
  6
ByLayer
 62
  256
370
   -1
100
AcDbLine
 10
535.19375
 20
246.7375
 11
611.69375
 21
246.7375
  0
LINE
  5
212
100
AcDbEntity
  8
container
  6
ByLayer
 62
  256
370
   -1
100
AcDbLine
 10
2.09375
 20
246.7375
 11
235.19375
 21
246.7375
  0
LINE
  5
213
100
AcDbEntity
  8
container
  6
ByLayer
 62
  256
370
   -1
100
AcDbLine
 10
2.09375
 20
2.9375
 11
235.19375
 21
2.9375
  0
LINE
  5
214
100
AcDbEntity
  8
container
  6
ByLayer
 62
  256
370
   -1
100
AcDbLine
 10
535.19375
 20
2.9375
 11
611.69375
 21
2.9375
  0
LINE
  5
215
100
AcDbEntity
  8
container
  6
DASHDOT2
 62
  256
370
   -1
100
AcDbLine
 10
235.19375
 20
246.7375
 11
535.19375
 21
246.7375
  0
LINE
  5
216
100
AcDbEntity
  8
container
  6
DASHDOT2
 62
  256
370
   -1
100
AcDbLine
 10
235.19375
 20
2.9375
 11
535.19375
 21
2.9375
  0
LINE
  5
217
100
AcDbEntity
  8
container
  6
ByLayer
 62
  256
370
   -1
100
AcDbLine
 10
535.19375
 20
2.9375
 11
535.19375
 21
7.3375
  0
LINE
  5
218
100
AcDbEntity
  8
container
  6
ByLayer
 62
  256
370
   -1
100
AcDbLine
 10
235.19375
 20
2.9375
 11
235.19375
 21
7.3375
  0
LINE
  5
219
100
AcDbEntity
  8
container
  6
ByLayer
 62
  256
370
   -1
100
AcDbLine
 10
235.19375
 20
242.3375
 11
235.19375
 21
246.7375
  0
LINE
  5
21A
100
AcDbEntity
  8
container
  6
ByLayer
 62
  256
370
   -1
100
AcDbLine
 10
535.19375
 20
242.3375
 11
535.19375
 21
246.7375
  0
DIMENSION
  5
21B
100
AcDbEntity
  8
dimension
  6
ByLayer
 62
  256
370
   -1
100
AcDbDimension
 10
535.19375
 20
-42.6872003506
 30
0
 11
573.44375
 21
-37.3122003506
 31
0
 70
   32
 71
    5
  3
Standard
 53
0
210
0
220
0
230
1
100
AcDbAlignedDimension
 13
611.69375
 23
2.9375
 33
0
 14
535.19375
 24
2.9375
 34
0
100
AcDbRotatedDimension
  0
DIMENSION
  5
21C
100
AcDbEntity
  8
dimension
  6
ByLayer
 62
  256
370
   -1
100
AcDbDimension
 10
235.19375
 20
-42.707383424
 30
0
 11
385.19375
 21
-37.332383424
 31
0
 70
   32
 71
    5
  3
Standard
 53
0
210
0
220
0
230
1
100
AcDbAlignedDimension
 13
535.19375
 23
2.9375
 33
0
 14
235.19375
 24
2.9375
 34
0
100
AcDbRotatedDimension
  0
MTEXT
  5
21D
100
AcDbEntity
  8
text
  6
ByLayer
 62
  256
370
   -1
100
AcDbMText
 10
374.983371505
 20
256.47680009
 30
0
 40
6
 41
20.66895249881435
 71
    1
 72
    1
  1
slider
  7
standard
210
0
220
0
230
1
 50
0
 73
    2
 44
1
  0
MTEXT
  5
21E
100
AcDbEntity
  8
text
  6
ByLayer
 62
  256
370
   -1
100
AcDbMText
 10
379.18715191
 20
-5.29322166371
 30
0
 40
6
 41
20.66895249881435
 71
    1
 72
    1
  1
slider
  7
standard
210
0
220
0
230
1
 50
0
 73
    2
 44
1
  0
LINE
  5
21F
100
AcDbEntity
  8
container
  6
ByLayer
 62
  256
370
   -1
100
AcDbLine
 10
535.19375
 20
588.129123755
 11
535.19375
 21
388.129123755
  0
LINE
  5
220
100
AcDbEntity
  8
doors
  6
ByLayer
 62
  256
370
   -1
100
AcDbLine
 10
533.19375
 20
391.129123755
 11
533.19375
 21
586.129123755
  0
LINE
  5
221
100
AcDbEntity
  8
container
  6
DASHED2
 62
  256
370
   -1
100
AcDbLine
 10
535.19375
 20
388.129123755
 11
611.69375
 21
388.129123755
  0
LINE
  5
222
100
AcDbEntity
  8
container
  6
DASHED2
 62
  256
370
   -1
100
AcDbLine
 10
2.09375
 20
388.129123755
 11
235.19375
 21
388.129123755
  0
LINE
  5
223
100
AcDbEntity
  8
container
  6
ByLayer
 62
  256
370
   -1
100
AcDbLine
 10
235.19375
 20
588.129123755
 11
235.19375
 21
388.129123755
  0
LINE
  5
224
100
AcDbEntity
  8
doors
  6
ByLayer
 62
  256
370
   -1
100
AcDbLine
 10
237.19375
 20
391.129123755
 11
237.19375
 21
586.129123755
  0
LINE
  5
225
100
AcDbEntity
  8
doors
  6
ByLayer
 62
  256
370
   -1
100
AcDbLine
 10
237.19375
 20
391.129123755
 11
533.19375
 21
391.129123755
  0
LINE
  5
226
100
AcDbEntity
  8
doors
  6
ByLayer
 62
  256
370
   -1
100
AcDbLine
 10
237.19375
 20
586.129123755
 11
533.19375
 21
586.129123755
  0
LINE
  5
227
100
AcDbEntity
  8
container
  6
ByLayer
 62
  256
370
   -1
100
AcDbLine
 10
235.19375
 20
588.129123755
 11
535.19375
 21
588.129123755
  0
LINE
  5
228
100
AcDbEntity
  8
doors
  6
ByLayer
 62
  256
370
   -1
100
AcDbLine
 10
382.69375
 20
586.129123755
 11
382.69375
 21
391.129123755
  0
MTEXT
  5
229
100
AcDbEntity
  8
text
  6
ByLayer
 62
  256
370
   -1
100
AcDbMText
 10
419.247215864
 20
573.2318460819999
 30
0
 40
6
 41
20.66895249881435
 71
    1
 72
    1
  1
slider
  7
standard
210
0
220
0
230
1
 50
0
 73
    2
 44
1
  0
LINE
  5
22A
100
AcDbEntity
  8
doors
  6
ByLayer
 62
  256
370
   -1
100
AcDbLine
 10
387.69375
 20
391.129123755
 11
387.69375
 21
586.129123755
  0
LINE
  5
22B
100
AcDbEntity
  8
doors
  6
ByLayer
 62
  256
370
   -1
100
AcDbLine
 10
382.69375
 20
586.129123755
 11
237.19375
 21
488.106713229
  0
LINE
  5
22C
100
AcDbEntity
  8
doors
  6
ByLayer
 62
  256
370
   -1
100
AcDbLine
 10
237.19375
 20
488.106713229
 11
382.69375
 21
391.129123755
  0
LINE
  5
22D
100
AcDbEntity
  8
doors
  6
ByLayer
 62
  256
370
   -1
100
AcDbLine
 10
388.534018964
 20
586.129123755
 11
533.19375
 21
488.106713229
  0
LINE
  5
22E
100
AcDbEntity
  8
doors
  6
ByLayer
 62
  256
370
   -1
100
AcDbLine
 10
387.69375
 20
391.129123755
 11
533.19375
 21
488.106713229
  0
LINE
  5
22F
100
AcDbEntity
  8
container
  6
CONTINUOUS
 62
  256
370
   -1
100
AcDbLine
 10
235.19375
 20
388.129123755
 11
535.19375
 21
388.129123755
  0
ENDBLK
  5
87
330
85
100
AcDbEntity
  8
0
100
AcDbBlockEnd
  0
BLOCK
  5
89
330
88
100
AcDbEntity
  8
0
100
AcDbBlockBegin
  2
outlet110HorUp-0
 70
    0
 10
0
 20
0
  3
outlet110HorUp-0
  1

  0
CIRCLE
  5
230
100
AcDbEntity
  8
0
  6
ByLayer
 62
  256
370
   -1
100
AcDbCircle
 10
19.2383306793
 20
93.1569229908
 40
50
  0
LINE
  5
231
100
AcDbEntity
  8
0
  6
ByLayer
 62
  256
370
   -1
100
AcDbLine
 10
36.2896076697
 20
0
 11
36.2896076697
 21
161.186024643
  0
LINE
  5
232
100
AcDbEntity
  8
0
  6
ByLayer
 62
  256
370
   -1
100
AcDbLine
 10
0
 20
0
 11
0
 21
161.186024643
  0
ENDBLK
  5
8A
330
88
100
AcDbEntity
  8
0
100
AcDbBlockEnd
  0
BLOCK
  5
8C
330
8B
100
AcDbEntity
  8
0
100
AcDbBlockBegin
  2
door700VerLeft-1
 70
    0
 10
0
 20
0
  3
door700VerLeft-1
  1

  0
LINE
  5
233
100
AcDbEntity
  8
0
  6
ByLayer
 62
  256
370
   -1
100
AcDbLine
 10
0
 20
0
 11
-614.878036687
 21
-355
  0
ARC
  5
234
100
AcDbEntity
  8
0
  6
ByLayer
 62
  256
370
   -1
100
AcDbCircle
 10
0
 20
0
 40
710
100
AcDbArc
 50
210
 51
270
  0
LINE
  5
235
100
AcDbEntity
  8
0
  6
ByLayer
 62
  256
370
   -1
100
AcDbLine
 10
25
 20
-43.3012701892
 11
-589.878036687
 21
-398.301270189
  0
LINE
  5
236
100
AcDbEntity
  8
0
  6
ByLayer
 62
  256
370
   -1
100
AcDbLine
 10
0
 20
0
 11
25
 21
-43.3012701892
  0
ENDBLK
  5
8D
330
8B
100
AcDbEntity
  8
0
100
AcDbBlockEnd
  0
BLOCK
  5
8F
330
8E
100
AcDbEntity
  8
0
100
AcDbBlockBegin
  2
WCVerRight-2
 70
    0
 10
0
 20
0
  3
WCVerRight-2
  1

  0
LINE
  5
237
100
AcDbEntity
  8
0
  6
ByLayer
 62
  256
370
   -1
100
AcDbLine
 10
0
 20
0
 11
200
 21
0
  0
LINE
  5
238
100
AcDbEntity
  8
0
  6
ByLayer
 62
  256
370
   -1
100
AcDbLine
 10
0
 20
0
 11
0
 21
470
  0
LINE
  5
239
100
AcDbEntity
  8
0
  6
ByLayer
 62
  256
370
   -1
100
AcDbLine
 10
200
 20
0
 11
200
 21
470
  0
LINE
  5
23A
100
AcDbEntity
  8
0
  6
ByLayer
 62
  256
370
   -1
100
AcDbLine
 10
0
 20
470
 11
200
 21
470
  0
ELLIPSE
  5
23B
100
AcDbEntity
  8
0
  6
ByLayer
 62
  256
370
   -1
100
AcDbEllipse
 10
483.839834606
 20
228.898383818
 30
0
 11
238.828093948
 21
-6.63411372079
 31
0
 40
0.61565150347
 41
0
 42
6.283185307179586
  0
ENDBLK
  5
90
330
8E
100
AcDbEntity
  8
0
100
AcDbBlockEnd
  0
BLOCK
  5
92
330
91
100
AcDbEntity
  8
0
100
AcDbBlockBegin
  2
tub_ver-0
 70
    0
 10
0
 20
0
  3
tub_ver-0
  1

  0
ARC
  5
23C
100
AcDbEntity
  8
0
  6
ByLayer
 62
  256
370
   -1
100
AcDbCircle
 10
50
 20
0
 40
50
100
AcDbArc
 50
90
 51
180
  0
LINE
  5
23D
100
AcDbEntity
  8
0
  6
ByLayer
 62
  256
370
   -1
100
AcDbLine
 10
50
 20
50
 11
530
 21
50
  0
ARC
  5
23E
100
AcDbEntity
  8
0
  6
ByLayer
 62
  256
370
   -1
100
AcDbCircle
 10
530
 20
0
 40
50
100
AcDbArc
 50
0
 51
90
  0
LINE
  5
23F
100
AcDbEntity
  8
0
  6
ByLayer
 62
  256
370
   -1
100
AcDbLine
 10
580
 20
-870
 11
580
 21
0
  0
ARC
  5
240
100
AcDbEntity
  8
0
  6
ByLayer
 62
  256
370
   -1
100
AcDbCircle
 10
530
 20
-870
 40
50
100
AcDbArc
 50
270
 51
0
  0
LINE
  5
241
100
AcDbEntity
  8
0
  6
ByLayer
 62
  256
370
   -1
100
AcDbLine
 10
50
 20
-920
 11
530
 21
-920
  0
LINE
  5
242
100
AcDbEntity
  8
0
  6
ByLayer
 62
  256
370
   -1
100
AcDbLine
 10
-2.84217094304e-13
 20
-870
 11
0
 21
0
  0
ARC
  5
243
100
AcDbEntity
  8
0
  6
ByLayer
 62
  256
370
   -1
100
AcDbCircle
 10
50
 20
-870
 40
50
100
AcDbArc
 50
180
 51
270
  0
ENDBLK
  5
93
330
91
100
AcDbEntity
  8
0
100
AcDbBlockEnd
  0
BLOCK
  5
95
330
94
100
AcDbEntity
  8
0
100
AcDbBlockBegin
  2
door800VerLeft-0
 70
    0
 10
0
 20
0
  3
door800VerLeft-0
  1

  0
LINE
  5
244
100
AcDbEntity
  8
0
  6
ByLayer
 62
  256
370
   -1
100
AcDbLine
 10
0
 20
0
 11
-514.2300877489999
 21
-612.835554495
  0
ARC
  5
245
100
AcDbEntity
  8
0
  6
ByLayer
 62
  256
370
   -1
100
AcDbCircle
 10
0
 20
0
 40
800
100
AcDbArc
 50
230
 51
270
  0
LINE
  5
246
100
AcDbEntity
  8
0
  6
ByLayer
 62
  256
370
   -1
100
AcDbLine
 10
38.3022221559
 20
-32.1393804843
 11
-475.927865593
 21
-644.9749349799999
  0
LINE
  5
247
100
AcDbEntity
  8
0
  6
ByLayer
 62
  256
370
   -1
100
AcDbLine
 10
0
 20
0
 11
38.3022221559
 21
-32.1393804843
  0
ENDBLK
  5
96
330
94
100
AcDbEntity
  8
0
100
AcDbBlockEnd
  0
BLOCK
  5
98
330
97
100
AcDbEntity
  8
0
100
AcDbBlockBegin
  2
KyotoKyomaTatamiVertical-0
 70
    0
 10
0
 20
0
  3
KyotoKyomaTatamiVertical-0
  1

  0
LINE
  5
248
100
AcDbEntity
  8
0
  6
ByLayer
 62
  256
370
   -1
100
AcDbLine
 10
0
 20
0
 11
-955
 21
0
  0
LINE
  5
249
100
AcDbEntity
  8
0
  6
ByLayer
 62
  256
370
   -1
100
AcDbLine
 10
0
 20
1910
 11
-955
 21
1910
  0
LINE
  5
24A
100
AcDbEntity
  8
0
  6
ByLayer
 62
  256
370
   -1
100
AcDbLine
 10
-955
 20
0
 11
-955
 21
1910
  0
LINE
  5
24B
100
AcDbEntity
  8
0
  6
ByLayer
 62
  256
370
   -1
100
AcDbLine
 10
0
 20
0
 11
0
 21
1910
  0
LINE
  5
24C
100
AcDbEntity
  8
0
  6
ByLayer
 62
  256
370
   -1
100
AcDbLine
 10
-930
 20
0
 11
-930
 21
1910
  0
LINE
  5
24D
100
AcDbEntity
  8
0
  6
ByLayer
 62
  256
370
   -1
100
AcDbLine
 10
0
 20
1885
 11
-955
 21
1885
  0
LINE
  5
24E
100
AcDbEntity
  8
0
  6
ByLayer
 62
  256
370
   -1
100
AcDbLine
 10
0
 20
25
 11
-955
 21
25
  0
LINE
  5
24F
100
AcDbEntity
  8
0
  6
ByLayer
 62
  256
370
   -1
100
AcDbLine
 10
-25
 20
0
 11
-25
 21
1910
  0
LINE
  5
250
100
AcDbEntity
  8
0
  6
ByLayer
 62
  256
370
   -1
100
AcDbLine
 10
0
 20
955
 11
-25
 21
955
  0
LINE
  5
251
100
AcDbEntity
  8
0
  6
ByLayer
 62
  256
370
   -1
100
AcDbLine
 10
-930
 20
955
 11
-955
 21
955
  0
ENDBLK
  5
99
330
97
100
AcDbEntity
  8
0
100
AcDbBlockEnd
  0
BLOCK
  5
9B
330
9A
100
AcDbEntity
  8
0
100
AcDbBlockBegin
  2
KyotoKyomaTatamiVertical-1
 70
    0
 10
0
 20
0
  3
KyotoKyomaTatamiVertical-1
  1

  0
LINE
  5
252
100
AcDbEntity
  8
0
  6
ByLayer
 62
  256
370
   -1
100
AcDbLine
 10
0
 20
0
 11
-955
 21
0
  0
LINE
  5
253
100
AcDbEntity
  8
0
  6
ByLayer
 62
  256
370
   -1
100
AcDbLine
 10
0
 20
1910
 11
-955
 21
1910
  0
LINE
  5
254
100
AcDbEntity
  8
0
  6
ByLayer
 62
  256
370
   -1
100
AcDbLine
 10
-955
 20
0
 11
-955
 21
1910
  0
LINE
  5
255
100
AcDbEntity
  8
0
  6
ByLayer
 62
  256
370
   -1
100
AcDbLine
 10
0
 20
0
 11
0
 21
1910
  0
LINE
  5
256
100
AcDbEntity
  8
0
  6
ByLayer
 62
  256
370
   -1
100
AcDbLine
 10
-930
 20
0
 11
-930
 21
1910
  0
LINE
  5
257
100
AcDbEntity
  8
0
  6
ByLayer
 62
  256
370
   -1
100
AcDbLine
 10
0
 20
1885
 11
-955
 21
1885
  0
LINE
  5
258
100
AcDbEntity
  8
0
  6
ByLayer
 62
  256
370
   -1
100
AcDbLine
 10
0
 20
25
 11
-955
 21
25
  0
LINE
  5
259
100
AcDbEntity
  8
0
  6
ByLayer
 62
  256
370
   -1
100
AcDbLine
 10
-25
 20
0
 11
-25
 21
1910
  0
LINE
  5
25A
100
AcDbEntity
  8
0
  6
ByLayer
 62
  256
370
   -1
100
AcDbLine
 10
0
 20
955
 11
-25
 21
955
  0
LINE
  5
25B
100
AcDbEntity
  8
0
  6
ByLayer
 62
  256
370
   -1
100
AcDbLine
 10
-930
 20
955
 11
-955
 21
955
  0
ENDBLK
  5
9C
330
9A
100
AcDbEntity
  8
0
100
AcDbBlockEnd
  0
BLOCK
  5
9E
330
9D
100
AcDbEntity
  8
0
100
AcDbBlockBegin
  2
KyotoKyomaTatamiVertical-2
 70
    0
 10
0
 20
0
  3
KyotoKyomaTatamiVertical-2
  1

  0
LINE
  5
25C
100
AcDbEntity
  8
0
  6
ByLayer
 62
  256
370
   -1
100
AcDbLine
 10
0
 20
0
 11
-955
 21
0
  0
LINE
  5
25D
100
AcDbEntity
  8
0
  6
ByLayer
 62
  256
370
   -1
100
AcDbLine
 10
0
 20
1910
 11
-955
 21
1910
  0
LINE
  5
25E
100
AcDbEntity
  8
0
  6
ByLayer
 62
  256
370
   -1
100
AcDbLine
 10
-955
 20
0
 11
-955
 21
1910
  0
LINE
  5
25F
100
AcDbEntity
  8
0
  6
ByLayer
 62
  256
370
   -1
100
AcDbLine
 10
0
 20
0
 11
0
 21
1910
  0
LINE
  5
260
100
AcDbEntity
  8
0
  6
ByLayer
 62
  256
370
   -1
100
AcDbLine
 10
-930
 20
0
 11
-930
 21
1910
  0
LINE
  5
261
100
AcDbEntity
  8
0
  6
ByLayer
 62
  256
370
   -1
100
AcDbLine
 10
0
 20
1885
 11
-955
 21
1885
  0
LINE
  5
262
100
AcDbEntity
  8
0
  6
ByLayer
 62
  256
370
   -1
100
AcDbLine
 10
0
 20
25
 11
-955
 21
25
  0
LINE
  5
263
100
AcDbEntity
  8
0
  6
ByLayer
 62
  256
370
   -1
100
AcDbLine
 10
-25
 20
0
 11
-25
 21
1910
  0
LINE
  5
264
100
AcDbEntity
  8
0
  6
ByLayer
 62
  256
370
   -1
100
AcDbLine
 10
0
 20
955
 11
-25
 21
955
  0
LINE
  5
265
100
AcDbEntity
  8
0
  6
ByLayer
 62
  256
370
   -1
100
AcDbLine
 10
-930
 20
955
 11
-955
 21
955
  0
ENDBLK
  5
9F
330
9D
100
AcDbEntity
  8
0
100
AcDbBlockEnd
  0
BLOCK
  5
A1
330
A0
100
AcDbEntity
  8
0
100
AcDbBlockBegin
  2
KyotoKyomaTatamiVertical-3
 70
    0
 10
0
 20
0
  3
KyotoKyomaTatamiVertical-3
  1

  0
LINE
  5
266
100
AcDbEntity
  8
0
  6
ByLayer
 62
  256
370
   -1
100
AcDbLine
 10
0
 20
0
 11
-955
 21
0
  0
LINE
  5
267
100
AcDbEntity
  8
0
  6
ByLayer
 62
  256
370
   -1
100
AcDbLine
 10
0
 20
1910
 11
-955
 21
1910
  0
LINE
  5
268
100
AcDbEntity
  8
0
  6
ByLayer
 62
  256
370
   -1
100
AcDbLine
 10
-955
 20
0
 11
-955
 21
1910
  0
LINE
  5
269
100
AcDbEntity
  8
0
  6
ByLayer
 62
  256
370
   -1
100
AcDbLine
 10
0
 20
0
 11
0
 21
1910
  0
LINE
  5
26A
100
AcDbEntity
  8
0
  6
ByLayer
 62
  256
370
   -1
100
AcDbLine
 10
-930
 20
0
 11
-930
 21
1910
  0
LINE
  5
26B
100
AcDbEntity
  8
0
  6
ByLayer
 62
  256
370
   -1
100
AcDbLine
 10
0
 20
1885
 11
-955
 21
1885
  0
LINE
  5
26C
100
AcDbEntity
  8
0
  6
ByLayer
 62
  256
370
   -1
100
AcDbLine
 10
0
 20
25
 11
-955
 21
25
  0
LINE
  5
26D
100
AcDbEntity
  8
0
  6
ByLayer
 62
  256
370
   -1
100
AcDbLine
 10
-25
 20
0
 11
-25
 21
1910
  0
LINE
  5
26E
100
AcDbEntity
  8
0
  6
ByLayer
 62
  256
370
   -1
100
AcDbLine
 10
0
 20
955
 11
-25
 21
955
  0
LINE
  5
26F
100
AcDbEntity
  8
0
  6
ByLayer
 62
  256
370
   -1
100
AcDbLine
 10
-930
 20
955
 11
-955
 21
955
  0
ENDBLK
  5
A2
330
A0
100
AcDbEntity
  8
0
100
AcDbBlockEnd
  0
BLOCK
  5
A4
330
A3
100
AcDbEntity
  8
0
100
AcDbBlockBegin
  2
KyotoKyomaTatamiVertical-4
 70
    0
 10
0
 20
0
  3
KyotoKyomaTatamiVertical-4
  1

  0
LINE
  5
270
100
AcDbEntity
  8
0
  6
ByLayer
 62
  256
370
   -1
100
AcDbLine
 10
0
 20
0
 11
-955
 21
0
  0
LINE
  5
271
100
AcDbEntity
  8
0
  6
ByLayer
 62
  256
370
   -1
100
AcDbLine
 10
0
 20
1910
 11
-955
 21
1910
  0
LINE
  5
272
100
AcDbEntity
  8
0
  6
ByLayer
 62
  256
370
   -1
100
AcDbLine
 10
-955
 20
0
 11
-955
 21
1910
  0
LINE
  5
273
100
AcDbEntity
  8
0
  6
ByLayer
 62
  256
370
   -1
100
AcDbLine
 10
0
 20
0
 11
0
 21
1910
  0
LINE
  5
274
100
AcDbEntity
  8
0
  6
ByLayer
 62
  256
370
   -1
100
AcDbLine
 10
-930
 20
0
 11
-930
 21
1910
  0
LINE
  5
275
100
AcDbEntity
  8
0
  6
ByLayer
 62
  256
370
   -1
100
AcDbLine
 10
0
 20
1885
 11
-955
 21
1885
  0
LINE
  5
276
100
AcDbEntity
  8
0
  6
ByLayer
 62
  256
370
   -1
100
AcDbLine
 10
0
 20
25
 11
-955
 21
25
  0
LINE
  5
277
100
AcDbEntity
  8
0
  6
ByLayer
 62
  256
370
   -1
100
AcDbLine
 10
-25
 20
0
 11
-25
 21
1910
  0
LINE
  5
278
100
AcDbEntity
  8
0
  6
ByLayer
 62
  256
370
   -1
100
AcDbLine
 10
0
 20
955
 11
-25
 21
955
  0
LINE
  5
279
100
AcDbEntity
  8
0
  6
ByLayer
 62
  256
370
   -1
100
AcDbLine
 10
-930
 20
955
 11
-955
 21
955
  0
ENDBLK
  5
A5
330
A3
100
AcDbEntity
  8
0
100
AcDbBlockEnd
  0
BLOCK
  5
A7
330
A6
100
AcDbEntity
  8
0
100
AcDbBlockBegin
  2
KyotoKyomaTatamiVertical-5
 70
    0
 10
0
 20
0
  3
KyotoKyomaTatamiVertical-5
  1

  0
LINE
  5
27A
100
AcDbEntity
  8
0
  6
ByLayer
 62
  256
370
   -1
100
AcDbLine
 10
0
 20
0
 11
-955
 21
0
  0
LINE
  5
27B
100
AcDbEntity
  8
0
  6
ByLayer
 62
  256
370
   -1
100
AcDbLine
 10
0
 20
1910
 11
-955
 21
1910
  0
LINE
  5
27C
100
AcDbEntity
  8
0
  6
ByLayer
 62
  256
370
   -1
100
AcDbLine
 10
-955
 20
0
 11
-955
 21
1910
  0
LINE
  5
27D
100
AcDbEntity
  8
0
  6
ByLayer
 62
  256
370
   -1
100
AcDbLine
 10
0
 20
0
 11
0
 21
1910
  0
LINE
  5
27E
100
AcDbEntity
  8
0
  6
ByLayer
 62
  256
370
   -1
100
AcDbLine
 10
-930
 20
0
 11
-930
 21
1910
  0
LINE
  5
27F
100
AcDbEntity
  8
0
  6
ByLayer
 62
  256
370
   -1
100
AcDbLine
 10
0
 20
1885
 11
-955
 21
1885
  0
LINE
  5
280
100
AcDbEntity
  8
0
  6
ByLayer
 62
  256
370
   -1
100
AcDbLine
 10
0
 20
25
 11
-955
 21
25
  0
LINE
  5
281
100
AcDbEntity
  8
0
  6
ByLayer
 62
  256
370
   -1
100
AcDbLine
 10
-25
 20
0
 11
-25
 21
1910
  0
LINE
  5
282
100
AcDbEntity
  8
0
  6
ByLayer
 62
  256
370
   -1
100
AcDbLine
 10
0
 20
955
 11
-25
 21
955
  0
LINE
  5
283
100
AcDbEntity
  8
0
  6
ByLayer
 62
  256
370
   -1
100
AcDbLine
 10
-930
 20
955
 11
-955
 21
955
  0
ENDBLK
  5
A8
330
A6
100
AcDbEntity
  8
0
100
AcDbBlockEnd
  0
BLOCK
  5
AA
330
A9
100
AcDbEntity
  8
0
100
AcDbBlockBegin
  2
KyotoKyomaTatamiVertical-6
 70
    0
 10
0
 20
0
  3
KyotoKyomaTatamiVertical-6
  1

  0
LINE
  5
284
100
AcDbEntity
  8
0
  6
ByLayer
 62
  256
370
   -1
100
AcDbLine
 10
0
 20
0
 11
-955
 21
0
  0
LINE
  5
285
100
AcDbEntity
  8
0
  6
ByLayer
 62
  256
370
   -1
100
AcDbLine
 10
0
 20
1910
 11
-955
 21
1910
  0
LINE
  5
286
100
AcDbEntity
  8
0
  6
ByLayer
 62
  256
370
   -1
100
AcDbLine
 10
-955
 20
0
 11
-955
 21
1910
  0
LINE
  5
287
100
AcDbEntity
  8
0
  6
ByLayer
 62
  256
370
   -1
100
AcDbLine
 10
0
 20
0
 11
0
 21
1910
  0
LINE
  5
288
100
AcDbEntity
  8
0
  6
ByLayer
 62
  256
370
   -1
100
AcDbLine
 10
-930
 20
0
 11
-930
 21
1910
  0
LINE
  5
289
100
AcDbEntity
  8
0
  6
ByLayer
 62
  256
370
   -1
100
AcDbLine
 10
0
 20
1885
 11
-955
 21
1885
  0
LINE
  5
28A
100
AcDbEntity
  8
0
  6
ByLayer
 62
  256
370
   -1
100
AcDbLine
 10
0
 20
25
 11
-955
 21
25
  0
LINE
  5
28B
100
AcDbEntity
  8
0
  6
ByLayer
 62
  256
370
   -1
100
AcDbLine
 10
-25
 20
0
 11
-25
 21
1910
  0
LINE
  5
28C
100
AcDbEntity
  8
0
  6
ByLayer
 62
  256
370
   -1
100
AcDbLine
 10
0
 20
955
 11
-25
 21
955
  0
LINE
  5
28D
100
AcDbEntity
  8
0
  6
ByLayer
 62
  256
370
   -1
100
AcDbLine
 10
-930
 20
955
 11
-955
 21
955
  0
ENDBLK
  5
AB
330
A9
100
AcDbEntity
  8
0
100
AcDbBlockEnd
  0
BLOCK
  5
AD
330
AC
100
AcDbEntity
  8
0
100
AcDbBlockBegin
  2
KyotoKyomaTatamiVertical-7
 70
    0
 10
0
 20
0
  3
KyotoKyomaTatamiVertical-7
  1

  0
LINE
  5
28E
100
AcDbEntity
  8
0
  6
ByLayer
 62
  256
370
   -1
100
AcDbLine
 10
0
 20
0
 11
-955
 21
0
  0
LINE
  5
28F
100
AcDbEntity
  8
0
  6
ByLayer
 62
  256
370
   -1
100
AcDbLine
 10
0
 20
1910
 11
-955
 21
1910
  0
LINE
  5
290
100
AcDbEntity
  8
0
  6
ByLayer
 62
  256
370
   -1
100
AcDbLine
 10
-955
 20
0
 11
-955
 21
1910
  0
LINE
  5
291
100
AcDbEntity
  8
0
  6
ByLayer
 62
  256
370
   -1
100
AcDbLine
 10
0
 20
0
 11
0
 21
1910
  0
LINE
  5
292
100
AcDbEntity
  8
0
  6
ByLayer
 62
  256
370
   -1
100
AcDbLine
 10
-930
 20
0
 11
-930
 21
1910
  0
LINE
  5
293
100
AcDbEntity
  8
0
  6
ByLayer
 62
  256
370
   -1
100
AcDbLine
 10
0
 20
1885
 11
-955
 21
1885
  0
LINE
  5
294
100
AcDbEntity
  8
0
  6
ByLayer
 62
  256
370
   -1
100
AcDbLine
 10
0
 20
25
 11
-955
 21
25
  0
LINE
  5
295
100
AcDbEntity
  8
0
  6
ByLayer
 62
  256
370
   -1
100
AcDbLine
 10
-25
 20
0
 11
-25
 21
1910
  0
LINE
  5
296
100
AcDbEntity
  8
0
  6
ByLayer
 62
  256
370
   -1
100
AcDbLine
 10
0
 20
955
 11
-25
 21
955
  0
LINE
  5
297
100
AcDbEntity
  8
0
  6
ByLayer
 62
  256
370
   -1
100
AcDbLine
 10
-930
 20
955
 11
-955
 21
955
  0
ENDBLK
  5
AE
330
AC
100
AcDbEntity
  8
0
100
AcDbBlockEnd
  0
BLOCK
  5
B0
330
AF
100
AcDbEntity
  8
0
100
AcDbBlockBegin
  2
KyotoKyomaTatamiVertical-8
 70
    0
 10
0
 20
0
  3
KyotoKyomaTatamiVertical-8
  1

  0
LINE
  5
298
100
AcDbEntity
  8
0
  6
ByLayer
 62
  256
370
   -1
100
AcDbLine
 10
0
 20
0
 11
-955
 21
0
  0
LINE
  5
299
100
AcDbEntity
  8
0
  6
ByLayer
 62
  256
370
   -1
100
AcDbLine
 10
0
 20
1910
 11
-955
 21
1910
  0
LINE
  5
29A
100
AcDbEntity
  8
0
  6
ByLayer
 62
  256
370
   -1
100
AcDbLine
 10
-955
 20
0
 11
-955
 21
1910
  0
LINE
  5
29B
100
AcDbEntity
  8
0
  6
ByLayer
 62
  256
370
   -1
100
AcDbLine
 10
0
 20
0
 11
0
 21
1910
  0
LINE
  5
29C
100
AcDbEntity
  8
0
  6
ByLayer
 62
  256
370
   -1
100
AcDbLine
 10
-930
 20
0
 11
-930
 21
1910
  0
LINE
  5
29D
100
AcDbEntity
  8
0
  6
ByLayer
 62
  256
370
   -1
100
AcDbLine
 10
0
 20
1885
 11
-955
 21
1885
  0
LINE
  5
29E
100
AcDbEntity
  8
0
  6
ByLayer
 62
  256
370
   -1
100
AcDbLine
 10
0
 20
25
 11
-955
 21
25
  0
LINE
  5
29F
100
AcDbEntity
  8
0
  6
ByLayer
 62
  256
370
   -1
100
AcDbLine
 10
-25
 20
0
 11
-25
 21
1910
  0
LINE
  5
2A0
100
AcDbEntity
  8
0
  6
ByLayer
 62
  256
370
   -1
100
AcDbLine
 10
0
 20
955
 11
-25
 21
955
  0
LINE
  5
2A1
100
AcDbEntity
  8
0
  6
ByLayer
 62
  256
370
   -1
100
AcDbLine
 10
-930
 20
955
 11
-955
 21
955
  0
ENDBLK
  5
B1
330
AF
100
AcDbEntity
  8
0
100
AcDbBlockEnd
  0
BLOCK
  5
B3
330
B2
100
AcDbEntity
  8
0
100
AcDbBlockBegin
  2
KyotoKyomaTatamiHalf-0
 70
    0
 10
0
 20
0
  3
KyotoKyomaTatamiHalf-0
  1

  0
LINE
  5
2A2
100
AcDbEntity
  8
0
  6
ByLayer
 62
  256
370
   -1
100
AcDbLine
 10
0
 20
955
 11
955
 21
955
  0
LINE
  5
2A3
100
AcDbEntity
  8
0
  6
ByLayer
 62
  256
370
   -1
100
AcDbLine
 10
0
 20
0
 11
955
 21
0
  0
LINE
  5
2A4
100
AcDbEntity
  8
0
  6
ByLayer
 62
  256
370
   -1
100
AcDbLine
 10
0
 20
0
 11
0
 21
955
  0
LINE
  5
2A5
100
AcDbEntity
  8
0
  6
ByLayer
 62
  256
370
   -1
100
AcDbLine
 10
955
 20
0
 11
955
 21
955
  0
LINE
  5
2A6
100
AcDbEntity
  8
0
  6
ByLayer
 62
  256
370
   -1
100
AcDbLine
 10
25
 20
0
 11
25
 21
955
  0
LINE
  5
2A7
100
AcDbEntity
  8
0
  6
ByLayer
 62
  256
370
   -1
100
AcDbLine
 10
0
 20
930
 11
955
 21
930
  0
LINE
  5
2A8
100
AcDbEntity
  8
0
  6
ByLayer
 62
  256
370
   -1
100
AcDbLine
 10
930
 20
0
 11
930
 21
955
  0
LINE
  5
2A9
100
AcDbEntity
  8
0
  6
ByLayer
 62
  256
370
   -1
100
AcDbLine
 10
0
 20
25
 11
955
 21
25
  0
ENDBLK
  5
B4
330
B2
100
AcDbEntity
  8
0
100
AcDbBlockEnd
  0
BLOCK
  5
B6
330
B5
100
AcDbEntity
  8
0
100
AcDbBlockBegin
  2
KyotoKyomaTatamiHalf-1
 70
    0
 10
0
 20
0
  3
KyotoKyomaTatamiHalf-1
  1

  0
LINE
  5
2AA
100
AcDbEntity
  8
0
  6
ByLayer
 62
  256
370
   -1
100
AcDbLine
 10
0
 20
955
 11
955
 21
955
  0
LINE
  5
2AB
100
AcDbEntity
  8
0
  6
ByLayer
 62
  256
370
   -1
100
AcDbLine
 10
0
 20
0
 11
955
 21
0
  0
LINE
  5
2AC
100
AcDbEntity
  8
0
  6
ByLayer
 62
  256
370
   -1
100
AcDbLine
 10
0
 20
0
 11
0
 21
955
  0
LINE
  5
2AD
100
AcDbEntity
  8
0
  6
ByLayer
 62
  256
370
   -1
100
AcDbLine
 10
955
 20
0
 11
955
 21
955
  0
LINE
  5
2AE
100
AcDbEntity
  8
0
  6
ByLayer
 62
  256
370
   -1
100
AcDbLine
 10
25
 20
0
 11
25
 21
955
  0
LINE
  5
2AF
100
AcDbEntity
  8
0
  6
ByLayer
 62
  256
370
   -1
100
AcDbLine
 10
0
 20
930
 11
955
 21
930
  0
LINE
  5
2B0
100
AcDbEntity
  8
0
  6
ByLayer
 62
  256
370
   -1
100
AcDbLine
 10
930
 20
0
 11
930
 21
955
  0
LINE
  5
2B1
100
AcDbEntity
  8
0
  6
ByLayer
 62
  256
370
   -1
100
AcDbLine
 10
0
 20
25
 11
955
 21
25
  0
ENDBLK
  5
B7
330
B5
100
AcDbEntity
  8
0
100
AcDbBlockEnd
  0
BLOCK
  5
B9
330
B8
100
AcDbEntity
  8
0
100
AcDbBlockBegin
  2
KyotoKyomaTatamiHalf-2
 70
    0
 10
0
 20
0
  3
KyotoKyomaTatamiHalf-2
  1

  0
LINE
  5
2B2
100
AcDbEntity
  8
0
  6
ByLayer
 62
  256
370
   -1
100
AcDbLine
 10
0
 20
955
 11
955
 21
955
  0
LINE
  5
2B3
100
AcDbEntity
  8
0
  6
ByLayer
 62
  256
370
   -1
100
AcDbLine
 10
0
 20
0
 11
955
 21
0
  0
LINE
  5
2B4
100
AcDbEntity
  8
0
  6
ByLayer
 62
  256
370
   -1
100
AcDbLine
 10
0
 20
0
 11
0
 21
955
  0
LINE
  5
2B5
100
AcDbEntity
  8
0
  6
ByLayer
 62
  256
370
   -1
100
AcDbLine
 10
955
 20
0
 11
955
 21
955
  0
LINE
  5
2B6
100
AcDbEntity
  8
0
  6
ByLayer
 62
  256
370
   -1
100
AcDbLine
 10
25
 20
0
 11
25
 21
955
  0
LINE
  5
2B7
100
AcDbEntity
  8
0
  6
ByLayer
 62
  256
370
   -1
100
AcDbLine
 10
0
 20
930
 11
955
 21
930
  0
LINE
  5
2B8
100
AcDbEntity
  8
0
  6
ByLayer
 62
  256
370
   -1
100
AcDbLine
 10
930
 20
0
 11
930
 21
955
  0
LINE
  5
2B9
100
AcDbEntity
  8
0
  6
ByLayer
 62
  256
370
   -1
100
AcDbLine
 10
0
 20
25
 11
955
 21
25
  0
ENDBLK
  5
BA
330
B8
100
AcDbEntity
  8
0
100
AcDbBlockEnd
  0
BLOCK
  5
BC
330
BB
100
AcDbEntity
  8
0
100
AcDbBlockBegin
  2
KyotoKyomaTatamiHalf-3
 70
    0
 10
0
 20
0
  3
KyotoKyomaTatamiHalf-3
  1

  0
LINE
  5
2BA
100
AcDbEntity
  8
0
  6
ByLayer
 62
  256
370
   -1
100
AcDbLine
 10
0
 20
955
 11
955
 21
955
  0
LINE
  5
2BB
100
AcDbEntity
  8
0
  6
ByLayer
 62
  256
370
   -1
100
AcDbLine
 10
0
 20
0
 11
955
 21
0
  0
LINE
  5
2BC
100
AcDbEntity
  8
0
  6
ByLayer
 62
  256
370
   -1
100
AcDbLine
 10
0
 20
0
 11
0
 21
955
  0
LINE
  5
2BD
100
AcDbEntity
  8
0
  6
ByLayer
 62
  256
370
   -1
100
AcDbLine
 10
955
 20
0
 11
955
 21
955
  0
LINE
  5
2BE
100
AcDbEntity
  8
0
  6
ByLayer
 62
  256
370
   -1
100
AcDbLine
 10
25
 20
0
 11
25
 21
955
  0
LINE
  5
2BF
100
AcDbEntity
  8
0
  6
ByLayer
 62
  256
370
   -1
100
AcDbLine
 10
0
 20
930
 11
955
 21
930
  0
LINE
  5
2C0
100
AcDbEntity
  8
0
  6
ByLayer
 62
  256
370
   -1
100
AcDbLine
 10
930
 20
0
 11
930
 21
955
  0
LINE
  5
2C1
100
AcDbEntity
  8
0
  6
ByLayer
 62
  256
370
   -1
100
AcDbLine
 10
0
 20
25
 11
955
 21
25
  0
ENDBLK
  5
BD
330
BB
100
AcDbEntity
  8
0
100
AcDbBlockEnd
  0
BLOCK
  5
BF
330
BE
100
AcDbEntity
  8
0
100
AcDbBlockBegin
  2
KyotoKyomaTatamiVertical-9
 70
    0
 10
0
 20
0
  3
KyotoKyomaTatamiVertical-9
  1

  0
LINE
  5
2C2
100
AcDbEntity
  8
0
  6
ByLayer
 62
  256
370
   -1
100
AcDbLine
 10
0
 20
0
 11
-955
 21
0
  0
LINE
  5
2C3
100
AcDbEntity
  8
0
  6
ByLayer
 62
  256
370
   -1
100
AcDbLine
 10
0
 20
1910
 11
-955
 21
1910
  0
LINE
  5
2C4
100
AcDbEntity
  8
0
  6
ByLayer
 62
  256
370
   -1
100
AcDbLine
 10
-955
 20
0
 11
-955
 21
1910
  0
LINE
  5
2C5
100
AcDbEntity
  8
0
  6
ByLayer
 62
  256
370
   -1
100
AcDbLine
 10
0
 20
0
 11
0
 21
1910
  0
LINE
  5
2C6
100
AcDbEntity
  8
0
  6
ByLayer
 62
  256
370
   -1
100
AcDbLine
 10
-930
 20
0
 11
-930
 21
1910
  0
LINE
  5
2C7
100
AcDbEntity
  8
0
  6
ByLayer
 62
  256
370
   -1
100
AcDbLine
 10
0
 20
1885
 11
-955
 21
1885
  0
LINE
  5
2C8
100
AcDbEntity
  8
0
  6
ByLayer
 62
  256
370
   -1
100
AcDbLine
 10
0
 20
25
 11
-955
 21
25
  0
LINE
  5
2C9
100
AcDbEntity
  8
0
  6
ByLayer
 62
  256
370
   -1
100
AcDbLine
 10
-25
 20
0
 11
-25
 21
1910
  0
LINE
  5
2CA
100
AcDbEntity
  8
0
  6
ByLayer
 62
  256
370
   -1
100
AcDbLine
 10
0
 20
955
 11
-25
 21
955
  0
LINE
  5
2CB
100
AcDbEntity
  8
0
  6
ByLayer
 62
  256
370
   -1
100
AcDbLine
 10
-930
 20
955
 11
-955
 21
955
  0
ENDBLK
  5
C0
330
BE
100
AcDbEntity
  8
0
100
AcDbBlockEnd
  0
BLOCK
  5
C2
330
C1
100
AcDbEntity
  8
0
100
AcDbBlockBegin
  2
KyotoKyomaTatami-0
 70
    0
 10
0
 20
0
  3
KyotoKyomaTatami-0
  1

  0
LINE
  5
2CC
100
AcDbEntity
  8
0
  6
ByLayer
 62
  256
370
   -1
100
AcDbLine
 10
0
 20
0
 11
0
 21
955
  0
LINE
  5
2CD
100
AcDbEntity
  8
0
  6
ByLayer
 62
  256
370
   -1
100
AcDbLine
 10
1910
 20
0
 11
1910
 21
955
  0
LINE
  5
2CE
100
AcDbEntity
  8
0
  6
ByLayer
 62
  256
370
   -1
100
AcDbLine
 10
0
 20
955
 11
1910
 21
955
  0
LINE
  5
2CF
100
AcDbEntity
  8
0
  6
ByLayer
 62
  256
370
   -1
100
AcDbLine
 10
0
 20
0
 11
1910
 21
0
  0
LINE
  5
2D0
100
AcDbEntity
  8
0
  6
ByLayer
 62
  256
370
   -1
100
AcDbLine
 10
0
 20
930
 11
1910
 21
930
  0
LINE
  5
2D1
100
AcDbEntity
  8
0
  6
ByLayer
 62
  256
370
   -1
100
AcDbLine
 10
1885
 20
0
 11
1885
 21
955
  0
LINE
  5
2D2
100
AcDbEntity
  8
0
  6
ByLayer
 62
  256
370
   -1
100
AcDbLine
 10
25
 20
0
 11
25
 21
955
  0
LINE
  5
2D3
100
AcDbEntity
  8
0
  6
ByLayer
 62
  256
370
   -1
100
AcDbLine
 10
0
 20
25
 11
1910
 21
25
  0
LINE
  5
2D4
100
AcDbEntity
  8
0
  6
ByLayer
 62
  256
370
   -1
100
AcDbLine
 10
955
 20
0
 11
955
 21
25
  0
LINE
  5
2D5
100
AcDbEntity
  8
0
  6
ByLayer
 62
  256
370
   -1
100
AcDbLine
 10
955
 20
930
 11
955
 21
955
  0
ENDBLK
  5
C3
330
C1
100
AcDbEntity
  8
0
100
AcDbBlockEnd
  0
BLOCK
  5
C5
330
C4
100
AcDbEntity
  8
0
100
AcDbBlockBegin
  2
KyotoKyomaTatami-1
 70
    0
 10
0
 20
0
  3
KyotoKyomaTatami-1
  1

  0
LINE
  5
2D6
100
AcDbEntity
  8
0
  6
ByLayer
 62
  256
370
   -1
100
AcDbLine
 10
0
 20
0
 11
0
 21
955
  0
LINE
  5
2D7
100
AcDbEntity
  8
0
  6
ByLayer
 62
  256
370
   -1
100
AcDbLine
 10
1910
 20
0
 11
1910
 21
955
  0
LINE
  5
2D8
100
AcDbEntity
  8
0
  6
ByLayer
 62
  256
370
   -1
100
AcDbLine
 10
0
 20
955
 11
1910
 21
955
  0
LINE
  5
2D9
100
AcDbEntity
  8
0
  6
ByLayer
 62
  256
370
   -1
100
AcDbLine
 10
0
 20
0
 11
1910
 21
0
  0
LINE
  5
2DA
100
AcDbEntity
  8
0
  6
ByLayer
 62
  256
370
   -1
100
AcDbLine
 10
0
 20
930
 11
1910
 21
930
  0
LINE
  5
2DB
100
AcDbEntity
  8
0
  6
ByLayer
 62
  256
370
   -1
100
AcDbLine
 10
1885
 20
0
 11
1885
 21
955
  0
LINE
  5
2DC
100
AcDbEntity
  8
0
  6
ByLayer
 62
  256
370
   -1
100
AcDbLine
 10
25
 20
0
 11
25
 21
955
  0
LINE
  5
2DD
100
AcDbEntity
  8
0
  6
ByLayer
 62
  256
370
   -1
100
AcDbLine
 10
0
 20
25
 11
1910
 21
25
  0
LINE
  5
2DE
100
AcDbEntity
  8
0
  6
ByLayer
 62
  256
370
   -1
100
AcDbLine
 10
955
 20
0
 11
955
 21
25
  0
LINE
  5
2DF
100
AcDbEntity
  8
0
  6
ByLayer
 62
  256
370
   -1
100
AcDbLine
 10
955
 20
930
 11
955
 21
955
  0
ENDBLK
  5
C6
330
C4
100
AcDbEntity
  8
0
100
AcDbBlockEnd
  0
BLOCK
  5
C8
330
C7
100
AcDbEntity
  8
0
100
AcDbBlockBegin
  2
washer_Hor-0
 70
    0
 10
0
 20
0
  3
washer_Hor-0
  1

  0
LINE
  5
2E0
100
AcDbEntity
  8
0
  6
ByLayer
 62
  256
370
   -1
100
AcDbLine
 10
520
 20
0
 11
520
 21
550
  0
LINE
  5
2E1
100
AcDbEntity
  8
0
  6
ByLayer
 62
  256
370
   -1
100
AcDbLine
 10
0
 20
0
 11
0
 21
550
  0
LINE
  5
2E2
100
AcDbEntity
  8
0
  6
ByLayer
 62
  256
370
   -1
100
AcDbLine
 10
0
 20
550
 11
520
 21
550
  0
LINE
  5
2E3
100
AcDbEntity
  8
0
  6
ByLayer
 62
  256
370
   -1
100
AcDbLine
 10
0
 20
0
 11
520
 21
0
  0
CIRCLE
  5
2E4
100
AcDbEntity
  8
0
  6
ByLayer
 62
  256
370
   -1
100
AcDbCircle
 10
260
 20
275
 40
190.24749449
  0
LINE
  5
2E5
100
AcDbEntity
  8
0
  6
ByLayer
 62
  256
370
   -1
100
AcDbLine
 10
0
 20
50
 11
520
 21
50
  0
ENDBLK
  5
C9
330
C7
100
AcDbEntity
  8
0
100
AcDbBlockEnd
  0
BLOCK
  5
CB
330
CA
100
AcDbEntity
  8
0
100
AcDbBlockBegin
  2
washer_Hor-1
 70
    0
 10
0
 20
0
  3
washer_Hor-1
  1

  0
LINE
  5
2E6
100
AcDbEntity
  8
0
  6
ByLayer
 62
  256
370
   -1
100
AcDbLine
 10
520
 20
0
 11
520
 21
550
  0
LINE
  5
2E7
100
AcDbEntity
  8
0
  6
ByLayer
 62
  256
370
   -1
100
AcDbLine
 10
0
 20
0
 11
0
 21
550
  0
LINE
  5
2E8
100
AcDbEntity
  8
0
  6
ByLayer
 62
  256
370
   -1
100
AcDbLine
 10
0
 20
550
 11
520
 21
550
  0
LINE
  5
2E9
100
AcDbEntity
  8
0
  6
ByLayer
 62
  256
370
   -1
100
AcDbLine
 10
0
 20
0
 11
520
 21
0
  0
CIRCLE
  5
2EA
100
AcDbEntity
  8
0
  6
ByLayer
 62
  256
370
   -1
100
AcDbCircle
 10
260
 20
275
 40
190.24749449
  0
LINE
  5
2EB
100
AcDbEntity
  8
0
  6
ByLayer
 62
  256
370
   -1
100
AcDbLine
 10
0
 20
50
 11
520
 21
50
  0
ENDBLK
  5
CC
330
CA
100
AcDbEntity
  8
0
100
AcDbBlockEnd
  0
BLOCK
  5
CE
330
CD
100
AcDbEntity
  8
0
100
AcDbBlockBegin
  2
refridge500_600_verRight-0
 70
    0
 10
0
 20
0
  3
refridge500_600_verRight-0
  1

  0
LINE
  5
2EC
100
AcDbEntity
  8
0
  6
ByLayer
 62
  256
370
   -1
100
AcDbLine
 10
0
 20
0
 11
550
 21
0
  0
LINE
  5
2ED
100
AcDbEntity
  8
0
  6
ByLayer
 62
  256
370
   -1
100
AcDbLine
 10
0
 20
-600
 11
550
 21
-600
  0
LINE
  5
2EE
100
AcDbEntity
  8
0
  6
ByLayer
 62
  256
370
   -1
100
AcDbLine
 10
500
 20
0
 11
500
 21
-600
  0
LINE
  5
2EF
100
AcDbEntity
  8
0
  6
ByLayer
 62
  256
370
   -1
100
AcDbLine
 10
0
 20
0
 11
0
 21
-600
  0
ARC
  5
2F0
100
AcDbEntity
  8
0
  6
ByLayer
 62
  256
370
   -1
100
AcDbCircle
 10
-689.692211372
 20
-300
 40
1275.4751189
100
AcDbArc
 50
346.396206231
 51
13.603793769
  0
LINE
  5
2F1
100
AcDbEntity
  8
0
  6
ByLayer
 62
  256
370
   -1
100
AcDbLine
 10
510
 20
0
 11
510
 21
-600
  0
MTEXT
  5
2F2
100
AcDbEntity
  8
0
  6
ByLayer
 62
  256
370
   -1
100
AcDbMText
 10
266.901409432
 20
-24.0279179021
 30
0
 40
200
 41
533.3333333333333
 71
    4
 72
    5
  1
Refr
  7
iso
210
0
220
0
230
1
 50
270
 73
    1
 44
0.96
  0
ENDBLK
  5
CF
330
CD
100
AcDbEntity
  8
0
100
AcDbBlockEnd
  0
BLOCK
  5
D1
330
D0
100
AcDbEntity
  8
0
100
AcDbBlockBegin
  2
Standard40ft12m_withIntwall-0
 70
    0
 10
0
 20
0
  3
Standard40ft12m_withIntwall-0
  1

  0
LINE
  5
2F3
100
AcDbEntity
  8
0
  6
ByLayer
 62
  256
370
   -1
100
AcDbLine
 10
94
 20
94
 11
94
 21
2346
  0
LINE
  5
2F4
100
AcDbEntity
  8
0
  6
ByLayer
 62
  256
370
   -1
100
AcDbLine
 10
94
 20
94
 11
12076
 21
94
  0
LINE
  5
2F5
100
AcDbEntity
  8
0
  6
ByLayer
 62
  256
370
   -1
100
AcDbLine
 10
44
 20
44
 11
44
 21
2396
  0
LINE
  5
2F6
100
AcDbEntity
  8
0
  6
ByLayer
 62
  256
370
   -1
100
AcDbLine
 10
0
 20
0
 11
0
 21
2440
  0
LINE
  5
2F7
100
AcDbEntity
  8
0
  6
ByLayer
 62
  256
370
   -1
100
AcDbLine
 10
0
 20
0
 11
12200
 21
0
  0
LINE
  5
2F8
100
AcDbEntity
  8
0
  6
ByLayer
 62
  256
370
   -1
100
AcDbLine
 10
44
 20
44
 11
12200
 21
44
  0
LINE
  5
2F9
100
AcDbEntity
  8
0
  6
ByLayer
 62
  256
370
   -1
100
AcDbLine
 10
12200
 20
2390
 11
13370
 21
2390
  0
LINE
  5
2FA
100
AcDbEntity
  8
0
  6
ByLayer
 62
  256
370
   -1
100
AcDbLine
 10
12200
 20
50
 11
13370
 21
50
  0
LINE
  5
2FB
100
AcDbEntity
  8
0
  6
ByLayer
 62
  256
370
   -1
100
AcDbLine
 10
12200
 20
2434
 11
13370
 21
2434
  0
LINE
  5
2FC
100
AcDbEntity
  8
0
  6
ByLayer
 62
  256
370
   -1
100
AcDbLine
 10
12200
 20
6
 11
13370
 21
6
  0
LINE
  5
2FD
100
AcDbEntity
  8
0
  6
ByLayer
 62
  256
370
   -1
100
AcDbLine
 10
13370
 20
50
 11
13370
 21
2390
  0
LINE
  5
2FE
100
AcDbEntity
  8
0
  6
ByLayer
 62
  256
370
   -1
100
AcDbLine
 10
12076
 20
44
 11
12076
 21
2396
  0
LINE
  5
2FF
100
AcDbEntity
  8
0
  6
ByLayer
 62
  256
370
   -1
100
AcDbLine
 10
12200
 20
0
 11
12200
 21
2440
  0
LINE
  5
300
100
AcDbEntity
  8
0
  6
ByLayer
 62
  256
370
   -1
100
AcDbLine
 10
94
 20
2346
 11
12076
 21
2346
  0
LINE
  5
301
100
AcDbEntity
  8
0
  6
ByLayer
 62
  256
370
   -1
100
AcDbLine
 10
0
 20
2440
 11
12200
 21
2440
  0
LINE
  5
302
100
AcDbEntity
  8
0
  6
ByLayer
 62
  256
370
   -1
100
AcDbLine
 10
44
 20
2396
 11
12200
 21
2396
  0
ENDBLK
  5
D2
330
D0
100
AcDbEntity
  8
0
100
AcDbBlockEnd
  0
BLOCK
  5
D4
330
D3
100
AcDbEntity
  8
0
100
AcDbBlockBegin
  2
jtub
 70
    0
 10
0
 20
0
  3
jtub
  1

  0
INSERT
  5
303
100
AcDbEntity
  8
fixtures
  6
ByLayer
 62
  256
370
   -1
100
AcDbBlockReference
  2
tub_ver-0
 10
89.9985784502
 20
870.630897716
 30
0
 41
1
 42
1
 43
0
 50
0
 70
    1
 71
    1
 44
0
 45
0
  0
LINE
  5
304
100
AcDbEntity
  8
fixtures
  6
ByLayer
 62
  256
370
   -1
100
AcDbLine
 10
759.99857845
 20
0.630897714578
 11
759.99857845
 21
870.630897716
  0
ARC
  5
305
100
AcDbEntity
  8
fixtures
  6
ByLayer
 62
  256
370
   -1
100
AcDbCircle
 10
619.99857845
 20
870.630897716
 40
140
100
AcDbArc
 50
0
 51
90
  0
ARC
  5
306
100
AcDbEntity
  8
fixtures
  6
ByLayer
 62
  256
370
   -1
100
AcDbCircle
 10
619.99857845
 20
0.630897714578
 40
140
100
AcDbArc
 50
270
 51
0
  0
LINE
  5
307
100
AcDbEntity
  8
fixtures
  6
ByLayer
 62
  256
370
   -1
100
AcDbLine
 10
139.99857845
 20
-139.369102285
 11
619.99857845
 21
-139.369102285
  0
ARC
  5
308
100
AcDbEntity
  8
fixtures
  6
ByLayer
 62
  256
370
   -1
100
AcDbCircle
 10
139.99857845
 20
0.630897714578
 40
140
100
AcDbArc
 50
180
 51
270
  0
ARC
  5
309
100
AcDbEntity
  8
fixtures
  6
ByLayer
 62
  256
370
   -1
100
AcDbCircle
 10
139.99857845
 20
870.630897716
 40
140
100
AcDbArc
 50
90
 51
180
  0
LINE
  5
30A
100
AcDbEntity
  8
fixtures
  6
ByLayer
 62
  256
370
   -1
100
AcDbLine
 10
139.99857845
 20
1010.63089772
 11
619.99857845
 21
1010.63089772
  0
LINE
  5
30B
100
AcDbEntity
  8
fixtures
  6
ByLayer
 62
  256
370
   -1
100
AcDbLine
 10
-0.00142154981094
 20
870.630897716
 11
0
 21
0
  0
ENDBLK
  5
D5
330
D3
100
AcDbEntity
  8
0
100
AcDbBlockEnd
  0
BLOCK
  5
D7
330
D6
100
AcDbEntity
  8
0
100
AcDbBlockBegin
  2
12m-2bedrooms-0
 70
    0
 10
0
 20
0
  3
12m-2bedrooms-0
  1

  0
LINE
  5
30C
100
AcDbEntity
  8
0
  6
ByLayer
 62
  256
370
   -1
100
AcDbLine
 10
-32.8683717927
 20
95.793996177
 11
-32.8683717927
 21
320.993996177
  0
LINE
  5
30D
100
AcDbEntity
  8
0
  6
ByLayer
 62
  256
370
   -1
100
AcDbLine
 10
1294.73162821
 20
91.39399617700001
 11
1294.73162821
 21
325.393996177
  0
LINE
  5
30E
100
AcDbEntity
  8
container
  6
ByLayer
 62
  256
370
   -1
100
AcDbLine
 10
1294.73162821
 20
325.393996177
 11
1294.73162821
 21
329.793996177
  0
LINE
  5
30F
100
AcDbEntity
  8
container
  6
ByLayer
 62
  256
370
   -1
100
AcDbLine
 10
1294.73162821
 20
86.993996177
 11
1294.73162821
 21
91.39399617700001
  0
LINE
  5
310
100
AcDbEntity
  8
container
  6
ByLayer
 62
  256
370
   -1
100
AcDbLine
 10
-37.8683717927
 20
90.793996177
 11
-37.8683717927
 21
325.993996177
  0
LINE
  5
311
100
AcDbEntity
  8
container
  6
ByLayer
 62
  256
370
   -1
100
AcDbLine
 10
-42.2683717927
 20
86.39399617700001
 11
-42.2683717927
 21
330.393996177
  0
LINE
  5
312
100
AcDbEntity
  8
container
  6
ByLayer
 62
  256
370
   -1
100
AcDbLine
 10
1165.33162821
 20
90.793996177
 11
1165.33162821
 21
325.993996177
  0
LINE
  5
313
100
AcDbEntity
  8
container
  6
ByLayer
 62
  256
370
   -1
100
AcDbLine
 10
1177.73162821
 20
86.39399617700001
 11
1177.73162821
 21
330.393996177
  0
LINE
  5
314
100
AcDbEntity
  8
container
  6
ByLayer
 62
  256
370
   -1
100
AcDbLine
 10
-42.2683717927
 20
330.393996177
 11
1177.73162821
 21
330.393996177
  0
DIMENSION
  5
315
100
AcDbEntity
  8
dimension
  6
ByLayer
 62
  256
370
   -1
100
AcDbDimension
 10
1177.73162821
 20
466.173259271
 30
0
 11
567.731628207
 21
476.173259271
 31
0
 70
   32
 71
    5
  3
Standard
 53
0
210
0
220
0
230
1
100
AcDbAlignedDimension
 13
-42.2683717927
 23
330.393996177
 33
0
 14
1177.73162821
 24
330.393996177
 34
0
100
AcDbRotatedDimension
  0
INSERT
  5
316
100
AcDbEntity
  8
eletrical
  6
ByLayer
 62
  256
370
   -1
100
AcDbBlockReference
  2
outlet110HorUp-0
 10
883.7998635709999
 20
95.793996177
 30
0
 41
0.1
 42
0.1
 43
0
 50
0
 70
    1
 71
    1
 44
0.1
 45
0.1
  0
INSERT
  5
317
100
AcDbEntity
  8
eletrical
  6
ByLayer
 62
  256
370
   -1
100
AcDbBlockReference
  2
outlet110HorUp-0
 10
1146.28843555
 20
95.793996177
 30
0
 41
0.1
 42
0.1
 43
0
 50
0
 70
    1
 71
    1
 44
0.1
 45
0.1
  0
LINE
  5
318
100
AcDbEntity
  8
0
  6
ByLayer
 62
  256
370
   -1
100
AcDbLine
 10
492.131628207
 20
320.993996178
 11
662.1316282069999
 21
320.993996177
  0
INSERT
  5
319
100
AcDbEntity
  8
tatami
  6
ByLayer
 62
  256
370
   -1
100
AcDbBlockReference
  2
KyotoKyomaTatamiVertical-8
 10
282.631628207
 20
303.893996178
 30
0
 41
0.1
 42
0.1
 43
0
 50
180
 70
    1
 71
    1
 44
0
 45
0
  0
INSERT
  5
31A
100
AcDbEntity
  8
tatami
  6
ByLayer
 62
  256
370
   -1
100
AcDbBlockReference
  2
KyotoKyomaTatamiVertical-9
 10
-3.868371793
 20
303.893996178
 30
0
 41
0.1
 42
0.1
 43
0
 50
180
 70
    1
 71
    1
 44
0
 45
0
  0
INSERT
  5
31B
100
AcDbEntity
  8
tatami
  6
ByLayer
 62
  256
370
   -1
100
AcDbBlockReference
  2
KyotoKyomaTatami-0
 10
282.631628207
 20
303.893996178
 30
0
 41
0.1
 42
0.1
 43
0
 50
180
 70
    1
 71
    1
 44
0
 45
0
  0
INSERT
  5
31C
100
AcDbEntity
  8
tatami
  6
ByLayer
 62
  256
370
   -1
100
AcDbBlockReference
  2
KyotoKyomaTatami-1
 10
282.631628207
 20
208.393996178
 30
0
 41
0.1
 42
0.1
 43
0
 50
180
 70
    1
 71
    1
 44
0
 45
0
  0
INSERT
  5
31D
100
AcDbEntity
  8
eletrical
  6
ByLayer
 62
  256
370
   -1
100
AcDbBlockReference
  2
outlet110HorUp-0
 10
-14.678060213
 20
95.793996177
 30
0
 41
0.1
 42
0.1
 43
0
 50
0
 70
    1
 71
    1
 44
0.1
 45
0.1
  0
INSERT
  5
31E
100
AcDbEntity
  8
eletrical
  6
ByLayer
 62
  256
370
   -1
100
AcDbBlockReference
  2
outlet110HorUp-0
 10
378.679196204
 20
95.793996177
 30
0
 41
0.1
 42
0.1
 43
0
 50
0
 70
    1
 71
    1
 44
0.1
 45
0.1
  0
INSERT
  5
31F
100
AcDbEntity
  8
eletrical
  6
ByLayer
 62
  256
370
   -1
100
AcDbBlockReference
  2
outlet110HorUp-0
 10
-17.1061914255
 20
320.993996177
 30
0
 41
0.1
 42
0.1
 43
0
 50
180
 70
    1
 71
    1
 44
0.1
 45
0.1
  0
INSERT
  5
320
100
AcDbEntity
  8
eletrical
  6
ByLayer
 62
  256
370
   -1
100
AcDbBlockReference
  2
outlet110HorUp-0
 10
389.432348717
 20
320.993996177
 30
0
 41
0.1
 42
0.1
 43
0
 50
180
 70
    1
 71
    1
 44
0.1
 45
0.1
  0
LINE
  5
321
100
AcDbEntity
  8
container
  6
ByLayer
 62
  256
370
   -1
100
AcDbLine
 10
749.6316282069999
 20
86.39399617700001
 11
1177.73162821
 21
86.39399617700001
  0
LINE
  5
322
100
AcDbEntity
  8
container
  6
ByLayer
 62
  256
370
   -1
100
AcDbLine
 10
669.6316282069999
 20
90.793996177
 11
342.196177861
 21
90.793996177
  0
LINE
  5
323
100
AcDbEntity
  8
container
  6
ByLayer
 62
  256
370
   -1
100
AcDbLine
 10
342.196177861
 20
86.39399617700001
 11
669.6316282069999
 21
86.39399617700001
  0
LINE
  5
324
100
AcDbEntity
  8
0
  6
ByLayer
 62
  256
370
   -1
100
AcDbLine
 10
791.1316282069999
 20
320.993996177
 11
796.1316282069999
 21
320.993996177
  0
LINE
  5
325
100
AcDbEntity
  8
0
  6
ByLayer
 62
  256
370
   -1
100
AcDbLine
 10
667.1316282069999
 20
320.993996177
 11
752.1316282069999
 21
320.993996177
  0
LINE
  5
326
100
AcDbEntity
  8
0
  6
ByLayer
 62
  256
370
   -1
100
AcDbLine
 10
757.1316282069999
 20
320.993996177
 11
791.1316282069999
 21
320.993996177
  0
INSERT
  5
327
100
AcDbEntity
  8
tatami
  6
ByLayer
 62
  256
370
   -1
100
AcDbBlockReference
  2
KyotoKyomaTatamiVertical-1
 10
1144.48162821
 20
112.893996178
 30
0
 41
0.1
 42
0.1
 43
0
 50
0
 70
    1
 71
    1
 44
0.1
 45
0.1
  0
LINE
  5
328
100
AcDbEntity
  8
container
  6
ByLayer
 62
  256
370
   -1
100
AcDbLine
 10
1101.23162821
 20
325.993996177
 11
1177.73162821
 21
325.993996177
  0
LINE
  5
329
100
AcDbEntity
  8
0
  6
ByLayer
 62
  256
370
   -1
100
AcDbLine
 10
1165.33162821
 20
320.993996177
 11
1101.23162821
 21
320.993996177
  0
LINE
  5
32A
100
AcDbEntity
  8
0
  6
ByLayer
 62
  256
370
   -1
100
AcDbLine
 10
1101.23162821
 20
95.793996177
 11
1165.33162821
 21
95.793996177
  0
LINE
  5
32B
100
AcDbEntity
  8
container
  6
ByLayer
 62
  256
370
   -1
100
AcDbLine
 10
1101.23162821
 20
90.793996177
 11
1177.73162821
 21
90.793996177
  0
LINE
  5
32C
100
AcDbEntity
  8
container
  6
ByLayer
 62
  256
370
   -1
100
AcDbLine
 10
1101.23162821
 20
330.393996177
 11
1101.23162821
 21
325.993996177
  0
LINE
  5
32D
100
AcDbEntity
  8
0
  6
ByLayer
 62
  256
370
   -1
100
AcDbLine
 10
1101.23162821
 20
325.993996177
 11
1101.23162821
 21
320.993996177
  0
LINE
  5
32E
100
AcDbEntity
  8
doors
  6
ByLayer
 62
  256
370
   -1
100
AcDbLine
 10
1100.43162821
 20
327.393996177
 11
1100.43162821
 21
323.893996177
  0
LINE
  5
32F
100
AcDbEntity
  8
0
  6
ByLayer
 62
  256
370
   -1
100
AcDbLine
 10
1101.23162821
 20
95.793996177
 11
1101.23162821
 21
90.793996177
  0
LINE
  5
330
100
AcDbEntity
  8
container
  6
ByLayer
 62
  256
370
   -1
100
AcDbLine
 10
1101.23162821
 20
90.793996177
 11
1101.23162821
 21
86.39399617700001
  0
LINE
  5
331
100
AcDbEntity
  8
doors
  6
ByLayer
 62
  256
370
   -1
100
AcDbLine
 10
1100.63162821
 20
96.39399617700001
 11
1100.63162821
 21
92.89399617700001
  0
LINE
  5
332
100
AcDbEntity
  8
container
  6
ByLayer
 62
  256
370
   -1
100
AcDbLine
 10
87.13162820700001
 20
325.993996177
 11
87.13162820700001
 21
330.393996177
  0
LINE
  5
333
100
AcDbEntity
  8
container
  6
ByLayer
 62
  256
370
   -1
100
AcDbLine
 10
287.131628207
 20
325.993996178
 11
287.131628207
 21
330.393996177
  0
LINE
  5
334
100
AcDbEntity
  8
container
  6
ByLayer
 62
  256
370
   -1
100
AcDbLine
 10
-37.8683717927
 20
325.993996177
 11
87.13162820700001
 21
325.993996177
  0
LINE
  5
335
100
AcDbEntity
  8
0
  6
ByLayer
 62
  256
370
   -1
100
AcDbLine
 10
-32.8683717927
 20
320.993996177
 11
87.13162820700001
 21
320.993996177
  0
LINE
  5
336
100
AcDbEntity
  8
0
  6
ByLayer
 62
  256
370
   -1
100
AcDbLine
 10
287.131628207
 20
320.993996177
 11
287.131628207
 21
325.993996177
  0
LINE
  5
337
100
AcDbEntity
  8
0
  6
ByLayer
 62
  256
370
   -1
100
AcDbLine
 10
87.13162820700001
 20
320.993996177
 11
87.13162820700001
 21
325.993996177
  0
LINE
  5
338
100
AcDbEntity
  8
doors
  6
ByLayer
 62
  256
370
   -1
100
AcDbLine
 10
188.331628207
 20
320.393996177
 11
188.331628207
 21
323.893996177
  0
LINE
  5
339
100
AcDbEntity
  8
doors
  6
ByLayer
 62
  256
370
   -1
100
AcDbLine
 10
185.931628207
 20
323.893996177
 11
185.931628207
 21
327.393996177
  0
LINE
  5
33A
100
AcDbEntity
  8
doors
  6
ByLayer
 62
  256
370
   -1
100
AcDbLine
 10
87.731628207
 20
320.393996177
 11
188.331628207
 21
320.393996177
  0
LINE
  5
33B
100
AcDbEntity
  8
doors
  6
ByLayer
 62
  256
370
   -1
100
AcDbLine
 10
87.731628207
 20
320.393996177
 11
87.731628207
 21
323.893996177
  0
LINE
  5
33C
100
AcDbEntity
  8
doors
  6
ByLayer
 62
  256
370
   -1
100
AcDbLine
 10
185.931628207
 20
327.393996177
 11
286.531628207
 21
327.393996177
  0
LINE
  5
33D
100
AcDbEntity
  8
doors
  6
ByLayer
 62
  256
370
   -1
100
AcDbLine
 10
87.731628207
 20
323.893996177
 11
286.531628207
 21
323.893996177
  0
LINE
  5
33E
100
AcDbEntity
  8
doors
  6
ByLayer
 62
  256
370
   -1
100
AcDbLine
 10
286.531628207
 20
323.893996177
 11
286.531628207
 21
327.393996177
  0
LINE
  5
33F
100
AcDbEntity
  8
0
  6
ByLayer
 62
  256
370
   -1
100
AcDbLine
 10
87.13162820700001
 20
95.793996177
 11
87.13162820700001
 21
90.793996177
  0
LINE
  5
340
100
AcDbEntity
  8
0
  6
ByLayer
 62
  256
370
   -1
100
AcDbLine
 10
287.131628207
 20
95.793996177
 11
287.131628207
 21
90.793996177
  0
LINE
  5
341
100
AcDbEntity
  8
container
  6
ByLayer
 62
  256
370
   -1
100
AcDbLine
 10
287.131628207
 20
90.793996177
 11
287.131628207
 21
86.39399617700001
  0
LINE
  5
342
100
AcDbEntity
  8
container
  6
ByLayer
 62
  256
370
   -1
100
AcDbLine
 10
87.13162820700001
 20
90.793996177
 11
87.13162820700001
 21
86.39399617700001
  0
LINE
  5
343
100
AcDbEntity
  8
0
  6
ByLayer
 62
  256
370
   -1
100
AcDbLine
 10
-32.8683717927
 20
95.793996177
 11
87.13162820700001
 21
95.793996177
  0
LINE
  5
344
100
AcDbEntity
  8
container
  6
ByLayer
 62
  256
370
   -1
100
AcDbLine
 10
-37.8683717927
 20
90.793996177
 11
87.13162820700001
 21
90.793996177
  0
LINE
  5
345
100
AcDbEntity
  8
container
  6
ByLayer
 62
  256
370
   -1
100
AcDbLine
 10
-42.2683717927
 20
86.39399617700001
 11
87.13162820700001
 21
86.39399617700001
  0
LINE
  5
346
100
AcDbEntity
  8
container
  6
ByLayer
 62
  256
370
   -1
100
AcDbLine
 10
287.131628207
 20
86.39399617700001
 11
342.196177861
 21
86.39399617700001
  0
LINE
  5
347
100
AcDbEntity
  8
container
  6
ByLayer
 62
  256
370
   -1
100
AcDbLine
 10
287.131628207
 20
90.793996177
 11
342.196177861
 21
90.793996177
  0
LINE
  5
348
100
AcDbEntity
  8
0
  6
ByLayer
 62
  256
370
   -1
100
AcDbLine
 10
287.131628207
 20
95.793996177
 11
342.131628207
 21
95.793996177
  0
LINE
  5
349
100
AcDbEntity
  8
container
  6
ByLayer
 62
  256
370
   -1
100
AcDbLine
 10
87.13162820700001
 20
86.39399617700001
 11
287.131628207
 21
86.39399617700001
  0
LINE
  5
34A
100
AcDbEntity
  8
doors
  6
ByLayer
 62
  256
370
   -1
100
AcDbLine
 10
188.331628207
 20
92.89399617700001
 11
188.331628207
 21
89.39399617700001
  0
LINE
  5
34B
100
AcDbEntity
  8
doors
  6
ByLayer
 62
  256
370
   -1
100
AcDbLine
 10
185.931628207
 20
96.39399617700001
 11
185.931628207
 21
92.89399617700001
  0
LINE
  5
34C
100
AcDbEntity
  8
doors
  6
ByLayer
 62
  256
370
   -1
100
AcDbLine
 10
87.731628207
 20
92.89399617700001
 11
87.731628207
 21
89.39399617700001
  0
LINE
  5
34D
100
AcDbEntity
  8
doors
  6
ByLayer
 62
  256
370
   -1
100
AcDbLine
 10
87.731628207
 20
89.39399617700001
 11
188.331628207
 21
89.39399617700001
  0
LINE
  5
34E
100
AcDbEntity
  8
doors
  6
ByLayer
 62
  256
370
   -1
100
AcDbLine
 10
286.531628207
 20
96.39399617700001
 11
286.531628207
 21
92.89399617700001
  0
LINE
  5
34F
100
AcDbEntity
  8
doors
  6
ByLayer
 62
  256
370
   -1
100
AcDbLine
 10
185.931628207
 20
96.39399617700001
 11
286.531628207
 21
96.39399617700001
  0
LINE
  5
350
100
AcDbEntity
  8
doors
  6
ByLayer
 62
  256
370
   -1
100
AcDbLine
 10
87.731628207
 20
92.89399617700001
 11
286.531628207
 21
92.89399617700001
  0
DIMENSION
  5
351
100
AcDbEntity
  8
dimension
  6
ByLayer
 62
  256
370
   -1
100
AcDbDimension
 10
1101.23162821
 20
398.127397379
 30
0
 11
1139.48162821
 21
408.127397379
 31
0
 70
   32
 71
    5
 72
    0
  3
Standard
 53
0
210
0
220
0
230
1
100
AcDbAlignedDimension
 13
1177.73162821
 23
330.393996177
 33
0
 14
1101.23162821
 24
330.393996177
 34
0
100
AcDbRotatedDimension
  0
LINE
  5
352
100
AcDbEntity
  8
container
  6
ByLayer
 62
  256
370
   -1
100
AcDbLine
 10
1178.73162821
 20
329.793996177
 11
1178.73162821
 21
325.393996177
  0
LINE
  5
353
100
AcDbEntity
  8
container
  6
ByLayer
 62
  256
370
   -1
100
AcDbLine
 10
1178.73162821
 20
91.39399617700001
 11
1178.73162821
 21
86.993996177
  0
LINE
  5
354
100
AcDbEntity
  8
container
  6
ByLayer
 62
  256
370
   -1
100
AcDbLine
 10
1178.73162821
 20
329.793996177
 11
1294.73162821
 21
329.793996177
  0
LINE
  5
355
100
AcDbEntity
  8
container
  6
ByLayer
 62
  256
370
   -1
100
AcDbLine
 10
1178.73162821
 20
325.393996177
 11
1294.73162821
 21
325.393996177
  0
LINE
  5
356
100
AcDbEntity
  8
container
  6
ByLayer
 62
  256
370
   -1
100
AcDbLine
 10
1178.73162821
 20
91.39399617700001
 11
1294.73162821
 21
91.39399617700001
  0
LINE
  5
357
100
AcDbEntity
  8
container
  6
ByLayer
 62
  256
370
   -1
100
AcDbLine
 10
1178.73162821
 20
86.993996177
 11
1294.73162821
 21
86.993996177
  0
LINE
  5
358
100
AcDbEntity
  8
doors
  6
ByLayer
 62
  256
370
   -1
100
AcDbLine
 10
1169.73162821
 20
91.39399617700001
 11
1169.73162821
 21
325.393996177
  0
LINE
  5
359
100
AcDbEntity
  8
doors
  6
ByLayer
 62
  256
370
   -1
100
AcDbLine
 10
1173.23162821
 20
91.39399617700001
 11
1173.23162821
 21
209.593996178
  0
LINE
  5
35A
100
AcDbEntity
  8
doors
  6
ByLayer
 62
  256
370
   -1
100
AcDbLine
 10
1166.23162821
 20
207.193996178
 11
1166.23162821
 21
325.393996177
  0
LINE
  5
35B
100
AcDbEntity
  8
doors
  6
ByLayer
 62
  256
370
   -1
100
AcDbLine
 10
1169.73162821
 20
209.593996178
 11
1173.23162821
 21
209.593996178
  0
LINE
  5
35C
100
AcDbEntity
  8
doors
  6
ByLayer
 62
  256
370
   -1
100
AcDbLine
 10
1166.23162821
 20
207.193996178
 11
1169.73162821
 21
207.193996178
  0
LINE
  5
35D
100
AcDbEntity
  8
doors
  6
ByLayer
 62
  256
370
   -1
100
AcDbLine
 10
1166.23162821
 20
325.393996177
 11
1169.73162821
 21
325.393996177
  0
LINE
  5
35E
100
AcDbEntity
  8
doors
  6
ByLayer
 62
  256
370
   -1
100
AcDbLine
 10
1169.73162821
 20
91.39399617700001
 11
1173.23162821
 21
91.39399617700001
  0
MTEXT
  5
35F
100
AcDbEntity
  8
text
  6
ByLayer
 62
  256
370
   -1
100
AcDbMText
 10
161.037299046
 20
75.46962529530001
 30
0
 40
15
 41
51.67238124703587
 71
    1
 72
    1
  1
slider
  7
standard
210
0
220
0
230
1
 50
0
 73
    2
 44
1
  0
MTEXT
  5
360
100
AcDbEntity
  8
text
  6
ByLayer
 62
  256
370
   -1
100
AcDbMText
 10
978.580616725
 20
71.749291654
 30
0
 40
15
 41
51.67238124703587
 71
    1
 72
    1
  1
slider
  7
standard
210
0
220
0
230
1
 50
0
 73
    2
 44
1
  0
MTEXT
  5
361
100
AcDbEntity
  8
text
  6
ByLayer
 62
  256
370
   -1
100
AcDbMText
 10
977.916271432
 20
353.410436876
 30
0
 40
15
 41
51.67238124703587
 71
    1
 72
    1
  1
slider
  7
standard
210
0
220
0
230
1
 50
0
 73
    2
 44
1
  0
MTEXT
  5
362
100
AcDbEntity
  8
text
  6
ByLayer
 62
  256
370
   -1
100
AcDbMText
 10
163.26949923
 20
353.206350002
 30
0
 40
15
 41
51.67238124703587
 71
    1
 72
    1
  1
slider
  7
standard
210
0
220
0
230
1
 50
0
 73
    2
 44
1
  0
LINE
  5
363
100
AcDbEntity
  8
0
  6
ByLayer
 62
  256
370
   -1
100
AcDbLine
 10
487.131628207
 20
95.793996177
 11
757.1316282069999
 21
95.793996177
  0
LINE
  5
364
100
AcDbEntity
  8
container
  6
ByLayer
 62
  256
370
   -1
100
AcDbLine
 10
749.6316282069999
 20
90.793996177
 11
668.891192154
 21
90.793996177
  0
LINE
  5
365
100
AcDbEntity
  8
container
  6
ByLayer
 62
  256
370
   -1
100
AcDbLine
 10
669.6316282069999
 20
86.39399617700001
 11
749.6316282069999
 21
86.39399617700001
  0
INSERT
  5
366
100
AcDbEntity
  8
tatami
  6
ByLayer
 62
  256
370
   -1
100
AcDbBlockReference
  2
KyotoKyomaTatami-0
 10
1048.98162821
 20
303.893996178
 30
0
 41
0.1
 42
0.1
 43
0
 50
180
 70
    1
 71
    1
 44
0
 45
0
  0
INSERT
  5
367
100
AcDbEntity
  8
tatami
  6
ByLayer
 62
  256
370
   -1
100
AcDbBlockReference
  2
KyotoKyomaTatami-1
 10
1048.98162821
 20
208.393996178
 30
0
 41
0.1
 42
0.1
 43
0
 50
180
 70
    1
 71
    1
 44
0
 45
0
  0
INSERT
  5
368
100
AcDbEntity
  8
tatami
  6
ByLayer
 62
  256
370
   -1
100
AcDbBlockReference
  2
KyotoKyomaTatamiVertical-1
 10
857.9816282100001
 20
112.893996178
 30
0
 41
0.1
 42
0.1
 43
0
 50
0
 70
    1
 71
    1
 44
0.1
 45
0.1
  0
INSERT
  5
369
100
AcDbEntity
  8
tatami
  6
ByLayer
 62
  256
370
   -1
100
AcDbBlockReference
  2
KyotoKyomaTatami-0
 10
762.4816282100001
 20
303.893996178
 30
0
 41
0.1
 42
0.1
 43
0
 50
180
 70
    1
 71
    1
 44
0
 45
0
  0
INSERT
  5
36A
100
AcDbEntity
  8
tatami
  6
ByLayer
 62
  256
370
   -1
100
AcDbBlockReference
  2
KyotoKyomaTatami-1
 10
762.4816282100001
 20
208.393996178
 30
0
 41
0.1
 42
0.1
 43
0
 50
180
 70
    1
 71
    1
 44
0
 45
0
  0
LINE
  5
36B
100
AcDbEntity
  8
0
  6
ByLayer
 62
  256
370
   -1
100
AcDbLine
 10
492.131628207
 20
320.993996178
 11
487.131628207
 21
320.993996178
  0
LINE
  5
36C
100
AcDbEntity
  8
0
  6
ByLayer
 62
  256
370
   -1
100
AcDbLine
 10
482.894578631
 20
320.993996178
 11
487.131628207
 21
320.993996178
  0
LINE
  5
36D
100
AcDbEntity
  8
0
  6
ByLayer
 62
  256
370
   -1
100
AcDbLine
 10
469.731628207
 20
320.993996177
 11
287.131628207
 21
320.993996177
  0
LINE
  5
36E
100
AcDbEntity
  8
0
  6
ByLayer
 62
  256
370
   -1
100
AcDbLine
 10
474.731628207
 20
320.993996177
 11
482.894578631
 21
320.993996178
  0
LINE
  5
36F
100
AcDbEntity
  8
0
  6
ByLayer
 62
  256
370
   -1
100
AcDbLine
 10
342.131628207
 20
95.793996177
 11
469.731628207
 21
95.793996177
  0
LINE
  5
370
100
AcDbEntity
  8
0
  6
ByLayer
 62
  256
370
   -1
100
AcDbLine
 10
474.731628207
 20
95.793996177
 11
487.131628207
 21
95.793996177
  0
LINE
  5
371
100
AcDbEntity
  8
0
  6
ByLayer
 62
  256
370
   -1
100
AcDbLine
 10
474.731628207
 20
95.793996177
 11
474.731628207
 21
320.993996177
  0
LINE
  5
372
100
AcDbEntity
  8
0
  6
ByLayer
 62
  256
370
   -1
100
AcDbLine
 10
469.731628207
 20
95.793996177
 11
469.731628207
 21
320.993996177
  0
LINE
  5
373
100
AcDbEntity
  8
cabinates
  6
ByLayer
 62
  256
370
   -1
100
AcDbLine
 10
389.731628207
 20
95.793996177
 11
389.731628207
 21
320.993996177
  0
LINE
  5
374
100
AcDbEntity
  8
cabinates
  6
ByLayer
 62
  256
370
   -1
100
AcDbLine
 10
554.731628207
 20
95.793996177
 11
554.731628207
 21
320.993996177
  0
LINE
  5
375
100
AcDbEntity
  8
0
  6
ByLayer
 62
  256
370
   -1
100
AcDbLine
 10
662.1316282069999
 20
320.993996177
 11
667.1316282069999
 21
320.993996177
  0
LINE
  5
376
100
AcDbEntity
  8
0
  6
ByLayer
 62
  256
370
   -1
100
AcDbLine
 10
752.1316282069999
 20
320.993996177
 11
757.1316282069999
 21
320.993996177
  0
LINE
  5
377
100
AcDbEntity
  8
container
  6
ByLayer
 62
  256
370
   -1
100
AcDbLine
 10
287.131628207
 20
325.993996177
 11
806.2316282100001
 21
325.993996177
  0
LINE
  5
378
100
AcDbEntity
  8
0
  6
ByLayer
 62
  256
370
   -1
100
AcDbLine
 10
796.1316282069999
 20
320.993996177
 11
806.2316282100001
 21
320.993996177
  0
LINE
  5
379
100
AcDbEntity
  8
doors
  6
ByLayer
 62
  256
370
   -1
100
AcDbLine
 10
806.83162821
 20
323.893996177
 11
1100.43162821
 21
323.893996177
  0
DIMENSION
  5
37A
100
AcDbEntity
  8
dimension
  6
ByLayer
 62
  256
370
   -1
100
AcDbDimension
 10
806.2316282100001
 20
398.138149683
 30
0
 11
953.7316282100001
 21
408.138149683
 31
0
 70
   32
 71
    5
  3
Standard
 53
0
210
0
220
0
230
1
100
AcDbAlignedDimension
 13
1101.23162821
 23
330.393996177
 33
0
 14
806.2316282100001
 24
330.393996177
 34
0
100
AcDbRotatedDimension
  0
LINE
  5
37B
100
AcDbEntity
  8
doors
  6
ByLayer
 62
  256
370
   -1
100
AcDbLine
 10
952.53162821
 20
327.393996177
 11
1100.43162821
 21
327.393996177
  0
LINE
  5
37C
100
AcDbEntity
  8
doors
  6
ByLayer
 62
  256
370
   -1
100
AcDbLine
 10
806.83162821
 20
320.393996177
 11
954.93162821
 21
320.393996177
  0
LINE
  5
37D
100
AcDbEntity
  8
doors
  6
ByLayer
 62
  256
370
   -1
100
AcDbLine
 10
952.53162821
 20
327.393996177
 11
952.53162821
 21
323.893996177
  0
LINE
  5
37E
100
AcDbEntity
  8
doors
  6
ByLayer
 62
  256
370
   -1
100
AcDbLine
 10
954.93162821
 20
323.893996177
 11
954.93162821
 21
320.393996177
  0
LINE
  5
37F
100
AcDbEntity
  8
doors
  6
ByLayer
 62
  256
370
   -1
100
AcDbLine
 10
806.83162821
 20
323.893996177
 11
806.83162821
 21
320.393996177
  0
LINE
  5
380
100
AcDbEntity
  8
container
  6
ByLayer
 62
  256
370
   -1
100
AcDbLine
 10
806.2316282100001
 20
330.393996177
 11
806.2316282100001
 21
325.993996177
  0
LINE
  5
381
100
AcDbEntity
  8
0
  6
ByLayer
 62
  256
370
   -1
100
AcDbLine
 10
806.2316282100001
 20
325.993996177
 11
806.2316282100001
 21
320.993996177
  0
LINE
  5
382
100
AcDbEntity
  8
0
  6
ByLayer
 62
  256
370
   -1
100
AcDbLine
 10
757.1316282069999
 20
95.793996177
 11
806.2316282100001
 21
95.793996177
  0
LINE
  5
383
100
AcDbEntity
  8
container
  6
ByLayer
 62
  256
370
   -1
100
AcDbLine
 10
749.6316282069999
 20
90.793996177
 11
806.2316282100001
 21
90.793996177
  0
LINE
  5
384
100
AcDbEntity
  8
doors
  6
ByLayer
 62
  256
370
   -1
100
AcDbLine
 10
952.53162821
 20
96.39399617700001
 11
1100.63162821
 21
96.39399617700001
  0
LINE
  5
385
100
AcDbEntity
  8
doors
  6
ByLayer
 62
  256
370
   -1
100
AcDbLine
 10
806.83162821
 20
92.89399617700001
 11
1100.63162821
 21
92.89399617700001
  0
LINE
  5
386
100
AcDbEntity
  8
doors
  6
ByLayer
 62
  256
370
   -1
100
AcDbLine
 10
806.83162821
 20
89.39399617700001
 11
954.93162821
 21
89.39399617700001
  0
LINE
  5
387
100
AcDbEntity
  8
0
  6
ByLayer
 62
  256
370
   -1
100
AcDbLine
 10
806.2316282100001
 20
95.793996177
 11
806.2316282100001
 21
90.793996177
  0
LINE
  5
388
100
AcDbEntity
  8
container
  6
ByLayer
 62
  256
370
   -1
100
AcDbLine
 10
806.2316282100001
 20
90.793996177
 11
806.2316282100001
 21
86.39399617700001
  0
LINE
  5
389
100
AcDbEntity
  8
doors
  6
ByLayer
 62
  256
370
   -1
100
AcDbLine
 10
952.53162821
 20
96.39399617700001
 11
952.53162821
 21
92.89399617700001
  0
LINE
  5
38A
100
AcDbEntity
  8
doors
  6
ByLayer
 62
  256
370
   -1
100
AcDbLine
 10
954.93162821
 20
92.89399617700001
 11
954.93162821
 21
89.39399617700001
  0
LINE
  5
38B
100
AcDbEntity
  8
doors
  6
ByLayer
 62
  256
370
   -1
100
AcDbLine
 10
806.83162821
 20
92.89399617700001
 11
806.83162821
 21
89.39399617700001
  0
MTEXT
  5
38C
100
AcDbEntity
  8
text
  6
ByLayer
 62
  256
370
   -1
100
AcDbMText
 10
496.598106587
 20
195.981861462
 30
0
 40
15
 41
50.00000771430867
 71
    1
 72
    1
  1
closit
  7
standard
210
0
220
0
230
1
 50
90
 73
    2
 44
1
  0
MTEXT
  5
38D
100
AcDbEntity
  8
text
  6
ByLayer
 62
  256
370
   -1
100
AcDbMText
 10
431.82444051
 20
199.303587928
 30
0
 40
15
 41
50.00000771430867
 71
    1
 72
    1
  1
closit
  7
standard
210
0
220
0
230
1
 50
90
 73
    2
 44
1
  0
MTEXT
  5
38E
100
AcDbEntity
  8
text
  6
ByLayer
 62
  256
370
   -1
100
AcDbMText
 10
162.100251515
 20
261.486307361
 30
0
 40
15
 41
69.58333333333333
 71
    1
 72
    1
  1
Bed 4T
  7
standard
210
0
220
0
230
1
 50
0
 73
    2
 44
1
  0
MTEXT
  5
38F
100
AcDbEntity
  8
text
  6
ByLayer
 62
  256
370
   -1
100
AcDbMText
 10
915.467813882
 20
254.444247255
 30
0
 40
15
 41
67.91666666666762
 71
    1
 72
    1
  1
Bed 6T
  7
standard
210
0
220
0
230
1
 50
0
 73
    2
 44
1
  0
DIMENSION
  5
390
100
AcDbEntity
  8
dimension
  6
ByLayer
 62
  256
370
   -1
100
AcDbDimension
 10
87.13162820700001
 20
398.12739738
 30
0
 11
22.4316282072
 21
408.12739738
 31
0
 70
   32
 71
    5
  3
Standard
 53
0
210
0
220
0
230
1
100
AcDbAlignedDimension
 13
-42.2683717927
 23
330.393996177
 33
0
 14
87.13162820700001
 24
330.393996177
 34
0
100
AcDbRotatedDimension
  0
DIMENSION
  5
391
100
AcDbEntity
  8
dimension
  6
ByLayer
 62
  256
370
   -1
100
AcDbDimension
 10
287.131628207
 20
398.183779404
 30
0
 11
187.131628207
 21
408.183779404
 31
0
 70
   32
 71
    5
  3
Standard
 53
0
210
0
220
0
230
1
100
AcDbAlignedDimension
 13
87.13162820700001
 23
330.393996177
 33
0
 14
287.131628207
 24
330.393996177
 34
0
100
AcDbRotatedDimension
  0
ENDBLK
  5
D8
330
D6
100
AcDbEntity
  8
0
100
AcDbBlockEnd
  0
ENDSEC
  0
SECTION
  2
ENTITIES
  0
LINE
  5
392
100
AcDbEntity
  8
deck
  6
ByLayer
 62
  256
370
   -1
100
AcDbLine
 10
-940.928660583
 20
850.923230743
 11
-940.928660583
 21
407.123230743
  0
LINE
  5
393
100
AcDbEntity
  8
deck
  6
ByLayer
 62
  256
370
   -1
100
AcDbLine
 10
-940.928660583
 20
123.123230743
 11
-940.928660583
 21
-320.676769257
  0
MTEXT
  5
394
100
AcDbEntity
  8
text
  6
ByLayer
 62
  256
370
   -1
100
AcDbMText
 10
-623.0038707149999
 20
281.94335755
 30
0
 40
6
 41
43.83333333333444
 71
    1
 72
    1
  1
zen garden
  7
standard
210
0
220
0
230
1
 50
0
 73
    2
 44
1
  0
LINE
  5
395
100
AcDbEntity
  8
container
  6
ByLayer
 62
  256
370
   -1
100
AcDbLine
 10
-945.328660583
 20
-436.676769257
 11
-940.928660583
 21
-436.676769257
  0
LINE
  5
396
100
AcDbEntity
  8
container
  6
ByLayer
 62
  256
370
   -1
100
AcDbLine
 10
-1183.72866058
 20
-436.676769257
 11
-1179.32866058
 21
-436.676769257
  0
LINE
  5
397
100
AcDbEntity
  8
container
  6
ByLayer
 62
  256
370
   -1
100
AcDbLine
 10
-1179.92866058
 20
895.9232307459999
 11
-944.728660583
 21
895.9232307459999
  0
LINE
  5
398
100
AcDbEntity
  8
container
  6
ByLayer
 62
  256
370
   -1
100
AcDbLine
 10
-1184.32866058
 20
900.323230746
 11
-940.328660583
 21
900.323230746
  0
LINE
  5
399
100
AcDbEntity
  8
container
  6
ByLayer
 62
  256
370
   -1
100
AcDbLine
 10
-1179.92866058
 20
-307.276769257
 11
-944.728660583
 21
-307.276769257
  0
LINE
  5
39A
100
AcDbEntity
  8
container
  6
ByLayer
 62
  256
370
   -1
100
AcDbLine
 10
-1184.32866058
 20
-319.676769257
 11
-940.328660583
 21
-319.676769257
  0
LINE
  5
39B
100
AcDbEntity
  8
container
  6
ByLayer
 62
  256
370
   -1
100
AcDbLine
 10
-940.328660583
 20
900.323230746
 11
-940.328660583
 21
-319.676769257
  0
INSERT
  5
39C
100
AcDbEntity
  8
eletrical
  6
ByLayer
 62
  256
370
   -1
100
AcDbBlockReference
  2
outlet110HorUp-0
 10
-1174.92866058
 20
-25.745004618
 30
0
 41
0.1
 42
0.1
 43
0
 50
270
 70
    1
 71
    1
 44
0.1
 45
0.1
  0
INSERT
  5
39D
100
AcDbEntity
  8
eletrical
  6
ByLayer
 62
  256
370
   -1
100
AcDbBlockReference
  2
outlet110HorUp-0
 10
-1174.92866058
 20
-288.233576597
 30
0
 41
0.1
 42
0.1
 43
0
 50
270
 70
    1
 71
    1
 44
0.1
 45
0.1
  0
INSERT
  5
39E
100
AcDbEntity
  8
tatami
  6
ByLayer
 62
  256
370
   -1
100
AcDbBlockReference
  2
KyotoKyomaTatamiVertical-8
 10
-966.828660582
 20
575.4232307459999
 30
0
 41
0.1
 42
0.1
 43
0
 50
90
 70
    1
 71
    1
 44
0
 45
0
  0
INSERT
  5
39F
100
AcDbEntity
  8
tatami
  6
ByLayer
 62
  256
370
   -1
100
AcDbBlockReference
  2
KyotoKyomaTatamiVertical-9
 10
-966.828660582
 20
861.9232307459999
 30
0
 41
0.1
 42
0.1
 43
0
 50
90
 70
    1
 71
    1
 44
0
 45
0
  0
INSERT
  5
3A0
100
AcDbEntity
  8
tatami
  6
ByLayer
 62
  256
370
   -1
100
AcDbBlockReference
  2
KyotoKyomaTatami-0
 10
-966.828660582
 20
575.4232307459999
 30
0
 41
0.1
 42
0.1
 43
0
 50
90
 70
    1
 71
    1
 44
0
 45
0
  0
INSERT
  5
3A1
100
AcDbEntity
  8
tatami
  6
ByLayer
 62
  256
370
   -1
100
AcDbBlockReference
  2
KyotoKyomaTatami-1
 10
-1062.32866058
 20
575.4232307459999
 30
0
 41
0.1
 42
0.1
 43
0
 50
90
 70
    1
 71
    1
 44
0
 45
0
  0
INSERT
  5
3A2
100
AcDbEntity
  8
eletrical
  6
ByLayer
 62
  256
370
   -1
100
AcDbBlockReference
  2
outlet110HorUp-0
 10
-1174.92866058
 20
872.732919166
 30
0
 41
0.1
 42
0.1
 43
0
 50
270
 70
    1
 71
    1
 44
0.1
 45
0.1
  0
INSERT
  5
3A3
100
AcDbEntity
  8
eletrical
  6
ByLayer
 62
  256
370
   -1
100
AcDbBlockReference
  2
outlet110HorUp-0
 10
-1174.92866058
 20
479.375662749
 30
0
 41
0.1
 42
0.1
 43
0
 50
270
 70
    1
 71
    1
 44
0.1
 45
0.1
  0
INSERT
  5
3A4
100
AcDbEntity
  8
eletrical
  6
ByLayer
 62
  256
370
   -1
100
AcDbBlockReference
  2
outlet110HorUp-0
 10
-949.728660583
 20
875.161050379
 30
0
 41
0.1
 42
0.1
 43
0
 50
90
 70
    1
 71
    1
 44
0.1
 45
0.1
  0
INSERT
  5
3A5
100
AcDbEntity
  8
eletrical
  6
ByLayer
 62
  256
370
   -1
100
AcDbBlockReference
  2
outlet110HorUp-0
 10
-949.728660583
 20
468.622510236
 30
0
 41
0.1
 42
0.1
 43
0
 50
90
 70
    1
 71
    1
 44
0.1
 45
0.1
  0
LINE
  5
3A6
100
AcDbEntity
  8
container
  6
ByLayer
 62
  256
370
   -1
100
AcDbLine
 10
-1184.32866058
 20
108.423230746
 11
-1184.32866058
 21
-319.676769257
  0
LINE
  5
3A7
100
AcDbEntity
  8
container
  6
ByLayer
 62
  256
370
   -1
100
AcDbLine
 10
-1179.92866058
 20
188.423230746
 11
-1179.92866058
 21
515.858681092
  0
LINE
  5
3A8
100
AcDbEntity
  8
container
  6
ByLayer
 62
  256
370
   -1
100
AcDbLine
 10
-1184.32866058
 20
515.858681092
 11
-1184.32866058
 21
188.423230746
  0
INSERT
  5
3A9
100
AcDbEntity
  8
tatami
  6
ByLayer
 62
  256
370
   -1
100
AcDbBlockReference
  2
KyotoKyomaTatamiVertical-1
 10
-1157.82866058
 20
-286.426769257
 30
0
 41
0.1
 42
0.1
 43
0
 50
270
 70
    1
 71
    1
 44
0.1
 45
0.1
  0
LINE
  5
3AA
100
AcDbEntity
  8
container
  6
ByLayer
 62
  256
370
   -1
100
AcDbLine
 10
-944.728660583
 20
-243.176769257
 11
-944.728660583
 21
-319.676769257
  0
LINE
  5
3AB
100
AcDbEntity
  8
container
  6
ByLayer
 62
  256
370
   -1
100
AcDbLine
 10
-1179.92866058
 20
-243.176769257
 11
-1179.92866058
 21
-319.676769257
  0
LINE
  5
3AC
100
AcDbEntity
  8
container
  6
ByLayer
 62
  256
370
   -1
100
AcDbLine
 10
-940.328660583
 20
-243.176769257
 11
-944.728660583
 21
-243.176769257
  0
LINE
  5
3AD
100
AcDbEntity
  8
doors
  6
ByLayer
 62
  256
370
   -1
100
AcDbLine
 10
-943.328660583
 20
-242.376769257
 11
-946.828660583
 21
-242.376769257
  0
LINE
  5
3AE
100
AcDbEntity
  8
container
  6
ByLayer
 62
  256
370
   -1
100
AcDbLine
 10
-1179.92866058
 20
-243.176769257
 11
-1184.32866058
 21
-243.176769257
  0
LINE
  5
3AF
100
AcDbEntity
  8
doors
  6
ByLayer
 62
  256
370
   -1
100
AcDbLine
 10
-1174.32866058
 20
-242.576769257
 11
-1177.82866058
 21
-242.576769257
  0
LINE
  5
3B0
100
AcDbEntity
  8
container
  6
ByLayer
 62
  256
370
   -1
100
AcDbLine
 10
-944.728660583
 20
770.9232307459999
 11
-940.328660583
 21
770.9232307459999
  0
LINE
  5
3B1
100
AcDbEntity
  8
container
  6
ByLayer
 62
  256
370
   -1
100
AcDbLine
 10
-944.728660582
 20
570.9232307459999
 11
-940.328660583
 21
570.9232307459999
  0
LINE
  5
3B2
100
AcDbEntity
  8
container
  6
ByLayer
 62
  256
370
   -1
100
AcDbLine
 10
-944.728660583
 20
895.9232307459999
 11
-944.728660583
 21
770.9232307459999
  0
LINE
  5
3B3
100
AcDbEntity
  8
doors
  6
ByLayer
 62
  256
370
   -1
100
AcDbLine
 10
-950.328660583
 20
669.723230746
 11
-946.828660583
 21
669.723230746
  0
LINE
  5
3B4
100
AcDbEntity
  8
doors
  6
ByLayer
 62
  256
370
   -1
100
AcDbLine
 10
-946.828660583
 20
672.123230746
 11
-943.328660583
 21
672.123230746
  0
LINE
  5
3B5
100
AcDbEntity
  8
doors
  6
ByLayer
 62
  256
370
   -1
100
AcDbLine
 10
-950.328660583
 20
770.323230746
 11
-950.328660583
 21
669.723230746
  0
LINE
  5
3B6
100
AcDbEntity
  8
doors
  6
ByLayer
 62
  256
370
   -1
100
AcDbLine
 10
-950.328660583
 20
770.323230746
 11
-946.828660583
 21
770.323230746
  0
LINE
  5
3B7
100
AcDbEntity
  8
doors
  6
ByLayer
 62
  256
370
   -1
100
AcDbLine
 10
-943.328660583
 20
672.123230746
 11
-943.328660583
 21
571.523230746
  0
LINE
  5
3B8
100
AcDbEntity
  8
doors
  6
ByLayer
 62
  256
370
   -1
100
AcDbLine
 10
-946.828660583
 20
770.323230746
 11
-946.828660583
 21
571.523230746
  0
LINE
  5
3B9
100
AcDbEntity
  8
doors
  6
ByLayer
 62
  256
370
   -1
100
AcDbLine
 10
-946.828660583
 20
571.523230746
 11
-943.328660583
 21
571.523230746
  0
LINE
  5
3BA
100
AcDbEntity
  8
container
  6
ByLayer
 62
  256
370
   -1
100
AcDbLine
 10
-1179.92866058
 20
570.9232307459999
 11
-1184.32866058
 21
570.9232307459999
  0
LINE
  5
3BB
100
AcDbEntity
  8
container
  6
ByLayer
 62
  256
370
   -1
100
AcDbLine
 10
-1179.92866058
 20
770.9232307459999
 11
-1184.32866058
 21
770.9232307459999
  0
LINE
  5
3BC
100
AcDbEntity
  8
container
  6
ByLayer
 62
  256
370
   -1
100
AcDbLine
 10
-1179.92866058
 20
895.9232307459999
 11
-1179.92866058
 21
770.9232307459999
  0
LINE
  5
3BD
100
AcDbEntity
  8
container
  6
ByLayer
 62
  256
370
   -1
100
AcDbLine
 10
-1184.32866058
 20
900.323230746
 11
-1184.32866058
 21
770.9232307459999
  0
LINE
  5
3BE
100
AcDbEntity
  8
container
  6
ByLayer
 62
  256
370
   -1
100
AcDbLine
 10
-1184.32866058
 20
570.9232307459999
 11
-1184.32866058
 21
515.858681092
  0
LINE
  5
3BF
100
AcDbEntity
  8
container
  6
ByLayer
 62
  256
370
   -1
100
AcDbLine
 10
-1179.92866058
 20
570.9232307459999
 11
-1179.92866058
 21
515.858681092
  0
LINE
  5
3C0
100
AcDbEntity
  8
container
  6
ByLayer
 62
  256
370
   -1
100
AcDbLine
 10
-1184.32866058
 20
770.9232307459999
 11
-1184.32866058
 21
570.9232307459999
  0
LINE
  5
3C1
100
AcDbEntity
  8
doors
  6
ByLayer
 62
  256
370
   -1
100
AcDbLine
 10
-1177.82866058
 20
669.723230746
 11
-1181.32866058
 21
669.723230746
  0
LINE
  5
3C2
100
AcDbEntity
  8
doors
  6
ByLayer
 62
  256
370
   -1
100
AcDbLine
 10
-1174.32866058
 20
672.123230746
 11
-1177.82866058
 21
672.123230746
  0
LINE
  5
3C3
100
AcDbEntity
  8
doors
  6
ByLayer
 62
  256
370
   -1
100
AcDbLine
 10
-1177.82866058
 20
770.323230746
 11
-1181.32866058
 21
770.323230746
  0
LINE
  5
3C4
100
AcDbEntity
  8
doors
  6
ByLayer
 62
  256
370
   -1
100
AcDbLine
 10
-1181.32866058
 20
770.323230746
 11
-1181.32866058
 21
669.723230746
  0
LINE
  5
3C5
100
AcDbEntity
  8
doors
  6
ByLayer
 62
  256
370
   -1
100
AcDbLine
 10
-1174.32866058
 20
571.523230746
 11
-1177.82866058
 21
571.523230746
  0
LINE
  5
3C6
100
AcDbEntity
  8
doors
  6
ByLayer
 62
  256
370
   -1
100
AcDbLine
 10
-1174.32866058
 20
672.123230746
 11
-1174.32866058
 21
571.523230746
  0
LINE
  5
3C7
100
AcDbEntity
  8
doors
  6
ByLayer
 62
  256
370
   -1
100
AcDbLine
 10
-1177.82866058
 20
770.323230746
 11
-1177.82866058
 21
571.523230746
  0
LINE
  5
3C8
100
AcDbEntity
  8
container
  6
ByLayer
 62
  256
370
   -1
100
AcDbLine
 10
-940.928660583
 20
-320.676769257
 11
-945.328660583
 21
-320.676769257
  0
LINE
  5
3C9
100
AcDbEntity
  8
container
  6
ByLayer
 62
  256
370
   -1
100
AcDbLine
 10
-1179.32866058
 20
-320.676769257
 11
-1183.72866058
 21
-320.676769257
  0
LINE
  5
3CA
100
AcDbEntity
  8
container
  6
ByLayer
 62
  256
370
   -1
100
AcDbLine
 10
-940.928660583
 20
-320.676769257
 11
-940.928660583
 21
-436.676769257
  0
LINE
  5
3CB
100
AcDbEntity
  8
container
  6
ByLayer
 62
  256
370
   -1
100
AcDbLine
 10
-945.328660583
 20
-320.676769257
 11
-945.328660583
 21
-436.676769257
  0
LINE
  5
3CC
100
AcDbEntity
  8
container
  6
ByLayer
 62
  256
370
   -1
100
AcDbLine
 10
-1179.32866058
 20
-320.676769257
 11
-1179.32866058
 21
-436.676769257
  0
LINE
  5
3CD
100
AcDbEntity
  8
container
  6
ByLayer
 62
  256
370
   -1
100
AcDbLine
 10
-1183.72866058
 20
-320.676769257
 11
-1183.72866058
 21
-436.676769257
  0
LINE
  5
3CE
100
AcDbEntity
  8
doors
  6
ByLayer
 62
  256
370
   -1
100
AcDbLine
 10
-1179.32866058
 20
-311.676769257
 11
-945.328660583
 21
-311.676769257
  0
LINE
  5
3CF
100
AcDbEntity
  8
doors
  6
ByLayer
 62
  256
370
   -1
100
AcDbLine
 10
-1179.32866058
 20
-315.176769257
 11
-1061.12866058
 21
-315.176769257
  0
LINE
  5
3D0
100
AcDbEntity
  8
doors
  6
ByLayer
 62
  256
370
   -1
100
AcDbLine
 10
-1063.52866058
 20
-308.176769257
 11
-945.328660583
 21
-308.176769257
  0
LINE
  5
3D1
100
AcDbEntity
  8
doors
  6
ByLayer
 62
  256
370
   -1
100
AcDbLine
 10
-1061.12866058
 20
-311.676769257
 11
-1061.12866058
 21
-315.176769257
  0
LINE
  5
3D2
100
AcDbEntity
  8
doors
  6
ByLayer
 62
  256
370
   -1
100
AcDbLine
 10
-1063.52866058
 20
-308.176769257
 11
-1063.52866058
 21
-311.676769257
  0
LINE
  5
3D3
100
AcDbEntity
  8
doors
  6
ByLayer
 62
  256
370
   -1
100
AcDbLine
 10
-945.328660583
 20
-308.176769257
 11
-945.328660583
 21
-311.676769257
  0
LINE
  5
3D4
100
AcDbEntity
  8
doors
  6
ByLayer
 62
  256
370
   -1
100
AcDbLine
 10
-1179.32866058
 20
-311.676769257
 11
-1179.32866058
 21
-315.176769257
  0
MTEXT
  5
3D5
100
AcDbEntity
  8
text
  6
ByLayer
 62
  256
370
   -1
100
AcDbMText
 10
-1195.25303146
 20
697.017559907
 30
0
 40
15
 41
51.67238124703587
 71
    1
 72
    1
  1
slider
  7
standard
210
0
220
0
230
1
 50
270
 73
    2
 44
1
  0
MTEXT
  5
3D6
100
AcDbEntity
  8
text
  6
ByLayer
 62
  256
370
   -1
100
AcDbMText
 10
-1198.97336511
 20
-120.525757772
 30
0
 40
15
 41
51.67238124703587
 71
    1
 72
    1
  1
slider
  7
standard
210
0
220
0
230
1
 50
270
 73
    2
 44
1
  0
MTEXT
  5
3D7
100
AcDbEntity
  8
text
  6
ByLayer
 62
  256
370
   -1
100
AcDbMText
 10
-917.312219884
 20
-119.861412479
 30
0
 40
15
 41
51.67238124703587
 71
    1
 72
    1
  1
slider
  7
standard
210
0
220
0
230
1
 50
270
 73
    2
 44
1
  0
MTEXT
  5
3D8
100
AcDbEntity
  8
text
  6
ByLayer
 62
  256
370
   -1
100
AcDbMText
 10
-917.516306758
 20
694.7853597230001
 30
0
 40
15
 41
51.67238124703587
 71
    1
 72
    1
  1
slider
  7
standard
210
0
220
0
230
1
 50
270
 73
    2
 44
1
  0
LINE
  5
3D9
100
AcDbEntity
  8
container
  6
ByLayer
 62
  256
370
   -1
100
AcDbLine
 10
-1179.92866058
 20
108.423230746
 11
-1179.92866058
 21
189.163666799
  0
LINE
  5
3DA
100
AcDbEntity
  8
container
  6
ByLayer
 62
  256
370
   -1
100
AcDbLine
 10
-1184.32866058
 20
188.423230746
 11
-1184.32866058
 21
108.423230746
  0
INSERT
  5
3DB
100
AcDbEntity
  8
tatami
  6
ByLayer
 62
  256
370
   -1
100
AcDbBlockReference
  2
KyotoKyomaTatami-0
 10
-966.828660582
 20
-190.926769257
 30
0
 41
0.1
 42
0.1
 43
0
 50
90
 70
    1
 71
    1
 44
0
 45
0
  0
INSERT
  5
3DC
100
AcDbEntity
  8
tatami
  6
ByLayer
 62
  256
370
   -1
100
AcDbBlockReference
  2
KyotoKyomaTatami-1
 10
-1062.32866058
 20
-190.926769257
 30
0
 41
0.1
 42
0.1
 43
0
 50
90
 70
    1
 71
    1
 44
0
 45
0
  0
INSERT
  5
3DD
100
AcDbEntity
  8
tatami
  6
ByLayer
 62
  256
370
   -1
100
AcDbBlockReference
  2
KyotoKyomaTatamiVertical-1
 10
-1157.82866058
 20
0.073230743
 30
0
 41
0.1
 42
0.1
 43
0
 50
270
 70
    1
 71
    1
 44
0.1
 45
0.1
  0
INSERT
  5
3DE
100
AcDbEntity
  8
tatami
  6
ByLayer
 62
  256
370
   -1
100
AcDbBlockReference
  2
KyotoKyomaTatami-0
 10
-966.828660582
 20
95.573230743
 30
0
 41
0.1
 42
0.1
 43
0
 50
90
 70
    1
 71
    1
 44
0
 45
0
  0
INSERT
  5
3DF
100
AcDbEntity
  8
tatami
  6
ByLayer
 62
  256
370
   -1
100
AcDbBlockReference
  2
KyotoKyomaTatami-1
 10
-1062.32866058
 20
95.573230743
 30
0
 41
0.1
 42
0.1
 43
0
 50
90
 70
    1
 71
    1
 44
0
 45
0
  0
LINE
  5
3E0
100
AcDbEntity
  8
cabinates
  6
ByLayer
 62
  256
370
   -1
100
AcDbLine
 10
-1174.92866058
 20
468.323230746
 11
-949.728660583
 21
468.323230746
  0
LINE
  5
3E1
100
AcDbEntity
  8
cabinates
  6
ByLayer
 62
  256
370
   -1
100
AcDbLine
 10
-1174.92866058
 20
303.323230746
 11
-949.728660583
 21
303.323230746
  0
LINE
  5
3E2
100
AcDbEntity
  8
container
  6
ByLayer
 62
  256
370
   -1
100
AcDbLine
 10
-944.728660583
 20
570.9232307459999
 11
-944.728660583
 21
51.823230743
  0
LINE
  5
3E3
100
AcDbEntity
  8
doors
  6
ByLayer
 62
  256
370
   -1
100
AcDbLine
 10
-946.828660583
 20
51.223230743
 11
-946.828660583
 21
-242.376769257
  0
LINE
  5
3E4
100
AcDbEntity
  8
doors
  6
ByLayer
 62
  256
370
   -1
100
AcDbLine
 10
-943.328660583
 20
-94.476769257
 11
-943.328660583
 21
-242.376769257
  0
LINE
  5
3E5
100
AcDbEntity
  8
doors
  6
ByLayer
 62
  256
370
   -1
100
AcDbLine
 10
-950.328660583
 20
51.223230743
 11
-950.328660583
 21
-96.87676925700001
  0
LINE
  5
3E6
100
AcDbEntity
  8
doors
  6
ByLayer
 62
  256
370
   -1
100
AcDbLine
 10
-943.328660583
 20
-94.476769257
 11
-946.828660583
 21
-94.476769257
  0
LINE
  5
3E7
100
AcDbEntity
  8
doors
  6
ByLayer
 62
  256
370
   -1
100
AcDbLine
 10
-946.828660583
 20
-96.87676925700001
 11
-950.328660583
 21
-96.87676925700001
  0
LINE
  5
3E8
100
AcDbEntity
  8
doors
  6
ByLayer
 62
  256
370
   -1
100
AcDbLine
 10
-946.828660583
 20
51.223230743
 11
-950.328660583
 21
51.223230743
  0
LINE
  5
3E9
100
AcDbEntity
  8
container
  6
ByLayer
 62
  256
370
   -1
100
AcDbLine
 10
-940.328660583
 20
51.823230743
 11
-944.728660583
 21
51.823230743
  0
LINE
  5
3EA
100
AcDbEntity
  8
container
  6
ByLayer
 62
  256
370
   -1
100
AcDbLine
 10
-1179.92866058
 20
108.423230746
 11
-1179.92866058
 21
51.823230743
  0
LINE
  5
3EB
100
AcDbEntity
  8
doors
  6
ByLayer
 62
  256
370
   -1
100
AcDbLine
 10
-1174.32866058
 20
-94.476769257
 11
-1174.32866058
 21
-242.576769257
  0
LINE
  5
3EC
100
AcDbEntity
  8
doors
  6
ByLayer
 62
  256
370
   -1
100
AcDbLine
 10
-1177.82866058
 20
51.223230743
 11
-1177.82866058
 21
-242.576769257
  0
LINE
  5
3ED
100
AcDbEntity
  8
doors
  6
ByLayer
 62
  256
370
   -1
100
AcDbLine
 10
-1181.32866058
 20
51.223230743
 11
-1181.32866058
 21
-96.87676925700001
  0
LINE
  5
3EE
100
AcDbEntity
  8
container
  6
ByLayer
 62
  256
370
   -1
100
AcDbLine
 10
-1179.92866058
 20
51.823230743
 11
-1184.32866058
 21
51.823230743
  0
LINE
  5
3EF
100
AcDbEntity
  8
doors
  6
ByLayer
 62
  256
370
   -1
100
AcDbLine
 10
-1174.32866058
 20
-94.476769257
 11
-1177.82866058
 21
-94.476769257
  0
LINE
  5
3F0
100
AcDbEntity
  8
doors
  6
ByLayer
 62
  256
370
   -1
100
AcDbLine
 10
-1177.82866058
 20
-96.87676925700001
 11
-1181.32866058
 21
-96.87676925700001
  0
LINE
  5
3F1
100
AcDbEntity
  8
doors
  6
ByLayer
 62
  256
370
   -1
100
AcDbLine
 10
-1177.82866058
 20
51.223230743
 11
-1181.32866058
 21
51.223230743
  0
MTEXT
  5
3F2
100
AcDbEntity
  8
text
  6
ByLayer
 62
  256
370
   -1
100
AcDbMText
 10
-1074.7407953
 20
361.456752366
 30
0
 40
15
 41
50.00000771430867
 71
    1
 72
    1
  1
closit
  7
standard
210
0
220
0
230
1
 50
0
 73
    2
 44
1
  0
MTEXT
  5
3F3
100
AcDbEntity
  8
text
  6
ByLayer
 62
  256
370
   -1
100
AcDbMText
 10
-1071.41906883
 20
426.230418443
 30
0
 40
15
 41
50.00000771430867
 71
    1
 72
    1
  1
closit
  7
standard
210
0
220
0
230
1
 50
0
 73
    2
 44
1
  0
MTEXT
  5
3F4
100
AcDbEntity
  8
text
  6
ByLayer
 62
  256
370
   -1
100
AcDbMText
 10
-1009.2363494
 20
695.954607438
 30
0
 40
15
 41
69.58333333333333
 71
    1
 72
    1
  1
Bed 4T
  7
standard
210
0
220
0
230
1
 50
270
 73
    2
 44
1
  0
MTEXT
  5
3F5
100
AcDbEntity
  8
text
  6
ByLayer
 62
  256
370
   -1
100
AcDbMText
 10
-1016.27840951
 20
-57.412954929
 30
0
 40
15
 41
67.91666666666762
 71
    1
 72
    1
  1
Bed 6T
  7
standard
210
0
220
0
230
1
 50
270
 73
    2
 44
1
  0
LINE
  5
3F6
100
AcDbEntity
  8
deck
  6
ByLayer
 62
  256
370
   -1
100
AcDbLine
 10
-1284.32866058
 20
1000.32323075
 11
-1284.32866058
 21
-536.676769257
  0
LINE
  5
3F7
100
AcDbEntity
  8
0
  6
ByLayer
 62
  256
370
   -1
100
AcDbLine
 10
-538.028660583
 20
900.323230746
 11
-840.928660583
 21
900.323230746
  0
LINE
  5
3F8
100
AcDbEntity
  8
0
  6
ByLayer
 62
  256
370
   -1
100
AcDbLine
 10
-538.028660583
 20
900.323230746
 11
-538.028660583
 21
656.323230746
  0
LINE
  5
3F9
100
AcDbEntity
  8
0
  6
ByLayer
 62
  256
370
   -1
100
AcDbLine
 10
-538.028660583
 20
656.323230746
 11
-840.928660583
 21
656.323230746
  0
LINE
  5
3FA
100
AcDbEntity
  8
0
  6
ByLayer
 62
  256
370
   -1
100
AcDbLine
 10
-840.928660583
 20
900.323230746
 11
-840.928660583
 21
656.323230746
  0
LINE
  5
3FB
100
AcDbEntity
  8
0
  6
ByLayer
 62
  256
370
   -1
100
AcDbLine
 10
-542.428660583
 20
895.9232307459999
 11
-542.428660583
 21
660.723230746
  0
LINE
  5
3FC
100
AcDbEntity
  8
0
  6
ByLayer
 62
  256
370
   -1
100
AcDbLine
 10
-542.428660583
 20
895.9232307459999
 11
-840.928660583
 21
895.9232307459999
  0
LINE
  5
3FD
100
AcDbEntity
  8
0
  6
ByLayer
 62
  256
370
   -1
100
AcDbLine
 10
-542.428660583
 20
660.723230746
 11
-840.928660583
 21
660.723230746
  0
LINE
  5
3FE
100
AcDbEntity
  8
walls
  6
ByLayer
 62
  256
370
   -1
100
AcDbLine
 10
-547.428660583
 20
665.723230746
 11
-840.928660583
 21
665.723230746
  0
LINE
  5
3FF
100
AcDbEntity
  8
walls
  6
ByLayer
 62
  256
370
   -1
100
AcDbLine
 10
-547.428660583
 20
890.9232307459999
 11
-840.928660583
 21
890.9232307459999
  0
LINE
  5
400
100
AcDbEntity
  8
walls
  6
ByLayer
 62
  256
370
   -1
100
AcDbLine
 10
-547.428660583
 20
890.9232307459999
 11
-547.428660583
 21
665.723230746
  0
LINE
  5
401
100
AcDbEntity
  8
walls
  6
ByLayer
 62
  256
370
   -1
100
AcDbLine
 10
-707.428660583
 20
854.723230746
 11
-712.428660583
 21
854.723230746
  0
LINE
  5
402
100
AcDbEntity
  8
walls
  6
ByLayer
 62
  256
370
   -1
100
AcDbLine
 10
-712.428660583
 20
854.723230746
 11
-712.428660583
 21
890.9232307459999
  0
LINE
  5
403
100
AcDbEntity
  8
walls
  6
ByLayer
 62
  256
370
   -1
100
AcDbLine
 10
-707.428660583
 20
854.723230746
 11
-707.428660583
 21
890.9232307459999
  0
LINE
  5
404
100
AcDbEntity
  8
0
  6
ByLayer
 62
  256
370
   -1
100
AcDbLine
 10
-821.328660583
 20
660.723230746
 11
-821.328660583
 21
895.9232307459999
  0
LINE
  5
405
100
AcDbEntity
  8
walls
  6
ByLayer
 62
  256
370
   -1
100
AcDbLine
 10
-824.928660583
 20
786.723230746
 11
-824.928660583
 21
665.723230746
  0
LINE
  5
406
100
AcDbEntity
  8
walls
  6
ByLayer
 62
  256
370
   -1
100
AcDbLine
 10
-829.928660583
 20
665.723230746
 11
-829.928660583
 21
791.723230746
  0
LINE
  5
407
100
AcDbEntity
  8
walls
  6
ByLayer
 62
  256
370
   -1
100
AcDbLine
 10
-821.928660583
 20
786.723230746
 11
-821.928660583
 21
791.723230746
  0
LINE
  5
408
100
AcDbEntity
  8
walls
  6
ByLayer
 62
  256
370
   -1
100
AcDbLine
 10
-821.928660583
 20
791.723230746
 11
-824.928660583
 21
791.723230746
  0
LINE
  5
409
100
AcDbEntity
  8
walls
  6
ByLayer
 62
  256
370
   -1
100
AcDbLine
 10
-547.428660583
 20
796.723230746
 11
-707.428660583
 21
796.723230746
  0
LINE
  5
40A
100
AcDbEntity
  8
walls
  6
ByLayer
 62
  256
370
   -1
100
AcDbLine
 10
-707.428660583
 20
799.723230746
 11
-712.428660583
 21
799.723230746
  0
LINE
  5
40B
100
AcDbEntity
  8
walls
  6
ByLayer
 62
  256
370
   -1
100
AcDbLine
 10
-712.428660583
 20
799.723230746
 11
-712.428660583
 21
796.723230746
  0
LINE
  5
40C
100
AcDbEntity
  8
walls
  6
ByLayer
 62
  256
370
   -1
100
AcDbLine
 10
-707.428660583
 20
799.723230746
 11
-707.428660583
 21
796.723230746
  0
LINE
  5
40D
100
AcDbEntity
  8
doors
  6
ByLayer
 62
  256
370
   -1
100
AcDbLine
 10
-707.428660583
 20
799.723230746
 11
-648.721840232
 21
812.113115503
  0
LINE
  5
40E
100
AcDbEntity
  8
doors
  6
ByLayer
 62
  256
370
   -1
100
AcDbLine
 10
-707.944905781
 20
802.1693482610001
 11
-649.23808543
 21
814.559233018
  0
ARC
  5
40F
100
AcDbEntity
  8
doors
  6
ByLayer
 62
  256
370
   -1
100
AcDbCircle
 10
-707.428660583
 20
799.723230746
 40
60
100
AcDbArc
 50
11.917209257
 51
90
  0
LINE
  5
410
100
AcDbEntity
  8
doors
  6
ByLayer
 62
  256
370
   -1
100
AcDbLine
 10
-648.721840232
 20
812.113115503
 11
-649.28906835
 21
814.5484732370001
  0
LINE
  5
411
100
AcDbEntity
  8
doors
  6
ByLayer
 62
  256
370
   -1
100
AcDbLine
 10
-707.428660583
 20
799.723230746
 11
-707.944905781
 21
802.1693482610001
  0
LINE
  5
412
100
AcDbEntity
  8
walls
  6
ByLayer
 62
  256
370
   -1
100
AcDbLine
 10
-829.928660583
 20
791.723230746
 11
-824.928660583
 21
791.723230746
  0
LINE
  5
413
100
AcDbEntity
  8
walls
  6
ByLayer
 62
  256
370
   -1
100
AcDbLine
 10
-547.428660583
 20
791.723230746
 11
-712.428660583
 21
791.723230746
  0
LINE
  5
414
100
AcDbEntity
  8
walls
  6
ByLayer
 62
  256
370
   -1
100
AcDbLine
 10
-712.428660583
 20
791.723230746
 11
-741.328660583
 21
791.723230746
  0
LINE
  5
415
100
AcDbEntity
  8
walls
  6
ByLayer
 62
  256
370
   -1
100
AcDbLine
 10
-712.428660583
 20
796.723230746
 11
-741.328660583
 21
796.723230746
  0
LINE
  5
416
100
AcDbEntity
  8
walls
  6
ByLayer
 62
  256
370
   -1
100
AcDbLine
 10
-741.328660583
 20
791.723230746
 11
-741.328660583
 21
796.723230746
  0
LINE
  5
417
100
AcDbEntity
  8
doors
  6
ByLayer
 62
  256
370
   -1
100
AcDbLine
 10
-741.328660583
 20
786.723230746
 11
-661.3286605830001
 21
786.723230746
  0
LINE
  5
418
100
AcDbEntity
  8
doors
  6
ByLayer
 62
  256
370
   -1
100
AcDbLine
 10
-661.3286605830001
 20
786.723230746
 11
-661.3286605830001
 21
790.723230746
  0
LINE
  5
419
100
AcDbEntity
  8
doors
  6
ByLayer
 62
  256
370
   -1
100
AcDbLine
 10
-661.3286605830001
 20
790.723230746
 11
-741.328660583
 21
790.723230746
  0
LINE
  5
41A
100
AcDbEntity
  8
doors
  6
ByLayer
 62
  256
370
   -1
100
AcDbLine
 10
-741.328660583
 20
790.723230746
 11
-741.328660583
 21
786.723230746
  0
LINE
  5
41B
100
AcDbEntity
  8
walls
  6
ByLayer
 62
  256
370
   -1
100
AcDbLine
 10
-821.928660583
 20
786.723230746
 11
-824.928660583
 21
786.723230746
  0
LINE
  5
41C
100
AcDbEntity
  8
walls
  6
ByLayer
 62
  256
370
   -1
100
AcDbLine
 10
-829.928660583
 20
791.723230746
 11
-829.928660583
 21
796.723230746
  0
LINE
  5
41D
100
AcDbEntity
  8
walls
  6
ByLayer
 62
  256
370
   -1
100
AcDbLine
 10
-829.928660583
 20
796.723230746
 11
-821.928660583
 21
796.723230746
  0
LINE
  5
41E
100
AcDbEntity
  8
walls
  6
ByLayer
 62
  256
370
   -1
100
AcDbLine
 10
-821.928660583
 20
796.723230746
 11
-821.928660583
 21
791.723230746
  0
LINE
  5
41F
100
AcDbEntity
  8
walls
  6
ByLayer
 62
  256
370
   -1
100
AcDbLine
 10
-741.328660583
 20
791.723230746
 11
-821.928660583
 21
791.723230746
  0
LINE
  5
420
100
AcDbEntity
  8
doors
  6
ByLayer
 62
  256
370
   -1
100
AcDbLine
 10
-835.928660583
 20
799.723230746
 11
-835.928660583
 21
699.723230746
  0
LINE
  5
421
100
AcDbEntity
  8
doors
  6
ByLayer
 62
  256
370
   -1
100
AcDbLine
 10
-835.928660583
 20
699.723230746
 11
-830.928660583
 21
699.723230746
  0
LINE
  5
422
100
AcDbEntity
  8
doors
  6
ByLayer
 62
  256
370
   -1
100
AcDbLine
 10
-830.928660583
 20
699.723230746
 11
-830.928660583
 21
799.723230746
  0
LINE
  5
423
100
AcDbEntity
  8
doors
  6
ByLayer
 62
  256
370
   -1
100
AcDbLine
 10
-830.928660583
 20
799.723230746
 11
-835.928660583
 21
799.723230746
  0
LINE
  5
424
100
AcDbEntity
  8
walls
  6
ByLayer
 62
  256
370
   -1
100
AcDbLine
 10
-741.328660583
 20
786.723230746
 11
-821.928660583
 21
786.723230746
  0
LINE
  5
425
100
AcDbEntity
  8
walls
  6
ByLayer
 62
  256
370
   -1
100
AcDbLine
 10
-741.328660583
 20
796.723230746
 11
-821.928660583
 21
796.723230746
  0
ELLIPSE
  5
426
100
AcDbEntity
  8
fixtures
  6
ByLayer
 62
  256
370
   -1
100
AcDbEllipse
 10
-605.643139451
 20
841.6474830750001
 30
0
 11
27.1415755389
 21
-0.542831510779
 31
0
 40
0.817719891892
 41
6.28318530718
 42
12.5663706144
  0
LINE
  5
427
100
AcDbEntity
  8
fixtures
  6
ByLayer
 62
  256
370
   -1
100
AcDbLine
 10
-550.428660583
 20
817.823230746
 11
-571.428660583
 21
817.823230746
  0
LINE
  5
428
100
AcDbEntity
  8
fixtures
  6
ByLayer
 62
  256
370
   -1
100
AcDbLine
 10
-571.428660583
 20
817.823230746
 11
-571.428660583
 21
864.823230746
  0
LINE
  5
429
100
AcDbEntity
  8
fixtures
  6
ByLayer
 62
  256
370
   -1
100
AcDbLine
 10
-571.428660583
 20
864.823230746
 11
-550.428660583
 21
864.823230746
  0
LINE
  5
42A
100
AcDbEntity
  8
fixtures
  6
ByLayer
 62
  256
370
   -1
100
AcDbLine
 10
-550.428660583
 20
864.823230746
 11
-550.428660583
 21
817.823230746
  0
LINE
  5
42B
100
AcDbEntity
  8
fixtures
  6
ByLayer
 62
  256
370
   -1
100
AcDbLine
 10
-548.428660583
 20
785.723230746
 11
-667.428660583
 21
785.723230746
  0
LINE
  5
42C
100
AcDbEntity
  8
fixtures
  6
ByLayer
 62
  256
370
   -1
100
AcDbLine
 10
-548.428660583
 20
785.723230746
 11
-548.428660583
 21
666.723230746
  0
LINE
  5
42D
100
AcDbEntity
  8
fixtures
  6
ByLayer
 62
  256
370
   -1
100
AcDbLine
 10
-548.428660583
 20
666.723230746
 11
-667.428660583
 21
666.723230746
  0
LINE
  5
42E
100
AcDbEntity
  8
fixtures
  6
ByLayer
 62
  256
370
   -1
100
AcDbLine
 10
-667.428660583
 20
785.723230746
 11
-667.428660583
 21
666.723230746
  0
ARC
  5
42F
100
AcDbEntity
  8
fixtures
  6
ByLayer
 62
  256
370
   -1
100
AcDbCircle
 10
-644.296932599
 20
689.85495873
 40
13.5
100
AcDbArc
 50
193.413661903
 51
256.586338097
  0
ARC
  5
430
100
AcDbEntity
  8
fixtures
  6
ByLayer
 62
  256
370
   -1
100
AcDbCircle
 10
-571.560388567
 20
689.85495873
 40
13.5
100
AcDbArc
 50
283.413661903
 51
346.586338097
  0
ARC
  5
431
100
AcDbEntity
  8
fixtures
  6
ByLayer
 62
  256
370
   -1
100
AcDbCircle
 10
-644.296932599
 20
762.591502762
 40
13.5
100
AcDbArc
 50
103.413661903
 51
166.586338097
  0
ARC
  5
432
100
AcDbEntity
  8
fixtures
  6
ByLayer
 62
  256
370
   -1
100
AcDbCircle
 10
-571.560388567
 20
762.591502762
 40
13.5
100
AcDbArc
 50
13.413661903
 51
76.586338097
  0
LINE
  5
433
100
AcDbEntity
  8
fixtures
  6
ByLayer
 62
  256
370
   -1
100
AcDbLine
 10
-568.428660583
 20
676.723230746
 11
-647.428660583
 21
676.723230746
  0
LINE
  5
434
100
AcDbEntity
  8
fixtures
  6
ByLayer
 62
  256
370
   -1
100
AcDbLine
 10
-568.428660583
 20
775.723230746
 11
-647.428660583
 21
775.723230746
  0
LINE
  5
435
100
AcDbEntity
  8
fixtures
  6
ByLayer
 62
  256
370
   -1
100
AcDbLine
 10
-558.428660583
 20
765.723230746
 11
-558.428660583
 21
686.723230746
  0
LINE
  5
436
100
AcDbEntity
  8
fixtures
  6
ByLayer
 62
  256
370
   -1
100
AcDbLine
 10
-657.428660583
 20
765.723230746
 11
-657.428660583
 21
686.723230746
  0
CIRCLE
  5
437
100
AcDbEntity
  8
fixtures
  6
ByLayer
 62
  256
370
   -1
100
AcDbCircle
 10
-741.2519473550001
 20
726.348750087
 40
5
  0
CIRCLE
  5
438
100
AcDbEntity
  8
fixtures
  6
ByLayer
 62
  256
370
   -1
100
AcDbCircle
 10
-607.5179155979999
 20
725.723824705
 40
5
  0
LINE
  5
439
100
AcDbEntity
  8
0
  6
ByLayer
 62
  256
370
   -1
100
AcDbLine
 10
-723.9286605825
 20
906.323230746
 11
-840.928660583
 21
906.323230746
  0
LINE
  5
43A
100
AcDbEntity
  8
0
  6
ByLayer
 62
  256
370
   -1
100
AcDbLine
 10
-723.9286605825
 20
902.323230746
 11
-840.928660583
 21
902.323230746
  0
LINE
  5
43B
100
AcDbEntity
  8
0
  6
ByLayer
 62
  256
370
   -1
100
AcDbLine
 10
-840.928660583
 20
906.323230746
 11
-840.928660583
 21
902.323230746
  0
LINE
  5
43C
100
AcDbEntity
  8
0
  6
ByLayer
 62
  256
370
   -1
100
AcDbLine
 10
-723.9286605825
 20
906.323230746
 11
-723.9286605825
 21
902.323230746
  0
LINE
  5
43D
100
AcDbEntity
  8
0
  6
ByLayer
 62
  256
370
   -1
100
AcDbLine
 10
-723.9286605825
 20
650.323230746
 11
-840.928660583
 21
650.323230746
  0
LINE
  5
43E
100
AcDbEntity
  8
0
  6
ByLayer
 62
  256
370
   -1
100
AcDbLine
 10
-723.9286605825
 20
654.323230746
 11
-840.928660583
 21
654.323230746
  0
LINE
  5
43F
100
AcDbEntity
  8
0
  6
ByLayer
 62
  256
370
   -1
100
AcDbLine
 10
-840.928660583
 20
650.323230746
 11
-840.928660583
 21
654.323230746
  0
LINE
  5
440
100
AcDbEntity
  8
0
  6
ByLayer
 62
  256
370
   -1
100
AcDbLine
 10
-723.9286605825
 20
650.323230746
 11
-723.9286605825
 21
654.323230746
  0
MTEXT
  5
441
100
AcDbEntity
  8
text
  6
ByLayer
 62
  256
370
   -1
100
AcDbMText
 10
-465.441124058
 20
961.3968697460001
 30
0
 40
6
 41
144.666669752391
 71
    1
 72
    1
  1
enclosed perimiter deck 100cm wide\Proof over
  7
standard
210
0
220
0
230
1
 50
0
 73
    2
 44
1
  0
LINE
  5
442
100
AcDbEntity
  8
wall
  6
ByLayer
 62
  256
370
   -1
100
AcDbLine
 10
-528.6286605830001
 20
665.9232307460001
 11
-528.6286605830001
 21
890.9232307460001
  0
LINE
  5
443
100
AcDbEntity
  8
cabinates
  6
ByLayer
 62
  256
370
   -1
100
AcDbLine
 10
-448.6286605830001
 20
665.9232307460001
 11
-448.6286605830001
 21
890.9232307460001
  0
LINE
  5
444
100
AcDbEntity
  8
cabinates
  6
ByLayer
 62
  256
370
   -1
100
AcDbLine
 10
-458.6286605830001
 20
665.9232307460001
 11
-458.6286605830001
 21
890.9232307460001
  0
MTEXT
  5
445
100
AcDbEntity
  8
text
  6
ByLayer
 62
  256
370
   -1
100
AcDbMText
 10
-519.903660583
 20
842.6023323090001
 30
0
 40
5
 41
59.16667180953912
 71
    1
 72
    1
  1
closet for futons
  7
standard
210
0
220
0
230
1
 50
0
 73
    2
 44
1
  0
LINE
  5
446
100
AcDbEntity
  8
tatami182
  6
ByLayer
 62
  256
370
   -1
100
AcDbLine
 10
33.87133941699994
 20
869.4232307460001
 11
33.87133941699994
 21
687.4232307460001
  0
LINE
  5
447
100
AcDbEntity
  8
tatami182
  6
ByLayer
 62
  256
370
   -1
100
AcDbLine
 10
33.87133941699994
 20
687.4232307460001
 11
-57.12866058300006
 21
687.4232307460001
  0
LINE
  5
448
100
AcDbEntity
  8
tatami182
  6
ByLayer
 62
  256
370
   -1
100
AcDbLine
 10
-57.12866058300006
 20
869.4232307460001
 11
33.87133941699994
 21
869.4232307460001
  0
LINE
  5
449
100
AcDbEntity
  8
tatami182
  6
ByLayer
 62
  256
370
   -1
100
AcDbLine
 10
-57.12866058300006
 20
869.4232307460001
 11
-57.12866058300006
 21
778.4232307460001
  0
LINE
  5
44A
100
AcDbEntity
  8
tatami182
  6
ByLayer
 62
  256
370
   -1
100
AcDbLine
 10
-148.1286605830001
 20
778.4232307460001
 11
-148.1286605830001
 21
869.4232307460001
  0
LINE
  5
44B
100
AcDbEntity
  8
tatami182
  6
ByLayer
 62
  256
370
   -1
100
AcDbLine
 10
-148.1286605830001
 20
869.4232307460001
 11
-57.12866058300006
 21
869.4232307460001
  0
LINE
  5
44C
100
AcDbEntity
  8
tatami182
  6
ByLayer
 62
  256
370
   -1
100
AcDbLine
 10
-57.12866058300006
 20
778.4232307460001
 11
-57.12866058300006
 21
687.4232307460001
  0
LINE
  5
44D
100
AcDbEntity
  8
tatami182
  6
ByLayer
 62
  256
370
   -1
100
AcDbLine
 10
-148.1286605830001
 20
778.4232307460001
 11
-57.12866058300006
 21
778.4232307460001
  0
LINE
  5
44E
100
AcDbEntity
  8
tatami182
  6
ByLayer
 62
  256
370
   -1
100
AcDbLine
 10
-148.1286605830001
 20
869.4232307460001
 11
-148.1286605830001
 21
687.4232307460001
  0
LINE
  5
44F
100
AcDbEntity
  8
tatami182
  6
ByLayer
 62
  256
370
   -1
100
AcDbLine
 10
-148.1286605830001
 20
687.4232307460001
 11
-239.1286605830001
 21
687.4232307460001
  0
LINE
  5
450
100
AcDbEntity
  8
tatami182
  6
ByLayer
 62
  256
370
   -1
100
AcDbLine
 10
-239.1286605830001
 20
687.4232307460001
 11
-239.1286605830001
 21
869.4232307460001
  0
LINE
  5
451
100
AcDbEntity
  8
tatami182
  6
ByLayer
 62
  256
370
   -1
100
AcDbLine
 10
-239.1286605830001
 20
869.4232307460001
 11
-148.1286605830001
 21
869.4232307460001
  0
LINE
  5
452
100
AcDbEntity
  8
tatami182
  6
ByLayer
 62
  256
370
   -1
100
AcDbLine
 10
-239.1286605830001
 20
869.4232307460001
 11
-239.1286605830001
 21
778.4232307460001
  0
LINE
  5
453
100
AcDbEntity
  8
tatami182
  6
ByLayer
 62
  256
370
   -1
100
AcDbLine
 10
-239.1286605830001
 20
778.4232307460001
 11
-330.1286605830001
 21
778.4232307460001
  0
LINE
  5
454
100
AcDbEntity
  8
tatami182
  6
ByLayer
 62
  256
370
   -1
100
AcDbLine
 10
-330.1286605830001
 20
869.4232307460001
 11
-239.1286605830001
 21
869.4232307460001
  0
LINE
  5
455
100
AcDbEntity
  8
tatami182
  6
ByLayer
 62
  256
370
   -1
100
AcDbLine
 10
-330.1286605830001
 20
778.4232307460001
 11
-239.1286605830001
 21
778.4232307460001
  0
LINE
  5
456
100
AcDbEntity
  8
tatami182
  6
ByLayer
 62
  256
370
   -1
100
AcDbLine
 10
-239.1286605830001
 20
778.4232307460001
 11
-239.1286605830001
 21
687.4232307460001
  0
LINE
  5
457
100
AcDbEntity
  8
tatami182
  6
ByLayer
 62
  256
370
   -1
100
AcDbLine
 10
-239.1286605830001
 20
687.4232307460001
 11
-330.1286605830001
 21
687.4232307460001
  0
LINE
  5
458
100
AcDbEntity
  8
tatami182
  6
ByLayer
 62
  256
370
   -1
100
AcDbLine
 10
-330.1286605830001
 20
869.4232307460001
 11
-330.1286605830001
 21
687.4232307460001
  0
LINE
  5
459
100
AcDbEntity
  8
tatami182
  6
ByLayer
 62
  256
370
   -1
100
AcDbLine
 10
-150.6286605830001
 20
778.4232307460001
 11
-150.6286605830001
 21
866.9232307460001
  0
LINE
  5
45A
100
AcDbEntity
  8
tatami182
  6
ByLayer
 62
  256
370
   -1
100
AcDbLine
 10
-236.6286605830001
 20
689.9232307460001
 11
-236.6286605830001
 21
866.9232307460001
  0
LINE
  5
45B
100
AcDbEntity
  8
tatami182
  6
ByLayer
 62
  256
370
   -1
100
AcDbLine
 10
-150.6286605830001
 20
689.9232307460001
 11
-150.6286605830001
 21
778.4232307460001
  0
LINE
  5
45C
100
AcDbEntity
  8
tatami182
  6
ByLayer
 62
  256
370
   -1
100
AcDbLine
 10
-54.62866058300006
 20
689.9232307460001
 11
-54.62866058300006
 21
866.9232307460001
  0
LINE
  5
45D
100
AcDbEntity
  8
tatami182
  6
ByLayer
 62
  256
370
   -1
100
AcDbLine
 10
31.37133941699994
 20
866.9232307460001
 11
31.37133941699994
 21
689.9232307460001
  0
LINE
  5
45E
100
AcDbEntity
  8
tatami182
  6
ByLayer
 62
  256
370
   -1
100
AcDbLine
 10
31.37133941699994
 20
689.9232307460001
 11
-54.62866058300006
 21
689.9232307460001
  0
LINE
  5
45F
100
AcDbEntity
  8
tatami182
  6
ByLayer
 62
  256
370
   -1
100
AcDbLine
 10
-54.62866058300006
 20
866.9232307460001
 11
31.37133941699994
 21
866.9232307460001
  0
LINE
  5
460
100
AcDbEntity
  8
tatami182
  6
ByLayer
 62
  256
370
   -1
100
AcDbLine
 10
-145.6286605830001
 20
780.9232307460001
 11
-145.6286605830001
 21
866.9232307460001
  0
LINE
  5
461
100
AcDbEntity
  8
tatami182
  6
ByLayer
 62
  256
370
   -1
100
AcDbLine
 10
-59.62866058300006
 20
780.9232307460001
 11
-59.62866058300006
 21
866.9232307460001
  0
LINE
  5
462
100
AcDbEntity
  8
tatami182
  6
ByLayer
 62
  256
370
   -1
100
AcDbLine
 10
-59.62866058300006
 20
780.9232307460001
 11
-145.6286605830001
 21
780.9232307460001
  0
LINE
  5
463
100
AcDbEntity
  8
tatami182
  6
ByLayer
 62
  256
370
   -1
100
AcDbLine
 10
-150.6286605830001
 20
689.9232307460001
 11
-236.6286605830001
 21
689.9232307460001
  0
LINE
  5
464
100
AcDbEntity
  8
tatami182
  6
ByLayer
 62
  256
370
   -1
100
AcDbLine
 10
-145.6286605830001
 20
866.9232307460001
 11
-59.62866058300006
 21
866.9232307460001
  0
LINE
  5
465
100
AcDbEntity
  8
tatami182
  6
ByLayer
 62
  256
370
   -1
100
AcDbLine
 10
-236.6286605830001
 20
866.9232307460001
 11
-150.6286605830001
 21
866.9232307460001
  0
LINE
  5
466
100
AcDbEntity
  8
tatami182
  6
ByLayer
 62
  256
370
   -1
100
AcDbLine
 10
-241.6286605830001
 20
780.9232307460001
 11
-241.6286605830001
 21
866.9232307460001
  0
LINE
  5
467
100
AcDbEntity
  8
tatami182
  6
ByLayer
 62
  256
370
   -1
100
AcDbLine
 10
-241.6286605830001
 20
775.9232307460001
 11
-241.6286605830001
 21
689.9232307460001
  0
LINE
  5
468
100
AcDbEntity
  8
tatami182
  6
ByLayer
 62
  256
370
   -1
100
AcDbLine
 10
-241.6286605830001
 20
689.9232307460001
 11
-327.6286605830001
 21
689.9232307460001
  0
LINE
  5
469
100
AcDbEntity
  8
tatami182
  6
ByLayer
 62
  256
370
   -1
100
AcDbLine
 10
-241.6286605830001
 20
775.9232307460001
 11
-327.6286605830001
 21
775.9232307460001
  0
LINE
  5
46A
100
AcDbEntity
  8
tatami182
  6
ByLayer
 62
  256
370
   -1
100
AcDbLine
 10
-241.6286605830001
 20
780.9232307460001
 11
-327.6286605830001
 21
780.9232307460001
  0
LINE
  5
46B
100
AcDbEntity
  8
tatami182
  6
ByLayer
 62
  256
370
   -1
100
AcDbLine
 10
-327.6286605830001
 20
780.9232307460001
 11
-327.6286605830001
 21
866.9232307460001
  0
LINE
  5
46C
100
AcDbEntity
  8
tatami182
  6
ByLayer
 62
  256
370
   -1
100
AcDbLine
 10
-327.6286605830001
 20
689.9232307460001
 11
-327.6286605830001
 21
775.9232307460001
  0
LINE
  5
46D
100
AcDbEntity
  8
tatami182
  6
ByLayer
 62
  256
370
   -1
100
AcDbLine
 10
-327.6286605830001
 20
866.9232307460001
 11
-241.6286605830001
 21
866.9232307460001
  0
INSERT
  5
46E
100
AcDbEntity
  8
tatami182
  6
ByLayer
 62
  256
370
   -1
100
AcDbBlockReference
  2
tatami182vert
 10
-421.1286605830001
 20
687.4232307460001
 30
0
 41
1
 42
1
 43
0
 50
0
 70
    1
 71
    1
 44
0
 45
0
  0
INSERT
  5
46F
100
AcDbEntity
  8
tatami182
  6
ByLayer
 62
  256
370
   -1
100
AcDbBlockReference
  2
tatami182Half
 10
-148.1286605830001
 20
687.4232307460001
 30
0
 41
1
 42
1
 43
0
 50
0
 70
    1
 71
    1
 44
0
 45
0
  0
LINE
  5
470
100
AcDbEntity
  8
doors
  6
ByLayer
 62
  256
370
   -1
100
AcDbLine
 10
61.57133941699999
 20
889.9232307460001
 11
66.57133941699999
 21
889.9232307460001
  0
LINE
  5
471
100
AcDbEntity
  8
doors
  6
ByLayer
 62
  256
370
   -1
100
AcDbLine
 10
61.57133941699999
 20
778.4232307460001
 11
61.57133941699999
 21
889.9232307460001
  0
LINE
  5
472
100
AcDbEntity
  8
doors
  6
ByLayer
 62
  256
370
   -1
100
AcDbLine
 10
56.57133941699999
 20
666.9232307460001
 11
61.57133941699999
 21
666.9232307460001
  0
LINE
  5
473
100
AcDbEntity
  8
doors
  6
ByLayer
 62
  256
370
   -1
100
AcDbLine
 10
61.57133941699999
 20
666.9232307460001
 11
61.57133941699999
 21
778.4232307460001
  0
LINE
  5
474
100
AcDbEntity
  8
doors
  6
ByLayer
 62
  256
370
   -1
100
AcDbLine
 10
61.57133941699999
 20
779.9232307460001
 11
56.57133941699999
 21
779.9232307460001
  0
LINE
  5
475
100
AcDbEntity
  8
doors
  6
ByLayer
 62
  256
370
   -1
100
AcDbLine
 10
66.57133941699999
 20
776.9232307460001
 11
61.57133941699999
 21
776.9232307460001
  0
LINE
  5
476
100
AcDbEntity
  8
doors
  6
ByLayer
 62
  256
370
   -1
100
AcDbLine
 10
66.57133941699999
 20
889.9232307460001
 11
66.57133941699999
 21
776.9232307460001
  0
LINE
  5
477
100
AcDbEntity
  8
doors
  6
ByLayer
 62
  256
370
   -1
100
AcDbLine
 10
56.57133941699999
 20
779.9232307460001
 11
56.57133941699999
 21
666.9232307460001
  0
LINE
  5
478
100
AcDbEntity
  8
doors
  6
ByLayer
 62
  256
370
   -1
100
AcDbLine
 10
-442.6286605830001
 20
777.4232307460001
 11
-445.1286605830001
 21
777.4232307460001
  0
LINE
  5
479
100
AcDbEntity
  8
doors
  6
ByLayer
 62
  256
370
   -1
100
AcDbLine
 10
-445.6286605830001
 20
779.4232307460001
 11
-448.1286605830001
 21
779.4232307460001
  0
LINE
  5
47A
100
AcDbEntity
  8
doors
  6
ByLayer
 62
  256
370
   -1
100
AcDbLine
 10
-445.1286605830001
 20
889.9232307460001
 11
-442.6286605830001
 21
889.9232307460001
  0
LINE
  5
47B
100
AcDbEntity
  8
doors
  6
ByLayer
 62
  256
370
   -1
100
AcDbLine
 10
-445.1286605830001
 20
777.4232307460001
 11
-445.1286605830001
 21
889.9232307460001
  0
LINE
  5
47C
100
AcDbEntity
  8
doors
  6
ByLayer
 62
  256
370
   -1
100
AcDbLine
 10
-442.6286605830001
 20
889.9232307460001
 11
-442.6286605830001
 21
777.4232307460001
  0
LINE
  5
47D
100
AcDbEntity
  8
doors
  6
ByLayer
 62
  256
370
   -1
100
AcDbLine
 10
-448.1286605830001
 20
779.4232307460001
 11
-448.1286605830001
 21
666.9232307460001
  0
LINE
  5
47E
100
AcDbEntity
  8
doors
  6
ByLayer
 62
  256
370
   -1
100
AcDbLine
 10
-445.6286605830001
 20
666.9232307460001
 11
-445.6286605830001
 21
779.4232307460001
  0
LINE
  5
47F
100
AcDbEntity
  8
doors
  6
ByLayer
 62
  256
370
   -1
100
AcDbLine
 10
-448.1286605830001
 20
666.9232307460001
 11
-445.6286605830001
 21
666.9232307460001
  0
MTEXT
  5
480
100
AcDbEntity
  8
text
  6
ByLayer
 62
  256
370
   -1
100
AcDbMText
 10
47.83067683699994
 20
771.3244820350001
 30
0
 40
6
 41
20.66895249881435
 71
    1
 72
    1
  1
slider
  7
standard
210
0
220
0
230
1
 50
90
 73
    2
 44
1
  0
MTEXT
  5
481
100
AcDbEntity
  8
text
  6
ByLayer
 62
  256
370
   -1
100
AcDbMText
 10
-229.323695984
 20
808.9849061330001
 30
0
 40
10
 41
71.66666666666775
 71
    1
 72
    1
  1
Bed Rm 5T
  7
standard
210
0
220
0
230
1
 50
0
 73
    2
 44
1
  0
LINE
  5
482
100
AcDbEntity
  8
doors
  6
ByLayer
 62
  256
370
   -1
100
AcDbLine
 10
-5.92866058300001
 20
661.4232307460001
 11
-5.92866058300001
 21
664.9232307460001
  0
LINE
  5
483
100
AcDbEntity
  8
doors
  6
ByLayer
 62
  256
370
   -1
100
AcDbLine
 10
-303.7286605830001
 20
661.4232307460001
 11
-5.92866058300001
 21
661.4232307460001
  0
LINE
  5
484
100
AcDbEntity
  8
doors
  6
ByLayer
 62
  256
370
   -1
100
AcDbLine
 10
-303.7286605830001
 20
661.4232307460001
 11
-303.7286605830001
 21
657.9232307460001
  0
LINE
  5
485
100
AcDbEntity
  8
doors
  6
ByLayer
 62
  256
370
   -1
100
AcDbLine
 10
-157.428660583
 20
664.9232307460001
 11
-5.92866058300001
 21
664.9232307460001
  0
LINE
  5
486
100
AcDbEntity
  8
doors
  6
ByLayer
 62
  256
370
   -1
100
AcDbLine
 10
-303.7286605830001
 20
657.9232307460001
 11
-152.428660583
 21
657.9232307460001
  0
LINE
  5
487
100
AcDbEntity
  8
doors
  6
ByLayer
 62
  256
370
   -1
100
AcDbLine
 10
-157.428660583
 20
664.9232307460001
 11
-157.428660583
 21
661.4232307460001
  0
LINE
  5
488
100
AcDbEntity
  8
doors
  6
ByLayer
 62
  256
370
   -1
100
AcDbLine
 10
-152.428660583
 20
661.4232307460001
 11
-152.428660583
 21
657.9232307460001
  0
INSERT
  5
489
100
AcDbEntity
  8
doors
  6
ByLayer
 62
  256
370
   -1
100
AcDbBlockReference
  2
slider3000
 10
-4.92866058300001
 20
900.323230746
 30
0
 41
0.1
 42
0.1
 43
0
 50
0
 70
    1
 71
    1
 44
0
 45
0
  0
LINE
  5
48A
100
AcDbEntity
  8
wall
  6
ByLayer
 62
  256
370
   -1
100
AcDbLine
 10
-4.92866058300001
 20
890.9232307460001
 11
71.57133941699999
 21
890.9232307460001
  0
LINE
  5
48B
100
AcDbEntity
  8
wall
  6
ByLayer
 62
  256
370
   -1
100
AcDbLine
 10
-528.6286605830001
 20
890.9232307460001
 11
-304.928660583
 21
890.9232307460001
  0
LINE
  5
48C
100
AcDbEntity
  8
wall
  6
ByLayer
 62
  256
370
   -1
100
AcDbLine
 10
-528.6286605830001
 20
665.9232307460001
 11
-304.928660583
 21
665.9232307460001
  0
LINE
  5
48D
100
AcDbEntity
  8
wall
  6
ByLayer
 62
  256
370
   -1
100
AcDbLine
 10
-4.92866058300001
 20
665.9232307460001
 11
71.57133941699999
 21
665.9232307460001
  0
LINE
  5
48E
100
AcDbEntity
  8
text
  6
ByLayer
 62
  256
370
   -1
100
AcDbLine
 10
-4.92866058300001
 20
660.9232307460001
 11
-4.92866058300001
 21
665.9232307460001
  0
LINE
  5
48F
100
AcDbEntity
  8
text
  6
ByLayer
 62
  256
370
   -1
100
AcDbLine
 10
-304.928660583
 20
660.9232307460001
 11
-304.928660583
 21
665.9232307460001
  0
LINE
  5
490
100
AcDbEntity
  8
text
  6
ByLayer
 62
  256
370
   -1
100
AcDbLine
 10
-304.928660583
 20
890.9232307460001
 11
-304.928660583
 21
895.9232307460001
  0
LINE
  5
491
100
AcDbEntity
  8
text
  6
ByLayer
 62
  256
370
   -1
100
AcDbLine
 10
-4.92866058300001
 20
890.9232307460001
 11
-4.92866058300001
 21
895.9232307460001
  0
LINE
  5
492
100
AcDbEntity
  8
container
  6
ByLayer
 62
  256
370
   -1
100
AcDbLine
 10
-538.028660583
 20
656.5232307460001
 11
-538.028660583
 21
900.323230746
  0
LINE
  5
493
100
AcDbEntity
  8
container
  6
ByLayer
 62
  256
370
   -1
100
AcDbLine
 10
71.57133941699999
 20
656.5232307460001
 11
71.57133941699999
 21
900.323230746
  0
LINE
  5
494
100
AcDbEntity
  8
container
  6
ByLayer
 62
  256
370
   -1
100
AcDbLine
 10
-533.6286605830001
 20
660.9232307460001
 11
-533.6286605830001
 21
895.9232307460001
  0
LINE
  5
495
100
AcDbEntity
  8
container
  6
ByLayer
 62
  256
370
   -1
100
AcDbLine
 10
73.57133941699999
 20
900.323230746
 11
190.571339417
 21
900.323230746
  0
LINE
  5
496
100
AcDbEntity
  8
container
  6
ByLayer
 62
  256
370
   -1
100
AcDbLine
 10
73.57133941699999
 20
896.323230746
 11
190.571339417
 21
896.323230746
  0
LINE
  5
497
100
AcDbEntity
  8
container
  6
ByLayer
 62
  256
370
   -1
100
AcDbLine
 10
73.57133941699999
 20
656.5232307460001
 11
190.571339417
 21
656.5232307460001
  0
LINE
  5
498
100
AcDbEntity
  8
container
  6
ByLayer
 62
  256
370
   -1
100
AcDbLine
 10
73.57133941699999
 20
660.5232307460001
 11
190.571339417
 21
660.5232307460001
  0
LINE
  5
499
100
AcDbEntity
  8
container
  6
ByLayer
 62
  256
370
   -1
100
AcDbLine
 10
190.571339417
 20
900.323230746
 11
190.571339417
 21
896.323230746
  0
LINE
  5
49A
100
AcDbEntity
  8
container
  6
ByLayer
 62
  256
370
   -1
100
AcDbLine
 10
73.57133941699999
 20
900.323230746
 11
73.57133941699999
 21
896.323230746
  0
LINE
  5
49B
100
AcDbEntity
  8
container
  6
ByLayer
 62
  256
370
   -1
100
AcDbLine
 10
190.571339417
 20
656.5232307460001
 11
190.571339417
 21
660.5232307460001
  0
LINE
  5
49C
100
AcDbEntity
  8
container
  6
ByLayer
 62
  256
370
   -1
100
AcDbLine
 10
-533.6286605830001
 20
895.9232307460001
 11
-304.928660583
 21
895.9232307460001
  0
LINE
  5
49D
100
AcDbEntity
  8
container
  6
ByLayer
 62
  256
370
   -1
100
AcDbLine
 10
-533.6286605830001
 20
660.9232307460001
 11
-304.928660583
 21
660.9232307460001
  0
LINE
  5
49E
100
AcDbEntity
  8
container
  6
ByLayer
 62
  256
370
   -1
100
AcDbLine
 10
-4.92866058300001
 20
660.9232307460001
 11
71.57133941699999
 21
660.9232307460001
  0
LINE
  5
49F
100
AcDbEntity
  8
container
  6
ByLayer
 62
  256
370
   -1
100
AcDbLine
 10
-4.92866058300001
 20
895.9232307460001
 11
71.57133941699999
 21
895.9232307460001
  0
LINE
  5
4A0
100
AcDbEntity
  8
container
  6
ByLayer
 62
  256
370
   -1
100
AcDbLine
 10
-4.92866058300001
 20
900.323230746
 11
71.57133941699999
 21
900.323230746
  0
LINE
  5
4A1
100
AcDbEntity
  8
container
  6
ByLayer
 62
  256
370
   -1
100
AcDbLine
 10
-538.028660583
 20
900.323230746
 11
-304.928660583
 21
900.323230746
  0
LINE
  5
4A2
100
AcDbEntity
  8
container
  6
ByLayer
 62
  256
370
   -1
100
AcDbLine
 10
-538.028660583
 20
656.5232307460001
 11
-304.928660583
 21
656.5232307460001
  0
LINE
  5
4A3
100
AcDbEntity
  8
container
  6
ByLayer
 62
  256
370
   -1
100
AcDbLine
 10
-4.92866058300001
 20
656.5232307460001
 11
71.57133941699999
 21
656.5232307460001
  0
LINE
  5
4A4
100
AcDbEntity
  8
container
  6
ByLayer
 62
  256
370
   -1
100
AcDbLine
 10
-4.92866058300001
 20
656.5232307460001
 11
-4.92866058300001
 21
660.9232307460001
  0
LINE
  5
4A5
100
AcDbEntity
  8
container
  6
ByLayer
 62
  256
370
   -1
100
AcDbLine
 10
-304.928660583
 20
656.5232307460001
 11
-304.928660583
 21
660.9232307460001
  0
LINE
  5
4A6
100
AcDbEntity
  8
container
  6
ByLayer
 62
  256
370
   -1
100
AcDbLine
 10
-304.928660583
 20
895.9232307460001
 11
-304.928660583
 21
900.323230746
  0
LINE
  5
4A7
100
AcDbEntity
  8
container
  6
ByLayer
 62
  256
370
   -1
100
AcDbLine
 10
-4.92866058300001
 20
895.9232307460001
 11
-4.92866058300001
 21
900.323230746
  0
MTEXT
  5
4A8
100
AcDbEntity
  8
text
  6
ByLayer
 62
  256
370
   -1
100
AcDbMText
 10
-165.139039078
 20
910.0625308360001
 30
0
 40
6
 41
20.66895249881435
 71
    1
 72
    1
  1
slider
  7
standard
210
0
220
0
230
1
 50
0
 73
    2
 44
1
  0
MTEXT
  5
4A9
100
AcDbEntity
  8
text
  6
ByLayer
 62
  256
370
   -1
100
AcDbMText
 10
-160.935258673
 20
648.292509082
 30
0
 40
6
 41
20.66895249881435
 71
    1
 72
    1
  1
slider
  7
standard
210
0
220
0
230
1
 50
0
 73
    2
 44
1
  0
LINE
  5
4AA
100
AcDbEntity
  8
container
  6
DASHDOT2
 62
  256
370
   -1
100
AcDbLine
 10
55.57133941699999
 20
660.9232307460001
 11
55.57133941699999
 21
895.9232307460001
  0
LINE
  5
4AB
100
AcDbEntity
  8
container
  6
DASHDOT2
 62
  256
370
   -1
100
AcDbLine
 10
-304.928660583
 20
900.323230746
 11
-4.92866058300001
 21
900.323230746
  0
LINE
  5
4AC
100
AcDbEntity
  8
container
  6
DASHDOT2
 62
  256
370
   -1
100
AcDbLine
 10
-304.928660583
 20
656.5232307460001
 11
-4.92866058300001
 21
656.5232307460001
  0
LINE
  5
4AD
100
AcDbEntity
  8
0
  6
ByLayer
 62
  256
370
   -1
100
AcDbLine
 10
-840.928660583
 20
-436.676769257
 11
-231.328660583
 21
-436.676769257
  0
LINE
  5
4AE
100
AcDbEntity
  8
0
  6
ByLayer
 62
  256
370
   -1
100
AcDbLine
 10
-840.928660583
 20
-436.676769257
 11
-840.928660583
 21
-192.8767692566
  0
LINE
  5
4AF
100
AcDbEntity
  8
0
  6
ByLayer
 62
  256
370
   -1
100
AcDbLine
 10
-231.328660583
 20
-436.676769257
 11
-231.328660583
 21
-192.8767692566
  0
LINE
  5
4B0
100
AcDbEntity
  8
0
  6
ByLayer
 62
  256
370
   -1
100
AcDbLine
 10
-840.928660583
 20
-192.8767692566
 11
-231.328660583
 21
-192.8767692566
  0
LINE
  5
4B1
100
AcDbEntity
  8
0
  6
ByLayer
 62
  256
370
   -1
100
AcDbLine
 10
-836.528660583
 20
-197.2767692566
 11
-231.328660583
 21
-197.2767692566
  0
LINE
  5
4B2
100
AcDbEntity
  8
0
  6
ByLayer
 62
  256
370
   -1
100
AcDbLine
 10
-836.528660583
 20
-432.276769257
 11
-231.328660583
 21
-432.276769257
  0
LINE
  5
4B3
100
AcDbEntity
  8
0
  6
ByLayer
 62
  256
370
   -1
100
AcDbLine
 10
-836.528660583
 20
-432.276769257
 11
-836.528660583
 21
-197.2767692566
  0
LINE
  5
4B4
100
AcDbEntity
  8
0
  6
ByLayer
 62
  256
370
   -1
100
AcDbLine
 10
-229.328660583
 20
-192.8767692566
 11
-112.328660583
 21
-192.8767692566
  0
LINE
  5
4B5
100
AcDbEntity
  8
0
  6
ByLayer
 62
  256
370
   -1
100
AcDbLine
 10
-229.328660583
 20
-196.8767692566
 11
-112.328660583
 21
-196.8767692566
  0
LINE
  5
4B6
100
AcDbEntity
  8
0
  6
ByLayer
 62
  256
370
   -1
100
AcDbLine
 10
-229.328660583
 20
-436.676769257
 11
-112.328660583
 21
-436.676769257
  0
LINE
  5
4B7
100
AcDbEntity
  8
0
  6
ByLayer
 62
  256
370
   -1
100
AcDbLine
 10
-229.328660583
 20
-432.676769257
 11
-112.328660583
 21
-432.676769257
  0
LINE
  5
4B8
100
AcDbEntity
  8
0
  6
ByLayer
 62
  256
370
   -1
100
AcDbLine
 10
-112.328660583
 20
-192.8767692566
 11
-112.328660583
 21
-196.8767692566
  0
LINE
  5
4B9
100
AcDbEntity
  8
0
  6
ByLayer
 62
  256
370
   -1
100
AcDbLine
 10
-229.328660583
 20
-192.8767692566
 11
-229.328660583
 21
-196.8767692566
  0
LINE
  5
4BA
100
AcDbEntity
  8
0
  6
ByLayer
 62
  256
370
   -1
100
AcDbLine
 10
-112.328660583
 20
-436.676769257
 11
-112.328660583
 21
-432.676769257
  0
LINE
  5
4BB
100
AcDbEntity
  8
0
  6
ByLayer
 62
  256
370
   -1
100
AcDbLine
 10
-247.328660583
 20
-432.276769257
 11
-247.328660583
 21
-197.2767692566
  0
LINE
  5
4BC
100
AcDbEntity
  8
walls
  6
ByLayer
 62
  256
370
   -1
100
AcDbLine
 10
-831.528660583
 20
-202.2767692566
 11
-231.328660583
 21
-202.2767692566
  0
LINE
  5
4BD
100
AcDbEntity
  8
walls
  6
ByLayer
 62
  256
370
   -1
100
AcDbLine
 10
-831.528660583
 20
-427.276769257
 11
-231.328660583
 21
-427.276769257
  0
LINE
  5
4BE
100
AcDbEntity
  8
walls
  6
ByLayer
 62
  256
370
   -1
100
AcDbLine
 10
-831.528660583
 20
-427.276769257
 11
-831.528660583
 21
-202.2767692566
  0
LINE
  5
4BF
100
AcDbEntity
  8
cabinates
  6
ByLayer
 62
  256
370
   -1
100
AcDbLine
 10
-691.528660583
 20
-427.276769257
 11
-761.528660583
 21
-427.276769257
  0
LINE
  5
4C0
100
AcDbEntity
  8
cabinates
  6
ByLayer
 62
  256
370
   -1
100
AcDbLine
 10
-621.528660583
 20
-262.2767692566
 11
-621.528660583
 21
-202.2767692566
  0
LINE
  5
4C1
100
AcDbEntity
  8
cabinates
  6
ByLayer
 62
  256
370
   -1
100
AcDbLine
 10
-621.528660583
 20
-367.276769257
 11
-621.528660583
 21
-427.276769257
  0
LINE
  5
4C2
100
AcDbEntity
  8
cabinates
  6
ByLayer
 62
  256
370
   -1
100
AcDbLine
 10
-771.528660583
 20
-367.276769257
 11
-771.528660583
 21
-262.2767692566
  0
INSERT
  5
4C3
100
AcDbEntity
  8
fixtures
  6
ByLayer
 62
  256
370
   -1
100
AcDbBlockReference
  2
sink-2
 10
-816.528660583
 20
-286.7767692566
 30
0
 41
1
 42
1
 43
0
 50
0
 70
    1
 71
    1
 44
0
 45
0
  0
LINE
  5
4C4
100
AcDbEntity
  8
cabinates
  6
ByLayer
 62
  256
370
   -1
100
AcDbLine
 10
-771.528660583
 20
-262.2767692566
 11
-751.528660583
 21
-262.2767692566
  0
LINE
  5
4C5
100
AcDbEntity
  8
cabinates
  6
ByLayer
 62
  256
370
   -1
100
AcDbLine
 10
-681.528660583
 20
-262.2767692566
 11
-621.528660583
 21
-262.2767692566
  0
INSERT
  5
4C6
100
AcDbEntity
  8
fixtures
  6
ByLayer
 62
  256
370
   -1
100
AcDbBlockReference
  2
refer-2
 10
-686.528660583
 20
-207.27676925659
 30
0
 41
1
 42
1
 43
0
 50
0
 70
    1
 71
    1
 44
0
 45
0
  0
LINE
  5
4C7
100
AcDbEntity
  8
cabinates
  6
ByLayer
 62
  256
370
   -1
100
AcDbLine
 10
-681.528660583
 20
-262.2767692566
 11
-681.528660583
 21
-202.2767692566
  0
LINE
  5
4C8
100
AcDbEntity
  8
cabinates
  6
ByLayer
 62
  256
370
   -1
100
AcDbLine
 10
-751.528660583
 20
-262.2767692566
 11
-751.528660583
 21
-202.2767692566
  0
LINE
  5
4C9
100
AcDbEntity
  8
cabinates
  6
ByLayer
 62
  256
370
   -1
100
AcDbLine
 10
-681.528660583
 20
-367.276769257
 11
-681.528660583
 21
-427.276769257
  0
LINE
  5
4CA
100
AcDbEntity
  8
cabinates
  6
ByLayer
 62
  256
370
   -1
100
AcDbLine
 10
-751.528660583
 20
-367.276769257
 11
-751.528660583
 21
-427.276769257
  0
LINE
  5
4CB
100
AcDbEntity
  8
cabinates
  6
ByLayer
 62
  256
370
   -1
100
AcDbLine
 10
-761.528660583
 20
-367.276769257
 11
-751.528660583
 21
-367.276769257
  0
LINE
  5
4CC
100
AcDbEntity
  8
cabinates
  6
ByLayer
 62
  256
370
   -1
100
AcDbLine
 10
-771.528660583
 20
-367.276769257
 11
-751.528660583
 21
-367.276769257
  0
LINE
  5
4CD
100
AcDbEntity
  8
cabinates
  6
ByLayer
 62
  256
370
   -1
100
AcDbLine
 10
-681.528660583
 20
-367.276769257
 11
-621.528660583
 21
-367.276769257
  0
INSERT
  5
4CE
100
AcDbEntity
  8
fixtures
  6
ByLayer
 62
  256
370
   -1
100
AcDbBlockReference
  2
stove-2
 10
-748.528660583
 20
-424.276769257
 30
0
 41
1
 42
1
 43
0
 50
0
 70
    1
 71
    1
 44
0
 45
0
  0
LINE
  5
4CF
100
AcDbEntity
  8
cabinates
  6
ByLayer
 62
  256
370
   -1
100
AcDbLine
 10
-541.528660583
 20
-262.2767692566
 11
-541.528660583
 21
-202.2767692566
  0
LINE
  5
4D0
100
AcDbEntity
  8
cabinates
  6
ByLayer
 62
  256
370
   -1
100
AcDbLine
 10
-621.528660583
 20
-262.2767692566
 11
-541.528660583
 21
-262.2767692566
  0
LINE
  5
4D1
100
AcDbEntity
  8
cabinates
  6
ByLayer
 62
  256
370
   -1
100
AcDbLine
 10
-541.528660583
 20
-367.276769257
 11
-541.528660583
 21
-427.276769257
  0
LINE
  5
4D2
100
AcDbEntity
  8
cabinates
  6
ByLayer
 62
  256
370
   -1
100
AcDbLine
 10
-621.528660583
 20
-367.276769257
 11
-541.528660583
 21
-367.276769257
  0
LINE
  5
4D3
100
AcDbEntity
  8
doors
  6
ByLayer
 62
  256
370
   -1
100
AcDbLine
 10
-241.328660583
 20
-202.2767692566
 11
-236.328660583
 21
-202.2767692566
  0
LINE
  5
4D4
100
AcDbEntity
  8
doors
  6
ByLayer
 62
  256
370
   -1
100
AcDbLine
 10
-236.328660583
 20
-202.2767692566
 11
-236.328660583
 21
-314.7767692566
  0
LINE
  5
4D5
100
AcDbEntity
  8
doors
  6
ByLayer
 62
  256
370
   -1
100
AcDbLine
 10
-236.328660583
 20
-314.7767692566
 11
-241.328660583
 21
-314.7767692566
  0
LINE
  5
4D6
100
AcDbEntity
  8
doors
  6
ByLayer
 62
  256
370
   -1
100
AcDbLine
 10
-241.328660583
 20
-314.7767692566
 11
-241.328660583
 21
-202.2767692566
  0
LINE
  5
4D7
100
AcDbEntity
  8
doors
  6
ByLayer
 62
  256
370
   -1
100
AcDbLine
 10
-241.328660583
 20
-314.7767692566
 11
-246.328660583
 21
-314.7767692566
  0
LINE
  5
4D8
100
AcDbEntity
  8
doors
  6
ByLayer
 62
  256
370
   -1
100
AcDbLine
 10
-246.328660583
 20
-314.7767692566
 11
-246.328660583
 21
-427.276769257
  0
LINE
  5
4D9
100
AcDbEntity
  8
doors
  6
ByLayer
 62
  256
370
   -1
100
AcDbLine
 10
-246.328660583
 20
-427.276769257
 11
-241.328660583
 21
-427.276769257
  0
LINE
  5
4DA
100
AcDbEntity
  8
doors
  6
ByLayer
 62
  256
370
   -1
100
AcDbLine
 10
-241.328660583
 20
-427.276769257
 11
-241.328660583
 21
-314.7767692566
  0
MTEXT
  5
4DB
100
AcDbEntity
  8
text
  6
ByLayer
 62
  256
370
   -1
100
AcDbMText
 10
94.5874489844
 20
-296.035533756
 30
0
 40
6
 41
90.33333333333556
 71
    1
 72
    1
  1
general entrence area
  7
standard
210
0
220
0
230
1
 50
0
 73
    2
 44
1
  0
DIMENSION
  5
4DC
100
AcDbEntity
  8
dimension
  6
ByLayer
 62
  256
370
   -1
100
AcDbDimension
  2
*D1
 10
-1284.32866058
 20
1066.416938431762
 30
0
 11
-1234.32866058
 21
1071.291938431762
 31
0
 70
   32
 71
    5
  3
Standard
 53
0
210
0
220
0
230
1
100
AcDbAlignedDimension
 13
-1184.32866058
 23
900.323230746
 33
0
 14
-1284.32866058
 24
1000.32323075
 34
0
100
AcDbRotatedDimension
  0
DIMENSION
  5
4DD
100
AcDbEntity
  8
dimension
  6
ByLayer
 62
  256
370
   -1
100
AcDbDimension
  2
*D2
 10
-1324.366324587017
 20
1000.32323075
 30
0
 11
-1329.241324587017
 21
950.323230748
 31
0
 70
   32
 71
    5
  3
Standard
 53
0
210
0
220
0
230
1
100
AcDbAlignedDimension
 13
-1184.32866058
 23
900.323230746
 33
0
 14
-1284.32866058
 24
1000.32323075
 34
0
 50
90
100
AcDbRotatedDimension
  0
LINE
  5
4DE
100
AcDbEntity
  8
deck
  6
ByLayer
 62
  256
370
   -1
100
AcDbLine
 10
-538.028660583
 20
756.5232307460001
 11
-304.928660583
 21
756.5232307460001
  0
LINE
  5
4DF
100
AcDbEntity
  8
deck
  6
ByLayer
 62
  256
370
   -1
100
AcDbLine
 10
-840.928660583
 20
556.5232307460001
 11
-840.928660583
 21
-92.8767692566
  0
LINE
  5
4E0
100
AcDbEntity
  8
deck
  6
ByLayer
 62
  256
370
   -1
100
AcDbLine
 10
290.571339417
 20
1000.32323075
 11
290.571339417
 21
556.5232307460001
  0
LINE
  5
4E1
100
AcDbEntity
  8
deck
  6
ByLayer
 62
  256
370
   -1
100
AcDbLine
 10
-840.928660583
 20
556.5232307460001
 11
290.571339417
 21
556.5232307460001
  0
LINE
  5
4E2
100
AcDbEntity
  8
deck
  6
ByLayer
 62
  256
370
   -1
100
AcDbLine
 10
-1284.32866058
 20
1000.32323075
 11
290.571339417
 21
1000.32323075
  0
LINE
  5
4E3
100
AcDbEntity
  8
deck
  6
ByLayer
 62
  256
370
   -1
100
AcDbLine
 10
-12.328660583
 20
-92.8767692566
 11
-12.328660583
 21
-536.676769257
  0
LINE
  5
4E4
100
AcDbEntity
  8
deck
  6
ByLayer
 62
  256
370
   -1
100
AcDbLine
 10
-840.928660583
 20
-92.8767692566
 11
-12.328660583
 21
-92.8767692566
  0
LINE
  5
4E5
100
AcDbEntity
  8
deck
  6
ByLayer
 62
  256
370
   -1
100
AcDbLine
 10
-1284.32866058
 20
-536.676769257
 11
-12.328660583
 21
-536.676769257
  0
MTEXT
  5
4E6
100
AcDbEntity
  8
text
  6
ByLayer
 62
  256
370
   -1
100
AcDbMText
 10
389.5674469681366
 20
481.5254280121173
 30
0
 40
50
 41
1611.111162539867
 71
    1
 72
    1
  1
C shap layout with Japanes Zen garden in the \Pcentre.\P\P3 main containers: 1 bed, 2 bed, kitchen units\P\P1 bathroom container unit.\P\PDecking bordering the containers.
  7

210
0
220
0
230
1
 50
0
 73
    2
 44
1
  0
ENDSEC
  0
SECTION
  2
OBJECTS
  0
DICTIONARY
  5
C
330
0
100
AcDbDictionary
281
    1
  3
ACAD_GROUP
350
D
  0
DICTIONARY
  5
D
330
C
100
AcDbDictionary
281
    1
  0
ENDSEC
  0
EOF
