999
dxfrw 0.6.3
  0
SECTION
  2
HEADER
  9
$ACADVER
  1
AC1021
  9
$DWGCODEPAGE
  3
ANSI_1252
  9
$INSBASE
 10
0
 20
0
 30
0
  9
$EXTMIN
 10
-1192.68371793
 20
-2883.77542904
 30
0
  9
$EXTMAX
 10
14517.3162821
 20
9336.224570959999
 30
0
  9
$LIMMIN
 10
0
 20
0
  9
$LIMMAX
 10
420
 20
297
  9
$ORTHOMODE
 70
    0
  9
$REGENMODE
 70
    1
  9
$FILLMODE
 70
    1
  9
$QTEXTMODE
 70
    0
  9
$MIRRTEXT
 70
    0
  9
$LTSCALE
 40
1
  9
$ATTMODE
 70
    0
  9
$TEXTSIZE
 40
2.5
  9
$TRACEWID
 40
15.68
  9
$TEXTSTYLE
  7
STANDARD
  9
$CLAYER
  8
0
  9
$CELTYPE
  6
BYLAYER
  9
$CECOLOR
 62
  256
  9
$CELTSCALE
 40
1
  9
$DISPSILH
 70
    0
  9
$DIMSCALE
 40
1
  9
$DIMASZ
 40
30
  9
$DIMEXO
 40
10
  9
$DIMDLI
 40
3.75
  9
$DIMRND
 40
0
  9
$DIMDLE
 40
0
  9
$DIMEXE
 40
50
  9
$DIMTP
 40
0
  9
$DIMTM
 40
0
  9
$DIMTXT
 40
100
  9
$DIMCEN
 40
2.5
  9
$DIMTSZ
 40
0
  9
$DIMTOL
 70
    0
  9
$DIMLIM
 70
    0
  9
$DIMTIH
 70
    0
  9
$DIMTOH
 70
    0
  9
$DIMSE1
 70
    0
  9
$DIMSE2
 70
    0
  9
$DIMTAD
 70
    1
  9
$DIMZIN
 70
    8
  9
$DIMBLK
  1

  9
$DIMASO
 70
    1
  9
$DIMSHO
 70
    1
  9
$DIMPOST
  1

  9
$DIMAPOST
  1

  9
$DIMALT
 70
    0
  9
$DIMALTD
 70
    3
  9
$DIMALTF
 40
0.03937
  9
$DIMLFAC
 40
1
  9
$DIMTOFL
 70
    1
  9
$DIMTVP
 40
0
  9
$DIMTIX
 70
    0
  9
$DIMSOXD
 70
    0
  9
$DIMSAH
 70
    0
  9
$DIMBLK1
  1

  9
$DIMBLK2
  1

  9
$DIMSTYLE
  2
STANDARD
  9
$DIMCLRD
 70
    0
  9
$DIMCLRE
 70
    0
  9
$DIMCLRT
 70
    0
  9
$DIMTFAC
 40
1
  9
$DIMGAP
 40
50
  9
$DIMJUST
 70
    0
  9
$DIMSD1
 70
    0
  9
$DIMSD2
 70
    0
  9
$DIMTOLJ
 70
    0
  9
$DIMTZIN
 70
    8
  9
$DIMALTZ
 70
    0
  9
$DIMALTTZ
 70
    0
  9
$DIMUPT
 70
    0
  9
$DIMDEC
 70
    4
  9
$DIMTDEC
 70
    2
  9
$DIMALTU
 70
    2
  9
$DIMALTTD
 70
    3
  9
$DIMTXSTY
  7
STANDARD
  9
$DIMAUNIT
 70
    0
  9
$DIMADEC
 70
    2
  9
$DIMALTRND
 40
0
  9
$DIMAZIN
 70
    0
  9
$DIMDSEP
 70
   44
  9
$DIMATFIT
 70
    3
  9
$DIMFRAC
 70
    0
  9
$DIMLDRBLK
  1
STANDARD
  9
$DIMLUNIT
 70
    2
  9
$DIMLWD
 70
   -2
  9
$DIMLWE
 70
   -2
  9
$DIMTMOVE
 70
    0
  9
$DIMFXL
 40
1
  9
$DIMFXLON
 70
    0
  9
$DIMJOGANG
 40
0.7854
  9
$DIMTFILL
 70
    0
  9
$DIMTFILLCLR
 70
    0
  9
$DIMARCSYM
 70
    0
  9
$DIMLTYPE
  6

  9
$DIMLTEX1
  6

  9
$DIMLTEX2
  6

  9
$LUNITS
 70
    2
  9
$LUPREC
 70
    4
  9
$SKETCHINC
 40
1
  9
$FILLETRAD
 40
0
  9
$AUNITS
 70
    0
  9
$AUPREC
 70
    2
  9
$MENU
  1
.
  9
$ELEVATION
 40
0
  9
$PELEVATION
 40
0
  9
$THICKNESS
 40
0
  9
$LIMCHECK
 70
    0
  9
$CHAMFERA
 40
0
  9
$CHAMFERB
 40
0
  9
$CHAMFERC
 40
0
  9
$CHAMFERD
 40
0
  9
$SKPOLY
 70
    0
  9
$USRTIMER
 70
    1
  9
$ANGBASE
 50
0
  9
$ANGDIR
 70
    0
  9
$PDMODE
 70
   34
  9
$PDSIZE
 40
0
  9
$PLINEWID
 40
0
  9
$SPLFRAME
 70
    0
  9
$SPLINETYPE
 70
    2
  9
$SPLINESEGS
 70
    8
  9
$HANDSEED
  5
20000
  9
$SURFTAB1
 70
    6
  9
$SURFTAB2
 70
    6
  9
$SURFTYPE
 70
    6
  9
$SURFU
 70
    6
  9
$SURFV
 70
    6
  9
$UCSBASE
  2

  9
$UCSNAME
  2

  9
$UCSORG
 10
0
 20
0
 30
0
  9
$UCSXDIR
 10
1
 20
0
 30
0
  9
$UCSYDIR
 10
0
 20
1
 30
0
  9
$UCSORTHOREF
  2

  9
$UCSORTHOVIEW
 70
    0
  9
$UCSORGTOP
 10
0
 20
0
 30
0
  9
$UCSORGBOTTOM
 10
0
 20
0
 30
0
  9
$UCSORGLEFT
 10
0
 20
0
 30
0
  9
$UCSORGRIGHT
 10
0
 20
0
 30
0
  9
$UCSORGFRONT
 10
0
 20
0
 30
0
  9
$UCSORGBACK
 10
0
 20
0
 30
0
  9
$PUCSBASE
  2

  9
$PUCSNAME
  2

  9
$PUCSORG
 10
0
 20
0
 30
0
  9
$PUCSXDIR
 10
1
 20
0
 30
0
  9
$PUCSYDIR
 10
0
 20
1
 30
0
  9
$PUCSORTHOREF
  2

  9
$PUCSORTHOVIEW
 70
    0
  9
$PUCSORGTOP
 10
0
 20
0
 30
0
  9
$PUCSORGBOTTOM
 10
0
 20
0
 30
0
  9
$PUCSORGLEFT
 10
0
 20
0
 30
0
  9
$PUCSORGRIGHT
 10
0
 20
0
 30
0
  9
$PUCSORGFRONT
 10
0
 20
0
 30
0
  9
$PUCSORGBACK
 10
0
 20
0
 30
0
  9
$USERI1
 70
    0
  9
$USERI2
 70
    0
  9
$USERI3
 70
    0
  9
$USERI4
 70
    0
  9
$USERI5
 70
    0
  9
$USERR1
 40
0
  9
$USERR2
 40
0
  9
$USERR3
 40
0
  9
$USERR4
 40
0
  9
$USERR5
 40
0
  9
$WORLDVIEW
 70
    1
  9
$SHADEDGE
 70
    3
  9
$SHADEDIF
 70
   70
  9
$TILEMODE
 70
    1
  9
$MAXACTVP
 70
   64
  9
$PINSBASE
 10
33.1499966743
 20
154.141797052
 30
0
  9
$PLIMCHECK
 70
    0
  9
$PEXTMIN
 10
0
 20
0
 30
0
  9
$PEXTMAX
 10
0
 20
0
 30
0
  9
$GRIDMODE
 70
    1
  9
$SNAPSTYLE
 70
    0
  9
$GRIDUNIT
 10
0
 20
0
  9
$PLIMMIN
 10
0
 20
0
  9
$PLIMMAX
 10
297
 20
420
  9
$UNITMODE
 70
    0
  9
$VISRETAIN
 70
    1
  9
$PLINEGEN
 70
    0
  9
$PSLTSCALE
 70
    1
  9
$TREEDEPTH
 70
 3020
  9
$CMLSTYLE
  2
Standard
  9
$CMLJUST
 70
    0
  9
$CMLSCALE
 40
20
  9
$PROXYGRAPHICS
 70
    1
  9
$MEASUREMENT
 70
    1
  9
$CELWEIGHT
370
   -1
  9
$ENDCAPS
280
    0
  9
$JOINSTYLE
280
    0
  9
$LWDISPLAY
290
    0
  9
$INSUNITS
 70
    4
  9
$HYPERLINKBASE
  1

  9
$STYLESHEET
  1

  9
$XEDIT
290
    1
  9
$CEPSNTYPE
380
    0
  9
$PSTYLEMODE
290
    1
  9
$EXTNAMES
290
    1
  9
$PSVPSCALE
 40
0.0173137987513
  9
$OLESTARTUP
290
    0
  9
$SORTENTS
280
  127
  9
$INDEXCTL
280
    0
  9
$HIDETEXT
280
    1
  9
$XCLIPFRAME
290
    0
  9
$HALOGAP
280
    0
  9
$OBSCOLOR
 70
  257
  9
$OBSLTYPE
280
    0
  9
$INTERSECTIONDISPLAY
280
    0
  9
$INTERSECTIONCOLOR
 70
  257
  9
$DIMASSOC
280
    1
  9
$PROJECTNAME
  1

  9
$CAMERADISPLAY
290
    0
  9
$LENSLENGTH
 40
50
  9
$CAMERAHEIGHT
 40
0
  9
$STEPSPERSEC
 40
2
  9
$STEPSIZE
 40
50
  9
$3DDWFPREC
 40
2
  9
$PSOLWIDTH
 40
5
  9
$PSOLHEIGHT
 40
80
  9
$LOFTANG1
 40
1.570796326794897
  9
$LOFTANG2
 40
1.570796326794897
  9
$LOFTMAG1
 40
0
  9
$LOFTMAG2
 40
0
  9
$LOFTPARAM
 70
    7
  9
$LOFTNORMALS
280
    1
  9
$LATITUDE
 40
1
  9
$LONGITUDE
 40
1
  9
$NORTHDIRECTION
 40
0
  9
$TIMEZONE
 70
-8000
  9
$LIGHTGLYPHDISPLAY
280
    1
  9
$TILEMODELIGHTSYNCH
280
    1
  9
$SOLIDHIST
280
    1
  9
$SHOWHIST
280
    1
  9
$DWFFRAME
280
    2
  9
$DGNFRAME
280
    0
  9
$REALWORLDSCALE
290
    1
  9
$INTERFERECOLOR
 62
    1
  9
$CSHADOW
280
    0
  9
$SHADOWPLANELOCATION
 40
0
  0
ENDSEC
  0
SECTION
  2
CLASSES
  0
ENDSEC
  0
SECTION
  2
TABLES
  0
TABLE
  2
VPORT
  5
8
330
0
100
AcDbSymbolTable
 70
    1
  0
VPORT
  5
31
330
2
100
AcDbSymbolTableRecord
100
AcDbViewportTableRecord
  2
*ACTIVE
 70
    0
 10
0
 20
0
 11
1
 21
1
 12
12862.68502279726
 22
6757.255138665451
 13
0
 23
0
 14
10
 24
10
 15
10
 25
10
 16
0
 26
0
 36
1
 17
0
 27
0
 37
0
 40
19322.99754550849
 41
2.219640179910045
 42
50
 43
0
 44
0
 50
0
 51
0
 71
    0
 72
  100
 73
    1
 74
    3
 75
    0
 76
    1
 77
    0
 78
    0
281
    0
 65
    1
110
0
120
0
130
0
111
1
121
0
131
0
112
0
122
1
132
0
 79
    0
146
0
348
10020
 60
    7
 61
    5
292
1
282
    1
141
0
142
0
 63
  250
421
3358443
  0
ENDTAB
  0
TABLE
  2
LTYPE
  5
5
330
0
100
AcDbSymbolTable
 70
    4
  0
LTYPE
  5
14
330
5
100
AcDbSymbolTableRecord
100
AcDbLinetypeTableRecord
  2
ByBlock
 70
    0
  3

 72
   65
 73
    0
 40
0
  0
LTYPE
  5
15
330
5
100
AcDbSymbolTableRecord
100
AcDbLinetypeTableRecord
  2
ByLayer
 70
    0
  3

 72
   65
 73
    0
 40
0
  0
LTYPE
  5
16
330
5
100
AcDbSymbolTableRecord
100
AcDbLinetypeTableRecord
  2
Continuous
 70
    0
  3
Solid line
 72
   65
 73
    0
 40
0
  0
LTYPE
  5
32
330
5
100
AcDbSymbolTableRecord
100
AcDbLinetypeTableRecord
  2
DOT
 70
    0
  3
Dot . . . . . . . . . . . . . . . . . . . . . .
 72
   65
 73
    2
 40
6.35
 49
0
 74
    0
 49
-6.35
 74
    0
  0
LTYPE
  5
33
330
5
100
AcDbSymbolTableRecord
100
AcDbLinetypeTableRecord
  2
DOTTINY
 70
    0
  3
Dot (.15x) .....................................
 72
   65
 73
    2
 40
0.9525
 49
0
 74
    0
 49
-0.9525
 74
    0
  0
LTYPE
  5
34
330
5
100
AcDbSymbolTableRecord
100
AcDbLinetypeTableRecord
  2
DOT2
 70
    0
  3
Dot (.5x) .....................................
 72
   65
 73
    2
 40
3.175
 49
0
 74
    0
 49
-3.175
 74
    0
  0
LTYPE
  5
35
330
5
100
AcDbSymbolTableRecord
100
AcDbLinetypeTableRecord
  2
DOTX2
 70
    0
  3
Dot (2x) .  .  .  .  .  .  .  .  .  .  .  .  .
 72
   65
 73
    2
 40
12.7
 49
0
 74
    0
 49
-12.7
 74
    0
  0
LTYPE
  5
36
330
5
100
AcDbSymbolTableRecord
100
AcDbLinetypeTableRecord
  2
DASHED
 70
    0
  3
Dashed _ _ _ _ _ _ _ _ _ _ _ _ _ _ _ _ _
 72
   65
 73
    2
 40
19.05
 49
12.7
 74
    0
 49
-6.35
 74
    0
  0
LTYPE
  5
37
330
5
100
AcDbSymbolTableRecord
100
AcDbLinetypeTableRecord
  2
DASHEDTINY
 70
    0
  3
Dashed (.15x) _ _ _ _ _ _ _ _ _ _ _ _ _ _ _ _ _
 72
   65
 73
    2
 40
2.8575
 49
1.905
 74
    0
 49
-0.9525
 74
    0
  0
LTYPE
  5
38
330
5
100
AcDbSymbolTableRecord
100
AcDbLinetypeTableRecord
  2
DASHED2
 70
    0
  3
Dashed (.5x) _ _ _ _ _ _ _ _ _ _ _ _ _ _ _ _ _
 72
   65
 73
    2
 40
9.524999999999999
 49
6.35
 74
    0
 49
-3.175
 74
    0
  0
LTYPE
  5
39
330
5
100
AcDbSymbolTableRecord
100
AcDbLinetypeTableRecord
  2
DASHEDX2
 70
    0
  3
Dashed (2x) ____  ____  ____  ____  ____  ___
 72
   65
 73
    2
 40
38.09999999999999
 49
25.4
 74
    0
 49
-12.7
 74
    0
  0
LTYPE
  5
3A
330
5
100
AcDbSymbolTableRecord
100
AcDbLinetypeTableRecord
  2
DASHDOT
 70
    0
  3
Dash dot __ . __ . __ . __ . __ . __ . __ . __
 72
   65
 73
    4
 40
25.4
 49
12.7
 74
    0
 49
-6.35
 74
    0
 49
0
 74
    0
 49
-6.35
 74
    0
  0
LTYPE
  5
3B
330
5
100
AcDbSymbolTableRecord
100
AcDbLinetypeTableRecord
  2
DASHDOTTINY
 70
    0
  3
Dash dot (.15x) _._._._._._._._._._._._._._._.
 72
   65
 73
    4
 40
3.81
 49
1.905
 74
    0
 49
-0.9525
 74
    0
 49
0
 74
    0
 49
-0.9525
 74
    0
  0
LTYPE
  5
3C
330
5
100
AcDbSymbolTableRecord
100
AcDbLinetypeTableRecord
  2
DASHDOT2
 70
    0
  3
Dash dot (.5x) _._._._._._._._._._._._._._._.
 72
   65
 73
    4
 40
12.7
 49
6.35
 74
    0
 49
-3.175
 74
    0
 49
0
 74
    0
 49
-3.175
 74
    0
  0
LTYPE
  5
3D
330
5
100
AcDbSymbolTableRecord
100
AcDbLinetypeTableRecord
  2
DASHDOTX2
 70
    0
  3
Dash dot (2x) ____  .  ____  .  ____  .  ___
 72
   65
 73
    4
 40
50.8
 49
25.4
 74
    0
 49
-12.7
 74
    0
 49
0
 74
    0
 49
-12.7
 74
    0
  0
LTYPE
  5
3E
330
5
100
AcDbSymbolTableRecord
100
AcDbLinetypeTableRecord
  2
DIVIDE
 70
    0
  3
Divide ____ . . ____ . . ____ . . ____ . . ____
 72
   65
 73
    6
 40
31.75
 49
12.7
 74
    0
 49
-6.35
 74
    0
 49
0
 74
    0
 49
-6.35
 74
    0
 49
0
 74
    0
 49
-6.35
 74
    0
  0
LTYPE
  5
3F
330
5
100
AcDbSymbolTableRecord
100
AcDbLinetypeTableRecord
  2
DIVIDETINY
 70
    0
  3
Divide (.15x) __..__..__..__..__..__..__..__.._
 72
   65
 73
    6
 40
4.7625
 49
1.905
 74
    0
 49
-0.9525
 74
    0
 49
0
 74
    0
 49
-0.9525
 74
    0
 49
0
 74
    0
 49
-0.9525
 74
    0
  0
LTYPE
  5
40
330
5
100
AcDbSymbolTableRecord
100
AcDbLinetypeTableRecord
  2
DIVIDE2
 70
    0
  3
Divide (.5x) __..__..__..__..__..__..__..__.._
 72
   65
 73
    6
 40
15.875
 49
6.35
 74
    0
 49
-3.175
 74
    0
 49
0
 74
    0
 49
-3.175
 74
    0
 49
0
 74
    0
 49
-3.175
 74
    0
  0
LTYPE
  5
41
330
5
100
AcDbSymbolTableRecord
100
AcDbLinetypeTableRecord
  2
DIVIDEX2
 70
    0
  3
Divide (2x) ________  .  .  ________  .  .  _
 72
   65
 73
    6
 40
63.5
 49
25.4
 74
    0
 49
-12.7
 74
    0
 49
0
 74
    0
 49
-12.7
 74
    0
 49
0
 74
    0
 49
-12.7
 74
    0
  0
LTYPE
  5
42
330
5
100
AcDbSymbolTableRecord
100
AcDbLinetypeTableRecord
  2
BORDER
 70
    0
  3
Border __ __ . __ __ . __ __ . __ __ . __ __ .
 72
   65
 73
    6
 40
44.45
 49
12.7
 74
    0
 49
-6.35
 74
    0
 49
12.7
 74
    0
 49
-6.35
 74
    0
 49
0
 74
    0
 49
-6.35
 74
    0
  0
LTYPE
  5
43
330
5
100
AcDbSymbolTableRecord
100
AcDbLinetypeTableRecord
  2
BORDERTINY
 70
    0
  3
Border (.15x) __.__.__.__.__.__.__.__.__.__.__.
 72
   65
 73
    6
 40
6.6675
 49
1.905
 74
    0
 49
-0.9525
 74
    0
 49
1.905
 74
    0
 49
-0.9525
 74
    0
 49
0
 74
    0
 49
-0.9525
 74
    0
  0
LTYPE
  5
44
330
5
100
AcDbSymbolTableRecord
100
AcDbLinetypeTableRecord
  2
BORDER2
 70
    0
  3
Border (.5x) __.__.__.__.__.__.__.__.__.__.__.
 72
   65
 73
    6
 40
22.225
 49
6.35
 74
    0
 49
-3.175
 74
    0
 49
6.35
 74
    0
 49
-3.175
 74
    0
 49
0
 74
    0
 49
-3.175
 74
    0
  0
LTYPE
  5
45
330
5
100
AcDbSymbolTableRecord
100
AcDbLinetypeTableRecord
  2
BORDERX2
 70
    0
  3
Border (2x) ____  ____  .  ____  ____  .  ___
 72
   65
 73
    6
 40
88.89999999999999
 49
25.4
 74
    0
 49
-12.7
 74
    0
 49
25.4
 74
    0
 49
-12.7
 74
    0
 49
0
 74
    0
 49
-12.7
 74
    0
  0
LTYPE
  5
46
330
5
100
AcDbSymbolTableRecord
100
AcDbLinetypeTableRecord
  2
CENTER
 70
    0
  3
Center ____ _ ____ _ ____ _ ____ _ ____ _ ____
 72
   65
 73
    4
 40
50.8
 49
31.75
 74
    0
 49
-6.35
 74
    0
 49
6.35
 74
    0
 49
-6.35
 74
    0
  0
LTYPE
  5
47
330
5
100
AcDbSymbolTableRecord
100
AcDbLinetypeTableRecord
  2
CENTERTINY
 70
    0
  3
Center (.15x) ___ _ ___ _ ___ _ ___ _ ___ _ ___
 72
   65
 73
    4
 40
7.619999999999999
 49
4.7625
 74
    0
 49
-0.9525
 74
    0
 49
0.9525
 74
    0
 49
-0.9525
 74
    0
  0
LTYPE
  5
48
330
5
100
AcDbSymbolTableRecord
100
AcDbLinetypeTableRecord
  2
CENTER2
 70
    0
  3
Center (.5x) ___ _ ___ _ ___ _ ___ _ ___ _ ___
 72
   65
 73
    4
 40
28.575
 49
19.05
 74
    0
 49
-3.175
 74
    0
 49
3.175
 74
    0
 49
-3.175
 74
    0
  0
LTYPE
  5
49
330
5
100
AcDbSymbolTableRecord
100
AcDbLinetypeTableRecord
  2
CENTERX2
 70
    0
  3
Center (2x) ________  __  ________  __  _____
 72
   65
 73
    4
 40
101.6
 49
63.5
 74
    0
 49
-12.7
 74
    0
 49
12.7
 74
    0
 49
-12.7
 74
    0
  0
ENDTAB
  0
TABLE
  2
LAYER
  5
2
330
0
100
AcDbSymbolTable
 70
    1
  0
LAYER
  5
10
330
2
100
AcDbSymbolTableRecord
100
AcDbLayerTableRecord
  2
0
 70
    0
 62
    7
  6
CONTINUOUS
370
    0
390
F
  0
LAYER
  5
4A
330
2
100
AcDbSymbolTableRecord
100
AcDbLayerTableRecord
  2
bogus
 70
    0
 62
    2
  6
CONTINUOUS
370
    0
390
F
  0
LAYER
  5
4B
330
2
100
AcDbSymbolTableRecord
100
AcDbLayerTableRecord
  2
cabinates
 70
    0
 62
  253
  6
CONTINUOUS
370
    0
390
F
  0
LAYER
  5
4C
330
2
100
AcDbSymbolTableRecord
100
AcDbLayerTableRecord
  2
container
 70
    0
 62
    7
  6
CONTINUOUS
370
    0
390
F
  0
LAYER
  5
4D
330
2
100
AcDbSymbolTableRecord
100
AcDbLayerTableRecord
  2
deck
 70
    0
 62
  253
  6
CONTINUOUS
370
    0
390
F
  0
LAYER
  5
4E
330
2
100
AcDbSymbolTableRecord
100
AcDbLayerTableRecord
  2
dimension
 70
    0
 62
    5
  6
CONTINUOUS
370
    0
390
F
  0
LAYER
  5
4F
330
2
100
AcDbSymbolTableRecord
100
AcDbLayerTableRecord
  2
doors
 70
    0
 62
    6
  6
CONTINUOUS
370
   -3
390
F
  0
LAYER
  5
50
330
2
100
AcDbSymbolTableRecord
100
AcDbLayerTableRecord
  2
eletrical
 70
    0
 62
  136
  6
CONTINUOUS
370
   -3
390
F
  0
LAYER
  5
51
330
2
100
AcDbSymbolTableRecord
100
AcDbLayerTableRecord
  2
fixtures
 70
    0
 62
   96
  6
CONTINUOUS
370
   -3
390
F
  0
LAYER
  5
52
330
2
100
AcDbSymbolTableRecord
100
AcDbLayerTableRecord
  2
tatami
 70
    0
 62
   30
  6
DOT2
370
    0
390
F
  0
LAYER
  5
53
330
2
100
AcDbSymbolTableRecord
100
AcDbLayerTableRecord
  2
text
 70
    0
 62
    8
  6
CONTINUOUS
370
   -3
390
F
  0
ENDTAB
  0
TABLE
  2
STYLE
  5
3
330
0
100
AcDbSymbolTable
 70
    3
  0
STYLE
  5
54
330
2
100
AcDbSymbolTableRecord
100
AcDbTextStyleTableRecord
  2
iso
 70
    0
 40
0
 41
1
 50
0
 71
    0
 42
1
  3
iso
  4

  0
STYLE
  5
55
330
2
100
AcDbSymbolTableRecord
100
AcDbTextStyleTableRecord
  2
standard
 70
    0
 40
0
 41
1
 50
0
 71
    0
 42
1
  3
standard
  4

  0
ENDTAB
  0
TABLE
  2
VIEW
  5
6
330
0
100
AcDbSymbolTable
 70
    0
  0
ENDTAB
  0
TABLE
  2
UCS
  5
7
330
0
100
AcDbSymbolTable
 70
    0
  0
ENDTAB
  0
TABLE
  2
APPID
  5
9
330
0
100
AcDbSymbolTable
 70
    1
  0
APPID
  5
12
330
9
100
AcDbSymbolTableRecord
100
AcDbRegAppTableRecord
  2
ACAD
 70
    0
  0
APPID
  5
56
330
9
100
AcDbSymbolTableRecord
100
AcDbRegAppTableRecord
  2
LibreCad
 70
    0
  0
ENDTAB
  0
TABLE
  2
DIMSTYLE
  5
A
330
0
100
AcDbSymbolTable
 70
    1
100
AcDbDimStyleTable
 71
    1
  0
DIMSTYLE
105
57
330
A
100
AcDbSymbolTableRecord
100
AcDbDimStyleTableRecord
  2
Standard
 70
    0
 40
1
 41
30
 42
10
 43
0.38
 44
50
 45
0
 46
0
 47
0
 48
0
 49
1
140
100
141
0.09
142
0
143
25.4
144
1
145
0
146
1
147
50
148
0
 71
    0
 72
    0
 73
    0
 74
    1
 75
    0
 76
    0
 77
    0
 78
    1
 79
    0
170
    0
171
    2
172
    0
173
    0
174
    0
175
    0
176
    0
177
    0
178
    0
179
    2
271
    4
272
    4
273
    2
274
    2
275
    0
276
    0
277
    2
278
    0
279
    0
280
    0
281
    0
282
    0
283
    1
284
    0
285
    0
286
    0
288
    0
289
    3
340
standard
341

371
   -2
372
   -2
  0
ENDTAB
  0
TABLE
  2
BLOCK_RECORD
  5
1
330
0
100
AcDbSymbolTable
 70
    2
  0
BLOCK_RECORD
  5
1F
330
1
100
AcDbSymbolTableRecord
100
AcDbBlockTableRecord
  2
*Model_Space
 70
    0
280
    1
281
    0
  0
BLOCK_RECORD
  5
1E
330
1
100
AcDbSymbolTableRecord
100
AcDbBlockTableRecord
  2
*Paper_Space
 70
    0
280
    1
281
    0
  0
BLOCK_RECORD
  5
58
330
1
100
AcDbSymbolTableRecord
100
AcDbBlockTableRecord
  2
outlet110HorUp-0
 70
    0
280
    1
281
    0
  0
BLOCK_RECORD
  5
5B
330
1
100
AcDbSymbolTableRecord
100
AcDbBlockTableRecord
  2
door700VerLeft-1
 70
    0
280
    1
281
    0
  0
BLOCK_RECORD
  5
5E
330
1
100
AcDbSymbolTableRecord
100
AcDbBlockTableRecord
  2
WCVerRight-2
 70
    0
280
    1
281
    0
  0
BLOCK_RECORD
  5
61
330
1
100
AcDbSymbolTableRecord
100
AcDbBlockTableRecord
  2
tub_ver-0
 70
    0
280
    1
281
    0
  0
BLOCK_RECORD
  5
64
330
1
100
AcDbSymbolTableRecord
100
AcDbBlockTableRecord
  2
door800VerLeft-0
 70
    0
280
    1
281
    0
  0
BLOCK_RECORD
  5
67
330
1
100
AcDbSymbolTableRecord
100
AcDbBlockTableRecord
  2
KyotoKyomaTatamiVertical-0
 70
    0
280
    1
281
    0
  0
BLOCK_RECORD
  5
6A
330
1
100
AcDbSymbolTableRecord
100
AcDbBlockTableRecord
  2
KyotoKyomaTatamiVertical-1
 70
    0
280
    1
281
    0
  0
BLOCK_RECORD
  5
6D
330
1
100
AcDbSymbolTableRecord
100
AcDbBlockTableRecord
  2
KyotoKyomaTatamiVertical-2
 70
    0
280
    1
281
    0
  0
BLOCK_RECORD
  5
70
330
1
100
AcDbSymbolTableRecord
100
AcDbBlockTableRecord
  2
KyotoKyomaTatamiVertical-3
 70
    0
280
    1
281
    0
  0
BLOCK_RECORD
  5
73
330
1
100
AcDbSymbolTableRecord
100
AcDbBlockTableRecord
  2
KyotoKyomaTatamiVertical-4
 70
    0
280
    1
281
    0
  0
BLOCK_RECORD
  5
76
330
1
100
AcDbSymbolTableRecord
100
AcDbBlockTableRecord
  2
KyotoKyomaTatamiVertical-5
 70
    0
280
    1
281
    0
  0
BLOCK_RECORD
  5
79
330
1
100
AcDbSymbolTableRecord
100
AcDbBlockTableRecord
  2
KyotoKyomaTatamiVertical-6
 70
    0
280
    1
281
    0
  0
BLOCK_RECORD
  5
7C
330
1
100
AcDbSymbolTableRecord
100
AcDbBlockTableRecord
  2
KyotoKyomaTatamiVertical-7
 70
    0
280
    1
281
    0
  0
BLOCK_RECORD
  5
7F
330
1
100
AcDbSymbolTableRecord
100
AcDbBlockTableRecord
  2
KyotoKyomaTatamiVertical-8
 70
    0
280
    1
281
    0
  0
BLOCK_RECORD
  5
82
330
1
100
AcDbSymbolTableRecord
100
AcDbBlockTableRecord
  2
KyotoKyomaTatamiHalf-0
 70
    0
280
    1
281
    0
  0
BLOCK_RECORD
  5
85
330
1
100
AcDbSymbolTableRecord
100
AcDbBlockTableRecord
  2
KyotoKyomaTatamiHalf-1
 70
    0
280
    1
281
    0
  0
BLOCK_RECORD
  5
88
330
1
100
AcDbSymbolTableRecord
100
AcDbBlockTableRecord
  2
KyotoKyomaTatamiHalf-2
 70
    0
280
    1
281
    0
  0
BLOCK_RECORD
  5
8B
330
1
100
AcDbSymbolTableRecord
100
AcDbBlockTableRecord
  2
KyotoKyomaTatamiHalf-3
 70
    0
280
    1
281
    0
  0
BLOCK_RECORD
  5
8E
330
1
100
AcDbSymbolTableRecord
100
AcDbBlockTableRecord
  2
KyotoKyomaTatamiVertical-9
 70
    0
280
    1
281
    0
  0
BLOCK_RECORD
  5
91
330
1
100
AcDbSymbolTableRecord
100
AcDbBlockTableRecord
  2
KyotoKyomaTatami-0
 70
    0
280
    1
281
    0
  0
BLOCK_RECORD
  5
94
330
1
100
AcDbSymbolTableRecord
100
AcDbBlockTableRecord
  2
KyotoKyomaTatami-1
 70
    0
280
    1
281
    0
  0
BLOCK_RECORD
  5
97
330
1
100
AcDbSymbolTableRecord
100
AcDbBlockTableRecord
  2
washer_Hor-0
 70
    0
280
    1
281
    0
  0
BLOCK_RECORD
  5
9A
330
1
100
AcDbSymbolTableRecord
100
AcDbBlockTableRecord
  2
washer_Hor-1
 70
    0
280
    1
281
    0
  0
BLOCK_RECORD
  5
9D
330
1
100
AcDbSymbolTableRecord
100
AcDbBlockTableRecord
  2
refridge500_600_verRight-0
 70
    0
280
    1
281
    0
  0
BLOCK_RECORD
  5
A0
330
1
100
AcDbSymbolTableRecord
100
AcDbBlockTableRecord
  2
Standard40ft12m_withIntwall-0
 70
    0
280
    1
281
    0
  0
BLOCK_RECORD
  5
A3
330
1
100
AcDbSymbolTableRecord
100
AcDbBlockTableRecord
  2
jtub
 70
    0
280
    1
281
    0
  0
BLOCK_RECORD
  5
A6
330
1
100
AcDbSymbolTableRecord
100
AcDbBlockTableRecord
  2
110hordwn
 70
    0
280
    1
281
    0
  0
BLOCK_RECORD
  5
A9
330
1
100
AcDbSymbolTableRecord
100
AcDbBlockTableRecord
  2
outlet220HorDwn
 70
    0
280
    1
281
    0
  0
BLOCK_RECORD
  5
AC
330
1
100
AcDbSymbolTableRecord
100
AcDbBlockTableRecord
  2
outlet220HorUp
 70
    0
280
    1
281
    0
  0
BLOCK_RECORD
  5
AF
330
1
100
AcDbSymbolTableRecord
100
AcDbBlockTableRecord
  2
outlet110VertLeft
 70
    0
280
    1
281
    0
  0
BLOCK_RECORD
  5
B2
330
1
100
AcDbSymbolTableRecord
100
AcDbBlockTableRecord
  2
outlet220VerLeft
 70
    0
280
    1
281
    0
  0
BLOCK_RECORD
  5
B5
330
1
100
AcDbSymbolTableRecord
100
AcDbBlockTableRecord
  2
outlet220VerRight
 70
    0
280
    1
281
    0
  0
BLOCK_RECORD
  5
B8
330
1
100
AcDbSymbolTableRecord
100
AcDbBlockTableRecord
  2
outlet110VerRight
 70
    0
280
    1
281
    0
  0
ENDTAB
  0
ENDSEC
  0
SECTION
  2
BLOCKS
  0
BLOCK
  5
20
330
1F
100
AcDbEntity
  8
0
100
AcDbBlockBegin
  2
*Model_Space
 70
    0
 10
0
 20
0
 30
0
  3
*Model_Space
  1

  0
ENDBLK
  5
21
330
1F
100
AcDbEntity
  8
0
100
AcDbBlockEnd
  0
BLOCK
  5
1C
330
1B
100
AcDbEntity
  8
0
100
AcDbBlockBegin
  2
*Paper_Space
 70
    0
 10
0
 20
0
 30
0
  3
*Paper_Space
  1

  0
ENDBLK
  5
1D
330
1F
100
AcDbEntity
  8
0
100
AcDbBlockEnd
  0
BLOCK
  5
59
330
58
100
AcDbEntity
  8
0
100
AcDbBlockBegin
  2
outlet110HorUp-0
 70
    0
 10
0
 20
0
  3
outlet110HorUp-0
  1

  0
CIRCLE
  5
BB
100
AcDbEntity
  8
0
  6
ByLayer
 62
  256
370
   -1
100
AcDbCircle
 10
19.2383306793
 20
93.1569229908
 40
50
  0
LINE
  5
BC
100
AcDbEntity
  8
0
  6
ByLayer
 62
  256
370
   -1
100
AcDbLine
 10
36.2896076697
 20
0
 11
36.2896076697
 21
161.186024643
  0
LINE
  5
BD
100
AcDbEntity
  8
0
  6
ByLayer
 62
  256
370
   -1
100
AcDbLine
 10
0
 20
0
 11
0
 21
161.186024643
  0
ENDBLK
  5
5A
330
58
100
AcDbEntity
  8
0
100
AcDbBlockEnd
  0
BLOCK
  5
5C
330
5B
100
AcDbEntity
  8
0
100
AcDbBlockBegin
  2
door700VerLeft-1
 70
    0
 10
0
 20
0
  3
door700VerLeft-1
  1

  0
LINE
  5
BE
100
AcDbEntity
  8
0
  6
ByLayer
 62
  256
370
   -1
100
AcDbLine
 10
0
 20
0
 11
-614.878036687
 21
-355
  0
ARC
  5
BF
100
AcDbEntity
  8
0
  6
ByLayer
 62
  256
370
   -1
100
AcDbCircle
 10
0
 20
0
 40
710
100
AcDbArc
 50
210
 51
270
  0
LINE
  5
C0
100
AcDbEntity
  8
0
  6
ByLayer
 62
  256
370
   -1
100
AcDbLine
 10
25
 20
-43.3012701892
 11
-589.878036687
 21
-398.301270189
  0
LINE
  5
C1
100
AcDbEntity
  8
0
  6
ByLayer
 62
  256
370
   -1
100
AcDbLine
 10
0
 20
0
 11
25
 21
-43.3012701892
  0
ENDBLK
  5
5D
330
5B
100
AcDbEntity
  8
0
100
AcDbBlockEnd
  0
BLOCK
  5
5F
330
5E
100
AcDbEntity
  8
0
100
AcDbBlockBegin
  2
WCVerRight-2
 70
    0
 10
0
 20
0
  3
WCVerRight-2
  1

  0
LINE
  5
C2
100
AcDbEntity
  8
0
  6
ByLayer
 62
  256
370
   -1
100
AcDbLine
 10
0
 20
0
 11
200
 21
0
  0
LINE
  5
C3
100
AcDbEntity
  8
0
  6
ByLayer
 62
  256
370
   -1
100
AcDbLine
 10
0
 20
0
 11
0
 21
470
  0
LINE
  5
C4
100
AcDbEntity
  8
0
  6
ByLayer
 62
  256
370
   -1
100
AcDbLine
 10
200
 20
0
 11
200
 21
470
  0
LINE
  5
C5
100
AcDbEntity
  8
0
  6
ByLayer
 62
  256
370
   -1
100
AcDbLine
 10
0
 20
470
 11
200
 21
470
  0
ELLIPSE
  5
C6
100
AcDbEntity
  8
0
  6
ByLayer
 62
  256
370
   -1
100
AcDbEllipse
 10
483.839834606
 20
228.898383818
 30
0
 11
238.828093948
 21
-6.63411372079
 31
0
 40
0.61565150347
 41
0
 42
6.283185307179586
  0
ENDBLK
  5
60
330
5E
100
AcDbEntity
  8
0
100
AcDbBlockEnd
  0
BLOCK
  5
62
330
61
100
AcDbEntity
  8
0
100
AcDbBlockBegin
  2
tub_ver-0
 70
    0
 10
0
 20
0
  3
tub_ver-0
  1

  0
ARC
  5
C7
100
AcDbEntity
  8
0
  6
ByLayer
 62
  256
370
   -1
100
AcDbCircle
 10
50
 20
0
 40
50
100
AcDbArc
 50
90
 51
180
  0
LINE
  5
C8
100
AcDbEntity
  8
0
  6
ByLayer
 62
  256
370
   -1
100
AcDbLine
 10
50
 20
50
 11
530
 21
50
  0
ARC
  5
C9
100
AcDbEntity
  8
0
  6
ByLayer
 62
  256
370
   -1
100
AcDbCircle
 10
530
 20
0
 40
50
100
AcDbArc
 50
0
 51
90
  0
LINE
  5
CA
100
AcDbEntity
  8
0
  6
ByLayer
 62
  256
370
   -1
100
AcDbLine
 10
580
 20
-870
 11
580
 21
0
  0
ARC
  5
CB
100
AcDbEntity
  8
0
  6
ByLayer
 62
  256
370
   -1
100
AcDbCircle
 10
530
 20
-870
 40
50
100
AcDbArc
 50
270
 51
0
  0
LINE
  5
CC
100
AcDbEntity
  8
0
  6
ByLayer
 62
  256
370
   -1
100
AcDbLine
 10
50
 20
-920
 11
530
 21
-920
  0
LINE
  5
CD
100
AcDbEntity
  8
0
  6
ByLayer
 62
  256
370
   -1
100
AcDbLine
 10
-2.84217094304e-13
 20
-870
 11
0
 21
0
  0
ARC
  5
CE
100
AcDbEntity
  8
0
  6
ByLayer
 62
  256
370
   -1
100
AcDbCircle
 10
50
 20
-870
 40
50
100
AcDbArc
 50
180
 51
270
  0
ENDBLK
  5
63
330
61
100
AcDbEntity
  8
0
100
AcDbBlockEnd
  0
BLOCK
  5
65
330
64
100
AcDbEntity
  8
0
100
AcDbBlockBegin
  2
door800VerLeft-0
 70
    0
 10
0
 20
0
  3
door800VerLeft-0
  1

  0
LINE
  5
CF
100
AcDbEntity
  8
0
  6
ByLayer
 62
  256
370
   -1
100
AcDbLine
 10
0
 20
0
 11
-514.2300877489999
 21
-612.835554495
  0
ARC
  5
D0
100
AcDbEntity
  8
0
  6
ByLayer
 62
  256
370
   -1
100
AcDbCircle
 10
0
 20
0
 40
800
100
AcDbArc
 50
230
 51
270
  0
LINE
  5
D1
100
AcDbEntity
  8
0
  6
ByLayer
 62
  256
370
   -1
100
AcDbLine
 10
38.3022221559
 20
-32.1393804843
 11
-475.927865593
 21
-644.9749349799999
  0
LINE
  5
D2
100
AcDbEntity
  8
0
  6
ByLayer
 62
  256
370
   -1
100
AcDbLine
 10
0
 20
0
 11
38.3022221559
 21
-32.1393804843
  0
ENDBLK
  5
66
330
64
100
AcDbEntity
  8
0
100
AcDbBlockEnd
  0
BLOCK
  5
68
330
67
100
AcDbEntity
  8
0
100
AcDbBlockBegin
  2
KyotoKyomaTatamiVertical-0
 70
    0
 10
0
 20
0
  3
KyotoKyomaTatamiVertical-0
  1

  0
LINE
  5
D3
100
AcDbEntity
  8
0
  6
ByLayer
 62
  256
370
   -1
100
AcDbLine
 10
0
 20
0
 11
-955
 21
0
  0
LINE
  5
D4
100
AcDbEntity
  8
0
  6
ByLayer
 62
  256
370
   -1
100
AcDbLine
 10
0
 20
1910
 11
-955
 21
1910
  0
LINE
  5
D5
100
AcDbEntity
  8
0
  6
ByLayer
 62
  256
370
   -1
100
AcDbLine
 10
-955
 20
0
 11
-955
 21
1910
  0
LINE
  5
D6
100
AcDbEntity
  8
0
  6
ByLayer
 62
  256
370
   -1
100
AcDbLine
 10
0
 20
0
 11
0
 21
1910
  0
LINE
  5
D7
100
AcDbEntity
  8
0
  6
ByLayer
 62
  256
370
   -1
100
AcDbLine
 10
-930
 20
0
 11
-930
 21
1910
  0
LINE
  5
D8
100
AcDbEntity
  8
0
  6
ByLayer
 62
  256
370
   -1
100
AcDbLine
 10
0
 20
1885
 11
-955
 21
1885
  0
LINE
  5
D9
100
AcDbEntity
  8
0
  6
ByLayer
 62
  256
370
   -1
100
AcDbLine
 10
0
 20
25
 11
-955
 21
25
  0
LINE
  5
DA
100
AcDbEntity
  8
0
  6
ByLayer
 62
  256
370
   -1
100
AcDbLine
 10
-25
 20
0
 11
-25
 21
1910
  0
LINE
  5
DB
100
AcDbEntity
  8
0
  6
ByLayer
 62
  256
370
   -1
100
AcDbLine
 10
0
 20
955
 11
-25
 21
955
  0
LINE
  5
DC
100
AcDbEntity
  8
0
  6
ByLayer
 62
  256
370
   -1
100
AcDbLine
 10
-930
 20
955
 11
-955
 21
955
  0
ENDBLK
  5
69
330
67
100
AcDbEntity
  8
0
100
AcDbBlockEnd
  0
BLOCK
  5
6B
330
6A
100
AcDbEntity
  8
0
100
AcDbBlockBegin
  2
KyotoKyomaTatamiVertical-1
 70
    0
 10
0
 20
0
  3
KyotoKyomaTatamiVertical-1
  1

  0
LINE
  5
DD
100
AcDbEntity
  8
0
  6
ByLayer
 62
  256
370
   -1
100
AcDbLine
 10
0
 20
0
 11
-955
 21
0
  0
LINE
  5
DE
100
AcDbEntity
  8
0
  6
ByLayer
 62
  256
370
   -1
100
AcDbLine
 10
0
 20
1910
 11
-955
 21
1910
  0
LINE
  5
DF
100
AcDbEntity
  8
0
  6
ByLayer
 62
  256
370
   -1
100
AcDbLine
 10
-955
 20
0
 11
-955
 21
1910
  0
LINE
  5
E0
100
AcDbEntity
  8
0
  6
ByLayer
 62
  256
370
   -1
100
AcDbLine
 10
0
 20
0
 11
0
 21
1910
  0
LINE
  5
E1
100
AcDbEntity
  8
0
  6
ByLayer
 62
  256
370
   -1
100
AcDbLine
 10
-930
 20
0
 11
-930
 21
1910
  0
LINE
  5
E2
100
AcDbEntity
  8
0
  6
ByLayer
 62
  256
370
   -1
100
AcDbLine
 10
0
 20
1885
 11
-955
 21
1885
  0
LINE
  5
E3
100
AcDbEntity
  8
0
  6
ByLayer
 62
  256
370
   -1
100
AcDbLine
 10
0
 20
25
 11
-955
 21
25
  0
LINE
  5
E4
100
AcDbEntity
  8
0
  6
ByLayer
 62
  256
370
   -1
100
AcDbLine
 10
-25
 20
0
 11
-25
 21
1910
  0
LINE
  5
E5
100
AcDbEntity
  8
0
  6
ByLayer
 62
  256
370
   -1
100
AcDbLine
 10
0
 20
955
 11
-25
 21
955
  0
LINE
  5
E6
100
AcDbEntity
  8
0
  6
ByLayer
 62
  256
370
   -1
100
AcDbLine
 10
-930
 20
955
 11
-955
 21
955
  0
ENDBLK
  5
6C
330
6A
100
AcDbEntity
  8
0
100
AcDbBlockEnd
  0
BLOCK
  5
6E
330
6D
100
AcDbEntity
  8
0
100
AcDbBlockBegin
  2
KyotoKyomaTatamiVertical-2
 70
    0
 10
0
 20
0
  3
KyotoKyomaTatamiVertical-2
  1

  0
LINE
  5
E7
100
AcDbEntity
  8
0
  6
ByLayer
 62
  256
370
   -1
100
AcDbLine
 10
0
 20
0
 11
-955
 21
0
  0
LINE
  5
E8
100
AcDbEntity
  8
0
  6
ByLayer
 62
  256
370
   -1
100
AcDbLine
 10
0
 20
1910
 11
-955
 21
1910
  0
LINE
  5
E9
100
AcDbEntity
  8
0
  6
ByLayer
 62
  256
370
   -1
100
AcDbLine
 10
-955
 20
0
 11
-955
 21
1910
  0
LINE
  5
EA
100
AcDbEntity
  8
0
  6
ByLayer
 62
  256
370
   -1
100
AcDbLine
 10
0
 20
0
 11
0
 21
1910
  0
LINE
  5
EB
100
AcDbEntity
  8
0
  6
ByLayer
 62
  256
370
   -1
100
AcDbLine
 10
-930
 20
0
 11
-930
 21
1910
  0
LINE
  5
EC
100
AcDbEntity
  8
0
  6
ByLayer
 62
  256
370
   -1
100
AcDbLine
 10
0
 20
1885
 11
-955
 21
1885
  0
LINE
  5
ED
100
AcDbEntity
  8
0
  6
ByLayer
 62
  256
370
   -1
100
AcDbLine
 10
0
 20
25
 11
-955
 21
25
  0
LINE
  5
EE
100
AcDbEntity
  8
0
  6
ByLayer
 62
  256
370
   -1
100
AcDbLine
 10
-25
 20
0
 11
-25
 21
1910
  0
LINE
  5
EF
100
AcDbEntity
  8
0
  6
ByLayer
 62
  256
370
   -1
100
AcDbLine
 10
0
 20
955
 11
-25
 21
955
  0
LINE
  5
F0
100
AcDbEntity
  8
0
  6
ByLayer
 62
  256
370
   -1
100
AcDbLine
 10
-930
 20
955
 11
-955
 21
955
  0
ENDBLK
  5
6F
330
6D
100
AcDbEntity
  8
0
100
AcDbBlockEnd
  0
BLOCK
  5
71
330
70
100
AcDbEntity
  8
0
100
AcDbBlockBegin
  2
KyotoKyomaTatamiVertical-3
 70
    0
 10
0
 20
0
  3
KyotoKyomaTatamiVertical-3
  1

  0
LINE
  5
F1
100
AcDbEntity
  8
0
  6
ByLayer
 62
  256
370
   -1
100
AcDbLine
 10
0
 20
0
 11
-955
 21
0
  0
LINE
  5
F2
100
AcDbEntity
  8
0
  6
ByLayer
 62
  256
370
   -1
100
AcDbLine
 10
0
 20
1910
 11
-955
 21
1910
  0
LINE
  5
F3
100
AcDbEntity
  8
0
  6
ByLayer
 62
  256
370
   -1
100
AcDbLine
 10
-955
 20
0
 11
-955
 21
1910
  0
LINE
  5
F4
100
AcDbEntity
  8
0
  6
ByLayer
 62
  256
370
   -1
100
AcDbLine
 10
0
 20
0
 11
0
 21
1910
  0
LINE
  5
F5
100
AcDbEntity
  8
0
  6
ByLayer
 62
  256
370
   -1
100
AcDbLine
 10
-930
 20
0
 11
-930
 21
1910
  0
LINE
  5
F6
100
AcDbEntity
  8
0
  6
ByLayer
 62
  256
370
   -1
100
AcDbLine
 10
0
 20
1885
 11
-955
 21
1885
  0
LINE
  5
F7
100
AcDbEntity
  8
0
  6
ByLayer
 62
  256
370
   -1
100
AcDbLine
 10
0
 20
25
 11
-955
 21
25
  0
LINE
  5
F8
100
AcDbEntity
  8
0
  6
ByLayer
 62
  256
370
   -1
100
AcDbLine
 10
-25
 20
0
 11
-25
 21
1910
  0
LINE
  5
F9
100
AcDbEntity
  8
0
  6
ByLayer
 62
  256
370
   -1
100
AcDbLine
 10
0
 20
955
 11
-25
 21
955
  0
LINE
  5
FA
100
AcDbEntity
  8
0
  6
ByLayer
 62
  256
370
   -1
100
AcDbLine
 10
-930
 20
955
 11
-955
 21
955
  0
ENDBLK
  5
72
330
70
100
AcDbEntity
  8
0
100
AcDbBlockEnd
  0
BLOCK
  5
74
330
73
100
AcDbEntity
  8
0
100
AcDbBlockBegin
  2
KyotoKyomaTatamiVertical-4
 70
    0
 10
0
 20
0
  3
KyotoKyomaTatamiVertical-4
  1

  0
LINE
  5
FB
100
AcDbEntity
  8
0
  6
ByLayer
 62
  256
370
   -1
100
AcDbLine
 10
0
 20
0
 11
-955
 21
0
  0
LINE
  5
FC
100
AcDbEntity
  8
0
  6
ByLayer
 62
  256
370
   -1
100
AcDbLine
 10
0
 20
1910
 11
-955
 21
1910
  0
LINE
  5
FD
100
AcDbEntity
  8
0
  6
ByLayer
 62
  256
370
   -1
100
AcDbLine
 10
-955
 20
0
 11
-955
 21
1910
  0
LINE
  5
FE
100
AcDbEntity
  8
0
  6
ByLayer
 62
  256
370
   -1
100
AcDbLine
 10
0
 20
0
 11
0
 21
1910
  0
LINE
  5
FF
100
AcDbEntity
  8
0
  6
ByLayer
 62
  256
370
   -1
100
AcDbLine
 10
-930
 20
0
 11
-930
 21
1910
  0
LINE
  5
100
100
AcDbEntity
  8
0
  6
ByLayer
 62
  256
370
   -1
100
AcDbLine
 10
0
 20
1885
 11
-955
 21
1885
  0
LINE
  5
101
100
AcDbEntity
  8
0
  6
ByLayer
 62
  256
370
   -1
100
AcDbLine
 10
0
 20
25
 11
-955
 21
25
  0
LINE
  5
102
100
AcDbEntity
  8
0
  6
ByLayer
 62
  256
370
   -1
100
AcDbLine
 10
-25
 20
0
 11
-25
 21
1910
  0
LINE
  5
103
100
AcDbEntity
  8
0
  6
ByLayer
 62
  256
370
   -1
100
AcDbLine
 10
0
 20
955
 11
-25
 21
955
  0
LINE
  5
104
100
AcDbEntity
  8
0
  6
ByLayer
 62
  256
370
   -1
100
AcDbLine
 10
-930
 20
955
 11
-955
 21
955
  0
ENDBLK
  5
75
330
73
100
AcDbEntity
  8
0
100
AcDbBlockEnd
  0
BLOCK
  5
77
330
76
100
AcDbEntity
  8
0
100
AcDbBlockBegin
  2
KyotoKyomaTatamiVertical-5
 70
    0
 10
0
 20
0
  3
KyotoKyomaTatamiVertical-5
  1

  0
LINE
  5
105
100
AcDbEntity
  8
0
  6
ByLayer
 62
  256
370
   -1
100
AcDbLine
 10
0
 20
0
 11
-955
 21
0
  0
LINE
  5
106
100
AcDbEntity
  8
0
  6
ByLayer
 62
  256
370
   -1
100
AcDbLine
 10
0
 20
1910
 11
-955
 21
1910
  0
LINE
  5
107
100
AcDbEntity
  8
0
  6
ByLayer
 62
  256
370
   -1
100
AcDbLine
 10
-955
 20
0
 11
-955
 21
1910
  0
LINE
  5
108
100
AcDbEntity
  8
0
  6
ByLayer
 62
  256
370
   -1
100
AcDbLine
 10
0
 20
0
 11
0
 21
1910
  0
LINE
  5
109
100
AcDbEntity
  8
0
  6
ByLayer
 62
  256
370
   -1
100
AcDbLine
 10
-930
 20
0
 11
-930
 21
1910
  0
LINE
  5
10A
100
AcDbEntity
  8
0
  6
ByLayer
 62
  256
370
   -1
100
AcDbLine
 10
0
 20
1885
 11
-955
 21
1885
  0
LINE
  5
10B
100
AcDbEntity
  8
0
  6
ByLayer
 62
  256
370
   -1
100
AcDbLine
 10
0
 20
25
 11
-955
 21
25
  0
LINE
  5
10C
100
AcDbEntity
  8
0
  6
ByLayer
 62
  256
370
   -1
100
AcDbLine
 10
-25
 20
0
 11
-25
 21
1910
  0
LINE
  5
10D
100
AcDbEntity
  8
0
  6
ByLayer
 62
  256
370
   -1
100
AcDbLine
 10
0
 20
955
 11
-25
 21
955
  0
LINE
  5
10E
100
AcDbEntity
  8
0
  6
ByLayer
 62
  256
370
   -1
100
AcDbLine
 10
-930
 20
955
 11
-955
 21
955
  0
ENDBLK
  5
78
330
76
100
AcDbEntity
  8
0
100
AcDbBlockEnd
  0
BLOCK
  5
7A
330
79
100
AcDbEntity
  8
0
100
AcDbBlockBegin
  2
KyotoKyomaTatamiVertical-6
 70
    0
 10
0
 20
0
  3
KyotoKyomaTatamiVertical-6
  1

  0
LINE
  5
10F
100
AcDbEntity
  8
0
  6
ByLayer
 62
  256
370
   -1
100
AcDbLine
 10
0
 20
0
 11
-955
 21
0
  0
LINE
  5
110
100
AcDbEntity
  8
0
  6
ByLayer
 62
  256
370
   -1
100
AcDbLine
 10
0
 20
1910
 11
-955
 21
1910
  0
LINE
  5
111
100
AcDbEntity
  8
0
  6
ByLayer
 62
  256
370
   -1
100
AcDbLine
 10
-955
 20
0
 11
-955
 21
1910
  0
LINE
  5
112
100
AcDbEntity
  8
0
  6
ByLayer
 62
  256
370
   -1
100
AcDbLine
 10
0
 20
0
 11
0
 21
1910
  0
LINE
  5
113
100
AcDbEntity
  8
0
  6
ByLayer
 62
  256
370
   -1
100
AcDbLine
 10
-930
 20
0
 11
-930
 21
1910
  0
LINE
  5
114
100
AcDbEntity
  8
0
  6
ByLayer
 62
  256
370
   -1
100
AcDbLine
 10
0
 20
1885
 11
-955
 21
1885
  0
LINE
  5
115
100
AcDbEntity
  8
0
  6
ByLayer
 62
  256
370
   -1
100
AcDbLine
 10
0
 20
25
 11
-955
 21
25
  0
LINE
  5
116
100
AcDbEntity
  8
0
  6
ByLayer
 62
  256
370
   -1
100
AcDbLine
 10
-25
 20
0
 11
-25
 21
1910
  0
LINE
  5
117
100
AcDbEntity
  8
0
  6
ByLayer
 62
  256
370
   -1
100
AcDbLine
 10
0
 20
955
 11
-25
 21
955
  0
LINE
  5
118
100
AcDbEntity
  8
0
  6
ByLayer
 62
  256
370
   -1
100
AcDbLine
 10
-930
 20
955
 11
-955
 21
955
  0
ENDBLK
  5
7B
330
79
100
AcDbEntity
  8
0
100
AcDbBlockEnd
  0
BLOCK
  5
7D
330
7C
100
AcDbEntity
  8
0
100
AcDbBlockBegin
  2
KyotoKyomaTatamiVertical-7
 70
    0
 10
0
 20
0
  3
KyotoKyomaTatamiVertical-7
  1

  0
LINE
  5
119
100
AcDbEntity
  8
0
  6
ByLayer
 62
  256
370
   -1
100
AcDbLine
 10
0
 20
0
 11
-955
 21
0
  0
LINE
  5
11A
100
AcDbEntity
  8
0
  6
ByLayer
 62
  256
370
   -1
100
AcDbLine
 10
0
 20
1910
 11
-955
 21
1910
  0
LINE
  5
11B
100
AcDbEntity
  8
0
  6
ByLayer
 62
  256
370
   -1
100
AcDbLine
 10
-955
 20
0
 11
-955
 21
1910
  0
LINE
  5
11C
100
AcDbEntity
  8
0
  6
ByLayer
 62
  256
370
   -1
100
AcDbLine
 10
0
 20
0
 11
0
 21
1910
  0
LINE
  5
11D
100
AcDbEntity
  8
0
  6
ByLayer
 62
  256
370
   -1
100
AcDbLine
 10
-930
 20
0
 11
-930
 21
1910
  0
LINE
  5
11E
100
AcDbEntity
  8
0
  6
ByLayer
 62
  256
370
   -1
100
AcDbLine
 10
0
 20
1885
 11
-955
 21
1885
  0
LINE
  5
11F
100
AcDbEntity
  8
0
  6
ByLayer
 62
  256
370
   -1
100
AcDbLine
 10
0
 20
25
 11
-955
 21
25
  0
LINE
  5
120
100
AcDbEntity
  8
0
  6
ByLayer
 62
  256
370
   -1
100
AcDbLine
 10
-25
 20
0
 11
-25
 21
1910
  0
LINE
  5
121
100
AcDbEntity
  8
0
  6
ByLayer
 62
  256
370
   -1
100
AcDbLine
 10
0
 20
955
 11
-25
 21
955
  0
LINE
  5
122
100
AcDbEntity
  8
0
  6
ByLayer
 62
  256
370
   -1
100
AcDbLine
 10
-930
 20
955
 11
-955
 21
955
  0
ENDBLK
  5
7E
330
7C
100
AcDbEntity
  8
0
100
AcDbBlockEnd
  0
BLOCK
  5
80
330
7F
100
AcDbEntity
  8
0
100
AcDbBlockBegin
  2
KyotoKyomaTatamiVertical-8
 70
    0
 10
0
 20
0
  3
KyotoKyomaTatamiVertical-8
  1

  0
LINE
  5
123
100
AcDbEntity
  8
0
  6
ByLayer
 62
  256
370
   -1
100
AcDbLine
 10
0
 20
0
 11
-955
 21
0
  0
LINE
  5
124
100
AcDbEntity
  8
0
  6
ByLayer
 62
  256
370
   -1
100
AcDbLine
 10
0
 20
1910
 11
-955
 21
1910
  0
LINE
  5
125
100
AcDbEntity
  8
0
  6
ByLayer
 62
  256
370
   -1
100
AcDbLine
 10
-955
 20
0
 11
-955
 21
1910
  0
LINE
  5
126
100
AcDbEntity
  8
0
  6
ByLayer
 62
  256
370
   -1
100
AcDbLine
 10
0
 20
0
 11
0
 21
1910
  0
LINE
  5
127
100
AcDbEntity
  8
0
  6
ByLayer
 62
  256
370
   -1
100
AcDbLine
 10
-930
 20
0
 11
-930
 21
1910
  0
LINE
  5
128
100
AcDbEntity
  8
0
  6
ByLayer
 62
  256
370
   -1
100
AcDbLine
 10
0
 20
1885
 11
-955
 21
1885
  0
LINE
  5
129
100
AcDbEntity
  8
0
  6
ByLayer
 62
  256
370
   -1
100
AcDbLine
 10
0
 20
25
 11
-955
 21
25
  0
LINE
  5
12A
100
AcDbEntity
  8
0
  6
ByLayer
 62
  256
370
   -1
100
AcDbLine
 10
-25
 20
0
 11
-25
 21
1910
  0
LINE
  5
12B
100
AcDbEntity
  8
0
  6
ByLayer
 62
  256
370
   -1
100
AcDbLine
 10
0
 20
955
 11
-25
 21
955
  0
LINE
  5
12C
100
AcDbEntity
  8
0
  6
ByLayer
 62
  256
370
   -1
100
AcDbLine
 10
-930
 20
955
 11
-955
 21
955
  0
ENDBLK
  5
81
330
7F
100
AcDbEntity
  8
0
100
AcDbBlockEnd
  0
BLOCK
  5
83
330
82
100
AcDbEntity
  8
0
100
AcDbBlockBegin
  2
KyotoKyomaTatamiHalf-0
 70
    0
 10
0
 20
0
  3
KyotoKyomaTatamiHalf-0
  1

  0
LINE
  5
12D
100
AcDbEntity
  8
0
  6
ByLayer
 62
  256
370
   -1
100
AcDbLine
 10
0
 20
955
 11
955
 21
955
  0
LINE
  5
12E
100
AcDbEntity
  8
0
  6
ByLayer
 62
  256
370
   -1
100
AcDbLine
 10
0
 20
0
 11
955
 21
0
  0
LINE
  5
12F
100
AcDbEntity
  8
0
  6
ByLayer
 62
  256
370
   -1
100
AcDbLine
 10
0
 20
0
 11
0
 21
955
  0
LINE
  5
130
100
AcDbEntity
  8
0
  6
ByLayer
 62
  256
370
   -1
100
AcDbLine
 10
955
 20
0
 11
955
 21
955
  0
LINE
  5
131
100
AcDbEntity
  8
0
  6
ByLayer
 62
  256
370
   -1
100
AcDbLine
 10
25
 20
0
 11
25
 21
955
  0
LINE
  5
132
100
AcDbEntity
  8
0
  6
ByLayer
 62
  256
370
   -1
100
AcDbLine
 10
0
 20
930
 11
955
 21
930
  0
LINE
  5
133
100
AcDbEntity
  8
0
  6
ByLayer
 62
  256
370
   -1
100
AcDbLine
 10
930
 20
0
 11
930
 21
955
  0
LINE
  5
134
100
AcDbEntity
  8
0
  6
ByLayer
 62
  256
370
   -1
100
AcDbLine
 10
0
 20
25
 11
955
 21
25
  0
ENDBLK
  5
84
330
82
100
AcDbEntity
  8
0
100
AcDbBlockEnd
  0
BLOCK
  5
86
330
85
100
AcDbEntity
  8
0
100
AcDbBlockBegin
  2
KyotoKyomaTatamiHalf-1
 70
    0
 10
0
 20
0
  3
KyotoKyomaTatamiHalf-1
  1

  0
LINE
  5
135
100
AcDbEntity
  8
0
  6
ByLayer
 62
  256
370
   -1
100
AcDbLine
 10
0
 20
955
 11
955
 21
955
  0
LINE
  5
136
100
AcDbEntity
  8
0
  6
ByLayer
 62
  256
370
   -1
100
AcDbLine
 10
0
 20
0
 11
955
 21
0
  0
LINE
  5
137
100
AcDbEntity
  8
0
  6
ByLayer
 62
  256
370
   -1
100
AcDbLine
 10
0
 20
0
 11
0
 21
955
  0
LINE
  5
138
100
AcDbEntity
  8
0
  6
ByLayer
 62
  256
370
   -1
100
AcDbLine
 10
955
 20
0
 11
955
 21
955
  0
LINE
  5
139
100
AcDbEntity
  8
0
  6
ByLayer
 62
  256
370
   -1
100
AcDbLine
 10
25
 20
0
 11
25
 21
955
  0
LINE
  5
13A
100
AcDbEntity
  8
0
  6
ByLayer
 62
  256
370
   -1
100
AcDbLine
 10
0
 20
930
 11
955
 21
930
  0
LINE
  5
13B
100
AcDbEntity
  8
0
  6
ByLayer
 62
  256
370
   -1
100
AcDbLine
 10
930
 20
0
 11
930
 21
955
  0
LINE
  5
13C
100
AcDbEntity
  8
0
  6
ByLayer
 62
  256
370
   -1
100
AcDbLine
 10
0
 20
25
 11
955
 21
25
  0
ENDBLK
  5
87
330
85
100
AcDbEntity
  8
0
100
AcDbBlockEnd
  0
BLOCK
  5
89
330
88
100
AcDbEntity
  8
0
100
AcDbBlockBegin
  2
KyotoKyomaTatamiHalf-2
 70
    0
 10
0
 20
0
  3
KyotoKyomaTatamiHalf-2
  1

  0
LINE
  5
13D
100
AcDbEntity
  8
0
  6
ByLayer
 62
  256
370
   -1
100
AcDbLine
 10
0
 20
955
 11
955
 21
955
  0
LINE
  5
13E
100
AcDbEntity
  8
0
  6
ByLayer
 62
  256
370
   -1
100
AcDbLine
 10
0
 20
0
 11
955
 21
0
  0
LINE
  5
13F
100
AcDbEntity
  8
0
  6
ByLayer
 62
  256
370
   -1
100
AcDbLine
 10
0
 20
0
 11
0
 21
955
  0
LINE
  5
140
100
AcDbEntity
  8
0
  6
ByLayer
 62
  256
370
   -1
100
AcDbLine
 10
955
 20
0
 11
955
 21
955
  0
LINE
  5
141
100
AcDbEntity
  8
0
  6
ByLayer
 62
  256
370
   -1
100
AcDbLine
 10
25
 20
0
 11
25
 21
955
  0
LINE
  5
142
100
AcDbEntity
  8
0
  6
ByLayer
 62
  256
370
   -1
100
AcDbLine
 10
0
 20
930
 11
955
 21
930
  0
LINE
  5
143
100
AcDbEntity
  8
0
  6
ByLayer
 62
  256
370
   -1
100
AcDbLine
 10
930
 20
0
 11
930
 21
955
  0
LINE
  5
144
100
AcDbEntity
  8
0
  6
ByLayer
 62
  256
370
   -1
100
AcDbLine
 10
0
 20
25
 11
955
 21
25
  0
ENDBLK
  5
8A
330
88
100
AcDbEntity
  8
0
100
AcDbBlockEnd
  0
BLOCK
  5
8C
330
8B
100
AcDbEntity
  8
0
100
AcDbBlockBegin
  2
KyotoKyomaTatamiHalf-3
 70
    0
 10
0
 20
0
  3
KyotoKyomaTatamiHalf-3
  1

  0
LINE
  5
145
100
AcDbEntity
  8
0
  6
ByLayer
 62
  256
370
   -1
100
AcDbLine
 10
0
 20
955
 11
955
 21
955
  0
LINE
  5
146
100
AcDbEntity
  8
0
  6
ByLayer
 62
  256
370
   -1
100
AcDbLine
 10
0
 20
0
 11
955
 21
0
  0
LINE
  5
147
100
AcDbEntity
  8
0
  6
ByLayer
 62
  256
370
   -1
100
AcDbLine
 10
0
 20
0
 11
0
 21
955
  0
LINE
  5
148
100
AcDbEntity
  8
0
  6
ByLayer
 62
  256
370
   -1
100
AcDbLine
 10
955
 20
0
 11
955
 21
955
  0
LINE
  5
149
100
AcDbEntity
  8
0
  6
ByLayer
 62
  256
370
   -1
100
AcDbLine
 10
25
 20
0
 11
25
 21
955
  0
LINE
  5
14A
100
AcDbEntity
  8
0
  6
ByLayer
 62
  256
370
   -1
100
AcDbLine
 10
0
 20
930
 11
955
 21
930
  0
LINE
  5
14B
100
AcDbEntity
  8
0
  6
ByLayer
 62
  256
370
   -1
100
AcDbLine
 10
930
 20
0
 11
930
 21
955
  0
LINE
  5
14C
100
AcDbEntity
  8
0
  6
ByLayer
 62
  256
370
   -1
100
AcDbLine
 10
0
 20
25
 11
955
 21
25
  0
ENDBLK
  5
8D
330
8B
100
AcDbEntity
  8
0
100
AcDbBlockEnd
  0
BLOCK
  5
8F
330
8E
100
AcDbEntity
  8
0
100
AcDbBlockBegin
  2
KyotoKyomaTatamiVertical-9
 70
    0
 10
0
 20
0
  3
KyotoKyomaTatamiVertical-9
  1

  0
LINE
  5
14D
100
AcDbEntity
  8
0
  6
ByLayer
 62
  256
370
   -1
100
AcDbLine
 10
0
 20
0
 11
-955
 21
0
  0
LINE
  5
14E
100
AcDbEntity
  8
0
  6
ByLayer
 62
  256
370
   -1
100
AcDbLine
 10
0
 20
1910
 11
-955
 21
1910
  0
LINE
  5
14F
100
AcDbEntity
  8
0
  6
ByLayer
 62
  256
370
   -1
100
AcDbLine
 10
-955
 20
0
 11
-955
 21
1910
  0
LINE
  5
150
100
AcDbEntity
  8
0
  6
ByLayer
 62
  256
370
   -1
100
AcDbLine
 10
0
 20
0
 11
0
 21
1910
  0
LINE
  5
151
100
AcDbEntity
  8
0
  6
ByLayer
 62
  256
370
   -1
100
AcDbLine
 10
-930
 20
0
 11
-930
 21
1910
  0
LINE
  5
152
100
AcDbEntity
  8
0
  6
ByLayer
 62
  256
370
   -1
100
AcDbLine
 10
0
 20
1885
 11
-955
 21
1885
  0
LINE
  5
153
100
AcDbEntity
  8
0
  6
ByLayer
 62
  256
370
   -1
100
AcDbLine
 10
0
 20
25
 11
-955
 21
25
  0
LINE
  5
154
100
AcDbEntity
  8
0
  6
ByLayer
 62
  256
370
   -1
100
AcDbLine
 10
-25
 20
0
 11
-25
 21
1910
  0
LINE
  5
155
100
AcDbEntity
  8
0
  6
ByLayer
 62
  256
370
   -1
100
AcDbLine
 10
0
 20
955
 11
-25
 21
955
  0
LINE
  5
156
100
AcDbEntity
  8
0
  6
ByLayer
 62
  256
370
   -1
100
AcDbLine
 10
-930
 20
955
 11
-955
 21
955
  0
ENDBLK
  5
90
330
8E
100
AcDbEntity
  8
0
100
AcDbBlockEnd
  0
BLOCK
  5
92
330
91
100
AcDbEntity
  8
0
100
AcDbBlockBegin
  2
KyotoKyomaTatami-0
 70
    0
 10
0
 20
0
  3
KyotoKyomaTatami-0
  1

  0
LINE
  5
157
100
AcDbEntity
  8
0
  6
ByLayer
 62
  256
370
   -1
100
AcDbLine
 10
0
 20
0
 11
0
 21
955
  0
LINE
  5
158
100
AcDbEntity
  8
0
  6
ByLayer
 62
  256
370
   -1
100
AcDbLine
 10
1910
 20
0
 11
1910
 21
955
  0
LINE
  5
159
100
AcDbEntity
  8
0
  6
ByLayer
 62
  256
370
   -1
100
AcDbLine
 10
0
 20
955
 11
1910
 21
955
  0
LINE
  5
15A
100
AcDbEntity
  8
0
  6
ByLayer
 62
  256
370
   -1
100
AcDbLine
 10
0
 20
0
 11
1910
 21
0
  0
LINE
  5
15B
100
AcDbEntity
  8
0
  6
ByLayer
 62
  256
370
   -1
100
AcDbLine
 10
0
 20
930
 11
1910
 21
930
  0
LINE
  5
15C
100
AcDbEntity
  8
0
  6
ByLayer
 62
  256
370
   -1
100
AcDbLine
 10
1885
 20
0
 11
1885
 21
955
  0
LINE
  5
15D
100
AcDbEntity
  8
0
  6
ByLayer
 62
  256
370
   -1
100
AcDbLine
 10
25
 20
0
 11
25
 21
955
  0
LINE
  5
15E
100
AcDbEntity
  8
0
  6
ByLayer
 62
  256
370
   -1
100
AcDbLine
 10
0
 20
25
 11
1910
 21
25
  0
LINE
  5
15F
100
AcDbEntity
  8
0
  6
ByLayer
 62
  256
370
   -1
100
AcDbLine
 10
955
 20
0
 11
955
 21
25
  0
LINE
  5
160
100
AcDbEntity
  8
0
  6
ByLayer
 62
  256
370
   -1
100
AcDbLine
 10
955
 20
930
 11
955
 21
955
  0
ENDBLK
  5
93
330
91
100
AcDbEntity
  8
0
100
AcDbBlockEnd
  0
BLOCK
  5
95
330
94
100
AcDbEntity
  8
0
100
AcDbBlockBegin
  2
KyotoKyomaTatami-1
 70
    0
 10
0
 20
0
  3
KyotoKyomaTatami-1
  1

  0
LINE
  5
161
100
AcDbEntity
  8
0
  6
ByLayer
 62
  256
370
   -1
100
AcDbLine
 10
0
 20
0
 11
0
 21
955
  0
LINE
  5
162
100
AcDbEntity
  8
0
  6
ByLayer
 62
  256
370
   -1
100
AcDbLine
 10
1910
 20
0
 11
1910
 21
955
  0
LINE
  5
163
100
AcDbEntity
  8
0
  6
ByLayer
 62
  256
370
   -1
100
AcDbLine
 10
0
 20
955
 11
1910
 21
955
  0
LINE
  5
164
100
AcDbEntity
  8
0
  6
ByLayer
 62
  256
370
   -1
100
AcDbLine
 10
0
 20
0
 11
1910
 21
0
  0
LINE
  5
165
100
AcDbEntity
  8
0
  6
ByLayer
 62
  256
370
   -1
100
AcDbLine
 10
0
 20
930
 11
1910
 21
930
  0
LINE
  5
166
100
AcDbEntity
  8
0
  6
ByLayer
 62
  256
370
   -1
100
AcDbLine
 10
1885
 20
0
 11
1885
 21
955
  0
LINE
  5
167
100
AcDbEntity
  8
0
  6
ByLayer
 62
  256
370
   -1
100
AcDbLine
 10
25
 20
0
 11
25
 21
955
  0
LINE
  5
168
100
AcDbEntity
  8
0
  6
ByLayer
 62
  256
370
   -1
100
AcDbLine
 10
0
 20
25
 11
1910
 21
25
  0
LINE
  5
169
100
AcDbEntity
  8
0
  6
ByLayer
 62
  256
370
   -1
100
AcDbLine
 10
955
 20
0
 11
955
 21
25
  0
LINE
  5
16A
100
AcDbEntity
  8
0
  6
ByLayer
 62
  256
370
   -1
100
AcDbLine
 10
955
 20
930
 11
955
 21
955
  0
ENDBLK
  5
96
330
94
100
AcDbEntity
  8
0
100
AcDbBlockEnd
  0
BLOCK
  5
98
330
97
100
AcDbEntity
  8
0
100
AcDbBlockBegin
  2
washer_Hor-0
 70
    0
 10
0
 20
0
  3
washer_Hor-0
  1

  0
LINE
  5
16B
100
AcDbEntity
  8
0
  6
ByLayer
 62
  256
370
   -1
100
AcDbLine
 10
520
 20
0
 11
520
 21
550
  0
LINE
  5
16C
100
AcDbEntity
  8
0
  6
ByLayer
 62
  256
370
   -1
100
AcDbLine
 10
0
 20
0
 11
0
 21
550
  0
LINE
  5
16D
100
AcDbEntity
  8
0
  6
ByLayer
 62
  256
370
   -1
100
AcDbLine
 10
0
 20
550
 11
520
 21
550
  0
LINE
  5
16E
100
AcDbEntity
  8
0
  6
ByLayer
 62
  256
370
   -1
100
AcDbLine
 10
0
 20
0
 11
520
 21
0
  0
CIRCLE
  5
16F
100
AcDbEntity
  8
0
  6
ByLayer
 62
  256
370
   -1
100
AcDbCircle
 10
260
 20
275
 40
190.24749449
  0
LINE
  5
170
100
AcDbEntity
  8
0
  6
ByLayer
 62
  256
370
   -1
100
AcDbLine
 10
0
 20
50
 11
520
 21
50
  0
ENDBLK
  5
99
330
97
100
AcDbEntity
  8
0
100
AcDbBlockEnd
  0
BLOCK
  5
9B
330
9A
100
AcDbEntity
  8
0
100
AcDbBlockBegin
  2
washer_Hor-1
 70
    0
 10
0
 20
0
  3
washer_Hor-1
  1

  0
LINE
  5
171
100
AcDbEntity
  8
0
  6
ByLayer
 62
  256
370
   -1
100
AcDbLine
 10
520
 20
0
 11
520
 21
550
  0
LINE
  5
172
100
AcDbEntity
  8
0
  6
ByLayer
 62
  256
370
   -1
100
AcDbLine
 10
0
 20
0
 11
0
 21
550
  0
LINE
  5
173
100
AcDbEntity
  8
0
  6
ByLayer
 62
  256
370
   -1
100
AcDbLine
 10
0
 20
550
 11
520
 21
550
  0
LINE
  5
174
100
AcDbEntity
  8
0
  6
ByLayer
 62
  256
370
   -1
100
AcDbLine
 10
0
 20
0
 11
520
 21
0
  0
CIRCLE
  5
175
100
AcDbEntity
  8
0
  6
ByLayer
 62
  256
370
   -1
100
AcDbCircle
 10
260
 20
275
 40
190.24749449
  0
LINE
  5
176
100
AcDbEntity
  8
0
  6
ByLayer
 62
  256
370
   -1
100
AcDbLine
 10
0
 20
50
 11
520
 21
50
  0
ENDBLK
  5
9C
330
9A
100
AcDbEntity
  8
0
100
AcDbBlockEnd
  0
BLOCK
  5
9E
330
9D
100
AcDbEntity
  8
0
100
AcDbBlockBegin
  2
refridge500_600_verRight-0
 70
    0
 10
0
 20
0
  3
refridge500_600_verRight-0
  1

  0
LINE
  5
177
100
AcDbEntity
  8
0
  6
ByLayer
 62
  256
370
   -1
100
AcDbLine
 10
0
 20
0
 11
550
 21
0
  0
LINE
  5
178
100
AcDbEntity
  8
0
  6
ByLayer
 62
  256
370
   -1
100
AcDbLine
 10
0
 20
-600
 11
550
 21
-600
  0
LINE
  5
179
100
AcDbEntity
  8
0
  6
ByLayer
 62
  256
370
   -1
100
AcDbLine
 10
500
 20
0
 11
500
 21
-600
  0
LINE
  5
17A
100
AcDbEntity
  8
0
  6
ByLayer
 62
  256
370
   -1
100
AcDbLine
 10
0
 20
0
 11
0
 21
-600
  0
ARC
  5
17B
100
AcDbEntity
  8
0
  6
ByLayer
 62
  256
370
   -1
100
AcDbCircle
 10
-689.692211372
 20
-300
 40
1275.4751189
100
AcDbArc
 50
346.396206231
 51
13.603793769
  0
LINE
  5
17C
100
AcDbEntity
  8
0
  6
ByLayer
 62
  256
370
   -1
100
AcDbLine
 10
510
 20
0
 11
510
 21
-600
  0
MTEXT
  5
17D
100
AcDbEntity
  8
0
  6
ByLayer
 62
  256
370
   -1
100
AcDbMText
 10
266.901409432
 20
-24.0279179021
 30
0
 40
200
 41
533.3333333333333
 71
    4
 72
    5
  1
Refr
  7
iso
210
0
220
0
230
1
 50
270
 73
    1
 44
0.96
  0
ENDBLK
  5
9F
330
9D
100
AcDbEntity
  8
0
100
AcDbBlockEnd
  0
BLOCK
  5
A1
330
A0
100
AcDbEntity
  8
0
100
AcDbBlockBegin
  2
Standard40ft12m_withIntwall-0
 70
    0
 10
0
 20
0
  3
Standard40ft12m_withIntwall-0
  1

  0
LINE
  5
17E
100
AcDbEntity
  8
0
  6
ByLayer
 62
  256
370
   -1
100
AcDbLine
 10
94
 20
94
 11
94
 21
2346
  0
LINE
  5
17F
100
AcDbEntity
  8
0
  6
ByLayer
 62
  256
370
   -1
100
AcDbLine
 10
94
 20
94
 11
12076
 21
94
  0
LINE
  5
180
100
AcDbEntity
  8
0
  6
ByLayer
 62
  256
370
   -1
100
AcDbLine
 10
44
 20
44
 11
44
 21
2396
  0
LINE
  5
181
100
AcDbEntity
  8
0
  6
ByLayer
 62
  256
370
   -1
100
AcDbLine
 10
0
 20
0
 11
0
 21
2440
  0
LINE
  5
182
100
AcDbEntity
  8
0
  6
ByLayer
 62
  256
370
   -1
100
AcDbLine
 10
0
 20
0
 11
12200
 21
0
  0
LINE
  5
183
100
AcDbEntity
  8
0
  6
ByLayer
 62
  256
370
   -1
100
AcDbLine
 10
44
 20
44
 11
12200
 21
44
  0
LINE
  5
184
100
AcDbEntity
  8
0
  6
ByLayer
 62
  256
370
   -1
100
AcDbLine
 10
12200
 20
2390
 11
13370
 21
2390
  0
LINE
  5
185
100
AcDbEntity
  8
0
  6
ByLayer
 62
  256
370
   -1
100
AcDbLine
 10
12200
 20
50
 11
13370
 21
50
  0
LINE
  5
186
100
AcDbEntity
  8
0
  6
ByLayer
 62
  256
370
   -1
100
AcDbLine
 10
12200
 20
2434
 11
13370
 21
2434
  0
LINE
  5
187
100
AcDbEntity
  8
0
  6
ByLayer
 62
  256
370
   -1
100
AcDbLine
 10
12200
 20
6
 11
13370
 21
6
  0
LINE
  5
188
100
AcDbEntity
  8
0
  6
ByLayer
 62
  256
370
   -1
100
AcDbLine
 10
13370
 20
50
 11
13370
 21
2390
  0
LINE
  5
189
100
AcDbEntity
  8
0
  6
ByLayer
 62
  256
370
   -1
100
AcDbLine
 10
12076
 20
44
 11
12076
 21
2396
  0
LINE
  5
18A
100
AcDbEntity
  8
0
  6
ByLayer
 62
  256
370
   -1
100
AcDbLine
 10
12200
 20
0
 11
12200
 21
2440
  0
LINE
  5
18B
100
AcDbEntity
  8
0
  6
ByLayer
 62
  256
370
   -1
100
AcDbLine
 10
94
 20
2346
 11
12076
 21
2346
  0
LINE
  5
18C
100
AcDbEntity
  8
0
  6
ByLayer
 62
  256
370
   -1
100
AcDbLine
 10
0
 20
2440
 11
12200
 21
2440
  0
LINE
  5
18D
100
AcDbEntity
  8
0
  6
ByLayer
 62
  256
370
   -1
100
AcDbLine
 10
44
 20
2396
 11
12200
 21
2396
  0
ENDBLK
  5
A2
330
A0
100
AcDbEntity
  8
0
100
AcDbBlockEnd
  0
BLOCK
  5
A4
330
A3
100
AcDbEntity
  8
0
100
AcDbBlockBegin
  2
jtub
 70
    0
 10
0
 20
0
  3
jtub
  1

  0
INSERT
  5
18E
100
AcDbEntity
  8
fixtures
  6
ByLayer
 62
  256
370
   -1
100
AcDbBlockReference
  2
tub_ver-0
 10
89.9985784502
 20
870.630897716
 30
0
 41
1
 42
1
 43
0
 50
0
 70
    1
 71
    1
 44
0
 45
0
  0
LINE
  5
18F
100
AcDbEntity
  8
fixtures
  6
ByLayer
 62
  256
370
   -1
100
AcDbLine
 10
759.99857845
 20
0.630897714578
 11
759.99857845
 21
870.630897716
  0
ARC
  5
190
100
AcDbEntity
  8
fixtures
  6
ByLayer
 62
  256
370
   -1
100
AcDbCircle
 10
619.99857845
 20
870.630897716
 40
140
100
AcDbArc
 50
0
 51
90
  0
ARC
  5
191
100
AcDbEntity
  8
fixtures
  6
ByLayer
 62
  256
370
   -1
100
AcDbCircle
 10
619.99857845
 20
0.630897714578
 40
140
100
AcDbArc
 50
270
 51
0
  0
LINE
  5
192
100
AcDbEntity
  8
fixtures
  6
ByLayer
 62
  256
370
   -1
100
AcDbLine
 10
139.99857845
 20
-139.369102285
 11
619.99857845
 21
-139.369102285
  0
ARC
  5
193
100
AcDbEntity
  8
fixtures
  6
ByLayer
 62
  256
370
   -1
100
AcDbCircle
 10
139.99857845
 20
0.630897714578
 40
140
100
AcDbArc
 50
180
 51
270
  0
ARC
  5
194
100
AcDbEntity
  8
fixtures
  6
ByLayer
 62
  256
370
   -1
100
AcDbCircle
 10
139.99857845
 20
870.630897716
 40
140
100
AcDbArc
 50
90
 51
180
  0
LINE
  5
195
100
AcDbEntity
  8
fixtures
  6
ByLayer
 62
  256
370
   -1
100
AcDbLine
 10
139.99857845
 20
1010.63089772
 11
619.99857845
 21
1010.63089772
  0
LINE
  5
196
100
AcDbEntity
  8
fixtures
  6
ByLayer
 62
  256
370
   -1
100
AcDbLine
 10
-0.00142154981094
 20
870.630897716
 11
0
 21
0
  0
ENDBLK
  5
A5
330
A3
100
AcDbEntity
  8
0
100
AcDbBlockEnd
  0
BLOCK
  5
A7
330
A6
100
AcDbEntity
  8
0
100
AcDbBlockBegin
  2
110hordwn
 70
    0
 10
0
 20
0
  3
110hordwn
  1

  0
CIRCLE
  5
197
100
AcDbEntity
  8
eletrical
  6
ByLayer
 62
  256
370
   -1
100
AcDbCircle
 10
-19.2383306793
 20
-93.1569229908
 40
50
  0
LINE
  5
198
100
AcDbEntity
  8
eletrical
  6
ByLayer
 62
  256
370
   -1
100
AcDbLine
 10
-36.2896076697
 20
0
 11
-36.2896076697
 21
-161.186024643
  0
LINE
  5
199
100
AcDbEntity
  8
eletrical
  6
ByLayer
 62
  256
370
   -1
100
AcDbLine
 10
0
 20
0
 11
0
 21
-161.186024643
  0
ENDBLK
  5
A8
330
A6
100
AcDbEntity
  8
0
100
AcDbBlockEnd
  0
BLOCK
  5
AA
330
A9
100
AcDbEntity
  8
0
100
AcDbBlockBegin
  2
outlet220HorDwn
 70
    0
 10
0
 20
0
  3
outlet220HorDwn
  1

  0
CIRCLE
  5
19A
100
AcDbEntity
  8
eletrical
  6
ByLayer
 62
  256
370
   -1
100
AcDbCircle
 10
-2.2383306793
 20
-93.1569229908
 40
50
  0
LINE
  5
19B
100
AcDbEntity
  8
eletrical
  6
ByLayer
 62
  256
370
   -1
100
AcDbLine
 10
-19.2896076697
 20
0
 11
-19.2896076697
 21
-161.186024643
  0
LINE
  5
19C
100
AcDbEntity
  8
eletrical
  6
ByLayer
 62
  256
370
   -1
100
AcDbLine
 10
17
 20
0
 11
17
 21
-161.186024643
  0
LINE
  5
19D
100
AcDbEntity
  8
eletrical
  6
ByLayer
 62
  256
370
   -1
100
AcDbLine
 10
2.84217094304e-14
 20
0
 11
0
 21
-161.186024643
  0
ENDBLK
  5
AB
330
A9
100
AcDbEntity
  8
0
100
AcDbBlockEnd
  0
BLOCK
  5
AD
330
AC
100
AcDbEntity
  8
0
100
AcDbBlockBegin
  2
outlet220HorUp
 70
    0
 10
0
 20
0
  3
outlet220HorUp
  1

  0
CIRCLE
  5
19E
100
AcDbEntity
  8
eletrical
  6
ByLayer
 62
  256
370
   -1
100
AcDbCircle
 10
2.2383306793
 20
93.1569229908
 40
50
  0
LINE
  5
19F
100
AcDbEntity
  8
eletrical
  6
ByLayer
 62
  256
370
   -1
100
AcDbLine
 10
19.2896076697
 20
0
 11
19.2896076697
 21
161.186024643
  0
LINE
  5
1A0
100
AcDbEntity
  8
eletrical
  6
ByLayer
 62
  256
370
   -1
100
AcDbLine
 10
-17
 20
0
 11
-17
 21
161.186024643
  0
LINE
  5
1A1
100
AcDbEntity
  8
eletrical
  6
ByLayer
 62
  256
370
   -1
100
AcDbLine
 10
0
 20
0
 11
5.68434188608e-14
 21
161.186024643
  0
ENDBLK
  5
AE
330
AC
100
AcDbEntity
  8
0
100
AcDbBlockEnd
  0
BLOCK
  5
B0
330
AF
100
AcDbEntity
  8
0
100
AcDbBlockBegin
  2
outlet110VertLeft
 70
    0
 10
0
 20
0
  3
outlet110VertLeft
  1

  0
CIRCLE
  5
1A2
100
AcDbEntity
  8
eletrical
  6
ByLayer
 62
  256
370
   -1
100
AcDbCircle
 10
-93.1569229908
 20
19.2383306793
 40
50
  0
LINE
  5
1A3
100
AcDbEntity
  8
eletrical
  6
ByLayer
 62
  256
370
   -1
100
AcDbLine
 10
0
 20
36.2896076697
 11
-161.186024643
 21
36.2896076697
  0
LINE
  5
1A4
100
AcDbEntity
  8
eletrical
  6
ByLayer
 62
  256
370
   -1
100
AcDbLine
 10
0
 20
0
 11
-161.186024643
 21
0
  0
ENDBLK
  5
B1
330
AF
100
AcDbEntity
  8
0
100
AcDbBlockEnd
  0
BLOCK
  5
B3
330
B2
100
AcDbEntity
  8
0
100
AcDbBlockBegin
  2
outlet220VerLeft
 70
    0
 10
0
 20
0
  3
outlet220VerLeft
  1

  0
CIRCLE
  5
1A5
100
AcDbEntity
  8
eletrical
  6
ByLayer
 62
  256
370
   -1
100
AcDbCircle
 10
-93.1569229908
 20
2.2383306793
 40
50
  0
LINE
  5
1A6
100
AcDbEntity
  8
eletrical
  6
ByLayer
 62
  256
370
   -1
100
AcDbLine
 10
0
 20
19.2896076697
 11
-161.186024643
 21
19.2896076697
  0
LINE
  5
1A7
100
AcDbEntity
  8
eletrical
  6
ByLayer
 62
  256
370
   -1
100
AcDbLine
 10
0
 20
-17
 11
-161.186024643
 21
-17
  0
LINE
  5
1A8
100
AcDbEntity
  8
eletrical
  6
ByLayer
 62
  256
370
   -1
100
AcDbLine
 10
0
 20
0
 11
-161.186024643
 21
0
  0
ENDBLK
  5
B4
330
B2
100
AcDbEntity
  8
0
100
AcDbBlockEnd
  0
BLOCK
  5
B6
330
B5
100
AcDbEntity
  8
0
100
AcDbBlockBegin
  2
outlet220VerRight
 70
    0
 10
0
 20
0
  3
outlet220VerRight
  1

  0
CIRCLE
  5
1A9
100
AcDbEntity
  8
eletrical
  6
ByLayer
 62
  256
370
   -1
100
AcDbCircle
 10
93.1569229908
 20
-2.2383306793
 40
50
  0
LINE
  5
1AA
100
AcDbEntity
  8
eletrical
  6
ByLayer
 62
  256
370
   -1
100
AcDbLine
 10
0
 20
-19.2896076697
 11
161.186024643
 21
-19.2896076697
  0
LINE
  5
1AB
100
AcDbEntity
  8
eletrical
  6
ByLayer
 62
  256
370
   -1
100
AcDbLine
 10
0
 20
17
 11
161.186024643
 21
17
  0
LINE
  5
1AC
100
AcDbEntity
  8
eletrical
  6
ByLayer
 62
  256
370
   -1
100
AcDbLine
 10
0
 20
0
 11
161.186024643
 21
0
  0
ENDBLK
  5
B7
330
B5
100
AcDbEntity
  8
0
100
AcDbBlockEnd
  0
BLOCK
  5
B9
330
B8
100
AcDbEntity
  8
0
100
AcDbBlockBegin
  2
outlet110VerRight
 70
    0
 10
0
 20
0
  3
outlet110VerRight
  1

  0
CIRCLE
  5
1AD
100
AcDbEntity
  8
eletrical
  6
ByLayer
 62
  256
370
   -1
100
AcDbCircle
 10
93.1569229908
 20
-19.2383306793
 40
50
  0
LINE
  5
1AE
100
AcDbEntity
  8
eletrical
  6
ByLayer
 62
  256
370
   -1
100
AcDbLine
 10
0
 20
-36.2896076697
 11
161.186024643
 21
-36.2896076697
  0
LINE
  5
1AF
100
AcDbEntity
  8
eletrical
  6
ByLayer
 62
  256
370
   -1
100
AcDbLine
 10
0
 20
0
 11
161.186024643
 21
0
  0
ENDBLK
  5
BA
330
B8
100
AcDbEntity
  8
0
100
AcDbBlockEnd
  0
ENDSEC
  0
SECTION
  2
ENTITIES
  0
LINE
  5
1B0
100
AcDbEntity
  8
0
  6
ByLayer
 62
  256
370
   -1
100
AcDbLine
 10
71.31628207280001
 20
-1619.77542904
 11
71.31628207280001
 21
632.224570964
  0
LINE
  5
1B1
100
AcDbEntity
  8
0
  6
ByLayer
 62
  256
370
   -1
100
AcDbLine
 10
71.31628207280001
 20
-1619.77542904
 11
12053.3162821
 21
-1619.77542904
  0
LINE
  5
1B2
100
AcDbEntity
  8
container
  6
ByLayer
 62
  256
370
   -1
100
AcDbLine
 10
21.3162820728
 20
-1669.77542904
 11
21.3162820728
 21
682.224570964
  0
LINE
  5
1B3
100
AcDbEntity
  8
container
  6
ByLayer
 62
  256
370
   -1
100
AcDbLine
 10
-22.6837179272
 20
-1713.77542904
 11
-22.6837179272
 21
726.224570964
  0
LINE
  5
1B4
100
AcDbEntity
  8
container
  6
ByLayer
 62
  256
370
   -1
100
AcDbLine
 10
-22.6837179272
 20
-1713.77542904
 11
12177.3162821
 21
-1713.77542904
  0
LINE
  5
1B5
100
AcDbEntity
  8
container
  6
ByLayer
 62
  256
370
   -1
100
AcDbLine
 10
21.3162820728
 20
-1669.77542904
 11
12177.3162821
 21
-1669.77542904
  0
LINE
  5
1B6
100
AcDbEntity
  8
0
  6
ByLayer
 62
  256
370
   -1
100
AcDbLine
 10
71.31628207280001
 20
-167.775429036
 11
1771.31628207
 21
-167.775429036
  0
LINE
  5
1B7
100
AcDbEntity
  8
0
  6
ByLayer
 62
  256
370
   -1
100
AcDbLine
 10
71.31628207280001
 20
-217.775429036
 11
1771.31628207
 21
-217.775429036
  0
LINE
  5
1B8
100
AcDbEntity
  8
0
  6
ByLayer
 62
  256
370
   -1
100
AcDbLine
 10
3061.31628207
 20
-1619.77542904
 11
3061.31628207
 21
632.224570964
  0
LINE
  5
1B9
100
AcDbEntity
  8
0
  6
ByLayer
 62
  256
370
   -1
100
AcDbLine
 10
3111.31628207
 20
-1619.77542904
 11
3111.31628207
 21
632.224570964
  0
LINE
  5
1BA
100
AcDbEntity
  8
0
  6
ByLayer
 62
  256
370
   -1
100
AcDbLine
 10
1771.31628207
 20
607.224570964
 11
1821.31628207
 21
607.224570964
  0
LINE
  5
1BB
100
AcDbEntity
  8
0
  6
ByLayer
 62
  256
370
   -1
100
AcDbLine
 10
1771.31628207
 20
-102.775429036
 11
1821.31628207
 21
-102.775429036
  0
LINE
  5
1BC
100
AcDbEntity
  8
0
  6
ByLayer
 62
  256
370
   -1
100
AcDbLine
 10
1771.31628207
 20
607.224570964
 11
1771.31628207
 21
632.224570964
  0
LINE
  5
1BD
100
AcDbEntity
  8
0
  6
ByLayer
 62
  256
370
   -1
100
AcDbLine
 10
1821.31628207
 20
607.224570964
 11
1821.31628207
 21
632.224570964
  0
LINE
  5
1BE
100
AcDbEntity
  8
0
  6
ByLayer
 62
  256
370
   -1
100
AcDbLine
 10
1771.31628207
 20
-242.775429036
 11
1821.31628207
 21
-242.775429036
  0
LINE
  5
1BF
100
AcDbEntity
  8
0
  6
ByLayer
 62
  256
370
   -1
100
AcDbLine
 10
1771.31628207
 20
-1042.77542904
 11
1821.31628207
 21
-1042.77542904
  0
LINE
  5
1C0
100
AcDbEntity
  8
0
  6
ByLayer
 62
  256
370
   -1
100
AcDbLine
 10
1821.31628207
 20
-242.775429036
 11
1821.31628207
 21
-102.775429036
  0
LINE
  5
1C1
100
AcDbEntity
  8
0
  6
ByLayer
 62
  256
370
   -1
100
AcDbLine
 10
1771.31628207
 20
-242.775429036
 11
1771.31628207
 21
-102.775429036
  0
LINE
  5
1C2
100
AcDbEntity
  8
0
  6
ByLayer
 62
  256
370
   -1
100
AcDbLine
 10
1821.31628207
 20
-1619.77542904
 11
1821.31628207
 21
-1042.77542904
  0
LINE
  5
1C3
100
AcDbEntity
  8
0
  6
ByLayer
 62
  256
370
   -1
100
AcDbLine
 10
1771.31628207
 20
-1619.77542904
 11
1771.31628207
 21
-1042.77542904
  0
LINE
  5
1C4
100
AcDbEntity
  8
container
  6
ByLayer
 62
  256
370
   -1
100
AcDbLine
 10
-22.6837179272
 20
726.224570964
 11
2111.31628207
 21
726.224570964
  0
LINE
  5
1C5
100
AcDbEntity
  8
container
  6
ByLayer
 62
  256
370
   -1
100
AcDbLine
 10
21.3162820728
 20
682.224570964
 11
2111.31628207
 21
682.224570964
  0
LINE
  5
1C6
100
AcDbEntity
  8
0
  6
ByLayer
 62
  256
370
   -1
100
AcDbLine
 10
71.31628207280001
 20
632.224570964
 11
2111.31628207
 21
632.224570964
  0
LINE
  5
1C7
100
AcDbEntity
  8
0
  6
ByLayer
 62
  256
370
   -1
100
AcDbLine
 10
7511.31628207
 20
-1619.77542904
 11
7511.31628207
 21
632.224570964
  0
LINE
  5
1C8
100
AcDbEntity
  8
0
  6
ByLayer
 62
  256
370
   -1
100
AcDbLine
 10
8311.31628207
 20
-1619.77542904
 11
8311.31628207
 21
632.224570964
  0
LINE
  5
1C9
100
AcDbEntity
  8
0
  6
ByLayer
 62
  256
370
   -1
100
AcDbLine
 10
8361.31628207
 20
-1619.77542904
 11
8361.31628207
 21
632.224570964
  0
LINE
  5
1CA
100
AcDbEntity
  8
container
  6
ByLayer
 62
  256
370
   -1
100
AcDbLine
 10
12177.3162821
 20
676.224570964
 11
13347.3162821
 21
676.224570964
  0
LINE
  5
1CB
100
AcDbEntity
  8
container
  6
ByLayer
 62
  256
370
   -1
100
AcDbLine
 10
12177.3162821
 20
-1663.77542904
 11
13347.3162821
 21
-1663.77542904
  0
LINE
  5
1CC
100
AcDbEntity
  8
container
  6
ByLayer
 62
  256
370
   -1
100
AcDbLine
 10
12177.3162821
 20
720.224570964
 11
13347.3162821
 21
720.224570964
  0
LINE
  5
1CD
100
AcDbEntity
  8
container
  6
ByLayer
 62
  256
370
   -1
100
AcDbLine
 10
12177.3162821
 20
-1707.77542904
 11
13347.3162821
 21
-1707.77542904
  0
LINE
  5
1CE
100
AcDbEntity
  8
container
  6
ByLayer
 62
  256
370
   -1
100
AcDbLine
 10
13347.3162821
 20
676.224570964
 11
13347.3162821
 21
720.224570964
  0
LINE
  5
1CF
100
AcDbEntity
  8
container
  6
ByLayer
 62
  256
370
   -1
100
AcDbLine
 10
13347.3162821
 20
-1707.77542904
 11
13347.3162821
 21
-1663.77542904
  0
LINE
  5
1D0
100
AcDbEntity
  8
0
  6
ByLayer
 62
  256
370
   -1
100
AcDbLine
 10
13347.3162821
 20
-1663.77542904
 11
13347.3162821
 21
676.224570964
  0
LINE
  5
1D1
100
AcDbEntity
  8
container
  6
ByLayer
 62
  256
370
   -1
100
AcDbLine
 10
3011.31628207
 20
682.224570964
 11
3011.31628207
 21
726.224570964
  0
LINE
  5
1D2
100
AcDbEntity
  8
container
  6
ByLayer
 62
  256
370
   -1
100
AcDbLine
 10
2111.31628207
 20
682.224570964
 11
2111.31628207
 21
726.224570964
  0
LINE
  5
1D3
100
AcDbEntity
  8
0
  6
ByLayer
 62
  256
370
   -1
100
AcDbLine
 10
2111.31628207
 20
632.224570964
 11
2111.31628207
 21
682.224570964
  0
LINE
  5
1D4
100
AcDbEntity
  8
0
  6
ByLayer
 62
  256
370
   -1
100
AcDbLine
 10
3011.31628207
 20
632.224570964
 11
3011.31628207
 21
682.224570964
  0
LINE
  5
1D5
100
AcDbEntity
  8
container
  6
ByLayer
 62
  256
370
   -1
100
AcDbLine
 10
3011.31628207
 20
726.224570964
 11
3911.31628207
 21
726.224570964
  0
LINE
  5
1D6
100
AcDbEntity
  8
container
  6
ByLayer
 62
  256
370
   -1
100
AcDbLine
 10
3011.31628207
 20
682.224570964
 11
3911.31628207
 21
682.224570964
  0
LINE
  5
1D7
100
AcDbEntity
  8
0
  6
ByLayer
 62
  256
370
   -1
100
AcDbLine
 10
3011.31628207
 20
632.224570964
 11
3911.31628207
 21
632.224570964
  0
INSERT
  5
1D8
100
AcDbEntity
  8
eletrical
  6
ByLayer
 62
  256
370
   -1
100
AcDbBlockReference
  2
outlet110HorUp-0
 10
449.090506441
 20
-167.775429036
 30
0
 41
1
 42
1
 43
0
 50
0
 70
    1
 71
    1
 44
0
 45
0
  0
INSERT
  5
1D9
100
AcDbEntity
  8
doors
  6
ByLayer
 62
  256
370
   -1
100
AcDbBlockReference
  2
door700VerLeft-1
 10
1771.31628207
 20
607.224570964
 30
0
 41
1
 42
1
 43
0
 50
0
 70
    1
 71
    1
 44
0
 45
0
  0
INSERT
  5
1DA
100
AcDbEntity
  8
doors
  6
ByLayer
 62
  256
370
   -1
100
AcDbBlockReference
  2
door800VerLeft-0
 10
1771.31628207
 20
-242.775429036
 30
0
 41
1
 42
1
 43
0
 50
0
 70
    1
 71
    1
 44
0
 45
0
  0
INSERT
  5
1DB
100
AcDbEntity
  8
tatami
  6
ByLayer
 62
  256
370
   -1
100
AcDbBlockReference
  2
KyotoKyomaTatamiVertical-8
 10
4356.31628207
 20
-1448.77542904
 30
0
 41
1
 42
1
 43
0
 50
0
 70
    1
 71
    1
 44
0
 45
0
  0
INSERT
  5
1DC
100
AcDbEntity
  8
tatami
  6
ByLayer
 62
  256
370
   -1
100
AcDbBlockReference
  2
KyotoKyomaTatamiVertical-9
 10
7221.31628207
 20
-1448.77542904
 30
0
 41
1
 42
1
 43
0
 50
0
 70
    1
 71
    1
 44
0
 45
0
  0
INSERT
  5
1DD
100
AcDbEntity
  8
tatami
  6
ByLayer
 62
  256
370
   -1
100
AcDbBlockReference
  2
KyotoKyomaTatami-0
 10
4356.31628207
 20
-1448.77542904
 30
0
 41
1
 42
1
 43
0
 50
0
 70
    1
 71
    1
 44
0
 45
0
  0
INSERT
  5
1DE
100
AcDbEntity
  8
tatami
  6
ByLayer
 62
  256
370
   -1
100
AcDbBlockReference
  2
KyotoKyomaTatami-1
 10
4356.31628207
 20
-493.77542904
 30
0
 41
1
 42
1
 43
0
 50
0
 70
    1
 71
    1
 44
0
 45
0
  0
INSERT
  5
1DF
100
AcDbEntity
  8
fixtures
  6
ByLayer
 62
  256
370
   -1
100
AcDbBlockReference
  2
refridge500_600_verRight-0
 10
8391.31628207
 20
602.224570964
 30
0
 41
1
 42
1
 43
0
 50
0
 70
    1
 71
    1
 44
0
 45
0
  0
LINE
  5
1E0
100
AcDbEntity
  8
cabinates
  6
ByLayer
 62
  256
370
   -1
100
AcDbLine
 10
8361.31628207
 20
-47.775429036
 11
9011.31628207
 21
-47.775429036
  0
LINE
  5
1E1
100
AcDbEntity
  8
cabinates
  6
ByLayer
 62
  256
370
   -1
100
AcDbLine
 10
9011.31628207
 20
-1619.77542904
 11
9011.31628207
 21
-47.775429036
  0
LINE
  5
1E2
100
AcDbEntity
  8
cabinates
  6
ByLayer
 62
  256
370
   -1
100
AcDbLine
 10
9911.31628207
 20
-1619.77542904
 11
9911.31628207
 21
-47.775429036
  0
LINE
  5
1E3
100
AcDbEntity
  8
cabinates
  6
ByLayer
 62
  256
370
   -1
100
AcDbLine
 10
10561.3162821
 20
-1619.77542904
 11
10561.3162821
 21
-47.775429036
  0
LINE
  5
1E4
100
AcDbEntity
  8
cabinates
  6
ByLayer
 62
  256
370
   -1
100
AcDbLine
 10
9911.31628207
 20
-47.775429036
 11
10561.3162821
 21
-47.775429036
  0
LINE
  5
1E5
100
AcDbEntity
  8
0
  6
ByLayer
 62
  256
370
   -1
100
AcDbLine
 10
11753.3162821
 20
632.224570964
 11
11753.3162821
 21
682.224570964
  0
LINE
  5
1E6
100
AcDbEntity
  8
container
  6
ByLayer
 62
  256
370
   -1
100
AcDbLine
 10
11753.3162821
 20
682.224570964
 11
11753.3162821
 21
726.224570964
  0
LINE
  5
1E7
100
AcDbEntity
  8
container
  6
ByLayer
 62
  256
370
   -1
100
AcDbLine
 10
10033.3162821
 20
682.224570964
 11
10033.3162821
 21
726.224570964
  0
LINE
  5
1E8
100
AcDbEntity
  8
0
  6
ByLayer
 62
  256
370
   -1
100
AcDbLine
 10
10033.3162821
 20
632.224570964
 11
10033.3162821
 21
682.224570964
  0
LINE
  5
1E9
100
AcDbEntity
  8
container
  6
ByLayer
 62
  256
370
   -1
100
AcDbLine
 10
11753.3162821
 20
726.224570964
 11
12177.3162821
 21
726.224570964
  0
LINE
  5
1EA
100
AcDbEntity
  8
container
  6
ByLayer
 62
  256
370
   -1
100
AcDbLine
 10
11753.3162821
 20
682.224570964
 11
12177.3162821
 21
682.224570964
  0
LINE
  5
1EB
100
AcDbEntity
  8
0
  6
ByLayer
 62
  256
370
   -1
100
AcDbLine
 10
11753.3162821
 20
632.224570964
 11
12053.3162821
 21
632.224570964
  0
LINE
  5
1EC
100
AcDbEntity
  8
container
  6
ByLayer
 62
  256
370
   -1
100
AcDbLine
 10
4500
 20
700
 11
4501
 21
700
  0
LINE
  5
1ED
100
AcDbEntity
  8
container
  6
ByLayer
 62
  256
370
   -1
100
AcDbLine
 10
12053.3162821
 20
-1669.77542904
 11
12053.3162821
 21
682.224570964
  0
LINE
  5
1EE
100
AcDbEntity
  8
container
  6
ByLayer
 62
  256
370
   -1
100
AcDbLine
 10
12177.3162821
 20
-1713.77542904
 11
12177.3162821
 21
726.224570964
  0
MTEXT
  5
1EF
100
AcDbEntity
  8
text
  6
ByLayer
 62
  256
370
   -1
100
AcDbMText
 10
11000
 20
0
 30
0
 40
400
 41
577.7777777777778
 71
    1
 72
    1
  1
kit
  7
standard
210
0
220
0
230
1
 50
0
 73
    2
 44
1
  0
LINE
  5
1F0
100
AcDbEntity
  8
bogus
  6
ByLayer
 62
  256
370
   -1
100
AcDbLine
 10
11753.3162821
 20
632.224570964
 11
11753.3162821
 21
742.224570964
  0
LINE
  5
1F1
100
AcDbEntity
  8
0
  6
ByLayer
 62
  256
370
   -1
100
AcDbLine
 10
4561.31628207
 20
632.224570964
 11
4561.31628207
 21
682.224570964
  0
LINE
  5
1F2
100
AcDbEntity
  8
0
  6
ByLayer
 62
  256
370
   -1
100
AcDbLine
 10
6061.31628207
 20
632.224570964
 11
6061.31628207
 21
682.224570964
  0
LINE
  5
1F3
100
AcDbEntity
  8
container
  6
ByLayer
 62
  256
370
   -1
100
AcDbLine
 10
4561.31628207
 20
682.224570964
 11
4561.31628207
 21
726.224570964
  0
LINE
  5
1F4
100
AcDbEntity
  8
container
  6
ByLayer
 62
  256
370
   -1
100
AcDbLine
 10
6061.31628207
 20
682.224570964
 11
6061.31628207
 21
726.224570964
  0
LINE
  5
1F5
100
AcDbEntity
  8
container
  6
ByLayer
 62
  256
370
   -1
100
AcDbLine
 10
3911.31628207
 20
726.224570964
 11
4561.31628207
 21
726.224570964
  0
LINE
  5
1F6
100
AcDbEntity
  8
container
  6
ByLayer
 62
  256
370
   -1
100
AcDbLine
 10
3911.31628207
 20
682.224570964
 11
4561.31628207
 21
682.224570964
  0
LINE
  5
1F7
100
AcDbEntity
  8
0
  6
ByLayer
 62
  256
370
   -1
100
AcDbLine
 10
3911.31628207
 20
632.224570964
 11
4561.31628207
 21
632.224570964
  0
LINE
  5
1F8
100
AcDbEntity
  8
0
  6
ByLayer
 62
  256
370
   -1
100
AcDbLine
 10
6061.31628207
 20
632.224570964
 11
10033.3162821
 21
632.224570964
  0
LINE
  5
1F9
100
AcDbEntity
  8
container
  6
ByLayer
 62
  256
370
   -1
100
AcDbLine
 10
6061.31628207
 20
682.224570964
 11
10033.3162821
 21
682.224570964
  0
LINE
  5
1FA
100
AcDbEntity
  8
container
  6
ByLayer
 62
  256
370
   -1
100
AcDbLine
 10
6061.31628207
 20
726.224570964
 11
10033.3162821
 21
726.224570964
  0
LINE
  5
1FB
100
AcDbEntity
  8
container
  6
ByLayer
 62
  256
370
   -1
100
AcDbLine
 10
4561.31628207
 20
-1669.77542904
 11
4561.31628207
 21
-1713.77542904
  0
LINE
  5
1FC
100
AcDbEntity
  8
container
  6
ByLayer
 62
  256
370
   -1
100
AcDbLine
 10
6061.31628207
 20
-1669.77542904
 11
6061.31628207
 21
-1713.77542904
  0
LINE
  5
1FD
100
AcDbEntity
  8
0
  6
ByLayer
 62
  256
370
   -1
100
AcDbLine
 10
4561.31628207
 20
-1619.77542904
 11
4561.31628207
 21
-1669.77542904
  0
LINE
  5
1FE
100
AcDbEntity
  8
0
  6
ByLayer
 62
  256
370
   -1
100
AcDbLine
 10
6061.31628207
 20
-1619.77542904
 11
6061.31628207
 21
-1669.77542904
  0
LINE
  5
1FF
100
AcDbEntity
  8
0
  6
ByLayer
 62
  256
370
   -1
100
AcDbLine
 10
5311.31628207
 20
-1619.77542904
 11
5311.31628207
 21
-1669.77542904
  0
LINE
  5
200
100
AcDbEntity
  8
0
  6
ByLayer
 62
  256
370
   -1
100
AcDbLine
 10
5311.31628207
 20
-1669.77542904
 11
5311.31628207
 21
-1713.77542904
  0
LINE
  5
201
100
AcDbEntity
  8
bogus
  6
ByLayer
 62
  256
370
   -1
100
AcDbLine
 10
71.31628207280001
 20
6430.70897759
 11
71.31628207280001
 21
6540.70897759
  0
LINE
  5
202
100
AcDbEntity
  8
0
  6
ByLayer
 62
  256
370
   -1
100
AcDbLine
 10
5321.31628207
 20
8072.22457097
 11
5321.31628207
 21
5820.22457096
  0
LINE
  5
203
100
AcDbEntity
  8
0
  6
ByLayer
 62
  256
370
   -1
100
AcDbLine
 10
5271.31628207
 20
8072.22457097
 11
5271.31628207
 21
5820.22457096
  0
LINE
  5
204
100
AcDbEntity
  8
0
  6
ByLayer
 62
  256
370
   -1
100
AcDbLine
 10
5321.31628207
 20
6670.22457096
 11
7021.31628207
 21
6670.22457096
  0
INSERT
  5
205
100
AcDbEntity
  8
fixtures
  6
ByLayer
 62
  256
370
   -1
100
AcDbBlockReference
  2
jtub
 10
5323.54085303
 20
7058.9611091
 30
0
 41
1
 42
1
 43
0
 50
0
 70
    1
 71
    1
 44
1
 45
1
  0
LINE
  5
206
100
AcDbEntity
  8
0
  6
ByLayer
 62
  256
370
   -1
100
AcDbLine
 10
8311.31628207
 20
8072.22457096
 11
8311.31628207
 21
5820.22457096
  0
LINE
  5
207
100
AcDbEntity
  8
0
  6
ByLayer
 62
  256
370
   -1
100
AcDbLine
 10
8361.31628207
 20
8072.22457096
 11
8361.31628207
 21
5820.22457096
  0
INSERT
  5
208
100
AcDbEntity
  8
doors
  6
ByLayer
 62
  256
370
   -1
100
AcDbBlockReference
  2
door700VerLeft-1
 10
7021.31628207
 20
6595.22457096
 30
0
 41
1
 42
1
 43
0
 50
0
 70
    1
 71
    1
 44
1
 45
1
  0
LINE
  5
209
100
AcDbEntity
  8
0
  6
ByLayer
 62
  256
370
   -1
100
AcDbLine
 10
7021.31628207
 20
6595.22457096
 11
7071.31628207
 21
6595.22457096
  0
LINE
  5
20A
100
AcDbEntity
  8
0
  6
ByLayer
 62
  256
370
   -1
100
AcDbLine
 10
7021.31628207
 20
5885.22457096
 11
7071.31628207
 21
5885.22457096
  0
LINE
  5
20B
100
AcDbEntity
  8
0
  6
ByLayer
 62
  256
370
   -1
100
AcDbLine
 10
7071.31628207
 20
8047.22457096
 11
7071.31628207
 21
8072.22457096
  0
LINE
  5
20C
100
AcDbEntity
  8
0
  6
ByLayer
 62
  256
370
   -1
100
AcDbLine
 10
7021.31628207
 20
8072.22457096
 11
7021.31628207
 21
8047.22457096
  0
LINE
  5
20D
100
AcDbEntity
  8
0
  6
ByLayer
 62
  256
370
   -1
100
AcDbLine
 10
7021.31628207
 20
6620.22457096
 11
7021.31628207
 21
6595.22457096
  0
LINE
  5
20E
100
AcDbEntity
  8
0
  6
ByLayer
 62
  256
370
   -1
100
AcDbLine
 10
7071.31628207
 20
5885.22457096
 11
7071.31628207
 21
5820.22457096
  0
LINE
  5
20F
100
AcDbEntity
  8
0
  6
ByLayer
 62
  256
370
   -1
100
AcDbLine
 10
7021.31619575
 20
5885.22457096
 11
7021.31628207
 21
5820.22457096
  0
LINE
  5
210
100
AcDbEntity
  8
0
  6
ByLayer
 62
  256
370
   -1
100
AcDbLine
 10
9161.31628207
 20
8072.22457096
 11
9161.31628207
 21
5820.22457096
  0
INSERT
  5
211
100
AcDbEntity
  8
tatami
  6
ByLayer
 62
  256
370
   -1
100
AcDbBlockReference
  2
KyotoKyomaTatamiVertical-1
 10
10116.3162821
 20
5991.22457097
 30
0
 41
1
 42
1
 43
0
 50
0
 70
    1
 71
    1
 44
1
 45
1
  0
INSERT
  5
212
100
AcDbEntity
  8
tatami
  6
ByLayer
 62
  256
370
   -1
100
AcDbBlockReference
  2
KyotoKyomaTatamiVertical-1
 10
12026.3162821
 20
5991.22457097
 30
0
 41
1
 42
1
 43
0
 50
0
 70
    1
 71
    1
 44
1
 45
1
  0
INSERT
  5
213
100
AcDbEntity
  8
tatami
  6
ByLayer
 62
  256
370
   -1
100
AcDbBlockReference
  2
KyotoKyomaTatamiHalf-1
 10
10116.3162821
 20
6946.22457097
 30
0
 41
1
 42
1
 43
0
 50
0
 70
    1
 71
    1
 44
1
 45
1
  0
INSERT
  5
214
100
AcDbEntity
  8
tatami
  6
ByLayer
 62
  256
370
   -1
100
AcDbBlockReference
  2
KyotoKyomaTatamiHalf-1
 10
10116.3162821
 20
5991.22457097
 30
0
 41
1
 42
1
 43
0
 50
0
 70
    1
 71
    1
 44
1
 45
1
  0
LINE
  5
215
100
AcDbEntity
  8
0
  6
ByLayer
 62
  256
370
   -1
100
AcDbLine
 10
71.31628207280001
 20
5820.22457096
 11
71.31628207280001
 21
8072.22457096
  0
LINE
  5
216
100
AcDbEntity
  8
0
  6
ByLayer
 62
  256
370
   -1
100
AcDbLine
 10
13347.3162821
 20
5776.22457096
 11
13347.3162821
 21
8116.22457096
  0
LINE
  5
217
100
AcDbEntity
  8
container
  6
ByLayer
 62
  256
370
   -1
100
AcDbLine
 10
13347.3162821
 20
8116.22457096
 11
13347.3162821
 21
8160.22457096
  0
LINE
  5
218
100
AcDbEntity
  8
container
  6
ByLayer
 62
  256
370
   -1
100
AcDbLine
 10
13347.3162821
 20
5732.22457096
 11
13347.3162821
 21
5776.22457096
  0
LINE
  5
219
100
AcDbEntity
  8
container
  6
ByLayer
 62
  256
370
   -1
100
AcDbLine
 10
21.3162820728
 20
5770.22457096
 11
21.3162820728
 21
8122.22457096
  0
LINE
  5
21A
100
AcDbEntity
  8
container
  6
ByLayer
 62
  256
370
   -1
100
AcDbLine
 10
-22.6837179272
 20
5726.22457096
 11
-22.6837179272
 21
8166.22457096
  0
LINE
  5
21B
100
AcDbEntity
  8
container
  6
ByLayer
 62
  256
370
   -1
100
AcDbLine
 10
12177.3162821
 20
8116.22457096
 11
13347.3162821
 21
8116.22457096
  0
LINE
  5
21C
100
AcDbEntity
  8
container
  6
ByLayer
 62
  256
370
   -1
100
AcDbLine
 10
12177.3162821
 20
5776.22457096
 11
13347.3162821
 21
5776.22457096
  0
LINE
  5
21D
100
AcDbEntity
  8
container
  6
ByLayer
 62
  256
370
   -1
100
AcDbLine
 10
12177.3162821
 20
8160.22457096
 11
13347.3162821
 21
8160.22457096
  0
LINE
  5
21E
100
AcDbEntity
  8
container
  6
ByLayer
 62
  256
370
   -1
100
AcDbLine
 10
12177.3162821
 20
5732.22457096
 11
13347.3162821
 21
5732.22457096
  0
LINE
  5
21F
100
AcDbEntity
  8
container
  6
ByLayer
 62
  256
370
   -1
100
AcDbLine
 10
12053.3162821
 20
5770.22457096
 11
12053.3162821
 21
8122.22457096
  0
LINE
  5
220
100
AcDbEntity
  8
container
  6
ByLayer
 62
  256
370
   -1
100
AcDbLine
 10
12177.3162821
 20
5726.22457096
 11
12177.3162821
 21
8166.22457096
  0
LINE
  5
221
100
AcDbEntity
  8
0
  6
ByLayer
 62
  256
370
   -1
100
AcDbLine
 10
5321.31628207
 20
6620.22457096
 11
7021.31628207
 21
6620.22457096
  0
INSERT
  5
222
100
AcDbEntity
  8
fixtures
  6
ByLayer
 62
  256
370
   -1
100
AcDbBlockReference
  2
WCVerRight-2
 10
5346.31628207
 20
5977.46418703
 30
0
 41
1
 42
1
 43
0
 50
0
 70
    1
 71
    1
 44
1
 45
1
  0
LINE
  5
223
100
AcDbEntity
  8
0
  6
ByLayer
 62
  256
370
   -1
100
AcDbLine
 10
7386.31628207
 20
5820.22457096
 11
7386.31628207
 21
5770.22457096
  0
LINE
  5
224
100
AcDbEntity
  8
0
  6
ByLayer
 62
  256
370
   -1
100
AcDbLine
 10
8286.31628207
 20
5820.22457096
 11
8286.31628207
 21
5770.22457096
  0
LINE
  5
225
100
AcDbEntity
  8
container
  6
ByLayer
 62
  256
370
   -1
100
AcDbLine
 10
7386.31628207
 20
5770.22457096
 11
7386.31628207
 21
5726.22457096
  0
LINE
  5
226
100
AcDbEntity
  8
container
  6
ByLayer
 62
  256
370
   -1
100
AcDbLine
 10
8286.31628207
 20
5770.22457096
 11
8286.31628207
 21
5726.22457096
  0
LINE
  5
227
100
AcDbEntity
  8
0
  6
ByLayer
 62
  256
370
   -1
100
AcDbLine
 10
3821.31628207
 20
5820.22457096
 11
5271.31628207
 21
5820.22457096
  0
LINE
  5
228
100
AcDbEntity
  8
0
  6
ByLayer
 62
  256
370
   -1
100
AcDbLine
 10
5321.31628207
 20
5820.22457096
 11
7021.31628207
 21
5820.22457096
  0
LINE
  5
229
100
AcDbEntity
  8
0
  6
ByLayer
 62
  256
370
   -1
100
AcDbLine
 10
7071.31628207
 20
5820.22457096
 11
7386.31628207
 21
5820.22457096
  0
LINE
  5
22A
100
AcDbEntity
  8
container
  6
ByLayer
 62
  256
370
   -1
100
AcDbLine
 10
3821.96177861
 20
5726.22457096
 11
7386.31628207
 21
5726.22457096
  0
LINE
  5
22B
100
AcDbEntity
  8
container
  6
ByLayer
 62
  256
370
   -1
100
AcDbLine
 10
7386.31628207
 20
5770.22457096
 11
3821.96177861
 21
5770.22457096
  0
INSERT
  5
22C
100
AcDbEntity
  8
eletrical
  6
ByLayer
 62
  256
370
   -1
100
AcDbBlockReference
  2
outlet110HorUp-0
 10
5633.26441289
 20
5820.22457096
 30
0
 41
1
 42
1
 43
0
 50
0
 70
    1
 71
    1
 44
1
 45
1
  0
LINE
  5
22D
100
AcDbEntity
  8
0
  6
ByLayer
 62
  256
370
   -1
100
AcDbLine
 10
71.31628207280001
 20
8072.22457096
 11
5271.31628207
 21
8072.22457096
  0
LINE
  5
22E
100
AcDbEntity
  8
0
  6
ByLayer
 62
  256
370
   -1
100
AcDbLine
 10
5321.31628207
 20
8072.22457097
 11
7021.31628207
 21
8072.22457096
  0
LINE
  5
22F
100
AcDbEntity
  8
0
  6
ByLayer
 62
  256
370
   -1
100
AcDbLine
 10
7071.31628207
 20
8072.22457096
 11
8311.31628207
 21
8072.22457096
  0
LINE
  5
230
100
AcDbEntity
  8
0
  6
ByLayer
 62
  256
370
   -1
100
AcDbLine
 10
8361.31628207
 20
8072.22457096
 11
9161.31628207
 21
8072.22457096
  0
INSERT
  5
231
100
AcDbEntity
  8
doors
  6
ByLayer
 62
  256
370
   -1
100
AcDbBlockReference
  2
door800VerLeft-0
 10
7021.31628207
 20
6695.22457096
 30
0
 41
-1
 42
1
 43
0
 50
180
 70
    1
 71
    1
 44
1
 45
1
  0
LINE
  5
232
100
AcDbEntity
  8
0
  6
ByLayer
 62
  256
370
   -1
100
AcDbLine
 10
7021.31628207
 20
7495.22457096
 11
7071.31628207
 21
7495.22457096
  0
LINE
  5
233
100
AcDbEntity
  8
0
  6
ByLayer
 62
  256
370
   -1
100
AcDbLine
 10
7021.31636839
 20
7495.22457096
 11
7021.31628207
 21
8047.22457096
  0
LINE
  5
234
100
AcDbEntity
  8
0
  6
ByLayer
 62
  256
370
   -1
100
AcDbLine
 10
7071.31628207
 20
8047.22457096
 11
7071.31628207
 21
7495.22457096
  0
LINE
  5
235
100
AcDbEntity
  8
0
  6
ByLayer
 62
  256
370
   -1
100
AcDbLine
 10
7021.31628207
 20
6695.22457096
 11
7071.31628207
 21
6695.22457096
  0
LINE
  5
236
100
AcDbEntity
  8
0
  6
ByLayer
 62
  256
370
   -1
100
AcDbLine
 10
7021.31628207
 20
6695.22457096
 11
7021.31628207
 21
6670.22457096
  0
LINE
  5
237
100
AcDbEntity
  8
0
  6
ByLayer
 62
  256
370
   -1
100
AcDbLine
 10
7071.31628207
 20
6695.22457096
 11
7071.31628207
 21
6595.22457096
  0
LINE
  5
238
100
AcDbEntity
  8
0
  6
ByLayer
 62
  256
370
   -1
100
AcDbLine
 10
4471.31628207
 20
8072.22457097
 11
4471.31628207
 21
5820.22457096
  0
INSERT
  5
239
100
AcDbEntity
  8
tatami
  6
ByLayer
 62
  256
370
   -1
100
AcDbBlockReference
  2
KyotoKyomaTatamiVertical-8
 10
3226.31628207
 20
7901.22457097
 30
0
 41
1
 42
1
 43
0
 50
180
 70
    1
 71
    1
 44
0
 45
0
  0
INSERT
  5
23A
100
AcDbEntity
  8
tatami
  6
ByLayer
 62
  256
370
   -1
100
AcDbBlockReference
  2
KyotoKyomaTatamiVertical-9
 10
361.31628207
 20
7901.22457097
 30
0
 41
1
 42
1
 43
0
 50
180
 70
    1
 71
    1
 44
0
 45
0
  0
INSERT
  5
23B
100
AcDbEntity
  8
tatami
  6
ByLayer
 62
  256
370
   -1
100
AcDbBlockReference
  2
KyotoKyomaTatami-0
 10
3226.31628207
 20
7901.22457097
 30
0
 41
1
 42
1
 43
0
 50
180
 70
    1
 71
    1
 44
0
 45
0
  0
INSERT
  5
23C
100
AcDbEntity
  8
tatami
  6
ByLayer
 62
  256
370
   -1
100
AcDbBlockReference
  2
KyotoKyomaTatami-1
 10
3226.31628207
 20
6946.22457097
 30
0
 41
1
 42
1
 43
0
 50
180
 70
    1
 71
    1
 44
0
 45
0
  0
LINE
  5
23D
100
AcDbEntity
  8
0
  6
ByLayer
 62
  256
370
   -1
100
AcDbLine
 10
2271.31628207
 20
8072.22457096
 11
2271.31628207
 21
8122.22457096
  0
LINE
  5
23E
100
AcDbEntity
  8
0
  6
ByLayer
 62
  256
370
   -1
100
AcDbLine
 10
3021.31628207
 20
8072.22457097
 11
3021.31628207
 21
8122.22457097
  0
LINE
  5
23F
100
AcDbEntity
  8
0
  6
ByLayer
 62
  256
370
   -1
100
AcDbLine
 10
1521.31628207
 20
8072.22457096
 11
1521.31628207
 21
8122.22457096
  0
LINE
  5
240
100
AcDbEntity
  8
container
  6
ByLayer
 62
  256
370
   -1
100
AcDbLine
 10
1521.31628207
 20
8122.22457096
 11
1521.31628207
 21
8166.22457096
  0
LINE
  5
241
100
AcDbEntity
  8
container
  6
ByLayer
 62
  256
370
   -1
100
AcDbLine
 10
2271.31628207
 20
8122.22457096
 11
2271.31628207
 21
8166.22457096
  0
LINE
  5
242
100
AcDbEntity
  8
container
  6
ByLayer
 62
  256
370
   -1
100
AcDbLine
 10
3021.31628207
 20
8122.22457097
 11
3021.31628207
 21
8166.22457096
  0
LINE
  5
243
100
AcDbEntity
  8
0
  6
ByLayer
 62
  256
370
   -1
100
AcDbLine
 10
1521.31628207
 20
5820.22457096
 11
1521.31628207
 21
5770.22457096
  0
LINE
  5
244
100
AcDbEntity
  8
0
  6
ByLayer
 62
  256
370
   -1
100
AcDbLine
 10
3021.31628207
 20
5820.22457096
 11
3021.31628207
 21
5770.22457096
  0
LINE
  5
245
100
AcDbEntity
  8
container
  6
ByLayer
 62
  256
370
   -1
100
AcDbLine
 10
1521.31628207
 20
5770.22457096
 11
1521.31628207
 21
5726.22457096
  0
LINE
  5
246
100
AcDbEntity
  8
container
  6
ByLayer
 62
  256
370
   -1
100
AcDbLine
 10
3021.31628207
 20
5770.22457096
 11
3021.31628207
 21
5726.22457096
  0
LINE
  5
247
100
AcDbEntity
  8
0
  6
ByLayer
 62
  256
370
   -1
100
AcDbLine
 10
71.31628207280001
 20
5820.22457096
 11
1521.31628207
 21
5820.22457096
  0
LINE
  5
248
100
AcDbEntity
  8
container
  6
ByLayer
 62
  256
370
   -1
100
AcDbLine
 10
21.3162820728
 20
5770.22457096
 11
1521.31628207
 21
5770.22457096
  0
LINE
  5
249
100
AcDbEntity
  8
container
  6
ByLayer
 62
  256
370
   -1
100
AcDbLine
 10
-22.6837179272
 20
5726.22457096
 11
1521.31628207
 21
5726.22457096
  0
LINE
  5
24A
100
AcDbEntity
  8
0
  6
ByLayer
 62
  256
370
   -1
100
AcDbLine
 10
3021.31628207
 20
5820.22457096
 11
3821.31628207
 21
5820.22457096
  0
LINE
  5
24B
100
AcDbEntity
  8
container
  6
ByLayer
 62
  256
370
   -1
100
AcDbLine
 10
3021.31628207
 20
5770.22457096
 11
3821.96177861
 21
5770.22457096
  0
LINE
  5
24C
100
AcDbEntity
  8
container
  6
ByLayer
 62
  256
370
   -1
100
AcDbLine
 10
3021.31628207
 20
5726.22457096
 11
3821.96177861
 21
5726.22457096
  0
LINE
  5
24D
100
AcDbEntity
  8
0
  6
ByLayer
 62
  256
370
   -1
100
AcDbLine
 10
-22.6837179272
 20
5726.22457096
 11
-22.6837179272
 21
726.224570964
  0
LINE
  5
24E
100
AcDbEntity
  8
0
  6
ByLayer
 62
  256
370
   -1
100
AcDbLine
 10
127.316282073
 20
5726.22457096
 11
127.316282073
 21
726.224570964
  0
LINE
  5
24F
100
AcDbEntity
  8
0
  6
ByLayer
 62
  256
370
   -1
100
AcDbLine
 10
12177.3162821
 20
5726.22457096
 11
12177.3162821
 21
726.224570964
  0
LINE
  5
250
100
AcDbEntity
  8
0
  6
ByLayer
 62
  256
370
   -1
100
AcDbLine
 10
12027.3162821
 20
5726.22457096
 11
12027.3162821
 21
726.224570964
  0
LINE
  5
251
100
AcDbEntity
  8
deck
  6
ByLayer
 62
  256
370
   -1
100
AcDbLine
 10
-1192.68371793
 20
5726.22457096
 11
-1192.68371793
 21
726.224570964
  0
LINE
  5
252
100
AcDbEntity
  8
deck
  6
ByLayer
 62
  256
370
   -1
100
AcDbLine
 10
-1192.68371793
 20
9336.224570959999
 11
14517.3162821
 21
9336.224570959999
  0
LINE
  5
253
100
AcDbEntity
  8
deck
  6
ByLayer
 62
  256
370
   -1
100
AcDbLine
 10
-1192.68371793
 20
-2883.77542904
 11
14517.3162821
 21
-2883.77542904
  0
LINE
  5
254
100
AcDbEntity
  8
deck
  6
ByLayer
 62
  256
370
   -1
100
AcDbLine
 10
-1192.68371793
 20
5726.22457096
 11
-1192.68371793
 21
9336.224570959999
  0
LINE
  5
255
100
AcDbEntity
  8
deck
  6
ByLayer
 62
  256
370
   -1
100
AcDbLine
 10
14517.3162821
 20
5776.22457096
 11
14517.3162821
 21
9336.224570959999
  0
LINE
  5
256
100
AcDbEntity
  8
deck
  6
ByLayer
 62
  256
370
   -1
100
AcDbLine
 10
-1192.68371793
 20
-2883.77542904
 11
-1192.68371793
 21
726.224570964
  0
LINE
  5
257
100
AcDbEntity
  8
deck
  6
ByLayer
 62
  256
370
   -1
100
AcDbLine
 10
14517.3162821
 20
-2883.77542904
 11
14517.3162821
 21
676.224570964
  0
LINE
  5
258
100
AcDbEntity
  8
deck
  6
ByLayer
 62
  256
370
   -1
100
AcDbLine
 10
14517.3162821
 20
5776.22457096
 11
14517.3162821
 21
674.881726705
  0
LINE
  5
259
100
AcDbEntity
  8
0
  6
ByLayer
 62
  256
370
   -1
100
AcDbLine
 10
4127.31628207
 20
5726.22457096
 11
4127.31628207
 21
726.224570964
  0
LINE
  5
25A
100
AcDbEntity
  8
0
  6
ByLayer
 62
  256
370
   -1
100
AcDbLine
 10
3977.31628207
 20
5726.22457096
 11
3977.31628207
 21
726.224570964
  0
LINE
  5
25B
100
AcDbEntity
  8
0
  6
ByLayer
 62
  256
370
   -1
100
AcDbLine
 10
9856.96729936
 20
5820.22457096
 11
9856.96729936
 21
5770.22457096
  0
LINE
  5
25C
100
AcDbEntity
  8
0
  6
ByLayer
 62
  256
370
   -1
100
AcDbLine
 10
11357.3162821
 20
5820.22457096
 11
11357.3162821
 21
5770.22457096
  0
LINE
  5
25D
100
AcDbEntity
  8
container
  6
ByLayer
 62
  256
370
   -1
100
AcDbLine
 10
9856.96729936
 20
5770.22457096
 11
9856.96729936
 21
5726.22457096
  0
LINE
  5
25E
100
AcDbEntity
  8
container
  6
ByLayer
 62
  256
370
   -1
100
AcDbLine
 10
11357.3162821
 20
5770.22457096
 11
11357.3162821
 21
5726.22457096
  0
LINE
  5
25F
100
AcDbEntity
  8
0
  6
ByLayer
 62
  256
370
   -1
100
AcDbLine
 10
8286.31628207
 20
5820.22457096
 11
9857.31628207
 21
5820.22457096
  0
LINE
  5
260
100
AcDbEntity
  8
container
  6
ByLayer
 62
  256
370
   -1
100
AcDbLine
 10
8286.31628207
 20
5770.22457096
 11
9857.31628207
 21
5770.22457096
  0
LINE
  5
261
100
AcDbEntity
  8
container
  6
ByLayer
 62
  256
370
   -1
100
AcDbLine
 10
8286.31628207
 20
5726.22457096
 11
9857.31628207
 21
5726.22457096
  0
LINE
  5
262
100
AcDbEntity
  8
0
  6
ByLayer
 62
  256
370
   -1
100
AcDbLine
 10
11357.3162821
 20
5820.22457096
 11
12053.3162821
 21
5820.22457096
  0
LINE
  5
263
100
AcDbEntity
  8
0
  6
ByLayer
 62
  256
370
   -1
100
AcDbLine
 10
11357.3162821
 20
5770.22457096
 11
12177.3162821
 21
5770.22457096
  0
LINE
  5
264
100
AcDbEntity
  8
container
  6
ByLayer
 62
  256
370
   -1
100
AcDbLine
 10
11357.3162821
 20
5726.22457096
 11
12177.3162821
 21
5726.22457096
  0
LINE
  5
265
100
AcDbEntity
  8
0
  6
ByLayer
 62
  256
370
   -1
100
AcDbLine
 10
11357.3162821
 20
8072.22457096
 11
11357.3162821
 21
8122.22457096
  0
LINE
  5
266
100
AcDbEntity
  8
0
  6
ByLayer
 62
  256
370
   -1
100
AcDbLine
 10
9857.31628207
 20
8072.22457096
 11
9857.31628207
 21
8122.22457096
  0
LINE
  5
267
100
AcDbEntity
  8
container
  6
ByLayer
 62
  256
370
   -1
100
AcDbLine
 10
9857.31628207
 20
8122.22457096
 11
9857.31628207
 21
8166.22457096
  0
LINE
  5
268
100
AcDbEntity
  8
container
  6
ByLayer
 62
  256
370
   -1
100
AcDbLine
 10
11357.3162821
 20
8122.22457096
 11
11357.3162821
 21
8166.22457096
  0
LINE
  5
269
100
AcDbEntity
  8
container
  6
ByLayer
 62
  256
370
   -1
100
AcDbLine
 10
-22.6837179272
 20
8166.22457096
 11
9857.31628207
 21
8166.22457096
  0
LINE
  5
26A
100
AcDbEntity
  8
container
  6
ByLayer
 62
  256
370
   -1
100
AcDbLine
 10
21.3162820728
 20
8122.22457096
 11
9857.31628207
 21
8122.22457096
  0
LINE
  5
26B
100
AcDbEntity
  8
0
  6
ByLayer
 62
  256
370
   -1
100
AcDbLine
 10
9857.31628207
 20
8072.22457096
 11
9161.31628207
 21
8072.22457096
  0
LINE
  5
26C
100
AcDbEntity
  8
0
  6
ByLayer
 62
  256
370
   -1
100
AcDbLine
 10
11357.3162821
 20
8072.22457096
 11
12053.3162821
 21
8072.22457096
  0
LINE
  5
26D
100
AcDbEntity
  8
container
  6
ByLayer
 62
  256
370
   -1
100
AcDbLine
 10
11357.3162821
 20
8166.22457096
 11
12177.3162821
 21
8166.22457096
  0
LINE
  5
26E
100
AcDbEntity
  8
container
  6
ByLayer
 62
  256
370
   -1
100
AcDbLine
 10
11357.3162821
 20
8122.22457096
 11
12177.3162821
 21
8122.22457096
  0
INSERT
  5
26F
100
AcDbEntity
  8
fixtures
  6
ByLayer
 62
  256
370
   -1
100
AcDbBlockReference
  2
washer_Hor-1
 10
7766.31628207
 20
7497.22457096
 30
0
 41
1
 42
1
 43
0
 50
0
 70
    1
 71
    1
 44
0
 45
0
  0
INSERT
  5
270
100
AcDbEntity
  8
eletrical
  6
ByLayer
 62
  256
370
   -1
100
AcDbBlockReference
  2
outlet110HorUp-0
 10
8200.14598033
 20
8072.22457096
 30
0
 41
1
 42
1
 43
0
 50
180
 70
    1
 71
    1
 44
1
 45
1
  0
INSERT
  5
271
100
AcDbEntity
  8
eletrical
  6
ByLayer
 62
  256
370
   -1
100
AcDbBlockReference
  2
outlet220HorUp
 10
153.903977386
 20
5820.22457096
 30
0
 41
1
 42
1
 43
0
 50
0
 70
    1
 71
    1
 44
0
 45
0
  0
INSERT
  5
272
100
AcDbEntity
  8
eletrical
  6
ByLayer
 62
  256
370
   -1
100
AcDbBlockReference
  2
outlet220HorUp
 10
4271.89901172
 20
5820.22457096
 30
0
 41
1
 42
1
 43
0
 50
0
 70
    1
 71
    1
 44
1
 45
1
  0
INSERT
  5
273
100
AcDbEntity
  8
eletrical
  6
ByLayer
 62
  256
370
   -1
100
AcDbBlockReference
  2
outlet220HorUp
 10
9275.004858050001
 20
5820.22457096
 30
0
 41
1
 42
1
 43
0
 50
0
 70
    1
 71
    1
 44
1
 45
1
  0
INSERT
  5
274
100
AcDbEntity
  8
eletrical
  6
ByLayer
 62
  256
370
   -1
100
AcDbBlockReference
  2
outlet220HorUp
 10
11872.4860573
 20
5820.22457096
 30
0
 41
1
 42
1
 43
0
 50
0
 70
    1
 71
    1
 44
1
 45
1
  0
INSERT
  5
275
100
AcDbEntity
  8
eletrical
  6
ByLayer
 62
  256
370
   -1
100
AcDbBlockReference
  2
outlet220HorUp
 10
11786.4855082
 20
-1619.77542904
 30
0
 41
1
 42
1
 43
0
 50
0
 70
    1
 71
    1
 44
1
 45
1
  0
INSERT
  5
276
100
AcDbEntity
  8
eletrical
  6
ByLayer
 62
  256
370
   -1
100
AcDbBlockReference
  2
outlet220HorUp
 10
7303.43124474
 20
-1619.77542904
 30
0
 41
1
 42
1
 43
0
 50
0
 70
    1
 71
    1
 44
1
 45
1
  0
INSERT
  5
277
100
AcDbEntity
  8
eletrical
  6
ByLayer
 62
  256
370
   -1
100
AcDbBlockReference
  2
outlet220HorUp
 10
3245.96944211
 20
-1619.77542904
 30
0
 41
1
 42
1
 43
0
 50
0
 70
    1
 71
    1
 44
1
 45
1
  0
INSERT
  5
278
100
AcDbEntity
  8
eletrical
  6
ByLayer
 62
  256
370
   -1
100
AcDbBlockReference
  2
outlet220HorUp
 10
10161.2956449
 20
-1619.77542904
 30
0
 41
1
 42
1
 43
0
 50
0
 70
    1
 71
    1
 44
1
 45
1
  0
INSERT
  5
279
100
AcDbEntity
  8
eletrical
  6
ByLayer
 62
  256
370
   -1
100
AcDbBlockReference
  2
outlet220HorUp
 10
10044.8641323
 20
-1619.77542904
 30
0
 41
1
 42
1
 43
0
 50
0
 70
    1
 71
    1
 44
1
 45
1
  0
INSERT
  5
27A
100
AcDbEntity
  8
eletrical
  6
ByLayer
 62
  256
370
   -1
100
AcDbBlockReference
  2
outlet220HorUp
 10
8746.476355410001
 20
-1619.77542904
 30
0
 41
1
 42
1
 43
0
 50
0
 70
    1
 71
    1
 44
1
 45
1
  0
INSERT
  5
27B
100
AcDbEntity
  8
eletrical
  6
ByLayer
 62
  256
370
   -1
100
AcDbBlockReference
  2
outlet220HorUp
 10
8605.347249230001
 20
-1619.77542904
 30
0
 41
1
 42
1
 43
0
 50
0
 70
    1
 71
    1
 44
1
 45
1
  0
INSERT
  5
27C
100
AcDbEntity
  8
eletrical
  6
ByLayer
 62
  256
370
   -1
100
AcDbBlockReference
  2
outlet220HorDwn
 10
11885.8933224
 20
8072.22457096
 30
0
 41
1
 42
1
 43
0
 50
0
 70
    1
 71
    1
 44
1
 45
1
  0
INSERT
  5
27D
100
AcDbEntity
  8
eletrical
  6
ByLayer
 62
  256
370
   -1
100
AcDbBlockReference
  2
outlet220HorDwn
 10
9320.16617203
 20
8072.22457096
 30
0
 41
1
 42
1
 43
0
 50
0
 70
    1
 71
    1
 44
1
 45
1
  0
INSERT
  5
27E
100
AcDbEntity
  8
eletrical
  6
ByLayer
 62
  256
370
   -1
100
AcDbBlockReference
  2
outlet220HorDwn
 10
8047.1816343
 20
8072.22457096
 30
0
 41
1
 42
1
 43
0
 50
0
 70
    1
 71
    1
 44
1
 45
1
  0
INSERT
  5
27F
100
AcDbEntity
  8
eletrical
  6
ByLayer
 62
  256
370
   -1
100
AcDbBlockReference
  2
outlet220HorDwn
 10
7906.05252812
 20
8072.22457096
 30
0
 41
1
 42
1
 43
0
 50
0
 70
    1
 71
    1
 44
1
 45
1
  0
INSERT
  5
280
100
AcDbEntity
  8
eletrical
  6
ByLayer
 62
  256
370
   -1
100
AcDbBlockReference
  2
outlet220HorDwn
 10
4279.03449933
 20
8072.22457096
 30
0
 41
1
 42
1
 43
0
 50
0
 70
    1
 71
    1
 44
1
 45
1
  0
INSERT
  5
281
100
AcDbEntity
  8
eletrical
  6
ByLayer
 62
  256
370
   -1
100
AcDbBlockReference
  2
outlet220HorDwn
 10
256.854973245
 20
8072.22457096
 30
0
 41
1
 42
1
 43
0
 50
0
 70
    1
 71
    1
 44
1
 45
1
  0
INSERT
  5
282
100
AcDbEntity
  8
eletrical
  6
ByLayer
 62
  256
370
   -1
100
AcDbBlockReference
  2
outlet220HorUp
 10
2816.93695932
 20
-1619.77542904
 30
0
 41
1
 42
1
 43
0
 50
0
 70
    1
 71
    1
 44
1
 45
1
  0
INSERT
  5
283
100
AcDbEntity
  8
eletrical
  6
ByLayer
 62
  256
370
   -1
100
AcDbBlockReference
  2
outlet220HorUp
 10
2681.45301739
 20
-1619.77542904
 30
0
 41
1
 42
1
 43
0
 50
0
 70
    1
 71
    1
 44
1
 45
1
  0
INSERT
  5
284
100
AcDbEntity
  8
eletrical
  6
ByLayer
 62
  256
370
   -1
100
AcDbBlockReference
  2
outlet220HorUp
 10
1925.00100827
 20
-1619.77542904
 30
0
 41
1
 42
1
 43
0
 50
0
 70
    1
 71
    1
 44
1
 45
1
  0
INSERT
  5
285
100
AcDbEntity
  8
eletrical
  6
ByLayer
 62
  256
370
   -1
100
AcDbBlockReference
  2
outlet220HorUp
 10
2049.19462171
 20
-1619.77542904
 30
0
 41
1
 42
1
 43
0
 50
0
 70
    1
 71
    1
 44
1
 45
1
  0
INSERT
  5
286
100
AcDbEntity
  8
eletrical
  6
ByLayer
 62
  256
370
   -1
100
AcDbBlockReference
  2
outlet110HorUp-0
 10
2929.84024427
 20
-1619.77542904
 30
0
 41
1
 42
1
 43
0
 50
0
 70
    1
 71
    1
 44
1
 45
1
  0
INSERT
  5
287
100
AcDbEntity
  8
eletrical
  6
ByLayer
 62
  256
370
   -1
100
AcDbBlockReference
  2
outlet110HorUp-0
 10
10265.7311834
 20
-1619.77542904
 30
0
 41
1
 42
1
 43
0
 50
0
 70
    1
 71
    1
 44
1
 45
1
  0
INSERT
  5
288
100
AcDbEntity
  8
eletrical
  6
ByLayer
 62
  256
370
   -1
100
AcDbBlockReference
  2
outlet110HorUp-0
 10
8845.972375269999
 20
-1619.77542904
 30
0
 41
1
 42
1
 43
0
 50
0
 70
    1
 71
    1
 44
1
 45
1
  0
INSERT
  5
289
100
AcDbEntity
  8
eletrical
  6
ByLayer
 62
  256
370
   -1
100
AcDbBlockReference
  2
outlet220VerRight
 10
8361.31628207
 20
493.951871625
 30
0
 41
1
 42
1
 43
0
 50
0
 70
    1
 71
    1
 44
1
 45
1
  0
INSERT
  5
28A
100
AcDbEntity
  8
eletrical
  6
ByLayer
 62
  256
370
   -1
100
AcDbBlockReference
  2
outlet220VerRight
 10
8361.31628207
 20
-282.533855143
 30
0
 41
1
 42
1
 43
0
 50
0
 70
    1
 71
    1
 44
1
 45
1
  0
INSERT
  5
28B
100
AcDbEntity
  8
eletrical
  6
ByLayer
 62
  256
370
   -1
100
AcDbBlockReference
  2
outlet220VerRight
 10
127.316282073
 20
5383.64815439
 30
0
 41
1
 42
1
 43
0
 50
0
 70
    1
 71
    1
 44
1
 45
1
  0
INSERT
  5
28C
100
AcDbEntity
  8
eletrical
  6
ByLayer
 62
  256
370
   -1
100
AcDbBlockReference
  2
outlet220VerRight
 10
127.316282073
 20
1049.81139011
 30
0
 41
1
 42
1
 43
0
 50
0
 70
    1
 71
    1
 44
1
 45
1
  0
INSERT
  5
28D
100
AcDbEntity
  8
eletrical
  6
ByLayer
 62
  256
370
   -1
100
AcDbBlockReference
  2
outlet220VerLeft
 10
3977.31628207
 20
1054.33365456
 30
0
 41
1
 42
1
 43
0
 50
0
 70
    1
 71
    1
 44
1
 45
1
  0
INSERT
  5
28E
100
AcDbEntity
  8
deck
  6
ByLayer
 62
  256
370
   -1
100
AcDbBlockReference
  2
outlet110VertLeft
 10
3977.31628207
 20
5383.07395984
 30
0
 41
1
 42
1
 43
0
 50
0
 70
    1
 71
    1
 44
1
 45
1
  0
INSERT
  5
28F
100
AcDbEntity
  8
deck
  6
ByLayer
 62
  256
370
   -1
100
AcDbBlockReference
  2
outlet220HorDwn
 10
7300.79405803
 20
632.224570964
 30
0
 41
1
 42
1
 43
0
 50
0
 70
    1
 71
    1
 44
1
 45
1
  0
INSERT
  5
290
100
AcDbEntity
  8
deck
  6
ByLayer
 62
  256
370
   -1
100
AcDbBlockReference
  2
outlet220HorDwn
 10
3280.31069428
 20
632.224570964
 30
0
 41
1
 42
1
 43
0
 50
0
 70
    1
 71
    1
 44
1
 45
1
  0
INSERT
  5
291
100
AcDbEntity
  8
deck
  6
ByLayer
 62
  256
370
   -1
100
AcDbBlockReference
  2
outlet220HorDwn
 10
9940.74324584
 20
632.224570964
 30
0
 41
1
 42
1
 43
0
 50
0
 70
    1
 71
    1
 44
1
 45
1
  0
INSERT
  5
292
100
AcDbEntity
  8
deck
  6
ByLayer
 62
  256
370
   -1
100
AcDbBlockReference
  2
outlet220HorDwn
 10
11860.7062915
 20
632.224570964
 30
0
 41
1
 42
1
 43
0
 50
0
 70
    1
 71
    1
 44
1
 45
1
  0
LINE
  5
293
100
AcDbEntity
  8
cabinates
  6
ByLayer
 62
  256
370
   -1
100
AcDbLine
 10
1821.31628207
 20
-1119.77542904
 11
3061.31628207
 21
-1119.77542904
  0
ELLIPSE
  5
294
100
AcDbEntity
  8
cabinates
  6
ByLayer
 62
  256
370
   -1
100
AcDbEllipse
 10
2408.02841803
 20
-1361.91771184
 30
0
 11
-249.084535906
 21
2.39504361448
 31
0
 40
0.662347941999
 41
0
 42
6.283185307179586
  0
INSERT
  5
295
100
AcDbEntity
  8
fixtures
  6
ByLayer
 62
  256
370
   -1
100
AcDbBlockReference
  2
WCVerRight-2
 10
96.31628207280001
 20
20.9964392622
 30
0
 41
1
 42
1
 43
0
 50
0
 70
    1
 71
    1
 44
0
 45
0
  0
INSERT
  5
296
100
AcDbEntity
  8
fixtures
  6
ByLayer
 62
  256
370
   -1
100
AcDbBlockReference
  2
jtub
 10
76.3177036228
 20
-1232.10377763
 30
0
 41
1
 42
1
 43
0
 50
0
 70
    1
 71
    1
 44
0
 45
0
  0
ENDSEC
  0
SECTION
  2
OBJECTS
  0
DICTIONARY
  5
C
330
0
100
AcDbDictionary
281
    1
  3
ACAD_GROUP
350
D
  0
DICTIONARY
  5
D
330
C
100
AcDbDictionary
281
    1
  0
ENDSEC
  0
EOF
